G04 #@! TF.GenerationSoftware,KiCad,Pcbnew,8.0.2*
G04 #@! TF.CreationDate,2024-12-10T10:09:32-07:00*
G04 #@! TF.ProjectId,Makerspace_THT_Workshop,4d616b65-7273-4706-9163-655f5448545f,V1.0*
G04 #@! TF.SameCoordinates,Original*
G04 #@! TF.FileFunction,Copper,L1,Top*
G04 #@! TF.FilePolarity,Positive*
%FSLAX46Y46*%
G04 Gerber Fmt 4.6, Leading zero omitted, Abs format (unit mm)*
G04 Created by KiCad (PCBNEW 8.0.2) date 2024-12-10 10:09:32*
%MOMM*%
%LPD*%
G01*
G04 APERTURE LIST*
G04 Aperture macros list*
%AMHorizOval*
0 Thick line with rounded ends*
0 $1 width*
0 $2 $3 position (X,Y) of the first rounded end (center of the circle)*
0 $4 $5 position (X,Y) of the second rounded end (center of the circle)*
0 Add line between two ends*
20,1,$1,$2,$3,$4,$5,0*
0 Add two circle primitives to create the rounded ends*
1,1,$1,$2,$3*
1,1,$1,$4,$5*%
%AMRotRect*
0 Rectangle, with rotation*
0 The origin of the aperture is its center*
0 $1 length*
0 $2 width*
0 $3 Rotation angle, in degrees counterclockwise*
0 Add horizontal line*
21,1,$1,$2,0,0,$3*%
G04 Aperture macros list end*
G04 #@! TA.AperFunction,ComponentPad*
%ADD10R,1.800000X1.800000*%
G04 #@! TD*
G04 #@! TA.AperFunction,ComponentPad*
%ADD11C,1.524000*%
G04 #@! TD*
G04 #@! TA.AperFunction,ComponentPad*
%ADD12C,2.000000*%
G04 #@! TD*
G04 #@! TA.AperFunction,ComponentPad*
%ADD13C,2.340000*%
G04 #@! TD*
G04 #@! TA.AperFunction,ComponentPad*
%ADD14R,0.850000X0.850000*%
G04 #@! TD*
G04 #@! TA.AperFunction,ComponentPad*
%ADD15HorizOval,2.200000X0.459619X0.459619X-0.459619X-0.459619X0*%
G04 #@! TD*
G04 #@! TA.AperFunction,ComponentPad*
%ADD16RotRect,1.500000X2.500000X135.000000*%
G04 #@! TD*
G04 #@! TA.AperFunction,ComponentPad*
%ADD17HorizOval,1.500000X0.353553X0.353553X-0.353553X-0.353553X0*%
G04 #@! TD*
G04 #@! TA.AperFunction,ComponentPad*
%ADD18R,2.000000X2.000000*%
G04 #@! TD*
G04 #@! TA.AperFunction,ComponentPad*
%ADD19R,2.400000X1.600000*%
G04 #@! TD*
G04 #@! TA.AperFunction,ComponentPad*
%ADD20O,2.400000X1.600000*%
G04 #@! TD*
G04 #@! TA.AperFunction,ComponentPad*
%ADD21C,3.000000*%
G04 #@! TD*
G04 #@! TA.AperFunction,SMDPad,CuDef*
%ADD22C,9.000000*%
G04 #@! TD*
G04 #@! TA.AperFunction,ViaPad*
%ADD23C,0.600000*%
G04 #@! TD*
G04 #@! TA.AperFunction,Conductor*
%ADD24C,0.500000*%
G04 #@! TD*
G04 APERTURE END LIST*
D10*
X119600000Y-61600000D03*
D11*
X119600000Y-66600000D03*
D12*
X203910000Y-126600000D03*
X196290000Y-126600000D03*
D13*
X191144964Y-124984362D03*
X180843254Y-124631143D03*
X189766777Y-129790670D03*
D14*
X208100000Y-126600000D03*
D15*
X163999138Y-106499138D03*
X158200863Y-100700863D03*
D16*
X162514214Y-105014214D03*
D17*
X161100000Y-103600000D03*
X159685787Y-102185787D03*
D12*
X169290000Y-121600000D03*
X176910000Y-121600000D03*
X144600000Y-108100000D03*
X136980000Y-108100000D03*
X176910000Y-117850000D03*
X169290000Y-117850000D03*
D18*
X97100000Y-82100000D03*
D12*
X97100000Y-77100000D03*
X153100000Y-122910000D03*
X153100000Y-115290000D03*
X162100000Y-124600000D03*
X157100000Y-124600000D03*
X157100000Y-129290000D03*
X157100000Y-136910000D03*
X105600000Y-83410000D03*
X105600000Y-75790000D03*
X144600000Y-112600000D03*
X136980000Y-112600000D03*
X133100000Y-83850000D03*
X133100000Y-78850000D03*
X128350000Y-76350000D03*
X128350000Y-83970000D03*
X149600000Y-121600000D03*
X149600000Y-116600000D03*
X110600000Y-83410000D03*
X110600000Y-75790000D03*
D19*
X164400000Y-120400000D03*
D20*
X164400000Y-117860000D03*
X164400000Y-115320000D03*
X164400000Y-112780000D03*
X156780000Y-112780000D03*
X156780000Y-115320000D03*
X156780000Y-117860000D03*
X156780000Y-120400000D03*
D21*
X152700000Y-98600000D03*
X139500000Y-98600000D03*
D22*
X146100000Y-98600000D03*
D19*
X115300000Y-76300000D03*
D20*
X115300000Y-78840000D03*
X115300000Y-81380000D03*
X115300000Y-83920000D03*
X122920000Y-83920000D03*
X122920000Y-81380000D03*
X122920000Y-78840000D03*
X122920000Y-76300000D03*
D10*
X122100000Y-64100000D03*
D11*
X117100000Y-64100000D03*
D23*
X146000000Y-96250000D03*
X148500000Y-96250000D03*
X148500000Y-101250000D03*
X143500000Y-98750000D03*
X146000000Y-98750000D03*
X148500000Y-98750000D03*
X143500000Y-96250000D03*
X143500000Y-101250000D03*
X146000000Y-101250000D03*
D24*
X178820879Y-115318461D02*
X168527767Y-115320000D01*
X168527767Y-115320000D02*
X164400000Y-115320000D01*
X208100000Y-126600000D02*
X203910000Y-126600000D01*
X203910000Y-126600000D02*
X193600000Y-122100000D01*
X193600000Y-122100000D02*
X178820879Y-115318461D01*
X141600000Y-91600000D02*
X151100000Y-91600000D01*
X139500000Y-98600000D02*
X139500000Y-93700000D01*
X159685787Y-102185787D02*
X158521574Y-103350000D01*
X151100000Y-91600000D02*
X152700000Y-93200000D01*
X152700000Y-101950000D02*
X152700000Y-98600000D01*
X158521574Y-103350000D02*
X154100000Y-103350000D01*
X139500000Y-93700000D02*
X141600000Y-91600000D01*
X152700000Y-93200000D02*
X152700000Y-98600000D01*
X154100000Y-103350000D02*
X152700000Y-101950000D01*
X113440000Y-81380000D02*
X115300000Y-81380000D01*
X98910000Y-83410000D02*
X105600000Y-83410000D01*
X110600000Y-83410000D02*
X111410000Y-83410000D01*
X97600000Y-82100000D02*
X98910000Y-83410000D01*
X97100000Y-82100000D02*
X97600000Y-82100000D01*
X105600000Y-83410000D02*
X110600000Y-83410000D01*
X111410000Y-83410000D02*
X113440000Y-81380000D01*
X166400000Y-120400000D02*
X164400000Y-120400000D01*
X167350000Y-121350000D02*
X166400000Y-120400000D01*
X167881142Y-124631142D02*
X167350000Y-124100000D01*
X167350000Y-124100000D02*
X167350000Y-121350000D01*
X180843253Y-124631142D02*
X167881142Y-124631142D01*
X162100000Y-122700000D02*
X164400000Y-120400000D01*
X162100000Y-124600000D02*
X162100000Y-122700000D01*
X157100000Y-124600000D02*
X154790000Y-124600000D01*
X154790000Y-124600000D02*
X153100000Y-122910000D01*
X157100000Y-129290000D02*
X157100000Y-124600000D01*
X149600000Y-116600000D02*
X151790000Y-116600000D01*
X156750000Y-115290000D02*
X156780000Y-115320000D01*
X151790000Y-116600000D02*
X153100000Y-115290000D01*
X153100000Y-115290000D02*
X156750000Y-115290000D01*
X128470000Y-83850000D02*
X128350000Y-83970000D01*
X125760000Y-81380000D02*
X128350000Y-83970000D01*
X125590000Y-78840000D02*
X122920000Y-78840000D01*
X122920000Y-81380000D02*
X125760000Y-81380000D01*
X125760000Y-79010000D02*
X125590000Y-78840000D01*
X133100000Y-83850000D02*
X128470000Y-83850000D01*
X125760000Y-81380000D02*
X125760000Y-79010000D01*
X105600000Y-75790000D02*
X105600000Y-71600000D01*
X105600000Y-71600000D02*
X113100000Y-64100000D01*
X113100000Y-64100000D02*
X117100000Y-64100000D01*
X110600000Y-71100000D02*
X115100000Y-66600000D01*
X115100000Y-66600000D02*
X119600000Y-66600000D01*
X110600000Y-75790000D02*
X110600000Y-71100000D01*
X164410000Y-117850000D02*
X164400000Y-117860000D01*
X169290000Y-121600000D02*
X169290000Y-117850000D01*
X164400000Y-117860000D02*
X169280000Y-117860000D01*
X169280000Y-117860000D02*
X169290000Y-117850000D01*
X187760602Y-121600000D02*
X191144964Y-124984362D01*
X176910000Y-121600000D02*
X187760602Y-121600000D01*
X156780000Y-112780000D02*
X144780000Y-112780000D01*
X144780000Y-112780000D02*
X144600000Y-112600000D01*
X144600000Y-108100000D02*
X144600000Y-112600000D01*
X119100000Y-94720000D02*
X119100000Y-81100000D01*
X119100000Y-81100000D02*
X116840000Y-78840000D01*
X116840000Y-78840000D02*
X115300000Y-78840000D01*
X152500000Y-119000000D02*
X143380000Y-119000000D01*
X136980000Y-112600000D02*
X119100000Y-94720000D01*
X143380000Y-119000000D02*
X136980000Y-112600000D01*
X156780000Y-117860000D02*
X153640000Y-117860000D01*
X153640000Y-117860000D02*
X152500000Y-119000000D01*
X155000000Y-104600000D02*
X138100000Y-104600000D01*
X128100000Y-76350000D02*
X128050000Y-76300000D01*
X159800000Y-119400000D02*
X158800000Y-120400000D01*
X128350000Y-76350000D02*
X128100000Y-76350000D01*
X134600000Y-76350000D02*
X128350000Y-76350000D01*
X157400000Y-104600000D02*
X155000000Y-104600000D01*
X157400000Y-108000000D02*
X159800000Y-110400000D01*
X158800000Y-120400000D02*
X156780000Y-120400000D01*
X160100000Y-104600000D02*
X157400000Y-104600000D01*
X136100000Y-102600000D02*
X136100000Y-77850000D01*
X161100000Y-103600000D02*
X160100000Y-104600000D01*
X159800000Y-110400000D02*
X159800000Y-119400000D01*
X157400000Y-104600000D02*
X157400000Y-108000000D01*
X138100000Y-104600000D02*
X136100000Y-102600000D01*
X136100000Y-77850000D02*
X134600000Y-76350000D01*
X128050000Y-76300000D02*
X122920000Y-76300000D01*
M02*
