G04 #@! TF.GenerationSoftware,KiCad,Pcbnew,9.0.2*
G04 #@! TF.CreationDate,2025-09-12T10:14:45-06:00*
G04 #@! TF.ProjectId,Makerspace_THT_Workshop,4d616b65-7273-4706-9163-655f5448545f,V2.1*
G04 #@! TF.SameCoordinates,Original*
G04 #@! TF.FileFunction,Profile,NP*
%FSLAX46Y46*%
G04 Gerber Fmt 4.6, Leading zero omitted, Abs format (unit mm)*
G04 Created by KiCad (PCBNEW 9.0.2) date 2025-09-12 10:14:45*
%MOMM*%
%LPD*%
G01*
G04 APERTURE LIST*
G04 #@! TA.AperFunction,Profile*
%ADD10C,0.264582*%
G04 #@! TD*
G04 APERTURE END LIST*
D10*
X121400000Y-52200000D02*
X122361490Y-52239394D01*
X123309325Y-52319922D01*
X124227932Y-52447622D01*
X124671410Y-52531048D01*
X125101741Y-52628531D01*
X125516980Y-52740824D01*
X125915180Y-52868684D01*
X126520335Y-53085974D01*
X127065235Y-53294411D01*
X127554801Y-53496303D01*
X127993953Y-53693958D01*
X128387610Y-53889682D01*
X128740691Y-54085783D01*
X129058117Y-54284568D01*
X129344807Y-54488344D01*
X129780036Y-54570842D01*
X130240277Y-54677144D01*
X130506614Y-54747485D01*
X130787785Y-54829640D01*
X131076806Y-54923873D01*
X131366695Y-55030450D01*
X131650468Y-55149635D01*
X131921144Y-55281693D01*
X132049387Y-55352632D01*
X132171738Y-55426889D01*
X132287322Y-55504497D01*
X132395268Y-55585488D01*
X132494702Y-55669897D01*
X132584751Y-55757756D01*
X132664543Y-55849098D01*
X132733204Y-55943956D01*
X132733212Y-55943986D01*
X132790694Y-56042960D01*
X132840619Y-56150479D01*
X132883362Y-56265779D01*
X132919299Y-56388093D01*
X132972258Y-56650694D01*
X133002506Y-56932150D01*
X133013049Y-57226330D01*
X133006896Y-57527102D01*
X132987054Y-57828332D01*
X132956531Y-58123888D01*
X132918334Y-58407640D01*
X132875472Y-58673453D01*
X132787782Y-59126737D01*
X132688755Y-59548234D01*
X132848452Y-59865360D01*
X133006542Y-60188523D01*
X133162641Y-60516685D01*
X133316366Y-60848806D01*
X133467332Y-61183846D01*
X133615156Y-61520767D01*
X133759452Y-61858529D01*
X133899838Y-62196092D01*
X134250800Y-62437488D01*
X134618164Y-62709425D01*
X134829008Y-62874509D01*
X135050035Y-63055691D01*
X135275298Y-63250488D01*
X135498853Y-63456415D01*
X135714756Y-63670989D01*
X135917060Y-63891726D01*
X136011254Y-64003628D01*
X136099820Y-64116140D01*
X136182014Y-64228951D01*
X136257093Y-64341749D01*
X136324313Y-64454226D01*
X136382932Y-64566069D01*
X136432207Y-64676969D01*
X136471394Y-64786615D01*
X136505045Y-64913027D01*
X136530165Y-65047031D01*
X136547241Y-65187864D01*
X136556765Y-65334767D01*
X136555109Y-65643736D01*
X136529115Y-65967850D01*
X136482696Y-66301021D01*
X136419770Y-66637160D01*
X136344252Y-66970180D01*
X136260059Y-67293992D01*
X136081306Y-67889643D01*
X135914841Y-68375408D01*
X135744076Y-68822465D01*
X135844218Y-69426692D01*
X135940764Y-70049622D01*
X135986307Y-70370998D01*
X136029296Y-70700525D01*
X136069176Y-71039365D01*
X136105396Y-71388673D01*
X136335708Y-71820541D01*
X136571249Y-72293492D01*
X136703847Y-72574714D01*
X136840513Y-72878335D01*
X136976886Y-73198782D01*
X137108603Y-73530481D01*
X137231301Y-73867858D01*
X137340618Y-74205340D01*
X137432192Y-74537353D01*
X137501659Y-74858323D01*
X137526740Y-75012926D01*
X137544659Y-75162677D01*
X137554870Y-75306881D01*
X137556828Y-75444841D01*
X137530291Y-75784353D01*
X137465667Y-76149307D01*
X137368448Y-76533171D01*
X137244123Y-76929411D01*
X137098186Y-77331495D01*
X136936128Y-77732889D01*
X136763441Y-78127061D01*
X136585615Y-78507477D01*
X136236518Y-79200912D01*
X135932769Y-79760930D01*
X135637051Y-80271661D01*
X135619983Y-80427343D01*
X135604688Y-80584489D01*
X135591025Y-80747713D01*
X135578854Y-80921625D01*
X135578816Y-80921625D01*
X135569412Y-81110712D01*
X135564334Y-81301479D01*
X135562506Y-81492974D01*
X135562855Y-81684244D01*
X135565782Y-82062293D01*
X135566212Y-82247167D01*
X135564518Y-82428003D01*
X135562331Y-82682668D01*
X135564292Y-82917117D01*
X135569910Y-83138067D01*
X135578693Y-83352235D01*
X135603780Y-83787102D01*
X135635616Y-84275461D01*
X135675827Y-84831640D01*
X135700258Y-85113170D01*
X135727009Y-85382110D01*
X135755658Y-85627297D01*
X135785784Y-85837568D01*
X135816963Y-86001761D01*
X135832816Y-86063090D01*
X135848774Y-86108713D01*
X135861120Y-86147453D01*
X135872774Y-86200799D01*
X135900349Y-86344160D01*
X135919439Y-86430600D01*
X135944177Y-86524499D01*
X135976148Y-86624068D01*
X136016937Y-86727521D01*
X136041134Y-86780146D01*
X136068129Y-86833071D01*
X136098121Y-86886074D01*
X136131308Y-86938931D01*
X136167889Y-86991418D01*
X136208060Y-87043313D01*
X136252021Y-87094392D01*
X136299969Y-87144432D01*
X136352102Y-87193208D01*
X136408620Y-87240499D01*
X136469719Y-87286080D01*
X136535597Y-87329728D01*
X136606454Y-87371219D01*
X136682487Y-87410332D01*
X136763893Y-87446841D01*
X136850872Y-87480524D01*
X137358286Y-87263399D01*
X137911997Y-87045654D01*
X138240359Y-86925136D01*
X138594107Y-86802818D01*
X138966529Y-86683170D01*
X139350912Y-86570664D01*
X139740542Y-86469772D01*
X140128708Y-86384966D01*
X140508695Y-86320716D01*
X140693524Y-86297698D01*
X140873791Y-86281496D01*
X141048658Y-86272670D01*
X141217284Y-86271777D01*
X141378831Y-86279377D01*
X141532459Y-86296029D01*
X141671058Y-86320695D01*
X141814270Y-86355298D01*
X142112170Y-86451505D01*
X142421429Y-86579027D01*
X142737319Y-86732239D01*
X143055112Y-86905516D01*
X143370079Y-87093234D01*
X143677491Y-87289768D01*
X143972619Y-87489494D01*
X144507112Y-87876023D01*
X144935729Y-88207824D01*
X145324017Y-88527261D01*
X146070345Y-88685538D01*
X146922129Y-88879457D01*
X147369637Y-88987474D01*
X147821992Y-89101632D01*
X148272024Y-89221006D01*
X148712559Y-89344675D01*
X149250497Y-89206426D01*
X149831350Y-89079779D01*
X150173039Y-89015539D01*
X150538730Y-88955818D01*
X150920791Y-88904462D01*
X151311591Y-88865318D01*
X151703501Y-88842234D01*
X152088888Y-88839057D01*
X152276752Y-88846135D01*
X152460123Y-88859632D01*
X152638048Y-88880030D01*
X152809574Y-88907808D01*
X152973746Y-88943449D01*
X153129610Y-88987432D01*
X153276213Y-89040239D01*
X153412602Y-89102350D01*
X153542971Y-89176563D01*
X153671783Y-89264519D01*
X153798868Y-89365162D01*
X153924058Y-89477438D01*
X154047182Y-89600289D01*
X154168072Y-89732660D01*
X154402472Y-90021740D01*
X154625902Y-90336231D01*
X154837009Y-90667687D01*
X155034439Y-91007662D01*
X155216836Y-91347709D01*
X155382847Y-91679383D01*
X155531117Y-91994236D01*
X155769018Y-92539699D01*
X155972340Y-93057153D01*
X156216229Y-93229477D01*
X156454020Y-93402682D01*
X156683096Y-93575072D01*
X156900839Y-93744949D01*
X157104631Y-93910616D01*
X157291854Y-94070378D01*
X157459890Y-94222537D01*
X157606121Y-94365396D01*
X158227039Y-94998494D01*
X158793362Y-95571466D01*
X159501786Y-95742861D01*
X160250012Y-95955215D01*
X160682581Y-96092505D01*
X161138865Y-96250327D01*
X161607421Y-96428524D01*
X162076807Y-96626938D01*
X162535582Y-96845412D01*
X162972304Y-97083788D01*
X163178818Y-97210390D01*
X163375529Y-97341908D01*
X163561005Y-97478323D01*
X163733817Y-97619616D01*
X163892533Y-97765766D01*
X164035724Y-97916753D01*
X164161960Y-98072559D01*
X164269810Y-98233163D01*
X164328854Y-98343085D01*
X164379619Y-98462041D01*
X164422523Y-98589212D01*
X164457988Y-98723775D01*
X164508278Y-99011795D01*
X164533849Y-99319529D01*
X164538062Y-99640406D01*
X164524278Y-99967854D01*
X164495857Y-100295304D01*
X164456160Y-100616184D01*
X164356380Y-101211948D01*
X164251822Y-101702579D01*
X164135914Y-102158166D01*
X164814995Y-103294910D01*
X165188954Y-103909539D01*
X165395285Y-104237784D01*
X165618611Y-104583551D01*
X166098735Y-104649112D01*
X166612029Y-104736699D01*
X166911651Y-104795838D01*
X167230271Y-104865835D01*
X167560650Y-104947157D01*
X167895551Y-105040276D01*
X168227735Y-105145660D01*
X168549965Y-105263780D01*
X168855000Y-105395106D01*
X168998809Y-105465867D01*
X169135604Y-105540106D01*
X169264482Y-105617881D01*
X169384538Y-105699251D01*
X169494866Y-105784274D01*
X169594563Y-105873010D01*
X169681738Y-105963846D01*
X169765791Y-106064836D01*
X169924620Y-106293856D01*
X170071238Y-106553230D01*
X170205830Y-106836118D01*
X170328583Y-107135681D01*
X170439683Y-107445079D01*
X170539318Y-107757472D01*
X170627672Y-108066020D01*
X170771289Y-108644225D01*
X170872026Y-109124974D01*
X170950825Y-109575235D01*
X171316701Y-109762299D01*
X171690356Y-109940297D01*
X172067460Y-110108814D01*
X172443681Y-110267435D01*
X173176157Y-110553337D01*
X173853140Y-110794687D01*
X174439987Y-110988172D01*
X174902056Y-111130478D01*
X175313282Y-111248300D01*
X187307530Y-115113748D01*
X192793049Y-116904352D01*
X195675875Y-117740489D01*
X198194557Y-118484510D01*
X200467106Y-119178140D01*
X200778320Y-119268062D01*
X201098280Y-119346675D01*
X201756164Y-119481022D01*
X202424218Y-119603278D01*
X203085901Y-119735536D01*
X203409185Y-119812321D01*
X203724673Y-119899892D01*
X204030298Y-120001012D01*
X204323992Y-120118441D01*
X204603687Y-120254942D01*
X204867317Y-120413278D01*
X204992461Y-120501496D01*
X205112813Y-120596208D01*
X205228115Y-120697760D01*
X205338108Y-120806497D01*
X205371033Y-120842113D01*
X205401860Y-120877678D01*
X205430639Y-120913196D01*
X205457422Y-120948667D01*
X205482258Y-120984094D01*
X205505197Y-121019479D01*
X205526291Y-121054823D01*
X205545589Y-121090129D01*
X205563142Y-121125398D01*
X205579000Y-121160633D01*
X205605833Y-121231005D01*
X205626493Y-121301261D01*
X205641380Y-121371415D01*
X205650900Y-121441484D01*
X205655454Y-121511483D01*
X205655446Y-121581426D01*
X205651279Y-121651328D01*
X205643355Y-121721206D01*
X205632079Y-121791074D01*
X205617852Y-121860947D01*
X205601078Y-121930841D01*
X205583757Y-121988371D01*
X205561265Y-122046808D01*
X205533979Y-122105972D01*
X205502272Y-122165685D01*
X205466521Y-122225766D01*
X205427100Y-122286036D01*
X205338749Y-122406430D01*
X205240221Y-122525432D01*
X205134517Y-122641607D01*
X205024637Y-122753524D01*
X204913582Y-122859746D01*
X204804354Y-122958842D01*
X204699953Y-123049377D01*
X204517637Y-123199028D01*
X204342976Y-123332513D01*
X204166497Y-123501236D01*
X203945758Y-123698359D01*
X203636559Y-123958407D01*
X203238806Y-124272190D01*
X202752405Y-124630524D01*
X202177263Y-125024218D01*
X201513283Y-125444087D01*
X201147950Y-125660966D01*
X200760372Y-125880943D01*
X200350539Y-126102870D01*
X199918437Y-126325599D01*
X199464055Y-126547980D01*
X198987381Y-126768865D01*
X198488404Y-126987107D01*
X197967112Y-127201557D01*
X197423492Y-127411066D01*
X196857534Y-127614485D01*
X196269225Y-127810667D01*
X195658554Y-127998463D01*
X195025508Y-128176724D01*
X194370077Y-128344302D01*
X193692247Y-128500049D01*
X192992008Y-128642816D01*
X188182851Y-129525247D01*
X185001763Y-130053281D01*
X182703099Y-130376581D01*
X181475605Y-130436979D01*
X178489475Y-130540010D01*
X176663336Y-130570872D01*
X174789234Y-130568425D01*
X172997736Y-130518012D01*
X172173765Y-130470238D01*
X171419407Y-130404977D01*
X168080666Y-130019505D01*
X164448815Y-129559421D01*
X160334667Y-129012292D01*
X160334667Y-131854532D01*
X160078869Y-135805246D01*
X160056818Y-136007197D01*
X159997565Y-136496553D01*
X159957222Y-136794398D01*
X159911461Y-137098564D01*
X159861574Y-137387207D01*
X159835489Y-137518881D01*
X159808857Y-137638482D01*
X159770260Y-137782855D01*
X159720389Y-137945895D01*
X159664305Y-138115916D01*
X159607070Y-138281230D01*
X159467831Y-138661691D01*
X159401550Y-138763777D01*
X159216493Y-139029678D01*
X159085887Y-139205142D01*
X158933343Y-139398861D01*
X158761445Y-139603267D01*
X158572780Y-139810794D01*
X158369931Y-140013875D01*
X158155485Y-140204944D01*
X158044721Y-140293609D01*
X157932026Y-140376433D01*
X157817725Y-140452472D01*
X157702140Y-140520777D01*
X157585595Y-140580405D01*
X157468412Y-140630409D01*
X157350914Y-140669843D01*
X157233426Y-140697761D01*
X157116269Y-140713218D01*
X156999768Y-140715268D01*
X156884245Y-140702965D01*
X156770024Y-140675363D01*
X156770024Y-140675439D01*
X156433389Y-141689115D01*
X156057815Y-142723046D01*
X155831403Y-143303778D01*
X155584266Y-143901115D01*
X155320171Y-144495625D01*
X155042887Y-145067879D01*
X154756182Y-145598446D01*
X154463825Y-146067896D01*
X154316704Y-146273630D01*
X154169583Y-146456798D01*
X154022934Y-146614972D01*
X153877226Y-146745723D01*
X153732931Y-146846621D01*
X153590521Y-146915239D01*
X153450465Y-146949147D01*
X153313236Y-146945917D01*
X153176468Y-146913859D01*
X153037756Y-146863741D01*
X152897514Y-146796812D01*
X152756153Y-146714324D01*
X152614085Y-146617528D01*
X152471723Y-146507676D01*
X152329479Y-146386018D01*
X152187765Y-146253805D01*
X151907575Y-145962723D01*
X151634450Y-145644437D01*
X151371689Y-145308959D01*
X151122587Y-144966297D01*
X150890444Y-144626461D01*
X150678555Y-144299461D01*
X150328730Y-143724006D01*
X150017216Y-143167550D01*
X149374088Y-141640130D01*
X147364315Y-142363641D01*
X146891427Y-142584206D01*
X146375906Y-142803578D01*
X146070422Y-142924106D01*
X145741523Y-143045602D01*
X145395506Y-143163373D01*
X145038671Y-143272724D01*
X144677317Y-143368960D01*
X144317743Y-143447387D01*
X143966248Y-143503310D01*
X143795499Y-143521366D01*
X143629131Y-143532035D01*
X143467933Y-143534732D01*
X143312691Y-143528868D01*
X143164194Y-143513858D01*
X143023228Y-143489114D01*
X142701700Y-143428392D01*
X142620090Y-143409960D01*
X142540083Y-143387864D01*
X142462725Y-143360921D01*
X142425368Y-143345262D01*
X142389065Y-143327949D01*
X142353948Y-143308833D01*
X142320149Y-143287767D01*
X142287797Y-143264602D01*
X142257024Y-143239191D01*
X142227961Y-143211387D01*
X142200738Y-143181042D01*
X142175487Y-143148007D01*
X142152338Y-143112135D01*
X142131422Y-143073279D01*
X142112871Y-143031290D01*
X142096814Y-142986021D01*
X142083383Y-142937324D01*
X142072709Y-142885051D01*
X142064923Y-142829055D01*
X142060155Y-142769187D01*
X142058537Y-142705301D01*
X142055946Y-142436849D01*
X142049114Y-142166748D01*
X142028385Y-141667762D01*
X141998234Y-141157785D01*
X141998234Y-140052408D01*
X141997935Y-140019718D01*
X141995231Y-139982246D01*
X141988753Y-139933706D01*
X141976947Y-139876357D01*
X141958261Y-139812460D01*
X141945852Y-139778764D01*
X141931140Y-139744278D01*
X141913931Y-139709286D01*
X141894032Y-139674070D01*
X141871247Y-139638913D01*
X141845382Y-139604097D01*
X141816244Y-139569906D01*
X141783639Y-139536622D01*
X141747371Y-139504527D01*
X141707247Y-139473904D01*
X141663073Y-139445036D01*
X141614654Y-139418205D01*
X141561797Y-139393694D01*
X141504307Y-139371785D01*
X141441990Y-139352762D01*
X141374652Y-139336906D01*
X141302099Y-139324501D01*
X141224136Y-139315829D01*
X141140569Y-139311173D01*
X141051205Y-139310815D01*
X140851366Y-139308494D01*
X140624791Y-139295034D01*
X140113304Y-139240927D01*
X139560487Y-139160956D01*
X139010088Y-139067581D01*
X138091520Y-138890466D01*
X137707562Y-138809274D01*
X137666160Y-138787217D01*
X137603952Y-138763718D01*
X137438317Y-138705361D01*
X137345490Y-138666988D01*
X137253057Y-138620142D01*
X137208644Y-138592993D01*
X137166318Y-138563066D01*
X137126740Y-138530143D01*
X137090573Y-138494003D01*
X137058481Y-138454426D01*
X137031124Y-138411194D01*
X137009166Y-138364086D01*
X136993269Y-138312882D01*
X136984096Y-138257364D01*
X136982309Y-138197310D01*
X136988572Y-138132503D01*
X137003545Y-138062721D01*
X137027893Y-137987745D01*
X137062276Y-137907356D01*
X137107359Y-137821334D01*
X137163803Y-137729459D01*
X137232272Y-137631511D01*
X137313426Y-137527271D01*
X137407930Y-137416519D01*
X137516445Y-137299035D01*
X137728852Y-137068304D01*
X137906729Y-136857541D01*
X138052952Y-136666045D01*
X138170393Y-136493115D01*
X138261925Y-136338049D01*
X138330423Y-136200147D01*
X138378759Y-136078707D01*
X138409808Y-135973028D01*
X138426443Y-135882407D01*
X138431537Y-135806145D01*
X138427963Y-135743540D01*
X138418596Y-135693890D01*
X138406308Y-135656494D01*
X138393973Y-135630651D01*
X138380657Y-135610818D01*
X132431736Y-137640695D01*
X132390049Y-137649174D01*
X132341915Y-137655533D01*
X132279120Y-137659537D01*
X132204314Y-137658360D01*
X132163234Y-137654945D01*
X132120145Y-137649175D01*
X132075378Y-137640697D01*
X132029264Y-137629156D01*
X131982135Y-137614201D01*
X131934321Y-137595477D01*
X131886153Y-137572632D01*
X131837964Y-137545312D01*
X131790084Y-137513164D01*
X131742844Y-137475834D01*
X131696575Y-137432969D01*
X131651609Y-137384217D01*
X131608277Y-137329223D01*
X131566910Y-137267634D01*
X131527840Y-137199098D01*
X131491397Y-137123260D01*
X131457912Y-137039768D01*
X131427718Y-136948268D01*
X131401144Y-136848407D01*
X131378523Y-136739832D01*
X131360185Y-136622190D01*
X131346462Y-136495126D01*
X131302343Y-136018672D01*
X131261048Y-135637838D01*
X131223522Y-135342733D01*
X131190705Y-135123464D01*
X131163541Y-134970140D01*
X131142972Y-134872870D01*
X131125385Y-134806924D01*
X127186245Y-134324579D01*
X127118612Y-134317395D01*
X127043829Y-134304574D01*
X126950411Y-134282184D01*
X126844864Y-134247665D01*
X126789575Y-134225057D01*
X126733694Y-134198456D01*
X126678033Y-134167542D01*
X126623407Y-134131995D01*
X126570627Y-134091494D01*
X126520509Y-134045720D01*
X126473864Y-133994353D01*
X126431507Y-133937072D01*
X126394250Y-133873557D01*
X126362907Y-133803488D01*
X126338291Y-133726545D01*
X126321216Y-133642407D01*
X126312493Y-133550755D01*
X126312938Y-133451269D01*
X126323363Y-133343627D01*
X126344582Y-133227511D01*
X126377407Y-133102599D01*
X126422652Y-132968572D01*
X126481131Y-132825110D01*
X126553656Y-132671892D01*
X126641041Y-132508598D01*
X126744099Y-132334909D01*
X127533245Y-131083518D01*
X128113251Y-130191999D01*
X128593083Y-129481042D01*
X128762970Y-129287917D01*
X128946008Y-129087844D01*
X129168377Y-128855504D01*
X129288203Y-128735846D01*
X129410531Y-128618454D01*
X129532917Y-128506774D01*
X129652920Y-128404249D01*
X129768094Y-128314324D01*
X129823108Y-128275164D01*
X129875998Y-128240444D01*
X129926459Y-128210597D01*
X129974186Y-128186053D01*
X130018873Y-128167243D01*
X130060215Y-128154596D01*
X130100634Y-128146273D01*
X130142632Y-128140066D01*
X130230613Y-128133515D01*
X130322658Y-128133971D01*
X130417263Y-128140462D01*
X130512928Y-128152017D01*
X130608152Y-128167664D01*
X130701432Y-128186432D01*
X130791268Y-128207349D01*
X130954602Y-128251745D01*
X131086140Y-128293079D01*
X131205784Y-128335473D01*
X131358540Y-128479290D01*
X131519050Y-128624914D01*
X131708596Y-128789327D01*
X131807918Y-128871466D01*
X131906889Y-128949765D01*
X132002975Y-129021379D01*
X132093639Y-129083462D01*
X132176345Y-129133169D01*
X132213921Y-129152492D01*
X132248557Y-129167654D01*
X132279935Y-129178299D01*
X132307738Y-129184071D01*
X132331650Y-129184615D01*
X132351353Y-129179574D01*
X132393654Y-129158951D01*
X132437279Y-129135177D01*
X132481670Y-129108872D01*
X132526266Y-129080654D01*
X132570509Y-129051141D01*
X132613840Y-129020950D01*
X132695525Y-128961011D01*
X132766848Y-128905783D01*
X132823333Y-128860211D01*
X132873890Y-128817819D01*
X132893752Y-128803884D01*
X132918668Y-128788806D01*
X132953653Y-128770401D01*
X132998765Y-128750230D01*
X133025136Y-128739970D01*
X133054063Y-128729853D01*
X133085550Y-128720075D01*
X133119606Y-128710831D01*
X133156238Y-128702315D01*
X133195453Y-128694723D01*
X133237259Y-128688249D01*
X133281663Y-128683090D01*
X133328672Y-128679439D01*
X133378295Y-128677492D01*
X133430537Y-128677444D01*
X133485407Y-128679490D01*
X133542912Y-128683825D01*
X133603059Y-128690644D01*
X133665856Y-128700142D01*
X133731310Y-128712514D01*
X133799428Y-128727955D01*
X133870218Y-128746661D01*
X133943686Y-128768826D01*
X134019842Y-128794645D01*
X134098691Y-128824313D01*
X134180241Y-128858026D01*
X134254008Y-128885741D01*
X134310170Y-128897931D01*
X134349727Y-128895555D01*
X134373682Y-128879574D01*
X134383034Y-128850949D01*
X134378785Y-128810640D01*
X134361935Y-128759607D01*
X134333487Y-128698811D01*
X134245795Y-128551773D01*
X134123717Y-128377207D01*
X133975261Y-128182800D01*
X133808435Y-127976234D01*
X133451701Y-127557361D01*
X133117576Y-127182059D01*
X132773403Y-126808053D01*
X129553250Y-122375741D01*
X128780960Y-121844154D01*
X127953990Y-121244121D01*
X127470664Y-120879342D01*
X126956153Y-120478549D01*
X126421991Y-120047114D01*
X125879711Y-119590407D01*
X125340844Y-119113798D01*
X124816924Y-118622659D01*
X124319484Y-118122361D01*
X123860056Y-117618274D01*
X123648201Y-117366488D01*
X123450173Y-117115769D01*
X123267415Y-116866789D01*
X123101368Y-116620218D01*
X121923173Y-114810957D01*
X120966138Y-113380065D01*
X120088597Y-112101053D01*
X119385142Y-112051757D01*
X117743747Y-111919860D01*
X116791152Y-111830430D01*
X115867867Y-111729343D01*
X115061825Y-111619597D01*
X114730248Y-111562414D01*
X114460957Y-111504190D01*
X113387122Y-111225736D01*
X112244008Y-110917974D01*
X110965000Y-110566247D01*
X105330647Y-112728418D01*
X105167809Y-112748480D01*
X104988453Y-112765020D01*
X104881347Y-112772426D01*
X104765309Y-112778308D01*
X104642355Y-112781955D01*
X104514502Y-112782654D01*
X104383765Y-112779695D01*
X104252161Y-112772365D01*
X104121704Y-112759954D01*
X103994411Y-112741749D01*
X103932582Y-112730252D01*
X103872299Y-112717039D01*
X103813815Y-112702023D01*
X103757382Y-112685113D01*
X103719551Y-112670580D01*
X103683572Y-112652138D01*
X103649489Y-112629950D01*
X103617346Y-112604179D01*
X103587187Y-112574989D01*
X103559056Y-112542542D01*
X103532998Y-112507002D01*
X103509057Y-112468533D01*
X103487276Y-112427297D01*
X103467700Y-112383458D01*
X103450373Y-112337179D01*
X103435339Y-112288624D01*
X103422643Y-112237954D01*
X103412328Y-112185334D01*
X103404438Y-112130928D01*
X103399018Y-112074897D01*
X103396113Y-112017406D01*
X103395765Y-111958618D01*
X103398019Y-111898695D01*
X103402920Y-111837801D01*
X103410511Y-111776100D01*
X103420837Y-111713755D01*
X103433941Y-111650928D01*
X103449868Y-111587783D01*
X103468663Y-111524484D01*
X103490368Y-111461193D01*
X103515029Y-111398074D01*
X103542689Y-111335290D01*
X103573393Y-111273004D01*
X103607185Y-111211379D01*
X103644109Y-111150580D01*
X103684208Y-111090768D01*
X103883315Y-110814713D01*
X104075106Y-110561624D01*
X104258819Y-110330790D01*
X104433689Y-110121500D01*
X104598955Y-109933042D01*
X104753854Y-109764705D01*
X104897621Y-109615776D01*
X105029494Y-109485546D01*
X105254508Y-109278330D01*
X105422789Y-109137367D01*
X105564739Y-109031427D01*
X105486477Y-108578286D01*
X103139805Y-108100274D01*
X103106042Y-108085558D01*
X103016149Y-108042415D01*
X102955495Y-108010654D01*
X102887219Y-107972352D01*
X102813457Y-107927696D01*
X102736345Y-107876876D01*
X102658022Y-107820080D01*
X102580622Y-107757496D01*
X102542936Y-107724093D01*
X102506283Y-107689313D01*
X102470929Y-107653181D01*
X102437141Y-107615719D01*
X102405187Y-107576952D01*
X102375334Y-107536903D01*
X102347848Y-107495596D01*
X102322998Y-107453053D01*
X102301048Y-107409299D01*
X102282268Y-107364358D01*
X102266924Y-107318252D01*
X102255283Y-107271005D01*
X102236654Y-107186588D01*
X102227155Y-107143215D01*
X102218560Y-107098968D01*
X102211641Y-107053775D01*
X102207169Y-107007564D01*
X102205915Y-106960260D01*
X102206736Y-106936176D01*
X102208651Y-106911792D01*
X102211756Y-106887099D01*
X102216147Y-106862087D01*
X102221921Y-106836748D01*
X102229175Y-106811072D01*
X102238004Y-106785050D01*
X102248506Y-106758674D01*
X102260776Y-106731934D01*
X102274911Y-106704821D01*
X102291007Y-106677326D01*
X102309161Y-106649439D01*
X102329469Y-106621153D01*
X102352027Y-106592457D01*
X102376933Y-106563342D01*
X102404281Y-106533800D01*
X102434170Y-106503822D01*
X102466694Y-106473398D01*
X102970636Y-106027744D01*
X103556515Y-105524801D01*
X104790224Y-104490934D01*
X106218449Y-103318506D01*
X103319363Y-102153192D01*
X103291511Y-102136390D01*
X103259823Y-102115808D01*
X103219075Y-102087480D01*
X103171350Y-102051684D01*
X103118735Y-102008703D01*
X103063313Y-101958815D01*
X103007170Y-101902301D01*
X102979480Y-101871647D01*
X102952391Y-101839442D01*
X102926164Y-101805720D01*
X102901060Y-101770517D01*
X102877340Y-101733868D01*
X102855264Y-101695808D01*
X102835092Y-101656371D01*
X102817086Y-101615594D01*
X102801506Y-101573510D01*
X102788612Y-101530155D01*
X102778665Y-101485564D01*
X102771926Y-101439772D01*
X102768656Y-101392814D01*
X102769114Y-101344725D01*
X102773563Y-101295540D01*
X102782261Y-101245294D01*
X102802635Y-101150930D01*
X102814816Y-101100590D01*
X102829336Y-101048598D01*
X102846951Y-100995294D01*
X102868418Y-100941017D01*
X102894494Y-100886106D01*
X102909498Y-100858519D01*
X102925937Y-100830902D01*
X102943907Y-100803295D01*
X102963502Y-100775742D01*
X102984817Y-100748286D01*
X103007947Y-100720968D01*
X103032986Y-100693832D01*
X103060029Y-100666919D01*
X103089170Y-100640272D01*
X103120504Y-100613934D01*
X103154125Y-100587947D01*
X103190129Y-100562353D01*
X103228610Y-100537195D01*
X103269662Y-100512515D01*
X103313379Y-100488356D01*
X103359858Y-100464760D01*
X103409192Y-100441770D01*
X103461476Y-100419427D01*
X103815326Y-100281459D01*
X104171258Y-100155023D01*
X104526024Y-100039662D01*
X104876376Y-99934916D01*
X105550852Y-99755442D01*
X106168705Y-99612939D01*
X107554302Y-99339380D01*
X107592756Y-99327771D01*
X107663222Y-99314707D01*
X107886633Y-99286986D01*
X108197409Y-99261773D01*
X108568423Y-99244624D01*
X108768041Y-99240810D01*
X108972547Y-99241095D01*
X109178550Y-99246173D01*
X109382657Y-99256740D01*
X109581479Y-99273489D01*
X109771625Y-99297115D01*
X109949703Y-99328313D01*
X110112324Y-99367776D01*
X110149961Y-99379266D01*
X110187012Y-99392058D01*
X110259491Y-99421260D01*
X110330030Y-99454799D01*
X110398896Y-99492096D01*
X110466357Y-99532571D01*
X110532682Y-99575642D01*
X110598138Y-99620731D01*
X110662994Y-99667255D01*
X110791975Y-99762290D01*
X110921768Y-99856104D01*
X110987640Y-99901101D01*
X111054520Y-99944053D01*
X111122674Y-99984377D01*
X111192372Y-100021493D01*
X111772911Y-100294281D01*
X112445027Y-100583759D01*
X113156636Y-100873573D01*
X113855655Y-101147367D01*
X115484158Y-101755258D01*
X112585072Y-92120065D01*
X112560813Y-91987390D01*
X112527179Y-91835661D01*
X112476267Y-91639549D01*
X112405870Y-91408465D01*
X112313782Y-91151817D01*
X112197796Y-90879015D01*
X112055704Y-90599468D01*
X111974180Y-90460105D01*
X111885302Y-90322585D01*
X111788794Y-90188084D01*
X111684381Y-90057776D01*
X111571787Y-89932840D01*
X111450735Y-89814451D01*
X111320951Y-89703785D01*
X111182158Y-89602018D01*
X111034081Y-89510327D01*
X110876444Y-89429887D01*
X110708970Y-89361875D01*
X110531384Y-89307467D01*
X110343411Y-89267839D01*
X110144774Y-89244168D01*
X109935197Y-89237629D01*
X109714405Y-89249399D01*
X107327366Y-89425267D01*
X104431391Y-89590475D01*
X100960308Y-89761011D01*
X95474785Y-89817804D01*
X94955632Y-89775615D01*
X94382132Y-89705392D01*
X94038905Y-89652899D01*
X93666410Y-89586873D01*
X93270932Y-89505860D01*
X92858758Y-89408400D01*
X92436177Y-89293038D01*
X92009473Y-89158315D01*
X91584934Y-89002775D01*
X91375442Y-88916743D01*
X91168848Y-88824960D01*
X90965938Y-88727244D01*
X90767499Y-88623413D01*
X90574317Y-88513284D01*
X90387177Y-88396676D01*
X89652358Y-87905613D01*
X89286094Y-87646135D01*
X88921204Y-87372584D01*
X88558145Y-87081379D01*
X88197376Y-86768942D01*
X87839355Y-86431690D01*
X87484540Y-86066043D01*
X87133389Y-85668421D01*
X86786359Y-85235244D01*
X86443910Y-84762929D01*
X86106498Y-84247898D01*
X85774582Y-83686569D01*
X85448619Y-83075361D01*
X85129068Y-82410695D01*
X84816387Y-81688989D01*
X84241556Y-80224791D01*
X83750992Y-78837865D01*
X83341032Y-77528214D01*
X83008013Y-76295836D01*
X82748269Y-75140732D01*
X82558138Y-74062901D01*
X82433956Y-73062345D01*
X82372059Y-72139062D01*
X82348227Y-71258541D01*
X82348718Y-70389246D01*
X82361851Y-69960200D01*
X82385585Y-69535632D01*
X82421425Y-69116098D01*
X82470879Y-68702156D01*
X82535453Y-68294362D01*
X82616654Y-67893273D01*
X82715987Y-67499448D01*
X82834961Y-67113442D01*
X82975080Y-66735812D01*
X83137852Y-66367116D01*
X83324783Y-66007911D01*
X83537380Y-65658754D01*
X83704234Y-65416229D01*
X83880203Y-65182167D01*
X84064889Y-64956233D01*
X84257889Y-64738090D01*
X84458803Y-64527402D01*
X84667231Y-64323833D01*
X85105023Y-63936708D01*
X85568057Y-63574027D01*
X86053128Y-63233102D01*
X86557029Y-62911245D01*
X87076553Y-62605768D01*
X87608493Y-62313982D01*
X88149643Y-62033199D01*
X89246748Y-61493890D01*
X90342213Y-60966337D01*
X91410385Y-60429033D01*
X93005982Y-59624006D01*
X94626095Y-58868011D01*
X96267545Y-58156623D01*
X97927155Y-57485423D01*
X99601747Y-56849986D01*
X101288145Y-56245893D01*
X102983169Y-55668720D01*
X104683643Y-55114045D01*
X106009286Y-54721625D01*
X107533974Y-54317770D01*
X109141879Y-53922132D01*
X110717174Y-53554362D01*
X114375683Y-52754983D01*
X115595182Y-52568908D01*
X116932700Y-52408756D01*
X117728902Y-52333032D01*
X118589304Y-52268257D01*
X119498335Y-52220468D01*
X120440424Y-52195704D01*
X121400000Y-52200000D01*
M02*
