G04 #@! TF.GenerationSoftware,KiCad,Pcbnew,9.0.2*
G04 #@! TF.CreationDate,2025-09-12T10:14:44-06:00*
G04 #@! TF.ProjectId,Makerspace_THT_Workshop,4d616b65-7273-4706-9163-655f5448545f,V2.1*
G04 #@! TF.SameCoordinates,Original*
G04 #@! TF.FileFunction,Copper,L1,Top*
G04 #@! TF.FilePolarity,Positive*
%FSLAX46Y46*%
G04 Gerber Fmt 4.6, Leading zero omitted, Abs format (unit mm)*
G04 Created by KiCad (PCBNEW 9.0.2) date 2025-09-12 10:14:44*
%MOMM*%
%LPD*%
G01*
G04 APERTURE LIST*
G04 Aperture macros list*
%AMHorizOval*
0 Thick line with rounded ends*
0 $1 width*
0 $2 $3 position (X,Y) of the first rounded end (center of the circle)*
0 $4 $5 position (X,Y) of the second rounded end (center of the circle)*
0 Add line between two ends*
20,1,$1,$2,$3,$4,$5,0*
0 Add two circle primitives to create the rounded ends*
1,1,$1,$2,$3*
1,1,$1,$4,$5*%
%AMRotRect*
0 Rectangle, with rotation*
0 The origin of the aperture is its center*
0 $1 length*
0 $2 width*
0 $3 Rotation angle, in degrees counterclockwise*
0 Add horizontal line*
21,1,$1,$2,0,0,$3*%
G04 Aperture macros list end*
G04 #@! TA.AperFunction,ComponentPad*
%ADD10C,2.800000*%
G04 #@! TD*
G04 #@! TA.AperFunction,ComponentPad*
%ADD11C,2.990600*%
G04 #@! TD*
G04 #@! TA.AperFunction,SMDPad,CuDef*
%ADD12C,4.000000*%
G04 #@! TD*
G04 #@! TA.AperFunction,ComponentPad*
%ADD13R,2.200000X2.200000*%
G04 #@! TD*
G04 #@! TA.AperFunction,ComponentPad*
%ADD14C,2.200000*%
G04 #@! TD*
G04 #@! TA.AperFunction,ComponentPad*
%ADD15R,3.000000X3.000000*%
G04 #@! TD*
G04 #@! TA.AperFunction,ComponentPad*
%ADD16C,3.000000*%
G04 #@! TD*
G04 #@! TA.AperFunction,ComponentPad*
%ADD17RotRect,2.400000X1.600000X225.000000*%
G04 #@! TD*
G04 #@! TA.AperFunction,ComponentPad*
%ADD18HorizOval,1.600000X-0.282843X-0.282843X0.282843X0.282843X0*%
G04 #@! TD*
G04 #@! TA.AperFunction,ComponentPad*
%ADD19RotRect,2.400000X1.600000X45.000000*%
G04 #@! TD*
G04 #@! TA.AperFunction,ComponentPad*
%ADD20HorizOval,1.600000X0.282843X0.282843X-0.282843X-0.282843X0*%
G04 #@! TD*
G04 #@! TA.AperFunction,ComponentPad*
%ADD21HorizOval,2.000000X0.704769X0.256515X-0.704769X-0.256515X0*%
G04 #@! TD*
G04 #@! TA.AperFunction,ComponentPad*
%ADD22RotRect,1.500000X2.500000X110.000000*%
G04 #@! TD*
G04 #@! TA.AperFunction,ComponentPad*
%ADD23HorizOval,1.500000X0.469846X0.171010X-0.469846X-0.171010X0*%
G04 #@! TD*
G04 #@! TA.AperFunction,ComponentPad*
%ADD24C,3.532000*%
G04 #@! TD*
G04 #@! TA.AperFunction,Conductor*
%ADD25C,0.500000*%
G04 #@! TD*
G04 APERTURE END LIST*
D10*
X167906245Y-118806245D03*
X160722040Y-111622040D03*
D11*
X172232233Y-121296699D03*
X174000000Y-126600000D03*
X168696706Y-124832226D03*
D12*
X197100000Y-122700000D03*
D10*
X157593755Y-114993755D03*
X164777960Y-122177960D03*
D13*
X116900000Y-62900000D03*
D14*
X116900000Y-67900000D03*
D10*
X137015795Y-94415795D03*
X144200000Y-101600000D03*
X154500000Y-118000000D03*
X161684205Y-125184205D03*
D15*
X94000000Y-82770785D03*
D16*
X94000000Y-77770785D03*
D10*
X154406245Y-111806245D03*
X147222040Y-104622040D03*
X154100000Y-104532233D03*
X157635534Y-108067767D03*
X151356245Y-114856245D03*
X144172040Y-107672040D03*
X123893755Y-87393755D03*
X131077960Y-94577960D03*
X133893755Y-97393755D03*
X141077960Y-104577960D03*
X140214466Y-91464466D03*
X143750000Y-95000000D03*
X127015795Y-84415795D03*
X134200000Y-91600000D03*
X147196878Y-98267589D03*
X150732412Y-101803123D03*
D17*
X156574012Y-128200000D03*
D18*
X154777961Y-126403948D03*
X152981909Y-124607898D03*
X151185858Y-122811846D03*
X145797705Y-128200000D03*
X147593757Y-129996052D03*
X149389808Y-131792102D03*
X151185858Y-133588154D03*
D19*
X114425988Y-80400000D03*
D20*
X116222039Y-82196051D03*
X118018090Y-83992102D03*
X119814142Y-85788154D03*
X125202295Y-80400000D03*
X123406244Y-78603949D03*
X121610193Y-76807898D03*
X119814142Y-75011846D03*
D21*
X118602284Y-98052739D03*
X115797719Y-90347261D03*
D22*
X117884042Y-96079385D03*
D23*
X117200000Y-94200000D03*
X116515960Y-92320615D03*
D24*
X139736753Y-120636753D03*
X124463247Y-105363247D03*
D25*
X152981909Y-121528177D02*
X152981909Y-124607898D01*
X197100000Y-122700000D02*
X197000000Y-122600000D01*
X182336901Y-118006245D02*
X164006245Y-118006245D01*
X187428427Y-121428427D02*
X185171573Y-119171573D01*
X164006245Y-118006245D02*
X158500000Y-112500000D01*
X151800000Y-120346268D02*
X152981909Y-121528177D01*
X182343146Y-118000000D02*
X182336901Y-118006245D01*
X197000000Y-122600000D02*
X190256854Y-122600000D01*
X158500000Y-112500000D02*
X156900000Y-112500000D01*
X156900000Y-112500000D02*
X151800000Y-117600000D01*
X151800000Y-117600000D02*
X151800000Y-120346268D01*
X185171573Y-119171573D02*
G75*
G03*
X182343146Y-117999968I-2828473J-2828427D01*
G01*
X190256854Y-122600000D02*
G75*
G02*
X187428450Y-121428404I46J4000000D01*
G01*
X115200000Y-96443146D02*
X115200000Y-95293429D01*
X139073506Y-119573506D02*
X124563247Y-105063247D01*
X124563247Y-105063247D02*
X122163247Y-105063247D01*
X122163247Y-105063247D02*
X116371573Y-99271573D01*
X116371573Y-92465002D02*
X116515960Y-92320615D01*
X139073506Y-119873506D02*
X139073506Y-119573506D01*
X115200000Y-96443146D02*
G75*
G03*
X116371596Y-99271550I4000000J46D01*
G01*
X115200000Y-95293429D02*
G75*
G02*
X116371558Y-92464987I4000000J29D01*
G01*
X118018090Y-83992102D02*
X117925988Y-83900000D01*
X95129215Y-83900000D02*
X94000000Y-82770785D01*
X119193755Y-88593755D02*
X118018090Y-87418090D01*
X123215795Y-88593755D02*
X119193755Y-88593755D01*
X118018090Y-87418090D02*
X118018090Y-83992102D01*
X117925988Y-83900000D02*
X95129215Y-83900000D01*
X156574012Y-128200000D02*
X152200000Y-128200000D01*
X154796699Y-103632233D02*
X154832233Y-103632233D01*
X160058415Y-128227884D02*
X160030531Y-128200000D01*
X148800000Y-109628932D02*
X154796699Y-103632233D01*
X172372116Y-128227884D02*
X160058415Y-128227884D01*
X160030531Y-128200000D02*
X156574012Y-128200000D01*
X152200000Y-128200000D02*
X148800000Y-124800000D01*
X148800000Y-124800000D02*
X148800000Y-109628932D01*
X172372116Y-128227884D02*
X174000000Y-126600000D01*
X154406245Y-111806245D02*
X158000000Y-108212490D01*
X150806245Y-115806245D02*
X154406245Y-112206245D01*
X158000000Y-108212490D02*
X158000000Y-107500000D01*
X158000000Y-107500000D02*
X158332233Y-107167767D01*
X158332233Y-107167767D02*
X158367767Y-107167767D01*
X154406245Y-112206245D02*
X154406245Y-111806245D01*
X147222040Y-104622040D02*
X148477960Y-104622040D01*
X148477960Y-104622040D02*
X151332412Y-101767588D01*
X151332412Y-101767588D02*
X151332412Y-101003123D01*
X134200000Y-91600000D02*
X136600000Y-89200000D01*
X123406244Y-78603949D02*
X126403949Y-78603949D01*
X137582412Y-89200000D02*
X137000000Y-89200000D01*
X139946878Y-91564466D02*
X137582412Y-89200000D01*
X136600000Y-89200000D02*
X137000000Y-89200000D01*
X126403949Y-78603949D02*
X137000000Y-89200000D01*
X123406244Y-78603949D02*
X121610193Y-76807898D01*
X157593755Y-122393755D02*
X157593755Y-114993755D01*
X154777961Y-125209549D02*
X157593755Y-122393755D01*
X161600000Y-126400000D02*
X157593755Y-122393755D01*
X154777961Y-126403948D02*
X154777961Y-125209549D01*
X164777960Y-122177960D02*
X171350972Y-122177960D01*
X171811418Y-120600000D02*
X171908117Y-120696699D01*
X171350972Y-122177960D02*
X172232233Y-121296699D01*
X133415795Y-105184495D02*
X145000000Y-116768700D01*
X145000000Y-116768700D02*
X145000000Y-127402295D01*
X137015795Y-94415795D02*
X136784205Y-94415795D01*
X136784205Y-94415795D02*
X133415795Y-97784205D01*
X133415795Y-97784205D02*
X133415795Y-105184495D01*
X145000000Y-127402295D02*
X145797705Y-128200000D01*
X136443755Y-95743755D02*
X136643755Y-95743755D01*
X149389808Y-131792102D02*
X149389808Y-128389808D01*
X146800000Y-125800000D02*
X146800000Y-114600000D01*
X149389808Y-128389808D02*
X146800000Y-125800000D01*
X146800000Y-114600000D02*
X140600000Y-108400000D01*
X140600000Y-108400000D02*
X140600000Y-105777960D01*
X119800000Y-95200000D02*
X118800000Y-94200000D01*
X119800000Y-95200000D02*
X127015795Y-87984205D01*
X125215795Y-84415795D02*
X119814142Y-79014142D01*
X127015795Y-87984205D02*
X127015795Y-84415795D01*
X151185858Y-133588154D02*
X149974012Y-134800000D01*
X119814142Y-75011846D02*
X119814142Y-79014142D01*
X149974012Y-134800000D02*
X147600000Y-134800000D01*
X143000000Y-130200000D02*
X143000000Y-118400000D01*
X143000000Y-118400000D02*
X119800000Y-95200000D01*
X118800000Y-94200000D02*
X117200000Y-94200000D01*
X127015795Y-84415795D02*
X125215795Y-84415795D01*
X147600000Y-134800000D02*
X143000000Y-130200000D01*
G04 #@! TA.AperFunction,Conductor*
G36*
X120469845Y-77616198D02*
G01*
X120491744Y-77641021D01*
X120550207Y-77728517D01*
X120550213Y-77728525D01*
X120689565Y-77867877D01*
X120689569Y-77867880D01*
X120853429Y-77977368D01*
X120853433Y-77977370D01*
X120853436Y-77977372D01*
X121035514Y-78052792D01*
X121228805Y-78091240D01*
X121228808Y-78091241D01*
X121228810Y-78091241D01*
X121425891Y-78091241D01*
X121455040Y-78085442D01*
X121505469Y-78075411D01*
X121559720Y-78076726D01*
X121949722Y-78174176D01*
X122009990Y-78209524D01*
X122039963Y-78264418D01*
X122137412Y-78654422D01*
X122138729Y-78708670D01*
X122122901Y-78788251D01*
X122122901Y-78985336D01*
X122161348Y-79178620D01*
X122161350Y-79178628D01*
X122236768Y-79360702D01*
X122236773Y-79360712D01*
X122346261Y-79524572D01*
X122346264Y-79524576D01*
X122485616Y-79663928D01*
X122485620Y-79663931D01*
X122649480Y-79773419D01*
X122649484Y-79773421D01*
X122649487Y-79773423D01*
X122831565Y-79848843D01*
X123024856Y-79887291D01*
X123024859Y-79887292D01*
X123024861Y-79887292D01*
X123221943Y-79887292D01*
X123221944Y-79887291D01*
X123415237Y-79848843D01*
X123597315Y-79773423D01*
X123761182Y-79663931D01*
X123820765Y-79604346D01*
X123865337Y-79575764D01*
X124519325Y-79333316D01*
X124589025Y-79328471D01*
X124650281Y-79362078D01*
X124683644Y-79423467D01*
X124678522Y-79493149D01*
X124650107Y-79537266D01*
X124142315Y-80045058D01*
X124142312Y-80045062D01*
X124032824Y-80208922D01*
X124032819Y-80208932D01*
X123957401Y-80391006D01*
X123957399Y-80391014D01*
X123918952Y-80584298D01*
X123918952Y-80781387D01*
X123957399Y-80974671D01*
X123957401Y-80974679D01*
X124032819Y-81156753D01*
X124032824Y-81156763D01*
X124142312Y-81320623D01*
X124142315Y-81320627D01*
X124281667Y-81459979D01*
X124281671Y-81459982D01*
X124445531Y-81569470D01*
X124445535Y-81569472D01*
X124445538Y-81569474D01*
X124627616Y-81644894D01*
X124789652Y-81677125D01*
X124820907Y-81683342D01*
X124820910Y-81683343D01*
X124820912Y-81683343D01*
X125017994Y-81683343D01*
X125017995Y-81683342D01*
X125211288Y-81644894D01*
X125393366Y-81569474D01*
X125557233Y-81459982D01*
X126262277Y-80754938D01*
X126371769Y-80591071D01*
X126447189Y-80408993D01*
X126485638Y-80215697D01*
X126485638Y-80018617D01*
X126485638Y-80018614D01*
X126485637Y-80018612D01*
X126459516Y-79887292D01*
X126447189Y-79825321D01*
X126371769Y-79643243D01*
X126371767Y-79643240D01*
X126371765Y-79643236D01*
X126262277Y-79479376D01*
X126262274Y-79479372D01*
X126122922Y-79340020D01*
X126122914Y-79340014D01*
X126035418Y-79281551D01*
X125990612Y-79227939D01*
X125981905Y-79158614D01*
X126012059Y-79095587D01*
X126071502Y-79058867D01*
X126104308Y-79054449D01*
X126165984Y-79054449D01*
X126233023Y-79074134D01*
X126253665Y-79090768D01*
X136075215Y-88912318D01*
X136108700Y-88973641D01*
X136103716Y-89043333D01*
X136075215Y-89087680D01*
X135634322Y-89528573D01*
X135583397Y-89559319D01*
X134183085Y-89993927D01*
X134146329Y-89999500D01*
X134074038Y-89999500D01*
X133962090Y-90017231D01*
X133825214Y-90038910D01*
X133585616Y-90116760D01*
X133361151Y-90231132D01*
X133157350Y-90379201D01*
X133157345Y-90379205D01*
X132979205Y-90557345D01*
X132979201Y-90557350D01*
X132831132Y-90761151D01*
X132716760Y-90985616D01*
X132638910Y-91225214D01*
X132622674Y-91327722D01*
X132599500Y-91474038D01*
X132599500Y-91725962D01*
X132635439Y-91952869D01*
X132638910Y-91974785D01*
X132716760Y-92214383D01*
X132784881Y-92348077D01*
X132830575Y-92437756D01*
X132831132Y-92438848D01*
X132979201Y-92642649D01*
X132979205Y-92642654D01*
X133157345Y-92820794D01*
X133157350Y-92820798D01*
X133332024Y-92947705D01*
X133361155Y-92968870D01*
X133504184Y-93041747D01*
X133585616Y-93083239D01*
X133585618Y-93083239D01*
X133585621Y-93083241D01*
X133825215Y-93161090D01*
X134074038Y-93200500D01*
X134074039Y-93200500D01*
X134325961Y-93200500D01*
X134325962Y-93200500D01*
X134574785Y-93161090D01*
X134814379Y-93083241D01*
X135038845Y-92968870D01*
X135242656Y-92820793D01*
X135420793Y-92642656D01*
X135568870Y-92438845D01*
X135683241Y-92214379D01*
X135761090Y-91974785D01*
X135800500Y-91725962D01*
X135800500Y-91653666D01*
X135806073Y-91616910D01*
X135814292Y-91590428D01*
X136240679Y-90216599D01*
X136271422Y-90165679D01*
X136750284Y-89686819D01*
X136811607Y-89653334D01*
X136837965Y-89650500D01*
X136940691Y-89650500D01*
X137344447Y-89650500D01*
X137411486Y-89670185D01*
X137432128Y-89686819D01*
X137985058Y-90239749D01*
X138011034Y-90277850D01*
X138624930Y-91685140D01*
X138633746Y-91715321D01*
X138653375Y-91839248D01*
X138653376Y-91839251D01*
X138731225Y-92078845D01*
X138793427Y-92200924D01*
X138845598Y-92303314D01*
X138993667Y-92507115D01*
X138993671Y-92507120D01*
X139171811Y-92685260D01*
X139171816Y-92685264D01*
X139349583Y-92814418D01*
X139375621Y-92833336D01*
X139518650Y-92906213D01*
X139600082Y-92947705D01*
X139600084Y-92947705D01*
X139600087Y-92947707D01*
X139839681Y-93025556D01*
X140088504Y-93064966D01*
X140088505Y-93064966D01*
X140340427Y-93064966D01*
X140340428Y-93064966D01*
X140589251Y-93025556D01*
X140828845Y-92947707D01*
X141053311Y-92833336D01*
X141257122Y-92685259D01*
X141435259Y-92507122D01*
X141583336Y-92303311D01*
X141697707Y-92078845D01*
X141775556Y-91839251D01*
X141814966Y-91590428D01*
X141814966Y-91338504D01*
X141775556Y-91089681D01*
X141697707Y-90850087D01*
X141697705Y-90850084D01*
X141697705Y-90850082D01*
X141641661Y-90740091D01*
X141583336Y-90625621D01*
X141529306Y-90551255D01*
X141435264Y-90421816D01*
X141435260Y-90421811D01*
X141257120Y-90243671D01*
X141257115Y-90243667D01*
X141053314Y-90095598D01*
X141053313Y-90095597D01*
X141053311Y-90095596D01*
X140945542Y-90040685D01*
X140828849Y-89981226D01*
X140589251Y-89903376D01*
X140443600Y-89880307D01*
X140340428Y-89863966D01*
X140088504Y-89863966D01*
X140088503Y-89863966D01*
X140085831Y-89864176D01*
X140054134Y-89862593D01*
X138662878Y-89612017D01*
X138600390Y-89580761D01*
X138597177Y-89577662D01*
X137859028Y-88839513D01*
X137859026Y-88839511D01*
X137756299Y-88780201D01*
X137726804Y-88772298D01*
X137726801Y-88772297D01*
X137665796Y-88755951D01*
X137641721Y-88749500D01*
X137641720Y-88749500D01*
X137237965Y-88749500D01*
X137170926Y-88729815D01*
X137150284Y-88713181D01*
X136620221Y-88183118D01*
X136586736Y-88121795D01*
X136591720Y-88052103D01*
X136633592Y-87996170D01*
X136699056Y-87971753D01*
X136718546Y-87971895D01*
X136738416Y-87973606D01*
X136800000Y-88000000D01*
X136850266Y-87984532D01*
X136856743Y-87985309D01*
X136859663Y-87984889D01*
X136862597Y-87985207D01*
X136924102Y-87975650D01*
X136925504Y-87975442D01*
X136987184Y-87966590D01*
X136987183Y-87966590D01*
X136987191Y-87966589D01*
X136987197Y-87966586D01*
X136990580Y-87965637D01*
X136990673Y-87965611D01*
X136992602Y-87965070D01*
X136992816Y-87964975D01*
X136992818Y-87964975D01*
X137049795Y-87939807D01*
X137050999Y-87939284D01*
X137182361Y-87883073D01*
X137194629Y-87878575D01*
X138096858Y-87600966D01*
X138103198Y-87599200D01*
X140879064Y-86905233D01*
X140921472Y-86902147D01*
X141874511Y-86997451D01*
X141922392Y-87012440D01*
X142798561Y-87499200D01*
X142801472Y-87500872D01*
X144515142Y-88516380D01*
X144527818Y-88524994D01*
X144622060Y-88597949D01*
X144624892Y-88600209D01*
X144995379Y-88905001D01*
X144999524Y-88908566D01*
X145038276Y-88943427D01*
X145048268Y-88948512D01*
X145056926Y-88955635D01*
X145106847Y-88978326D01*
X145109265Y-88979557D01*
X145109283Y-88979566D01*
X145125721Y-88987931D01*
X145155725Y-89003202D01*
X145155726Y-89003202D01*
X145155728Y-89003203D01*
X145163394Y-89005914D01*
X145163368Y-89005984D01*
X145169099Y-89007870D01*
X145169121Y-89007799D01*
X145176893Y-89010166D01*
X145176895Y-89010166D01*
X145176899Y-89010168D01*
X145228353Y-89018726D01*
X145233662Y-89019730D01*
X145417543Y-89058726D01*
X145455029Y-89073350D01*
X145499998Y-89099999D01*
X145499999Y-89099999D01*
X145500000Y-89100000D01*
X146900000Y-89500000D01*
X147523884Y-89544563D01*
X147545368Y-89548013D01*
X147696029Y-89586034D01*
X147697140Y-89586322D01*
X148139372Y-89703628D01*
X148141054Y-89704087D01*
X148506096Y-89806563D01*
X148507823Y-89807171D01*
X148514604Y-89809062D01*
X148514605Y-89809063D01*
X148577404Y-89826580D01*
X148577585Y-89826693D01*
X148577602Y-89826636D01*
X148640725Y-89844357D01*
X148640731Y-89844357D01*
X148641537Y-89844472D01*
X148641543Y-89844474D01*
X148644766Y-89844506D01*
X148706985Y-89845145D01*
X148706984Y-89845189D01*
X148707188Y-89845146D01*
X148746658Y-89845615D01*
X148769870Y-89845892D01*
X148769871Y-89845891D01*
X148772500Y-89845923D01*
X148772904Y-89845819D01*
X148773320Y-89845824D01*
X148836791Y-89829511D01*
X148900189Y-89813329D01*
X148900191Y-89813327D01*
X148907070Y-89811572D01*
X148908793Y-89811006D01*
X149363933Y-89694036D01*
X149368319Y-89692994D01*
X149929246Y-89570691D01*
X149932637Y-89570003D01*
X150258166Y-89508802D01*
X150261001Y-89508303D01*
X150610693Y-89451195D01*
X150614113Y-89450686D01*
X150977046Y-89401900D01*
X150981180Y-89401417D01*
X151018016Y-89397726D01*
X151079258Y-89391592D01*
X151082158Y-89391338D01*
X151729178Y-89342811D01*
X151737366Y-89342471D01*
X152078710Y-89339657D01*
X152084366Y-89339740D01*
X152246780Y-89345860D01*
X152251122Y-89346102D01*
X152410739Y-89357851D01*
X152415718Y-89358319D01*
X152471629Y-89364728D01*
X152499199Y-89371142D01*
X153392558Y-89690199D01*
X153427834Y-89709766D01*
X153473136Y-89745643D01*
X153478943Y-89750538D01*
X153577517Y-89838944D01*
X153582310Y-89843479D01*
X153683408Y-89944353D01*
X153687386Y-89948510D01*
X153786115Y-90056615D01*
X153790869Y-90062138D01*
X153888102Y-90182052D01*
X153998200Y-90317834D01*
X154001196Y-90321528D01*
X154005963Y-90327805D01*
X154031459Y-90363692D01*
X154208739Y-90613224D01*
X154212241Y-90618428D01*
X154407982Y-90925758D01*
X154410624Y-90930100D01*
X154596318Y-91249864D01*
X154598361Y-91253523D01*
X154771605Y-91576507D01*
X154773218Y-91579618D01*
X154931939Y-91896727D01*
X154933236Y-91899399D01*
X155074459Y-92199287D01*
X155075936Y-92202544D01*
X155305654Y-92729243D01*
X155307404Y-92733467D01*
X155444840Y-93083241D01*
X155487764Y-93192482D01*
X155490244Y-93206905D01*
X155511787Y-93253623D01*
X155513098Y-93256958D01*
X155530606Y-93301516D01*
X155530606Y-93301517D01*
X155530607Y-93301518D01*
X155539302Y-93313290D01*
X155545430Y-93326578D01*
X155578332Y-93366130D01*
X155608905Y-93407520D01*
X155620350Y-93416640D01*
X155629709Y-93427890D01*
X155671729Y-93457580D01*
X155711970Y-93489645D01*
X155711971Y-93489645D01*
X155711972Y-93489646D01*
X155713739Y-93490416D01*
X155735759Y-93502821D01*
X155923729Y-93635635D01*
X155925180Y-93636676D01*
X155970693Y-93669827D01*
X155994006Y-93693772D01*
X155994161Y-93693630D01*
X155998882Y-93698780D01*
X155999833Y-93699757D01*
X156000000Y-93700000D01*
X157100000Y-94900000D01*
X158300000Y-95800000D01*
X158300005Y-95800002D01*
X158308048Y-95804356D01*
X158307505Y-95805358D01*
X158307836Y-95805570D01*
X158315711Y-95807332D01*
X158343841Y-95828648D01*
X158386341Y-95871647D01*
X158394877Y-95882556D01*
X158395385Y-95882147D01*
X158400486Y-95888469D01*
X158442740Y-95928708D01*
X158483716Y-95970165D01*
X158490348Y-95974046D01*
X158495919Y-95979351D01*
X158547127Y-96007271D01*
X158597458Y-96036723D01*
X158604867Y-96038754D01*
X158611617Y-96042434D01*
X158611621Y-96042435D01*
X158611623Y-96042436D01*
X158666505Y-96055713D01*
X158670070Y-96056634D01*
X158724550Y-96071573D01*
X158724551Y-96071573D01*
X158732599Y-96072680D01*
X158732509Y-96073333D01*
X158746250Y-96075006D01*
X159372213Y-96226452D01*
X159376884Y-96227679D01*
X159824643Y-96354758D01*
X159833130Y-96357501D01*
X160497105Y-96598947D01*
X160502817Y-96601186D01*
X162391886Y-97396583D01*
X162407554Y-97404532D01*
X163381988Y-97989193D01*
X163413446Y-98016135D01*
X163831324Y-98517589D01*
X163876716Y-98572059D01*
X163876975Y-98572482D01*
X163877185Y-98572625D01*
X163895513Y-98602788D01*
X163896463Y-98605015D01*
X163905161Y-98636133D01*
X163998333Y-99288335D01*
X163999439Y-99311769D01*
X163933159Y-100703650D01*
X163931596Y-100718234D01*
X163865025Y-101115718D01*
X163864005Y-101121082D01*
X163764858Y-101586313D01*
X163763753Y-101591040D01*
X163669077Y-101963176D01*
X163666970Y-101971457D01*
X163666696Y-101971950D01*
X163650798Y-102035024D01*
X163650798Y-102035025D01*
X163634618Y-102098623D01*
X163634603Y-102098753D01*
X163634564Y-102099081D01*
X163634487Y-102099723D01*
X163635455Y-102164659D01*
X163635459Y-102164933D01*
X163636289Y-102230395D01*
X163636396Y-102231136D01*
X163636409Y-102231224D01*
X163636448Y-102231499D01*
X163644474Y-102259760D01*
X163654339Y-102294500D01*
X163672007Y-102357245D01*
X163672296Y-102357731D01*
X163672452Y-102358280D01*
X163706072Y-102414558D01*
X163739340Y-102470530D01*
X163739745Y-102470925D01*
X163744135Y-102478273D01*
X163744135Y-102478274D01*
X164347555Y-103488365D01*
X164351610Y-103496207D01*
X164386077Y-103552856D01*
X164386595Y-103553716D01*
X164420661Y-103610741D01*
X164425705Y-103617987D01*
X164717273Y-104097202D01*
X164729054Y-104116564D01*
X164730149Y-104120110D01*
X164763291Y-104172835D01*
X164763748Y-104173586D01*
X164795626Y-104225980D01*
X164795997Y-104226441D01*
X164804364Y-104238177D01*
X164932390Y-104441849D01*
X164938145Y-104451005D01*
X164939105Y-104453983D01*
X164973186Y-104506749D01*
X164973594Y-104507398D01*
X164973594Y-104507399D01*
X165006974Y-104560503D01*
X165014776Y-104571142D01*
X165147090Y-104775998D01*
X165172910Y-104815973D01*
X165180216Y-104833854D01*
X165208537Y-104871133D01*
X165220406Y-104889509D01*
X165231714Y-104907018D01*
X165233932Y-104910451D01*
X165239694Y-104915665D01*
X165255224Y-104932588D01*
X165259937Y-104938791D01*
X165259941Y-104938794D01*
X165259942Y-104938795D01*
X165293210Y-104964578D01*
X165293211Y-104964578D01*
X165296941Y-104967469D01*
X165331647Y-104998875D01*
X165348833Y-105007685D01*
X165357952Y-105014752D01*
X165357953Y-105014754D01*
X165357955Y-105014755D01*
X165364099Y-105019517D01*
X165402908Y-105035812D01*
X165402907Y-105035812D01*
X165407271Y-105037644D01*
X165448919Y-105058995D01*
X165467804Y-105063058D01*
X165485608Y-105070533D01*
X165485610Y-105070534D01*
X165527314Y-105076228D01*
X165536598Y-105077858D01*
X165555431Y-105081910D01*
X165577749Y-105086713D01*
X165577750Y-105086713D01*
X165577755Y-105086714D01*
X165585516Y-105086326D01*
X165608479Y-105087310D01*
X165684979Y-105097757D01*
X165686479Y-105097972D01*
X165805342Y-105115801D01*
X166241230Y-105181184D01*
X166243589Y-105181562D01*
X166519902Y-105228712D01*
X166522980Y-105229278D01*
X166808209Y-105285576D01*
X166810731Y-105286102D01*
X167115230Y-105352997D01*
X167118247Y-105353700D01*
X167432028Y-105430936D01*
X167435508Y-105431847D01*
X167750665Y-105519477D01*
X167754890Y-105520734D01*
X168063290Y-105618573D01*
X168068400Y-105620320D01*
X168361526Y-105727770D01*
X168367870Y-105730297D01*
X168642540Y-105848550D01*
X168648212Y-105851164D01*
X168766651Y-105909441D01*
X168771034Y-105911707D01*
X168867994Y-105964328D01*
X168884323Y-105973190D01*
X168889209Y-105975988D01*
X168991827Y-106037915D01*
X168997266Y-106041396D01*
X169088000Y-106102893D01*
X169094078Y-106107288D01*
X169171871Y-106167239D01*
X169178607Y-106172821D01*
X169243448Y-106230533D01*
X169250461Y-106237287D01*
X169305355Y-106294486D01*
X169311159Y-106300979D01*
X169363567Y-106363947D01*
X169370142Y-106372593D01*
X169496987Y-106555494D01*
X169503040Y-106565139D01*
X169624704Y-106780368D01*
X169628730Y-106788114D01*
X169746475Y-107035594D01*
X169749242Y-107041850D01*
X169860230Y-107312700D01*
X169862194Y-107317812D01*
X169930903Y-107509160D01*
X169933428Y-107517000D01*
X170100001Y-108100005D01*
X170162143Y-108270895D01*
X170165952Y-108283380D01*
X170282769Y-108753688D01*
X170283790Y-108758148D01*
X170380031Y-109217443D01*
X170380811Y-109221498D01*
X170451226Y-109623856D01*
X170451225Y-109623856D01*
X170452535Y-109631344D01*
X170454332Y-109666541D01*
X170463843Y-109695953D01*
X170465337Y-109704486D01*
X170465340Y-109704495D01*
X170469177Y-109726420D01*
X170480832Y-109751499D01*
X170486366Y-109765602D01*
X170494881Y-109791933D01*
X170497515Y-109796001D01*
X170511687Y-109817889D01*
X170524718Y-109845929D01*
X170547338Y-109872957D01*
X170551463Y-109879329D01*
X170566499Y-109902551D01*
X170566502Y-109902555D01*
X170589454Y-109923279D01*
X170609298Y-109946989D01*
X170638143Y-109967241D01*
X170643778Y-109972330D01*
X170643778Y-109972331D01*
X170664310Y-109990869D01*
X170664313Y-109990870D01*
X170664315Y-109990872D01*
X170691848Y-110004949D01*
X170717153Y-110022716D01*
X170750261Y-110034814D01*
X170893436Y-110108016D01*
X170905860Y-110114368D01*
X170937090Y-110137090D01*
X170990477Y-110190477D01*
X171000001Y-110200001D01*
X171169303Y-110301582D01*
X171460818Y-110476491D01*
X171498582Y-110499149D01*
X171501348Y-110500857D01*
X172284542Y-110999254D01*
X172598900Y-111199300D01*
X172601110Y-111200740D01*
X172865148Y-111376765D01*
X173123879Y-111549252D01*
X180826584Y-114125912D01*
X182339804Y-114618969D01*
X188782670Y-116718268D01*
X191041312Y-117426113D01*
X192774726Y-117969355D01*
X195319207Y-118737769D01*
X196779233Y-119178686D01*
X196779247Y-119178690D01*
X200798570Y-120337502D01*
X203727417Y-121135310D01*
X204619813Y-121378396D01*
X204679322Y-121415008D01*
X204709590Y-121477981D01*
X204701008Y-121547322D01*
X204671636Y-121588869D01*
X204410462Y-121831585D01*
X204409256Y-121832691D01*
X204195158Y-122026457D01*
X204194216Y-122027301D01*
X203978036Y-122218976D01*
X203976985Y-122219897D01*
X203758823Y-122408983D01*
X203757661Y-122409977D01*
X203537248Y-122596303D01*
X203535973Y-122597367D01*
X203313184Y-122780644D01*
X203311792Y-122781773D01*
X203086288Y-122961881D01*
X203085268Y-122962686D01*
X202332353Y-123551211D01*
X202327136Y-123555074D01*
X201551558Y-124098416D01*
X201546399Y-124101841D01*
X200747755Y-124603846D01*
X200742717Y-124606849D01*
X199922793Y-125069640D01*
X199917927Y-125072246D01*
X199078547Y-125497922D01*
X199073895Y-125500160D01*
X198216889Y-125890817D01*
X198212483Y-125892723D01*
X197339720Y-126250443D01*
X197335585Y-126252053D01*
X196448807Y-126578973D01*
X196444958Y-126580320D01*
X195546145Y-126878487D01*
X195542592Y-126879607D01*
X194633489Y-127151158D01*
X194630236Y-127152081D01*
X193712820Y-127399082D01*
X193709870Y-127399838D01*
X192786463Y-127624284D01*
X192782642Y-127625149D01*
X190921880Y-128015624D01*
X190917776Y-128016413D01*
X189052638Y-128342599D01*
X187486308Y-128661712D01*
X187481686Y-128662563D01*
X185915608Y-128920245D01*
X185911224Y-128920886D01*
X184342173Y-129121784D01*
X184338062Y-129122241D01*
X182765175Y-129270511D01*
X182761367Y-129270811D01*
X181183813Y-129370606D01*
X181180327Y-129370777D01*
X179597320Y-129426250D01*
X179594171Y-129426320D01*
X178004926Y-129441623D01*
X178002124Y-129441619D01*
X177435455Y-129434267D01*
X176404491Y-129420893D01*
X176404478Y-129420893D01*
X176404461Y-129420893D01*
X174706942Y-129452513D01*
X174702352Y-129452514D01*
X173012906Y-129421425D01*
X173008882Y-129421286D01*
X171324002Y-129335503D01*
X171320565Y-129335280D01*
X169639322Y-129202780D01*
X169636480Y-129202523D01*
X167957890Y-129031291D01*
X167955646Y-129031041D01*
X167079348Y-128925494D01*
X167015143Y-128897934D01*
X166976031Y-128840038D01*
X166974429Y-128770186D01*
X167010846Y-128710558D01*
X167073719Y-128680083D01*
X167094176Y-128678384D01*
X172431423Y-128678384D01*
X172431425Y-128678384D01*
X172525547Y-128653164D01*
X172546003Y-128647683D01*
X172648730Y-128588373D01*
X172650690Y-128586412D01*
X172662627Y-128580335D01*
X172672933Y-128578402D01*
X172690102Y-128570223D01*
X173835063Y-128296963D01*
X173880033Y-128294639D01*
X173888851Y-128295800D01*
X173888853Y-128295800D01*
X174111150Y-128295800D01*
X174160644Y-128289284D01*
X174331544Y-128266785D01*
X174546267Y-128209250D01*
X174751643Y-128124181D01*
X174944158Y-128013032D01*
X175120518Y-127877706D01*
X175277706Y-127720518D01*
X175413032Y-127544158D01*
X175524181Y-127351643D01*
X175609250Y-127146267D01*
X175666785Y-126931544D01*
X175695800Y-126711149D01*
X175695800Y-126488851D01*
X175666785Y-126268456D01*
X175609250Y-126053733D01*
X175609249Y-126053730D01*
X175609247Y-126053723D01*
X175524185Y-125848366D01*
X175524177Y-125848349D01*
X175413036Y-125655849D01*
X175413032Y-125655842D01*
X175357797Y-125583859D01*
X175277707Y-125479483D01*
X175277701Y-125479476D01*
X175120523Y-125322298D01*
X175120516Y-125322292D01*
X174944166Y-125186974D01*
X174944164Y-125186972D01*
X174944158Y-125186968D01*
X174944153Y-125186965D01*
X174944150Y-125186963D01*
X174751650Y-125075822D01*
X174751633Y-125075814D01*
X174546274Y-124990752D01*
X174540799Y-124989285D01*
X174331544Y-124933215D01*
X174331543Y-124933214D01*
X174331540Y-124933214D01*
X174111150Y-124904200D01*
X174111149Y-124904200D01*
X173888851Y-124904200D01*
X173888850Y-124904200D01*
X173668459Y-124933214D01*
X173453725Y-124990752D01*
X173248366Y-125075814D01*
X173248349Y-125075822D01*
X173055849Y-125186963D01*
X173055833Y-125186974D01*
X172879483Y-125322292D01*
X172879476Y-125322298D01*
X172722298Y-125479476D01*
X172722292Y-125479483D01*
X172586974Y-125655833D01*
X172586963Y-125655849D01*
X172475822Y-125848349D01*
X172475814Y-125848366D01*
X172390753Y-126053723D01*
X172390750Y-126053730D01*
X172390750Y-126053733D01*
X172375691Y-126109933D01*
X172333214Y-126268459D01*
X172304200Y-126488850D01*
X172304200Y-126584680D01*
X172300922Y-126613003D01*
X172050190Y-127681707D01*
X172015713Y-127742478D01*
X171953854Y-127774962D01*
X171929468Y-127777384D01*
X160210230Y-127777384D01*
X160178136Y-127773159D01*
X160168847Y-127770670D01*
X160168847Y-127770669D01*
X160106535Y-127753973D01*
X160089840Y-127749500D01*
X160089839Y-127749500D01*
X158596947Y-127749500D01*
X158538729Y-127734984D01*
X157595920Y-127233642D01*
X157566457Y-127211839D01*
X156984671Y-126630052D01*
X156984667Y-126630049D01*
X156935085Y-126596919D01*
X156856857Y-126581359D01*
X156856853Y-126581359D01*
X156778625Y-126596918D01*
X156778621Y-126596920D01*
X156729048Y-126630044D01*
X156729040Y-126630050D01*
X156161961Y-127197129D01*
X156114590Y-127226713D01*
X155487486Y-127442280D01*
X155417689Y-127445458D01*
X155357253Y-127410396D01*
X155325368Y-127348226D01*
X155332156Y-127278687D01*
X155359495Y-127237334D01*
X155837940Y-126758889D01*
X155837943Y-126758886D01*
X155947435Y-126595019D01*
X156022855Y-126412941D01*
X156061304Y-126219645D01*
X156061304Y-126022565D01*
X156061304Y-126022562D01*
X156061303Y-126022560D01*
X156059475Y-126013371D01*
X156022855Y-125829269D01*
X155947435Y-125647191D01*
X155922915Y-125610495D01*
X155911949Y-125588323D01*
X155911627Y-125588470D01*
X155673154Y-125065435D01*
X155663253Y-124996270D01*
X155692317Y-124932733D01*
X155698284Y-124926327D01*
X157506077Y-123118535D01*
X157567396Y-123085053D01*
X157637088Y-123090037D01*
X157681435Y-123118538D01*
X159240108Y-124677211D01*
X159257837Y-124700897D01*
X159258019Y-124700774D01*
X159260786Y-124704838D01*
X159261269Y-124705483D01*
X159261444Y-124705805D01*
X159261448Y-124705810D01*
X159261450Y-124705814D01*
X159740780Y-125279558D01*
X160233526Y-125869360D01*
X160248850Y-125892566D01*
X160254905Y-125904449D01*
X160315086Y-126022562D01*
X160315337Y-126023053D01*
X160463406Y-126226854D01*
X160463410Y-126226859D01*
X160641550Y-126404999D01*
X160641555Y-126405003D01*
X160808571Y-126526346D01*
X160845360Y-126553075D01*
X160992095Y-126627840D01*
X161069825Y-126667446D01*
X161069831Y-126667448D01*
X161190170Y-126706548D01*
X161279286Y-126735503D01*
X161315355Y-126757606D01*
X161316940Y-126755542D01*
X161323381Y-126760484D01*
X161323386Y-126760489D01*
X161376821Y-126791340D01*
X161426114Y-126819800D01*
X161496233Y-126838587D01*
X161540691Y-126850499D01*
X161540694Y-126850499D01*
X161659306Y-126850499D01*
X161659309Y-126850499D01*
X161773887Y-126819799D01*
X161824034Y-126790845D01*
X161866632Y-126775761D01*
X162058990Y-126745295D01*
X162298584Y-126667446D01*
X162523050Y-126553075D01*
X162726861Y-126404998D01*
X162904998Y-126226861D01*
X163053075Y-126023050D01*
X163167446Y-125798584D01*
X163245295Y-125558990D01*
X163284705Y-125310167D01*
X163284705Y-125058243D01*
X163281599Y-125038635D01*
X163245295Y-124809419D01*
X163227722Y-124755337D01*
X163216590Y-124721076D01*
X167000906Y-124721076D01*
X167000906Y-124943375D01*
X167028139Y-125150240D01*
X167029921Y-125163770D01*
X167072397Y-125322294D01*
X167087458Y-125378500D01*
X167172520Y-125583859D01*
X167172528Y-125583876D01*
X167283669Y-125776376D01*
X167283680Y-125776392D01*
X167418998Y-125952742D01*
X167419004Y-125952749D01*
X167576182Y-126109927D01*
X167576189Y-126109933D01*
X167701776Y-126206299D01*
X167752548Y-126245258D01*
X167752555Y-126245262D01*
X167945055Y-126356403D01*
X167945060Y-126356405D01*
X167945063Y-126356407D01*
X167945067Y-126356408D01*
X167945072Y-126356411D01*
X168150431Y-126441473D01*
X168150433Y-126441473D01*
X168150439Y-126441476D01*
X168365162Y-126499011D01*
X168506036Y-126517557D01*
X168585556Y-126528026D01*
X168585557Y-126528026D01*
X168807856Y-126528026D01*
X168887376Y-126517557D01*
X169028250Y-126499011D01*
X169242973Y-126441476D01*
X169448349Y-126356407D01*
X169640864Y-126245258D01*
X169817224Y-126109932D01*
X169974412Y-125952744D01*
X170109738Y-125776384D01*
X170220887Y-125583869D01*
X170305956Y-125378493D01*
X170363491Y-125163770D01*
X170392506Y-124943375D01*
X170392506Y-124721077D01*
X170390495Y-124705805D01*
X170377365Y-124606067D01*
X170363491Y-124500682D01*
X170305956Y-124285959D01*
X170296638Y-124263464D01*
X170220891Y-124080592D01*
X170220883Y-124080575D01*
X170109742Y-123888075D01*
X170109738Y-123888068D01*
X169995392Y-123739049D01*
X169974413Y-123711709D01*
X169974407Y-123711702D01*
X169817229Y-123554524D01*
X169817222Y-123554518D01*
X169640872Y-123419200D01*
X169640870Y-123419198D01*
X169640864Y-123419194D01*
X169640859Y-123419191D01*
X169640856Y-123419189D01*
X169448356Y-123308048D01*
X169448339Y-123308040D01*
X169242980Y-123222978D01*
X169234157Y-123220614D01*
X169028250Y-123165441D01*
X169028249Y-123165440D01*
X169028246Y-123165440D01*
X168807856Y-123136426D01*
X168807855Y-123136426D01*
X168585557Y-123136426D01*
X168585556Y-123136426D01*
X168365165Y-123165440D01*
X168150431Y-123222978D01*
X167945072Y-123308040D01*
X167945055Y-123308048D01*
X167752555Y-123419189D01*
X167752539Y-123419200D01*
X167576189Y-123554518D01*
X167576182Y-123554524D01*
X167419004Y-123711702D01*
X167418998Y-123711709D01*
X167283680Y-123888059D01*
X167283669Y-123888075D01*
X167172528Y-124080575D01*
X167172520Y-124080592D01*
X167087458Y-124285951D01*
X167029920Y-124500685D01*
X167000906Y-124721076D01*
X163216590Y-124721076D01*
X163167446Y-124569826D01*
X163053075Y-124345360D01*
X162985943Y-124252960D01*
X162905003Y-124141555D01*
X162904999Y-124141550D01*
X162726859Y-123963410D01*
X162726854Y-123963406D01*
X162523053Y-123815337D01*
X162523052Y-123815336D01*
X162523050Y-123815335D01*
X162409784Y-123757623D01*
X162298588Y-123700965D01*
X162058990Y-123623115D01*
X161810167Y-123583705D01*
X161558243Y-123583705D01*
X161509634Y-123591404D01*
X161309418Y-123623115D01*
X161309415Y-123623115D01*
X161069832Y-123700961D01*
X161069814Y-123700969D01*
X161067549Y-123702123D01*
X161038723Y-123712554D01*
X159891937Y-123972938D01*
X159822203Y-123968586D01*
X159776800Y-123939697D01*
X158080574Y-122243471D01*
X158065870Y-122216543D01*
X158049278Y-122190725D01*
X158048386Y-122184524D01*
X158047089Y-122182148D01*
X158044255Y-122155790D01*
X158044255Y-122051998D01*
X163177460Y-122051998D01*
X163177460Y-122303922D01*
X163193349Y-122404239D01*
X163216870Y-122552745D01*
X163294720Y-122792343D01*
X163352605Y-122905947D01*
X163408997Y-123016623D01*
X163409092Y-123016808D01*
X163557161Y-123220609D01*
X163557165Y-123220614D01*
X163735305Y-123398754D01*
X163735310Y-123398758D01*
X163913077Y-123527912D01*
X163939115Y-123546830D01*
X164082144Y-123619707D01*
X164163576Y-123661199D01*
X164163578Y-123661199D01*
X164163581Y-123661201D01*
X164403175Y-123739050D01*
X164651998Y-123778460D01*
X164651999Y-123778460D01*
X164903921Y-123778460D01*
X164903922Y-123778460D01*
X165152745Y-123739050D01*
X165392339Y-123661201D01*
X165616805Y-123546830D01*
X165820616Y-123398753D01*
X165871739Y-123347628D01*
X165901665Y-123325582D01*
X166584447Y-122966240D01*
X167199146Y-122642729D01*
X167256896Y-122628460D01*
X169978535Y-122628460D01*
X170006786Y-122631721D01*
X170012372Y-122633028D01*
X170965210Y-122759185D01*
X171487668Y-122828359D01*
X171518844Y-122836725D01*
X171673875Y-122900941D01*
X171685966Y-122905949D01*
X171900689Y-122963484D01*
X172065985Y-122985245D01*
X172121083Y-122992499D01*
X172121084Y-122992499D01*
X172343383Y-122992499D01*
X172387461Y-122986696D01*
X172563777Y-122963484D01*
X172778500Y-122905949D01*
X172983876Y-122820880D01*
X173176391Y-122709731D01*
X173352751Y-122574405D01*
X173509939Y-122417217D01*
X173645265Y-122240857D01*
X173756414Y-122048342D01*
X173841483Y-121842966D01*
X173899018Y-121628243D01*
X173928033Y-121407848D01*
X173928033Y-121185550D01*
X173899018Y-120965155D01*
X173841483Y-120750432D01*
X173829787Y-120722196D01*
X173756418Y-120545065D01*
X173756410Y-120545048D01*
X173645269Y-120352548D01*
X173645265Y-120352541D01*
X173568336Y-120252285D01*
X173509940Y-120176182D01*
X173509934Y-120176175D01*
X173352756Y-120018997D01*
X173352749Y-120018991D01*
X173176399Y-119883673D01*
X173176397Y-119883671D01*
X173176391Y-119883667D01*
X173176386Y-119883664D01*
X173176383Y-119883662D01*
X172983883Y-119772521D01*
X172983866Y-119772513D01*
X172778507Y-119687451D01*
X172678141Y-119660558D01*
X172563777Y-119629914D01*
X172563776Y-119629913D01*
X172563773Y-119629913D01*
X172343383Y-119600899D01*
X172343382Y-119600899D01*
X172121084Y-119600899D01*
X172121083Y-119600899D01*
X171900692Y-119629913D01*
X171685958Y-119687451D01*
X171480599Y-119772513D01*
X171480582Y-119772521D01*
X171288082Y-119883662D01*
X171288066Y-119883673D01*
X171111716Y-120018991D01*
X171111709Y-120018997D01*
X170954531Y-120176175D01*
X170954525Y-120176182D01*
X170819207Y-120352532D01*
X170819196Y-120352548D01*
X170708056Y-120545047D01*
X170708051Y-120545056D01*
X170654388Y-120674607D01*
X170641314Y-120698403D01*
X170047131Y-121544743D01*
X169988512Y-121628239D01*
X169955886Y-121674710D01*
X169901255Y-121718267D01*
X169854400Y-121727460D01*
X167256898Y-121727460D01*
X167199147Y-121713191D01*
X165901664Y-121030335D01*
X165871734Y-121008285D01*
X165820614Y-120957165D01*
X165820609Y-120957161D01*
X165616808Y-120809092D01*
X165616807Y-120809091D01*
X165616805Y-120809090D01*
X165531551Y-120765651D01*
X165392343Y-120694720D01*
X165152745Y-120616870D01*
X165092998Y-120607407D01*
X164903922Y-120577460D01*
X164651998Y-120577460D01*
X164527586Y-120597165D01*
X164403174Y-120616870D01*
X164163576Y-120694720D01*
X163939111Y-120809092D01*
X163735310Y-120957161D01*
X163735305Y-120957165D01*
X163557165Y-121135305D01*
X163557161Y-121135310D01*
X163409092Y-121339111D01*
X163294720Y-121563576D01*
X163216870Y-121803174D01*
X163195810Y-121936143D01*
X163177460Y-122051998D01*
X158044255Y-122051998D01*
X158044255Y-117472691D01*
X158058524Y-117414941D01*
X158358411Y-116845130D01*
X158741377Y-116117460D01*
X158763423Y-116087534D01*
X158814548Y-116036411D01*
X158962625Y-115832600D01*
X159076996Y-115608134D01*
X159154845Y-115368540D01*
X159194255Y-115119717D01*
X159194255Y-114867793D01*
X159154845Y-114618970D01*
X159076996Y-114379376D01*
X159076994Y-114379373D01*
X159076994Y-114379371D01*
X159006931Y-114241866D01*
X158962625Y-114154910D01*
X158914482Y-114088646D01*
X158814553Y-113951105D01*
X158814549Y-113951100D01*
X158636409Y-113772960D01*
X158636404Y-113772956D01*
X158432603Y-113624887D01*
X158432602Y-113624886D01*
X158432600Y-113624885D01*
X158350127Y-113582863D01*
X158208138Y-113510515D01*
X157968540Y-113432665D01*
X157920562Y-113425066D01*
X157719717Y-113393255D01*
X157467793Y-113393255D01*
X157343381Y-113412960D01*
X157218969Y-113432665D01*
X157107804Y-113468784D01*
X156979376Y-113510514D01*
X156979373Y-113510515D01*
X156979371Y-113510516D01*
X156753788Y-113625456D01*
X156685118Y-113638352D01*
X156620378Y-113612075D01*
X156580121Y-113554969D01*
X156577129Y-113485163D01*
X156609810Y-113427292D01*
X157050284Y-112986819D01*
X157111607Y-112953334D01*
X157137965Y-112950500D01*
X158262035Y-112950500D01*
X158329074Y-112970185D01*
X158349716Y-112986819D01*
X163729631Y-118366734D01*
X163772659Y-118391576D01*
X163832359Y-118426044D01*
X163946936Y-118456745D01*
X166195965Y-118456745D01*
X166263004Y-118476430D01*
X166308759Y-118529234D01*
X166318703Y-118598392D01*
X166318439Y-118600135D01*
X166305745Y-118680283D01*
X166305745Y-118932207D01*
X166324198Y-119048716D01*
X166345155Y-119181030D01*
X166423005Y-119420628D01*
X166477448Y-119527477D01*
X166534126Y-119638714D01*
X166537377Y-119645093D01*
X166685446Y-119848894D01*
X166685450Y-119848899D01*
X166863590Y-120027039D01*
X166863595Y-120027043D01*
X166985677Y-120115740D01*
X167067400Y-120175115D01*
X167201894Y-120243643D01*
X167291861Y-120289484D01*
X167291863Y-120289484D01*
X167291866Y-120289486D01*
X167531460Y-120367335D01*
X167780283Y-120406745D01*
X167780284Y-120406745D01*
X168032206Y-120406745D01*
X168032207Y-120406745D01*
X168281030Y-120367335D01*
X168520624Y-120289486D01*
X168745090Y-120175115D01*
X168948901Y-120027038D01*
X169127038Y-119848901D01*
X169275115Y-119645090D01*
X169389486Y-119420624D01*
X169467335Y-119181030D01*
X169506745Y-118932207D01*
X169506745Y-118680283D01*
X169494052Y-118600142D01*
X169503007Y-118530849D01*
X169548003Y-118477397D01*
X169614754Y-118456758D01*
X169616525Y-118456745D01*
X182396215Y-118456745D01*
X182404274Y-118455684D01*
X182404455Y-118457063D01*
X182427086Y-118454624D01*
X182684969Y-118467297D01*
X182697076Y-118468490D01*
X182757119Y-118477397D01*
X183029593Y-118517817D01*
X183041503Y-118520186D01*
X183367602Y-118601873D01*
X183379236Y-118605403D01*
X183695733Y-118718651D01*
X183706969Y-118723305D01*
X184010847Y-118867032D01*
X184021566Y-118872761D01*
X184203441Y-118981775D01*
X184309899Y-119045585D01*
X184320017Y-119052346D01*
X184458543Y-119155086D01*
X184581804Y-119246505D01*
X184590012Y-119252592D01*
X184599416Y-119260310D01*
X184792428Y-119435249D01*
X184851230Y-119488544D01*
X184855637Y-119492740D01*
X187157415Y-121794518D01*
X187157775Y-121794834D01*
X187205907Y-121842966D01*
X187247297Y-121884357D01*
X187544995Y-122134159D01*
X187863331Y-122357065D01*
X187863335Y-122357067D01*
X187863336Y-122357068D01*
X188199893Y-122551383D01*
X188552104Y-122715626D01*
X188587955Y-122728675D01*
X188917273Y-122848541D01*
X188917280Y-122848543D01*
X188917291Y-122848547D01*
X189292672Y-122949135D01*
X189675391Y-123016623D01*
X190021475Y-123046905D01*
X190062536Y-123050498D01*
X190062537Y-123050498D01*
X190187548Y-123050498D01*
X190187556Y-123050500D01*
X190197545Y-123050500D01*
X190256849Y-123050500D01*
X190316158Y-123050500D01*
X194012860Y-123050500D01*
X194079717Y-123070067D01*
X195153670Y-123757625D01*
X195194197Y-123800054D01*
X195266425Y-123925156D01*
X195266430Y-123925162D01*
X195266431Y-123925164D01*
X195442024Y-124154002D01*
X195442030Y-124154009D01*
X195645990Y-124357969D01*
X195645997Y-124357975D01*
X195693844Y-124394689D01*
X195874844Y-124533575D01*
X195874851Y-124533579D01*
X196124647Y-124677800D01*
X196124663Y-124677808D01*
X196391139Y-124788185D01*
X196391145Y-124788186D01*
X196391155Y-124788191D01*
X196669783Y-124862849D01*
X196955772Y-124900500D01*
X196955779Y-124900500D01*
X197244221Y-124900500D01*
X197244228Y-124900500D01*
X197530217Y-124862849D01*
X197808845Y-124788191D01*
X197808857Y-124788185D01*
X197808860Y-124788185D01*
X198075336Y-124677808D01*
X198075339Y-124677806D01*
X198075345Y-124677804D01*
X198325156Y-124533575D01*
X198554004Y-124357974D01*
X198757974Y-124154004D01*
X198933575Y-123925156D01*
X199077804Y-123675345D01*
X199083664Y-123661199D01*
X199188185Y-123408860D01*
X199188185Y-123408857D01*
X199188191Y-123408845D01*
X199262849Y-123130217D01*
X199300500Y-122844228D01*
X199300500Y-122555772D01*
X199262849Y-122269783D01*
X199188191Y-121991155D01*
X199188186Y-121991145D01*
X199188185Y-121991139D01*
X199077808Y-121724663D01*
X199077800Y-121724647D01*
X198933579Y-121474851D01*
X198933575Y-121474844D01*
X198828664Y-121338121D01*
X198757975Y-121245997D01*
X198757969Y-121245990D01*
X198554009Y-121042030D01*
X198554002Y-121042024D01*
X198325164Y-120866431D01*
X198325162Y-120866429D01*
X198325156Y-120866425D01*
X198325151Y-120866422D01*
X198325148Y-120866420D01*
X198075352Y-120722199D01*
X198075336Y-120722191D01*
X197808860Y-120611814D01*
X197808848Y-120611810D01*
X197808845Y-120611809D01*
X197530217Y-120537151D01*
X197530211Y-120537150D01*
X197530206Y-120537149D01*
X197244238Y-120499501D01*
X197244233Y-120499500D01*
X197244228Y-120499500D01*
X196955772Y-120499500D01*
X196955766Y-120499500D01*
X196955761Y-120499501D01*
X196669793Y-120537149D01*
X196669786Y-120537150D01*
X196669783Y-120537151D01*
X196509249Y-120580166D01*
X196391155Y-120611809D01*
X196391139Y-120611814D01*
X196124663Y-120722191D01*
X196124647Y-120722199D01*
X195874851Y-120866420D01*
X195874835Y-120866431D01*
X195645997Y-121042024D01*
X195645990Y-121042030D01*
X195442030Y-121245990D01*
X195442024Y-121245997D01*
X195266423Y-121474845D01*
X195264506Y-121477715D01*
X195220522Y-121517820D01*
X194083407Y-122134502D01*
X194024293Y-122149500D01*
X190259913Y-122149500D01*
X190253827Y-122149351D01*
X189915031Y-122132702D01*
X189902921Y-122131509D01*
X189570417Y-122082184D01*
X189558482Y-122079810D01*
X189232402Y-121998127D01*
X189220758Y-121994594D01*
X188904269Y-121881349D01*
X188893026Y-121876692D01*
X188589158Y-121732970D01*
X188578426Y-121727234D01*
X188290100Y-121554414D01*
X188279982Y-121547653D01*
X188009987Y-121347407D01*
X188000581Y-121339687D01*
X187999950Y-121339115D01*
X187748762Y-121111449D01*
X187744362Y-121107259D01*
X185442650Y-118805546D01*
X185442276Y-118805217D01*
X185352708Y-118715648D01*
X185332074Y-118698334D01*
X185058162Y-118468490D01*
X185055004Y-118465840D01*
X184736668Y-118242934D01*
X184400105Y-118048616D01*
X184047892Y-117884372D01*
X184047886Y-117884370D01*
X183682726Y-117751458D01*
X183682695Y-117751449D01*
X183307346Y-117650869D01*
X183307331Y-117650865D01*
X182924611Y-117583377D01*
X182537463Y-117549501D01*
X182537464Y-117549501D01*
X182343151Y-117549500D01*
X182283842Y-117549500D01*
X182283841Y-117549500D01*
X182283837Y-117549501D01*
X182283834Y-117549502D01*
X182276302Y-117551520D01*
X182244208Y-117555745D01*
X168948303Y-117555745D01*
X168881264Y-117536060D01*
X168875418Y-117532063D01*
X168745093Y-117437377D01*
X168745092Y-117437376D01*
X168745090Y-117437375D01*
X168648088Y-117387950D01*
X168520628Y-117323005D01*
X168281030Y-117245155D01*
X168259816Y-117241795D01*
X168032207Y-117205745D01*
X167780283Y-117205745D01*
X167655871Y-117225450D01*
X167531459Y-117245155D01*
X167291861Y-117323005D01*
X167067396Y-117437377D01*
X166937072Y-117532063D01*
X166871266Y-117555543D01*
X166864187Y-117555745D01*
X164244210Y-117555745D01*
X164177171Y-117536060D01*
X164156529Y-117519426D01*
X160350981Y-113713878D01*
X160317496Y-113652555D01*
X160322480Y-113582863D01*
X160364352Y-113526930D01*
X160429816Y-113502513D01*
X160454847Y-113503258D01*
X160472040Y-113505521D01*
X160472040Y-111937726D01*
X160476434Y-111942120D01*
X160567646Y-111994781D01*
X160669379Y-112022040D01*
X160774701Y-112022040D01*
X160876434Y-111994781D01*
X160967646Y-111942120D01*
X160972040Y-111937726D01*
X160972040Y-113505520D01*
X161093503Y-113489531D01*
X161334089Y-113425066D01*
X161564188Y-113329756D01*
X161564199Y-113329751D01*
X161779881Y-113205226D01*
X161779897Y-113205215D01*
X161977483Y-113053602D01*
X161977490Y-113053596D01*
X162153596Y-112877490D01*
X162153602Y-112877483D01*
X162305215Y-112679897D01*
X162305226Y-112679881D01*
X162429751Y-112464199D01*
X162429756Y-112464188D01*
X162525066Y-112234089D01*
X162589531Y-111993503D01*
X162605522Y-111872040D01*
X161037726Y-111872040D01*
X161042120Y-111867646D01*
X161094781Y-111776434D01*
X161122040Y-111674701D01*
X161122040Y-111569379D01*
X161094781Y-111467646D01*
X161042120Y-111376434D01*
X161037726Y-111372040D01*
X162605521Y-111372040D01*
X162589531Y-111250576D01*
X162525066Y-111009990D01*
X162429756Y-110779891D01*
X162429751Y-110779880D01*
X162305226Y-110564198D01*
X162305215Y-110564182D01*
X162153602Y-110366596D01*
X162153596Y-110366589D01*
X161977490Y-110190483D01*
X161977483Y-110190477D01*
X161779897Y-110038864D01*
X161779881Y-110038853D01*
X161564199Y-109914328D01*
X161564188Y-109914323D01*
X161334089Y-109819013D01*
X161093503Y-109754548D01*
X160972040Y-109738556D01*
X160972040Y-111306354D01*
X160967646Y-111301960D01*
X160876434Y-111249299D01*
X160774701Y-111222040D01*
X160669379Y-111222040D01*
X160567646Y-111249299D01*
X160476434Y-111301960D01*
X160472040Y-111306354D01*
X160472040Y-109738556D01*
X160472039Y-109738556D01*
X160350576Y-109754548D01*
X160109990Y-109819013D01*
X159879891Y-109914323D01*
X159879880Y-109914328D01*
X159664198Y-110038853D01*
X159664182Y-110038864D01*
X159466596Y-110190477D01*
X159466589Y-110190483D01*
X159290483Y-110366589D01*
X159290477Y-110366596D01*
X159138864Y-110564182D01*
X159138853Y-110564198D01*
X159014328Y-110779880D01*
X159014323Y-110779891D01*
X158919013Y-111009990D01*
X158854548Y-111250576D01*
X158838558Y-111372040D01*
X160406354Y-111372040D01*
X160401960Y-111376434D01*
X160349299Y-111467646D01*
X160322040Y-111569379D01*
X160322040Y-111674701D01*
X160349299Y-111776434D01*
X160401960Y-111867646D01*
X160406354Y-111872040D01*
X158838558Y-111872040D01*
X158849007Y-111951414D01*
X158849005Y-111951422D01*
X158849009Y-111951430D01*
X158843718Y-111985322D01*
X158838241Y-112020449D01*
X158838235Y-112020455D01*
X158838234Y-112020464D01*
X158815489Y-112046083D01*
X158791861Y-112072704D01*
X158791852Y-112072706D01*
X158791847Y-112072713D01*
X158756177Y-112082721D01*
X158724591Y-112091589D01*
X158724580Y-112091587D01*
X158724575Y-112091589D01*
X158724524Y-112091578D01*
X158689703Y-112086146D01*
X158677927Y-112082533D01*
X158673887Y-112080201D01*
X158647866Y-112073229D01*
X158645727Y-112072656D01*
X158645708Y-112072650D01*
X158575506Y-112053840D01*
X158559309Y-112049500D01*
X156840691Y-112049500D01*
X156752133Y-112073229D01*
X156752132Y-112073229D01*
X156726114Y-112080199D01*
X156623386Y-112139511D01*
X156623383Y-112139513D01*
X155972709Y-112790187D01*
X155911386Y-112823672D01*
X155841694Y-112818688D01*
X155785761Y-112776816D01*
X155761344Y-112711352D01*
X155774543Y-112646211D01*
X155775112Y-112645093D01*
X155775115Y-112645090D01*
X155889486Y-112420624D01*
X155967335Y-112181030D01*
X156006745Y-111932207D01*
X156006745Y-111859911D01*
X156012318Y-111823155D01*
X156017708Y-111805790D01*
X156129030Y-111447107D01*
X156151471Y-111374802D01*
X156171621Y-111309878D01*
X156446924Y-110422844D01*
X156454212Y-110410772D01*
X156456518Y-110400176D01*
X156477666Y-110371925D01*
X156504512Y-110345079D01*
X156537730Y-110321363D01*
X157910890Y-109650122D01*
X157945948Y-109639052D01*
X157992147Y-109631734D01*
X158010319Y-109628857D01*
X158249913Y-109551008D01*
X158474379Y-109436637D01*
X158678190Y-109288560D01*
X158856327Y-109110423D01*
X159004404Y-108906612D01*
X159118775Y-108682146D01*
X159196624Y-108442552D01*
X159236034Y-108193729D01*
X159236034Y-107941805D01*
X159196624Y-107692982D01*
X159118775Y-107453388D01*
X159118773Y-107453385D01*
X159118773Y-107453383D01*
X159077281Y-107371951D01*
X159004404Y-107228922D01*
X158932332Y-107129723D01*
X158856332Y-107025117D01*
X158856328Y-107025112D01*
X158747841Y-106916625D01*
X158733231Y-106897585D01*
X158733206Y-106897605D01*
X158728254Y-106891152D01*
X158644382Y-106807280D01*
X158644380Y-106807278D01*
X158644377Y-106807276D01*
X158644373Y-106807273D01*
X158548572Y-106751961D01*
X158537697Y-106744900D01*
X158474379Y-106698897D01*
X158451617Y-106687299D01*
X158249917Y-106584527D01*
X158010319Y-106506677D01*
X157761496Y-106467267D01*
X157509572Y-106467267D01*
X157401545Y-106484377D01*
X157260748Y-106506677D01*
X157021150Y-106584527D01*
X156796685Y-106698899D01*
X156592884Y-106846968D01*
X156592879Y-106846972D01*
X156414739Y-107025112D01*
X156414735Y-107025117D01*
X156266666Y-107228918D01*
X156152294Y-107453383D01*
X156074444Y-107692981D01*
X156035034Y-107941805D01*
X156035034Y-108193730D01*
X156042325Y-108239771D01*
X156042885Y-108274617D01*
X155868277Y-109664960D01*
X155840392Y-109729024D01*
X155782298Y-109767843D01*
X155781999Y-109767936D01*
X154389330Y-110200172D01*
X154352574Y-110205745D01*
X154280283Y-110205745D01*
X154155871Y-110225450D01*
X154031459Y-110245155D01*
X153791861Y-110323005D01*
X153567396Y-110437377D01*
X153363595Y-110585446D01*
X153363590Y-110585450D01*
X153185450Y-110763590D01*
X153185446Y-110763595D01*
X153037377Y-110967396D01*
X152923005Y-111191861D01*
X152845155Y-111431459D01*
X152805745Y-111680283D01*
X152805745Y-111932212D01*
X152806365Y-111936127D01*
X152806194Y-111975977D01*
X152637374Y-112985523D01*
X152606902Y-113048397D01*
X152547274Y-113084817D01*
X152535524Y-113087373D01*
X151525977Y-113256194D01*
X151486127Y-113256365D01*
X151482212Y-113255745D01*
X151482207Y-113255745D01*
X151230283Y-113255745D01*
X151173485Y-113264741D01*
X150981459Y-113295155D01*
X150741861Y-113373005D01*
X150517396Y-113487377D01*
X150313595Y-113635446D01*
X150313590Y-113635450D01*
X150135450Y-113813590D01*
X150135446Y-113813595D01*
X149987377Y-114017396D01*
X149873005Y-114241861D01*
X149795155Y-114481459D01*
X149773375Y-114618970D01*
X149755745Y-114730283D01*
X149755745Y-114982207D01*
X149777525Y-115119717D01*
X149795155Y-115231030D01*
X149873005Y-115470628D01*
X149987377Y-115695093D01*
X150135446Y-115898894D01*
X150135450Y-115898899D01*
X150313590Y-116077039D01*
X150313595Y-116077043D01*
X150369222Y-116117458D01*
X150517400Y-116225115D01*
X150649225Y-116292283D01*
X150741861Y-116339484D01*
X150741863Y-116339484D01*
X150741866Y-116339486D01*
X150981460Y-116417335D01*
X151230283Y-116456745D01*
X151230284Y-116456745D01*
X151482206Y-116456745D01*
X151482207Y-116456745D01*
X151731030Y-116417335D01*
X151970624Y-116339486D01*
X152195090Y-116225115D01*
X152195093Y-116225112D01*
X152196211Y-116224543D01*
X152264880Y-116211647D01*
X152329621Y-116237923D01*
X152369878Y-116295029D01*
X152372870Y-116364835D01*
X152340187Y-116422709D01*
X151439513Y-117323383D01*
X151439511Y-117323386D01*
X151380200Y-117426113D01*
X151380199Y-117426116D01*
X151373712Y-117450324D01*
X151373713Y-117450325D01*
X151349500Y-117540691D01*
X151349500Y-120405578D01*
X151372421Y-120491123D01*
X151380199Y-120520151D01*
X151380200Y-120520154D01*
X151394573Y-120545048D01*
X151439511Y-120622882D01*
X151439513Y-120622884D01*
X151865096Y-121048467D01*
X151898581Y-121109790D01*
X151893597Y-121179482D01*
X151851725Y-121235415D01*
X151786261Y-121259832D01*
X151758017Y-121258621D01*
X151571019Y-121229003D01*
X151366383Y-121229003D01*
X151164287Y-121261012D01*
X150969672Y-121324247D01*
X150787350Y-121417144D01*
X150787348Y-121417145D01*
X150621809Y-121537418D01*
X150443396Y-121715830D01*
X151139412Y-122411846D01*
X151133197Y-122411846D01*
X151031464Y-122439105D01*
X150940252Y-122491766D01*
X150865778Y-122566240D01*
X150813117Y-122657452D01*
X150785858Y-122759185D01*
X150785858Y-122765398D01*
X150089842Y-122069384D01*
X149911430Y-122247797D01*
X149791157Y-122413336D01*
X149791156Y-122413338D01*
X149698259Y-122595660D01*
X149635024Y-122790275D01*
X149603015Y-122992370D01*
X149603015Y-123197007D01*
X149635024Y-123399102D01*
X149698259Y-123593717D01*
X149791156Y-123776039D01*
X149791162Y-123776048D01*
X149823538Y-123820610D01*
X149823539Y-123820611D01*
X150785858Y-122858291D01*
X150785858Y-122864507D01*
X150813117Y-122966240D01*
X150865778Y-123057452D01*
X150940252Y-123131926D01*
X151031464Y-123184587D01*
X151133197Y-123211846D01*
X151139410Y-123211846D01*
X150177091Y-124174163D01*
X150221661Y-124206546D01*
X150221664Y-124206547D01*
X150403986Y-124299444D01*
X150598601Y-124362679D01*
X150800697Y-124394689D01*
X151005333Y-124394689D01*
X151207428Y-124362679D01*
X151402043Y-124299444D01*
X151584365Y-124206547D01*
X151584376Y-124206540D01*
X151738920Y-124094256D01*
X151804726Y-124070775D01*
X151872780Y-124086600D01*
X151921475Y-124136705D01*
X151935351Y-124205183D01*
X151914908Y-124263464D01*
X151812438Y-124416820D01*
X151812433Y-124416830D01*
X151737015Y-124598904D01*
X151737013Y-124598912D01*
X151698566Y-124792196D01*
X151698566Y-124989285D01*
X151737013Y-125182569D01*
X151737015Y-125182577D01*
X151812433Y-125364651D01*
X151812438Y-125364661D01*
X151921926Y-125528521D01*
X151921929Y-125528525D01*
X152061281Y-125667877D01*
X152061285Y-125667880D01*
X152225145Y-125777368D01*
X152225149Y-125777370D01*
X152225152Y-125777372D01*
X152407230Y-125852792D01*
X152584107Y-125887975D01*
X152600521Y-125891240D01*
X152600524Y-125891241D01*
X152600526Y-125891241D01*
X152797608Y-125891241D01*
X152797609Y-125891240D01*
X152990902Y-125852792D01*
X153172980Y-125777372D01*
X153336847Y-125667880D01*
X154041891Y-124962836D01*
X154151383Y-124798969D01*
X154226803Y-124616891D01*
X154265252Y-124423595D01*
X154265252Y-124226515D01*
X154265252Y-124226512D01*
X154265251Y-124226510D01*
X154254849Y-124174216D01*
X154226803Y-124033219D01*
X154151383Y-123851141D01*
X154151381Y-123851138D01*
X154151379Y-123851134D01*
X154041892Y-123687275D01*
X154015816Y-123661199D01*
X153936477Y-123581860D01*
X153917146Y-123556822D01*
X153915797Y-123554518D01*
X153554250Y-122936834D01*
X153449393Y-122757691D01*
X153432409Y-122695052D01*
X153432409Y-121468870D01*
X153432409Y-121468868D01*
X153402168Y-121356008D01*
X153402168Y-121356007D01*
X153402164Y-121355991D01*
X153401709Y-121354293D01*
X153401707Y-121354288D01*
X153342401Y-121251566D01*
X153342397Y-121251561D01*
X152286819Y-120195983D01*
X152253334Y-120134660D01*
X152250500Y-120108302D01*
X152250500Y-117837964D01*
X152270185Y-117770925D01*
X152286814Y-117750288D01*
X152408163Y-117628939D01*
X152469484Y-117595456D01*
X152539176Y-117600440D01*
X152595109Y-117642312D01*
X152619526Y-117707776D01*
X152618781Y-117732806D01*
X152616517Y-117749999D01*
X152616518Y-117750000D01*
X154184314Y-117750000D01*
X154179920Y-117754394D01*
X154127259Y-117845606D01*
X154100000Y-117947339D01*
X154100000Y-118052661D01*
X154127259Y-118154394D01*
X154179920Y-118245606D01*
X154184314Y-118250000D01*
X152616518Y-118250000D01*
X152632508Y-118371463D01*
X152696973Y-118612049D01*
X152792283Y-118842148D01*
X152792288Y-118842159D01*
X152916813Y-119057841D01*
X152916824Y-119057857D01*
X153068437Y-119255443D01*
X153068443Y-119255450D01*
X153244549Y-119431556D01*
X153244556Y-119431562D01*
X153442142Y-119583175D01*
X153442158Y-119583186D01*
X153657840Y-119707711D01*
X153657851Y-119707716D01*
X153887950Y-119803026D01*
X154128536Y-119867491D01*
X154250000Y-119883481D01*
X154250000Y-118315686D01*
X154254394Y-118320080D01*
X154345606Y-118372741D01*
X154447339Y-118400000D01*
X154552661Y-118400000D01*
X154654394Y-118372741D01*
X154745606Y-118320080D01*
X154750000Y-118315686D01*
X154750000Y-119883480D01*
X154871463Y-119867491D01*
X155112049Y-119803026D01*
X155342148Y-119707716D01*
X155342159Y-119707711D01*
X155557841Y-119583186D01*
X155557857Y-119583175D01*
X155755443Y-119431562D01*
X155755450Y-119431556D01*
X155931556Y-119255450D01*
X155931562Y-119255443D01*
X156083175Y-119057857D01*
X156083186Y-119057841D01*
X156207711Y-118842159D01*
X156207716Y-118842148D01*
X156303026Y-118612049D01*
X156367491Y-118371463D01*
X156383482Y-118250000D01*
X154815686Y-118250000D01*
X154820080Y-118245606D01*
X154872741Y-118154394D01*
X154900000Y-118052661D01*
X154900000Y-117947339D01*
X154872741Y-117845606D01*
X154820080Y-117754394D01*
X154815686Y-117750000D01*
X156383481Y-117750000D01*
X156367491Y-117628536D01*
X156303026Y-117387950D01*
X156207716Y-117157851D01*
X156207711Y-117157840D01*
X156083186Y-116942158D01*
X156083175Y-116942142D01*
X155931562Y-116744556D01*
X155931556Y-116744549D01*
X155755450Y-116568443D01*
X155755443Y-116568437D01*
X155557857Y-116416824D01*
X155557841Y-116416813D01*
X155342159Y-116292288D01*
X155342148Y-116292283D01*
X155112049Y-116196973D01*
X154871463Y-116132508D01*
X154750000Y-116116516D01*
X154750000Y-117684314D01*
X154745606Y-117679920D01*
X154654394Y-117627259D01*
X154552661Y-117600000D01*
X154447339Y-117600000D01*
X154345606Y-117627259D01*
X154254394Y-117679920D01*
X154250000Y-117684314D01*
X154250000Y-116143526D01*
X154169603Y-116110581D01*
X154167029Y-116108522D01*
X154163772Y-116108015D01*
X154139925Y-116086850D01*
X154115034Y-116066946D01*
X154113981Y-116063823D01*
X154111516Y-116061635D01*
X154102897Y-116030936D01*
X154092719Y-116000735D01*
X154093521Y-115997539D01*
X154092631Y-115994366D01*
X154101974Y-115963890D01*
X154109742Y-115932971D01*
X154112145Y-115930715D01*
X154113112Y-115927565D01*
X154128932Y-115908170D01*
X156027294Y-114009808D01*
X156088613Y-113976326D01*
X156158305Y-113981310D01*
X156214238Y-114023182D01*
X156238655Y-114088646D01*
X156225456Y-114153786D01*
X156110516Y-114379368D01*
X156032665Y-114618969D01*
X156015035Y-114730283D01*
X155993255Y-114867793D01*
X155993255Y-115119717D01*
X156032665Y-115368540D01*
X156110515Y-115608138D01*
X156224887Y-115832603D01*
X156372956Y-116036404D01*
X156372960Y-116036409D01*
X156424079Y-116087528D01*
X156446129Y-116117458D01*
X156643295Y-116492089D01*
X157121434Y-117400592D01*
X157128986Y-117414940D01*
X157143255Y-117472691D01*
X157143255Y-122155790D01*
X157123570Y-122222829D01*
X157106936Y-122243471D01*
X154417474Y-124932932D01*
X154417470Y-124932938D01*
X154358161Y-125035662D01*
X154354354Y-125049869D01*
X154354351Y-125049884D01*
X154352637Y-125056284D01*
X154327461Y-125150240D01*
X154327461Y-125222139D01*
X154325977Y-125231646D01*
X154315017Y-125254897D01*
X154307776Y-125279558D01*
X154304967Y-125283740D01*
X153899400Y-125861760D01*
X153894389Y-125869251D01*
X153879013Y-125887975D01*
X153717976Y-126049013D01*
X153608490Y-126212870D01*
X153608485Y-126212880D01*
X153533067Y-126394954D01*
X153533065Y-126394962D01*
X153494618Y-126588246D01*
X153494618Y-126785335D01*
X153533065Y-126978619D01*
X153533067Y-126978627D01*
X153608485Y-127160701D01*
X153608490Y-127160711D01*
X153717978Y-127324571D01*
X153717981Y-127324575D01*
X153857333Y-127463927D01*
X153857337Y-127463930D01*
X153944840Y-127522398D01*
X153989645Y-127576010D01*
X153998352Y-127645335D01*
X153968198Y-127708363D01*
X153908755Y-127745082D01*
X153875949Y-127749500D01*
X152437965Y-127749500D01*
X152370926Y-127729815D01*
X152350284Y-127713181D01*
X149286819Y-124649716D01*
X149253334Y-124588393D01*
X149250500Y-124562035D01*
X149250500Y-109866896D01*
X149270185Y-109799857D01*
X149286814Y-109779220D01*
X152556998Y-106509035D01*
X152615551Y-106476188D01*
X154022868Y-106136199D01*
X154051980Y-106132733D01*
X154225961Y-106132733D01*
X154225962Y-106132733D01*
X154474785Y-106093323D01*
X154714379Y-106015474D01*
X154938845Y-105901103D01*
X155142656Y-105753026D01*
X155320793Y-105574889D01*
X155468870Y-105371078D01*
X155583241Y-105146612D01*
X155661090Y-104907018D01*
X155700500Y-104658195D01*
X155700500Y-104406271D01*
X155661090Y-104157448D01*
X155583241Y-103917854D01*
X155583239Y-103917851D01*
X155583239Y-103917849D01*
X155499762Y-103754018D01*
X155468870Y-103693388D01*
X155414088Y-103617987D01*
X155320798Y-103489583D01*
X155320794Y-103489578D01*
X155212307Y-103381091D01*
X155197697Y-103362051D01*
X155197672Y-103362071D01*
X155192720Y-103355618D01*
X155108848Y-103271746D01*
X155108846Y-103271744D01*
X155108843Y-103271742D01*
X155108839Y-103271739D01*
X155013038Y-103216427D01*
X155002163Y-103209366D01*
X154938845Y-103163363D01*
X154930894Y-103159312D01*
X154714383Y-103048993D01*
X154474785Y-102971143D01*
X154341370Y-102950012D01*
X154225962Y-102931733D01*
X153974038Y-102931733D01*
X153863485Y-102949243D01*
X153725214Y-102971143D01*
X153485616Y-103048993D01*
X153261151Y-103163365D01*
X153057350Y-103311434D01*
X153057345Y-103311438D01*
X152879205Y-103489578D01*
X152879201Y-103489583D01*
X152731132Y-103693384D01*
X152616760Y-103917849D01*
X152538909Y-104157447D01*
X152501428Y-104394096D01*
X152494795Y-104418936D01*
X151961729Y-105814814D01*
X151933570Y-105858257D01*
X148439513Y-109352315D01*
X148439511Y-109352318D01*
X148380199Y-109455047D01*
X148373947Y-109478384D01*
X148373947Y-109478385D01*
X148357563Y-109539531D01*
X148349500Y-109569623D01*
X148349500Y-124859309D01*
X148367454Y-124926312D01*
X148369303Y-124933214D01*
X148380201Y-124973888D01*
X148389091Y-124989285D01*
X148439511Y-125076614D01*
X151923386Y-128560489D01*
X152026113Y-128619799D01*
X152036108Y-128622477D01*
X152036110Y-128622478D01*
X152036111Y-128622478D01*
X152055873Y-128627773D01*
X152140691Y-128650500D01*
X154551081Y-128650500D01*
X154609295Y-128665015D01*
X155552105Y-129166358D01*
X155581562Y-129188156D01*
X156163352Y-129769947D01*
X156163355Y-129769949D01*
X156163358Y-129769952D01*
X156189727Y-129787571D01*
X156212938Y-129803080D01*
X156291167Y-129818641D01*
X156291169Y-129818641D01*
X156291171Y-129818641D01*
X156369398Y-129803081D01*
X156369399Y-129803080D01*
X156369401Y-129803080D01*
X156418980Y-129769952D01*
X156986066Y-129202864D01*
X157033431Y-129173284D01*
X158534669Y-128657234D01*
X158574979Y-128650500D01*
X159314699Y-128650500D01*
X159381738Y-128670185D01*
X159427493Y-128722989D01*
X159437437Y-128792147D01*
X159434719Y-128805660D01*
X159395488Y-128956753D01*
X159394091Y-128962132D01*
X159394083Y-128962165D01*
X159336804Y-129256191D01*
X159336802Y-129256203D01*
X159295310Y-129553381D01*
X159267261Y-129853241D01*
X159250311Y-130155310D01*
X159240320Y-130764252D01*
X159250261Y-131987124D01*
X159250249Y-131990151D01*
X159245336Y-132291854D01*
X159245245Y-132294996D01*
X159232761Y-132594708D01*
X159232519Y-132598841D01*
X159210212Y-132895624D01*
X159209719Y-132900752D01*
X159175062Y-133196705D01*
X159174938Y-133197729D01*
X159128345Y-133568853D01*
X159094455Y-133948650D01*
X159049164Y-134725275D01*
X159007622Y-135510334D01*
X159007450Y-135513022D01*
X158978388Y-135901923D01*
X158978075Y-135905444D01*
X158938286Y-136290006D01*
X158937684Y-136294877D01*
X158883395Y-136672776D01*
X158882330Y-136679041D01*
X158809796Y-137048340D01*
X158808035Y-137056012D01*
X158713562Y-137414849D01*
X158710816Y-137423870D01*
X158590288Y-137771782D01*
X158587414Y-137779284D01*
X158517165Y-137946230D01*
X158514771Y-137951563D01*
X158436262Y-138116000D01*
X158433461Y-138121510D01*
X158346713Y-138282092D01*
X158343484Y-138287713D01*
X158248024Y-138444262D01*
X158244359Y-138449919D01*
X158139694Y-138602271D01*
X158135602Y-138607884D01*
X158021233Y-138755867D01*
X158016739Y-138761351D01*
X157892115Y-138904838D01*
X157887259Y-138910113D01*
X157749346Y-139051493D01*
X157712322Y-139111088D01*
X157707489Y-139118292D01*
X157670599Y-139169327D01*
X157665230Y-139176228D01*
X157639469Y-139207030D01*
X157626298Y-139222780D01*
X157620504Y-139229234D01*
X157579572Y-139271746D01*
X157573500Y-139277636D01*
X157530579Y-139316520D01*
X157524396Y-139321764D01*
X157479462Y-139357414D01*
X157473332Y-139361977D01*
X157426420Y-139394699D01*
X157420503Y-139398580D01*
X157371593Y-139428701D01*
X157366016Y-139431939D01*
X157315175Y-139459712D01*
X157310049Y-139462359D01*
X157258332Y-139487561D01*
X157251724Y-139490545D01*
X157139843Y-139537185D01*
X157133029Y-139539793D01*
X157016482Y-139580511D01*
X157012201Y-139581920D01*
X156890693Y-139619476D01*
X156889394Y-139619870D01*
X156639998Y-139693973D01*
X156516921Y-139734911D01*
X156396893Y-139781760D01*
X156396880Y-139781765D01*
X156281218Y-139837057D01*
X156281203Y-139837065D01*
X156225436Y-139868660D01*
X156225412Y-139868675D01*
X156171222Y-139903334D01*
X156171215Y-139903339D01*
X156118746Y-139941396D01*
X156118741Y-139941400D01*
X156068190Y-139983148D01*
X156019698Y-140028925D01*
X156019693Y-140028930D01*
X155973461Y-140079017D01*
X155801236Y-140429898D01*
X155639454Y-140786625D01*
X155338815Y-141513334D01*
X154771677Y-142986795D01*
X154770634Y-142989415D01*
X154471646Y-143716450D01*
X154470065Y-143720124D01*
X154310099Y-144076014D01*
X154308548Y-144079334D01*
X154138398Y-144429802D01*
X154136400Y-144433737D01*
X153954284Y-144777183D01*
X153951777Y-144781682D01*
X153755682Y-145117050D01*
X153752601Y-145122045D01*
X153540485Y-145448335D01*
X153536775Y-145453725D01*
X153376915Y-145673339D01*
X153370136Y-145678556D01*
X153366199Y-145686149D01*
X153342867Y-145699544D01*
X153321547Y-145715955D01*
X153313024Y-145716679D01*
X153305607Y-145720938D01*
X153278737Y-145719593D01*
X153251928Y-145721872D01*
X153242544Y-145717782D01*
X153235824Y-145717446D01*
X153204493Y-145701198D01*
X153155506Y-145666137D01*
X153149821Y-145661816D01*
X153101581Y-145622902D01*
X153006935Y-145546554D01*
X153002090Y-145542435D01*
X152862165Y-145417134D01*
X152858014Y-145413242D01*
X152721098Y-145278804D01*
X152717555Y-145275181D01*
X152583635Y-145132478D01*
X152580617Y-145129142D01*
X152449779Y-144979175D01*
X152447209Y-144976132D01*
X152319407Y-144819779D01*
X152317220Y-144817024D01*
X152289967Y-144781682D01*
X152192467Y-144655245D01*
X152190684Y-144652873D01*
X152068899Y-144486520D01*
X152067367Y-144484378D01*
X151949004Y-144315072D01*
X151947121Y-144312300D01*
X151718350Y-143965473D01*
X151716521Y-143962617D01*
X151499774Y-143613614D01*
X151498641Y-143611752D01*
X151292961Y-143267199D01*
X151292955Y-143267190D01*
X151235530Y-143186857D01*
X151232360Y-143182202D01*
X151179235Y-143100259D01*
X151176637Y-143096073D01*
X151125695Y-143010206D01*
X151123585Y-143006505D01*
X151075015Y-142917830D01*
X151072636Y-142913264D01*
X150979258Y-142724590D01*
X150977179Y-142720171D01*
X150889238Y-142523095D01*
X150887957Y-142520119D01*
X150717527Y-142109215D01*
X150631243Y-141903877D01*
X150631240Y-141903870D01*
X150541038Y-141702831D01*
X150444507Y-141509240D01*
X150393096Y-141416175D01*
X150393086Y-141416158D01*
X150339186Y-141326114D01*
X150282446Y-141239398D01*
X150282445Y-141239397D01*
X150282440Y-141239389D01*
X150222577Y-141156418D01*
X150222571Y-141156410D01*
X150159286Y-141077570D01*
X150159279Y-141077562D01*
X150092237Y-141003198D01*
X150048335Y-140960283D01*
X150021154Y-140933713D01*
X150021124Y-140933686D01*
X149945696Y-140869456D01*
X149945697Y-140869456D01*
X149942780Y-140867321D01*
X149865560Y-140810812D01*
X149780454Y-140758171D01*
X149690061Y-140711900D01*
X149594071Y-140672374D01*
X149594068Y-140672373D01*
X149492178Y-140639969D01*
X149384066Y-140615060D01*
X146270411Y-141567241D01*
X146268339Y-141567855D01*
X145489148Y-141791363D01*
X145486213Y-141792166D01*
X144701531Y-141996546D01*
X144697535Y-141997517D01*
X143904050Y-142176323D01*
X143900398Y-142177088D01*
X143500761Y-142254589D01*
X143497986Y-142255095D01*
X143221244Y-142302257D01*
X143209399Y-142300867D01*
X143197894Y-142303993D01*
X143175340Y-142296870D01*
X143151850Y-142294114D01*
X143142639Y-142286543D01*
X143131268Y-142282952D01*
X143116144Y-142264764D01*
X143097874Y-142249747D01*
X143093096Y-142237048D01*
X143086595Y-142229230D01*
X143077341Y-142195170D01*
X143051516Y-141985401D01*
X143051221Y-141982776D01*
X143043210Y-141903877D01*
X143016798Y-141643759D01*
X143016680Y-141642522D01*
X142955722Y-140960283D01*
X142922570Y-140619193D01*
X142883154Y-140278915D01*
X142834096Y-139939884D01*
X142806763Y-139781765D01*
X142804893Y-139770947D01*
X142789163Y-139690359D01*
X142772896Y-139607016D01*
X142771480Y-139598009D01*
X142756026Y-139468689D01*
X142730945Y-139344724D01*
X142724180Y-139321764D01*
X142697212Y-139230235D01*
X142697208Y-139230226D01*
X142697206Y-139230217D01*
X142655239Y-139124745D01*
X142605472Y-139027887D01*
X142548334Y-138939219D01*
X142484254Y-138858320D01*
X142484251Y-138858317D01*
X142484249Y-138858314D01*
X142413675Y-138784782D01*
X142413668Y-138784775D01*
X142413660Y-138784767D01*
X142336982Y-138718137D01*
X142336981Y-138718136D01*
X142336975Y-138718131D01*
X142254643Y-138658005D01*
X142173444Y-138607884D01*
X142167087Y-138603960D01*
X142167083Y-138603958D01*
X142167064Y-138603947D01*
X142096185Y-138566810D01*
X142074728Y-138555568D01*
X142074724Y-138555566D01*
X142074716Y-138555562D01*
X141978009Y-138512414D01*
X141877328Y-138474063D01*
X141877321Y-138474061D01*
X141665900Y-138410125D01*
X141665887Y-138410121D01*
X139890163Y-138126851D01*
X139870881Y-138122167D01*
X139801694Y-138099360D01*
X139801682Y-138099356D01*
X139801680Y-138099356D01*
X139714357Y-138075728D01*
X139619963Y-138053882D01*
X139520193Y-138033322D01*
X139101212Y-137954004D01*
X139098450Y-137953449D01*
X138999221Y-137932318D01*
X138996038Y-137931596D01*
X138902176Y-137909010D01*
X138897601Y-137907816D01*
X138811473Y-137883583D01*
X138805106Y-137881605D01*
X138728784Y-137855629D01*
X138720028Y-137852275D01*
X138654187Y-137824152D01*
X138645624Y-137820101D01*
X138620102Y-137806811D01*
X138613208Y-137802937D01*
X138612444Y-137802475D01*
X138565264Y-137750941D01*
X138553435Y-137682080D01*
X138580713Y-137617755D01*
X138584080Y-137613818D01*
X138643614Y-137547087D01*
X138781357Y-137371364D01*
X138909680Y-137178215D01*
X139026089Y-136970969D01*
X139128091Y-136752959D01*
X139172910Y-136640959D01*
X139213193Y-136527516D01*
X139248628Y-136413049D01*
X139278903Y-136297972D01*
X139283763Y-136275390D01*
X139303702Y-136182727D01*
X139303702Y-136182721D01*
X139303707Y-136182703D01*
X139322727Y-136067658D01*
X139335653Y-135953252D01*
X139342173Y-135839904D01*
X139341974Y-135728029D01*
X139334746Y-135618043D01*
X139334745Y-135618033D01*
X139334745Y-135618031D01*
X139320178Y-135510369D01*
X139320177Y-135510366D01*
X139320177Y-135510363D01*
X139297956Y-135405406D01*
X139267769Y-135303588D01*
X139267766Y-135303582D01*
X139267761Y-135303565D01*
X139243178Y-135240762D01*
X139229307Y-135205324D01*
X139182257Y-135111033D01*
X139182255Y-135111029D01*
X139182255Y-135111028D01*
X139126314Y-135021138D01*
X139126311Y-135021135D01*
X139126308Y-135021129D01*
X139061148Y-134936030D01*
X138986465Y-134856152D01*
X138960161Y-134833046D01*
X138901953Y-134781915D01*
X138901950Y-134781913D01*
X138901948Y-134781911D01*
X138807285Y-134713725D01*
X138807282Y-134713723D01*
X138807279Y-134713721D01*
X138702171Y-134652011D01*
X138693974Y-134648133D01*
X138586276Y-134597178D01*
X138192167Y-134667503D01*
X137801325Y-134753608D01*
X137413294Y-134853453D01*
X137027595Y-134965009D01*
X136261554Y-135215058D01*
X135499610Y-135487454D01*
X134739087Y-135765561D01*
X134737546Y-135766113D01*
X133975396Y-136033462D01*
X133972725Y-136034365D01*
X133591019Y-136158588D01*
X133588406Y-136159406D01*
X133204939Y-136274905D01*
X133201684Y-136275837D01*
X132816402Y-136380498D01*
X132812492Y-136381493D01*
X132519508Y-136450930D01*
X132486748Y-136449195D01*
X132453952Y-136448636D01*
X132452035Y-136447357D01*
X132449736Y-136447236D01*
X132423117Y-136428068D01*
X132395827Y-136409864D01*
X132394210Y-136407252D01*
X132393037Y-136406407D01*
X132377255Y-136379851D01*
X132367044Y-136356443D01*
X132363605Y-136347661D01*
X132320947Y-136225224D01*
X132318029Y-136215613D01*
X132283858Y-136083969D01*
X132282218Y-136076765D01*
X132280435Y-136067695D01*
X132254526Y-135935863D01*
X132253643Y-135930822D01*
X132239644Y-135839916D01*
X132230766Y-135782263D01*
X132230338Y-135779235D01*
X132223754Y-135728029D01*
X132210428Y-135624375D01*
X132210311Y-135623432D01*
X132209662Y-135618031D01*
X132171886Y-135303740D01*
X132149444Y-135143125D01*
X132122132Y-134984082D01*
X132087896Y-134828037D01*
X132044682Y-134676418D01*
X131990437Y-134530653D01*
X131980866Y-134509580D01*
X131958542Y-134460426D01*
X131958538Y-134460419D01*
X131958535Y-134460412D01*
X131923106Y-134392169D01*
X131883891Y-134326104D01*
X131840635Y-134262394D01*
X131793080Y-134201219D01*
X131740970Y-134142756D01*
X131740968Y-134142755D01*
X131496631Y-134025492D01*
X131496616Y-134025485D01*
X131245632Y-133926507D01*
X131245626Y-133926505D01*
X131245623Y-133926504D01*
X131245618Y-133926502D01*
X130988708Y-133843745D01*
X130793323Y-133792612D01*
X130726631Y-133775159D01*
X130460177Y-133718703D01*
X130309625Y-133692847D01*
X130190050Y-133672312D01*
X130112715Y-133661442D01*
X129917044Y-133633941D01*
X129641844Y-133601527D01*
X128535920Y-133490591D01*
X128533334Y-133490304D01*
X128261407Y-133457250D01*
X128258464Y-133456856D01*
X127989601Y-133417620D01*
X127985676Y-133416983D01*
X127720872Y-133369623D01*
X127715960Y-133368642D01*
X127613500Y-133346012D01*
X127552284Y-133312332D01*
X127518994Y-133250903D01*
X127524200Y-133181228D01*
X127531147Y-133165990D01*
X127580066Y-133075444D01*
X127674444Y-132900752D01*
X127701561Y-132850560D01*
X127703015Y-132847944D01*
X127962075Y-132395318D01*
X127963463Y-132392956D01*
X128233075Y-131946190D01*
X128234421Y-131944012D01*
X128513909Y-131502877D01*
X128515178Y-131500919D01*
X128803701Y-131065444D01*
X128804917Y-131063645D01*
X129101811Y-130633578D01*
X129102954Y-130631954D01*
X129407461Y-130207190D01*
X129408515Y-130205745D01*
X129720386Y-129785486D01*
X129745033Y-129731456D01*
X129748576Y-129724307D01*
X129773845Y-129677235D01*
X129777940Y-129670180D01*
X129795535Y-129642042D01*
X129805231Y-129626536D01*
X129809901Y-129619601D01*
X129839066Y-129579291D01*
X129844262Y-129572604D01*
X129875169Y-129535532D01*
X129880911Y-129529114D01*
X129913383Y-129495258D01*
X129919614Y-129489202D01*
X129953546Y-129458470D01*
X129960242Y-129452824D01*
X129995483Y-129425185D01*
X130002616Y-129419991D01*
X130039046Y-129395397D01*
X130046522Y-129390730D01*
X130084047Y-129369129D01*
X130091845Y-129365003D01*
X130130340Y-129346374D01*
X130138417Y-129342817D01*
X130177742Y-129327148D01*
X130186004Y-129324193D01*
X130226095Y-129311453D01*
X130234542Y-129309098D01*
X130275183Y-129299308D01*
X130283798Y-129297555D01*
X130324895Y-129290700D01*
X130333596Y-129289562D01*
X130375093Y-129285633D01*
X130383787Y-129285119D01*
X130425528Y-129284126D01*
X130434215Y-129284225D01*
X130476044Y-129286176D01*
X130484683Y-129286882D01*
X130526540Y-129291793D01*
X130535065Y-129293096D01*
X130576755Y-129300971D01*
X130585170Y-129302867D01*
X130626593Y-129313726D01*
X130634812Y-129316188D01*
X130675871Y-129330063D01*
X130683850Y-129333070D01*
X130724381Y-129349972D01*
X130732113Y-129353514D01*
X130771998Y-129373475D01*
X130779454Y-129377533D01*
X130818513Y-129400557D01*
X130825645Y-129405095D01*
X130863817Y-129431256D01*
X130870575Y-129436232D01*
X130907690Y-129465547D01*
X130914045Y-129470923D01*
X130949979Y-129503449D01*
X130955897Y-129509174D01*
X130990516Y-129544967D01*
X130995975Y-129550994D01*
X131029137Y-129590116D01*
X131034118Y-129596393D01*
X131065655Y-129638883D01*
X131070147Y-129645356D01*
X131102000Y-129694513D01*
X131102003Y-129694518D01*
X131163484Y-129764134D01*
X131163498Y-129764148D01*
X131163499Y-129764150D01*
X131226781Y-129826783D01*
X131291754Y-129882686D01*
X131301645Y-129890032D01*
X131358315Y-129932123D01*
X131358324Y-129932129D01*
X131426395Y-129975384D01*
X131495876Y-130012721D01*
X131566671Y-130044412D01*
X131638687Y-130070729D01*
X131711830Y-130091943D01*
X131786006Y-130108325D01*
X131861121Y-130120146D01*
X131861138Y-130120147D01*
X131861140Y-130120148D01*
X131870759Y-130121101D01*
X131937082Y-130127677D01*
X131937098Y-130127677D01*
X131937101Y-130127678D01*
X131942865Y-130127941D01*
X132013794Y-130131191D01*
X132091163Y-130130958D01*
X132247499Y-130120337D01*
X132405338Y-130097984D01*
X132513324Y-130076253D01*
X132563915Y-130066074D01*
X132563918Y-130066073D01*
X132563929Y-130066071D01*
X132722521Y-130026767D01*
X132880363Y-129982244D01*
X133450516Y-129807234D01*
X133520379Y-129806381D01*
X133527430Y-129808587D01*
X133570075Y-129823345D01*
X133653190Y-129846420D01*
X133713804Y-129859415D01*
X133738156Y-129864637D01*
X133738158Y-129864637D01*
X133738166Y-129864639D01*
X133804962Y-129875005D01*
X133824608Y-129878054D01*
X133824609Y-129878054D01*
X133824615Y-129878055D01*
X133912150Y-129886723D01*
X134000385Y-129890698D01*
X134000386Y-129890697D01*
X134000387Y-129890698D01*
X134010223Y-129890624D01*
X134088933Y-129890033D01*
X134177406Y-129884783D01*
X134265418Y-129875002D01*
X134352582Y-129860745D01*
X134438510Y-129842065D01*
X134522817Y-129819018D01*
X134605114Y-129791657D01*
X134685016Y-129760037D01*
X134762134Y-129724212D01*
X134836083Y-129684237D01*
X134906474Y-129640165D01*
X134972922Y-129592051D01*
X135035039Y-129539950D01*
X135092439Y-129483915D01*
X135144733Y-129424001D01*
X135191536Y-129360263D01*
X135232461Y-129292754D01*
X135267120Y-129221529D01*
X135295127Y-129146642D01*
X135316094Y-129068148D01*
X135329636Y-128986101D01*
X135335363Y-128900555D01*
X135332891Y-128811565D01*
X135321831Y-128719184D01*
X135301798Y-128623468D01*
X135272403Y-128524469D01*
X135086986Y-128191113D01*
X134890040Y-127865080D01*
X134682952Y-127545491D01*
X134612675Y-127443246D01*
X134467116Y-127231472D01*
X134409165Y-127151158D01*
X134243900Y-126922119D01*
X134052867Y-126667444D01*
X134014700Y-126616561D01*
X133619296Y-126109927D01*
X133543939Y-126013371D01*
X132592647Y-124815065D01*
X132590694Y-124812537D01*
X132580489Y-124798975D01*
X132133412Y-124204800D01*
X132131365Y-124201999D01*
X131912637Y-123893665D01*
X131910910Y-123891166D01*
X131699077Y-123576487D01*
X131537700Y-123341652D01*
X131451371Y-123220614D01*
X131372644Y-123110234D01*
X131285259Y-122992499D01*
X131203618Y-122882502D01*
X131030405Y-122658821D01*
X130852739Y-122439492D01*
X130852723Y-122439472D01*
X130670381Y-122224851D01*
X130602924Y-122149351D01*
X130483027Y-122015159D01*
X130483016Y-122015147D01*
X130483005Y-122015135D01*
X130290484Y-121810800D01*
X130092454Y-121612046D01*
X129888687Y-121419219D01*
X129678979Y-121232682D01*
X129462987Y-121052676D01*
X129240574Y-120879612D01*
X129083122Y-120765651D01*
X129011359Y-120713710D01*
X129011346Y-120713701D01*
X128775182Y-120555356D01*
X128775174Y-120555351D01*
X128775168Y-120555347D01*
X128536179Y-120407578D01*
X128527517Y-120401703D01*
X128481184Y-120367334D01*
X128108140Y-120090618D01*
X128106020Y-120089009D01*
X127690654Y-119766482D01*
X127688493Y-119764765D01*
X127465081Y-119583175D01*
X127280556Y-119433192D01*
X127278456Y-119431445D01*
X126878248Y-119090912D01*
X126876118Y-119089057D01*
X126633351Y-118872765D01*
X126483982Y-118739685D01*
X126481880Y-118737769D01*
X126466382Y-118723307D01*
X126098042Y-118379578D01*
X126095956Y-118377586D01*
X125836002Y-118123392D01*
X125720750Y-118010693D01*
X125718679Y-118008619D01*
X125352445Y-117633149D01*
X125350395Y-117630997D01*
X125141940Y-117406778D01*
X124993315Y-117246913D01*
X124991306Y-117244698D01*
X124643852Y-116852272D01*
X124641856Y-116849962D01*
X124304160Y-116449093D01*
X124302196Y-116446701D01*
X124006245Y-116077043D01*
X123974665Y-116037598D01*
X123972741Y-116035132D01*
X123969552Y-116030936D01*
X123655609Y-115617799D01*
X123653721Y-115615246D01*
X123347356Y-115189861D01*
X123345506Y-115187221D01*
X123304701Y-115127340D01*
X123050143Y-114753781D01*
X123048344Y-114751065D01*
X123047841Y-114750284D01*
X122763400Y-114308283D01*
X122763398Y-114308280D01*
X122763395Y-114308276D01*
X122612976Y-114117891D01*
X122609344Y-114113056D01*
X122541068Y-114017396D01*
X122467117Y-113913784D01*
X122464481Y-113909940D01*
X122463877Y-113909023D01*
X122326834Y-113700857D01*
X122325015Y-113698010D01*
X122296841Y-113652555D01*
X122194462Y-113487377D01*
X122190746Y-113481382D01*
X122189356Y-113479083D01*
X121657031Y-112577162D01*
X121518975Y-112355089D01*
X121518969Y-112355079D01*
X121376030Y-112138597D01*
X121226728Y-111929767D01*
X121181170Y-111872040D01*
X121069586Y-111730649D01*
X120908409Y-111549250D01*
X120903120Y-111543297D01*
X120897304Y-111537386D01*
X120815938Y-111454685D01*
X120733675Y-111377145D01*
X120725852Y-111369771D01*
X120677369Y-111327644D01*
X120632707Y-111288837D01*
X120536307Y-111212132D01*
X120436454Y-111139904D01*
X120436444Y-111139897D01*
X120332988Y-111072428D01*
X119192520Y-111027512D01*
X119187886Y-111027242D01*
X118050284Y-110939698D01*
X118045855Y-110939278D01*
X116910080Y-110810755D01*
X116905853Y-110810202D01*
X115773617Y-110642480D01*
X115769583Y-110641815D01*
X114642238Y-110436629D01*
X114638389Y-110435865D01*
X113517587Y-110195002D01*
X113513913Y-110194154D01*
X112401131Y-109919368D01*
X112397621Y-109918447D01*
X111707422Y-109726420D01*
X111292689Y-109611033D01*
X111292688Y-109611033D01*
X110983103Y-109627315D01*
X110676553Y-109664964D01*
X110676531Y-109664967D01*
X110372608Y-109721568D01*
X110070929Y-109794711D01*
X110070892Y-109794721D01*
X109771168Y-109881977D01*
X109472962Y-109980950D01*
X109175950Y-110089217D01*
X108879769Y-110204362D01*
X107697623Y-110684857D01*
X107695082Y-110685858D01*
X107400377Y-110798145D01*
X107397590Y-110799169D01*
X107102187Y-110903694D01*
X107098453Y-110904949D01*
X106802342Y-110999254D01*
X106797611Y-111000657D01*
X106499941Y-111082567D01*
X106495323Y-111083743D01*
X106399189Y-111106261D01*
X106281582Y-111140665D01*
X106008356Y-111230650D01*
X105718638Y-111326875D01*
X105715803Y-111327779D01*
X105579165Y-111369548D01*
X105575040Y-111370731D01*
X105450732Y-111404074D01*
X105443614Y-111405760D01*
X105336708Y-111427772D01*
X105327898Y-111429258D01*
X105294509Y-111433656D01*
X105289779Y-111434279D01*
X105272782Y-111431630D01*
X105255752Y-111434053D01*
X105238977Y-111426361D01*
X105220744Y-111423520D01*
X105207877Y-111412102D01*
X105192240Y-111404933D01*
X105182286Y-111389394D01*
X105168483Y-111377145D01*
X105163831Y-111360581D01*
X105154554Y-111346098D01*
X105154581Y-111327644D01*
X105149592Y-111309878D01*
X105154632Y-111293123D01*
X105154658Y-111276229D01*
X105169366Y-111244149D01*
X105185926Y-111218465D01*
X105191131Y-111211012D01*
X105231360Y-111157685D01*
X105235465Y-111152535D01*
X105289045Y-111088900D01*
X105292321Y-111085166D01*
X105360866Y-111010126D01*
X105406428Y-110922029D01*
X105408854Y-110917568D01*
X105457221Y-110832860D01*
X105460526Y-110827406D01*
X105571071Y-110655196D01*
X105574753Y-110649782D01*
X105580223Y-110642178D01*
X105698133Y-110478266D01*
X105700740Y-110474774D01*
X105834100Y-110302654D01*
X105835804Y-110300507D01*
X106118505Y-109952231D01*
X106259398Y-109776459D01*
X106394922Y-109599070D01*
X106521498Y-109419399D01*
X106635546Y-109236782D01*
X106686754Y-109144161D01*
X106733487Y-109050554D01*
X106775298Y-108955878D01*
X106811740Y-108860050D01*
X106842365Y-108762987D01*
X106843564Y-108758148D01*
X106853761Y-108716965D01*
X106866727Y-108664606D01*
X106884376Y-108564824D01*
X106894866Y-108463558D01*
X106896343Y-108410886D01*
X106897750Y-108360744D01*
X106897749Y-108360734D01*
X106897750Y-108360724D01*
X106892580Y-108256239D01*
X106878909Y-108150021D01*
X106856288Y-108041987D01*
X106777266Y-107956470D01*
X106694305Y-107879040D01*
X106607615Y-107809263D01*
X106517402Y-107746707D01*
X106517394Y-107746702D01*
X106517386Y-107746696D01*
X106423882Y-107690942D01*
X106423880Y-107690940D01*
X106327250Y-107641527D01*
X106327248Y-107641526D01*
X106327242Y-107641523D01*
X106277475Y-107619776D01*
X106227701Y-107598026D01*
X106125503Y-107560031D01*
X106125490Y-107560027D01*
X106125484Y-107560025D01*
X105913793Y-107498745D01*
X105884719Y-107492860D01*
X105693832Y-107454221D01*
X105693815Y-107454218D01*
X105467299Y-107422992D01*
X105467266Y-107422988D01*
X105467255Y-107422987D01*
X105437138Y-107420202D01*
X105235725Y-107401575D01*
X104296150Y-107345058D01*
X104290664Y-107344606D01*
X104065132Y-107320959D01*
X104058995Y-107320160D01*
X103839910Y-107286064D01*
X103831636Y-107284487D01*
X103619930Y-107236628D01*
X103612375Y-107234668D01*
X103573876Y-107223377D01*
X103515086Y-107185622D01*
X103486041Y-107122075D01*
X103495962Y-107052913D01*
X103513118Y-107025484D01*
X103562507Y-106965621D01*
X103566233Y-106961314D01*
X103657079Y-106861108D01*
X103660241Y-106857749D01*
X103759845Y-106755842D01*
X103762486Y-106753221D01*
X103817732Y-106700000D01*
X103869670Y-106649965D01*
X103871729Y-106648028D01*
X103985046Y-106543981D01*
X103987359Y-106541913D01*
X104229181Y-106331140D01*
X104231308Y-106329329D01*
X104738920Y-105907147D01*
X104985226Y-105699761D01*
X105213977Y-105497110D01*
X105277391Y-105424847D01*
X105280831Y-105421089D01*
X105346861Y-105351858D01*
X105351200Y-105347528D01*
X105392406Y-105308394D01*
X105499080Y-105207082D01*
X105503381Y-105203186D01*
X105665212Y-105063370D01*
X105667814Y-105061185D01*
X105840335Y-104920378D01*
X105841199Y-104919681D01*
X106199827Y-104632556D01*
X106286029Y-104560503D01*
X106376295Y-104485054D01*
X106545253Y-104333468D01*
X106702566Y-104176641D01*
X106775567Y-104095899D01*
X106844110Y-104013411D01*
X106907680Y-103929032D01*
X106965761Y-103842616D01*
X107017838Y-103754018D01*
X107063394Y-103663093D01*
X107101916Y-103569695D01*
X107132886Y-103473679D01*
X107155790Y-103374900D01*
X107170111Y-103273212D01*
X107175335Y-103168470D01*
X107170946Y-103060529D01*
X107156429Y-102949243D01*
X107131267Y-102834467D01*
X107081882Y-102783001D01*
X107056987Y-102757057D01*
X107056986Y-102757056D01*
X107056983Y-102757053D01*
X106979883Y-102683878D01*
X106900116Y-102614718D01*
X106817830Y-102549345D01*
X106646294Y-102429062D01*
X106538987Y-102364712D01*
X106466469Y-102321224D01*
X106293216Y-102231136D01*
X106279533Y-102224021D01*
X106279526Y-102224018D01*
X106279513Y-102224011D01*
X106086696Y-102135655D01*
X106086695Y-102135654D01*
X106086685Y-102135650D01*
X105889110Y-102054305D01*
X105837468Y-102034757D01*
X105687985Y-101978173D01*
X104873481Y-101690284D01*
X104870378Y-101689140D01*
X104672731Y-101613293D01*
X104669218Y-101611883D01*
X104475930Y-101530856D01*
X104471294Y-101528800D01*
X104360287Y-101476831D01*
X104307917Y-101430579D01*
X104288868Y-101363357D01*
X104309185Y-101296506D01*
X104362419Y-101251253D01*
X104373515Y-101246937D01*
X104744972Y-101122688D01*
X104746423Y-101122214D01*
X105404576Y-100912585D01*
X105407643Y-100911654D01*
X106072749Y-100719325D01*
X106075965Y-100718443D01*
X106409738Y-100631989D01*
X106412442Y-100631323D01*
X106747687Y-100552675D01*
X106750821Y-100551982D01*
X107087169Y-100482368D01*
X107090637Y-100481704D01*
X107427772Y-100422328D01*
X107431779Y-100421692D01*
X107769411Y-100373727D01*
X107773930Y-100373169D01*
X108112117Y-100337735D01*
X108116998Y-100337322D01*
X108455543Y-100315574D01*
X108460907Y-100315348D01*
X108799639Y-100308427D01*
X108805412Y-100308444D01*
X109144272Y-100317492D01*
X109150434Y-100317813D01*
X109470665Y-100342530D01*
X109512466Y-100353291D01*
X110059973Y-100602361D01*
X110061104Y-100602883D01*
X110627841Y-100868336D01*
X111758098Y-101400000D01*
X111765784Y-101403615D01*
X111910856Y-101469527D01*
X112339125Y-101664107D01*
X112917264Y-101913827D01*
X113377881Y-102098623D01*
X113501550Y-102148238D01*
X114089015Y-102361244D01*
X114097570Y-102364711D01*
X114241368Y-102429327D01*
X114403357Y-102497857D01*
X114403364Y-102497859D01*
X114403367Y-102497861D01*
X114576301Y-102565371D01*
X114606949Y-102576124D01*
X114757201Y-102628841D01*
X114943023Y-102685227D01*
X115130756Y-102731497D01*
X115224396Y-102749890D01*
X115317383Y-102764616D01*
X115317389Y-102764616D01*
X115317391Y-102764617D01*
X115338862Y-102767110D01*
X115409339Y-102775297D01*
X115409347Y-102775297D01*
X115409363Y-102775299D01*
X115499888Y-102781551D01*
X115588611Y-102783002D01*
X115588626Y-102783001D01*
X115588651Y-102783002D01*
X115675253Y-102779268D01*
X115759316Y-102769971D01*
X115840463Y-102754731D01*
X115918317Y-102733170D01*
X115992501Y-102704907D01*
X116062637Y-102669565D01*
X116128349Y-102626762D01*
X116189260Y-102576121D01*
X116244992Y-102517262D01*
X116295169Y-102449805D01*
X116339412Y-102373371D01*
X116377346Y-102287582D01*
X116398138Y-102224021D01*
X116408589Y-102192074D01*
X116408590Y-102192069D01*
X116408594Y-102192058D01*
X116432777Y-102086418D01*
X116444260Y-102006765D01*
X116449519Y-101970288D01*
X116449519Y-101970287D01*
X116420438Y-101850000D01*
X116158433Y-100766277D01*
X115892810Y-99756743D01*
X115894788Y-99686904D01*
X115934211Y-99629219D01*
X115998563Y-99602005D01*
X116067412Y-99613902D01*
X116100409Y-99637512D01*
X121532852Y-105069955D01*
X121548818Y-105092331D01*
X121656319Y-105193422D01*
X121886633Y-105423736D01*
X121886636Y-105423737D01*
X121886639Y-105423740D01*
X121911999Y-105438382D01*
X121934945Y-105455435D01*
X122632933Y-106111803D01*
X122662547Y-106154684D01*
X122695757Y-106234862D01*
X122695763Y-106234874D01*
X122824654Y-106458120D01*
X122824656Y-106458123D01*
X122824657Y-106458124D01*
X122981580Y-106662630D01*
X122981586Y-106662637D01*
X123163856Y-106844907D01*
X123163863Y-106844913D01*
X123253206Y-106913468D01*
X123368374Y-107001840D01*
X123591620Y-107130731D01*
X123710310Y-107179894D01*
X123829777Y-107229379D01*
X123829778Y-107229379D01*
X123829780Y-107229380D01*
X124078779Y-107296099D01*
X124334356Y-107329747D01*
X124334363Y-107329747D01*
X124592131Y-107329747D01*
X124592138Y-107329747D01*
X124847715Y-107296099D01*
X124958972Y-107266286D01*
X125010135Y-107263537D01*
X126292230Y-107463099D01*
X126355445Y-107492860D01*
X126360840Y-107497943D01*
X137602055Y-118739158D01*
X137635540Y-118800481D01*
X137636899Y-118807768D01*
X137836461Y-120089868D01*
X137833711Y-120141032D01*
X137803901Y-120252285D01*
X137770253Y-120507854D01*
X137770253Y-120765651D01*
X137789407Y-120911129D01*
X137803901Y-121021221D01*
X137827657Y-121109878D01*
X137870620Y-121270222D01*
X137963831Y-121495252D01*
X137969269Y-121508380D01*
X138098160Y-121731626D01*
X138098162Y-121731629D01*
X138098163Y-121731630D01*
X138255086Y-121936136D01*
X138255092Y-121936143D01*
X138437362Y-122118413D01*
X138437369Y-122118419D01*
X138477875Y-122149500D01*
X138641880Y-122275346D01*
X138865126Y-122404237D01*
X138962540Y-122444587D01*
X139103283Y-122502885D01*
X139103284Y-122502885D01*
X139103286Y-122502886D01*
X139352285Y-122569605D01*
X139607862Y-122603253D01*
X139607869Y-122603253D01*
X139865637Y-122603253D01*
X139865644Y-122603253D01*
X140121221Y-122569605D01*
X140370220Y-122502886D01*
X140608380Y-122404237D01*
X140831626Y-122275346D01*
X141036138Y-122118418D01*
X141218418Y-121936138D01*
X141375346Y-121731626D01*
X141504237Y-121508380D01*
X141602886Y-121270220D01*
X141669605Y-121021221D01*
X141703253Y-120765644D01*
X141703253Y-120507862D01*
X141669605Y-120252285D01*
X141602886Y-120003286D01*
X141598893Y-119993647D01*
X141546638Y-119867491D01*
X141504237Y-119765126D01*
X141375346Y-119541880D01*
X141218418Y-119337368D01*
X141218413Y-119337362D01*
X141036143Y-119155092D01*
X141036136Y-119155086D01*
X140831630Y-118998163D01*
X140831629Y-118998162D01*
X140831626Y-118998160D01*
X140608380Y-118869269D01*
X140602972Y-118867029D01*
X140370222Y-118770620D01*
X140245720Y-118737260D01*
X140121221Y-118703901D01*
X140064426Y-118696423D01*
X139865651Y-118670253D01*
X139865644Y-118670253D01*
X139639413Y-118670253D01*
X139593958Y-118661621D01*
X139468140Y-118612049D01*
X139126383Y-118477397D01*
X138305685Y-118154043D01*
X138263459Y-118126356D01*
X126973643Y-106836540D01*
X126945956Y-106794314D01*
X126943176Y-106787259D01*
X126673887Y-106103780D01*
X126438379Y-105506041D01*
X126429747Y-105460586D01*
X126429747Y-105234362D01*
X126429746Y-105234348D01*
X126423053Y-105183513D01*
X126396099Y-104978779D01*
X126329380Y-104729780D01*
X126230731Y-104491620D01*
X126101840Y-104268374D01*
X126016723Y-104157448D01*
X125944913Y-104063863D01*
X125944907Y-104063856D01*
X125762637Y-103881586D01*
X125762630Y-103881580D01*
X125558124Y-103724657D01*
X125558123Y-103724656D01*
X125558120Y-103724654D01*
X125334874Y-103595763D01*
X125334867Y-103595760D01*
X125096716Y-103497114D01*
X124972214Y-103463754D01*
X124847715Y-103430395D01*
X124790920Y-103422917D01*
X124592145Y-103396747D01*
X124592138Y-103396747D01*
X124334356Y-103396747D01*
X124334348Y-103396747D01*
X124107176Y-103426656D01*
X124078779Y-103430395D01*
X124027881Y-103444033D01*
X123829777Y-103497114D01*
X123591626Y-103595760D01*
X123591617Y-103595764D01*
X123368373Y-103724654D01*
X123163858Y-103881585D01*
X123163857Y-103881586D01*
X123163733Y-103881711D01*
X123163659Y-103881759D01*
X123160810Y-103884259D01*
X123160479Y-103883882D01*
X123123406Y-103908623D01*
X122154173Y-104308976D01*
X122084696Y-104316376D01*
X122022248Y-104285040D01*
X122019152Y-104282049D01*
X117392143Y-99655040D01*
X117358658Y-99593717D01*
X117363642Y-99524025D01*
X117405514Y-99468092D01*
X117470978Y-99443675D01*
X117514000Y-99448162D01*
X117657434Y-99489292D01*
X117844988Y-99512320D01*
X118033836Y-99505726D01*
X118219327Y-99469669D01*
X119806431Y-98892011D01*
X119971703Y-98800400D01*
X120120607Y-98684062D01*
X120249479Y-98545864D01*
X120355146Y-98389206D01*
X120435005Y-98217948D01*
X120487090Y-98036305D01*
X120510119Y-97848751D01*
X120503525Y-97659903D01*
X120467468Y-97474412D01*
X120402839Y-97296846D01*
X120399791Y-97291348D01*
X120311230Y-97131576D01*
X120311229Y-97131574D01*
X120194891Y-96982670D01*
X120182391Y-96971014D01*
X120056693Y-96853798D01*
X119981420Y-96803026D01*
X119900035Y-96748131D01*
X119728777Y-96668272D01*
X119728773Y-96668270D01*
X119728771Y-96668270D01*
X119574290Y-96623973D01*
X119515274Y-96586572D01*
X119485847Y-96523202D01*
X119495351Y-96453982D01*
X119496089Y-96452371D01*
X119500445Y-96443028D01*
X119500445Y-96443026D01*
X119500447Y-96443024D01*
X119519406Y-96365546D01*
X119510335Y-96306611D01*
X119267195Y-95638591D01*
X119262765Y-95568864D01*
X119296735Y-95507809D01*
X119358322Y-95474811D01*
X119427972Y-95480349D01*
X119471399Y-95508502D01*
X142513181Y-118550284D01*
X142546666Y-118611607D01*
X142549500Y-118637965D01*
X142549500Y-130259308D01*
X142573712Y-130349672D01*
X142580200Y-130373885D01*
X142580200Y-130373886D01*
X142605267Y-130417303D01*
X142639511Y-130476614D01*
X147323386Y-135160489D01*
X147358317Y-135180656D01*
X147426114Y-135219799D01*
X147540691Y-135250500D01*
X147540694Y-135250500D01*
X150033320Y-135250500D01*
X150033321Y-135250500D01*
X150123685Y-135226286D01*
X150147899Y-135219799D01*
X150250626Y-135160489D01*
X150306674Y-135104440D01*
X150359720Y-135073057D01*
X151109051Y-134855108D01*
X151123574Y-134849326D01*
X151145248Y-134842915D01*
X151170965Y-134837798D01*
X151194851Y-134833048D01*
X151376929Y-134757628D01*
X151540796Y-134648136D01*
X152245840Y-133943092D01*
X152355332Y-133779225D01*
X152430752Y-133597147D01*
X152469201Y-133403851D01*
X152469201Y-133206771D01*
X152469201Y-133206768D01*
X152469200Y-133206766D01*
X152451696Y-133118767D01*
X152430752Y-133013475D01*
X152355332Y-132831397D01*
X152355330Y-132831394D01*
X152355328Y-132831390D01*
X152245840Y-132667530D01*
X152245837Y-132667526D01*
X152106485Y-132528174D01*
X152106481Y-132528171D01*
X151942621Y-132418683D01*
X151942611Y-132418678D01*
X151760537Y-132343260D01*
X151760529Y-132343258D01*
X151567244Y-132304811D01*
X151567241Y-132304811D01*
X151370161Y-132304811D01*
X151370158Y-132304811D01*
X151176872Y-132343258D01*
X151176864Y-132343260D01*
X150994790Y-132418678D01*
X150994780Y-132418683D01*
X150830920Y-132528171D01*
X150830916Y-132528174D01*
X150125878Y-133233212D01*
X150125875Y-133233216D01*
X150068463Y-133319139D01*
X150066675Y-133321813D01*
X150048478Y-133346224D01*
X150043806Y-133356038D01*
X150038808Y-133363519D01*
X150038807Y-133363523D01*
X150016383Y-133397085D01*
X149964612Y-133522068D01*
X149962019Y-133527899D01*
X149764432Y-133943091D01*
X149619737Y-134247142D01*
X149604678Y-134278785D01*
X149558095Y-134330860D01*
X149492710Y-134349500D01*
X147837965Y-134349500D01*
X147770926Y-134329815D01*
X147750284Y-134313181D01*
X143486819Y-130049716D01*
X143453334Y-129988393D01*
X143450500Y-129962035D01*
X143450500Y-118340693D01*
X143450500Y-118340691D01*
X143423395Y-118239534D01*
X143419799Y-118226113D01*
X143416766Y-118220859D01*
X143360494Y-118123392D01*
X143360488Y-118123384D01*
X122504897Y-97267793D01*
X132293255Y-97267793D01*
X132293255Y-97519717D01*
X132325597Y-97723913D01*
X132332665Y-97768540D01*
X132410515Y-98008138D01*
X132524885Y-98232601D01*
X132525501Y-98233448D01*
X132525875Y-98234218D01*
X132527431Y-98236756D01*
X132527184Y-98236906D01*
X132544435Y-98272346D01*
X132960546Y-99732268D01*
X132965295Y-99766257D01*
X132965295Y-105243804D01*
X132968736Y-105256646D01*
X132987701Y-105327426D01*
X132987708Y-105327449D01*
X132987711Y-105327460D01*
X132995996Y-105358382D01*
X133055306Y-105461109D01*
X133055308Y-105461111D01*
X144513181Y-116918984D01*
X144546666Y-116980307D01*
X144549500Y-117006665D01*
X144549500Y-126925013D01*
X144545377Y-126953026D01*
X144549500Y-127035036D01*
X144549500Y-127461604D01*
X144571618Y-127544150D01*
X144571620Y-127544158D01*
X144572489Y-127547401D01*
X144576559Y-127573270D01*
X144600281Y-128045136D01*
X144590998Y-128098814D01*
X144552812Y-128191002D01*
X144552809Y-128191014D01*
X144514362Y-128384298D01*
X144514362Y-128581387D01*
X144552809Y-128774671D01*
X144552811Y-128774679D01*
X144628229Y-128956753D01*
X144628234Y-128956763D01*
X144737722Y-129120623D01*
X144737725Y-129120627D01*
X144877077Y-129259979D01*
X144877081Y-129259982D01*
X145040941Y-129369470D01*
X145040945Y-129369472D01*
X145040948Y-129369474D01*
X145223026Y-129444894D01*
X145341023Y-129468365D01*
X145416317Y-129483342D01*
X145416320Y-129483343D01*
X145416322Y-129483343D01*
X145613404Y-129483343D01*
X145613405Y-129483342D01*
X145806698Y-129444894D01*
X145988776Y-129369474D01*
X146152643Y-129259982D01*
X146857687Y-128554938D01*
X146967179Y-128391071D01*
X147042599Y-128208993D01*
X147081048Y-128015697D01*
X147081048Y-127818617D01*
X147081048Y-127818614D01*
X147081047Y-127818612D01*
X147072006Y-127773159D01*
X147042599Y-127625321D01*
X146967179Y-127443243D01*
X146967177Y-127443240D01*
X146967175Y-127443236D01*
X146857687Y-127279376D01*
X146857684Y-127279372D01*
X146718332Y-127140020D01*
X146718328Y-127140017D01*
X146554468Y-127030529D01*
X146554458Y-127030524D01*
X146372384Y-126955106D01*
X146372376Y-126955104D01*
X146179091Y-126916657D01*
X146179088Y-126916657D01*
X146069267Y-126916657D01*
X146039643Y-126913066D01*
X145544876Y-126791340D01*
X145484481Y-126756210D01*
X145452666Y-126694004D01*
X145450500Y-126670931D01*
X145450500Y-116709393D01*
X145450500Y-116709391D01*
X145419799Y-116594814D01*
X145419799Y-116594813D01*
X145419799Y-116594812D01*
X145360492Y-116492089D01*
X145360488Y-116492084D01*
X133902614Y-105034210D01*
X133869129Y-104972887D01*
X133866295Y-104946529D01*
X133866295Y-104451998D01*
X139477460Y-104451998D01*
X139477460Y-104703922D01*
X139510171Y-104910450D01*
X139516870Y-104952745D01*
X139594720Y-105192343D01*
X139709090Y-105416806D01*
X139709706Y-105417653D01*
X139710080Y-105418423D01*
X139711636Y-105420961D01*
X139711389Y-105421111D01*
X139728640Y-105456551D01*
X139949473Y-106231341D01*
X140143894Y-106913468D01*
X140144751Y-106916473D01*
X140149500Y-106950462D01*
X140149500Y-108459309D01*
X140167545Y-108526653D01*
X140180201Y-108573887D01*
X140239511Y-108676614D01*
X140239513Y-108676616D01*
X146313181Y-114750284D01*
X146346666Y-114811607D01*
X146349500Y-114837965D01*
X146349500Y-125859309D01*
X146361014Y-125902281D01*
X146361026Y-125902323D01*
X146380201Y-125973887D01*
X146439511Y-126076614D01*
X146439513Y-126076616D01*
X148902989Y-128540092D01*
X148936474Y-128601415D01*
X148939308Y-128627773D01*
X148939308Y-129094038D01*
X148919623Y-129161077D01*
X148866819Y-129206832D01*
X148797661Y-129216776D01*
X148734105Y-129187751D01*
X148712206Y-129162929D01*
X148653739Y-129075428D01*
X148653736Y-129075424D01*
X148514384Y-128936072D01*
X148514380Y-128936069D01*
X148350520Y-128826581D01*
X148350510Y-128826576D01*
X148168436Y-128751158D01*
X148168428Y-128751156D01*
X147975143Y-128712709D01*
X147975140Y-128712709D01*
X147778060Y-128712709D01*
X147778057Y-128712709D01*
X147584771Y-128751156D01*
X147584763Y-128751158D01*
X147402689Y-128826576D01*
X147402679Y-128826581D01*
X147238819Y-128936069D01*
X147238815Y-128936072D01*
X146533777Y-129641110D01*
X146533774Y-129641114D01*
X146424286Y-129804974D01*
X146424281Y-129804984D01*
X146348863Y-129987058D01*
X146348861Y-129987066D01*
X146310414Y-130180350D01*
X146310414Y-130377439D01*
X146348861Y-130570723D01*
X146348863Y-130570731D01*
X146424281Y-130752805D01*
X146424286Y-130752815D01*
X146533774Y-130916675D01*
X146533777Y-130916679D01*
X146673129Y-131056031D01*
X146673133Y-131056034D01*
X146836993Y-131165522D01*
X146836997Y-131165524D01*
X146837000Y-131165526D01*
X147019078Y-131240946D01*
X147212369Y-131279394D01*
X147212372Y-131279395D01*
X147212374Y-131279395D01*
X147409456Y-131279395D01*
X147409457Y-131279394D01*
X147602750Y-131240946D01*
X147784828Y-131165526D01*
X147948695Y-131056034D01*
X148456485Y-130548244D01*
X148517808Y-130514759D01*
X148587499Y-130519743D01*
X148643433Y-130561614D01*
X148667850Y-130627079D01*
X148660434Y-130679028D01*
X148417990Y-131333007D01*
X148389405Y-131377584D01*
X148329825Y-131437165D01*
X148220337Y-131601024D01*
X148220332Y-131601034D01*
X148144914Y-131783108D01*
X148144912Y-131783116D01*
X148106465Y-131976400D01*
X148106465Y-132173489D01*
X148144912Y-132366773D01*
X148144914Y-132366781D01*
X148220332Y-132548855D01*
X148220337Y-132548865D01*
X148329825Y-132712725D01*
X148329828Y-132712729D01*
X148469180Y-132852081D01*
X148469184Y-132852084D01*
X148633044Y-132961572D01*
X148633048Y-132961574D01*
X148633051Y-132961576D01*
X148815129Y-133036996D01*
X148994731Y-133072721D01*
X149008420Y-133075444D01*
X149008423Y-133075445D01*
X149008425Y-133075445D01*
X149205507Y-133075445D01*
X149205508Y-133075444D01*
X149398801Y-133036996D01*
X149580879Y-132961576D01*
X149744746Y-132852084D01*
X150449790Y-132147040D01*
X150559282Y-131983173D01*
X150634702Y-131801095D01*
X150673151Y-131607799D01*
X150673151Y-131410719D01*
X150673151Y-131410716D01*
X150673150Y-131410714D01*
X150639381Y-131240946D01*
X150634702Y-131217423D01*
X150559282Y-131035345D01*
X150559280Y-131035342D01*
X150559278Y-131035338D01*
X150449791Y-130871479D01*
X150444124Y-130865812D01*
X150344376Y-130766064D01*
X150325045Y-130741026D01*
X150212204Y-130548244D01*
X150012576Y-130207190D01*
X149857292Y-129941895D01*
X149840308Y-129879256D01*
X149840308Y-128330501D01*
X149840308Y-128330499D01*
X149809607Y-128215922D01*
X149802826Y-128204177D01*
X149750298Y-128113194D01*
X147286819Y-125649715D01*
X147253334Y-125588392D01*
X147250500Y-125562034D01*
X147250500Y-114540693D01*
X147250500Y-114540691D01*
X147223942Y-114441576D01*
X147219799Y-114426113D01*
X147160489Y-114323386D01*
X141086819Y-108249716D01*
X141053334Y-108188393D01*
X141050500Y-108162035D01*
X141050500Y-107422040D01*
X142288558Y-107422040D01*
X143856354Y-107422040D01*
X143851960Y-107426434D01*
X143799299Y-107517646D01*
X143772040Y-107619379D01*
X143772040Y-107724701D01*
X143799299Y-107826434D01*
X143851960Y-107917646D01*
X143856354Y-107922040D01*
X142288558Y-107922040D01*
X142304548Y-108043503D01*
X142369013Y-108284089D01*
X142464323Y-108514188D01*
X142464328Y-108514199D01*
X142588853Y-108729881D01*
X142588864Y-108729897D01*
X142740477Y-108927483D01*
X142740483Y-108927490D01*
X142916589Y-109103596D01*
X142916596Y-109103602D01*
X143114182Y-109255215D01*
X143114198Y-109255226D01*
X143329880Y-109379751D01*
X143329891Y-109379756D01*
X143559990Y-109475066D01*
X143800576Y-109539531D01*
X143922040Y-109555521D01*
X143922040Y-107987726D01*
X143926434Y-107992120D01*
X144017646Y-108044781D01*
X144119379Y-108072040D01*
X144224701Y-108072040D01*
X144326434Y-108044781D01*
X144417646Y-107992120D01*
X144422040Y-107987726D01*
X144422040Y-109555520D01*
X144543503Y-109539531D01*
X144784089Y-109475066D01*
X145014188Y-109379756D01*
X145014199Y-109379751D01*
X145229881Y-109255226D01*
X145229897Y-109255215D01*
X145427483Y-109103602D01*
X145427490Y-109103596D01*
X145603596Y-108927490D01*
X145603602Y-108927483D01*
X145755215Y-108729897D01*
X145755226Y-108729881D01*
X145879751Y-108514199D01*
X145879756Y-108514188D01*
X145975066Y-108284089D01*
X146039531Y-108043503D01*
X146055522Y-107922040D01*
X144487726Y-107922040D01*
X144492120Y-107917646D01*
X144544781Y-107826434D01*
X144572040Y-107724701D01*
X144572040Y-107619379D01*
X144544781Y-107517646D01*
X144492120Y-107426434D01*
X144487726Y-107422040D01*
X146055521Y-107422040D01*
X146039531Y-107300576D01*
X145975066Y-107059990D01*
X145879756Y-106829891D01*
X145879751Y-106829880D01*
X145755226Y-106614198D01*
X145755215Y-106614182D01*
X145603602Y-106416596D01*
X145603596Y-106416589D01*
X145427490Y-106240483D01*
X145427483Y-106240477D01*
X145229897Y-106088864D01*
X145229881Y-106088853D01*
X145014199Y-105964328D01*
X145014188Y-105964323D01*
X144784089Y-105869013D01*
X144543503Y-105804548D01*
X144422040Y-105788556D01*
X144422040Y-107356354D01*
X144417646Y-107351960D01*
X144326434Y-107299299D01*
X144224701Y-107272040D01*
X144119379Y-107272040D01*
X144017646Y-107299299D01*
X143926434Y-107351960D01*
X143922040Y-107356354D01*
X143922040Y-105788556D01*
X143922039Y-105788556D01*
X143800576Y-105804548D01*
X143559990Y-105869013D01*
X143329891Y-105964323D01*
X143329880Y-105964328D01*
X143114198Y-106088853D01*
X143114182Y-106088864D01*
X142916596Y-106240477D01*
X142916589Y-106240483D01*
X142740483Y-106416589D01*
X142740477Y-106416596D01*
X142588864Y-106614182D01*
X142588853Y-106614198D01*
X142464328Y-106829880D01*
X142464323Y-106829891D01*
X142369013Y-107059990D01*
X142304548Y-107300576D01*
X142288558Y-107422040D01*
X141050500Y-107422040D01*
X141050500Y-107016175D01*
X141070185Y-106949136D01*
X141081078Y-106934638D01*
X141106876Y-106905080D01*
X141979811Y-105904911D01*
X142000338Y-105886139D01*
X142120616Y-105798753D01*
X142298753Y-105620616D01*
X142446830Y-105416805D01*
X142561201Y-105192339D01*
X142639050Y-104952745D01*
X142678460Y-104703922D01*
X142678460Y-104496078D01*
X145621540Y-104496078D01*
X145621540Y-104748002D01*
X145648842Y-104920378D01*
X145660950Y-104996825D01*
X145738800Y-105236423D01*
X145817453Y-105390787D01*
X145850393Y-105455435D01*
X145853172Y-105460888D01*
X146001241Y-105664689D01*
X146001245Y-105664694D01*
X146179385Y-105842834D01*
X146179390Y-105842838D01*
X146274188Y-105911712D01*
X146383195Y-105990910D01*
X146517864Y-106059527D01*
X146607656Y-106105279D01*
X146607658Y-106105279D01*
X146607661Y-106105281D01*
X146847255Y-106183130D01*
X147096078Y-106222540D01*
X147096079Y-106222540D01*
X147348001Y-106222540D01*
X147348002Y-106222540D01*
X147596825Y-106183130D01*
X147836419Y-106105281D01*
X148060885Y-105990910D01*
X148264696Y-105842833D01*
X148442833Y-105664696D01*
X148590910Y-105460885D01*
X148668609Y-105308389D01*
X148682761Y-105286609D01*
X149643416Y-104101554D01*
X149683324Y-104069222D01*
X151026287Y-103383210D01*
X151063287Y-103371167D01*
X151107197Y-103364213D01*
X151346791Y-103286364D01*
X151571257Y-103171993D01*
X151775068Y-103023916D01*
X151953205Y-102845779D01*
X152101282Y-102641968D01*
X152215653Y-102417502D01*
X152293502Y-102177908D01*
X152332912Y-101929085D01*
X152332912Y-101677161D01*
X152293502Y-101428338D01*
X152215653Y-101188744D01*
X152215651Y-101188741D01*
X152215651Y-101188739D01*
X152168156Y-101095526D01*
X152101282Y-100964278D01*
X152068266Y-100918835D01*
X151953210Y-100760473D01*
X151953206Y-100760468D01*
X151775066Y-100582328D01*
X151775061Y-100582324D01*
X151571260Y-100434255D01*
X151571259Y-100434254D01*
X151571257Y-100434253D01*
X151475680Y-100385554D01*
X151346795Y-100319883D01*
X151107197Y-100242033D01*
X151045228Y-100232218D01*
X150858374Y-100202623D01*
X150606450Y-100202623D01*
X150508152Y-100218192D01*
X150357626Y-100242033D01*
X150118028Y-100319883D01*
X149893563Y-100434255D01*
X149689762Y-100582324D01*
X149689757Y-100582328D01*
X149511617Y-100760468D01*
X149511613Y-100760473D01*
X149363544Y-100964274D01*
X149249172Y-101188739D01*
X149171322Y-101428337D01*
X149131912Y-101677161D01*
X149131912Y-101929089D01*
X149144215Y-102006765D01*
X149145046Y-102039285D01*
X149017911Y-103233944D01*
X148991242Y-103298524D01*
X148933893Y-103338434D01*
X148870270Y-103342410D01*
X147816887Y-103131566D01*
X147802906Y-103127909D01*
X147596828Y-103060950D01*
X147410207Y-103031392D01*
X147348002Y-103021540D01*
X147096078Y-103021540D01*
X147001398Y-103036536D01*
X146847254Y-103060950D01*
X146607656Y-103138800D01*
X146383191Y-103253172D01*
X146179390Y-103401241D01*
X146179385Y-103401245D01*
X146001245Y-103579385D01*
X146001241Y-103579390D01*
X145853172Y-103783191D01*
X145738800Y-104007656D01*
X145660950Y-104247254D01*
X145657606Y-104268369D01*
X145621540Y-104496078D01*
X142678460Y-104496078D01*
X142678460Y-104451998D01*
X142639050Y-104203175D01*
X142561201Y-103963581D01*
X142561199Y-103963578D01*
X142561199Y-103963576D01*
X142499566Y-103842616D01*
X142446830Y-103739115D01*
X142424888Y-103708915D01*
X142298758Y-103535310D01*
X142298754Y-103535305D01*
X142120614Y-103357165D01*
X142120609Y-103357161D01*
X141916808Y-103209092D01*
X141916807Y-103209091D01*
X141916805Y-103209090D01*
X141827057Y-103163361D01*
X141692343Y-103094720D01*
X141452745Y-103016870D01*
X141379544Y-103005276D01*
X141203922Y-102977460D01*
X140951998Y-102977460D01*
X140827586Y-102997165D01*
X140703174Y-103016870D01*
X140463576Y-103094720D01*
X140239111Y-103209092D01*
X140035310Y-103357161D01*
X140035305Y-103357165D01*
X139857165Y-103535305D01*
X139857161Y-103535310D01*
X139709092Y-103739111D01*
X139594720Y-103963576D01*
X139516870Y-104203174D01*
X139484648Y-104406617D01*
X139477460Y-104451998D01*
X133866295Y-104451998D01*
X133866295Y-101350000D01*
X142316518Y-101350000D01*
X143884314Y-101350000D01*
X143879920Y-101354394D01*
X143827259Y-101445606D01*
X143800000Y-101547339D01*
X143800000Y-101652661D01*
X143827259Y-101754394D01*
X143879920Y-101845606D01*
X143884314Y-101850000D01*
X142316518Y-101850000D01*
X142332508Y-101971463D01*
X142396973Y-102212049D01*
X142492283Y-102442148D01*
X142492288Y-102442159D01*
X142616813Y-102657841D01*
X142616824Y-102657857D01*
X142768437Y-102855443D01*
X142768443Y-102855450D01*
X142944549Y-103031556D01*
X142944556Y-103031562D01*
X143142142Y-103183175D01*
X143142158Y-103183186D01*
X143357840Y-103307711D01*
X143357851Y-103307716D01*
X143587950Y-103403026D01*
X143828536Y-103467491D01*
X143950000Y-103483481D01*
X143950000Y-101915686D01*
X143954394Y-101920080D01*
X144045606Y-101972741D01*
X144147339Y-102000000D01*
X144252661Y-102000000D01*
X144354394Y-101972741D01*
X144445606Y-101920080D01*
X144450000Y-101915686D01*
X144450000Y-103483480D01*
X144571463Y-103467491D01*
X144812049Y-103403026D01*
X145042148Y-103307716D01*
X145042159Y-103307711D01*
X145257841Y-103183186D01*
X145257857Y-103183175D01*
X145455443Y-103031562D01*
X145455450Y-103031556D01*
X145631556Y-102855450D01*
X145631562Y-102855443D01*
X145783175Y-102657857D01*
X145783186Y-102657841D01*
X145907711Y-102442159D01*
X145907716Y-102442148D01*
X146003026Y-102212049D01*
X146067491Y-101971463D01*
X146083482Y-101850000D01*
X144515686Y-101850000D01*
X144520080Y-101845606D01*
X144572741Y-101754394D01*
X144600000Y-101652661D01*
X144600000Y-101547339D01*
X144572741Y-101445606D01*
X144520080Y-101354394D01*
X144515686Y-101350000D01*
X146083481Y-101350000D01*
X146067491Y-101228536D01*
X146003026Y-100987950D01*
X145907716Y-100757851D01*
X145907711Y-100757840D01*
X145783186Y-100542158D01*
X145783175Y-100542142D01*
X145631562Y-100344556D01*
X145631556Y-100344549D01*
X145455450Y-100168443D01*
X145455443Y-100168437D01*
X145257857Y-100016824D01*
X145257841Y-100016813D01*
X145042159Y-99892288D01*
X145042148Y-99892283D01*
X144812049Y-99796973D01*
X144571463Y-99732508D01*
X144450000Y-99716516D01*
X144450000Y-101284314D01*
X144445606Y-101279920D01*
X144354394Y-101227259D01*
X144252661Y-101200000D01*
X144147339Y-101200000D01*
X144045606Y-101227259D01*
X143954394Y-101279920D01*
X143950000Y-101284314D01*
X143950000Y-99716516D01*
X143949999Y-99716516D01*
X143828536Y-99732508D01*
X143587950Y-99796973D01*
X143357851Y-99892283D01*
X143357840Y-99892288D01*
X143142158Y-100016813D01*
X143142142Y-100016824D01*
X142944556Y-100168437D01*
X142944549Y-100168443D01*
X142768443Y-100344549D01*
X142768437Y-100344556D01*
X142616824Y-100542142D01*
X142616813Y-100542158D01*
X142492288Y-100757840D01*
X142492283Y-100757851D01*
X142396973Y-100987950D01*
X142332508Y-101228536D01*
X142316518Y-101350000D01*
X133866295Y-101350000D01*
X133866295Y-99831970D01*
X133885980Y-99764931D01*
X133896873Y-99750433D01*
X133900433Y-99746354D01*
X134795606Y-98720706D01*
X134816133Y-98701934D01*
X134936411Y-98614548D01*
X135114548Y-98436411D01*
X135148845Y-98389206D01*
X135171743Y-98357687D01*
X135262625Y-98232600D01*
X135372178Y-98017589D01*
X145313396Y-98017589D01*
X146881192Y-98017589D01*
X146876798Y-98021983D01*
X146824137Y-98113195D01*
X146796878Y-98214928D01*
X146796878Y-98320250D01*
X146824137Y-98421983D01*
X146876798Y-98513195D01*
X146881192Y-98517589D01*
X145313396Y-98517589D01*
X145329386Y-98639052D01*
X145393851Y-98879638D01*
X145489161Y-99109737D01*
X145489166Y-99109748D01*
X145613691Y-99325430D01*
X145613702Y-99325446D01*
X145765315Y-99523032D01*
X145765321Y-99523039D01*
X145941427Y-99699145D01*
X145941434Y-99699151D01*
X146139020Y-99850764D01*
X146139036Y-99850775D01*
X146354718Y-99975300D01*
X146354729Y-99975305D01*
X146584828Y-100070615D01*
X146825414Y-100135080D01*
X146946878Y-100151070D01*
X146946878Y-98583275D01*
X146951272Y-98587669D01*
X147042484Y-98640330D01*
X147144217Y-98667589D01*
X147249539Y-98667589D01*
X147351272Y-98640330D01*
X147442484Y-98587669D01*
X147446878Y-98583275D01*
X147446878Y-100151069D01*
X147568341Y-100135080D01*
X147808927Y-100070615D01*
X148039026Y-99975305D01*
X148039037Y-99975300D01*
X148254719Y-99850775D01*
X148254735Y-99850764D01*
X148452321Y-99699151D01*
X148452328Y-99699145D01*
X148628434Y-99523039D01*
X148628440Y-99523032D01*
X148780053Y-99325446D01*
X148780064Y-99325430D01*
X148904589Y-99109748D01*
X148904594Y-99109737D01*
X148999904Y-98879638D01*
X149064369Y-98639052D01*
X149080360Y-98517589D01*
X147512564Y-98517589D01*
X147516958Y-98513195D01*
X147569619Y-98421983D01*
X147596878Y-98320250D01*
X147596878Y-98214928D01*
X147569619Y-98113195D01*
X147516958Y-98021983D01*
X147512564Y-98017589D01*
X149080359Y-98017589D01*
X149064369Y-97896125D01*
X148999904Y-97655539D01*
X148904594Y-97425440D01*
X148904589Y-97425429D01*
X148780064Y-97209747D01*
X148780053Y-97209731D01*
X148628440Y-97012145D01*
X148628434Y-97012138D01*
X148452328Y-96836032D01*
X148452321Y-96836026D01*
X148254735Y-96684413D01*
X148254719Y-96684402D01*
X148039037Y-96559877D01*
X148039026Y-96559872D01*
X147808927Y-96464562D01*
X147568341Y-96400097D01*
X147446878Y-96384105D01*
X147446878Y-97951903D01*
X147442484Y-97947509D01*
X147351272Y-97894848D01*
X147249539Y-97867589D01*
X147144217Y-97867589D01*
X147042484Y-97894848D01*
X146951272Y-97947509D01*
X146946878Y-97951903D01*
X146946878Y-96384105D01*
X146946877Y-96384105D01*
X146825414Y-96400097D01*
X146584828Y-96464562D01*
X146354729Y-96559872D01*
X146354718Y-96559877D01*
X146139036Y-96684402D01*
X146139020Y-96684413D01*
X145941434Y-96836026D01*
X145941427Y-96836032D01*
X145765321Y-97012138D01*
X145765315Y-97012145D01*
X145613702Y-97209731D01*
X145613691Y-97209747D01*
X145489166Y-97425429D01*
X145489161Y-97425440D01*
X145393851Y-97655539D01*
X145329386Y-97896125D01*
X145313396Y-98017589D01*
X135372178Y-98017589D01*
X135376996Y-98008134D01*
X135454845Y-97768540D01*
X135494255Y-97519717D01*
X135494255Y-97404637D01*
X135498862Y-97371152D01*
X135570934Y-97114172D01*
X135785184Y-96350237D01*
X135822240Y-96291005D01*
X135876530Y-96262937D01*
X136255765Y-96174878D01*
X136315903Y-96175888D01*
X136384446Y-96194255D01*
X136384449Y-96194255D01*
X136703061Y-96194255D01*
X136703064Y-96194255D01*
X136817641Y-96163554D01*
X136920368Y-96104244D01*
X136920896Y-96103716D01*
X136921509Y-96103367D01*
X136926819Y-96099294D01*
X136927386Y-96100033D01*
X136978324Y-96071139D01*
X137238584Y-96005646D01*
X137240616Y-96004753D01*
X137271077Y-95995811D01*
X137390580Y-95976885D01*
X137630174Y-95899036D01*
X137854640Y-95784665D01*
X138058451Y-95636588D01*
X138236588Y-95458451D01*
X138384665Y-95254640D01*
X138499036Y-95030174D01*
X138576885Y-94790580D01*
X138583312Y-94750000D01*
X141866518Y-94750000D01*
X143434314Y-94750000D01*
X143429920Y-94754394D01*
X143377259Y-94845606D01*
X143350000Y-94947339D01*
X143350000Y-95052661D01*
X143377259Y-95154394D01*
X143429920Y-95245606D01*
X143434314Y-95250000D01*
X141866518Y-95250000D01*
X141882508Y-95371463D01*
X141946973Y-95612049D01*
X142042283Y-95842148D01*
X142042288Y-95842159D01*
X142166813Y-96057841D01*
X142166824Y-96057857D01*
X142318437Y-96255443D01*
X142318443Y-96255450D01*
X142494549Y-96431556D01*
X142494556Y-96431562D01*
X142692142Y-96583175D01*
X142692158Y-96583186D01*
X142907840Y-96707711D01*
X142907851Y-96707716D01*
X143137950Y-96803026D01*
X143378536Y-96867491D01*
X143500000Y-96883481D01*
X143500000Y-95315686D01*
X143504394Y-95320080D01*
X143595606Y-95372741D01*
X143697339Y-95400000D01*
X143802661Y-95400000D01*
X143904394Y-95372741D01*
X143995606Y-95320080D01*
X144000000Y-95315686D01*
X144000000Y-96883480D01*
X144121463Y-96867491D01*
X144362049Y-96803026D01*
X144592148Y-96707716D01*
X144592159Y-96707711D01*
X144807841Y-96583186D01*
X144807857Y-96583175D01*
X145005443Y-96431562D01*
X145005450Y-96431556D01*
X145181556Y-96255450D01*
X145181562Y-96255443D01*
X145333175Y-96057857D01*
X145333186Y-96057841D01*
X145457711Y-95842159D01*
X145457716Y-95842148D01*
X145553026Y-95612049D01*
X145617491Y-95371463D01*
X145633482Y-95250000D01*
X144065686Y-95250000D01*
X144070080Y-95245606D01*
X144122741Y-95154394D01*
X144150000Y-95052661D01*
X144150000Y-94947339D01*
X144122741Y-94845606D01*
X144070080Y-94754394D01*
X144065686Y-94750000D01*
X145633481Y-94750000D01*
X145617491Y-94628536D01*
X145553026Y-94387950D01*
X145457716Y-94157851D01*
X145457711Y-94157840D01*
X145333186Y-93942158D01*
X145333175Y-93942142D01*
X145181562Y-93744556D01*
X145181556Y-93744549D01*
X145005450Y-93568443D01*
X145005443Y-93568437D01*
X144807857Y-93416824D01*
X144807841Y-93416813D01*
X144592159Y-93292288D01*
X144592148Y-93292283D01*
X144362049Y-93196973D01*
X144121463Y-93132508D01*
X144000000Y-93116516D01*
X144000000Y-94684314D01*
X143995606Y-94679920D01*
X143904394Y-94627259D01*
X143802661Y-94600000D01*
X143697339Y-94600000D01*
X143595606Y-94627259D01*
X143504394Y-94679920D01*
X143500000Y-94684314D01*
X143500000Y-93116516D01*
X143499999Y-93116516D01*
X143378536Y-93132508D01*
X143137950Y-93196973D01*
X142907851Y-93292283D01*
X142907840Y-93292288D01*
X142692158Y-93416813D01*
X142692142Y-93416824D01*
X142494556Y-93568437D01*
X142494549Y-93568443D01*
X142318443Y-93744549D01*
X142318437Y-93744556D01*
X142166824Y-93942142D01*
X142166813Y-93942158D01*
X142042288Y-94157840D01*
X142042283Y-94157851D01*
X141946973Y-94387950D01*
X141882508Y-94628536D01*
X141866518Y-94750000D01*
X138583312Y-94750000D01*
X138616295Y-94541757D01*
X138616295Y-94289833D01*
X138576885Y-94041010D01*
X138499036Y-93801416D01*
X138499034Y-93801413D01*
X138499034Y-93801411D01*
X138446740Y-93698780D01*
X138384665Y-93576950D01*
X138354408Y-93535305D01*
X138236593Y-93373145D01*
X138236589Y-93373140D01*
X138058449Y-93195000D01*
X138058444Y-93194996D01*
X137854643Y-93046927D01*
X137854642Y-93046926D01*
X137854640Y-93046925D01*
X137764945Y-93001223D01*
X137630178Y-92932555D01*
X137390580Y-92854705D01*
X137255662Y-92833336D01*
X137141757Y-92815295D01*
X136889833Y-92815295D01*
X136775928Y-92833336D01*
X136641009Y-92854705D01*
X136401411Y-92932555D01*
X136176946Y-93046927D01*
X135973145Y-93194996D01*
X135973140Y-93195000D01*
X135795000Y-93373140D01*
X135794996Y-93373145D01*
X135646927Y-93576946D01*
X135532555Y-93801413D01*
X135454704Y-94041012D01*
X135420549Y-94256651D01*
X135413519Y-94282516D01*
X134996718Y-95345547D01*
X134953921Y-95400775D01*
X134921273Y-95417655D01*
X133838550Y-95786627D01*
X133798552Y-95793255D01*
X133767793Y-95793255D01*
X133690040Y-95805570D01*
X133518969Y-95832665D01*
X133279371Y-95910515D01*
X133054906Y-96024887D01*
X132851105Y-96172956D01*
X132851100Y-96172960D01*
X132672960Y-96351100D01*
X132672956Y-96351105D01*
X132524887Y-96554906D01*
X132410515Y-96779371D01*
X132332665Y-97018969D01*
X132332665Y-97018970D01*
X132293255Y-97267793D01*
X122504897Y-97267793D01*
X120524784Y-95287680D01*
X120491299Y-95226357D01*
X120496283Y-95156665D01*
X120524784Y-95112318D01*
X121185104Y-94451998D01*
X129477460Y-94451998D01*
X129477460Y-94703922D01*
X129487945Y-94770119D01*
X129516870Y-94952745D01*
X129594720Y-95192343D01*
X129671511Y-95343052D01*
X129703186Y-95405218D01*
X129709092Y-95416808D01*
X129857161Y-95620609D01*
X129857165Y-95620614D01*
X130035305Y-95798754D01*
X130035310Y-95798758D01*
X130212395Y-95927417D01*
X130239115Y-95946830D01*
X130382144Y-96019707D01*
X130463576Y-96061199D01*
X130463578Y-96061199D01*
X130463581Y-96061201D01*
X130703175Y-96139050D01*
X130951998Y-96178460D01*
X130951999Y-96178460D01*
X131203921Y-96178460D01*
X131203922Y-96178460D01*
X131452745Y-96139050D01*
X131692339Y-96061201D01*
X131916805Y-95946830D01*
X132120616Y-95798753D01*
X132298753Y-95620616D01*
X132446830Y-95416805D01*
X132561201Y-95192339D01*
X132639050Y-94952745D01*
X132678460Y-94703922D01*
X132678460Y-94451998D01*
X132639050Y-94203175D01*
X132561201Y-93963581D01*
X132561199Y-93963578D01*
X132561199Y-93963576D01*
X132487268Y-93818480D01*
X132446830Y-93739115D01*
X132414367Y-93694433D01*
X132298758Y-93535310D01*
X132298754Y-93535305D01*
X132120614Y-93357165D01*
X132120609Y-93357161D01*
X131916808Y-93209092D01*
X131916807Y-93209091D01*
X131916805Y-93209090D01*
X131822598Y-93161089D01*
X131692343Y-93094720D01*
X131452745Y-93016870D01*
X131203922Y-92977460D01*
X130951998Y-92977460D01*
X130827586Y-92997165D01*
X130703174Y-93016870D01*
X130463576Y-93094720D01*
X130239111Y-93209092D01*
X130035310Y-93357161D01*
X130035305Y-93357165D01*
X129857165Y-93535305D01*
X129857161Y-93535310D01*
X129709092Y-93739111D01*
X129594720Y-93963576D01*
X129516870Y-94203174D01*
X129492167Y-94359141D01*
X129477460Y-94451998D01*
X121185104Y-94451998D01*
X123905377Y-91731725D01*
X127376284Y-88260819D01*
X127435594Y-88158092D01*
X127438088Y-88148781D01*
X127444905Y-88123345D01*
X127454878Y-88086121D01*
X127466295Y-88043514D01*
X127466295Y-86894731D01*
X127480564Y-86836981D01*
X127703286Y-86413790D01*
X128163417Y-85539500D01*
X128185463Y-85509574D01*
X128236588Y-85458451D01*
X128384665Y-85254640D01*
X128499036Y-85030174D01*
X128576885Y-84790580D01*
X128616295Y-84541757D01*
X128616295Y-84289833D01*
X128576885Y-84041010D01*
X128499036Y-83801416D01*
X128499034Y-83801413D01*
X128499034Y-83801411D01*
X128457542Y-83719979D01*
X128384665Y-83576950D01*
X128295729Y-83454540D01*
X128236593Y-83373145D01*
X128236589Y-83373140D01*
X128058449Y-83195000D01*
X128058444Y-83194996D01*
X127854643Y-83046927D01*
X127854642Y-83046926D01*
X127854640Y-83046925D01*
X127763147Y-83000307D01*
X127630178Y-82932555D01*
X127390580Y-82854705D01*
X127141757Y-82815295D01*
X126889833Y-82815295D01*
X126843535Y-82822628D01*
X126641009Y-82854705D01*
X126401411Y-82932555D01*
X126176951Y-83046924D01*
X126131167Y-83080187D01*
X126108809Y-83093107D01*
X125095136Y-83545386D01*
X125025893Y-83554725D01*
X124962593Y-83525147D01*
X124956930Y-83519827D01*
X120300961Y-78863858D01*
X120267476Y-78802535D01*
X120264642Y-78776177D01*
X120264642Y-77709911D01*
X120284327Y-77642872D01*
X120337131Y-77597117D01*
X120406289Y-77587173D01*
X120469845Y-77616198D01*
G37*
G04 #@! TD.AperFunction*
G04 #@! TA.AperFunction,Conductor*
G36*
X120272324Y-53308773D02*
G01*
X120864181Y-53316693D01*
X120865759Y-53316726D01*
X121454589Y-53332907D01*
X121455825Y-53332948D01*
X122040988Y-53355364D01*
X122582250Y-53355126D01*
X122589886Y-53355360D01*
X123119613Y-53387986D01*
X123126833Y-53388643D01*
X123649672Y-53451733D01*
X123656354Y-53452724D01*
X124172936Y-53543900D01*
X124178982Y-53545125D01*
X124689845Y-53662002D01*
X124695256Y-53663371D01*
X125164914Y-53793574D01*
X125200899Y-53803550D01*
X125205731Y-53804996D01*
X125706697Y-53966085D01*
X125710893Y-53967518D01*
X126207676Y-54147102D01*
X126211254Y-54148458D01*
X126705887Y-54344724D01*
X126705901Y-54344728D01*
X126705905Y-54344730D01*
X126772042Y-54363563D01*
X126900002Y-54400001D01*
X128142558Y-54619275D01*
X128594401Y-54699012D01*
X128605475Y-54701493D01*
X128868672Y-54773274D01*
X128873477Y-54775548D01*
X128876500Y-54775690D01*
X128907883Y-54791834D01*
X129031161Y-54879458D01*
X129040224Y-54886557D01*
X129068142Y-54910599D01*
X129089358Y-54920824D01*
X129108550Y-54934466D01*
X129148476Y-54949318D01*
X129186857Y-54967817D01*
X129209993Y-54972202D01*
X129232065Y-54980413D01*
X129274481Y-54984426D01*
X129674698Y-55060286D01*
X129679420Y-55061279D01*
X130084148Y-55154759D01*
X130118157Y-55162614D01*
X130121914Y-55163544D01*
X130370950Y-55229316D01*
X130374036Y-55230174D01*
X130638157Y-55307347D01*
X130641801Y-55308473D01*
X130910673Y-55396137D01*
X130914959Y-55397623D01*
X131180721Y-55495330D01*
X131185920Y-55497376D01*
X131357525Y-55569450D01*
X131440439Y-55604274D01*
X131446793Y-55607156D01*
X131687266Y-55724478D01*
X131692896Y-55727405D01*
X131796159Y-55784527D01*
X131800433Y-55787004D01*
X131899866Y-55847352D01*
X131904612Y-55850383D01*
X131994751Y-55910907D01*
X132000008Y-55914640D01*
X132057519Y-55957790D01*
X132079860Y-55974552D01*
X132085690Y-55979207D01*
X132154304Y-56037454D01*
X132160651Y-56043231D01*
X132217413Y-56098612D01*
X132224203Y-56105787D01*
X132265962Y-56153591D01*
X132268799Y-56156838D01*
X132275861Y-56165710D01*
X132308641Y-56210998D01*
X132315252Y-56221139D01*
X132315448Y-56221474D01*
X132332345Y-56250821D01*
X132332955Y-56251432D01*
X132337316Y-56258894D01*
X132337331Y-56258955D01*
X132337489Y-56259191D01*
X132343542Y-56269615D01*
X132348777Y-56279661D01*
X132376180Y-56338677D01*
X132379981Y-56347796D01*
X132406551Y-56419467D01*
X132409254Y-56427616D01*
X132431452Y-56503170D01*
X132434034Y-56513610D01*
X132475957Y-56721481D01*
X132477694Y-56732746D01*
X132502493Y-56963511D01*
X132503123Y-56972319D01*
X132512239Y-57226678D01*
X132512293Y-57233655D01*
X132506789Y-57502706D01*
X132506547Y-57508320D01*
X132488396Y-57783882D01*
X132488008Y-57788470D01*
X132459671Y-58062859D01*
X132459218Y-58066664D01*
X132423390Y-58332809D01*
X132422918Y-58336005D01*
X132382903Y-58584167D01*
X132382227Y-58587980D01*
X132298745Y-59019513D01*
X132297715Y-59024322D01*
X132207821Y-59406945D01*
X132206567Y-59412278D01*
X132192830Y-59453889D01*
X132191555Y-59476175D01*
X132189088Y-59486676D01*
X132189088Y-59486680D01*
X132186451Y-59497906D01*
X132186450Y-59497907D01*
X132187640Y-59536238D01*
X132187498Y-59547156D01*
X132185309Y-59585456D01*
X132185309Y-59585458D01*
X132187653Y-59596748D01*
X132189848Y-59607321D01*
X132190541Y-59629629D01*
X132203186Y-59671569D01*
X132204297Y-59676920D01*
X132204300Y-59676929D01*
X132212098Y-59714489D01*
X132212098Y-59714490D01*
X132212099Y-59714491D01*
X132222140Y-59734431D01*
X132228584Y-59755802D01*
X132251659Y-59793049D01*
X132254118Y-59797932D01*
X132383753Y-60055362D01*
X132390640Y-60071921D01*
X132800000Y-61300000D01*
X132800003Y-61300007D01*
X133199998Y-61999997D01*
X133200000Y-62000000D01*
X133283694Y-62062771D01*
X133293788Y-62075757D01*
X133305735Y-62084027D01*
X133323787Y-62114354D01*
X133412289Y-62327160D01*
X133419284Y-62350726D01*
X133419672Y-62351921D01*
X133441215Y-62397129D01*
X133443768Y-62402855D01*
X133463009Y-62449120D01*
X133463009Y-62449121D01*
X133470841Y-62459298D01*
X133476362Y-62470883D01*
X133510916Y-62511371D01*
X133512837Y-62513867D01*
X133543383Y-62553559D01*
X133544289Y-62554462D01*
X133560962Y-62570266D01*
X133561909Y-62571120D01*
X133561913Y-62571124D01*
X133605775Y-62601293D01*
X133648050Y-62633636D01*
X133659915Y-62638531D01*
X133958266Y-62843739D01*
X133961723Y-62846207D01*
X134313616Y-63106693D01*
X134316261Y-63108707D01*
X134515009Y-63264320D01*
X134517080Y-63265980D01*
X134647236Y-63372673D01*
X134726395Y-63437561D01*
X134728877Y-63439651D01*
X134895015Y-63583319D01*
X134907220Y-63593873D01*
X134920259Y-63606969D01*
X135000000Y-63700000D01*
X135000008Y-63700008D01*
X135493766Y-64193766D01*
X135505285Y-64207047D01*
X135912337Y-64749783D01*
X135922966Y-64766619D01*
X135930255Y-64780526D01*
X135933744Y-64787741D01*
X135965326Y-64858821D01*
X135968774Y-64867437D01*
X135991352Y-64930609D01*
X135994413Y-64940444D01*
X136015370Y-65019171D01*
X136017420Y-65028222D01*
X136034514Y-65119410D01*
X136035735Y-65127331D01*
X136045611Y-65208785D01*
X136048277Y-65230768D01*
X136048919Y-65237673D01*
X136055895Y-65345293D01*
X136056153Y-65353978D01*
X136054740Y-65617730D01*
X136054345Y-65626979D01*
X136031674Y-65909655D01*
X136030885Y-65916853D01*
X135988996Y-66217511D01*
X135988065Y-66223217D01*
X135929991Y-66533436D01*
X135929038Y-66538042D01*
X135858315Y-66849920D01*
X135857395Y-66853700D01*
X135778586Y-67156809D01*
X135777343Y-67161248D01*
X135605386Y-67734251D01*
X135603922Y-67738807D01*
X135444885Y-68202895D01*
X135443419Y-68206944D01*
X135356799Y-68433712D01*
X135299535Y-68583628D01*
X135298718Y-68584771D01*
X135276025Y-68645173D01*
X135275888Y-68645534D01*
X135275886Y-68645535D01*
X135252989Y-68705485D01*
X135252761Y-68706462D01*
X135252762Y-68706463D01*
X135252373Y-68708133D01*
X135246139Y-68771841D01*
X135246071Y-68772521D01*
X135239452Y-68836509D01*
X135239499Y-68838191D01*
X135239498Y-68838193D01*
X135239527Y-68839235D01*
X135249990Y-68902368D01*
X135250100Y-68903039D01*
X135261000Y-68971126D01*
X135262370Y-68977058D01*
X135349910Y-69505253D01*
X135350116Y-69506535D01*
X135445553Y-70122306D01*
X135445789Y-70123899D01*
X135490270Y-70437780D01*
X135490455Y-70439138D01*
X135532494Y-70761385D01*
X135532686Y-70762932D01*
X135571597Y-71093541D01*
X135571786Y-71095246D01*
X135603145Y-71397677D01*
X135604022Y-71406142D01*
X135602961Y-71437677D01*
X135610789Y-71471398D01*
X135611589Y-71479104D01*
X135611588Y-71479106D01*
X135614360Y-71505828D01*
X135614361Y-71505834D01*
X135614362Y-71505836D01*
X135622592Y-71527367D01*
X135622591Y-71527367D01*
X135625630Y-71535318D01*
X135632765Y-71566047D01*
X135649049Y-71596583D01*
X135651815Y-71603818D01*
X135651818Y-71603824D01*
X135661415Y-71628932D01*
X135661416Y-71628933D01*
X135674941Y-71647604D01*
X135683933Y-71661996D01*
X135889994Y-72048390D01*
X135891560Y-72051428D01*
X135922888Y-72114333D01*
X135933767Y-72146760D01*
X135999999Y-72499999D01*
X136000001Y-72500003D01*
X136253032Y-72803639D01*
X136270846Y-72832125D01*
X136381479Y-73077908D01*
X136382504Y-73080249D01*
X136513385Y-73387794D01*
X136514533Y-73390586D01*
X136640068Y-73706717D01*
X136641355Y-73710100D01*
X136757143Y-74028477D01*
X136758576Y-74032647D01*
X136860227Y-74346462D01*
X136861798Y-74351703D01*
X136945057Y-74653569D01*
X136946714Y-74660309D01*
X137009025Y-74948212D01*
X137010231Y-74954585D01*
X137030611Y-75080208D01*
X137031333Y-75085332D01*
X137045909Y-75207145D01*
X137046477Y-75213120D01*
X137054371Y-75324610D01*
X137054669Y-75331609D01*
X137055968Y-75423151D01*
X137055603Y-75434573D01*
X137033680Y-75715052D01*
X137032157Y-75727010D01*
X136976797Y-76039644D01*
X136974902Y-76048466D01*
X136887555Y-76393352D01*
X136885663Y-76400032D01*
X136770697Y-76766439D01*
X136768944Y-76771622D01*
X136631505Y-77150293D01*
X136629926Y-77154413D01*
X136628279Y-77158492D01*
X136625163Y-77165566D01*
X135699997Y-79100005D01*
X135679392Y-79172119D01*
X135669163Y-79197171D01*
X135496958Y-79514664D01*
X135495269Y-79517677D01*
X135220825Y-79991667D01*
X135217464Y-79997470D01*
X135194490Y-80028798D01*
X135184587Y-80054251D01*
X135179801Y-80062518D01*
X135179799Y-80062524D01*
X135170900Y-80077895D01*
X135162540Y-80108938D01*
X135158371Y-80121644D01*
X135146713Y-80151614D01*
X135146712Y-80151619D01*
X135144777Y-80169268D01*
X135141252Y-80187992D01*
X135136633Y-80205145D01*
X135136632Y-80205151D01*
X135136592Y-80237307D01*
X135135854Y-80250652D01*
X135130480Y-80299671D01*
X135128292Y-80312529D01*
X135122206Y-80375056D01*
X135122051Y-80376551D01*
X135118413Y-80409745D01*
X135115438Y-80436889D01*
X135115201Y-80439048D01*
X135114709Y-80452080D01*
X135113668Y-80462778D01*
X135111434Y-80477015D01*
X135106284Y-80538531D01*
X135106133Y-80540196D01*
X135100152Y-80601645D01*
X135099795Y-80616050D01*
X135098405Y-80632654D01*
X135096350Y-80647021D01*
X135096345Y-80647041D01*
X135092043Y-80708518D01*
X135091914Y-80710203D01*
X135086772Y-80771628D01*
X135086773Y-80771637D01*
X135086609Y-80786165D01*
X135084742Y-80812837D01*
X135083030Y-80826440D01*
X135081768Y-80833354D01*
X135078635Y-80853305D01*
X135078316Y-80855731D01*
X135078316Y-80900345D01*
X135078189Y-80905948D01*
X135078119Y-80907477D01*
X135074975Y-80952415D01*
X135075877Y-80957059D01*
X135075316Y-80969464D01*
X135075287Y-80969547D01*
X135075290Y-80970023D01*
X135073196Y-81012112D01*
X135071817Y-81025384D01*
X135070842Y-81031523D01*
X135069281Y-81090180D01*
X135069172Y-81093038D01*
X135066256Y-81151664D01*
X135066759Y-81157838D01*
X135067124Y-81171197D01*
X135065969Y-81214582D01*
X135064794Y-81228628D01*
X135064485Y-81230812D01*
X135063907Y-81291359D01*
X135063869Y-81293473D01*
X135062257Y-81354033D01*
X135062488Y-81356235D01*
X135063153Y-81370303D01*
X135062731Y-81414615D01*
X135061885Y-81426807D01*
X135061999Y-81490378D01*
X135061993Y-81491781D01*
X135061388Y-81555254D01*
X135062140Y-81567463D01*
X135062220Y-81611449D01*
X135061826Y-81617949D01*
X135062354Y-81686174D01*
X135062358Y-81686904D01*
X135062483Y-81755339D01*
X135062940Y-81761831D01*
X135065282Y-82064383D01*
X135065286Y-82065054D01*
X135065704Y-82244639D01*
X135065699Y-82246090D01*
X135064731Y-82349423D01*
X135064666Y-82350307D01*
X135064034Y-82423862D01*
X135064033Y-82423950D01*
X135064034Y-82423956D01*
X135064034Y-82423957D01*
X135063423Y-82489204D01*
X135063471Y-82489393D01*
X135063401Y-82497631D01*
X135063401Y-82497632D01*
X135062481Y-82604762D01*
X135061557Y-82618844D01*
X135061296Y-82620957D01*
X135061804Y-82681637D01*
X135061812Y-82682677D01*
X135061284Y-82744260D01*
X135062362Y-82748429D01*
X135062463Y-82760442D01*
X135063193Y-82847712D01*
X135062510Y-82861786D01*
X135062279Y-82863969D01*
X135063817Y-82924500D01*
X135063853Y-82926609D01*
X135064360Y-82987190D01*
X135064664Y-82989353D01*
X135065824Y-83003414D01*
X135067700Y-83077230D01*
X135067241Y-83091492D01*
X135067129Y-83092732D01*
X135069632Y-83153770D01*
X135069696Y-83155696D01*
X135071247Y-83216664D01*
X135071437Y-83217868D01*
X135072843Y-83232077D01*
X135075597Y-83299215D01*
X135075369Y-83313362D01*
X135075228Y-83315276D01*
X135078721Y-83375821D01*
X135078823Y-83377880D01*
X135081313Y-83438584D01*
X135081642Y-83440480D01*
X135083262Y-83454540D01*
X135088503Y-83545386D01*
X135100425Y-83752043D01*
X135100054Y-83753908D01*
X135104204Y-83817587D01*
X135104236Y-83818133D01*
X135104241Y-83818206D01*
X135108100Y-83885075D01*
X135109132Y-83893176D01*
X135131382Y-84234484D01*
X135132006Y-84244063D01*
X135131667Y-84245832D01*
X135136290Y-84309793D01*
X135136327Y-84310348D01*
X135136329Y-84310367D01*
X135140696Y-84377358D01*
X135141729Y-84385020D01*
X135171323Y-84794355D01*
X135172140Y-84805663D01*
X135171504Y-84809265D01*
X135176881Y-84871239D01*
X135176950Y-84872186D01*
X135176952Y-84872207D01*
X135181381Y-84933453D01*
X135181479Y-84933929D01*
X135183561Y-84948208D01*
X135195271Y-85083146D01*
X135196211Y-85093985D01*
X135195694Y-85097141D01*
X135201896Y-85159505D01*
X135201966Y-85160302D01*
X135201968Y-85160315D01*
X135207376Y-85222630D01*
X135209498Y-85235920D01*
X135221680Y-85358400D01*
X135222876Y-85370429D01*
X135222244Y-85374749D01*
X135229390Y-85435916D01*
X135229497Y-85436985D01*
X135235488Y-85497218D01*
X135236003Y-85499415D01*
X135238433Y-85513304D01*
X135249954Y-85611909D01*
X135251658Y-85626499D01*
X135250872Y-85633054D01*
X135259284Y-85691771D01*
X135259480Y-85693445D01*
X135259482Y-85693454D01*
X135266186Y-85750828D01*
X135268175Y-85758707D01*
X135267423Y-85758896D01*
X135270707Y-85771504D01*
X135280720Y-85841393D01*
X135281290Y-85858098D01*
X135281317Y-85858097D01*
X135281777Y-85866207D01*
X135291428Y-85917029D01*
X135291954Y-85919802D01*
X135299688Y-85973777D01*
X135304213Y-85984360D01*
X135306725Y-85997589D01*
X135306727Y-85997594D01*
X135313766Y-86034658D01*
X135315938Y-86058888D01*
X135315899Y-86063222D01*
X135318964Y-86075077D01*
X135325435Y-86100112D01*
X135327287Y-86107274D01*
X135329056Y-86115176D01*
X135337250Y-86158330D01*
X135337686Y-86161631D01*
X135338626Y-86166140D01*
X135351765Y-86203701D01*
X135354773Y-86213609D01*
X135364734Y-86252143D01*
X135366846Y-86255877D01*
X135367266Y-86256976D01*
X135367698Y-86257408D01*
X135380059Y-86290467D01*
X135382133Y-86299964D01*
X135382756Y-86302999D01*
X135394966Y-86366479D01*
X135395943Y-86379728D01*
X135396715Y-86379662D01*
X135397416Y-86387757D01*
X135409775Y-86443717D01*
X135410461Y-86447035D01*
X135416404Y-86477932D01*
X135417196Y-86486386D01*
X135417639Y-86486330D01*
X135418665Y-86494383D01*
X135432254Y-86545964D01*
X135433420Y-86550784D01*
X135444925Y-86602875D01*
X135444935Y-86602895D01*
X135446693Y-86610849D01*
X135446632Y-86611728D01*
X135447184Y-86613805D01*
X135462570Y-86661723D01*
X135464409Y-86668019D01*
X135473559Y-86702746D01*
X135476009Y-86712045D01*
X135474052Y-86781887D01*
X135434647Y-86839585D01*
X135370304Y-86866819D01*
X135301451Y-86854943D01*
X135268419Y-86831316D01*
X126680565Y-78243462D01*
X126680563Y-78243460D01*
X126621785Y-78209524D01*
X126577837Y-78184150D01*
X126565729Y-78180906D01*
X126553622Y-78177662D01*
X126553619Y-78177661D01*
X126494402Y-78161794D01*
X126463258Y-78153449D01*
X126463257Y-78153449D01*
X125319091Y-78153449D01*
X125256452Y-78136465D01*
X124457317Y-77668709D01*
X124432278Y-77649377D01*
X124326868Y-77543967D01*
X124326867Y-77543966D01*
X124326866Y-77543965D01*
X124163007Y-77434478D01*
X124162997Y-77434473D01*
X123980923Y-77359055D01*
X123980915Y-77359053D01*
X123787630Y-77320606D01*
X123787627Y-77320606D01*
X123590547Y-77320606D01*
X123510966Y-77336434D01*
X123456718Y-77335117D01*
X123066713Y-77237668D01*
X123006445Y-77202320D01*
X122976471Y-77147427D01*
X122879022Y-76757426D01*
X122877706Y-76703173D01*
X122893536Y-76623596D01*
X122893536Y-76426512D01*
X122893535Y-76426510D01*
X122871985Y-76318173D01*
X122855087Y-76233219D01*
X122779667Y-76051141D01*
X122779665Y-76051138D01*
X122779663Y-76051134D01*
X122670175Y-75887274D01*
X122670172Y-75887270D01*
X122530820Y-75747918D01*
X122530816Y-75747915D01*
X122366956Y-75638427D01*
X122366946Y-75638422D01*
X122184872Y-75563004D01*
X122184864Y-75563002D01*
X121991579Y-75524555D01*
X121991576Y-75524555D01*
X121794496Y-75524555D01*
X121794493Y-75524555D01*
X121601207Y-75563002D01*
X121601199Y-75563004D01*
X121419125Y-75638422D01*
X121419115Y-75638427D01*
X121255255Y-75747915D01*
X121255251Y-75747918D01*
X120747459Y-76255710D01*
X120686136Y-76289195D01*
X120616444Y-76284211D01*
X120560511Y-76242339D01*
X120536094Y-76176875D01*
X120543509Y-76124929D01*
X120785957Y-75470939D01*
X120814539Y-75426367D01*
X120874124Y-75366784D01*
X120983616Y-75202917D01*
X121059036Y-75020839D01*
X121097485Y-74827543D01*
X121097485Y-74630463D01*
X121097485Y-74630460D01*
X121097484Y-74630458D01*
X121067954Y-74482001D01*
X121059036Y-74437167D01*
X120983616Y-74255089D01*
X120983614Y-74255086D01*
X120983612Y-74255082D01*
X120874124Y-74091222D01*
X120874121Y-74091218D01*
X120734769Y-73951866D01*
X120734765Y-73951863D01*
X120570905Y-73842375D01*
X120570895Y-73842370D01*
X120388821Y-73766952D01*
X120388813Y-73766950D01*
X120195528Y-73728503D01*
X120195525Y-73728503D01*
X119998445Y-73728503D01*
X119998442Y-73728503D01*
X119805156Y-73766950D01*
X119805148Y-73766952D01*
X119623074Y-73842370D01*
X119623064Y-73842375D01*
X119459204Y-73951863D01*
X119459200Y-73951866D01*
X118754162Y-74656904D01*
X118754159Y-74656908D01*
X118644671Y-74820768D01*
X118644666Y-74820778D01*
X118569248Y-75002852D01*
X118569246Y-75002860D01*
X118530799Y-75196144D01*
X118530799Y-75393233D01*
X118569246Y-75586517D01*
X118569248Y-75586525D01*
X118644666Y-75768599D01*
X118644671Y-75768609D01*
X118754158Y-75932468D01*
X118754159Y-75932469D01*
X118754160Y-75932470D01*
X118859570Y-76037880D01*
X118878901Y-76062919D01*
X119346657Y-76862051D01*
X119363642Y-76924690D01*
X119363642Y-79073451D01*
X119376577Y-79121724D01*
X119394343Y-79188029D01*
X119453653Y-79290756D01*
X124483818Y-84320921D01*
X124501665Y-84342964D01*
X124526612Y-84363715D01*
X124939181Y-84776284D01*
X125041908Y-84835594D01*
X125066121Y-84842081D01*
X125092335Y-84849105D01*
X125092346Y-84849112D01*
X125139534Y-84873548D01*
X125327835Y-85030178D01*
X125710227Y-85348254D01*
X125731244Y-85370696D01*
X125795001Y-85458450D01*
X125795004Y-85458453D01*
X125846119Y-85509568D01*
X125868169Y-85539498D01*
X126111446Y-86001743D01*
X126549125Y-86833369D01*
X126551026Y-86836980D01*
X126565295Y-86894731D01*
X126565295Y-87746240D01*
X126545610Y-87813279D01*
X126528976Y-87833921D01*
X119887681Y-94475216D01*
X119826358Y-94508701D01*
X119756666Y-94503717D01*
X119712319Y-94475216D01*
X119076616Y-93839513D01*
X119076614Y-93839511D01*
X119010627Y-93801413D01*
X118973888Y-93780201D01*
X118961780Y-93776957D01*
X118949673Y-93773713D01*
X118949672Y-93773712D01*
X118860458Y-93749808D01*
X118820664Y-93731069D01*
X118444565Y-93463473D01*
X118425030Y-93446210D01*
X118307384Y-93317822D01*
X118307382Y-93317820D01*
X118156391Y-93207109D01*
X118156386Y-93207107D01*
X117986703Y-93127981D01*
X117986698Y-93127979D01*
X117876337Y-93100975D01*
X117804833Y-93083478D01*
X117785038Y-93082613D01*
X117692271Y-93078563D01*
X117626155Y-93055972D01*
X117582747Y-93001223D01*
X117575830Y-92931696D01*
X117607600Y-92869467D01*
X117613897Y-92863267D01*
X117696976Y-92787141D01*
X117807687Y-92636149D01*
X117886815Y-92466458D01*
X117931318Y-92284593D01*
X117939485Y-92097539D01*
X117911002Y-91912485D01*
X117846965Y-91736545D01*
X117834086Y-91715321D01*
X117749839Y-91576484D01*
X117749829Y-91576471D01*
X117623344Y-91438437D01*
X117623342Y-91438435D01*
X117472351Y-91327724D01*
X117472346Y-91327722D01*
X117302663Y-91248596D01*
X117302656Y-91248594D01*
X117298005Y-91247456D01*
X117237565Y-91212402D01*
X117205671Y-91150237D01*
X117212449Y-91080697D01*
X117251134Y-91029296D01*
X117269478Y-91014964D01*
X117316042Y-90978584D01*
X117444914Y-90840386D01*
X117550581Y-90683728D01*
X117630440Y-90512470D01*
X117682525Y-90330827D01*
X117705554Y-90143273D01*
X117698960Y-89954425D01*
X117662903Y-89768934D01*
X117598274Y-89591368D01*
X117595286Y-89585978D01*
X117523812Y-89457032D01*
X117506664Y-89426096D01*
X117390326Y-89277192D01*
X117367171Y-89255600D01*
X117252128Y-89148320D01*
X117200840Y-89113726D01*
X117095470Y-89042653D01*
X116924212Y-88962794D01*
X116924207Y-88962792D01*
X116924203Y-88962791D01*
X116742570Y-88910708D01*
X116742571Y-88910708D01*
X116671100Y-88901933D01*
X116555015Y-88887680D01*
X116555011Y-88887680D01*
X116366172Y-88894273D01*
X116366171Y-88894273D01*
X116180678Y-88930330D01*
X116180670Y-88930333D01*
X114593581Y-89507985D01*
X114593568Y-89507990D01*
X114428302Y-89599598D01*
X114428298Y-89599601D01*
X114279395Y-89715938D01*
X114150524Y-89854135D01*
X114044857Y-90010794D01*
X113965000Y-90182047D01*
X113964995Y-90182060D01*
X113912912Y-90363692D01*
X113889884Y-90551250D01*
X113889884Y-90551255D01*
X113896477Y-90740091D01*
X113896477Y-90740092D01*
X113917858Y-90850087D01*
X113932535Y-90925588D01*
X113951824Y-90978584D01*
X113997161Y-91103149D01*
X113997164Y-91103156D01*
X114079496Y-91251689D01*
X114088774Y-91268426D01*
X114205112Y-91417330D01*
X114343310Y-91546202D01*
X114499968Y-91651869D01*
X114671226Y-91731728D01*
X114852869Y-91783814D01*
X115040423Y-91806842D01*
X115122743Y-91803967D01*
X115190427Y-91821299D01*
X115237997Y-91872474D01*
X115250348Y-91941243D01*
X115227072Y-92001208D01*
X115224234Y-92005078D01*
X115224231Y-92005084D01*
X115145106Y-92174764D01*
X115145103Y-92174774D01*
X115100602Y-92356635D01*
X115092434Y-92543686D01*
X115092435Y-92543692D01*
X115114225Y-92685264D01*
X115120919Y-92728750D01*
X115120919Y-92728751D01*
X115121635Y-92730718D01*
X115121835Y-92732324D01*
X115122431Y-92734650D01*
X115122134Y-92734726D01*
X115128476Y-92785627D01*
X115034201Y-93715349D01*
X115027356Y-93745248D01*
X114951435Y-93953842D01*
X114951426Y-93953871D01*
X114850852Y-94329234D01*
X114850847Y-94329256D01*
X114783367Y-94711964D01*
X114783367Y-94711969D01*
X114756620Y-95017715D01*
X114731168Y-95082784D01*
X114674578Y-95123763D01*
X114604816Y-95127642D01*
X114544031Y-95093189D01*
X114514375Y-95042719D01*
X113728599Y-92437756D01*
X113726811Y-92431177D01*
X113643389Y-92087264D01*
X113590598Y-91896727D01*
X113544995Y-91732133D01*
X113544867Y-91731730D01*
X113431469Y-91373330D01*
X113431463Y-91373311D01*
X113301811Y-91014964D01*
X113155059Y-90661269D01*
X112990228Y-90316402D01*
X112806337Y-89984537D01*
X112706939Y-89824786D01*
X112602408Y-89669851D01*
X112492622Y-89520255D01*
X112377459Y-89376520D01*
X112256796Y-89239167D01*
X112130511Y-89108718D01*
X112076858Y-89058725D01*
X111998502Y-88985714D01*
X111998479Y-88985693D01*
X111860599Y-88870633D01*
X111860562Y-88870604D01*
X111716703Y-88764022D01*
X111716683Y-88764008D01*
X111566720Y-88666419D01*
X111566713Y-88666415D01*
X111538590Y-88650557D01*
X111410468Y-88578311D01*
X111410466Y-88578310D01*
X111410446Y-88578300D01*
X111247886Y-88500253D01*
X111247849Y-88500237D01*
X111078822Y-88432751D01*
X111078820Y-88432750D01*
X110903148Y-88376328D01*
X110903145Y-88376327D01*
X110903138Y-88376325D01*
X110774814Y-88344792D01*
X110720747Y-88331506D01*
X110720743Y-88331505D01*
X110670781Y-88322872D01*
X110531500Y-88298808D01*
X110335288Y-88278758D01*
X110335286Y-88278757D01*
X110335277Y-88278757D01*
X110131977Y-88271874D01*
X106477313Y-88458812D01*
X106475250Y-88458900D01*
X102826184Y-88584664D01*
X102823917Y-88584722D01*
X99170236Y-88643788D01*
X99167785Y-88643803D01*
X95499233Y-88630578D01*
X95159194Y-88650354D01*
X95153249Y-88650557D01*
X94818859Y-88653940D01*
X94812974Y-88653859D01*
X94481467Y-88641469D01*
X94475673Y-88641117D01*
X94147111Y-88613395D01*
X94141435Y-88612784D01*
X93816040Y-88570171D01*
X93810507Y-88569319D01*
X93488424Y-88512250D01*
X93483054Y-88511176D01*
X93164442Y-88440085D01*
X93159251Y-88438809D01*
X92844261Y-88354123D01*
X92839262Y-88352665D01*
X92528137Y-88254838D01*
X92523336Y-88253220D01*
X92216191Y-88142666D01*
X92211593Y-88140907D01*
X91908650Y-88018075D01*
X91904257Y-88016195D01*
X91605658Y-87881505D01*
X91601468Y-87879520D01*
X91307435Y-87733423D01*
X91303444Y-87731349D01*
X91014139Y-87574271D01*
X91010343Y-87572122D01*
X90726005Y-87404532D01*
X90722396Y-87402321D01*
X90444018Y-87225174D01*
X90438950Y-87221771D01*
X89895802Y-86837315D01*
X89889609Y-86832634D01*
X89370150Y-86413790D01*
X89364555Y-86408997D01*
X89072166Y-86143091D01*
X88869491Y-85958773D01*
X88864429Y-85953901D01*
X88821847Y-85910515D01*
X88395275Y-85475883D01*
X88390671Y-85470928D01*
X87949014Y-84968799D01*
X87944824Y-84963773D01*
X87555961Y-84471285D01*
X87532160Y-84441141D01*
X87528294Y-84435974D01*
X87146184Y-83896546D01*
X87142620Y-83891229D01*
X86793609Y-83340307D01*
X86788448Y-83331354D01*
X86599745Y-82970058D01*
X86371345Y-82532758D01*
X86369775Y-82529647D01*
X86211722Y-82205044D01*
X85973244Y-81715266D01*
X85971719Y-81712012D01*
X85941416Y-81644893D01*
X85763593Y-81251032D01*
X92299500Y-81251032D01*
X92299500Y-84290537D01*
X92311131Y-84349014D01*
X92311132Y-84349015D01*
X92355447Y-84415337D01*
X92421769Y-84459652D01*
X92421770Y-84459653D01*
X92480247Y-84471284D01*
X92480250Y-84471285D01*
X92480252Y-84471285D01*
X95488419Y-84471285D01*
X95497851Y-84471644D01*
X95530290Y-84474119D01*
X96514345Y-84355260D01*
X96514352Y-84355257D01*
X96519398Y-84354218D01*
X96519490Y-84354668D01*
X96548389Y-84350500D01*
X116130659Y-84350500D01*
X116197698Y-84370185D01*
X116201531Y-84372750D01*
X116444173Y-84541757D01*
X116875345Y-84842081D01*
X116922643Y-84875025D01*
X116941159Y-84890834D01*
X116948768Y-84898748D01*
X116958108Y-84912726D01*
X117064399Y-85019017D01*
X117065222Y-85019873D01*
X117065974Y-85021317D01*
X117082849Y-85043175D01*
X117550605Y-85842307D01*
X117567590Y-85904946D01*
X117567590Y-87477400D01*
X117585717Y-87545053D01*
X117598290Y-87591975D01*
X117598290Y-87591976D01*
X117605262Y-87604051D01*
X117657601Y-87694704D01*
X118917141Y-88954244D01*
X118956322Y-88976865D01*
X119019869Y-89013554D01*
X119134446Y-89044255D01*
X122190373Y-89044255D01*
X122218319Y-89048426D01*
X122304925Y-89044255D01*
X123275104Y-89044255D01*
X123389681Y-89013554D01*
X123404362Y-89005077D01*
X123417419Y-89001239D01*
X123425747Y-88995303D01*
X123460396Y-88988606D01*
X123656019Y-88979185D01*
X123681378Y-88980567D01*
X123767793Y-88994255D01*
X123767794Y-88994255D01*
X124019716Y-88994255D01*
X124019717Y-88994255D01*
X124268540Y-88954845D01*
X124508134Y-88876996D01*
X124732600Y-88762625D01*
X124936411Y-88614548D01*
X125114548Y-88436411D01*
X125262625Y-88232600D01*
X125376996Y-88008134D01*
X125454845Y-87768540D01*
X125494255Y-87519717D01*
X125494255Y-87267793D01*
X125454845Y-87018970D01*
X125376996Y-86779376D01*
X125376994Y-86779373D01*
X125376994Y-86779371D01*
X125320268Y-86668041D01*
X125262625Y-86554910D01*
X125212799Y-86486330D01*
X125114553Y-86351105D01*
X125114549Y-86351100D01*
X124936409Y-86172960D01*
X124936404Y-86172956D01*
X124732603Y-86024887D01*
X124732602Y-86024886D01*
X124732600Y-86024885D01*
X124642987Y-85979225D01*
X124508138Y-85910515D01*
X124268540Y-85832665D01*
X124255578Y-85830612D01*
X124019717Y-85793255D01*
X123767793Y-85793255D01*
X123650775Y-85811789D01*
X123518969Y-85832665D01*
X123279371Y-85910515D01*
X123054906Y-86024887D01*
X122851105Y-86172956D01*
X122851100Y-86172960D01*
X122672960Y-86351100D01*
X122672956Y-86351105D01*
X122524887Y-86554906D01*
X122410515Y-86779373D01*
X122332664Y-87018972D01*
X122317005Y-87117838D01*
X122314156Y-87131091D01*
X122062814Y-88051907D01*
X122026171Y-88111397D01*
X121963182Y-88141633D01*
X121943190Y-88143255D01*
X119431720Y-88143255D01*
X119364681Y-88123570D01*
X119344039Y-88106936D01*
X118504909Y-87267806D01*
X118471424Y-87206483D01*
X118468590Y-87180125D01*
X118468590Y-86690165D01*
X118488275Y-86623126D01*
X118541079Y-86577371D01*
X118610237Y-86567427D01*
X118673793Y-86596452D01*
X118695691Y-86621273D01*
X118701279Y-86629635D01*
X118754161Y-86708780D01*
X118893514Y-86848133D01*
X118893518Y-86848136D01*
X119057378Y-86957624D01*
X119057382Y-86957626D01*
X119057385Y-86957628D01*
X119239463Y-87033048D01*
X119346229Y-87054285D01*
X119432754Y-87071496D01*
X119432757Y-87071497D01*
X119432759Y-87071497D01*
X119629841Y-87071497D01*
X119629842Y-87071496D01*
X119823135Y-87033048D01*
X120005213Y-86957628D01*
X120169080Y-86848136D01*
X120874124Y-86143092D01*
X120983616Y-85979225D01*
X121059036Y-85797147D01*
X121097485Y-85603851D01*
X121097485Y-85406771D01*
X121097485Y-85406768D01*
X121097484Y-85406766D01*
X121090310Y-85370698D01*
X121059036Y-85213475D01*
X120983616Y-85031397D01*
X120983614Y-85031394D01*
X120983612Y-85031390D01*
X120874124Y-84867530D01*
X120874121Y-84867526D01*
X120734769Y-84728174D01*
X120734765Y-84728171D01*
X120570905Y-84618683D01*
X120570895Y-84618678D01*
X120388821Y-84543260D01*
X120388813Y-84543258D01*
X120195528Y-84504811D01*
X120195525Y-84504811D01*
X119998445Y-84504811D01*
X119998442Y-84504811D01*
X119805156Y-84543258D01*
X119805148Y-84543260D01*
X119623074Y-84618678D01*
X119623064Y-84618683D01*
X119459204Y-84728171D01*
X119459200Y-84728174D01*
X118951407Y-85235967D01*
X118890084Y-85269452D01*
X118820392Y-85264468D01*
X118764459Y-85222596D01*
X118740042Y-85157132D01*
X118747458Y-85105183D01*
X118989905Y-84451195D01*
X119018487Y-84406623D01*
X119078072Y-84347040D01*
X119187564Y-84183173D01*
X119262984Y-84001095D01*
X119301433Y-83807799D01*
X119301433Y-83610719D01*
X119301433Y-83610716D01*
X119301432Y-83610714D01*
X119288437Y-83545386D01*
X119262984Y-83417423D01*
X119187564Y-83235345D01*
X119187562Y-83235342D01*
X119187560Y-83235338D01*
X119078072Y-83071478D01*
X119078069Y-83071474D01*
X118938717Y-82932122D01*
X118938713Y-82932119D01*
X118774853Y-82822631D01*
X118774843Y-82822626D01*
X118592769Y-82747208D01*
X118592761Y-82747206D01*
X118399476Y-82708759D01*
X118399473Y-82708759D01*
X118202393Y-82708759D01*
X118202390Y-82708759D01*
X118009104Y-82747206D01*
X118009096Y-82747208D01*
X117827022Y-82822626D01*
X117827012Y-82822631D01*
X117663153Y-82932119D01*
X117663148Y-82932123D01*
X117625213Y-82970058D01*
X117575850Y-83000307D01*
X116966247Y-83198373D01*
X116896406Y-83200368D01*
X116836573Y-83164287D01*
X116805746Y-83101586D01*
X116813711Y-83032171D01*
X116840249Y-82992761D01*
X117282018Y-82550992D01*
X117282021Y-82550989D01*
X117391513Y-82387122D01*
X117466933Y-82205044D01*
X117505382Y-82011748D01*
X117505382Y-81814668D01*
X117505382Y-81814665D01*
X117505381Y-81814663D01*
X117493581Y-81755339D01*
X117466933Y-81621372D01*
X117391513Y-81439294D01*
X117391511Y-81439291D01*
X117391509Y-81439287D01*
X117282021Y-81275427D01*
X117282018Y-81275423D01*
X117142666Y-81136071D01*
X117142662Y-81136068D01*
X116978802Y-81026580D01*
X116978792Y-81026575D01*
X116796718Y-80951157D01*
X116796710Y-80951155D01*
X116603425Y-80912708D01*
X116603422Y-80912708D01*
X116406342Y-80912708D01*
X116406339Y-80912708D01*
X116213053Y-80951155D01*
X116213045Y-80951157D01*
X116030971Y-81026575D01*
X116030963Y-81026579D01*
X115893169Y-81118650D01*
X115826492Y-81139527D01*
X115759112Y-81121042D01*
X115712422Y-81069063D01*
X115701246Y-81000093D01*
X115729132Y-80936029D01*
X115736598Y-80927866D01*
X116227575Y-80436889D01*
X116265155Y-80390254D01*
X116324881Y-80259475D01*
X116324882Y-80259470D01*
X116345342Y-80117157D01*
X116324882Y-79974843D01*
X116324881Y-79974838D01*
X116265155Y-79844059D01*
X116227575Y-79797424D01*
X115804846Y-79374695D01*
X115804845Y-79374695D01*
X114825988Y-80353553D01*
X114825988Y-80347339D01*
X114798729Y-80245606D01*
X114746068Y-80154394D01*
X114671594Y-80079920D01*
X114580382Y-80027259D01*
X114478649Y-80000000D01*
X114472433Y-80000000D01*
X115451292Y-79021141D01*
X115028563Y-78598412D01*
X114981928Y-78560832D01*
X114851149Y-78501106D01*
X114851144Y-78501105D01*
X114708831Y-78480645D01*
X114566517Y-78501105D01*
X114566512Y-78501106D01*
X114435733Y-78560832D01*
X114389093Y-78598416D01*
X113683526Y-79303983D01*
X113683526Y-79303984D01*
X114379540Y-80000000D01*
X114373327Y-80000000D01*
X114271594Y-80027259D01*
X114180382Y-80079920D01*
X114105908Y-80154394D01*
X114053247Y-80245606D01*
X114025988Y-80347339D01*
X114025988Y-80353552D01*
X113329972Y-79657538D01*
X113329971Y-79657538D01*
X112624404Y-80363105D01*
X112586820Y-80409745D01*
X112527094Y-80540524D01*
X112527093Y-80540529D01*
X112506633Y-80682843D01*
X112527093Y-80825156D01*
X112527094Y-80825161D01*
X112586820Y-80955940D01*
X112624400Y-81002575D01*
X113047129Y-81425304D01*
X114025988Y-80446445D01*
X114025988Y-80452661D01*
X114053247Y-80554394D01*
X114105908Y-80645606D01*
X114180382Y-80720080D01*
X114271594Y-80772741D01*
X114373327Y-80800000D01*
X114379542Y-80800000D01*
X113400683Y-81778857D01*
X113400683Y-81778858D01*
X113823412Y-82201587D01*
X113870047Y-82239167D01*
X114000826Y-82298893D01*
X114000831Y-82298894D01*
X114143145Y-82319354D01*
X114285458Y-82298894D01*
X114285463Y-82298893D01*
X114416242Y-82239167D01*
X114462877Y-82201587D01*
X114953854Y-81710610D01*
X115015177Y-81677125D01*
X115084868Y-81682109D01*
X115140802Y-81723980D01*
X115165219Y-81789445D01*
X115150367Y-81857718D01*
X115144638Y-81867181D01*
X115052567Y-82004975D01*
X115052563Y-82004983D01*
X114977145Y-82187057D01*
X114977143Y-82187065D01*
X114938696Y-82380349D01*
X114938696Y-82577438D01*
X114977143Y-82770722D01*
X114977145Y-82770730D01*
X115052563Y-82952804D01*
X115052568Y-82952814D01*
X115162056Y-83116674D01*
X115162059Y-83116678D01*
X115283200Y-83237819D01*
X115316685Y-83299142D01*
X115311701Y-83368834D01*
X115269829Y-83424767D01*
X115204365Y-83449184D01*
X115195519Y-83449500D01*
X96665998Y-83449500D01*
X96598959Y-83429815D01*
X96567749Y-83401151D01*
X95726251Y-82308289D01*
X95700947Y-82243162D01*
X95700500Y-82232638D01*
X95700500Y-81251034D01*
X95700499Y-81251032D01*
X95688868Y-81192555D01*
X95688867Y-81192554D01*
X95644552Y-81126232D01*
X95578230Y-81081917D01*
X95578229Y-81081916D01*
X95519752Y-81070285D01*
X95519748Y-81070285D01*
X92480252Y-81070285D01*
X92480247Y-81070285D01*
X92421770Y-81081916D01*
X92421769Y-81081917D01*
X92355447Y-81126232D01*
X92311132Y-81192554D01*
X92311131Y-81192555D01*
X92299500Y-81251032D01*
X85763593Y-81251032D01*
X85598747Y-80885913D01*
X85597275Y-80882517D01*
X85586134Y-80855731D01*
X85249114Y-80045421D01*
X85247707Y-80041883D01*
X85238862Y-80018614D01*
X84925696Y-79194711D01*
X84924357Y-79191010D01*
X84923332Y-79188030D01*
X84629800Y-78334602D01*
X84628532Y-78330709D01*
X84426093Y-77672070D01*
X84416141Y-77639690D01*
X92000000Y-77639690D01*
X92000000Y-77901879D01*
X92034220Y-78161794D01*
X92034222Y-78161805D01*
X92102075Y-78415040D01*
X92202404Y-78657256D01*
X92202409Y-78657267D01*
X92333488Y-78884301D01*
X92333494Y-78884309D01*
X92420080Y-78997150D01*
X93517037Y-77900193D01*
X93534075Y-77963778D01*
X93599901Y-78077792D01*
X93692993Y-78170884D01*
X93807007Y-78236710D01*
X93870590Y-78253747D01*
X92773633Y-79350702D01*
X92773633Y-79350703D01*
X92886475Y-79437290D01*
X92886483Y-79437296D01*
X93113517Y-79568375D01*
X93113528Y-79568380D01*
X93355744Y-79668709D01*
X93608979Y-79736562D01*
X93608990Y-79736564D01*
X93868905Y-79770784D01*
X93868920Y-79770785D01*
X94131080Y-79770785D01*
X94131094Y-79770784D01*
X94391009Y-79736564D01*
X94391020Y-79736562D01*
X94644255Y-79668709D01*
X94886471Y-79568380D01*
X94886482Y-79568375D01*
X95113516Y-79437296D01*
X95113534Y-79437284D01*
X95226365Y-79350704D01*
X95226365Y-79350702D01*
X95215965Y-79340302D01*
X94129409Y-78253747D01*
X94192993Y-78236710D01*
X94307007Y-78170884D01*
X94400099Y-78077792D01*
X94465925Y-77963778D01*
X94482962Y-77900195D01*
X95579917Y-78997150D01*
X95579919Y-78997150D01*
X95666499Y-78884319D01*
X95666511Y-78884301D01*
X95797590Y-78657267D01*
X95797595Y-78657256D01*
X95897924Y-78415040D01*
X95965777Y-78161805D01*
X95965779Y-78161794D01*
X95999999Y-77901879D01*
X96000000Y-77901865D01*
X96000000Y-77639704D01*
X95999999Y-77639690D01*
X95965779Y-77379775D01*
X95965777Y-77379764D01*
X95897924Y-77126529D01*
X95797595Y-76884313D01*
X95797590Y-76884302D01*
X95666511Y-76657268D01*
X95666505Y-76657260D01*
X95579918Y-76544418D01*
X95579917Y-76544418D01*
X94482962Y-77641374D01*
X94465925Y-77577792D01*
X94400099Y-77463778D01*
X94307007Y-77370686D01*
X94192993Y-77304860D01*
X94129407Y-77287822D01*
X95226365Y-76190865D01*
X95113524Y-76104279D01*
X95113516Y-76104273D01*
X94886482Y-75973194D01*
X94886471Y-75973189D01*
X94644255Y-75872860D01*
X94391020Y-75805007D01*
X94391009Y-75805005D01*
X94131094Y-75770785D01*
X93868905Y-75770785D01*
X93608990Y-75805005D01*
X93608979Y-75805007D01*
X93355744Y-75872860D01*
X93113528Y-75973189D01*
X93113517Y-75973194D01*
X92886471Y-76104281D01*
X92773633Y-76190864D01*
X92773633Y-76190865D01*
X93870590Y-77287822D01*
X93807007Y-77304860D01*
X93692993Y-77370686D01*
X93599901Y-77463778D01*
X93534075Y-77577792D01*
X93517037Y-77641375D01*
X92420080Y-76544418D01*
X92420079Y-76544418D01*
X92333496Y-76657256D01*
X92202409Y-76884302D01*
X92202404Y-76884313D01*
X92102075Y-77126529D01*
X92034222Y-77379764D01*
X92034220Y-77379775D01*
X92000000Y-77639690D01*
X84416141Y-77639690D01*
X84362709Y-77465850D01*
X84361531Y-77461769D01*
X84270932Y-77126529D01*
X84125757Y-76589341D01*
X84124692Y-76585100D01*
X84087816Y-76426510D01*
X83920259Y-75705903D01*
X83919325Y-75701519D01*
X83747534Y-74816415D01*
X83746736Y-74811837D01*
X83608892Y-73921696D01*
X83608240Y-73916862D01*
X83584519Y-73710100D01*
X83505627Y-73022465D01*
X83505157Y-73017457D01*
X83491515Y-72832125D01*
X83439077Y-72119711D01*
X83438805Y-72114518D01*
X83438799Y-72114333D01*
X83410542Y-71214156D01*
X83410491Y-71208793D01*
X83411857Y-71095246D01*
X83421341Y-70306680D01*
X83421529Y-70301201D01*
X83472949Y-69395289D01*
X83470772Y-69151956D01*
X83470869Y-69145842D01*
X83480520Y-68909034D01*
X83480921Y-68902918D01*
X83492774Y-68771841D01*
X83502020Y-68669597D01*
X83502716Y-68663560D01*
X83514200Y-68581613D01*
X83534927Y-68433712D01*
X83535894Y-68427847D01*
X83578876Y-68201532D01*
X83580106Y-68195805D01*
X83633528Y-67973045D01*
X83634992Y-67967516D01*
X83684236Y-67797648D01*
X115599500Y-67797648D01*
X115599500Y-68002351D01*
X115631522Y-68204534D01*
X115694781Y-68399223D01*
X115742282Y-68492447D01*
X115785545Y-68577356D01*
X115787715Y-68581613D01*
X115908028Y-68747213D01*
X116052786Y-68891971D01*
X116161736Y-68971126D01*
X116218390Y-69012287D01*
X116322057Y-69065108D01*
X116400776Y-69105218D01*
X116400778Y-69105218D01*
X116400781Y-69105220D01*
X116505137Y-69139127D01*
X116595465Y-69168477D01*
X116696557Y-69184488D01*
X116797648Y-69200500D01*
X116797649Y-69200500D01*
X117002351Y-69200500D01*
X117002352Y-69200500D01*
X117204534Y-69168477D01*
X117399219Y-69105220D01*
X117581610Y-69012287D01*
X117723727Y-68909034D01*
X117747213Y-68891971D01*
X117747215Y-68891968D01*
X117747219Y-68891966D01*
X117891966Y-68747219D01*
X117891968Y-68747215D01*
X117891971Y-68747213D01*
X117966085Y-68645202D01*
X118012287Y-68581610D01*
X118105220Y-68399219D01*
X118168477Y-68204534D01*
X118200500Y-68002352D01*
X118200500Y-67797648D01*
X118192698Y-67748390D01*
X118168477Y-67595465D01*
X118132165Y-67483709D01*
X118105220Y-67400781D01*
X118105218Y-67400778D01*
X118105218Y-67400776D01*
X118054709Y-67301648D01*
X118012287Y-67218390D01*
X118004556Y-67207749D01*
X117891971Y-67052786D01*
X117747213Y-66908028D01*
X117581613Y-66787715D01*
X117581612Y-66787714D01*
X117581610Y-66787713D01*
X117485148Y-66738563D01*
X117399223Y-66694781D01*
X117204534Y-66631522D01*
X117029995Y-66603878D01*
X117002352Y-66599500D01*
X116797648Y-66599500D01*
X116773329Y-66603351D01*
X116595465Y-66631522D01*
X116400776Y-66694781D01*
X116218386Y-66787715D01*
X116052786Y-66908028D01*
X115908028Y-67052786D01*
X115787715Y-67218386D01*
X115694781Y-67400776D01*
X115631522Y-67595465D01*
X115599500Y-67797648D01*
X83684236Y-67797648D01*
X83698516Y-67748390D01*
X83700208Y-67743019D01*
X83703191Y-67734251D01*
X83773491Y-67527614D01*
X83775363Y-67522490D01*
X83858098Y-67310793D01*
X83860145Y-67305873D01*
X83951985Y-67097994D01*
X83954178Y-67093300D01*
X84054807Y-66889268D01*
X84057104Y-66884842D01*
X84166186Y-66684739D01*
X84168613Y-66680492D01*
X84216721Y-66600000D01*
X84285775Y-66484461D01*
X84288262Y-66480475D01*
X84412618Y-66289421D01*
X84416453Y-66283869D01*
X84689032Y-65911551D01*
X84694301Y-65904853D01*
X84993194Y-65550805D01*
X84998534Y-65544879D01*
X85321689Y-65208785D01*
X85327057Y-65203532D01*
X85418371Y-65119410D01*
X85671673Y-64886058D01*
X85676977Y-64881444D01*
X86040267Y-64583220D01*
X86045534Y-64579130D01*
X86424668Y-64300803D01*
X86429870Y-64297188D01*
X86821957Y-64039428D01*
X86827184Y-64036175D01*
X87229366Y-63799605D01*
X87234598Y-63796696D01*
X87646636Y-63580553D01*
X89607233Y-62524697D01*
X89609179Y-62523674D01*
X91111336Y-61752155D01*
X115300000Y-61752155D01*
X115300000Y-62650000D01*
X116524722Y-62650000D01*
X116480667Y-62726306D01*
X116450000Y-62840756D01*
X116450000Y-62959244D01*
X116480667Y-63073694D01*
X116524722Y-63150000D01*
X115300000Y-63150000D01*
X115300000Y-64047844D01*
X115306401Y-64107372D01*
X115306403Y-64107379D01*
X115356645Y-64242086D01*
X115356649Y-64242093D01*
X115442809Y-64357187D01*
X115442812Y-64357190D01*
X115557906Y-64443350D01*
X115557913Y-64443354D01*
X115692620Y-64493596D01*
X115692627Y-64493598D01*
X115752155Y-64499999D01*
X115752172Y-64500000D01*
X116650000Y-64500000D01*
X116650000Y-63275277D01*
X116726306Y-63319333D01*
X116840756Y-63350000D01*
X116959244Y-63350000D01*
X117073694Y-63319333D01*
X117150000Y-63275277D01*
X117150000Y-64500000D01*
X118047828Y-64500000D01*
X118047844Y-64499999D01*
X118107372Y-64493598D01*
X118107379Y-64493596D01*
X118242086Y-64443354D01*
X118242093Y-64443350D01*
X118357187Y-64357190D01*
X118357190Y-64357187D01*
X118443350Y-64242093D01*
X118443354Y-64242086D01*
X118493596Y-64107379D01*
X118493598Y-64107372D01*
X118499999Y-64047844D01*
X118500000Y-64047827D01*
X118500000Y-63150000D01*
X117275278Y-63150000D01*
X117319333Y-63073694D01*
X117350000Y-62959244D01*
X117350000Y-62840756D01*
X117319333Y-62726306D01*
X117275278Y-62650000D01*
X118500000Y-62650000D01*
X118500000Y-61752172D01*
X118499999Y-61752155D01*
X118493598Y-61692627D01*
X118493596Y-61692620D01*
X118443354Y-61557913D01*
X118443350Y-61557906D01*
X118357190Y-61442812D01*
X118357187Y-61442809D01*
X118242093Y-61356649D01*
X118242086Y-61356645D01*
X118107379Y-61306403D01*
X118107372Y-61306401D01*
X118047844Y-61300000D01*
X117150000Y-61300000D01*
X117150000Y-62524722D01*
X117073694Y-62480667D01*
X116959244Y-62450000D01*
X116840756Y-62450000D01*
X116726306Y-62480667D01*
X116650000Y-62524722D01*
X116650000Y-61300000D01*
X115752155Y-61300000D01*
X115692627Y-61306401D01*
X115692620Y-61306403D01*
X115557913Y-61356645D01*
X115557906Y-61356649D01*
X115442812Y-61442809D01*
X115442809Y-61442812D01*
X115356649Y-61557906D01*
X115356645Y-61557913D01*
X115306403Y-61692620D01*
X115306401Y-61692627D01*
X115300000Y-61752155D01*
X91111336Y-61752155D01*
X91591039Y-61505776D01*
X91593280Y-61504656D01*
X93597948Y-60529610D01*
X93600483Y-60528414D01*
X95628849Y-59601477D01*
X95631704Y-59600218D01*
X97684355Y-58726786D01*
X97687493Y-58725503D01*
X99765296Y-57910842D01*
X99768766Y-57909544D01*
X101872354Y-57159016D01*
X101876204Y-57157714D01*
X104007519Y-56476248D01*
X104009478Y-56475641D01*
X105923930Y-55901499D01*
X105925153Y-55901140D01*
X107850884Y-55348048D01*
X107852987Y-55347466D01*
X109789420Y-54830712D01*
X109792515Y-54829928D01*
X111740192Y-54364450D01*
X111744157Y-54363573D01*
X113703994Y-53964231D01*
X113707576Y-53963557D01*
X114691029Y-53793570D01*
X114693729Y-53793134D01*
X115680816Y-53645210D01*
X115683727Y-53644809D01*
X116673861Y-53520920D01*
X116677070Y-53520561D01*
X117670313Y-53422568D01*
X117673699Y-53422281D01*
X118670127Y-53352043D01*
X118673741Y-53351842D01*
X119672856Y-53311244D01*
X119677392Y-53311144D01*
X119909386Y-53310212D01*
X120270248Y-53308764D01*
X120272324Y-53308773D01*
G37*
G04 #@! TD.AperFunction*
G04 #@! TA.AperFunction,Conductor*
G36*
X153233474Y-122796364D02*
G01*
X153235298Y-122798727D01*
X153777556Y-123725145D01*
X153778778Y-123734016D01*
X153776100Y-123738943D01*
X152987450Y-124602828D01*
X152979341Y-124606628D01*
X152974320Y-124605745D01*
X152192302Y-124280845D01*
X152185977Y-124274506D01*
X152185821Y-124265974D01*
X152729079Y-122800569D01*
X152735168Y-122794004D01*
X152740049Y-122792937D01*
X153225201Y-122792937D01*
X153233474Y-122796364D01*
G37*
G04 #@! TD.AperFunction*
G04 #@! TA.AperFunction,Conductor*
G36*
X167764428Y-117769380D02*
G01*
X167765374Y-117773989D01*
X167765374Y-118256245D01*
X168703474Y-117854145D01*
X168712426Y-117854037D01*
X168718835Y-117860291D01*
X168718944Y-117869245D01*
X168716911Y-117872576D01*
X167911479Y-118799073D01*
X167903465Y-118803069D01*
X167896947Y-118801614D01*
X166801096Y-118190066D01*
X166795542Y-118183042D01*
X166796581Y-118174147D01*
X166802186Y-118169096D01*
X167749066Y-117763234D01*
X167758019Y-117763126D01*
X167764428Y-117769380D01*
G37*
G04 #@! TD.AperFunction*
G04 #@! TA.AperFunction,Conductor*
G36*
X195426332Y-121646760D02*
G01*
X197084018Y-122689320D01*
X197089197Y-122696624D01*
X197087693Y-122705452D01*
X197083343Y-122709521D01*
X195360294Y-123638751D01*
X195351385Y-123639662D01*
X195348432Y-123638307D01*
X194122502Y-122853452D01*
X194117382Y-122846105D01*
X194117110Y-122843598D01*
X194117110Y-122356964D01*
X194120537Y-122348691D01*
X194123227Y-122346682D01*
X195414532Y-121646380D01*
X195423436Y-121645449D01*
X195426332Y-121646760D01*
G37*
G04 #@! TD.AperFunction*
G04 #@! TA.AperFunction,Conductor*
G36*
X138185403Y-118327528D02*
G01*
X139595683Y-118883176D01*
X139602124Y-118889397D01*
X139603059Y-118893163D01*
X139736164Y-120620644D01*
X139733383Y-120629156D01*
X139725398Y-120633208D01*
X139721255Y-120632784D01*
X138061231Y-120153781D01*
X138054232Y-120148195D01*
X138052914Y-120144339D01*
X137857580Y-118889397D01*
X137825631Y-118684139D01*
X137827745Y-118675440D01*
X137828913Y-118674075D01*
X138172847Y-118330141D01*
X138181119Y-118326715D01*
X138185403Y-118327528D01*
G37*
G04 #@! TD.AperFunction*
G04 #@! TA.AperFunction,Conductor*
G36*
X126206836Y-105496939D02*
G01*
X126214821Y-105500991D01*
X126216823Y-105504315D01*
X126772470Y-106914591D01*
X126772314Y-106923545D01*
X126769857Y-106927153D01*
X126425930Y-107271080D01*
X126417657Y-107274507D01*
X126415858Y-107274368D01*
X124955659Y-107047084D01*
X124948011Y-107042425D01*
X124946217Y-107038767D01*
X124501483Y-105497502D01*
X124467215Y-105378742D01*
X124468214Y-105369845D01*
X124475212Y-105364259D01*
X124479351Y-105363835D01*
X126206836Y-105496939D01*
G37*
G04 #@! TD.AperFunction*
G04 #@! TA.AperFunction,Conductor*
G36*
X123288282Y-104066570D02*
G01*
X123292469Y-104069524D01*
X124452599Y-105351407D01*
X124455609Y-105359841D01*
X124451775Y-105367933D01*
X124448206Y-105370146D01*
X122830527Y-106006327D01*
X122821574Y-106006166D01*
X122818230Y-106003962D01*
X121689597Y-104942626D01*
X121685918Y-104934462D01*
X121689089Y-104926088D01*
X121689307Y-104925862D01*
X122032714Y-104582455D01*
X122036513Y-104579919D01*
X123279328Y-104066561D01*
X123288282Y-104066570D01*
G37*
G04 #@! TD.AperFunction*
G04 #@! TA.AperFunction,Conductor*
G36*
X116517410Y-92322948D02*
G01*
X116521417Y-92326242D01*
X116752603Y-92624590D01*
X116992068Y-92933623D01*
X116994427Y-92942260D01*
X116990002Y-92950024D01*
X115703178Y-93950729D01*
X115694544Y-93953103D01*
X115691519Y-93952302D01*
X115243907Y-93766899D01*
X115237575Y-93760567D01*
X115236744Y-93754914D01*
X115341958Y-92717322D01*
X115346201Y-92709439D01*
X115349903Y-92707403D01*
X116508480Y-92322305D01*
X116517410Y-92322948D01*
G37*
G04 #@! TD.AperFunction*
G04 #@! TA.AperFunction,Conductor*
G36*
X123883580Y-87391656D02*
G01*
X123891077Y-87396550D01*
X123892975Y-87404985D01*
X123677778Y-88763074D01*
X123673098Y-88770709D01*
X123666785Y-88772929D01*
X122208433Y-88843164D01*
X122200004Y-88840140D01*
X122196184Y-88832041D01*
X122196170Y-88831478D01*
X122196170Y-88345322D01*
X122196583Y-88342241D01*
X122452414Y-87404985D01*
X122522832Y-87147000D01*
X122528316Y-87139923D01*
X122536279Y-87138584D01*
X123883580Y-87391656D01*
G37*
G04 #@! TD.AperFunction*
G04 #@! TA.AperFunction,Conductor*
G36*
X118025675Y-83994253D02*
G01*
X118807697Y-84319154D01*
X118814021Y-84325492D01*
X118814177Y-84334025D01*
X118270920Y-85799430D01*
X118264831Y-85805996D01*
X118259950Y-85807063D01*
X117774798Y-85807063D01*
X117766525Y-85803636D01*
X117764701Y-85801273D01*
X117222442Y-84874854D01*
X117221220Y-84865983D01*
X117223896Y-84861058D01*
X118012550Y-83997169D01*
X118020657Y-83993371D01*
X118025675Y-83994253D01*
G37*
G04 #@! TD.AperFunction*
G04 #@! TA.AperFunction,Conductor*
G36*
X117702491Y-83178838D02*
G01*
X117708096Y-83185056D01*
X118016041Y-83984190D01*
X118015819Y-83993142D01*
X118012521Y-83997462D01*
X117102864Y-84739772D01*
X117094288Y-84742347D01*
X117088780Y-84740308D01*
X117088010Y-84739772D01*
X116810651Y-84546583D01*
X116246292Y-84153491D01*
X116241462Y-84145950D01*
X116241279Y-84143890D01*
X116241279Y-83658500D01*
X116244706Y-83650227D01*
X116249364Y-83647373D01*
X117693565Y-83178136D01*
X117702491Y-83178838D01*
G37*
G04 #@! TD.AperFunction*
G04 #@! TA.AperFunction,Conductor*
G36*
X95501287Y-82354487D02*
G01*
X95504814Y-82357542D01*
X96497570Y-83646844D01*
X96500000Y-83653982D01*
X96500000Y-84139627D01*
X96496573Y-84147900D01*
X96489703Y-84151243D01*
X95505648Y-84270102D01*
X95497024Y-84267692D01*
X95495975Y-84266762D01*
X94013163Y-82784939D01*
X94009733Y-82776667D01*
X94013157Y-82768393D01*
X94018282Y-82765396D01*
X95492399Y-82353414D01*
X95501287Y-82354487D01*
G37*
G04 #@! TD.AperFunction*
G04 #@! TA.AperFunction,Conductor*
G36*
X156241186Y-127404124D02*
G01*
X156246857Y-127410148D01*
X156571818Y-128192312D01*
X156571827Y-128201267D01*
X156568795Y-128205537D01*
X155683037Y-128994581D01*
X155674580Y-128997526D01*
X155669762Y-128996175D01*
X154648848Y-128453300D01*
X154643152Y-128446390D01*
X154642641Y-128442970D01*
X154642641Y-127958350D01*
X154646068Y-127950077D01*
X154650536Y-127947285D01*
X156232249Y-127403572D01*
X156241186Y-127404124D01*
G37*
G04 #@! TD.AperFunction*
G04 #@! TA.AperFunction,Conductor*
G36*
X154089420Y-104530670D02*
G01*
X154097411Y-104534713D01*
X154100225Y-104542834D01*
X154042003Y-105911449D01*
X154038228Y-105919569D01*
X154033062Y-105922325D01*
X152492918Y-106294404D01*
X152484071Y-106293016D01*
X152481897Y-106291304D01*
X152138348Y-105947755D01*
X152134921Y-105939482D01*
X152135690Y-105935311D01*
X152708864Y-104434404D01*
X152715016Y-104427900D01*
X152720675Y-104426913D01*
X154089420Y-104530670D01*
G37*
G04 #@! TD.AperFunction*
G04 #@! TA.AperFunction,Conductor*
G36*
X157478259Y-127403823D02*
G01*
X158499176Y-127946699D01*
X158504872Y-127953609D01*
X158505383Y-127957029D01*
X158505383Y-128441649D01*
X158501956Y-128449922D01*
X158497486Y-128452714D01*
X156915774Y-128996427D01*
X156906837Y-128995875D01*
X156901166Y-128989851D01*
X156576204Y-128207685D01*
X156576196Y-128198732D01*
X156579226Y-128194463D01*
X157464987Y-127405417D01*
X157473443Y-127402473D01*
X157478259Y-127403823D01*
G37*
G04 #@! TD.AperFunction*
G04 #@! TA.AperFunction,Conductor*
G36*
X173988125Y-126599909D02*
G01*
X173996373Y-126603394D01*
X173999742Y-126611691D01*
X173999681Y-126612807D01*
X173849258Y-128074252D01*
X173845002Y-128082131D01*
X173840335Y-128084434D01*
X172206200Y-128474443D01*
X172197357Y-128473031D01*
X172192104Y-128465779D01*
X172191784Y-128463063D01*
X172191784Y-127979238D01*
X172192093Y-127976566D01*
X172515358Y-126598701D01*
X172520584Y-126591431D01*
X172526829Y-126589675D01*
X173988125Y-126599909D01*
G37*
G04 #@! TD.AperFunction*
G04 #@! TA.AperFunction,Conductor*
G36*
X155920226Y-109943794D02*
G01*
X155923050Y-109945875D01*
X156266614Y-110289439D01*
X156270041Y-110297712D01*
X156269515Y-110301180D01*
X155796872Y-111824044D01*
X155791147Y-111830930D01*
X155785483Y-111832274D01*
X154416814Y-111807158D01*
X154408605Y-111803580D01*
X154405331Y-111795675D01*
X154380216Y-110427006D01*
X154383490Y-110418671D01*
X154388443Y-110415618D01*
X155911311Y-109942974D01*
X155920226Y-109943794D01*
G37*
G04 #@! TD.AperFunction*
G04 #@! TA.AperFunction,Conductor*
G36*
X157633617Y-108070895D02*
G01*
X157638132Y-108078313D01*
X157866042Y-109433986D01*
X157864034Y-109442713D01*
X157859642Y-109446437D01*
X156419418Y-110150460D01*
X156410481Y-110151015D01*
X156406007Y-110148222D01*
X156062410Y-109804625D01*
X156058983Y-109796352D01*
X156059073Y-109794903D01*
X156250155Y-108273387D01*
X156254585Y-108265608D01*
X156260108Y-108263266D01*
X157624945Y-108068670D01*
X157633617Y-108070895D01*
G37*
G04 #@! TD.AperFunction*
G04 #@! TA.AperFunction,Conductor*
G36*
X154404168Y-111809282D02*
G01*
X154408424Y-111816882D01*
X154586112Y-113185631D01*
X154583778Y-113194276D01*
X154579281Y-113197820D01*
X153120753Y-113849357D01*
X153111802Y-113849602D01*
X153107708Y-113846947D01*
X152764109Y-113503348D01*
X152760682Y-113495075D01*
X152760841Y-113493154D01*
X153016757Y-111962772D01*
X153021502Y-111955179D01*
X153027049Y-111953070D01*
X154395577Y-111806754D01*
X154404168Y-111809282D01*
G37*
G04 #@! TD.AperFunction*
G04 #@! TA.AperFunction,Conductor*
G36*
X153051870Y-113212858D02*
G01*
X153053348Y-113214109D01*
X153396947Y-113557708D01*
X153400374Y-113565981D01*
X153399357Y-113570753D01*
X152747820Y-115029280D01*
X152741316Y-115035436D01*
X152735631Y-115036111D01*
X151366882Y-114858424D01*
X151359119Y-114853960D01*
X151356754Y-114845577D01*
X151503070Y-113477051D01*
X151507356Y-113469191D01*
X151512771Y-113466757D01*
X153043147Y-113210842D01*
X153051870Y-113212858D01*
G37*
G04 #@! TD.AperFunction*
G04 #@! TA.AperFunction,Conductor*
G36*
X150730592Y-101806284D02*
G01*
X150735213Y-101813593D01*
X150987978Y-103162603D01*
X150986133Y-103171366D01*
X150981800Y-103175177D01*
X149551413Y-103905847D01*
X149542487Y-103906559D01*
X149537818Y-103903701D01*
X149194234Y-103560117D01*
X149190807Y-103551844D01*
X149190872Y-103550617D01*
X149352747Y-102029512D01*
X149357030Y-102021649D01*
X149362552Y-102019195D01*
X150721887Y-101804192D01*
X150730592Y-101806284D01*
G37*
G04 #@! TD.AperFunction*
G04 #@! TA.AperFunction,Conductor*
G36*
X149136920Y-103605359D02*
G01*
X149142896Y-103608557D01*
X149486492Y-103952153D01*
X149489919Y-103960426D01*
X149487308Y-103967794D01*
X148503360Y-105181583D01*
X148495488Y-105185852D01*
X148489530Y-105184911D01*
X147231788Y-104627381D01*
X147225613Y-104620896D01*
X147225727Y-104612190D01*
X147755984Y-103338548D01*
X147762327Y-103332229D01*
X147769080Y-103331574D01*
X149136920Y-103605359D01*
G37*
G04 #@! TD.AperFunction*
G04 #@! TA.AperFunction,Conductor*
G36*
X135713981Y-89737549D02*
G01*
X135716805Y-89739630D01*
X136060369Y-90083194D01*
X136063796Y-90091467D01*
X136063270Y-90094935D01*
X135590627Y-91617799D01*
X135584902Y-91624685D01*
X135579238Y-91626029D01*
X134210569Y-91600913D01*
X134202360Y-91597335D01*
X134199086Y-91589430D01*
X134173971Y-90220761D01*
X134177245Y-90212426D01*
X134182198Y-90209373D01*
X135705066Y-89736729D01*
X135713981Y-89737549D01*
G37*
G04 #@! TD.AperFunction*
G04 #@! TA.AperFunction,Conductor*
G36*
X124288996Y-77808301D02*
G01*
X124365754Y-77853229D01*
X125215416Y-78350560D01*
X125220824Y-78357695D01*
X125221205Y-78360656D01*
X125221205Y-78845808D01*
X125217778Y-78854081D01*
X125213572Y-78856778D01*
X123748167Y-79400036D01*
X123739219Y-79399699D01*
X123733296Y-79393556D01*
X123408395Y-78611535D01*
X123408387Y-78602582D01*
X123411310Y-78598411D01*
X124275199Y-77809756D01*
X124283618Y-77806710D01*
X124288996Y-77808301D01*
G37*
G04 #@! TD.AperFunction*
G04 #@! TA.AperFunction,Conductor*
G36*
X138539503Y-89798604D02*
G01*
X140073407Y-90074871D01*
X140080942Y-90079710D01*
X140082980Y-90085270D01*
X140214084Y-91453812D01*
X140211461Y-91462375D01*
X140203842Y-91466543D01*
X138835089Y-91632081D01*
X138826464Y-91629673D01*
X138822961Y-91625145D01*
X138183122Y-90158384D01*
X138182955Y-90149431D01*
X138185571Y-90145435D01*
X138529160Y-89801846D01*
X138537432Y-89798420D01*
X138539503Y-89798604D01*
G37*
G04 #@! TD.AperFunction*
G04 #@! TA.AperFunction,Conductor*
G36*
X122657902Y-76729125D02*
G01*
X122661646Y-76735178D01*
X122916734Y-77756065D01*
X122915415Y-77764922D01*
X122913656Y-77767174D01*
X122569469Y-78111361D01*
X122561196Y-78114788D01*
X122558360Y-78114439D01*
X121537474Y-77859351D01*
X121530278Y-77854021D01*
X121528645Y-77847094D01*
X121608710Y-76817172D01*
X121612768Y-76809191D01*
X121619468Y-76806415D01*
X122649389Y-76726349D01*
X122657902Y-76729125D01*
G37*
G04 #@! TD.AperFunction*
G04 #@! TA.AperFunction,Conductor*
G36*
X122458072Y-77297406D02*
G01*
X123478962Y-77552494D01*
X123486158Y-77557824D01*
X123487791Y-77564752D01*
X123407726Y-78594673D01*
X123403668Y-78602655D01*
X123396968Y-78605431D01*
X122367047Y-78685495D01*
X122358533Y-78682719D01*
X122354789Y-78676666D01*
X122099702Y-77655781D01*
X122101021Y-77646924D01*
X122102776Y-77644676D01*
X122446968Y-77300484D01*
X122455240Y-77297058D01*
X122458072Y-77297406D01*
G37*
G04 #@! TD.AperFunction*
G04 #@! TA.AperFunction,Conductor*
G36*
X157601875Y-115000582D02*
G01*
X158587429Y-115950618D01*
X158591007Y-115958827D01*
X158589663Y-115964491D01*
X157847045Y-117375527D01*
X157840159Y-117381252D01*
X157836691Y-117381778D01*
X157350819Y-117381778D01*
X157342546Y-117378351D01*
X157340465Y-117375527D01*
X156597845Y-115964488D01*
X156597026Y-115955574D01*
X156600078Y-115950620D01*
X157585635Y-115000581D01*
X157593970Y-114997308D01*
X157601875Y-115000582D01*
G37*
G04 #@! TD.AperFunction*
G04 #@! TA.AperFunction,Conductor*
G36*
X161126131Y-123906953D02*
G01*
X161130622Y-123912181D01*
X161680363Y-125174468D01*
X161680524Y-125183422D01*
X161674593Y-125189738D01*
X160430881Y-125771481D01*
X160421935Y-125771882D01*
X160416946Y-125768385D01*
X159419156Y-124574060D01*
X159416483Y-124565515D01*
X159419862Y-124558288D01*
X159763464Y-124214686D01*
X159769142Y-124211551D01*
X161117305Y-123905443D01*
X161126131Y-123906953D01*
G37*
G04 #@! TD.AperFunction*
G04 #@! TA.AperFunction,Conductor*
G36*
X155048284Y-124602514D02*
G01*
X155049837Y-124603819D01*
X155392044Y-124946026D01*
X155394417Y-124949445D01*
X155722117Y-125668179D01*
X155722431Y-125677128D01*
X155718594Y-125682315D01*
X154783460Y-126399892D01*
X154774810Y-126402210D01*
X154770482Y-126400740D01*
X154071347Y-125996642D01*
X154065899Y-125989535D01*
X154067072Y-125980657D01*
X154067615Y-125979805D01*
X155031986Y-124605371D01*
X155039543Y-124600568D01*
X155048284Y-124602514D01*
G37*
G04 #@! TD.AperFunction*
G04 #@! TA.AperFunction,Conductor*
G36*
X165748692Y-121182050D02*
G01*
X167159732Y-121924670D01*
X167165457Y-121931556D01*
X167165983Y-121935024D01*
X167165983Y-122420895D01*
X167162556Y-122429168D01*
X167159732Y-122431249D01*
X165748696Y-123173868D01*
X165739779Y-123174688D01*
X165734823Y-123171634D01*
X165691675Y-123126873D01*
X164784786Y-122186079D01*
X164781513Y-122177745D01*
X164784787Y-122169840D01*
X165734824Y-121184284D01*
X165743032Y-121180707D01*
X165748692Y-121182050D01*
G37*
G04 #@! TD.AperFunction*
G04 #@! TA.AperFunction,Conductor*
G36*
X170844805Y-120781392D02*
G01*
X170856246Y-120785639D01*
X172221141Y-121292211D01*
X172227705Y-121298302D01*
X172228039Y-121307251D01*
X172227591Y-121308298D01*
X171586630Y-122626092D01*
X171579930Y-122632032D01*
X171574573Y-122632573D01*
X170039341Y-122429305D01*
X170031590Y-122424822D01*
X170029177Y-122417706D01*
X170029177Y-121931657D01*
X170031301Y-121924934D01*
X170471237Y-121298302D01*
X170831160Y-120785638D01*
X170838718Y-120780837D01*
X170844805Y-120781392D01*
G37*
G04 #@! TD.AperFunction*
G04 #@! TA.AperFunction,Conductor*
G36*
X135363851Y-95487560D02*
G01*
X135366962Y-95489787D01*
X135710523Y-95833348D01*
X135713950Y-95841621D01*
X135713515Y-95844780D01*
X135284155Y-97375708D01*
X135278622Y-97382749D01*
X135272977Y-97384249D01*
X133904333Y-97394378D01*
X133896034Y-97391012D01*
X133892557Y-97383188D01*
X133833064Y-96014486D01*
X133836128Y-96006074D01*
X133840978Y-96002905D01*
X135354917Y-95486985D01*
X135363851Y-95487560D01*
G37*
G04 #@! TD.AperFunction*
G04 #@! TA.AperFunction,Conductor*
G36*
X137005211Y-94414144D02*
G01*
X137013169Y-94418247D01*
X137015921Y-94426403D01*
X136945677Y-95795014D01*
X136941830Y-95803100D01*
X136936638Y-95805811D01*
X135394515Y-96163895D01*
X135385682Y-96162428D01*
X135383596Y-96160771D01*
X135040051Y-95817226D01*
X135036624Y-95808953D01*
X135037431Y-95804682D01*
X135041222Y-95795014D01*
X135624591Y-94307159D01*
X135630801Y-94300710D01*
X135636454Y-94299773D01*
X137005211Y-94414144D01*
G37*
G04 #@! TD.AperFunction*
G04 #@! TA.AperFunction,Conductor*
G36*
X133900115Y-97402112D02*
G01*
X134671543Y-98537050D01*
X134673360Y-98545818D01*
X134670682Y-98551320D01*
X133669292Y-99698666D01*
X133661270Y-99702646D01*
X133660477Y-99702673D01*
X133174626Y-99702673D01*
X133166353Y-99699246D01*
X133163374Y-99694180D01*
X132721382Y-98143454D01*
X132722410Y-98134558D01*
X132726381Y-98130358D01*
X133884191Y-97398797D01*
X133893014Y-97397276D01*
X133900115Y-97402112D01*
G37*
G04 #@! TD.AperFunction*
G04 #@! TA.AperFunction,Conductor*
G36*
X145251377Y-126930759D02*
G01*
X146060017Y-127129706D01*
X146067231Y-127135010D01*
X146068582Y-127143862D01*
X146068555Y-127143971D01*
X145800123Y-128191563D01*
X145794750Y-128198727D01*
X145787986Y-128200331D01*
X144820823Y-128133791D01*
X144812805Y-128129805D01*
X144809941Y-128122707D01*
X144750618Y-126942708D01*
X144753625Y-126934274D01*
X144761716Y-126930436D01*
X144762303Y-126930421D01*
X145248583Y-126930421D01*
X145251377Y-126930759D01*
G37*
G04 #@! TD.AperFunction*
G04 #@! TA.AperFunction,Conductor*
G36*
X137017110Y-94430295D02*
G01*
X137019426Y-94435894D01*
X137197180Y-95793494D01*
X137194856Y-95802142D01*
X137188434Y-95806359D01*
X136458310Y-95990092D01*
X136449451Y-95988788D01*
X136444109Y-95981601D01*
X136443755Y-95978746D01*
X136443755Y-95493755D01*
X136443754Y-95493753D01*
X135923711Y-95275859D01*
X135917404Y-95269501D01*
X135917441Y-95260547D01*
X135921111Y-95255785D01*
X137000708Y-94428127D01*
X137009357Y-94425814D01*
X137017110Y-94430295D01*
G37*
G04 #@! TD.AperFunction*
G04 #@! TA.AperFunction,Conductor*
G36*
X149641373Y-129980568D02*
G01*
X149643197Y-129982931D01*
X150185455Y-130909349D01*
X150186677Y-130918220D01*
X150183999Y-130923147D01*
X149395349Y-131787032D01*
X149387240Y-131790832D01*
X149382219Y-131789949D01*
X148600201Y-131465049D01*
X148593876Y-131458710D01*
X148593720Y-131450178D01*
X149136978Y-129984773D01*
X149143067Y-129978208D01*
X149147948Y-129977141D01*
X149633100Y-129977141D01*
X149641373Y-129980568D01*
G37*
G04 #@! TD.AperFunction*
G04 #@! TA.AperFunction,Conductor*
G36*
X141084320Y-104586317D02*
G01*
X141855748Y-105721255D01*
X141857565Y-105730023D01*
X141854887Y-105735525D01*
X140853497Y-106882871D01*
X140845475Y-106886851D01*
X140844682Y-106886878D01*
X140358831Y-106886878D01*
X140350558Y-106883451D01*
X140347579Y-106878385D01*
X139905587Y-105327659D01*
X139906615Y-105318763D01*
X139910586Y-105314563D01*
X141068396Y-104583002D01*
X141077219Y-104581481D01*
X141084320Y-104586317D01*
G37*
G04 #@! TD.AperFunction*
G04 #@! TA.AperFunction,Conductor*
G36*
X127023915Y-84422622D02*
G01*
X128009469Y-85372658D01*
X128013047Y-85380867D01*
X128011703Y-85386531D01*
X127269085Y-86797567D01*
X127262199Y-86803292D01*
X127258731Y-86803818D01*
X126772859Y-86803818D01*
X126764586Y-86800391D01*
X126762505Y-86797567D01*
X126019885Y-85386528D01*
X126019066Y-85377614D01*
X126022118Y-85372660D01*
X127007675Y-84422621D01*
X127016010Y-84419348D01*
X127023915Y-84422622D01*
G37*
G04 #@! TD.AperFunction*
G04 #@! TA.AperFunction,Conductor*
G36*
X151175882Y-133586284D02*
G01*
X151183462Y-133591051D01*
X151185534Y-133599208D01*
X151060007Y-134647941D01*
X151055621Y-134655749D01*
X151051658Y-134657785D01*
X149718160Y-135045646D01*
X149709259Y-135044667D01*
X149703658Y-135037680D01*
X149703192Y-135034412D01*
X149703192Y-134552643D01*
X149704327Y-134547615D01*
X150234037Y-133434530D01*
X150240686Y-133428535D01*
X150246561Y-133428026D01*
X151175882Y-133586284D01*
G37*
G04 #@! TD.AperFunction*
G04 #@! TA.AperFunction,Conductor*
G36*
X119821727Y-75013997D02*
G01*
X120603749Y-75338898D01*
X120610073Y-75345236D01*
X120610229Y-75353769D01*
X120066972Y-76819174D01*
X120060883Y-76825740D01*
X120056002Y-76826807D01*
X119570850Y-76826807D01*
X119562577Y-76823380D01*
X119560753Y-76821017D01*
X119018494Y-75894598D01*
X119017272Y-75885727D01*
X119019948Y-75880802D01*
X119808602Y-75016913D01*
X119816709Y-75013115D01*
X119821727Y-75013997D01*
G37*
G04 #@! TD.AperFunction*
G04 #@! TA.AperFunction,Conductor*
G36*
X118266505Y-93588991D02*
G01*
X118878940Y-94024740D01*
X119212047Y-94261747D01*
X119216801Y-94269335D01*
X119214797Y-94278063D01*
X119213537Y-94279553D01*
X118872200Y-94620890D01*
X118866409Y-94624051D01*
X117297161Y-94964631D01*
X117288349Y-94963037D01*
X117283245Y-94955679D01*
X117283051Y-94954498D01*
X117200134Y-94206878D01*
X117202628Y-94198279D01*
X117205895Y-94195468D01*
X118253859Y-93588400D01*
X118262736Y-93587219D01*
X118266505Y-93588991D01*
G37*
G04 #@! TD.AperFunction*
G04 #@! TA.AperFunction,Conductor*
G36*
X126255738Y-83263305D02*
G01*
X127010256Y-84407034D01*
X127011952Y-84415827D01*
X127007233Y-84423038D01*
X125884646Y-85214770D01*
X125875910Y-85216738D01*
X125870421Y-85214204D01*
X124919279Y-84423038D01*
X124633081Y-84184976D01*
X124628913Y-84177052D01*
X124631569Y-84168500D01*
X124632280Y-84167720D01*
X124975249Y-83824751D01*
X124978748Y-83822344D01*
X126241206Y-83259062D01*
X126250156Y-83258822D01*
X126255738Y-83263305D01*
G37*
G04 #@! TD.AperFunction*
M02*
