G04 #@! TF.GenerationSoftware,KiCad,Pcbnew,9.0.2*
G04 #@! TF.CreationDate,2025-09-12T10:14:45-06:00*
G04 #@! TF.ProjectId,Makerspace_THT_Workshop,4d616b65-7273-4706-9163-655f5448545f,V2.1*
G04 #@! TF.SameCoordinates,Original*
G04 #@! TF.FileFunction,Soldermask,Top*
G04 #@! TF.FilePolarity,Negative*
%FSLAX46Y46*%
G04 Gerber Fmt 4.6, Leading zero omitted, Abs format (unit mm)*
G04 Created by KiCad (PCBNEW 9.0.2) date 2025-09-12 10:14:45*
%MOMM*%
%LPD*%
G01*
G04 APERTURE LIST*
G04 Aperture macros list*
%AMHorizOval*
0 Thick line with rounded ends*
0 $1 width*
0 $2 $3 position (X,Y) of the first rounded end (center of the circle)*
0 $4 $5 position (X,Y) of the second rounded end (center of the circle)*
0 Add line between two ends*
20,1,$1,$2,$3,$4,$5,0*
0 Add two circle primitives to create the rounded ends*
1,1,$1,$2,$3*
1,1,$1,$4,$5*%
%AMRotRect*
0 Rectangle, with rotation*
0 The origin of the aperture is its center*
0 $1 length*
0 $2 width*
0 $3 Rotation angle, in degrees counterclockwise*
0 Add horizontal line*
21,1,$1,$2,0,0,$3*%
G04 Aperture macros list end*
%ADD10C,0.264582*%
%ADD11C,2.800000*%
%ADD12C,2.990600*%
%ADD13C,4.000000*%
%ADD14R,2.200000X2.200000*%
%ADD15C,2.200000*%
%ADD16R,3.000000X3.000000*%
%ADD17C,3.000000*%
%ADD18RotRect,2.400000X1.600000X225.000000*%
%ADD19HorizOval,1.600000X-0.282843X-0.282843X0.282843X0.282843X0*%
%ADD20RotRect,2.400000X1.600000X45.000000*%
%ADD21HorizOval,1.600000X0.282843X0.282843X-0.282843X-0.282843X0*%
%ADD22HorizOval,2.000000X0.704769X0.256515X-0.704769X-0.256515X0*%
%ADD23RotRect,1.500000X2.500000X110.000000*%
%ADD24HorizOval,1.500000X0.469846X0.171010X-0.469846X-0.171010X0*%
%ADD25C,3.532000*%
G04 APERTURE END LIST*
D10*
X144056456Y-88868475D02*
X143169195Y-88662409D01*
X142718577Y-88567950D01*
X142470023Y-88519667D01*
X142208657Y-88471989D01*
X141936494Y-88425893D01*
X141655547Y-88382362D01*
X141367829Y-88342372D01*
X141075354Y-88306906D01*
X140362809Y-88236474D01*
X139678523Y-88183387D01*
X138504853Y-88116226D01*
X137774604Y-88079384D01*
X137644594Y-88064194D01*
X137641243Y-88060183D01*
X137650413Y-88055984D01*
X137708037Y-88046820D01*
X141253737Y-87185293D01*
X144056456Y-88868475D01*
G36*
X144056456Y-88868475D02*
G01*
X143169195Y-88662409D01*
X142718577Y-88567950D01*
X142470023Y-88519667D01*
X142208657Y-88471989D01*
X141936494Y-88425893D01*
X141655547Y-88382362D01*
X141367829Y-88342372D01*
X141075354Y-88306906D01*
X140362809Y-88236474D01*
X139678523Y-88183387D01*
X138504853Y-88116226D01*
X137774604Y-88079384D01*
X137644594Y-88064194D01*
X137641243Y-88060183D01*
X137650413Y-88055984D01*
X137708037Y-88046820D01*
X141253737Y-87185293D01*
X144056456Y-88868475D01*
G37*
X133661669Y-62994691D02*
X135600000Y-65600000D01*
X134960298Y-68184518D01*
X134949229Y-68221072D01*
X134937690Y-68243680D01*
X134925703Y-68252991D01*
X134913291Y-68249649D01*
X134900477Y-68234301D01*
X134887283Y-68207593D01*
X134859845Y-68122681D01*
X134831157Y-68000080D01*
X134801400Y-67844961D01*
X134739397Y-67457839D01*
X134610481Y-66520777D01*
X134546448Y-66053535D01*
X134484621Y-65642282D01*
X134450479Y-65473022D01*
X134400398Y-65278066D01*
X134264105Y-64833524D01*
X134099112Y-64353572D01*
X133928792Y-63883125D01*
X133665656Y-63150407D01*
X133633060Y-63043348D01*
X133619583Y-62977966D01*
X133620926Y-62962659D01*
X133628145Y-62959876D01*
X133661669Y-62994691D01*
G36*
X133661669Y-62994691D02*
G01*
X135600000Y-65600000D01*
X134960298Y-68184518D01*
X134949229Y-68221072D01*
X134937690Y-68243680D01*
X134925703Y-68252991D01*
X134913291Y-68249649D01*
X134900477Y-68234301D01*
X134887283Y-68207593D01*
X134859845Y-68122681D01*
X134831157Y-68000080D01*
X134801400Y-67844961D01*
X134739397Y-67457839D01*
X134610481Y-66520777D01*
X134546448Y-66053535D01*
X134484621Y-65642282D01*
X134450479Y-65473022D01*
X134400398Y-65278066D01*
X134264105Y-64833524D01*
X134099112Y-64353572D01*
X133928792Y-63883125D01*
X133665656Y-63150407D01*
X133633060Y-63043348D01*
X133619583Y-62977966D01*
X133620926Y-62962659D01*
X133628145Y-62959876D01*
X133661669Y-62994691D01*
G37*
X153000000Y-90100000D02*
X154872360Y-92644724D01*
X154959734Y-92765527D01*
X155004768Y-92834228D01*
X155012068Y-92850562D01*
X155012030Y-92854491D01*
X155009576Y-92855696D01*
X154997556Y-92850241D01*
X154976273Y-92834804D01*
X154504220Y-92425037D01*
X154312067Y-92265401D01*
X154094486Y-92092628D01*
X153853592Y-91911590D01*
X153591497Y-91727157D01*
X153310316Y-91544201D01*
X153163229Y-91454798D01*
X153012164Y-91367591D01*
X152857383Y-91283189D01*
X152699153Y-91202199D01*
X152537736Y-91125233D01*
X152373398Y-91052897D01*
X152079892Y-90955403D01*
X151588525Y-90814910D01*
X150344511Y-90473106D01*
X149758015Y-90305886D01*
X149305961Y-90163847D01*
X149156311Y-90107597D01*
X149071425Y-90064034D01*
X149056513Y-90047676D01*
X149061687Y-90035289D01*
X149088244Y-90027139D01*
X149137482Y-90023493D01*
X153000000Y-90100000D01*
G36*
X153000000Y-90100000D02*
G01*
X154872360Y-92644724D01*
X154959734Y-92765527D01*
X155004768Y-92834228D01*
X155012068Y-92850562D01*
X155012030Y-92854491D01*
X155009576Y-92855696D01*
X154997556Y-92850241D01*
X154976273Y-92834804D01*
X154504220Y-92425037D01*
X154312067Y-92265401D01*
X154094486Y-92092628D01*
X153853592Y-91911590D01*
X153591497Y-91727157D01*
X153310316Y-91544201D01*
X153163229Y-91454798D01*
X153012164Y-91367591D01*
X152857383Y-91283189D01*
X152699153Y-91202199D01*
X152537736Y-91125233D01*
X152373398Y-91052897D01*
X152079892Y-90955403D01*
X151588525Y-90814910D01*
X150344511Y-90473106D01*
X149758015Y-90305886D01*
X149305961Y-90163847D01*
X149156311Y-90107597D01*
X149071425Y-90064034D01*
X149056513Y-90047676D01*
X149061687Y-90035289D01*
X149088244Y-90027139D01*
X149137482Y-90023493D01*
X153000000Y-90100000D01*
G37*
X135438319Y-72431490D02*
X135501768Y-72581732D01*
X136601561Y-75471472D01*
X136507493Y-75814758D01*
X136393131Y-76196895D01*
X136236747Y-76677612D01*
X136143468Y-76945153D01*
X136040489Y-77225595D01*
X135928079Y-77515027D01*
X135806506Y-77809532D01*
X135676038Y-78105197D01*
X135536945Y-78398109D01*
X135389494Y-78684352D01*
X135233954Y-78960012D01*
X135185244Y-79037136D01*
X135144345Y-79091312D01*
X135110870Y-79123682D01*
X135084431Y-79135392D01*
X135064642Y-79127585D01*
X135051113Y-79101404D01*
X135043459Y-79057993D01*
X135041291Y-78998498D01*
X135051865Y-78835823D01*
X135079735Y-78622531D01*
X135174961Y-78080694D01*
X135436568Y-76792217D01*
X135553348Y-76191980D01*
X135597383Y-75934887D01*
X135627715Y-75718679D01*
X135627707Y-75718679D01*
X135642000Y-75499102D01*
X135640874Y-75239623D01*
X135626999Y-74949464D01*
X135603045Y-74637848D01*
X135535589Y-73987133D01*
X135459873Y-73361259D01*
X135397264Y-72834002D01*
X135369132Y-72479143D01*
X135374672Y-72389418D01*
X135383512Y-72370517D01*
X135396844Y-72370460D01*
X135438319Y-72431490D01*
G36*
X135438319Y-72431490D02*
G01*
X135501768Y-72581732D01*
X136601561Y-75471472D01*
X136507493Y-75814758D01*
X136393131Y-76196895D01*
X136236747Y-76677612D01*
X136143468Y-76945153D01*
X136040489Y-77225595D01*
X135928079Y-77515027D01*
X135806506Y-77809532D01*
X135676038Y-78105197D01*
X135536945Y-78398109D01*
X135389494Y-78684352D01*
X135233954Y-78960012D01*
X135185244Y-79037136D01*
X135144345Y-79091312D01*
X135110870Y-79123682D01*
X135084431Y-79135392D01*
X135064642Y-79127585D01*
X135051113Y-79101404D01*
X135043459Y-79057993D01*
X135041291Y-78998498D01*
X135051865Y-78835823D01*
X135079735Y-78622531D01*
X135174961Y-78080694D01*
X135436568Y-76792217D01*
X135553348Y-76191980D01*
X135597383Y-75934887D01*
X135627715Y-75718679D01*
X135627707Y-75718679D01*
X135642000Y-75499102D01*
X135640874Y-75239623D01*
X135626999Y-74949464D01*
X135603045Y-74637848D01*
X135535589Y-73987133D01*
X135459873Y-73361259D01*
X135397264Y-72834002D01*
X135369132Y-72479143D01*
X135374672Y-72389418D01*
X135383512Y-72370517D01*
X135396844Y-72370460D01*
X135438319Y-72431490D01*
G37*
X163248511Y-98786367D02*
X163427466Y-101326040D01*
X163430749Y-101405240D01*
X163428124Y-101464021D01*
X163419865Y-101503421D01*
X163406244Y-101524474D01*
X163387535Y-101528214D01*
X163364010Y-101515678D01*
X163335944Y-101487900D01*
X163303610Y-101445916D01*
X163227230Y-101323470D01*
X163137055Y-101156620D01*
X162924071Y-100722837D01*
X162428774Y-99686820D01*
X162303261Y-99441030D01*
X162181444Y-99217089D01*
X162065511Y-99023279D01*
X161957648Y-98867880D01*
X161858207Y-98740089D01*
X161769175Y-98633027D01*
X161687569Y-98542472D01*
X161610408Y-98464201D01*
X161534710Y-98393992D01*
X161457493Y-98327622D01*
X161286575Y-98189508D01*
X161186910Y-98109320D01*
X161073799Y-98016080D01*
X160944259Y-97905566D01*
X160795310Y-97773556D01*
X160623969Y-97615826D01*
X160427254Y-97428155D01*
X160202184Y-97206319D01*
X159945776Y-96946096D01*
X163248511Y-98786367D01*
G36*
X163248511Y-98786367D02*
G01*
X163427466Y-101326040D01*
X163430749Y-101405240D01*
X163428124Y-101464021D01*
X163419865Y-101503421D01*
X163406244Y-101524474D01*
X163387535Y-101528214D01*
X163364010Y-101515678D01*
X163335944Y-101487900D01*
X163303610Y-101445916D01*
X163227230Y-101323470D01*
X163137055Y-101156620D01*
X162924071Y-100722837D01*
X162428774Y-99686820D01*
X162303261Y-99441030D01*
X162181444Y-99217089D01*
X162065511Y-99023279D01*
X161957648Y-98867880D01*
X161858207Y-98740089D01*
X161769175Y-98633027D01*
X161687569Y-98542472D01*
X161610408Y-98464201D01*
X161534710Y-98393992D01*
X161457493Y-98327622D01*
X161286575Y-98189508D01*
X161186910Y-98109320D01*
X161073799Y-98016080D01*
X160944259Y-97905566D01*
X160795310Y-97773556D01*
X160623969Y-97615826D01*
X160427254Y-97428155D01*
X160202184Y-97206319D01*
X159945776Y-96946096D01*
X163248511Y-98786367D01*
G37*
X165685019Y-105512197D02*
X168858084Y-106627508D01*
X169975333Y-109303320D01*
X170022150Y-109433035D01*
X170029187Y-109471329D01*
X170026022Y-109493142D01*
X170013191Y-109499395D01*
X169991228Y-109491009D01*
X169922047Y-109434006D01*
X169822759Y-109329501D01*
X169697644Y-109184863D01*
X169387053Y-108804661D01*
X169024511Y-108352349D01*
X168644257Y-107886875D01*
X168458188Y-107667625D01*
X168280530Y-107467190D01*
X168115562Y-107292940D01*
X167967566Y-107152243D01*
X167821586Y-107031056D01*
X167651023Y-106901139D01*
X167257602Y-106624735D01*
X166830203Y-106342265D01*
X166411724Y-106072966D01*
X166045067Y-105836073D01*
X165773131Y-105650824D01*
X165686089Y-105583576D01*
X165638815Y-105536453D01*
X165631766Y-105521189D01*
X165636670Y-105511859D01*
X165654198Y-105508761D01*
X165685019Y-105512197D01*
G36*
X165685019Y-105512197D02*
G01*
X168858084Y-106627508D01*
X169975333Y-109303320D01*
X170022150Y-109433035D01*
X170029187Y-109471329D01*
X170026022Y-109493142D01*
X170013191Y-109499395D01*
X169991228Y-109491009D01*
X169922047Y-109434006D01*
X169822759Y-109329501D01*
X169697644Y-109184863D01*
X169387053Y-108804661D01*
X169024511Y-108352349D01*
X168644257Y-107886875D01*
X168458188Y-107667625D01*
X168280530Y-107467190D01*
X168115562Y-107292940D01*
X167967566Y-107152243D01*
X167821586Y-107031056D01*
X167651023Y-106901139D01*
X167257602Y-106624735D01*
X166830203Y-106342265D01*
X166411724Y-106072966D01*
X166045067Y-105836073D01*
X165773131Y-105650824D01*
X165686089Y-105583576D01*
X165638815Y-105536453D01*
X165631766Y-105521189D01*
X165636670Y-105511859D01*
X165654198Y-105508761D01*
X165685019Y-105512197D01*
G37*
X129106207Y-55244532D02*
X129164708Y-55264348D01*
X129536907Y-55345839D01*
X132000000Y-56400000D01*
X131945848Y-59455107D01*
X131946536Y-59509996D01*
X131943061Y-59548342D01*
X131935631Y-59571022D01*
X131924452Y-59578917D01*
X131909732Y-59572903D01*
X131891678Y-59553861D01*
X131846396Y-59480205D01*
X131790264Y-59364978D01*
X131724939Y-59215209D01*
X131573341Y-58840164D01*
X131232765Y-57984871D01*
X131149502Y-57790137D01*
X131070307Y-57617097D01*
X130996837Y-57472781D01*
X130930749Y-57364218D01*
X130829822Y-57234107D01*
X130693003Y-57077367D01*
X130342603Y-56707279D01*
X129551158Y-55903611D01*
X129233772Y-55563140D01*
X129121713Y-55428613D01*
X129051048Y-55325651D01*
X129033654Y-55287826D01*
X129029507Y-55260074D01*
X129039572Y-55243122D01*
X129064817Y-55237699D01*
X129106207Y-55244532D01*
G36*
X129106207Y-55244532D02*
G01*
X129164708Y-55264348D01*
X129536907Y-55345839D01*
X132000000Y-56400000D01*
X131945848Y-59455107D01*
X131946536Y-59509996D01*
X131943061Y-59548342D01*
X131935631Y-59571022D01*
X131924452Y-59578917D01*
X131909732Y-59572903D01*
X131891678Y-59553861D01*
X131846396Y-59480205D01*
X131790264Y-59364978D01*
X131724939Y-59215209D01*
X131573341Y-58840164D01*
X131232765Y-57984871D01*
X131149502Y-57790137D01*
X131070307Y-57617097D01*
X130996837Y-57472781D01*
X130930749Y-57364218D01*
X130829822Y-57234107D01*
X130693003Y-57077367D01*
X130342603Y-56707279D01*
X129551158Y-55903611D01*
X129233772Y-55563140D01*
X129121713Y-55428613D01*
X129051048Y-55325651D01*
X129033654Y-55287826D01*
X129029507Y-55260074D01*
X129039572Y-55243122D01*
X129064817Y-55237699D01*
X129106207Y-55244532D01*
G37*
D11*
X167906245Y-118806245D03*
X160722040Y-111622040D03*
D12*
X172232233Y-121296699D03*
X174000000Y-126600000D03*
X168696706Y-124832226D03*
D13*
X197100000Y-122700000D03*
D11*
X157593755Y-114993755D03*
X164777960Y-122177960D03*
D14*
X116900000Y-62900000D03*
D15*
X116900000Y-67900000D03*
D11*
X137015795Y-94415795D03*
X144200000Y-101600000D03*
X154500000Y-118000000D03*
X161684205Y-125184205D03*
D16*
X94000000Y-82770785D03*
D17*
X94000000Y-77770785D03*
D11*
X154406245Y-111806245D03*
X147222040Y-104622040D03*
X154100000Y-104532233D03*
X157635534Y-108067767D03*
X151356245Y-114856245D03*
X144172040Y-107672040D03*
X123893755Y-87393755D03*
X131077960Y-94577960D03*
X133893755Y-97393755D03*
X141077960Y-104577960D03*
X140214466Y-91464466D03*
X143750000Y-95000000D03*
X127015795Y-84415795D03*
X134200000Y-91600000D03*
X147196878Y-98267589D03*
X150732412Y-101803123D03*
D18*
X156574012Y-128200000D03*
D19*
X154777961Y-126403948D03*
X152981909Y-124607898D03*
X151185858Y-122811846D03*
X145797705Y-128200000D03*
X147593757Y-129996052D03*
X149389808Y-131792102D03*
X151185858Y-133588154D03*
D20*
X114425988Y-80400000D03*
D21*
X116222039Y-82196051D03*
X118018090Y-83992102D03*
X119814142Y-85788154D03*
X125202295Y-80400000D03*
X123406244Y-78603949D03*
X121610193Y-76807898D03*
X119814142Y-75011846D03*
D22*
X118602284Y-98052739D03*
X115797719Y-90347261D03*
D23*
X117884042Y-96079385D03*
D24*
X117200000Y-94200000D03*
X116515960Y-92320615D03*
D25*
X139736753Y-120636753D03*
X124463247Y-105363247D03*
M02*
