G04 #@! TF.GenerationSoftware,KiCad,Pcbnew,8.0.2*
G04 #@! TF.CreationDate,2024-12-10T10:09:32-07:00*
G04 #@! TF.ProjectId,Makerspace_THT_Workshop,4d616b65-7273-4706-9163-655f5448545f,V1.0*
G04 #@! TF.SameCoordinates,Original*
G04 #@! TF.FileFunction,Copper,L2,Bot*
G04 #@! TF.FilePolarity,Positive*
%FSLAX46Y46*%
G04 Gerber Fmt 4.6, Leading zero omitted, Abs format (unit mm)*
G04 Created by KiCad (PCBNEW 8.0.2) date 2024-12-10 10:09:32*
%MOMM*%
%LPD*%
G01*
G04 APERTURE LIST*
G04 Aperture macros list*
%AMHorizOval*
0 Thick line with rounded ends*
0 $1 width*
0 $2 $3 position (X,Y) of the first rounded end (center of the circle)*
0 $4 $5 position (X,Y) of the second rounded end (center of the circle)*
0 Add line between two ends*
20,1,$1,$2,$3,$4,$5,0*
0 Add two circle primitives to create the rounded ends*
1,1,$1,$2,$3*
1,1,$1,$4,$5*%
%AMRotRect*
0 Rectangle, with rotation*
0 The origin of the aperture is its center*
0 $1 length*
0 $2 width*
0 $3 Rotation angle, in degrees counterclockwise*
0 Add horizontal line*
21,1,$1,$2,0,0,$3*%
G04 Aperture macros list end*
G04 #@! TA.AperFunction,ComponentPad*
%ADD10R,1.800000X1.800000*%
G04 #@! TD*
G04 #@! TA.AperFunction,ComponentPad*
%ADD11C,1.524000*%
G04 #@! TD*
G04 #@! TA.AperFunction,ComponentPad*
%ADD12C,2.000000*%
G04 #@! TD*
G04 #@! TA.AperFunction,ComponentPad*
%ADD13C,2.340000*%
G04 #@! TD*
G04 #@! TA.AperFunction,ComponentPad*
%ADD14R,0.850000X0.850000*%
G04 #@! TD*
G04 #@! TA.AperFunction,ComponentPad*
%ADD15HorizOval,2.200000X0.459619X0.459619X-0.459619X-0.459619X0*%
G04 #@! TD*
G04 #@! TA.AperFunction,ComponentPad*
%ADD16RotRect,1.500000X2.500000X135.000000*%
G04 #@! TD*
G04 #@! TA.AperFunction,ComponentPad*
%ADD17HorizOval,1.500000X0.353553X0.353553X-0.353553X-0.353553X0*%
G04 #@! TD*
G04 #@! TA.AperFunction,ComponentPad*
%ADD18R,2.000000X2.000000*%
G04 #@! TD*
G04 #@! TA.AperFunction,ComponentPad*
%ADD19R,2.400000X1.600000*%
G04 #@! TD*
G04 #@! TA.AperFunction,ComponentPad*
%ADD20O,2.400000X1.600000*%
G04 #@! TD*
G04 #@! TA.AperFunction,ComponentPad*
%ADD21C,3.000000*%
G04 #@! TD*
G04 #@! TA.AperFunction,ViaPad*
%ADD22C,0.600000*%
G04 #@! TD*
G04 APERTURE END LIST*
D10*
X119600000Y-61600000D03*
D11*
X119600000Y-66600000D03*
D12*
X203910000Y-126600000D03*
X196290000Y-126600000D03*
D13*
X191144964Y-124984362D03*
X180843254Y-124631143D03*
X189766777Y-129790670D03*
D14*
X208100000Y-126600000D03*
D15*
X163999138Y-106499138D03*
X158200863Y-100700863D03*
D16*
X162514214Y-105014214D03*
D17*
X161100000Y-103600000D03*
X159685787Y-102185787D03*
D12*
X169290000Y-121600000D03*
X176910000Y-121600000D03*
X144600000Y-108100000D03*
X136980000Y-108100000D03*
X176910000Y-117850000D03*
X169290000Y-117850000D03*
D18*
X97100000Y-82100000D03*
D12*
X97100000Y-77100000D03*
X153100000Y-122910000D03*
X153100000Y-115290000D03*
X162100000Y-124600000D03*
X157100000Y-124600000D03*
X157100000Y-129290000D03*
X157100000Y-136910000D03*
X105600000Y-83410000D03*
X105600000Y-75790000D03*
X144600000Y-112600000D03*
X136980000Y-112600000D03*
X133100000Y-83850000D03*
X133100000Y-78850000D03*
X128350000Y-76350000D03*
X128350000Y-83970000D03*
X149600000Y-121600000D03*
X149600000Y-116600000D03*
X110600000Y-83410000D03*
X110600000Y-75790000D03*
D19*
X164400000Y-120400000D03*
D20*
X164400000Y-117860000D03*
X164400000Y-115320000D03*
X164400000Y-112780000D03*
X156780000Y-112780000D03*
X156780000Y-115320000D03*
X156780000Y-117860000D03*
X156780000Y-120400000D03*
D21*
X152700000Y-98600000D03*
X139500000Y-98600000D03*
D19*
X115300000Y-76300000D03*
D20*
X115300000Y-78840000D03*
X115300000Y-81380000D03*
X115300000Y-83920000D03*
X122920000Y-83920000D03*
X122920000Y-81380000D03*
X122920000Y-78840000D03*
X122920000Y-76300000D03*
D10*
X122100000Y-64100000D03*
D11*
X117100000Y-64100000D03*
D22*
X146000000Y-96250000D03*
X148500000Y-96250000D03*
X148500000Y-101250000D03*
X143500000Y-98750000D03*
X146000000Y-98750000D03*
X148500000Y-98750000D03*
X143500000Y-96250000D03*
X143500000Y-101250000D03*
X146000000Y-101250000D03*
G04 #@! TA.AperFunction,Conductor*
G36*
X123817292Y-50840986D02*
G01*
X124468515Y-50849700D01*
X124470093Y-50849733D01*
X125117950Y-50867536D01*
X125119186Y-50867577D01*
X125762926Y-50892237D01*
X126358696Y-50891976D01*
X126366331Y-50892210D01*
X126949776Y-50928144D01*
X126956996Y-50928801D01*
X127532815Y-50998284D01*
X127539497Y-50999275D01*
X128108371Y-51099681D01*
X128114417Y-51100906D01*
X128676940Y-51229601D01*
X128682350Y-51230970D01*
X129108306Y-51349058D01*
X129239070Y-51385310D01*
X129243902Y-51386756D01*
X129795417Y-51564098D01*
X129799613Y-51565531D01*
X130346464Y-51763214D01*
X130350035Y-51764567D01*
X130892852Y-51979952D01*
X130895777Y-51981156D01*
X131434643Y-52211366D01*
X131437906Y-52212817D01*
X132508614Y-52708086D01*
X132511590Y-52709511D01*
X134621393Y-53754536D01*
X134644064Y-53769024D01*
X134687777Y-53804186D01*
X134687780Y-53804188D01*
X134687786Y-53804192D01*
X134746724Y-53844576D01*
X134746727Y-53844579D01*
X134809891Y-53882039D01*
X134809897Y-53882042D01*
X134809900Y-53882044D01*
X134876806Y-53916897D01*
X134946965Y-53949455D01*
X135019896Y-53980036D01*
X135172148Y-54036538D01*
X135488728Y-54139799D01*
X135643424Y-54191002D01*
X135647246Y-54192337D01*
X135793325Y-54246126D01*
X135798077Y-54247989D01*
X135865229Y-54275925D01*
X135869463Y-54277780D01*
X135933404Y-54307254D01*
X135938537Y-54309767D01*
X135998019Y-54340621D01*
X136004146Y-54344022D01*
X136058704Y-54376362D01*
X136065780Y-54380888D01*
X136114923Y-54414721D01*
X136122885Y-54420687D01*
X136166316Y-54456038D01*
X136174959Y-54463772D01*
X136212463Y-54500634D01*
X136221394Y-54510403D01*
X136252988Y-54548899D01*
X136261635Y-54560812D01*
X136287490Y-54601287D01*
X136295144Y-54615147D01*
X136315500Y-54658309D01*
X136321495Y-54673559D01*
X136336419Y-54720400D01*
X136340332Y-54736199D01*
X136349599Y-54787981D01*
X136351372Y-54803414D01*
X136354367Y-54861262D01*
X136354280Y-54875587D01*
X136350133Y-54940433D01*
X136348647Y-54953213D01*
X136336382Y-55025675D01*
X136333982Y-55036750D01*
X136311400Y-55121949D01*
X136253825Y-55580342D01*
X136253824Y-55580346D01*
X136227267Y-56037196D01*
X136230607Y-56491701D01*
X136262713Y-56943022D01*
X136262713Y-56943023D01*
X136322467Y-57390382D01*
X136322475Y-57390432D01*
X136408739Y-57832978D01*
X136520412Y-58270011D01*
X136520412Y-58270012D01*
X136656351Y-58700645D01*
X136815430Y-59124076D01*
X136815433Y-59124082D01*
X136996536Y-59539530D01*
X137198535Y-59946177D01*
X137420303Y-60343218D01*
X137660716Y-60729847D01*
X137918649Y-61105259D01*
X137918654Y-61105265D01*
X138192972Y-61468642D01*
X138479331Y-61815281D01*
X138485478Y-61823376D01*
X138504023Y-61850000D01*
X138546949Y-61911624D01*
X138616442Y-62002654D01*
X138616443Y-62002655D01*
X138733297Y-62139945D01*
X138768488Y-62181290D01*
X138934020Y-62356443D01*
X138934029Y-62356452D01*
X139108336Y-62529430D01*
X139273692Y-62689475D01*
X139463593Y-62873277D01*
X139465469Y-62875132D01*
X139588956Y-62999999D01*
X139635363Y-63046925D01*
X139638668Y-63050399D01*
X139797065Y-63223465D01*
X139801849Y-63229012D01*
X139945049Y-63405339D01*
X139949471Y-63411124D01*
X140012537Y-63498838D01*
X140015855Y-63503691D01*
X140073913Y-63593095D01*
X140077413Y-63598818D01*
X140129314Y-63689079D01*
X140132881Y-63695745D01*
X140178172Y-63786962D01*
X140181659Y-63794627D01*
X140219931Y-63886962D01*
X140223142Y-63895607D01*
X140254001Y-63989235D01*
X140256740Y-63998831D01*
X140279808Y-64094007D01*
X140281863Y-64104410D01*
X140296756Y-64201481D01*
X140297943Y-64212461D01*
X140304228Y-64311865D01*
X140304427Y-64323126D01*
X140301594Y-64425328D01*
X140300774Y-64436537D01*
X140288225Y-64542049D01*
X140286444Y-64552900D01*
X140263485Y-64662177D01*
X140260879Y-64672396D01*
X140226771Y-64785800D01*
X140223525Y-64795207D01*
X140175788Y-64917400D01*
X140175783Y-64917413D01*
X140025399Y-65555614D01*
X140025394Y-65555640D01*
X139916648Y-66195707D01*
X139847276Y-66836989D01*
X139847275Y-66836991D01*
X139815007Y-67478834D01*
X139815006Y-67478846D01*
X139817574Y-68120521D01*
X139817575Y-68120538D01*
X139852708Y-68761470D01*
X139852709Y-68761481D01*
X139918140Y-69400987D01*
X140011593Y-70038377D01*
X140130815Y-70673080D01*
X140273515Y-71304332D01*
X140437439Y-71931537D01*
X140620302Y-72553999D01*
X140819865Y-73171143D01*
X141033815Y-73782187D01*
X141482566Y-74948959D01*
X141488259Y-75018597D01*
X141487987Y-75019875D01*
X141423457Y-75315989D01*
X141422206Y-75321188D01*
X141335383Y-75650615D01*
X141334124Y-75655057D01*
X141233978Y-75984707D01*
X141232783Y-75988428D01*
X141121102Y-76318291D01*
X141120028Y-76321332D01*
X140998590Y-76651490D01*
X140997680Y-76653888D01*
X140868373Y-76984181D01*
X140867403Y-76986583D01*
X140591611Y-77649893D01*
X140591241Y-77650775D01*
X140289892Y-78360056D01*
X140081730Y-78850005D01*
X140025373Y-78982651D01*
X139765135Y-79651635D01*
X139647110Y-79987244D01*
X139539588Y-80323738D01*
X139562204Y-81297634D01*
X139562236Y-81300154D01*
X139565078Y-82281170D01*
X139565079Y-82281569D01*
X139564762Y-83268274D01*
X139577918Y-84255352D01*
X139621185Y-85239135D01*
X139659310Y-85728711D01*
X139711197Y-86216064D01*
X139778934Y-86700828D01*
X139864589Y-87182460D01*
X139864593Y-87182480D01*
X139970257Y-87660611D01*
X139970263Y-87660637D01*
X140098002Y-88134743D01*
X140098011Y-88134771D01*
X140149070Y-88270929D01*
X140149070Y-88270930D01*
X140183536Y-88346215D01*
X140207298Y-88398119D01*
X140267382Y-88507497D01*
X140272355Y-88516550D01*
X140272358Y-88516554D01*
X140343893Y-88626432D01*
X140343897Y-88626437D01*
X140343899Y-88626440D01*
X140397529Y-88696556D01*
X140421611Y-88728041D01*
X140505120Y-88821536D01*
X140505133Y-88821550D01*
X140594150Y-88907222D01*
X140688322Y-88985277D01*
X140716113Y-89005116D01*
X140787324Y-89055952D01*
X140877732Y-89111437D01*
X140890790Y-89119452D01*
X140890796Y-89119455D01*
X140983784Y-89168338D01*
X140998417Y-89176030D01*
X141109860Y-89225906D01*
X141143083Y-89238453D01*
X141224771Y-89269304D01*
X141224775Y-89269305D01*
X141224785Y-89269309D01*
X141342856Y-89306467D01*
X141463740Y-89337610D01*
X141587102Y-89362967D01*
X141839920Y-89397235D01*
X141839926Y-89397235D01*
X141839933Y-89397236D01*
X141902718Y-89400600D01*
X142098633Y-89411100D01*
X142360567Y-89406394D01*
X142360576Y-89406393D01*
X142360584Y-89406393D01*
X142623033Y-89384948D01*
X142623037Y-89384947D01*
X142623043Y-89384947D01*
X142883385Y-89348587D01*
X142979316Y-89330026D01*
X143138904Y-89299149D01*
X143138913Y-89299146D01*
X143138917Y-89299146D01*
X143386961Y-89238453D01*
X143613795Y-89171593D01*
X143636301Y-89167172D01*
X143764284Y-89154161D01*
X143837713Y-89143537D01*
X143904359Y-89133895D01*
X143904363Y-89133894D01*
X143904378Y-89133892D01*
X144186190Y-89077722D01*
X144469618Y-89005116D01*
X144584882Y-88971169D01*
X144753994Y-88921363D01*
X144851889Y-88890426D01*
X145322258Y-88741780D01*
X145323661Y-88741346D01*
X145604481Y-88656609D01*
X145608051Y-88655592D01*
X145884922Y-88581376D01*
X145890835Y-88579947D01*
X146162869Y-88521307D01*
X146171386Y-88519780D01*
X146439298Y-88481353D01*
X146447413Y-88480462D01*
X146576934Y-88470572D01*
X146583301Y-88470252D01*
X146712333Y-88467100D01*
X146719451Y-88467130D01*
X146846703Y-88471353D01*
X146854472Y-88471858D01*
X146979916Y-88483992D01*
X146988300Y-88485094D01*
X147111937Y-88505681D01*
X147120821Y-88507496D01*
X147242744Y-88537100D01*
X147251889Y-88539696D01*
X147372230Y-88578925D01*
X147381441Y-88582337D01*
X147410536Y-88594453D01*
X147500336Y-88631846D01*
X147509401Y-88636057D01*
X147547329Y-88655572D01*
X147626996Y-88696562D01*
X147635634Y-88701456D01*
X147752061Y-88773738D01*
X147760150Y-88779213D01*
X147875478Y-88864079D01*
X147882851Y-88869949D01*
X148000513Y-88971169D01*
X148000515Y-88971170D01*
X148000516Y-88971171D01*
X148544067Y-89318761D01*
X149100742Y-89643263D01*
X149247154Y-89720704D01*
X149669639Y-89944167D01*
X150249832Y-90220954D01*
X150840418Y-90473113D01*
X151440489Y-90700132D01*
X152049135Y-90901498D01*
X152315045Y-90977088D01*
X152665445Y-91076698D01*
X153288507Y-91225219D01*
X153288510Y-91225219D01*
X153288516Y-91225221D01*
X153917431Y-91346553D01*
X154551285Y-91440182D01*
X155189168Y-91505595D01*
X155189198Y-91505596D01*
X155189211Y-91505598D01*
X155471778Y-91521768D01*
X155830151Y-91542278D01*
X155830152Y-91542279D01*
X155830170Y-91542280D01*
X156473383Y-91549723D01*
X157096334Y-91528159D01*
X157117898Y-91527413D01*
X157175140Y-91522746D01*
X157762803Y-91474837D01*
X157892470Y-91439447D01*
X157896433Y-91438438D01*
X158021165Y-91408945D01*
X158025449Y-91408014D01*
X158147059Y-91383878D01*
X158151677Y-91383053D01*
X158270192Y-91364223D01*
X158275139Y-91363539D01*
X158390547Y-91349967D01*
X158395801Y-91349462D01*
X158508151Y-91341092D01*
X158513701Y-91340804D01*
X158623018Y-91337582D01*
X158628830Y-91337548D01*
X158735157Y-91339423D01*
X158741238Y-91339680D01*
X158844582Y-91346600D01*
X158850846Y-91347181D01*
X158951273Y-91359098D01*
X158957739Y-91360041D01*
X159055277Y-91376905D01*
X159061882Y-91378235D01*
X159156564Y-91400002D01*
X159163266Y-91401742D01*
X159255215Y-91428394D01*
X159261944Y-91430554D01*
X159351211Y-91462064D01*
X159357847Y-91464625D01*
X159444528Y-91500995D01*
X159451080Y-91503972D01*
X159535187Y-91545176D01*
X159541568Y-91548537D01*
X159623219Y-91594614D01*
X159629342Y-91598306D01*
X159708615Y-91649289D01*
X159714431Y-91653268D01*
X159791389Y-91709202D01*
X159796849Y-91713407D01*
X159871514Y-91774314D01*
X159876592Y-91778692D01*
X159948996Y-91844617D01*
X159953702Y-91849134D01*
X160023861Y-91920112D01*
X160028162Y-91924690D01*
X160096110Y-92000783D01*
X160099973Y-92005326D01*
X160165729Y-92086596D01*
X160169223Y-92091127D01*
X160232698Y-92177496D01*
X160235852Y-92181993D01*
X160297077Y-92273536D01*
X160299885Y-92277932D01*
X160358843Y-92374655D01*
X160361333Y-92378930D01*
X160418017Y-92480861D01*
X160420215Y-92484995D01*
X160474591Y-92592105D01*
X160476523Y-92596086D01*
X160528578Y-92708381D01*
X160530272Y-92712201D01*
X160579995Y-92829687D01*
X160581473Y-92833341D01*
X160629514Y-92957727D01*
X160629518Y-92957735D01*
X161027444Y-93600262D01*
X161456704Y-94216247D01*
X161456715Y-94216262D01*
X161665343Y-94484541D01*
X161915532Y-94806264D01*
X162282580Y-95232143D01*
X162402119Y-95370843D01*
X162402140Y-95370867D01*
X162914715Y-95910585D01*
X162914724Y-95910594D01*
X163451545Y-96426057D01*
X164005080Y-96912770D01*
X164010821Y-96917818D01*
X164467206Y-97286594D01*
X164590752Y-97386424D01*
X165189586Y-97832466D01*
X165805539Y-98256504D01*
X166436832Y-98659108D01*
X167081691Y-99040847D01*
X167738339Y-99402290D01*
X168404998Y-99744004D01*
X169079893Y-100066560D01*
X169761247Y-100370526D01*
X169904472Y-100393064D01*
X169911696Y-100394422D01*
X170039848Y-100422457D01*
X170047696Y-100424444D01*
X170164564Y-100458135D01*
X170172939Y-100460877D01*
X170278963Y-100499836D01*
X170287839Y-100503495D01*
X170383540Y-100547348D01*
X170392720Y-100552024D01*
X170478726Y-100600451D01*
X170487960Y-100606199D01*
X170564932Y-100658934D01*
X170573950Y-100665736D01*
X170642598Y-100722620D01*
X170651107Y-100730365D01*
X170712088Y-100791290D01*
X170719840Y-100799789D01*
X170773807Y-100864771D01*
X170780590Y-100873737D01*
X170828091Y-100942819D01*
X170833801Y-100951949D01*
X170875308Y-101025207D01*
X170879936Y-101034213D01*
X170915816Y-101111668D01*
X170919430Y-101120311D01*
X170949991Y-101201937D01*
X170952708Y-101210035D01*
X170978224Y-101295746D01*
X170980192Y-101303193D01*
X171000567Y-101391317D01*
X171002416Y-101401086D01*
X171030844Y-101593058D01*
X171031953Y-101603685D01*
X171044310Y-101806611D01*
X171044538Y-101814631D01*
X171043707Y-102028153D01*
X171043551Y-102033901D01*
X171032425Y-102255033D01*
X171032052Y-102260260D01*
X170946745Y-103179534D01*
X170943854Y-103197001D01*
X170914844Y-103317928D01*
X170889801Y-103446288D01*
X170870611Y-103573490D01*
X170857103Y-103699521D01*
X170849094Y-103824417D01*
X170846404Y-103948215D01*
X170848859Y-104070897D01*
X170856274Y-104192521D01*
X170868472Y-104313082D01*
X170885277Y-104432632D01*
X170931982Y-104668708D01*
X170931987Y-104668727D01*
X170994963Y-104900939D01*
X170994963Y-104900941D01*
X171072770Y-105129436D01*
X171072782Y-105129469D01*
X171150188Y-105320381D01*
X171164003Y-105354455D01*
X171267202Y-105576090D01*
X171267208Y-105576102D01*
X171380941Y-105794530D01*
X171503801Y-106009964D01*
X171599301Y-106165480D01*
X171634329Y-106222522D01*
X171704871Y-106330764D01*
X171771113Y-106432408D01*
X172048861Y-106832081D01*
X172063118Y-106859247D01*
X172118280Y-107006123D01*
X172118288Y-107006142D01*
X172186805Y-107157651D01*
X172262862Y-107299697D01*
X172262882Y-107299730D01*
X172346121Y-107432748D01*
X172346130Y-107432762D01*
X172346141Y-107432779D01*
X172436254Y-107557271D01*
X172436258Y-107557276D01*
X172532861Y-107673627D01*
X172532864Y-107673630D01*
X172635585Y-107782249D01*
X172635608Y-107782272D01*
X172744091Y-107883593D01*
X172744098Y-107883599D01*
X172744109Y-107883609D01*
X172858042Y-107978100D01*
X172858050Y-107978106D01*
X172858055Y-107978110D01*
X172858062Y-107978116D01*
X172977017Y-108066147D01*
X172977022Y-108066151D01*
X172977029Y-108066156D01*
X172977039Y-108066163D01*
X173100745Y-108148227D01*
X173100761Y-108148236D01*
X173100769Y-108148242D01*
X173228796Y-108224716D01*
X173228799Y-108224718D01*
X173228803Y-108224720D01*
X173496554Y-108362713D01*
X173777443Y-108483572D01*
X176155795Y-109245503D01*
X176281856Y-109254113D01*
X176291517Y-109255156D01*
X176403639Y-109271738D01*
X176413855Y-109273691D01*
X176517094Y-109297983D01*
X176527681Y-109300976D01*
X176595981Y-109323609D01*
X176622685Y-109332458D01*
X176633340Y-109336542D01*
X176720851Y-109374789D01*
X176731215Y-109379906D01*
X176766961Y-109399684D01*
X176811992Y-109424599D01*
X176821762Y-109430612D01*
X176896502Y-109481516D01*
X176905395Y-109488175D01*
X176974741Y-109545141D01*
X176982603Y-109552182D01*
X177047052Y-109615046D01*
X177053816Y-109622189D01*
X177113817Y-109690808D01*
X177119490Y-109697792D01*
X177175413Y-109771983D01*
X177180066Y-109778595D01*
X177232211Y-109858094D01*
X177235985Y-109864230D01*
X177284638Y-109948731D01*
X177287650Y-109954285D01*
X177332552Y-110042365D01*
X177335889Y-110049457D01*
X177418909Y-110241400D01*
X177421811Y-110248742D01*
X177495037Y-110452792D01*
X177496692Y-110457726D01*
X177563472Y-110671650D01*
X177564357Y-110674614D01*
X177690825Y-111118369D01*
X177756239Y-111338866D01*
X177792425Y-111448067D01*
X177813452Y-111511522D01*
X177827370Y-111553521D01*
X177827373Y-111553529D01*
X177907479Y-111758892D01*
X177907487Y-111758910D01*
X177991722Y-111934638D01*
X178002591Y-111970232D01*
X178025154Y-112123979D01*
X178025155Y-112123981D01*
X178060551Y-112288093D01*
X178105599Y-112444159D01*
X178117098Y-112475586D01*
X178148962Y-112562676D01*
X178159901Y-112592572D01*
X178223011Y-112733569D01*
X178223014Y-112733575D01*
X178294500Y-112867446D01*
X178294514Y-112867470D01*
X178373960Y-112994532D01*
X178399552Y-113030000D01*
X178460952Y-113115096D01*
X178460956Y-113115100D01*
X178460959Y-113115105D01*
X178514680Y-113180383D01*
X178555048Y-113229435D01*
X178601149Y-113279029D01*
X178655826Y-113337850D01*
X178762830Y-113440605D01*
X178762840Y-113440615D01*
X178762845Y-113440619D01*
X178762852Y-113440626D01*
X178875708Y-113538067D01*
X179117192Y-113718119D01*
X179376863Y-113880361D01*
X179651300Y-114027149D01*
X179651299Y-114027149D01*
X179937116Y-114160856D01*
X180230868Y-114283826D01*
X180529138Y-114398420D01*
X180893607Y-114529815D01*
X181699351Y-114820296D01*
X190427081Y-117739840D01*
X194474291Y-119058555D01*
X199178776Y-120591432D01*
X201606483Y-121352261D01*
X203570038Y-121967628D01*
X206525173Y-122860056D01*
X207974997Y-123297892D01*
X207975011Y-123297896D01*
X212396266Y-124572589D01*
X216621157Y-125723435D01*
X216680664Y-125760046D01*
X216710932Y-125823019D01*
X216702350Y-125892360D01*
X216672978Y-125933907D01*
X216369286Y-126216136D01*
X216368080Y-126217242D01*
X216132465Y-126430483D01*
X216131523Y-126431327D01*
X215893627Y-126642256D01*
X215892577Y-126643177D01*
X215804977Y-126719101D01*
X215652433Y-126851314D01*
X215651323Y-126852264D01*
X215408749Y-127057324D01*
X215407474Y-127058388D01*
X215162314Y-127260068D01*
X215160922Y-127261197D01*
X214912641Y-127459497D01*
X214911621Y-127460303D01*
X214083172Y-128107869D01*
X214077955Y-128111731D01*
X213224300Y-128709772D01*
X213219141Y-128713197D01*
X212340121Y-129265723D01*
X212335083Y-129268726D01*
X211432671Y-129778077D01*
X211427804Y-129780683D01*
X210504001Y-130249172D01*
X210499350Y-130251410D01*
X209556209Y-130681331D01*
X209551803Y-130683237D01*
X208591323Y-131076910D01*
X208587188Y-131078520D01*
X207611337Y-131438277D01*
X207607488Y-131439624D01*
X206618421Y-131767732D01*
X206614868Y-131768852D01*
X205614517Y-132067658D01*
X205611264Y-132068581D01*
X204601792Y-132340367D01*
X204598842Y-132341123D01*
X203582759Y-132588095D01*
X203578938Y-132588960D01*
X201531703Y-133018566D01*
X201527599Y-133019355D01*
X199475741Y-133378196D01*
X197752548Y-133729267D01*
X197747926Y-133730118D01*
X196024789Y-134013642D01*
X196020405Y-134014283D01*
X194294023Y-134235325D01*
X194289912Y-134235782D01*
X192559340Y-134398917D01*
X192555532Y-134399217D01*
X190819861Y-134509015D01*
X190816375Y-134509186D01*
X189074735Y-134570217D01*
X189071586Y-134570287D01*
X187323115Y-134587123D01*
X187320313Y-134587119D01*
X186696324Y-134579024D01*
X185562779Y-134564319D01*
X185562766Y-134564319D01*
X185562749Y-134564319D01*
X183695244Y-134599106D01*
X183690654Y-134599107D01*
X181831832Y-134564901D01*
X181827808Y-134564762D01*
X179974070Y-134470381D01*
X179970633Y-134470158D01*
X178120952Y-134324384D01*
X178118110Y-134324127D01*
X176271408Y-134135746D01*
X176269164Y-134135496D01*
X174424721Y-133913339D01*
X174422543Y-133913057D01*
X170733799Y-133402333D01*
X170733793Y-133402333D01*
X170717820Y-133402660D01*
X170623337Y-133404595D01*
X170617825Y-133404585D01*
X170509311Y-133401982D01*
X170502373Y-133401621D01*
X170275814Y-133383453D01*
X170268675Y-133382672D01*
X170036574Y-133350450D01*
X170031690Y-133349672D01*
X169794280Y-133307002D01*
X169790888Y-133306344D01*
X169465075Y-133238363D01*
X169303894Y-133204733D01*
X169303777Y-133204708D01*
X169058995Y-133154126D01*
X168815125Y-133109052D01*
X168573575Y-133073512D01*
X168573564Y-133073511D01*
X168573563Y-133073510D01*
X168573557Y-133073510D01*
X168440387Y-133061183D01*
X168335344Y-133051460D01*
X168335339Y-133051459D01*
X168101628Y-133046879D01*
X168101606Y-133046879D01*
X167986811Y-133052380D01*
X167986783Y-133052382D01*
X167873511Y-133063742D01*
X167761932Y-133081453D01*
X167761924Y-133081454D01*
X167761916Y-133081456D01*
X167652149Y-133106022D01*
X167652140Y-133106024D01*
X167652134Y-133106026D01*
X167544358Y-133137932D01*
X167438655Y-133177695D01*
X167335223Y-133225791D01*
X167335218Y-133225793D01*
X167234172Y-133282729D01*
X167234167Y-133282732D01*
X167199066Y-133306344D01*
X167135645Y-133349006D01*
X167039797Y-133425109D01*
X166934305Y-133740159D01*
X166934296Y-133740190D01*
X166851335Y-134059694D01*
X166851330Y-134059716D01*
X166788323Y-134383147D01*
X166788321Y-134383160D01*
X166742679Y-134710058D01*
X166711826Y-135039899D01*
X166693181Y-135372177D01*
X166682191Y-136042016D01*
X166693127Y-137387326D01*
X166693115Y-137390353D01*
X166687706Y-137722534D01*
X166687615Y-137725676D01*
X166673867Y-138055721D01*
X166673625Y-138059854D01*
X166649053Y-138386780D01*
X166648560Y-138391908D01*
X166610401Y-138717768D01*
X166610277Y-138718792D01*
X166559019Y-139127075D01*
X166521739Y-139544854D01*
X166471919Y-140399148D01*
X166426216Y-141262836D01*
X166426044Y-141265525D01*
X166394052Y-141693635D01*
X166393739Y-141697155D01*
X166349930Y-142120583D01*
X166349328Y-142125455D01*
X166289528Y-142541704D01*
X166288463Y-142547969D01*
X166208538Y-142954898D01*
X166206777Y-142962570D01*
X166102636Y-143358130D01*
X166099890Y-143367150D01*
X165967027Y-143750672D01*
X165964152Y-143758176D01*
X165886606Y-143942459D01*
X165884213Y-143947791D01*
X165797589Y-144129225D01*
X165794788Y-144134734D01*
X165699074Y-144311916D01*
X165695845Y-144317538D01*
X165590490Y-144490313D01*
X165586825Y-144495971D01*
X165471312Y-144664113D01*
X165467220Y-144669725D01*
X165340971Y-144833079D01*
X165336477Y-144838563D01*
X165198930Y-144996929D01*
X165194074Y-145002204D01*
X165042121Y-145157977D01*
X165001169Y-145223898D01*
X164996332Y-145231107D01*
X164955242Y-145287949D01*
X164949870Y-145294854D01*
X164906488Y-145346728D01*
X164900693Y-145353184D01*
X164855084Y-145400554D01*
X164849010Y-145406446D01*
X164801165Y-145449790D01*
X164794983Y-145455033D01*
X164744948Y-145494730D01*
X164738818Y-145499293D01*
X164686610Y-145535709D01*
X164680693Y-145539590D01*
X164626317Y-145573077D01*
X164620739Y-145576315D01*
X164564286Y-145607153D01*
X164559163Y-145609799D01*
X164501674Y-145637815D01*
X164495064Y-145640800D01*
X164371329Y-145692381D01*
X164364515Y-145694989D01*
X164235755Y-145739974D01*
X164231475Y-145741383D01*
X164097536Y-145782782D01*
X164096236Y-145783176D01*
X163821835Y-145864708D01*
X163686452Y-145909739D01*
X163554419Y-145961273D01*
X163427179Y-146022100D01*
X163427163Y-146022108D01*
X163365819Y-146056864D01*
X163365783Y-146056885D01*
X163306177Y-146095010D01*
X163306155Y-146095025D01*
X163248470Y-146136864D01*
X163192849Y-146182799D01*
X163192845Y-146182802D01*
X163139515Y-146233146D01*
X163139509Y-146233152D01*
X163088645Y-146288258D01*
X162899199Y-146674222D01*
X162721232Y-147066637D01*
X162390541Y-147865989D01*
X161766633Y-149486942D01*
X161765590Y-149489562D01*
X161436574Y-150289617D01*
X161434993Y-150293291D01*
X161258873Y-150685121D01*
X161257322Y-150688441D01*
X161069981Y-151074317D01*
X161067983Y-151078252D01*
X160867437Y-151456455D01*
X160864930Y-151460955D01*
X160648934Y-151830356D01*
X160645853Y-151835350D01*
X160412194Y-152194779D01*
X160408484Y-152200169D01*
X160225206Y-152451955D01*
X160169838Y-152494571D01*
X160100219Y-152500488D01*
X160052784Y-152479815D01*
X159988613Y-152433887D01*
X159982928Y-152429565D01*
X159888596Y-152353471D01*
X159825220Y-152302347D01*
X159820375Y-152298229D01*
X159666008Y-152159994D01*
X159661885Y-152156129D01*
X159510810Y-152007789D01*
X159507328Y-152004226D01*
X159359675Y-151846891D01*
X159356702Y-151843605D01*
X159212465Y-151678279D01*
X159209895Y-151675236D01*
X159069076Y-151502959D01*
X159066889Y-151500204D01*
X158929481Y-151322012D01*
X158927623Y-151319539D01*
X158793595Y-151136464D01*
X158792062Y-151134323D01*
X158661622Y-150947742D01*
X158659763Y-150945004D01*
X158407930Y-150563217D01*
X158406101Y-150560360D01*
X158295582Y-150382404D01*
X158167518Y-150176195D01*
X158166402Y-150174361D01*
X157940096Y-149795255D01*
X157940090Y-149795246D01*
X157876766Y-149706660D01*
X157873597Y-149702007D01*
X157814849Y-149611393D01*
X157812262Y-149607224D01*
X157756000Y-149512388D01*
X157753900Y-149508705D01*
X157700227Y-149410713D01*
X157697848Y-149406148D01*
X157594897Y-149198134D01*
X157592834Y-149193746D01*
X157495934Y-148976593D01*
X157494653Y-148973617D01*
X157307124Y-148521487D01*
X157212205Y-148295601D01*
X157112984Y-148074460D01*
X157112980Y-148074451D01*
X157006796Y-147861500D01*
X156950245Y-147759130D01*
X156890933Y-147660047D01*
X156882150Y-147646624D01*
X156828542Y-147564692D01*
X156828528Y-147564672D01*
X156828523Y-147564664D01*
X156762673Y-147473396D01*
X156693045Y-147386655D01*
X156619299Y-147304855D01*
X156619294Y-147304849D01*
X156541107Y-147228420D01*
X156541079Y-147228395D01*
X156458098Y-147157734D01*
X156458095Y-147157732D01*
X156458093Y-147157730D01*
X156369955Y-147093230D01*
X156369954Y-147093229D01*
X156276344Y-147035328D01*
X156276330Y-147035320D01*
X156176907Y-146984426D01*
X156071317Y-146940948D01*
X156071311Y-146940946D01*
X155959243Y-146905305D01*
X155959234Y-146905303D01*
X155840311Y-146877903D01*
X152415187Y-147925334D01*
X152413115Y-147925948D01*
X151555756Y-148171878D01*
X151552821Y-148172681D01*
X150689322Y-148397590D01*
X150685326Y-148398561D01*
X149812113Y-148595333D01*
X149808461Y-148596098D01*
X149368536Y-148681412D01*
X149365760Y-148681918D01*
X149048403Y-148736001D01*
X148979010Y-148727858D01*
X148925034Y-148683491D01*
X148904501Y-148628915D01*
X148891292Y-148521622D01*
X148874484Y-148385099D01*
X148874195Y-148382521D01*
X148865369Y-148295601D01*
X148836321Y-148009517D01*
X148836181Y-148008044D01*
X148823087Y-147861494D01*
X148769133Y-147257649D01*
X148753153Y-147093230D01*
X148732667Y-146882453D01*
X148689310Y-146508161D01*
X148689308Y-146508143D01*
X148635345Y-146135209D01*
X148603226Y-145949405D01*
X148603222Y-145949381D01*
X148567940Y-145768622D01*
X148566519Y-145759580D01*
X148558800Y-145694989D01*
X148549468Y-145616894D01*
X148549466Y-145616882D01*
X148549466Y-145616880D01*
X148527997Y-145510776D01*
X148521879Y-145480533D01*
X148514365Y-145455033D01*
X148484767Y-145354579D01*
X148438607Y-145238568D01*
X148438604Y-145238562D01*
X148438602Y-145238557D01*
X148383858Y-145132012D01*
X148383855Y-145132006D01*
X148321011Y-145034486D01*
X148321006Y-145034478D01*
X148295442Y-145002204D01*
X148250521Y-144945492D01*
X148172860Y-144864575D01*
X148088521Y-144791289D01*
X148088516Y-144791285D01*
X147997960Y-144725153D01*
X147997954Y-144725149D01*
X147997951Y-144725147D01*
X147901634Y-144665693D01*
X147901627Y-144665689D01*
X147901620Y-144665685D01*
X147830705Y-144628529D01*
X147800040Y-144612462D01*
X147800036Y-144612460D01*
X147800028Y-144612456D01*
X147693658Y-144564997D01*
X147693637Y-144564988D01*
X147582910Y-144522811D01*
X147582894Y-144522805D01*
X147350314Y-144452470D01*
X145396037Y-144140718D01*
X145376754Y-144136033D01*
X145299702Y-144110633D01*
X145299698Y-144110632D01*
X145299689Y-144110629D01*
X145203633Y-144084638D01*
X145099799Y-144060607D01*
X144990049Y-144037991D01*
X144529032Y-143950715D01*
X144526270Y-143950159D01*
X144416824Y-143926852D01*
X144413641Y-143926131D01*
X144309998Y-143901191D01*
X144305423Y-143899997D01*
X144210136Y-143873187D01*
X144203771Y-143871210D01*
X144119063Y-143842382D01*
X144110319Y-143839032D01*
X144037001Y-143807714D01*
X144028445Y-143803666D01*
X143999606Y-143788650D01*
X143992697Y-143784766D01*
X143978733Y-143776319D01*
X143931563Y-143724775D01*
X143919748Y-143655912D01*
X143947039Y-143591592D01*
X143950390Y-143587675D01*
X144025814Y-143503133D01*
X144177332Y-143309838D01*
X144318487Y-143097373D01*
X144446536Y-142869403D01*
X144558739Y-142629592D01*
X144608040Y-142506392D01*
X144652352Y-142381605D01*
X144691330Y-142255691D01*
X144724632Y-142129106D01*
X144741952Y-142048618D01*
X144751915Y-142002315D01*
X144772834Y-141875791D01*
X144772834Y-141875787D01*
X144772839Y-141875760D01*
X144787057Y-141749915D01*
X144794229Y-141625232D01*
X144794011Y-141502169D01*
X144786060Y-141381185D01*
X144786059Y-141381175D01*
X144786059Y-141381173D01*
X144770411Y-141265525D01*
X144770034Y-141262737D01*
X144745590Y-141147284D01*
X144712385Y-141035283D01*
X144670077Y-140927194D01*
X144635936Y-140858773D01*
X144618324Y-140823476D01*
X144556781Y-140724585D01*
X144556779Y-140724583D01*
X144556777Y-140724579D01*
X144485101Y-140630970D01*
X144485097Y-140630966D01*
X144485095Y-140630963D01*
X144402948Y-140543101D01*
X144309984Y-140461441D01*
X144205860Y-140386438D01*
X144205848Y-140386431D01*
X144090227Y-140318548D01*
X144090221Y-140318545D01*
X143962743Y-140258232D01*
X143962742Y-140258232D01*
X143529224Y-140335590D01*
X143099297Y-140430305D01*
X142672461Y-140540136D01*
X142248194Y-140662847D01*
X141405548Y-140937901D01*
X140567412Y-141237535D01*
X139730758Y-141543482D01*
X139729217Y-141544034D01*
X138890642Y-141838191D01*
X138887971Y-141839094D01*
X138467819Y-141975830D01*
X138465206Y-141976648D01*
X138043155Y-142103768D01*
X138039900Y-142104700D01*
X137615654Y-142219945D01*
X137611744Y-142220940D01*
X137279215Y-142299749D01*
X137209443Y-142296055D01*
X137152744Y-142255226D01*
X137136962Y-142228671D01*
X137133590Y-142220940D01*
X137121392Y-142192977D01*
X137117959Y-142184209D01*
X137070718Y-142048618D01*
X137067794Y-142038986D01*
X137029998Y-141893371D01*
X137028349Y-141886132D01*
X137026317Y-141875791D01*
X136997766Y-141730521D01*
X136996894Y-141725549D01*
X136971657Y-141561659D01*
X136971228Y-141558612D01*
X136949312Y-141388168D01*
X136949185Y-141387151D01*
X136948467Y-141381175D01*
X136906913Y-141035451D01*
X136882227Y-140858775D01*
X136852184Y-140683827D01*
X136814524Y-140512178D01*
X136766990Y-140345397D01*
X136766989Y-140345394D01*
X136766989Y-140345392D01*
X136707322Y-140185064D01*
X136707322Y-140185063D01*
X136672226Y-140107786D01*
X136670731Y-140104907D01*
X136633255Y-140032723D01*
X136590119Y-139960051D01*
X136542537Y-139889971D01*
X136542520Y-139889949D01*
X136490231Y-139822682D01*
X136490229Y-139822680D01*
X136432907Y-139758369D01*
X136432906Y-139758368D01*
X136164123Y-139629374D01*
X135949802Y-139544854D01*
X135888032Y-139520494D01*
X135887998Y-139520482D01*
X135605456Y-139429467D01*
X135605400Y-139429451D01*
X135317145Y-139354015D01*
X135024028Y-139291909D01*
X134726890Y-139240880D01*
X134426574Y-139198670D01*
X134123873Y-139163018D01*
X132907222Y-139040974D01*
X132904636Y-139040687D01*
X132605241Y-139004294D01*
X132602298Y-139003900D01*
X132306202Y-138960690D01*
X132302277Y-138960053D01*
X132010556Y-138907879D01*
X132005644Y-138906898D01*
X131876643Y-138878406D01*
X131815427Y-138844726D01*
X131782137Y-138783297D01*
X131787342Y-138713622D01*
X131794281Y-138698400D01*
X131989640Y-138336796D01*
X131991054Y-138334253D01*
X132276203Y-137836043D01*
X132277600Y-137833668D01*
X132574289Y-137342033D01*
X132575635Y-137339855D01*
X132847981Y-136909994D01*
X155594859Y-136909994D01*
X155594859Y-136910005D01*
X155615385Y-137157729D01*
X155615387Y-137157738D01*
X155676412Y-137398717D01*
X155776266Y-137626364D01*
X155876564Y-137779882D01*
X156700000Y-136956446D01*
X156700000Y-136962661D01*
X156727259Y-137064394D01*
X156779920Y-137155606D01*
X156854394Y-137230080D01*
X156945606Y-137282741D01*
X157047339Y-137310000D01*
X157053553Y-137310000D01*
X156229942Y-138133609D01*
X156276768Y-138170055D01*
X156276770Y-138170056D01*
X156495385Y-138288364D01*
X156495396Y-138288369D01*
X156730506Y-138369083D01*
X156975707Y-138410000D01*
X157224293Y-138410000D01*
X157469493Y-138369083D01*
X157704603Y-138288369D01*
X157704614Y-138288364D01*
X157923228Y-138170057D01*
X157923231Y-138170055D01*
X157970056Y-138133609D01*
X157146447Y-137310000D01*
X157152661Y-137310000D01*
X157254394Y-137282741D01*
X157345606Y-137230080D01*
X157420080Y-137155606D01*
X157472741Y-137064394D01*
X157500000Y-136962661D01*
X157500000Y-136956448D01*
X158323434Y-137779882D01*
X158423731Y-137626369D01*
X158523587Y-137398717D01*
X158584612Y-137157738D01*
X158584614Y-137157729D01*
X158605141Y-136910005D01*
X158605141Y-136909994D01*
X158584614Y-136662270D01*
X158584612Y-136662261D01*
X158523587Y-136421282D01*
X158423731Y-136193630D01*
X158323434Y-136040116D01*
X157500000Y-136863551D01*
X157500000Y-136857339D01*
X157472741Y-136755606D01*
X157420080Y-136664394D01*
X157345606Y-136589920D01*
X157254394Y-136537259D01*
X157152661Y-136510000D01*
X157146448Y-136510000D01*
X157970057Y-135686390D01*
X157970056Y-135686389D01*
X157923229Y-135649943D01*
X157704614Y-135531635D01*
X157704603Y-135531630D01*
X157469493Y-135450916D01*
X157224293Y-135410000D01*
X156975707Y-135410000D01*
X156730506Y-135450916D01*
X156495396Y-135531630D01*
X156495390Y-135531632D01*
X156276761Y-135649949D01*
X156229942Y-135686388D01*
X156229942Y-135686390D01*
X157053553Y-136510000D01*
X157047339Y-136510000D01*
X156945606Y-136537259D01*
X156854394Y-136589920D01*
X156779920Y-136664394D01*
X156727259Y-136755606D01*
X156700000Y-136857339D01*
X156700000Y-136863552D01*
X155876564Y-136040116D01*
X155776267Y-136193632D01*
X155676412Y-136421282D01*
X155615387Y-136662261D01*
X155615385Y-136662270D01*
X155594859Y-136909994D01*
X132847981Y-136909994D01*
X132883200Y-136854405D01*
X132884469Y-136852447D01*
X133201943Y-136373274D01*
X133203249Y-136371344D01*
X133325932Y-136193632D01*
X133529849Y-135898246D01*
X133531055Y-135896533D01*
X133866099Y-135429173D01*
X133867153Y-135427728D01*
X134210263Y-134965372D01*
X134237553Y-134905547D01*
X134241077Y-134898440D01*
X134269252Y-134845953D01*
X134273358Y-134838879D01*
X134303818Y-134790168D01*
X134308471Y-134783256D01*
X134341065Y-134738207D01*
X134346257Y-134731526D01*
X134380801Y-134690092D01*
X134386527Y-134683690D01*
X134422882Y-134645783D01*
X134429076Y-134639764D01*
X134467081Y-134605344D01*
X134473752Y-134599719D01*
X134513234Y-134568755D01*
X134520327Y-134563590D01*
X134561163Y-134536021D01*
X134568623Y-134531365D01*
X134610679Y-134507155D01*
X134618486Y-134503026D01*
X134661592Y-134482165D01*
X134669695Y-134478596D01*
X134713742Y-134461046D01*
X134722064Y-134458070D01*
X134758354Y-134446539D01*
X134766920Y-134443817D01*
X134775421Y-134441444D01*
X134820970Y-134430472D01*
X134829583Y-134428719D01*
X134875689Y-134421028D01*
X134884344Y-134419898D01*
X134930872Y-134415492D01*
X134939566Y-134414978D01*
X134986353Y-134413865D01*
X134995040Y-134413964D01*
X135041932Y-134416151D01*
X135050552Y-134416856D01*
X135097454Y-134422358D01*
X135105994Y-134423664D01*
X135152691Y-134432485D01*
X135161111Y-134434382D01*
X135188044Y-134441442D01*
X135207494Y-134446541D01*
X135215724Y-134449006D01*
X135261692Y-134464540D01*
X135269679Y-134467550D01*
X135315050Y-134486470D01*
X135322804Y-134490023D01*
X135367396Y-134512340D01*
X135374865Y-134516404D01*
X135418574Y-134542167D01*
X135425710Y-134546708D01*
X135468382Y-134575954D01*
X135475134Y-134580925D01*
X135498153Y-134599107D01*
X135516624Y-134613697D01*
X135522974Y-134619069D01*
X135563119Y-134655405D01*
X135569040Y-134661133D01*
X135607692Y-134701097D01*
X135613150Y-134707123D01*
X135650147Y-134750769D01*
X135655128Y-134757046D01*
X135690288Y-134804418D01*
X135694779Y-134810889D01*
X135730038Y-134865302D01*
X135793686Y-134937372D01*
X135797687Y-134941902D01*
X135867298Y-135010799D01*
X135910717Y-135048156D01*
X135938771Y-135072294D01*
X135938779Y-135072301D01*
X136011987Y-135126674D01*
X136012001Y-135126684D01*
X136086857Y-135174249D01*
X136086859Y-135174250D01*
X136086864Y-135174252D01*
X136086874Y-135174259D01*
X136163302Y-135215330D01*
X136241177Y-135250191D01*
X136241182Y-135250193D01*
X136241187Y-135250195D01*
X136320376Y-135279133D01*
X136320383Y-135279135D01*
X136320388Y-135279136D01*
X136320395Y-135279139D01*
X136400852Y-135302474D01*
X136430936Y-135309118D01*
X136482431Y-135320491D01*
X136482435Y-135320491D01*
X136482446Y-135320494D01*
X136565072Y-135333497D01*
X136648629Y-135341782D01*
X136733012Y-135345647D01*
X136818118Y-135345390D01*
X136990087Y-135333707D01*
X137163710Y-135309120D01*
X137312727Y-135279133D01*
X137338156Y-135274016D01*
X137340171Y-135273516D01*
X137512612Y-135230781D01*
X137686238Y-135181805D01*
X138317276Y-134988106D01*
X138387139Y-134987253D01*
X138394205Y-134989464D01*
X138444922Y-135007016D01*
X138536348Y-135032399D01*
X138571315Y-135039896D01*
X138629811Y-135052438D01*
X138629813Y-135052438D01*
X138629821Y-135052440D01*
X138724915Y-135067198D01*
X138821204Y-135076733D01*
X138918263Y-135081105D01*
X138918263Y-135081104D01*
X138918264Y-135081105D01*
X138924756Y-135081056D01*
X139015665Y-135080373D01*
X139112986Y-135074598D01*
X139209799Y-135063839D01*
X139305679Y-135048156D01*
X139400200Y-135027609D01*
X139492937Y-135002257D01*
X139492950Y-135002252D01*
X139492963Y-135002249D01*
X139553289Y-134982192D01*
X139583465Y-134972160D01*
X139671356Y-134937378D01*
X139756186Y-134897970D01*
X139837530Y-134853997D01*
X139914961Y-134805518D01*
X139988053Y-134752593D01*
X140056382Y-134695282D01*
X140119521Y-134633643D01*
X140177046Y-134567738D01*
X140228529Y-134497626D01*
X140273546Y-134423366D01*
X140311671Y-134345019D01*
X140342479Y-134262644D01*
X140365543Y-134176300D01*
X140380438Y-134086048D01*
X140386739Y-133991948D01*
X140384019Y-133894058D01*
X140371853Y-133792439D01*
X140349816Y-133687151D01*
X140317482Y-133578253D01*
X140113523Y-133211561D01*
X140030131Y-133073510D01*
X139896894Y-132852943D01*
X139896892Y-132852940D01*
X139896883Y-132852925D01*
X139669086Y-132501377D01*
X139558418Y-132340367D01*
X139431666Y-132155956D01*
X139367954Y-132067658D01*
X139186129Y-131815668D01*
X138934020Y-131479570D01*
X138934009Y-131479555D01*
X138416183Y-130816061D01*
X138416171Y-130816045D01*
X137369653Y-129497785D01*
X137367700Y-129495257D01*
X137213261Y-129290005D01*
X137213253Y-129289994D01*
X155594357Y-129289994D01*
X155594357Y-129290005D01*
X155614890Y-129537812D01*
X155614892Y-129537824D01*
X155675936Y-129778881D01*
X155775826Y-130006606D01*
X155911833Y-130214782D01*
X155911836Y-130214785D01*
X156080256Y-130397738D01*
X156276491Y-130550474D01*
X156495190Y-130668828D01*
X156730386Y-130749571D01*
X156975665Y-130790500D01*
X157224335Y-130790500D01*
X157469614Y-130749571D01*
X157704810Y-130668828D01*
X157923509Y-130550474D01*
X158119744Y-130397738D01*
X158288164Y-130214785D01*
X158424173Y-130006607D01*
X158518894Y-129790665D01*
X188091593Y-129790665D01*
X188091593Y-129790674D01*
X188110301Y-130040333D01*
X188110302Y-130040338D01*
X188166013Y-130284425D01*
X188166015Y-130284434D01*
X188166017Y-130284439D01*
X188257488Y-130517505D01*
X188382675Y-130734335D01*
X188483954Y-130861334D01*
X188538783Y-130930088D01*
X188695718Y-131075702D01*
X188722317Y-131100382D01*
X188929185Y-131241422D01*
X188929190Y-131241424D01*
X188929191Y-131241425D01*
X188929192Y-131241426D01*
X189048995Y-131299119D01*
X189154760Y-131350053D01*
X189154761Y-131350053D01*
X189154764Y-131350055D01*
X189394013Y-131423854D01*
X189394014Y-131423854D01*
X189394017Y-131423855D01*
X189641582Y-131461169D01*
X189641587Y-131461169D01*
X189641590Y-131461170D01*
X189641591Y-131461170D01*
X189891963Y-131461170D01*
X189891964Y-131461170D01*
X189891971Y-131461169D01*
X190139536Y-131423855D01*
X190139537Y-131423854D01*
X190139541Y-131423854D01*
X190378790Y-131350055D01*
X190604369Y-131241422D01*
X190811237Y-131100382D01*
X190994774Y-130930084D01*
X191150879Y-130734335D01*
X191276066Y-130517505D01*
X191367537Y-130284439D01*
X191423251Y-130040343D01*
X191441961Y-129790670D01*
X191441017Y-129778077D01*
X191423252Y-129541006D01*
X191423251Y-129541001D01*
X191423251Y-129540997D01*
X191367537Y-129296901D01*
X191276066Y-129063835D01*
X191150879Y-128847005D01*
X190994774Y-128651256D01*
X190994773Y-128651255D01*
X190994770Y-128651251D01*
X190811237Y-128480958D01*
X190722454Y-128420427D01*
X190604369Y-128339918D01*
X190604365Y-128339916D01*
X190604362Y-128339914D01*
X190604361Y-128339913D01*
X190378792Y-128231286D01*
X190378794Y-128231286D01*
X190139542Y-128157486D01*
X190139536Y-128157484D01*
X189891971Y-128120170D01*
X189891964Y-128120170D01*
X189641590Y-128120170D01*
X189641582Y-128120170D01*
X189394017Y-128157484D01*
X189394011Y-128157486D01*
X189154760Y-128231286D01*
X188929192Y-128339913D01*
X188929191Y-128339914D01*
X188722316Y-128480958D01*
X188538783Y-128651251D01*
X188382675Y-128847005D01*
X188257488Y-129063834D01*
X188166019Y-129296895D01*
X188166013Y-129296914D01*
X188110302Y-129541001D01*
X188110301Y-129541006D01*
X188091593Y-129790665D01*
X158518894Y-129790665D01*
X158524063Y-129778881D01*
X158585108Y-129537821D01*
X158585109Y-129537812D01*
X158605643Y-129290005D01*
X158605643Y-129289994D01*
X158585109Y-129042187D01*
X158585107Y-129042175D01*
X158524063Y-128801118D01*
X158424173Y-128573393D01*
X158288166Y-128365217D01*
X158264872Y-128339913D01*
X158119744Y-128182262D01*
X157923509Y-128029526D01*
X157923507Y-128029525D01*
X157923506Y-128029524D01*
X157704811Y-127911172D01*
X157704802Y-127911169D01*
X157469616Y-127830429D01*
X157224335Y-127789500D01*
X156975665Y-127789500D01*
X156730383Y-127830429D01*
X156495197Y-127911169D01*
X156495188Y-127911172D01*
X156276493Y-128029524D01*
X156080257Y-128182261D01*
X155911833Y-128365217D01*
X155775826Y-128573393D01*
X155675936Y-128801118D01*
X155614892Y-129042175D01*
X155614890Y-129042187D01*
X155594357Y-129289994D01*
X137213253Y-129289994D01*
X136864487Y-128826477D01*
X136862440Y-128823676D01*
X136621667Y-128484266D01*
X136619940Y-128481767D01*
X136386823Y-128135472D01*
X136209308Y-127877154D01*
X136088474Y-127707738D01*
X136027746Y-127622593D01*
X136010077Y-127598788D01*
X135841819Y-127372089D01*
X135651285Y-127126040D01*
X135455852Y-126884778D01*
X135255239Y-126648652D01*
X135049169Y-126418012D01*
X135049158Y-126418000D01*
X135049147Y-126417988D01*
X134837370Y-126193216D01*
X134619538Y-125974587D01*
X134575244Y-125932671D01*
X134395407Y-125762490D01*
X134395395Y-125762479D01*
X134164696Y-125557271D01*
X133927162Y-125359311D01*
X133682450Y-125168896D01*
X133571899Y-125088881D01*
X133430334Y-124986418D01*
X133427274Y-124984366D01*
X133170526Y-124812220D01*
X132907197Y-124649402D01*
X132898533Y-124643526D01*
X132839847Y-124599994D01*
X155594357Y-124599994D01*
X155594357Y-124600005D01*
X155614890Y-124847812D01*
X155614892Y-124847824D01*
X155675936Y-125088881D01*
X155775826Y-125316606D01*
X155911833Y-125524782D01*
X155915242Y-125528485D01*
X156080256Y-125707738D01*
X156276491Y-125860474D01*
X156495190Y-125978828D01*
X156730386Y-126059571D01*
X156975665Y-126100500D01*
X157224335Y-126100500D01*
X157469614Y-126059571D01*
X157704810Y-125978828D01*
X157923509Y-125860474D01*
X158119744Y-125707738D01*
X158288164Y-125524785D01*
X158424173Y-125316607D01*
X158524063Y-125088881D01*
X158585108Y-124847821D01*
X158585109Y-124847812D01*
X158605643Y-124600005D01*
X158605643Y-124599994D01*
X160594357Y-124599994D01*
X160594357Y-124600005D01*
X160614890Y-124847812D01*
X160614892Y-124847824D01*
X160675936Y-125088881D01*
X160775826Y-125316606D01*
X160911833Y-125524782D01*
X160915242Y-125528485D01*
X161080256Y-125707738D01*
X161276491Y-125860474D01*
X161495190Y-125978828D01*
X161730386Y-126059571D01*
X161975665Y-126100500D01*
X162224335Y-126100500D01*
X162469614Y-126059571D01*
X162704810Y-125978828D01*
X162923509Y-125860474D01*
X163119744Y-125707738D01*
X163288164Y-125524785D01*
X163424173Y-125316607D01*
X163524063Y-125088881D01*
X163585108Y-124847821D01*
X163585109Y-124847812D01*
X163603063Y-124631138D01*
X179168070Y-124631138D01*
X179168070Y-124631147D01*
X179186778Y-124880806D01*
X179186779Y-124880811D01*
X179242490Y-125124898D01*
X179242492Y-125124907D01*
X179242494Y-125124912D01*
X179333965Y-125357978D01*
X179459152Y-125574808D01*
X179567919Y-125711197D01*
X179615260Y-125770561D01*
X179782832Y-125926044D01*
X179798794Y-125940855D01*
X180005662Y-126081895D01*
X180005667Y-126081897D01*
X180005668Y-126081898D01*
X180005669Y-126081899D01*
X180071149Y-126113432D01*
X180231237Y-126190526D01*
X180231238Y-126190526D01*
X180231241Y-126190528D01*
X180470490Y-126264327D01*
X180470491Y-126264327D01*
X180470494Y-126264328D01*
X180718059Y-126301642D01*
X180718064Y-126301642D01*
X180718067Y-126301643D01*
X180718068Y-126301643D01*
X180968440Y-126301643D01*
X180968441Y-126301643D01*
X181008262Y-126295641D01*
X181216013Y-126264328D01*
X181216014Y-126264327D01*
X181216018Y-126264327D01*
X181455267Y-126190528D01*
X181680846Y-126081895D01*
X181887714Y-125940855D01*
X182071251Y-125770557D01*
X182227356Y-125574808D01*
X182352543Y-125357978D01*
X182444014Y-125124912D01*
X182476095Y-124984357D01*
X189469780Y-124984357D01*
X189469780Y-124984366D01*
X189488488Y-125234025D01*
X189488489Y-125234030D01*
X189544200Y-125478117D01*
X189544202Y-125478126D01*
X189544204Y-125478131D01*
X189635675Y-125711197D01*
X189760862Y-125928027D01*
X189825540Y-126009130D01*
X189916970Y-126123780D01*
X190085250Y-126279920D01*
X190100504Y-126294074D01*
X190307372Y-126435114D01*
X190307377Y-126435116D01*
X190307378Y-126435117D01*
X190307379Y-126435118D01*
X190374078Y-126467238D01*
X190532947Y-126543745D01*
X190532948Y-126543745D01*
X190532951Y-126543747D01*
X190772200Y-126617546D01*
X190772201Y-126617546D01*
X190772204Y-126617547D01*
X191019769Y-126654861D01*
X191019774Y-126654861D01*
X191019777Y-126654862D01*
X191019778Y-126654862D01*
X191270150Y-126654862D01*
X191270151Y-126654862D01*
X191284754Y-126652661D01*
X191517723Y-126617547D01*
X191517724Y-126617546D01*
X191517728Y-126617546D01*
X191574630Y-126599994D01*
X194784859Y-126599994D01*
X194784859Y-126600005D01*
X194805385Y-126847729D01*
X194805387Y-126847738D01*
X194866412Y-127088717D01*
X194966266Y-127316364D01*
X195066564Y-127469882D01*
X195890000Y-126646446D01*
X195890000Y-126652661D01*
X195917259Y-126754394D01*
X195969920Y-126845606D01*
X196044394Y-126920080D01*
X196135606Y-126972741D01*
X196237339Y-127000000D01*
X196243553Y-127000000D01*
X195419942Y-127823609D01*
X195466768Y-127860055D01*
X195466770Y-127860056D01*
X195685385Y-127978364D01*
X195685396Y-127978369D01*
X195920506Y-128059083D01*
X196165707Y-128100000D01*
X196414293Y-128100000D01*
X196659493Y-128059083D01*
X196894603Y-127978369D01*
X196894614Y-127978364D01*
X197113228Y-127860057D01*
X197113231Y-127860055D01*
X197160056Y-127823609D01*
X196336447Y-127000000D01*
X196342661Y-127000000D01*
X196444394Y-126972741D01*
X196535606Y-126920080D01*
X196610080Y-126845606D01*
X196662741Y-126754394D01*
X196690000Y-126652661D01*
X196690000Y-126646447D01*
X197513434Y-127469882D01*
X197613731Y-127316369D01*
X197713587Y-127088717D01*
X197774612Y-126847738D01*
X197774614Y-126847729D01*
X197795141Y-126600005D01*
X197795141Y-126599994D01*
X202404357Y-126599994D01*
X202404357Y-126600005D01*
X202424890Y-126847812D01*
X202424892Y-126847824D01*
X202485936Y-127088881D01*
X202585826Y-127316606D01*
X202721833Y-127524782D01*
X202741761Y-127546429D01*
X202890256Y-127707738D01*
X203086491Y-127860474D01*
X203086493Y-127860475D01*
X203304332Y-127978364D01*
X203305190Y-127978828D01*
X203452868Y-128029526D01*
X203538964Y-128059083D01*
X203540386Y-128059571D01*
X203785665Y-128100500D01*
X204034335Y-128100500D01*
X204279614Y-128059571D01*
X204514810Y-127978828D01*
X204733509Y-127860474D01*
X204929744Y-127707738D01*
X205098164Y-127524785D01*
X205234173Y-127316607D01*
X205334063Y-127088881D01*
X205395108Y-126847821D01*
X205395292Y-126845606D01*
X205415643Y-126600005D01*
X205415643Y-126599994D01*
X205395109Y-126352187D01*
X205395107Y-126352175D01*
X205338119Y-126127135D01*
X207174500Y-126127135D01*
X207174500Y-127072870D01*
X207174501Y-127072876D01*
X207180908Y-127132483D01*
X207231202Y-127267328D01*
X207231206Y-127267335D01*
X207317452Y-127382544D01*
X207317455Y-127382547D01*
X207432664Y-127468793D01*
X207432671Y-127468797D01*
X207567517Y-127519091D01*
X207567516Y-127519091D01*
X207574444Y-127519835D01*
X207627127Y-127525500D01*
X208572872Y-127525499D01*
X208632483Y-127519091D01*
X208767331Y-127468796D01*
X208882546Y-127382546D01*
X208968796Y-127267331D01*
X209019091Y-127132483D01*
X209025500Y-127072873D01*
X209025499Y-126127128D01*
X209019091Y-126067517D01*
X209016655Y-126060987D01*
X208968797Y-125932671D01*
X208968793Y-125932664D01*
X208882547Y-125817455D01*
X208882544Y-125817452D01*
X208767335Y-125731206D01*
X208767328Y-125731202D01*
X208632482Y-125680908D01*
X208632483Y-125680908D01*
X208572883Y-125674501D01*
X208572881Y-125674500D01*
X208572873Y-125674500D01*
X208572864Y-125674500D01*
X207627129Y-125674500D01*
X207627123Y-125674501D01*
X207567516Y-125680908D01*
X207432671Y-125731202D01*
X207432664Y-125731206D01*
X207317455Y-125817452D01*
X207317452Y-125817455D01*
X207231206Y-125932664D01*
X207231202Y-125932671D01*
X207180908Y-126067517D01*
X207175972Y-126113432D01*
X207174501Y-126127123D01*
X207174500Y-126127135D01*
X205338119Y-126127135D01*
X205334063Y-126111118D01*
X205234173Y-125883393D01*
X205098166Y-125675217D01*
X205017235Y-125587303D01*
X204929744Y-125492262D01*
X204733509Y-125339526D01*
X204733507Y-125339525D01*
X204733506Y-125339524D01*
X204514811Y-125221172D01*
X204514802Y-125221169D01*
X204279616Y-125140429D01*
X204034335Y-125099500D01*
X203785665Y-125099500D01*
X203540383Y-125140429D01*
X203305197Y-125221169D01*
X203305188Y-125221172D01*
X203086493Y-125339524D01*
X202890257Y-125492261D01*
X202721833Y-125675217D01*
X202585826Y-125883393D01*
X202485936Y-126111118D01*
X202424892Y-126352175D01*
X202424890Y-126352187D01*
X202404357Y-126599994D01*
X197795141Y-126599994D01*
X197774614Y-126352270D01*
X197774612Y-126352261D01*
X197713587Y-126111282D01*
X197613731Y-125883630D01*
X197513434Y-125730116D01*
X196690000Y-126553551D01*
X196690000Y-126547339D01*
X196662741Y-126445606D01*
X196610080Y-126354394D01*
X196535606Y-126279920D01*
X196444394Y-126227259D01*
X196342661Y-126200000D01*
X196336448Y-126200000D01*
X197160057Y-125376390D01*
X197160056Y-125376389D01*
X197113229Y-125339943D01*
X196894614Y-125221635D01*
X196894603Y-125221630D01*
X196659493Y-125140916D01*
X196414293Y-125100000D01*
X196165707Y-125100000D01*
X195920506Y-125140916D01*
X195685396Y-125221630D01*
X195685390Y-125221632D01*
X195466761Y-125339949D01*
X195419942Y-125376388D01*
X195419942Y-125376390D01*
X196243553Y-126200000D01*
X196237339Y-126200000D01*
X196135606Y-126227259D01*
X196044394Y-126279920D01*
X195969920Y-126354394D01*
X195917259Y-126445606D01*
X195890000Y-126547339D01*
X195890000Y-126553552D01*
X195066564Y-125730116D01*
X194966267Y-125883632D01*
X194866412Y-126111282D01*
X194805387Y-126352261D01*
X194805385Y-126352270D01*
X194784859Y-126599994D01*
X191574630Y-126599994D01*
X191756977Y-126543747D01*
X191960769Y-126445606D01*
X191982548Y-126435118D01*
X191982548Y-126435117D01*
X191982556Y-126435114D01*
X192189424Y-126294074D01*
X192331859Y-126161912D01*
X192372957Y-126123780D01*
X192372957Y-126123778D01*
X192372961Y-126123776D01*
X192529066Y-125928027D01*
X192654253Y-125711197D01*
X192745724Y-125478131D01*
X192801438Y-125234035D01*
X192801439Y-125234025D01*
X192820148Y-124984366D01*
X192820148Y-124984357D01*
X192801439Y-124734698D01*
X192801438Y-124734693D01*
X192801438Y-124734689D01*
X192745724Y-124490593D01*
X192654253Y-124257527D01*
X192529066Y-124040697D01*
X192372961Y-123844948D01*
X192372960Y-123844947D01*
X192372957Y-123844943D01*
X192189424Y-123674650D01*
X192138996Y-123640269D01*
X191982556Y-123533610D01*
X191982552Y-123533608D01*
X191982549Y-123533606D01*
X191982548Y-123533605D01*
X191756979Y-123424978D01*
X191756981Y-123424978D01*
X191517729Y-123351178D01*
X191517723Y-123351176D01*
X191270158Y-123313862D01*
X191270151Y-123313862D01*
X191019777Y-123313862D01*
X191019769Y-123313862D01*
X190772204Y-123351176D01*
X190772198Y-123351178D01*
X190532947Y-123424978D01*
X190307379Y-123533605D01*
X190307378Y-123533606D01*
X190100503Y-123674650D01*
X189916970Y-123844943D01*
X189760862Y-124040697D01*
X189635675Y-124257526D01*
X189544206Y-124490587D01*
X189544200Y-124490606D01*
X189488489Y-124734693D01*
X189488488Y-124734698D01*
X189469780Y-124984357D01*
X182476095Y-124984357D01*
X182499728Y-124880816D01*
X182499729Y-124880806D01*
X182518438Y-124631147D01*
X182518438Y-124631138D01*
X182499729Y-124381479D01*
X182499728Y-124381474D01*
X182499728Y-124381470D01*
X182444014Y-124137374D01*
X182352543Y-123904308D01*
X182227356Y-123687478D01*
X182071251Y-123491729D01*
X182071250Y-123491728D01*
X182071247Y-123491724D01*
X181887714Y-123321431D01*
X181853194Y-123297896D01*
X181680846Y-123180391D01*
X181680842Y-123180389D01*
X181680839Y-123180387D01*
X181680838Y-123180386D01*
X181455269Y-123071759D01*
X181455271Y-123071759D01*
X181216019Y-122997959D01*
X181216013Y-122997957D01*
X180968448Y-122960643D01*
X180968441Y-122960643D01*
X180718067Y-122960643D01*
X180718059Y-122960643D01*
X180470494Y-122997957D01*
X180470488Y-122997959D01*
X180231237Y-123071759D01*
X180005669Y-123180386D01*
X180005668Y-123180387D01*
X179798793Y-123321431D01*
X179615260Y-123491724D01*
X179459152Y-123687478D01*
X179333965Y-123904307D01*
X179242496Y-124137368D01*
X179242490Y-124137387D01*
X179186779Y-124381474D01*
X179186778Y-124381479D01*
X179168070Y-124631138D01*
X163603063Y-124631138D01*
X163605643Y-124600005D01*
X163605643Y-124599994D01*
X163585109Y-124352187D01*
X163585107Y-124352175D01*
X163524063Y-124111118D01*
X163424173Y-123883393D01*
X163288166Y-123675217D01*
X163243416Y-123626606D01*
X163119744Y-123492262D01*
X162923509Y-123339526D01*
X162923507Y-123339525D01*
X162923506Y-123339524D01*
X162704811Y-123221172D01*
X162704802Y-123221169D01*
X162469616Y-123140429D01*
X162224335Y-123099500D01*
X161975665Y-123099500D01*
X161730383Y-123140429D01*
X161495197Y-123221169D01*
X161495188Y-123221172D01*
X161276493Y-123339524D01*
X161080257Y-123492261D01*
X160911833Y-123675217D01*
X160775826Y-123883393D01*
X160675936Y-124111118D01*
X160614892Y-124352175D01*
X160614890Y-124352187D01*
X160594357Y-124599994D01*
X158605643Y-124599994D01*
X158585109Y-124352187D01*
X158585107Y-124352175D01*
X158524063Y-124111118D01*
X158424173Y-123883393D01*
X158288166Y-123675217D01*
X158243416Y-123626606D01*
X158119744Y-123492262D01*
X157923509Y-123339526D01*
X157923507Y-123339525D01*
X157923506Y-123339524D01*
X157704811Y-123221172D01*
X157704802Y-123221169D01*
X157469616Y-123140429D01*
X157224335Y-123099500D01*
X156975665Y-123099500D01*
X156730383Y-123140429D01*
X156495197Y-123221169D01*
X156495188Y-123221172D01*
X156276493Y-123339524D01*
X156080257Y-123492261D01*
X155911833Y-123675217D01*
X155775826Y-123883393D01*
X155675936Y-124111118D01*
X155614892Y-124352175D01*
X155614890Y-124352187D01*
X155594357Y-124599994D01*
X132839847Y-124599994D01*
X132584387Y-124410500D01*
X132436686Y-124300938D01*
X132434566Y-124299329D01*
X131977450Y-123944383D01*
X131975289Y-123942666D01*
X131814570Y-123812033D01*
X131526345Y-123577763D01*
X131524245Y-123576016D01*
X131083806Y-123201249D01*
X131081676Y-123199394D01*
X130833596Y-122978369D01*
X130650112Y-122814895D01*
X130648010Y-122812979D01*
X130535233Y-122707738D01*
X130225580Y-122418775D01*
X130223494Y-122416783D01*
X130121047Y-122316606D01*
X129810561Y-122012998D01*
X129808490Y-122010924D01*
X129752530Y-121953553D01*
X129407667Y-121599994D01*
X148094859Y-121599994D01*
X148094859Y-121600005D01*
X148115385Y-121847729D01*
X148115387Y-121847738D01*
X148176412Y-122088717D01*
X148276266Y-122316364D01*
X148376564Y-122469882D01*
X149200000Y-121646446D01*
X149200000Y-121652661D01*
X149227259Y-121754394D01*
X149279920Y-121845606D01*
X149354394Y-121920080D01*
X149445606Y-121972741D01*
X149547339Y-122000000D01*
X149553553Y-122000000D01*
X148729942Y-122823609D01*
X148776768Y-122860055D01*
X148776770Y-122860056D01*
X148995385Y-122978364D01*
X148995396Y-122978369D01*
X149230506Y-123059083D01*
X149475707Y-123100000D01*
X149724293Y-123100000D01*
X149969493Y-123059083D01*
X150204603Y-122978369D01*
X150204614Y-122978364D01*
X150330952Y-122909994D01*
X151594357Y-122909994D01*
X151594357Y-122910005D01*
X151614890Y-123157812D01*
X151614892Y-123157824D01*
X151675936Y-123398881D01*
X151775826Y-123626606D01*
X151911833Y-123834782D01*
X151911836Y-123834785D01*
X152080256Y-124017738D01*
X152276491Y-124170474D01*
X152495190Y-124288828D01*
X152730386Y-124369571D01*
X152975665Y-124410500D01*
X153224335Y-124410500D01*
X153469614Y-124369571D01*
X153704810Y-124288828D01*
X153923509Y-124170474D01*
X154119744Y-124017738D01*
X154288164Y-123834785D01*
X154424173Y-123626607D01*
X154524063Y-123398881D01*
X154585108Y-123157821D01*
X154586549Y-123140429D01*
X154605643Y-122910005D01*
X154605643Y-122909994D01*
X154585109Y-122662187D01*
X154585107Y-122662175D01*
X154524063Y-122421118D01*
X154424173Y-122193393D01*
X154288166Y-121985217D01*
X154220145Y-121911327D01*
X154119744Y-121802262D01*
X153923509Y-121649526D01*
X153923507Y-121649525D01*
X153923506Y-121649524D01*
X153704811Y-121531172D01*
X153704802Y-121531169D01*
X153469616Y-121450429D01*
X153224335Y-121409500D01*
X152975665Y-121409500D01*
X152730383Y-121450429D01*
X152495197Y-121531169D01*
X152495188Y-121531172D01*
X152276493Y-121649524D01*
X152080257Y-121802261D01*
X151911833Y-121985217D01*
X151775826Y-122193393D01*
X151675936Y-122421118D01*
X151614892Y-122662175D01*
X151614890Y-122662187D01*
X151594357Y-122909994D01*
X150330952Y-122909994D01*
X150423228Y-122860057D01*
X150423231Y-122860055D01*
X150470056Y-122823609D01*
X149646447Y-122000000D01*
X149652661Y-122000000D01*
X149754394Y-121972741D01*
X149845606Y-121920080D01*
X149920080Y-121845606D01*
X149972741Y-121754394D01*
X150000000Y-121652661D01*
X150000000Y-121646448D01*
X150823434Y-122469882D01*
X150923731Y-122316369D01*
X151023587Y-122088717D01*
X151084612Y-121847738D01*
X151084614Y-121847729D01*
X151105141Y-121600005D01*
X151105141Y-121599994D01*
X151084614Y-121352270D01*
X151084612Y-121352261D01*
X151023587Y-121111282D01*
X150923731Y-120883630D01*
X150823434Y-120730116D01*
X150000000Y-121553551D01*
X150000000Y-121547339D01*
X149972741Y-121445606D01*
X149920080Y-121354394D01*
X149845606Y-121279920D01*
X149754394Y-121227259D01*
X149652661Y-121200000D01*
X149646448Y-121200000D01*
X150470057Y-120376390D01*
X150470056Y-120376389D01*
X150423229Y-120339943D01*
X150204614Y-120221635D01*
X150204603Y-120221630D01*
X149969493Y-120140916D01*
X149724293Y-120100000D01*
X149475707Y-120100000D01*
X149230506Y-120140916D01*
X148995396Y-120221630D01*
X148995390Y-120221632D01*
X148776761Y-120339949D01*
X148729942Y-120376388D01*
X148729942Y-120376390D01*
X149553553Y-121200000D01*
X149547339Y-121200000D01*
X149445606Y-121227259D01*
X149354394Y-121279920D01*
X149279920Y-121354394D01*
X149227259Y-121445606D01*
X149200000Y-121547339D01*
X149200000Y-121553552D01*
X148376564Y-120730116D01*
X148276267Y-120883632D01*
X148176412Y-121111282D01*
X148115387Y-121352261D01*
X148115385Y-121352270D01*
X148094859Y-121599994D01*
X129407667Y-121599994D01*
X129405401Y-121597671D01*
X129403393Y-121595563D01*
X129010386Y-121172835D01*
X129008377Y-121170620D01*
X128625973Y-120738720D01*
X128623977Y-120736410D01*
X128252317Y-120295222D01*
X128250353Y-120292830D01*
X127889879Y-119842581D01*
X127887949Y-119840107D01*
X127669109Y-119552123D01*
X127538914Y-119380791D01*
X127537026Y-119378238D01*
X127522208Y-119357664D01*
X127199833Y-118910049D01*
X127197986Y-118907413D01*
X126872909Y-118430368D01*
X126871105Y-118427645D01*
X126557579Y-117940448D01*
X126391913Y-117730765D01*
X126388308Y-117725966D01*
X126231522Y-117506295D01*
X126228902Y-117502473D01*
X126203730Y-117464239D01*
X126077250Y-117272119D01*
X126075476Y-117269343D01*
X125927590Y-117030745D01*
X125926200Y-117028446D01*
X125673322Y-116599994D01*
X148094357Y-116599994D01*
X148094357Y-116600005D01*
X148114890Y-116847812D01*
X148114892Y-116847824D01*
X148175936Y-117088881D01*
X148275826Y-117316606D01*
X148411833Y-117524782D01*
X148411836Y-117524785D01*
X148580256Y-117707738D01*
X148776491Y-117860474D01*
X148995190Y-117978828D01*
X149230386Y-118059571D01*
X149475665Y-118100500D01*
X149724335Y-118100500D01*
X149969614Y-118059571D01*
X150204810Y-117978828D01*
X150423509Y-117860474D01*
X150619744Y-117707738D01*
X150788164Y-117524785D01*
X150924173Y-117316607D01*
X151024063Y-117088881D01*
X151085108Y-116847821D01*
X151092071Y-116763794D01*
X151105643Y-116600005D01*
X151105643Y-116599994D01*
X151085109Y-116352187D01*
X151085107Y-116352175D01*
X151024063Y-116111118D01*
X150924173Y-115883393D01*
X150788166Y-115675217D01*
X150719386Y-115600502D01*
X150619744Y-115492262D01*
X150423509Y-115339526D01*
X150423507Y-115339525D01*
X150423506Y-115339524D01*
X150331983Y-115289994D01*
X151594357Y-115289994D01*
X151594357Y-115290005D01*
X151614890Y-115537812D01*
X151614892Y-115537824D01*
X151675936Y-115778881D01*
X151775826Y-116006606D01*
X151911833Y-116214782D01*
X151911836Y-116214785D01*
X152080256Y-116397738D01*
X152276491Y-116550474D01*
X152276493Y-116550475D01*
X152469231Y-116654780D01*
X152495190Y-116668828D01*
X152730386Y-116749571D01*
X152975665Y-116790500D01*
X153224335Y-116790500D01*
X153469614Y-116749571D01*
X153704810Y-116668828D01*
X153923509Y-116550474D01*
X154119744Y-116397738D01*
X154288164Y-116214785D01*
X154424173Y-116006607D01*
X154524063Y-115778881D01*
X154585108Y-115537821D01*
X154585109Y-115537812D01*
X154605643Y-115290005D01*
X154605643Y-115289994D01*
X154585109Y-115042187D01*
X154585107Y-115042175D01*
X154524063Y-114801118D01*
X154424173Y-114573393D01*
X154288166Y-114365217D01*
X154256962Y-114331321D01*
X154119744Y-114182262D01*
X153923509Y-114029526D01*
X153923507Y-114029525D01*
X153923506Y-114029524D01*
X153704811Y-113911172D01*
X153704802Y-113911169D01*
X153469616Y-113830429D01*
X153224335Y-113789500D01*
X152975665Y-113789500D01*
X152730383Y-113830429D01*
X152495197Y-113911169D01*
X152495188Y-113911172D01*
X152276493Y-114029524D01*
X152080257Y-114182261D01*
X151911833Y-114365217D01*
X151775826Y-114573393D01*
X151675936Y-114801118D01*
X151614892Y-115042175D01*
X151614890Y-115042187D01*
X151594357Y-115289994D01*
X150331983Y-115289994D01*
X150204811Y-115221172D01*
X150204802Y-115221169D01*
X149969616Y-115140429D01*
X149724335Y-115099500D01*
X149475665Y-115099500D01*
X149230383Y-115140429D01*
X148995197Y-115221169D01*
X148995188Y-115221172D01*
X148776493Y-115339524D01*
X148580257Y-115492261D01*
X148411833Y-115675217D01*
X148275826Y-115883393D01*
X148175936Y-116111118D01*
X148114892Y-116352175D01*
X148114890Y-116352187D01*
X148094357Y-116599994D01*
X125673322Y-116599994D01*
X125340573Y-116036215D01*
X125188711Y-115791934D01*
X125188705Y-115791924D01*
X125031471Y-115553793D01*
X124867240Y-115324081D01*
X124867235Y-115324074D01*
X124783244Y-115217648D01*
X124694383Y-115105050D01*
X124511271Y-114898963D01*
X124415361Y-114801482D01*
X124393019Y-114780423D01*
X124372177Y-114760777D01*
X124316276Y-114708085D01*
X124213814Y-114619057D01*
X124175616Y-114588663D01*
X124107786Y-114534690D01*
X123997930Y-114455226D01*
X123997918Y-114455218D01*
X123884127Y-114381008D01*
X123884125Y-114381007D01*
X122629380Y-114331591D01*
X122624746Y-114331321D01*
X121372927Y-114234988D01*
X121368498Y-114234568D01*
X120118717Y-114093144D01*
X120114490Y-114092591D01*
X118868614Y-113908034D01*
X118864580Y-113907369D01*
X117624108Y-113681594D01*
X117620259Y-113680830D01*
X116387000Y-113415800D01*
X116383326Y-113414952D01*
X115158905Y-113112598D01*
X115155395Y-113111677D01*
X114666005Y-112975519D01*
X113939797Y-112773473D01*
X113939795Y-112773473D01*
X113599254Y-112791384D01*
X113262034Y-112832799D01*
X112927707Y-112895062D01*
X112595863Y-112975519D01*
X112438360Y-113021371D01*
X112266121Y-113071513D01*
X112266106Y-113071517D01*
X112266099Y-113071520D01*
X111938096Y-113180382D01*
X111611384Y-113299475D01*
X111285586Y-113426135D01*
X109985095Y-113954732D01*
X109982554Y-113955733D01*
X109658115Y-114079349D01*
X109655328Y-114080373D01*
X109330059Y-114195467D01*
X109326324Y-114196722D01*
X109000180Y-114300590D01*
X108995451Y-114301993D01*
X108667546Y-114392224D01*
X108662927Y-114393400D01*
X108556948Y-114418224D01*
X108427578Y-114456069D01*
X108127034Y-114555051D01*
X107808200Y-114660947D01*
X107805365Y-114661851D01*
X107654736Y-114707897D01*
X107650610Y-114709081D01*
X107513277Y-114745917D01*
X107506160Y-114747602D01*
X107387780Y-114771976D01*
X107378967Y-114773462D01*
X107332576Y-114779573D01*
X107323626Y-114780423D01*
X107302487Y-114781660D01*
X107234412Y-114765926D01*
X107185650Y-114715885D01*
X107171684Y-114647425D01*
X107184499Y-114602089D01*
X107185524Y-114600056D01*
X107192032Y-114588680D01*
X107222596Y-114541280D01*
X107227798Y-114533828D01*
X107272541Y-114474518D01*
X107276662Y-114469351D01*
X107335939Y-114398950D01*
X107339208Y-114395220D01*
X107414791Y-114312476D01*
X107465026Y-114215344D01*
X107467452Y-114210883D01*
X107520932Y-114117220D01*
X107524236Y-114111766D01*
X107646208Y-113921755D01*
X107649869Y-113916371D01*
X107785924Y-113727237D01*
X107788508Y-113723776D01*
X107935499Y-113534065D01*
X107937066Y-113532089D01*
X108248195Y-113148791D01*
X108403177Y-112955442D01*
X108552254Y-112760314D01*
X108665197Y-112599994D01*
X135474357Y-112599994D01*
X135474357Y-112600005D01*
X135494890Y-112847812D01*
X135494892Y-112847824D01*
X135555936Y-113088881D01*
X135655826Y-113316606D01*
X135791833Y-113524782D01*
X135791836Y-113524785D01*
X135960256Y-113707738D01*
X136156491Y-113860474D01*
X136156493Y-113860475D01*
X136374685Y-113978555D01*
X136375190Y-113978828D01*
X136610386Y-114059571D01*
X136855665Y-114100500D01*
X137104335Y-114100500D01*
X137349614Y-114059571D01*
X137584810Y-113978828D01*
X137803509Y-113860474D01*
X137999744Y-113707738D01*
X138168164Y-113524785D01*
X138304173Y-113316607D01*
X138404063Y-113088881D01*
X138465108Y-112847821D01*
X138466960Y-112825474D01*
X138485643Y-112600005D01*
X138485643Y-112599994D01*
X143094357Y-112599994D01*
X143094357Y-112600005D01*
X143114890Y-112847812D01*
X143114892Y-112847824D01*
X143175936Y-113088881D01*
X143275826Y-113316606D01*
X143411833Y-113524782D01*
X143411836Y-113524785D01*
X143580256Y-113707738D01*
X143776491Y-113860474D01*
X143776493Y-113860475D01*
X143994685Y-113978555D01*
X143995190Y-113978828D01*
X144230386Y-114059571D01*
X144475665Y-114100500D01*
X144724335Y-114100500D01*
X144969614Y-114059571D01*
X145204810Y-113978828D01*
X145423509Y-113860474D01*
X145619744Y-113707738D01*
X145788164Y-113524785D01*
X145924173Y-113316607D01*
X146024063Y-113088881D01*
X146085108Y-112847821D01*
X146086960Y-112825474D01*
X146099209Y-112677648D01*
X155079500Y-112677648D01*
X155079500Y-112882351D01*
X155111522Y-113084534D01*
X155174781Y-113279223D01*
X155217699Y-113363453D01*
X155267244Y-113460690D01*
X155267715Y-113461613D01*
X155388028Y-113627213D01*
X155532786Y-113771971D01*
X155654604Y-113860475D01*
X155698390Y-113892287D01*
X155779919Y-113933828D01*
X155791080Y-113939515D01*
X155841876Y-113987490D01*
X155858671Y-114055311D01*
X155836134Y-114121446D01*
X155791080Y-114160485D01*
X155698386Y-114207715D01*
X155532786Y-114328028D01*
X155388028Y-114472786D01*
X155267715Y-114638386D01*
X155174781Y-114820776D01*
X155111522Y-115015465D01*
X155085690Y-115178565D01*
X155079500Y-115217648D01*
X155079500Y-115422352D01*
X155083411Y-115447046D01*
X155111522Y-115624534D01*
X155174781Y-115819223D01*
X155267715Y-116001613D01*
X155388028Y-116167213D01*
X155532786Y-116311971D01*
X155671589Y-116412815D01*
X155698390Y-116432287D01*
X155774700Y-116471169D01*
X155791080Y-116479515D01*
X155841876Y-116527490D01*
X155858671Y-116595311D01*
X155836134Y-116661446D01*
X155791080Y-116700485D01*
X155698386Y-116747715D01*
X155532786Y-116868028D01*
X155388028Y-117012786D01*
X155267715Y-117178386D01*
X155174781Y-117360776D01*
X155111522Y-117555465D01*
X155079500Y-117757648D01*
X155079500Y-117962351D01*
X155111522Y-118164534D01*
X155174781Y-118359223D01*
X155267715Y-118541613D01*
X155388028Y-118707213D01*
X155532786Y-118851971D01*
X155678365Y-118957738D01*
X155698390Y-118972287D01*
X155787732Y-119017809D01*
X155791080Y-119019515D01*
X155841876Y-119067490D01*
X155858671Y-119135311D01*
X155836134Y-119201446D01*
X155791080Y-119240485D01*
X155698386Y-119287715D01*
X155532786Y-119408028D01*
X155388028Y-119552786D01*
X155267715Y-119718386D01*
X155174781Y-119900776D01*
X155111522Y-120095465D01*
X155079500Y-120297648D01*
X155079500Y-120502351D01*
X155111522Y-120704534D01*
X155174781Y-120899223D01*
X155267715Y-121081613D01*
X155388028Y-121247213D01*
X155532786Y-121391971D01*
X155687749Y-121504556D01*
X155698390Y-121512287D01*
X155787212Y-121557544D01*
X155880776Y-121605218D01*
X155880778Y-121605218D01*
X155880781Y-121605220D01*
X155985137Y-121639127D01*
X156075465Y-121668477D01*
X156176557Y-121684488D01*
X156277648Y-121700500D01*
X156277649Y-121700500D01*
X157282351Y-121700500D01*
X157282352Y-121700500D01*
X157484534Y-121668477D01*
X157679219Y-121605220D01*
X157861610Y-121512287D01*
X157957901Y-121442328D01*
X158027213Y-121391971D01*
X158027215Y-121391968D01*
X158027219Y-121391966D01*
X158171966Y-121247219D01*
X158171968Y-121247215D01*
X158171971Y-121247213D01*
X158270729Y-121111282D01*
X158292287Y-121081610D01*
X158385220Y-120899219D01*
X158448477Y-120704534D01*
X158480500Y-120502352D01*
X158480500Y-120297648D01*
X158448477Y-120095466D01*
X158385220Y-119900781D01*
X158385218Y-119900778D01*
X158385218Y-119900776D01*
X158351503Y-119834607D01*
X158292287Y-119718390D01*
X158284556Y-119707749D01*
X158171971Y-119552786D01*
X158027213Y-119408028D01*
X157861614Y-119287715D01*
X157855006Y-119284348D01*
X157768917Y-119240483D01*
X157718123Y-119192511D01*
X157701328Y-119124690D01*
X157723865Y-119058555D01*
X157768917Y-119019516D01*
X157861610Y-118972287D01*
X157882770Y-118956913D01*
X158027213Y-118851971D01*
X158027215Y-118851968D01*
X158027219Y-118851966D01*
X158171966Y-118707219D01*
X158171968Y-118707215D01*
X158171971Y-118707213D01*
X158224732Y-118634590D01*
X158292287Y-118541610D01*
X158385220Y-118359219D01*
X158448477Y-118164534D01*
X158480500Y-117962352D01*
X158480500Y-117757648D01*
X158448477Y-117555466D01*
X158432500Y-117506295D01*
X158414209Y-117450000D01*
X158385220Y-117360781D01*
X158385218Y-117360778D01*
X158385218Y-117360776D01*
X158303409Y-117200219D01*
X158292287Y-117178390D01*
X158259769Y-117133632D01*
X158171971Y-117012786D01*
X158027213Y-116868028D01*
X157861614Y-116747715D01*
X157847876Y-116740715D01*
X157768917Y-116700483D01*
X157718123Y-116652511D01*
X157701328Y-116584690D01*
X157723865Y-116518555D01*
X157768917Y-116479516D01*
X157861610Y-116432287D01*
X157935908Y-116378307D01*
X158027213Y-116311971D01*
X158027215Y-116311968D01*
X158027219Y-116311966D01*
X158171966Y-116167219D01*
X158171968Y-116167215D01*
X158171971Y-116167213D01*
X158245874Y-116065492D01*
X158292287Y-116001610D01*
X158385220Y-115819219D01*
X158448477Y-115624534D01*
X158480500Y-115422352D01*
X158480500Y-115217648D01*
X162699500Y-115217648D01*
X162699500Y-115422352D01*
X162703411Y-115447046D01*
X162731522Y-115624534D01*
X162794781Y-115819223D01*
X162887715Y-116001613D01*
X163008028Y-116167213D01*
X163152786Y-116311971D01*
X163291589Y-116412815D01*
X163318390Y-116432287D01*
X163394700Y-116471169D01*
X163411080Y-116479515D01*
X163461876Y-116527490D01*
X163478671Y-116595311D01*
X163456134Y-116661446D01*
X163411080Y-116700485D01*
X163318386Y-116747715D01*
X163152786Y-116868028D01*
X163008028Y-117012786D01*
X162887715Y-117178386D01*
X162794781Y-117360776D01*
X162731522Y-117555465D01*
X162699500Y-117757648D01*
X162699500Y-117962351D01*
X162731522Y-118164534D01*
X162794781Y-118359223D01*
X162887715Y-118541613D01*
X163008028Y-118707213D01*
X163152784Y-118851969D01*
X163189068Y-118878330D01*
X163231735Y-118933659D01*
X163237715Y-119003273D01*
X163205109Y-119065068D01*
X163144271Y-119099426D01*
X163129440Y-119101938D01*
X163092519Y-119105907D01*
X162957671Y-119156202D01*
X162957664Y-119156206D01*
X162842455Y-119242452D01*
X162842452Y-119242455D01*
X162756206Y-119357664D01*
X162756202Y-119357671D01*
X162705908Y-119492517D01*
X162699501Y-119552116D01*
X162699501Y-119552123D01*
X162699500Y-119552135D01*
X162699500Y-121247870D01*
X162699501Y-121247876D01*
X162705908Y-121307483D01*
X162756202Y-121442328D01*
X162756206Y-121442335D01*
X162842452Y-121557544D01*
X162842455Y-121557547D01*
X162957664Y-121643793D01*
X162957671Y-121643797D01*
X163092517Y-121694091D01*
X163092516Y-121694091D01*
X163099444Y-121694835D01*
X163152127Y-121700500D01*
X165647872Y-121700499D01*
X165707483Y-121694091D01*
X165842331Y-121643796D01*
X165900843Y-121599994D01*
X167784357Y-121599994D01*
X167784357Y-121600005D01*
X167804890Y-121847812D01*
X167804892Y-121847824D01*
X167865936Y-122088881D01*
X167965826Y-122316606D01*
X168101833Y-122524782D01*
X168101836Y-122524785D01*
X168270256Y-122707738D01*
X168466491Y-122860474D01*
X168466493Y-122860475D01*
X168684332Y-122978364D01*
X168685190Y-122978828D01*
X168879297Y-123045465D01*
X168918964Y-123059083D01*
X168920386Y-123059571D01*
X169165665Y-123100500D01*
X169414335Y-123100500D01*
X169659614Y-123059571D01*
X169894810Y-122978828D01*
X170113509Y-122860474D01*
X170309744Y-122707738D01*
X170478164Y-122524785D01*
X170614173Y-122316607D01*
X170714063Y-122088881D01*
X170775108Y-121847821D01*
X170782850Y-121754394D01*
X170795643Y-121600005D01*
X170795643Y-121599994D01*
X175404357Y-121599994D01*
X175404357Y-121600005D01*
X175424890Y-121847812D01*
X175424892Y-121847824D01*
X175485936Y-122088881D01*
X175585826Y-122316606D01*
X175721833Y-122524782D01*
X175721836Y-122524785D01*
X175890256Y-122707738D01*
X176086491Y-122860474D01*
X176086493Y-122860475D01*
X176304332Y-122978364D01*
X176305190Y-122978828D01*
X176499297Y-123045465D01*
X176538964Y-123059083D01*
X176540386Y-123059571D01*
X176785665Y-123100500D01*
X177034335Y-123100500D01*
X177279614Y-123059571D01*
X177514810Y-122978828D01*
X177733509Y-122860474D01*
X177929744Y-122707738D01*
X178098164Y-122524785D01*
X178234173Y-122316607D01*
X178334063Y-122088881D01*
X178395108Y-121847821D01*
X178402850Y-121754394D01*
X178415643Y-121600005D01*
X178415643Y-121599994D01*
X178395109Y-121352187D01*
X178395107Y-121352175D01*
X178334063Y-121111118D01*
X178234173Y-120883393D01*
X178098166Y-120675217D01*
X178021036Y-120591432D01*
X177929744Y-120492262D01*
X177733509Y-120339526D01*
X177733507Y-120339525D01*
X177733506Y-120339524D01*
X177514811Y-120221172D01*
X177514802Y-120221169D01*
X177279616Y-120140429D01*
X177034335Y-120099500D01*
X176785665Y-120099500D01*
X176540383Y-120140429D01*
X176305197Y-120221169D01*
X176305188Y-120221172D01*
X176086493Y-120339524D01*
X175890257Y-120492261D01*
X175721833Y-120675217D01*
X175585826Y-120883393D01*
X175485936Y-121111118D01*
X175424892Y-121352175D01*
X175424890Y-121352187D01*
X175404357Y-121599994D01*
X170795643Y-121599994D01*
X170775109Y-121352187D01*
X170775107Y-121352175D01*
X170714063Y-121111118D01*
X170614173Y-120883393D01*
X170478166Y-120675217D01*
X170401036Y-120591432D01*
X170309744Y-120492262D01*
X170113509Y-120339526D01*
X170113507Y-120339525D01*
X170113506Y-120339524D01*
X169894811Y-120221172D01*
X169894802Y-120221169D01*
X169659616Y-120140429D01*
X169414335Y-120099500D01*
X169165665Y-120099500D01*
X168920383Y-120140429D01*
X168685197Y-120221169D01*
X168685188Y-120221172D01*
X168466493Y-120339524D01*
X168270257Y-120492261D01*
X168101833Y-120675217D01*
X167965826Y-120883393D01*
X167865936Y-121111118D01*
X167804892Y-121352175D01*
X167804890Y-121352187D01*
X167784357Y-121599994D01*
X165900843Y-121599994D01*
X165957546Y-121557546D01*
X166043796Y-121442331D01*
X166094091Y-121307483D01*
X166100500Y-121247873D01*
X166100499Y-119552128D01*
X166094091Y-119492517D01*
X166043796Y-119357669D01*
X166043795Y-119357668D01*
X166043793Y-119357664D01*
X165957547Y-119242455D01*
X165957544Y-119242452D01*
X165842335Y-119156206D01*
X165842328Y-119156202D01*
X165707482Y-119105908D01*
X165707483Y-119105908D01*
X165670560Y-119101939D01*
X165606009Y-119075201D01*
X165566160Y-119017809D01*
X165563667Y-118947984D01*
X165599319Y-118887895D01*
X165610930Y-118878331D01*
X165647219Y-118851966D01*
X165791966Y-118707219D01*
X165791968Y-118707215D01*
X165791971Y-118707213D01*
X165844732Y-118634590D01*
X165912287Y-118541610D01*
X166005220Y-118359219D01*
X166068477Y-118164534D01*
X166100500Y-117962352D01*
X166100500Y-117849994D01*
X167784357Y-117849994D01*
X167784357Y-117850005D01*
X167804890Y-118097812D01*
X167804892Y-118097824D01*
X167865936Y-118338881D01*
X167965826Y-118566606D01*
X168101833Y-118774782D01*
X168101836Y-118774785D01*
X168270256Y-118957738D01*
X168466491Y-119110474D01*
X168466493Y-119110475D01*
X168684332Y-119228364D01*
X168685190Y-119228828D01*
X168856716Y-119287713D01*
X168918964Y-119309083D01*
X168920386Y-119309571D01*
X169165665Y-119350500D01*
X169414335Y-119350500D01*
X169659614Y-119309571D01*
X169894810Y-119228828D01*
X170113509Y-119110474D01*
X170309744Y-118957738D01*
X170478164Y-118774785D01*
X170614173Y-118566607D01*
X170714063Y-118338881D01*
X170775108Y-118097821D01*
X170775292Y-118095606D01*
X170795643Y-117850005D01*
X170795643Y-117849994D01*
X175404859Y-117849994D01*
X175404859Y-117850005D01*
X175425385Y-118097729D01*
X175425387Y-118097738D01*
X175486412Y-118338717D01*
X175586266Y-118566364D01*
X175686564Y-118719882D01*
X176510000Y-117896446D01*
X176510000Y-117902661D01*
X176537259Y-118004394D01*
X176589920Y-118095606D01*
X176664394Y-118170080D01*
X176755606Y-118222741D01*
X176857339Y-118250000D01*
X176863553Y-118250000D01*
X176039942Y-119073609D01*
X176086768Y-119110055D01*
X176086770Y-119110056D01*
X176305385Y-119228364D01*
X176305396Y-119228369D01*
X176540506Y-119309083D01*
X176785707Y-119350000D01*
X177034293Y-119350000D01*
X177279493Y-119309083D01*
X177514603Y-119228369D01*
X177514614Y-119228364D01*
X177733228Y-119110057D01*
X177733231Y-119110055D01*
X177780056Y-119073609D01*
X176956447Y-118250000D01*
X176962661Y-118250000D01*
X177064394Y-118222741D01*
X177155606Y-118170080D01*
X177230080Y-118095606D01*
X177282741Y-118004394D01*
X177310000Y-117902661D01*
X177310000Y-117896447D01*
X178133434Y-118719882D01*
X178233731Y-118566369D01*
X178333587Y-118338717D01*
X178394612Y-118097738D01*
X178394614Y-118097729D01*
X178415141Y-117850005D01*
X178415141Y-117849994D01*
X178394614Y-117602270D01*
X178394612Y-117602261D01*
X178333587Y-117361282D01*
X178233731Y-117133630D01*
X178133434Y-116980116D01*
X177310000Y-117803551D01*
X177310000Y-117797339D01*
X177282741Y-117695606D01*
X177230080Y-117604394D01*
X177155606Y-117529920D01*
X177064394Y-117477259D01*
X176962661Y-117450000D01*
X176956448Y-117450000D01*
X177780057Y-116626390D01*
X177780056Y-116626389D01*
X177733229Y-116589943D01*
X177514614Y-116471635D01*
X177514603Y-116471630D01*
X177279493Y-116390916D01*
X177034293Y-116350000D01*
X176785707Y-116350000D01*
X176540506Y-116390916D01*
X176305396Y-116471630D01*
X176305390Y-116471632D01*
X176086761Y-116589949D01*
X176039942Y-116626388D01*
X176039942Y-116626390D01*
X176863553Y-117450000D01*
X176857339Y-117450000D01*
X176755606Y-117477259D01*
X176664394Y-117529920D01*
X176589920Y-117604394D01*
X176537259Y-117695606D01*
X176510000Y-117797339D01*
X176510000Y-117803552D01*
X175686564Y-116980116D01*
X175586267Y-117133632D01*
X175486412Y-117361282D01*
X175425387Y-117602261D01*
X175425385Y-117602270D01*
X175404859Y-117849994D01*
X170795643Y-117849994D01*
X170775109Y-117602187D01*
X170775107Y-117602175D01*
X170714063Y-117361118D01*
X170614173Y-117133393D01*
X170478166Y-116925217D01*
X170425525Y-116868034D01*
X170309744Y-116742262D01*
X170113509Y-116589526D01*
X170113507Y-116589525D01*
X170113506Y-116589524D01*
X169894811Y-116471172D01*
X169894802Y-116471169D01*
X169659616Y-116390429D01*
X169414335Y-116349500D01*
X169165665Y-116349500D01*
X168920383Y-116390429D01*
X168685197Y-116471169D01*
X168685188Y-116471172D01*
X168466493Y-116589524D01*
X168270257Y-116742261D01*
X168101833Y-116925217D01*
X167965826Y-117133393D01*
X167865936Y-117361118D01*
X167804892Y-117602175D01*
X167804890Y-117602187D01*
X167784357Y-117849994D01*
X166100500Y-117849994D01*
X166100500Y-117757648D01*
X166068477Y-117555466D01*
X166052500Y-117506295D01*
X166034209Y-117450000D01*
X166005220Y-117360781D01*
X166005218Y-117360778D01*
X166005218Y-117360776D01*
X165923409Y-117200219D01*
X165912287Y-117178390D01*
X165879769Y-117133632D01*
X165791971Y-117012786D01*
X165647213Y-116868028D01*
X165481614Y-116747715D01*
X165467876Y-116740715D01*
X165388917Y-116700483D01*
X165338123Y-116652511D01*
X165321328Y-116584690D01*
X165343865Y-116518555D01*
X165388917Y-116479516D01*
X165481610Y-116432287D01*
X165555908Y-116378307D01*
X165647213Y-116311971D01*
X165647215Y-116311968D01*
X165647219Y-116311966D01*
X165791966Y-116167219D01*
X165791968Y-116167215D01*
X165791971Y-116167213D01*
X165865874Y-116065492D01*
X165912287Y-116001610D01*
X166005220Y-115819219D01*
X166068477Y-115624534D01*
X166100500Y-115422352D01*
X166100500Y-115217648D01*
X166090786Y-115156315D01*
X166068477Y-115015465D01*
X166020785Y-114868685D01*
X166005220Y-114820781D01*
X166005218Y-114820778D01*
X166005218Y-114820776D01*
X165966438Y-114744668D01*
X165912287Y-114638390D01*
X165884436Y-114600056D01*
X165791971Y-114472786D01*
X165647213Y-114328028D01*
X165481611Y-114207713D01*
X165388369Y-114160203D01*
X165337574Y-114112229D01*
X165320779Y-114044407D01*
X165343317Y-113978273D01*
X165388371Y-113939234D01*
X165481347Y-113891861D01*
X165646894Y-113771582D01*
X165646895Y-113771582D01*
X165791582Y-113626895D01*
X165791582Y-113626894D01*
X165911859Y-113461349D01*
X166004755Y-113279029D01*
X166067990Y-113084413D01*
X166076609Y-113030000D01*
X164715686Y-113030000D01*
X164720080Y-113025606D01*
X164772741Y-112934394D01*
X164800000Y-112832661D01*
X164800000Y-112727339D01*
X164772741Y-112625606D01*
X164720080Y-112534394D01*
X164715686Y-112530000D01*
X166076609Y-112530000D01*
X166067990Y-112475586D01*
X166004755Y-112280970D01*
X165911859Y-112098650D01*
X165791582Y-111933105D01*
X165791582Y-111933104D01*
X165646895Y-111788417D01*
X165481349Y-111668140D01*
X165299031Y-111575244D01*
X165104417Y-111512009D01*
X164902317Y-111480000D01*
X164650000Y-111480000D01*
X164650000Y-112464314D01*
X164645606Y-112459920D01*
X164554394Y-112407259D01*
X164452661Y-112380000D01*
X164347339Y-112380000D01*
X164245606Y-112407259D01*
X164154394Y-112459920D01*
X164150000Y-112464314D01*
X164150000Y-111480000D01*
X163897683Y-111480000D01*
X163695582Y-111512009D01*
X163500968Y-111575244D01*
X163318650Y-111668140D01*
X163153105Y-111788417D01*
X163153104Y-111788417D01*
X163008417Y-111933104D01*
X163008417Y-111933105D01*
X162888140Y-112098650D01*
X162795244Y-112280970D01*
X162732009Y-112475586D01*
X162723391Y-112530000D01*
X164084314Y-112530000D01*
X164079920Y-112534394D01*
X164027259Y-112625606D01*
X164000000Y-112727339D01*
X164000000Y-112832661D01*
X164027259Y-112934394D01*
X164079920Y-113025606D01*
X164084314Y-113030000D01*
X162723391Y-113030000D01*
X162732009Y-113084413D01*
X162795244Y-113279029D01*
X162888140Y-113461349D01*
X163008417Y-113626894D01*
X163008417Y-113626895D01*
X163153104Y-113771582D01*
X163318652Y-113891861D01*
X163411628Y-113939234D01*
X163462425Y-113987208D01*
X163479220Y-114055029D01*
X163456683Y-114121164D01*
X163411630Y-114160203D01*
X163318388Y-114207713D01*
X163152786Y-114328028D01*
X163008028Y-114472786D01*
X162887715Y-114638386D01*
X162794781Y-114820776D01*
X162731522Y-115015465D01*
X162705690Y-115178565D01*
X162699500Y-115217648D01*
X158480500Y-115217648D01*
X158470786Y-115156315D01*
X158448477Y-115015465D01*
X158400785Y-114868685D01*
X158385220Y-114820781D01*
X158385218Y-114820778D01*
X158385218Y-114820776D01*
X158346438Y-114744668D01*
X158292287Y-114638390D01*
X158264436Y-114600056D01*
X158171971Y-114472786D01*
X158027213Y-114328028D01*
X157861614Y-114207715D01*
X157837576Y-114195467D01*
X157768917Y-114160483D01*
X157718123Y-114112511D01*
X157701328Y-114044690D01*
X157723865Y-113978555D01*
X157768917Y-113939516D01*
X157861610Y-113892287D01*
X157980663Y-113805791D01*
X158027213Y-113771971D01*
X158027215Y-113771968D01*
X158027219Y-113771966D01*
X158171966Y-113627219D01*
X158171968Y-113627215D01*
X158171971Y-113627213D01*
X158255554Y-113512169D01*
X158292287Y-113461610D01*
X158385220Y-113279219D01*
X158448477Y-113084534D01*
X158480500Y-112882352D01*
X158480500Y-112677648D01*
X158460590Y-112551941D01*
X158448477Y-112475465D01*
X158398408Y-112321369D01*
X158385220Y-112280781D01*
X158385218Y-112280778D01*
X158385218Y-112280776D01*
X158341347Y-112194676D01*
X158292287Y-112098390D01*
X158267295Y-112063991D01*
X158171971Y-111932786D01*
X158027213Y-111788028D01*
X157861613Y-111667715D01*
X157861612Y-111667714D01*
X157861610Y-111667713D01*
X157773230Y-111622681D01*
X157679223Y-111574781D01*
X157484534Y-111511522D01*
X157297328Y-111481872D01*
X157282352Y-111479500D01*
X156277648Y-111479500D01*
X156262672Y-111481872D01*
X156075465Y-111511522D01*
X155880776Y-111574781D01*
X155698386Y-111667715D01*
X155532786Y-111788028D01*
X155388028Y-111932786D01*
X155267715Y-112098386D01*
X155174781Y-112280776D01*
X155111522Y-112475465D01*
X155079500Y-112677648D01*
X146099209Y-112677648D01*
X146105643Y-112600005D01*
X146105643Y-112599994D01*
X146085109Y-112352187D01*
X146085107Y-112352175D01*
X146024063Y-112111118D01*
X145924173Y-111883393D01*
X145788166Y-111675217D01*
X145739768Y-111622643D01*
X145619744Y-111492262D01*
X145423509Y-111339526D01*
X145423507Y-111339525D01*
X145423506Y-111339524D01*
X145204811Y-111221172D01*
X145204802Y-111221169D01*
X144969616Y-111140429D01*
X144724335Y-111099500D01*
X144475665Y-111099500D01*
X144230383Y-111140429D01*
X143995197Y-111221169D01*
X143995188Y-111221172D01*
X143776493Y-111339524D01*
X143580257Y-111492261D01*
X143411833Y-111675217D01*
X143275826Y-111883393D01*
X143175936Y-112111118D01*
X143114892Y-112352175D01*
X143114890Y-112352187D01*
X143094357Y-112599994D01*
X138485643Y-112599994D01*
X138465109Y-112352187D01*
X138465107Y-112352175D01*
X138404063Y-112111118D01*
X138304173Y-111883393D01*
X138168166Y-111675217D01*
X138119768Y-111622643D01*
X137999744Y-111492262D01*
X137803509Y-111339526D01*
X137803507Y-111339525D01*
X137803506Y-111339524D01*
X137584811Y-111221172D01*
X137584802Y-111221169D01*
X137349616Y-111140429D01*
X137104335Y-111099500D01*
X136855665Y-111099500D01*
X136610383Y-111140429D01*
X136375197Y-111221169D01*
X136375188Y-111221172D01*
X136156493Y-111339524D01*
X135960257Y-111492261D01*
X135791833Y-111675217D01*
X135655826Y-111883393D01*
X135555936Y-112111118D01*
X135494892Y-112352175D01*
X135494890Y-112352187D01*
X135474357Y-112599994D01*
X108665197Y-112599994D01*
X108691487Y-112562676D01*
X108816940Y-112361797D01*
X108873268Y-112259914D01*
X108924674Y-112156946D01*
X108970667Y-112052803D01*
X109010753Y-111947392D01*
X109044441Y-111840623D01*
X109071238Y-111732404D01*
X109082605Y-111668140D01*
X109090647Y-111622681D01*
X109090649Y-111622665D01*
X109090653Y-111622643D01*
X109102192Y-111511250D01*
X109103814Y-111453376D01*
X109105364Y-111398154D01*
X109105363Y-111398143D01*
X109105364Y-111398133D01*
X109099677Y-111283200D01*
X109084638Y-111166360D01*
X109059756Y-111047522D01*
X108972831Y-110953454D01*
X108972826Y-110953448D01*
X108881582Y-110868286D01*
X108881562Y-110868269D01*
X108786230Y-110791538D01*
X108786217Y-110791528D01*
X108786215Y-110791526D01*
X108686982Y-110722714D01*
X108584102Y-110661369D01*
X108584095Y-110661365D01*
X108584091Y-110661363D01*
X108477806Y-110607013D01*
X108477781Y-110607001D01*
X108368325Y-110559172D01*
X108255883Y-110517367D01*
X108199673Y-110501096D01*
X108023011Y-110449957D01*
X107926227Y-110430366D01*
X107781054Y-110400980D01*
X107781037Y-110400977D01*
X107531863Y-110366627D01*
X107531802Y-110366620D01*
X107277140Y-110343071D01*
X106243329Y-110280885D01*
X106237843Y-110280433D01*
X105989177Y-110254359D01*
X105983040Y-110253560D01*
X105741324Y-110215942D01*
X105733050Y-110214365D01*
X105583294Y-110180511D01*
X105499359Y-110161536D01*
X105491833Y-110159584D01*
X105445116Y-110145883D01*
X105431064Y-110141762D01*
X105372274Y-110104006D01*
X105343230Y-110040459D01*
X105353152Y-109971297D01*
X105370308Y-109943867D01*
X105436772Y-109863307D01*
X105440522Y-109858973D01*
X105540782Y-109748385D01*
X105543970Y-109744998D01*
X105653830Y-109632597D01*
X105656399Y-109630047D01*
X105774596Y-109516184D01*
X105776626Y-109514274D01*
X105901494Y-109399620D01*
X105903786Y-109397570D01*
X106170085Y-109165463D01*
X106172170Y-109163688D01*
X106730650Y-108699198D01*
X107001588Y-108471074D01*
X107253214Y-108248158D01*
X107323132Y-108168482D01*
X107326530Y-108164767D01*
X107388308Y-108099994D01*
X135474859Y-108099994D01*
X135474859Y-108100005D01*
X135495385Y-108347729D01*
X135495387Y-108347738D01*
X135556412Y-108588717D01*
X135656266Y-108816364D01*
X135756564Y-108969882D01*
X136580000Y-108146446D01*
X136580000Y-108152661D01*
X136607259Y-108254394D01*
X136659920Y-108345606D01*
X136734394Y-108420080D01*
X136825606Y-108472741D01*
X136927339Y-108500000D01*
X136933553Y-108500000D01*
X136109942Y-109323609D01*
X136156768Y-109360055D01*
X136156770Y-109360056D01*
X136375385Y-109478364D01*
X136375396Y-109478369D01*
X136610506Y-109559083D01*
X136855707Y-109600000D01*
X137104293Y-109600000D01*
X137349493Y-109559083D01*
X137584603Y-109478369D01*
X137584614Y-109478364D01*
X137803228Y-109360057D01*
X137803231Y-109360055D01*
X137850056Y-109323609D01*
X137026447Y-108500000D01*
X137032661Y-108500000D01*
X137134394Y-108472741D01*
X137225606Y-108420080D01*
X137300080Y-108345606D01*
X137352741Y-108254394D01*
X137380000Y-108152661D01*
X137380000Y-108146448D01*
X138203434Y-108969882D01*
X138303731Y-108816369D01*
X138403587Y-108588717D01*
X138464612Y-108347738D01*
X138464614Y-108347729D01*
X138485141Y-108100005D01*
X138485141Y-108099994D01*
X143094357Y-108099994D01*
X143094357Y-108100005D01*
X143114890Y-108347812D01*
X143114892Y-108347824D01*
X143175936Y-108588881D01*
X143275826Y-108816606D01*
X143411833Y-109024782D01*
X143411836Y-109024785D01*
X143580256Y-109207738D01*
X143776491Y-109360474D01*
X143848945Y-109399684D01*
X143994332Y-109478364D01*
X143995190Y-109478828D01*
X144111001Y-109518586D01*
X144228964Y-109559083D01*
X144230386Y-109559571D01*
X144475665Y-109600500D01*
X144724335Y-109600500D01*
X144969614Y-109559571D01*
X145204810Y-109478828D01*
X145423509Y-109360474D01*
X145619744Y-109207738D01*
X145788164Y-109024785D01*
X145924173Y-108816607D01*
X146024063Y-108588881D01*
X146085108Y-108347821D01*
X146086446Y-108331671D01*
X146105643Y-108100005D01*
X146105643Y-108099994D01*
X146085109Y-107852187D01*
X146085107Y-107852175D01*
X146024063Y-107611118D01*
X145924173Y-107383393D01*
X145788166Y-107175217D01*
X145748311Y-107131923D01*
X145619744Y-106992262D01*
X145423509Y-106839526D01*
X145423507Y-106839525D01*
X145423506Y-106839524D01*
X145204811Y-106721172D01*
X145204802Y-106721169D01*
X144969616Y-106640429D01*
X144724335Y-106599500D01*
X144475665Y-106599500D01*
X144230383Y-106640429D01*
X143995197Y-106721169D01*
X143995188Y-106721172D01*
X143776493Y-106839524D01*
X143580257Y-106992261D01*
X143411833Y-107175217D01*
X143275826Y-107383393D01*
X143175936Y-107611118D01*
X143114892Y-107852175D01*
X143114890Y-107852187D01*
X143094357Y-108099994D01*
X138485141Y-108099994D01*
X138464614Y-107852270D01*
X138464612Y-107852261D01*
X138403587Y-107611282D01*
X138303731Y-107383630D01*
X138203434Y-107230116D01*
X137380000Y-108053551D01*
X137380000Y-108047339D01*
X137352741Y-107945606D01*
X137300080Y-107854394D01*
X137225606Y-107779920D01*
X137134394Y-107727259D01*
X137032661Y-107700000D01*
X137026448Y-107700000D01*
X137850057Y-106876390D01*
X137850056Y-106876389D01*
X137803229Y-106839943D01*
X137584614Y-106721635D01*
X137584603Y-106721630D01*
X137349493Y-106640916D01*
X137104293Y-106600000D01*
X136855707Y-106600000D01*
X136610506Y-106640916D01*
X136375396Y-106721630D01*
X136375390Y-106721632D01*
X136156761Y-106839949D01*
X136109942Y-106876388D01*
X136109942Y-106876390D01*
X136933553Y-107700000D01*
X136927339Y-107700000D01*
X136825606Y-107727259D01*
X136734394Y-107779920D01*
X136659920Y-107854394D01*
X136607259Y-107945606D01*
X136580000Y-108047339D01*
X136580000Y-108053552D01*
X135756564Y-107230116D01*
X135656267Y-107383632D01*
X135556412Y-107611282D01*
X135495387Y-107852261D01*
X135495385Y-107852270D01*
X135474859Y-108099994D01*
X107388308Y-108099994D01*
X107399619Y-108088135D01*
X107403911Y-108083853D01*
X107567061Y-107928905D01*
X107571314Y-107925051D01*
X107749701Y-107770932D01*
X107752303Y-107768747D01*
X107942377Y-107613614D01*
X107942982Y-107613124D01*
X108337637Y-107297158D01*
X108337659Y-107297139D01*
X108337676Y-107297126D01*
X108429097Y-107220710D01*
X108531764Y-107134897D01*
X108717617Y-106968151D01*
X108890662Y-106795642D01*
X108970963Y-106706826D01*
X109046360Y-106616089D01*
X109116287Y-106523272D01*
X109180176Y-106428215D01*
X109237460Y-106330757D01*
X109287573Y-106230739D01*
X109329946Y-106128002D01*
X109364013Y-106022384D01*
X109389207Y-105913727D01*
X109404961Y-105801871D01*
X109410708Y-105686654D01*
X109405880Y-105567919D01*
X109389910Y-105445504D01*
X109362232Y-105319251D01*
X109362231Y-105319249D01*
X109280524Y-105234099D01*
X109280519Y-105234094D01*
X109220086Y-105176737D01*
X109195711Y-105153603D01*
X109195707Y-105153599D01*
X109195699Y-105153592D01*
X109107968Y-105077527D01*
X109017451Y-105005616D01*
X108828777Y-104873314D01*
X108828768Y-104873309D01*
X108828763Y-104873305D01*
X108710410Y-104802331D01*
X108630955Y-104754683D01*
X108510954Y-104692285D01*
X108425326Y-104647760D01*
X108425319Y-104647757D01*
X108425306Y-104647750D01*
X108283904Y-104582954D01*
X108213193Y-104550552D01*
X108071477Y-104492205D01*
X107995849Y-104461067D01*
X107815563Y-104392825D01*
X107774636Y-104377333D01*
X106878524Y-104060599D01*
X106875422Y-104059456D01*
X106657654Y-103975886D01*
X106654142Y-103974476D01*
X106441118Y-103885176D01*
X106436482Y-103883120D01*
X106286063Y-103812700D01*
X106233694Y-103766448D01*
X106214644Y-103699226D01*
X106234961Y-103632375D01*
X106288195Y-103587122D01*
X106299281Y-103582810D01*
X106737382Y-103436269D01*
X106738833Y-103435795D01*
X107463025Y-103205132D01*
X107466092Y-103204201D01*
X108197988Y-102992559D01*
X108201256Y-102991663D01*
X108568662Y-102896496D01*
X108571407Y-102895820D01*
X108940471Y-102809237D01*
X108943602Y-102808545D01*
X109313885Y-102731910D01*
X109317431Y-102731232D01*
X109688529Y-102665873D01*
X109692593Y-102665227D01*
X110064420Y-102612404D01*
X110068937Y-102611847D01*
X110441411Y-102572820D01*
X110446292Y-102572407D01*
X110819203Y-102548451D01*
X110824567Y-102548225D01*
X111197731Y-102540601D01*
X111203505Y-102540618D01*
X111576846Y-102550586D01*
X111583007Y-102550907D01*
X111937755Y-102578289D01*
X111979557Y-102589050D01*
X112583866Y-102863960D01*
X112584997Y-102864482D01*
X113208464Y-103156507D01*
X114360089Y-103698222D01*
X114460198Y-103745312D01*
X114634312Y-103824419D01*
X115090876Y-104031855D01*
X115726829Y-104306546D01*
X116200044Y-104496397D01*
X116369543Y-104564399D01*
X117016190Y-104798863D01*
X117024745Y-104802330D01*
X117183343Y-104873597D01*
X117361531Y-104948979D01*
X117484204Y-104996868D01*
X117551770Y-105023245D01*
X117551776Y-105023247D01*
X117750760Y-105093062D01*
X117870631Y-105129436D01*
X117955156Y-105155085D01*
X117955163Y-105155086D01*
X117955164Y-105155087D01*
X118161670Y-105205984D01*
X118215750Y-105216606D01*
X118264658Y-105226213D01*
X118264666Y-105226214D01*
X118264675Y-105226216D01*
X118366960Y-105242415D01*
X118366965Y-105242415D01*
X118366974Y-105242417D01*
X118403856Y-105246700D01*
X118468112Y-105254163D01*
X118468123Y-105254163D01*
X118468133Y-105254165D01*
X118540445Y-105259159D01*
X118567715Y-105261043D01*
X118665315Y-105262639D01*
X118665330Y-105262638D01*
X118665355Y-105262639D01*
X118760618Y-105258531D01*
X118853087Y-105248305D01*
X118942348Y-105231541D01*
X119027981Y-105207826D01*
X119027983Y-105207826D01*
X119048348Y-105200067D01*
X119109590Y-105176735D01*
X119186740Y-105137858D01*
X119259023Y-105090775D01*
X119326025Y-105035070D01*
X119387330Y-104970325D01*
X119442524Y-104896122D01*
X119491193Y-104812046D01*
X119532920Y-104717677D01*
X119567292Y-104612600D01*
X119593894Y-104496397D01*
X119612310Y-104368651D01*
X119292116Y-103044242D01*
X118945292Y-101726096D01*
X118751551Y-101034520D01*
X156140744Y-101034520D01*
X156140744Y-101286444D01*
X156143397Y-101303193D01*
X156170914Y-101476932D01*
X156180154Y-101535266D01*
X156253523Y-101761073D01*
X156258004Y-101774862D01*
X156372376Y-101999330D01*
X156520445Y-102203132D01*
X156698593Y-102381280D01*
X156902395Y-102529349D01*
X156902397Y-102529350D01*
X156902400Y-102529352D01*
X157126866Y-102643723D01*
X157366460Y-102721572D01*
X157615282Y-102760982D01*
X157615283Y-102760982D01*
X157867204Y-102760982D01*
X157867206Y-102760982D01*
X157973920Y-102744079D01*
X158043210Y-102753033D01*
X158096663Y-102798029D01*
X158111247Y-102828233D01*
X158173351Y-103019370D01*
X158246407Y-103162749D01*
X158262710Y-103194745D01*
X158378406Y-103353986D01*
X158517588Y-103493168D01*
X158676829Y-103608864D01*
X158722972Y-103632375D01*
X158852203Y-103698222D01*
X158852205Y-103698222D01*
X158852208Y-103698224D01*
X158952552Y-103730827D01*
X159039407Y-103759049D01*
X159233812Y-103789840D01*
X159371947Y-103789840D01*
X159438986Y-103809525D01*
X159484741Y-103862329D01*
X159495947Y-103913840D01*
X159495947Y-104051975D01*
X159526737Y-104246379D01*
X159587564Y-104433583D01*
X159672328Y-104599939D01*
X159676923Y-104608958D01*
X159792619Y-104768199D01*
X159931801Y-104907381D01*
X160091042Y-105023077D01*
X160266421Y-105112437D01*
X160393083Y-105153592D01*
X160453617Y-105173261D01*
X160453621Y-105173262D01*
X160497825Y-105180263D01*
X160560960Y-105210192D01*
X160597892Y-105269503D01*
X160601166Y-105320381D01*
X160594354Y-105367765D01*
X160594354Y-105367767D01*
X160614834Y-105510223D01*
X160614835Y-105510227D01*
X160674621Y-105641138D01*
X160674624Y-105641143D01*
X160712238Y-105687818D01*
X160712244Y-105687825D01*
X161840595Y-106816175D01*
X161840605Y-106816184D01*
X161887287Y-106853805D01*
X161887288Y-106853805D01*
X161892827Y-106858269D01*
X161932674Y-106915662D01*
X161939019Y-106954819D01*
X161939019Y-107084719D01*
X161946967Y-107134897D01*
X161973068Y-107299697D01*
X161978429Y-107333541D01*
X162051123Y-107557271D01*
X162056279Y-107573137D01*
X162170651Y-107797605D01*
X162318720Y-108001407D01*
X162496868Y-108179555D01*
X162700670Y-108327624D01*
X162700672Y-108327625D01*
X162700675Y-108327627D01*
X162925141Y-108441998D01*
X163164735Y-108519847D01*
X163413557Y-108559257D01*
X163413558Y-108559257D01*
X163665480Y-108559257D01*
X163665481Y-108559257D01*
X163914303Y-108519847D01*
X164153897Y-108441998D01*
X164378363Y-108327627D01*
X164475154Y-108257305D01*
X164582169Y-108179555D01*
X164582171Y-108179552D01*
X164582175Y-108179550D01*
X165679550Y-107082175D01*
X165679552Y-107082171D01*
X165679555Y-107082169D01*
X165827624Y-106878367D01*
X165827623Y-106878367D01*
X165827627Y-106878363D01*
X165941998Y-106653897D01*
X166019847Y-106414303D01*
X166059257Y-106165481D01*
X166059257Y-105913557D01*
X166019847Y-105664735D01*
X165941998Y-105425141D01*
X165827627Y-105200675D01*
X165827625Y-105200672D01*
X165827624Y-105200670D01*
X165679555Y-104996868D01*
X165501407Y-104818720D01*
X165297605Y-104670651D01*
X165073137Y-104556279D01*
X165073136Y-104556278D01*
X165073135Y-104556278D01*
X164833541Y-104478429D01*
X164833539Y-104478428D01*
X164833537Y-104478428D01*
X164609563Y-104442954D01*
X164584719Y-104439019D01*
X164584718Y-104439019D01*
X164454819Y-104439019D01*
X164387780Y-104419334D01*
X164358267Y-104392825D01*
X164353805Y-104387289D01*
X164353805Y-104387287D01*
X164316186Y-104340605D01*
X164035037Y-104059456D01*
X163187832Y-103212252D01*
X163187820Y-103212241D01*
X163141142Y-103174623D01*
X163010227Y-103114835D01*
X163010223Y-103114834D01*
X162867767Y-103094354D01*
X162867765Y-103094354D01*
X162820381Y-103101166D01*
X162751223Y-103091221D01*
X162698419Y-103045466D01*
X162680263Y-102997825D01*
X162673262Y-102953621D01*
X162673261Y-102953617D01*
X162651312Y-102886066D01*
X162612437Y-102766421D01*
X162523077Y-102591042D01*
X162407381Y-102431801D01*
X162268199Y-102292619D01*
X162108958Y-102176923D01*
X162057416Y-102150661D01*
X161933583Y-102087564D01*
X161746379Y-102026737D01*
X161551975Y-101995947D01*
X161551970Y-101995947D01*
X161413840Y-101995947D01*
X161346801Y-101976262D01*
X161301046Y-101923458D01*
X161289840Y-101871947D01*
X161289840Y-101733811D01*
X161259049Y-101539407D01*
X161223130Y-101428861D01*
X161198224Y-101352208D01*
X161198222Y-101352205D01*
X161198222Y-101352203D01*
X161125783Y-101210035D01*
X161108864Y-101176829D01*
X160993168Y-101017588D01*
X160853986Y-100878406D01*
X160694745Y-100762710D01*
X160637865Y-100733728D01*
X160519370Y-100673351D01*
X160328233Y-100611247D01*
X160270558Y-100571809D01*
X160243360Y-100507450D01*
X160244078Y-100473925D01*
X160260982Y-100367206D01*
X160260982Y-100115282D01*
X160221572Y-99866460D01*
X160143723Y-99626866D01*
X160029352Y-99402400D01*
X160029350Y-99402397D01*
X160029349Y-99402395D01*
X159881280Y-99198593D01*
X159703132Y-99020445D01*
X159499330Y-98872376D01*
X159274862Y-98758004D01*
X159274861Y-98758003D01*
X159274860Y-98758003D01*
X159035266Y-98680154D01*
X159035264Y-98680153D01*
X159035262Y-98680153D01*
X158861531Y-98652636D01*
X158786444Y-98640744D01*
X158534520Y-98640744D01*
X158476839Y-98649879D01*
X158285701Y-98680153D01*
X158046101Y-98758004D01*
X157821633Y-98872376D01*
X157617831Y-99020445D01*
X156520445Y-100117831D01*
X156372376Y-100321633D01*
X156258004Y-100546101D01*
X156180153Y-100785701D01*
X156145019Y-101007526D01*
X156140744Y-101034520D01*
X118751551Y-101034520D01*
X118577429Y-100412974D01*
X118290590Y-99433166D01*
X118194138Y-99103698D01*
X118175179Y-99040847D01*
X118042199Y-98599998D01*
X137494390Y-98599998D01*
X137494390Y-98600001D01*
X137514804Y-98885433D01*
X137575628Y-99165037D01*
X137575630Y-99165043D01*
X137575631Y-99165046D01*
X137675633Y-99433161D01*
X137675635Y-99433166D01*
X137812770Y-99684309D01*
X137812775Y-99684317D01*
X137984254Y-99913387D01*
X137984270Y-99913405D01*
X138186594Y-100115729D01*
X138186612Y-100115745D01*
X138415682Y-100287224D01*
X138415690Y-100287229D01*
X138666833Y-100424364D01*
X138666832Y-100424364D01*
X138666836Y-100424365D01*
X138666839Y-100424367D01*
X138934954Y-100524369D01*
X138934960Y-100524370D01*
X138934962Y-100524371D01*
X139214566Y-100585195D01*
X139214568Y-100585195D01*
X139214572Y-100585196D01*
X139468220Y-100603337D01*
X139499999Y-100605610D01*
X139500000Y-100605610D01*
X139500001Y-100605610D01*
X139528595Y-100603564D01*
X139785428Y-100585196D01*
X139846968Y-100571809D01*
X140065037Y-100524371D01*
X140065037Y-100524370D01*
X140065046Y-100524369D01*
X140333161Y-100424367D01*
X140584315Y-100287226D01*
X140813395Y-100115739D01*
X141015739Y-99913395D01*
X141187226Y-99684315D01*
X141324367Y-99433161D01*
X141424369Y-99165046D01*
X141480586Y-98906618D01*
X141485195Y-98885433D01*
X141485195Y-98885432D01*
X141485196Y-98885428D01*
X141505610Y-98600000D01*
X141505610Y-98599998D01*
X150694390Y-98599998D01*
X150694390Y-98600001D01*
X150714804Y-98885433D01*
X150775628Y-99165037D01*
X150775630Y-99165043D01*
X150775631Y-99165046D01*
X150875633Y-99433161D01*
X150875635Y-99433166D01*
X151012770Y-99684309D01*
X151012775Y-99684317D01*
X151184254Y-99913387D01*
X151184270Y-99913405D01*
X151386594Y-100115729D01*
X151386612Y-100115745D01*
X151615682Y-100287224D01*
X151615690Y-100287229D01*
X151866833Y-100424364D01*
X151866832Y-100424364D01*
X151866836Y-100424365D01*
X151866839Y-100424367D01*
X152134954Y-100524369D01*
X152134960Y-100524370D01*
X152134962Y-100524371D01*
X152414566Y-100585195D01*
X152414568Y-100585195D01*
X152414572Y-100585196D01*
X152668220Y-100603337D01*
X152699999Y-100605610D01*
X152700000Y-100605610D01*
X152700001Y-100605610D01*
X152728595Y-100603564D01*
X152985428Y-100585196D01*
X153046968Y-100571809D01*
X153265037Y-100524371D01*
X153265037Y-100524370D01*
X153265046Y-100524369D01*
X153533161Y-100424367D01*
X153784315Y-100287226D01*
X154013395Y-100115739D01*
X154215739Y-99913395D01*
X154387226Y-99684315D01*
X154524367Y-99433161D01*
X154624369Y-99165046D01*
X154680586Y-98906618D01*
X154685195Y-98885433D01*
X154685195Y-98885432D01*
X154685196Y-98885428D01*
X154705610Y-98600000D01*
X154704596Y-98585829D01*
X154689751Y-98378262D01*
X154685196Y-98314572D01*
X154683726Y-98307816D01*
X154624371Y-98034962D01*
X154624370Y-98034960D01*
X154624369Y-98034954D01*
X154524367Y-97766839D01*
X154508569Y-97737908D01*
X154387229Y-97515690D01*
X154387224Y-97515682D01*
X154215745Y-97286612D01*
X154215729Y-97286594D01*
X154013405Y-97084270D01*
X154013387Y-97084254D01*
X153784317Y-96912775D01*
X153784309Y-96912770D01*
X153533166Y-96775635D01*
X153533167Y-96775635D01*
X153425915Y-96735632D01*
X153265046Y-96675631D01*
X153265043Y-96675630D01*
X153265037Y-96675628D01*
X152985433Y-96614804D01*
X152700001Y-96594390D01*
X152699999Y-96594390D01*
X152414566Y-96614804D01*
X152134962Y-96675628D01*
X151866833Y-96775635D01*
X151615690Y-96912770D01*
X151615682Y-96912775D01*
X151386612Y-97084254D01*
X151386594Y-97084270D01*
X151184270Y-97286594D01*
X151184254Y-97286612D01*
X151012775Y-97515682D01*
X151012770Y-97515690D01*
X150875635Y-97766833D01*
X150775628Y-98034962D01*
X150714804Y-98314566D01*
X150694390Y-98599998D01*
X141505610Y-98599998D01*
X141504596Y-98585829D01*
X141489751Y-98378262D01*
X141485196Y-98314572D01*
X141483726Y-98307816D01*
X141424371Y-98034962D01*
X141424370Y-98034960D01*
X141424369Y-98034954D01*
X141324367Y-97766839D01*
X141308569Y-97737908D01*
X141187229Y-97515690D01*
X141187224Y-97515682D01*
X141015745Y-97286612D01*
X141015729Y-97286594D01*
X140813405Y-97084270D01*
X140813387Y-97084254D01*
X140584317Y-96912775D01*
X140584309Y-96912770D01*
X140333166Y-96775635D01*
X140333167Y-96775635D01*
X140225915Y-96735632D01*
X140065046Y-96675631D01*
X140065043Y-96675630D01*
X140065037Y-96675628D01*
X139785433Y-96614804D01*
X139500001Y-96594390D01*
X139499999Y-96594390D01*
X139214566Y-96614804D01*
X138934962Y-96675628D01*
X138666833Y-96775635D01*
X138415690Y-96912770D01*
X138415682Y-96912775D01*
X138186612Y-97084254D01*
X138186594Y-97084270D01*
X137984270Y-97286594D01*
X137984254Y-97286612D01*
X137812775Y-97515682D01*
X137812770Y-97515690D01*
X137675635Y-97766833D01*
X137575628Y-98034962D01*
X137514804Y-98314566D01*
X137494390Y-98599998D01*
X118042199Y-98599998D01*
X116619200Y-93882543D01*
X116617412Y-93875964D01*
X116525566Y-93497327D01*
X116417330Y-93106673D01*
X116292452Y-92711990D01*
X116171168Y-92376772D01*
X116149831Y-92317797D01*
X115988404Y-91928733D01*
X115807090Y-91549379D01*
X115604810Y-91184328D01*
X115495471Y-91008602D01*
X115380487Y-90838173D01*
X115259723Y-90673618D01*
X115133044Y-90515509D01*
X115000315Y-90364420D01*
X115000311Y-90364416D01*
X115000310Y-90364414D01*
X114861416Y-90220943D01*
X114861401Y-90220927D01*
X114716169Y-90085603D01*
X114716160Y-90085595D01*
X114564497Y-89959032D01*
X114564490Y-89959027D01*
X114564483Y-89959021D01*
X114406208Y-89841758D01*
X114406201Y-89841753D01*
X114406191Y-89841746D01*
X114241221Y-89734392D01*
X114241219Y-89734390D01*
X114241210Y-89734385D01*
X114069354Y-89637479D01*
X114069352Y-89637478D01*
X114069332Y-89637468D01*
X113890499Y-89551609D01*
X113704542Y-89477363D01*
X113704539Y-89477362D01*
X113511297Y-89415296D01*
X113511291Y-89415294D01*
X113437799Y-89397235D01*
X113310667Y-89365994D01*
X113310652Y-89365991D01*
X113146372Y-89337608D01*
X113102488Y-89330026D01*
X112886655Y-89307971D01*
X112886653Y-89307970D01*
X112886644Y-89307970D01*
X112663014Y-89300399D01*
X108642781Y-89506035D01*
X108640718Y-89506123D01*
X104626525Y-89644472D01*
X104624258Y-89644530D01*
X100604978Y-89709505D01*
X100602527Y-89709520D01*
X96566997Y-89694973D01*
X96192655Y-89716744D01*
X96186710Y-89716947D01*
X95818313Y-89720674D01*
X95812428Y-89720594D01*
X95447142Y-89706943D01*
X95441347Y-89706590D01*
X95079374Y-89676047D01*
X95073699Y-89675436D01*
X94715206Y-89628488D01*
X94709673Y-89627636D01*
X94354835Y-89564764D01*
X94349465Y-89563690D01*
X93998456Y-89485371D01*
X93993266Y-89484095D01*
X93646283Y-89390808D01*
X93641283Y-89389350D01*
X93298548Y-89281583D01*
X93293747Y-89279965D01*
X92955439Y-89158194D01*
X92950841Y-89156435D01*
X92617109Y-89021120D01*
X92612716Y-89019240D01*
X92283851Y-88870897D01*
X92279661Y-88868912D01*
X91955815Y-88708002D01*
X91951824Y-88705928D01*
X91633201Y-88532932D01*
X91629405Y-88530783D01*
X91316262Y-88346215D01*
X91312653Y-88344004D01*
X91006001Y-88148864D01*
X91000933Y-88145461D01*
X90402904Y-87722159D01*
X90396711Y-87717478D01*
X89824718Y-87256276D01*
X89819123Y-87251483D01*
X89274027Y-86755759D01*
X89268957Y-86750879D01*
X89219834Y-86700828D01*
X88752405Y-86224568D01*
X88747801Y-86219612D01*
X88261538Y-85666770D01*
X88257348Y-85661744D01*
X87803015Y-85086339D01*
X87799149Y-85081172D01*
X87378447Y-84487263D01*
X87374884Y-84481946D01*
X87149774Y-84126606D01*
X86990538Y-83875248D01*
X86985385Y-83866313D01*
X86526214Y-82987169D01*
X86524640Y-82984047D01*
X86415785Y-82760485D01*
X86088326Y-82087962D01*
X86086835Y-82084785D01*
X85676384Y-81175672D01*
X85674912Y-81172276D01*
X85624944Y-81052135D01*
X95599500Y-81052135D01*
X95599500Y-83147870D01*
X95599501Y-83147876D01*
X95605908Y-83207483D01*
X95656202Y-83342328D01*
X95656206Y-83342335D01*
X95742452Y-83457544D01*
X95742455Y-83457547D01*
X95857664Y-83543793D01*
X95857671Y-83543797D01*
X95992517Y-83594091D01*
X95992516Y-83594091D01*
X95999444Y-83594835D01*
X96052127Y-83600500D01*
X98147872Y-83600499D01*
X98207483Y-83594091D01*
X98342331Y-83543796D01*
X98457546Y-83457546D01*
X98493143Y-83409994D01*
X104094357Y-83409994D01*
X104094357Y-83410005D01*
X104114890Y-83657812D01*
X104114892Y-83657824D01*
X104175936Y-83898881D01*
X104275826Y-84126606D01*
X104411833Y-84334782D01*
X104444245Y-84369991D01*
X104580256Y-84517738D01*
X104776491Y-84670474D01*
X104995190Y-84788828D01*
X105230386Y-84869571D01*
X105475665Y-84910500D01*
X105724335Y-84910500D01*
X105969614Y-84869571D01*
X106204810Y-84788828D01*
X106423509Y-84670474D01*
X106619744Y-84517738D01*
X106788164Y-84334785D01*
X106924173Y-84126607D01*
X107024063Y-83898881D01*
X107085108Y-83657821D01*
X107090389Y-83594091D01*
X107105643Y-83410005D01*
X107105643Y-83409994D01*
X109094357Y-83409994D01*
X109094357Y-83410005D01*
X109114890Y-83657812D01*
X109114892Y-83657824D01*
X109175936Y-83898881D01*
X109275826Y-84126606D01*
X109411833Y-84334782D01*
X109444245Y-84369991D01*
X109580256Y-84517738D01*
X109776491Y-84670474D01*
X109995190Y-84788828D01*
X110230386Y-84869571D01*
X110475665Y-84910500D01*
X110724335Y-84910500D01*
X110969614Y-84869571D01*
X111204810Y-84788828D01*
X111423509Y-84670474D01*
X111619744Y-84517738D01*
X111788164Y-84334785D01*
X111924173Y-84126607D01*
X112024063Y-83898881D01*
X112085108Y-83657821D01*
X112090389Y-83594091D01*
X112105643Y-83410005D01*
X112105643Y-83409994D01*
X112085109Y-83162187D01*
X112085107Y-83162175D01*
X112024063Y-82921118D01*
X111924173Y-82693393D01*
X111788166Y-82485217D01*
X111700907Y-82390429D01*
X111619744Y-82302262D01*
X111423509Y-82149526D01*
X111423507Y-82149525D01*
X111423506Y-82149524D01*
X111204811Y-82031172D01*
X111204802Y-82031169D01*
X110969616Y-81950429D01*
X110724335Y-81909500D01*
X110475665Y-81909500D01*
X110230383Y-81950429D01*
X109995197Y-82031169D01*
X109995188Y-82031172D01*
X109776493Y-82149524D01*
X109580257Y-82302261D01*
X109411833Y-82485217D01*
X109275826Y-82693393D01*
X109175936Y-82921118D01*
X109114892Y-83162175D01*
X109114890Y-83162187D01*
X109094357Y-83409994D01*
X107105643Y-83409994D01*
X107085109Y-83162187D01*
X107085107Y-83162175D01*
X107024063Y-82921118D01*
X106924173Y-82693393D01*
X106788166Y-82485217D01*
X106700907Y-82390429D01*
X106619744Y-82302262D01*
X106423509Y-82149526D01*
X106423507Y-82149525D01*
X106423506Y-82149524D01*
X106204811Y-82031172D01*
X106204802Y-82031169D01*
X105969616Y-81950429D01*
X105724335Y-81909500D01*
X105475665Y-81909500D01*
X105230383Y-81950429D01*
X104995197Y-82031169D01*
X104995188Y-82031172D01*
X104776493Y-82149524D01*
X104580257Y-82302261D01*
X104411833Y-82485217D01*
X104275826Y-82693393D01*
X104175936Y-82921118D01*
X104114892Y-83162175D01*
X104114890Y-83162187D01*
X104094357Y-83409994D01*
X98493143Y-83409994D01*
X98543796Y-83342331D01*
X98594091Y-83207483D01*
X98600500Y-83147873D01*
X98600499Y-81052128D01*
X98594091Y-80992517D01*
X98552414Y-80880776D01*
X98543797Y-80857671D01*
X98543793Y-80857664D01*
X98457547Y-80742455D01*
X98457544Y-80742452D01*
X98342335Y-80656206D01*
X98342328Y-80656202D01*
X98207482Y-80605908D01*
X98207483Y-80605908D01*
X98147883Y-80599501D01*
X98147881Y-80599500D01*
X98147873Y-80599500D01*
X98147864Y-80599500D01*
X96052129Y-80599500D01*
X96052123Y-80599501D01*
X95992516Y-80605908D01*
X95857671Y-80656202D01*
X95857664Y-80656206D01*
X95742455Y-80742452D01*
X95742452Y-80742455D01*
X95656206Y-80857664D01*
X95656202Y-80857671D01*
X95605908Y-80992517D01*
X95599964Y-81047807D01*
X95599501Y-81052123D01*
X95599500Y-81052135D01*
X85624944Y-81052135D01*
X85439351Y-80605908D01*
X85291792Y-80251126D01*
X85290385Y-80247588D01*
X85283078Y-80228364D01*
X84936035Y-79315336D01*
X84934696Y-79311635D01*
X84877222Y-79144534D01*
X84737276Y-78737648D01*
X113599500Y-78737648D01*
X113599500Y-78942351D01*
X113631522Y-79144534D01*
X113694781Y-79339223D01*
X113758691Y-79464653D01*
X113778291Y-79503119D01*
X113787715Y-79521613D01*
X113908028Y-79687213D01*
X114052786Y-79831971D01*
X114207749Y-79944556D01*
X114218390Y-79952287D01*
X114286997Y-79987244D01*
X114311080Y-79999515D01*
X114361876Y-80047490D01*
X114378671Y-80115311D01*
X114356134Y-80181446D01*
X114311080Y-80220485D01*
X114218386Y-80267715D01*
X114052786Y-80388028D01*
X113908028Y-80532786D01*
X113787715Y-80698386D01*
X113694781Y-80880776D01*
X113631522Y-81075465D01*
X113599500Y-81277648D01*
X113599500Y-81482351D01*
X113631522Y-81684534D01*
X113694781Y-81879223D01*
X113752277Y-81992064D01*
X113785083Y-82056449D01*
X113787715Y-82061613D01*
X113908028Y-82227213D01*
X114052786Y-82371971D01*
X114184268Y-82467496D01*
X114218390Y-82492287D01*
X114296227Y-82531947D01*
X114311080Y-82539515D01*
X114361876Y-82587490D01*
X114378671Y-82655311D01*
X114356134Y-82721446D01*
X114311080Y-82760485D01*
X114218386Y-82807715D01*
X114052786Y-82928028D01*
X113908028Y-83072786D01*
X113787715Y-83238386D01*
X113694781Y-83420776D01*
X113631522Y-83615465D01*
X113599500Y-83817648D01*
X113599500Y-84022351D01*
X113631522Y-84224534D01*
X113694781Y-84419223D01*
X113787715Y-84601613D01*
X113908028Y-84767213D01*
X114052786Y-84911971D01*
X114180052Y-85004433D01*
X114218390Y-85032287D01*
X114314332Y-85081172D01*
X114400776Y-85125218D01*
X114400778Y-85125218D01*
X114400781Y-85125220D01*
X114505137Y-85159127D01*
X114595465Y-85188477D01*
X114696557Y-85204488D01*
X114797648Y-85220500D01*
X114797649Y-85220500D01*
X115802351Y-85220500D01*
X115802352Y-85220500D01*
X116004534Y-85188477D01*
X116199219Y-85125220D01*
X116381610Y-85032287D01*
X116510362Y-84938744D01*
X116547213Y-84911971D01*
X116547215Y-84911968D01*
X116547219Y-84911966D01*
X116691966Y-84767219D01*
X116691968Y-84767215D01*
X116691971Y-84767213D01*
X116744732Y-84694590D01*
X116812287Y-84601610D01*
X116905220Y-84419219D01*
X116968477Y-84224534D01*
X117000500Y-84022352D01*
X117000500Y-83817648D01*
X116985378Y-83722175D01*
X116968477Y-83615465D01*
X116939127Y-83525137D01*
X116905220Y-83420781D01*
X116905218Y-83420778D01*
X116905218Y-83420776D01*
X116865246Y-83342328D01*
X116812287Y-83238390D01*
X116756917Y-83162179D01*
X116691971Y-83072786D01*
X116547213Y-82928028D01*
X116381614Y-82807715D01*
X116370070Y-82801833D01*
X116288917Y-82760483D01*
X116238123Y-82712511D01*
X116221328Y-82644690D01*
X116243865Y-82578555D01*
X116288917Y-82539516D01*
X116381610Y-82492287D01*
X116415732Y-82467496D01*
X116547213Y-82371971D01*
X116547215Y-82371968D01*
X116547219Y-82371966D01*
X116691966Y-82227219D01*
X116691968Y-82227215D01*
X116691971Y-82227213D01*
X116793141Y-82087962D01*
X116812287Y-82061610D01*
X116905220Y-81879219D01*
X116968477Y-81684534D01*
X117000500Y-81482352D01*
X117000500Y-81277648D01*
X116984348Y-81175672D01*
X116968477Y-81075465D01*
X116917943Y-80919939D01*
X116905220Y-80880781D01*
X116905218Y-80880778D01*
X116905218Y-80880776D01*
X116834739Y-80742455D01*
X116812287Y-80698390D01*
X116781639Y-80656206D01*
X116691971Y-80532786D01*
X116547213Y-80388028D01*
X116381614Y-80267715D01*
X116375006Y-80264348D01*
X116288917Y-80220483D01*
X116238123Y-80172511D01*
X116221328Y-80104690D01*
X116243865Y-80038555D01*
X116288917Y-79999516D01*
X116381610Y-79952287D01*
X116402770Y-79936913D01*
X116547213Y-79831971D01*
X116547215Y-79831968D01*
X116547219Y-79831966D01*
X116691966Y-79687219D01*
X116691968Y-79687215D01*
X116691971Y-79687213D01*
X116779768Y-79566369D01*
X116812287Y-79521610D01*
X116905220Y-79339219D01*
X116968477Y-79144534D01*
X117000500Y-78942352D01*
X117000500Y-78737648D01*
X116979058Y-78602270D01*
X116968477Y-78535465D01*
X116911483Y-78360056D01*
X116905220Y-78340781D01*
X116905218Y-78340778D01*
X116905218Y-78340776D01*
X116871503Y-78274607D01*
X116812287Y-78158390D01*
X116804556Y-78147749D01*
X116691971Y-77992786D01*
X116547217Y-77848032D01*
X116547212Y-77848028D01*
X116510325Y-77821228D01*
X116467659Y-77765898D01*
X116461680Y-77696285D01*
X116494286Y-77634490D01*
X116555124Y-77600133D01*
X116569956Y-77597620D01*
X116607379Y-77593596D01*
X116742086Y-77543354D01*
X116742093Y-77543350D01*
X116857187Y-77457190D01*
X116857190Y-77457187D01*
X116943350Y-77342093D01*
X116943354Y-77342086D01*
X116993596Y-77207379D01*
X116993598Y-77207372D01*
X116999999Y-77147844D01*
X117000000Y-77147827D01*
X117000000Y-76550000D01*
X115615686Y-76550000D01*
X115620080Y-76545606D01*
X115672741Y-76454394D01*
X115700000Y-76352661D01*
X115700000Y-76247339D01*
X115686685Y-76197648D01*
X121219500Y-76197648D01*
X121219500Y-76402351D01*
X121251522Y-76604534D01*
X121314781Y-76799223D01*
X121407715Y-76981613D01*
X121528028Y-77147213D01*
X121672786Y-77291971D01*
X121827749Y-77404556D01*
X121838390Y-77412287D01*
X121929840Y-77458883D01*
X121931080Y-77459515D01*
X121981876Y-77507490D01*
X121998671Y-77575311D01*
X121976134Y-77641446D01*
X121931080Y-77680485D01*
X121838386Y-77727715D01*
X121672786Y-77848028D01*
X121528028Y-77992786D01*
X121407715Y-78158386D01*
X121314781Y-78340776D01*
X121251522Y-78535465D01*
X121219500Y-78737648D01*
X121219500Y-78942351D01*
X121251522Y-79144534D01*
X121314781Y-79339223D01*
X121378691Y-79464653D01*
X121398291Y-79503119D01*
X121407715Y-79521613D01*
X121528028Y-79687213D01*
X121672786Y-79831971D01*
X121827749Y-79944556D01*
X121838390Y-79952287D01*
X121906997Y-79987244D01*
X121931080Y-79999515D01*
X121981876Y-80047490D01*
X121998671Y-80115311D01*
X121976134Y-80181446D01*
X121931080Y-80220485D01*
X121838386Y-80267715D01*
X121672786Y-80388028D01*
X121528028Y-80532786D01*
X121407715Y-80698386D01*
X121314781Y-80880776D01*
X121251522Y-81075465D01*
X121219500Y-81277648D01*
X121219500Y-81482351D01*
X121251522Y-81684534D01*
X121314781Y-81879223D01*
X121372277Y-81992064D01*
X121405083Y-82056449D01*
X121407715Y-82061613D01*
X121528028Y-82227213D01*
X121672786Y-82371971D01*
X121804268Y-82467496D01*
X121838390Y-82492287D01*
X121916227Y-82531947D01*
X121931080Y-82539515D01*
X121981876Y-82587490D01*
X121998671Y-82655311D01*
X121976134Y-82721446D01*
X121931080Y-82760485D01*
X121838386Y-82807715D01*
X121672786Y-82928028D01*
X121528028Y-83072786D01*
X121407715Y-83238386D01*
X121314781Y-83420776D01*
X121251522Y-83615465D01*
X121219500Y-83817648D01*
X121219500Y-84022351D01*
X121251522Y-84224534D01*
X121314781Y-84419223D01*
X121407715Y-84601613D01*
X121528028Y-84767213D01*
X121672786Y-84911971D01*
X121800052Y-85004433D01*
X121838390Y-85032287D01*
X121934332Y-85081172D01*
X122020776Y-85125218D01*
X122020778Y-85125218D01*
X122020781Y-85125220D01*
X122125137Y-85159127D01*
X122215465Y-85188477D01*
X122316557Y-85204488D01*
X122417648Y-85220500D01*
X122417649Y-85220500D01*
X123422351Y-85220500D01*
X123422352Y-85220500D01*
X123624534Y-85188477D01*
X123819219Y-85125220D01*
X124001610Y-85032287D01*
X124130362Y-84938744D01*
X124167213Y-84911971D01*
X124167215Y-84911968D01*
X124167219Y-84911966D01*
X124311966Y-84767219D01*
X124311968Y-84767215D01*
X124311971Y-84767213D01*
X124364732Y-84694590D01*
X124432287Y-84601610D01*
X124525220Y-84419219D01*
X124588477Y-84224534D01*
X124620500Y-84022352D01*
X124620500Y-83969994D01*
X126844357Y-83969994D01*
X126844357Y-83970005D01*
X126864890Y-84217812D01*
X126864892Y-84217824D01*
X126925936Y-84458881D01*
X127025826Y-84686606D01*
X127161833Y-84894782D01*
X127161836Y-84894785D01*
X127330256Y-85077738D01*
X127526491Y-85230474D01*
X127745190Y-85348828D01*
X127980386Y-85429571D01*
X128225665Y-85470500D01*
X128474335Y-85470500D01*
X128719614Y-85429571D01*
X128954810Y-85348828D01*
X129173509Y-85230474D01*
X129369744Y-85077738D01*
X129538164Y-84894785D01*
X129674173Y-84686607D01*
X129774063Y-84458881D01*
X129835108Y-84217821D01*
X129835109Y-84217812D01*
X129855643Y-83970005D01*
X129855643Y-83969994D01*
X129845699Y-83849994D01*
X131594357Y-83849994D01*
X131594357Y-83850005D01*
X131614890Y-84097812D01*
X131614892Y-84097824D01*
X131675936Y-84338881D01*
X131775826Y-84566606D01*
X131911833Y-84774782D01*
X131924763Y-84788828D01*
X132080256Y-84957738D01*
X132276491Y-85110474D01*
X132495190Y-85228828D01*
X132730386Y-85309571D01*
X132975665Y-85350500D01*
X133224335Y-85350500D01*
X133469614Y-85309571D01*
X133704810Y-85228828D01*
X133923509Y-85110474D01*
X134119744Y-84957738D01*
X134288164Y-84774785D01*
X134424173Y-84566607D01*
X134524063Y-84338881D01*
X134585108Y-84097821D01*
X134595700Y-83969994D01*
X134605643Y-83850005D01*
X134605643Y-83849994D01*
X134585109Y-83602187D01*
X134585107Y-83602175D01*
X134524063Y-83361118D01*
X134424173Y-83133393D01*
X134288166Y-82925217D01*
X134266557Y-82901744D01*
X134119744Y-82742262D01*
X133923509Y-82589526D01*
X133923507Y-82589525D01*
X133923506Y-82589524D01*
X133704811Y-82471172D01*
X133704802Y-82471169D01*
X133469616Y-82390429D01*
X133224335Y-82349500D01*
X132975665Y-82349500D01*
X132730383Y-82390429D01*
X132495197Y-82471169D01*
X132495188Y-82471172D01*
X132276493Y-82589524D01*
X132080257Y-82742261D01*
X131911833Y-82925217D01*
X131775826Y-83133393D01*
X131675936Y-83361118D01*
X131614892Y-83602175D01*
X131614890Y-83602187D01*
X131594357Y-83849994D01*
X129845699Y-83849994D01*
X129835109Y-83722187D01*
X129835107Y-83722175D01*
X129774063Y-83481118D01*
X129674173Y-83253393D01*
X129538166Y-83045217D01*
X129481855Y-82984047D01*
X129369744Y-82862262D01*
X129173509Y-82709526D01*
X129173507Y-82709525D01*
X129173506Y-82709524D01*
X128954811Y-82591172D01*
X128954802Y-82591169D01*
X128719616Y-82510429D01*
X128474335Y-82469500D01*
X128225665Y-82469500D01*
X127980383Y-82510429D01*
X127745197Y-82591169D01*
X127745188Y-82591172D01*
X127526493Y-82709524D01*
X127330257Y-82862261D01*
X127161833Y-83045217D01*
X127025826Y-83253393D01*
X126925936Y-83481118D01*
X126864892Y-83722175D01*
X126864890Y-83722187D01*
X126844357Y-83969994D01*
X124620500Y-83969994D01*
X124620500Y-83817648D01*
X124605378Y-83722175D01*
X124588477Y-83615465D01*
X124559127Y-83525137D01*
X124525220Y-83420781D01*
X124525218Y-83420778D01*
X124525218Y-83420776D01*
X124485246Y-83342328D01*
X124432287Y-83238390D01*
X124376917Y-83162179D01*
X124311971Y-83072786D01*
X124167213Y-82928028D01*
X124001614Y-82807715D01*
X123990070Y-82801833D01*
X123908917Y-82760483D01*
X123858123Y-82712511D01*
X123841328Y-82644690D01*
X123863865Y-82578555D01*
X123908917Y-82539516D01*
X124001610Y-82492287D01*
X124035732Y-82467496D01*
X124167213Y-82371971D01*
X124167215Y-82371968D01*
X124167219Y-82371966D01*
X124311966Y-82227219D01*
X124311968Y-82227215D01*
X124311971Y-82227213D01*
X124413141Y-82087962D01*
X124432287Y-82061610D01*
X124525220Y-81879219D01*
X124588477Y-81684534D01*
X124620500Y-81482352D01*
X124620500Y-81277648D01*
X124604348Y-81175672D01*
X124588477Y-81075465D01*
X124537943Y-80919939D01*
X124525220Y-80880781D01*
X124525218Y-80880778D01*
X124525218Y-80880776D01*
X124454739Y-80742455D01*
X124432287Y-80698390D01*
X124401639Y-80656206D01*
X124311971Y-80532786D01*
X124167213Y-80388028D01*
X124001614Y-80267715D01*
X123995006Y-80264348D01*
X123908917Y-80220483D01*
X123858123Y-80172511D01*
X123841328Y-80104690D01*
X123863865Y-80038555D01*
X123908917Y-79999516D01*
X124001610Y-79952287D01*
X124022770Y-79936913D01*
X124167213Y-79831971D01*
X124167215Y-79831968D01*
X124167219Y-79831966D01*
X124311966Y-79687219D01*
X124311968Y-79687215D01*
X124311971Y-79687213D01*
X124399768Y-79566369D01*
X124432287Y-79521610D01*
X124525220Y-79339219D01*
X124588477Y-79144534D01*
X124620500Y-78942352D01*
X124620500Y-78849994D01*
X131594859Y-78849994D01*
X131594859Y-78850005D01*
X131615385Y-79097729D01*
X131615387Y-79097738D01*
X131676412Y-79338717D01*
X131776266Y-79566364D01*
X131876564Y-79719882D01*
X132700000Y-78896446D01*
X132700000Y-78902661D01*
X132727259Y-79004394D01*
X132779920Y-79095606D01*
X132854394Y-79170080D01*
X132945606Y-79222741D01*
X133047339Y-79250000D01*
X133053553Y-79250000D01*
X132229942Y-80073609D01*
X132276768Y-80110055D01*
X132276770Y-80110056D01*
X132495385Y-80228364D01*
X132495396Y-80228369D01*
X132730506Y-80309083D01*
X132975707Y-80350000D01*
X133224293Y-80350000D01*
X133469493Y-80309083D01*
X133704603Y-80228369D01*
X133704614Y-80228364D01*
X133923228Y-80110057D01*
X133923231Y-80110055D01*
X133970056Y-80073609D01*
X133146447Y-79250000D01*
X133152661Y-79250000D01*
X133254394Y-79222741D01*
X133345606Y-79170080D01*
X133420080Y-79095606D01*
X133472741Y-79004394D01*
X133500000Y-78902661D01*
X133500000Y-78896448D01*
X134323434Y-79719882D01*
X134423731Y-79566369D01*
X134523587Y-79338717D01*
X134584612Y-79097738D01*
X134584614Y-79097729D01*
X134605141Y-78850005D01*
X134605141Y-78849994D01*
X134584614Y-78602270D01*
X134584612Y-78602261D01*
X134523587Y-78361282D01*
X134423731Y-78133630D01*
X134323434Y-77980116D01*
X133500000Y-78803551D01*
X133500000Y-78797339D01*
X133472741Y-78695606D01*
X133420080Y-78604394D01*
X133345606Y-78529920D01*
X133254394Y-78477259D01*
X133152661Y-78450000D01*
X133146448Y-78450000D01*
X133970057Y-77626390D01*
X133970056Y-77626389D01*
X133923229Y-77589943D01*
X133704614Y-77471635D01*
X133704603Y-77471630D01*
X133469493Y-77390916D01*
X133224293Y-77350000D01*
X132975707Y-77350000D01*
X132730506Y-77390916D01*
X132495396Y-77471630D01*
X132495390Y-77471632D01*
X132276761Y-77589949D01*
X132229942Y-77626388D01*
X132229942Y-77626390D01*
X133053553Y-78450000D01*
X133047339Y-78450000D01*
X132945606Y-78477259D01*
X132854394Y-78529920D01*
X132779920Y-78604394D01*
X132727259Y-78695606D01*
X132700000Y-78797339D01*
X132700000Y-78803552D01*
X131876564Y-77980116D01*
X131776267Y-78133632D01*
X131676412Y-78361282D01*
X131615387Y-78602261D01*
X131615385Y-78602270D01*
X131594859Y-78849994D01*
X124620500Y-78849994D01*
X124620500Y-78737648D01*
X124599058Y-78602270D01*
X124588477Y-78535465D01*
X124531483Y-78360056D01*
X124525220Y-78340781D01*
X124525218Y-78340778D01*
X124525218Y-78340776D01*
X124491503Y-78274607D01*
X124432287Y-78158390D01*
X124424556Y-78147749D01*
X124311971Y-77992786D01*
X124167213Y-77848028D01*
X124001614Y-77727715D01*
X123918346Y-77685288D01*
X123908917Y-77680483D01*
X123858123Y-77632511D01*
X123841328Y-77564690D01*
X123863865Y-77498555D01*
X123908917Y-77459516D01*
X124001610Y-77412287D01*
X124041417Y-77383366D01*
X124167213Y-77291971D01*
X124167215Y-77291968D01*
X124167219Y-77291966D01*
X124311966Y-77147219D01*
X124311968Y-77147215D01*
X124311971Y-77147213D01*
X124364732Y-77074590D01*
X124432287Y-76981610D01*
X124525220Y-76799219D01*
X124588477Y-76604534D01*
X124620500Y-76402352D01*
X124620500Y-76349994D01*
X126844357Y-76349994D01*
X126844357Y-76350005D01*
X126864890Y-76597812D01*
X126864892Y-76597824D01*
X126925936Y-76838881D01*
X127025826Y-77066606D01*
X127161833Y-77274782D01*
X127161836Y-77274785D01*
X127330256Y-77457738D01*
X127526491Y-77610474D01*
X127745190Y-77728828D01*
X127980386Y-77809571D01*
X128225665Y-77850500D01*
X128474335Y-77850500D01*
X128719614Y-77809571D01*
X128954810Y-77728828D01*
X129173509Y-77610474D01*
X129369744Y-77457738D01*
X129538164Y-77274785D01*
X129674173Y-77066607D01*
X129774063Y-76838881D01*
X129835108Y-76597821D01*
X129835109Y-76597812D01*
X129855643Y-76350005D01*
X129855643Y-76349994D01*
X129835109Y-76102187D01*
X129835107Y-76102175D01*
X129774063Y-75861118D01*
X129674173Y-75633393D01*
X129538166Y-75425217D01*
X129430291Y-75308034D01*
X129369744Y-75242262D01*
X129173509Y-75089526D01*
X129173507Y-75089525D01*
X129173506Y-75089524D01*
X128954811Y-74971172D01*
X128954802Y-74971169D01*
X128719616Y-74890429D01*
X128474335Y-74849500D01*
X128225665Y-74849500D01*
X127980383Y-74890429D01*
X127745197Y-74971169D01*
X127745188Y-74971172D01*
X127526493Y-75089524D01*
X127330257Y-75242261D01*
X127161833Y-75425217D01*
X127025826Y-75633393D01*
X126925936Y-75861118D01*
X126864892Y-76102175D01*
X126864890Y-76102187D01*
X126844357Y-76349994D01*
X124620500Y-76349994D01*
X124620500Y-76197648D01*
X124619888Y-76193784D01*
X124588477Y-75995465D01*
X124549787Y-75876390D01*
X124525220Y-75800781D01*
X124525218Y-75800778D01*
X124525218Y-75800776D01*
X124484893Y-75721635D01*
X124432287Y-75618390D01*
X124376917Y-75542179D01*
X124311971Y-75452786D01*
X124167213Y-75308028D01*
X124001613Y-75187715D01*
X124001612Y-75187714D01*
X124001610Y-75187713D01*
X123913487Y-75142812D01*
X123819223Y-75094781D01*
X123624534Y-75031522D01*
X123449995Y-75003878D01*
X123422352Y-74999500D01*
X122417648Y-74999500D01*
X122393329Y-75003351D01*
X122215465Y-75031522D01*
X122020776Y-75094781D01*
X121838386Y-75187715D01*
X121672786Y-75308028D01*
X121528028Y-75452786D01*
X121407715Y-75618386D01*
X121314781Y-75800776D01*
X121251522Y-75995465D01*
X121219500Y-76197648D01*
X115686685Y-76197648D01*
X115672741Y-76145606D01*
X115620080Y-76054394D01*
X115615686Y-76050000D01*
X117000000Y-76050000D01*
X117000000Y-75452172D01*
X116999999Y-75452155D01*
X116993598Y-75392627D01*
X116993596Y-75392620D01*
X116943354Y-75257913D01*
X116943350Y-75257906D01*
X116857190Y-75142812D01*
X116857187Y-75142809D01*
X116742093Y-75056649D01*
X116742086Y-75056645D01*
X116607379Y-75006403D01*
X116607372Y-75006401D01*
X116547844Y-75000000D01*
X115550000Y-75000000D01*
X115550000Y-75984314D01*
X115545606Y-75979920D01*
X115454394Y-75927259D01*
X115352661Y-75900000D01*
X115247339Y-75900000D01*
X115145606Y-75927259D01*
X115054394Y-75979920D01*
X115050000Y-75984314D01*
X115050000Y-75000000D01*
X114052155Y-75000000D01*
X113992627Y-75006401D01*
X113992620Y-75006403D01*
X113857913Y-75056645D01*
X113857906Y-75056649D01*
X113742812Y-75142809D01*
X113742809Y-75142812D01*
X113656649Y-75257906D01*
X113656645Y-75257913D01*
X113606403Y-75392620D01*
X113606401Y-75392627D01*
X113600000Y-75452155D01*
X113600000Y-76050000D01*
X114984314Y-76050000D01*
X114979920Y-76054394D01*
X114927259Y-76145606D01*
X114900000Y-76247339D01*
X114900000Y-76352661D01*
X114927259Y-76454394D01*
X114979920Y-76545606D01*
X114984314Y-76550000D01*
X113600000Y-76550000D01*
X113600000Y-77147844D01*
X113606401Y-77207372D01*
X113606403Y-77207379D01*
X113656645Y-77342086D01*
X113656649Y-77342093D01*
X113742809Y-77457187D01*
X113742812Y-77457190D01*
X113857906Y-77543350D01*
X113857913Y-77543354D01*
X113992620Y-77593596D01*
X114030043Y-77597620D01*
X114094595Y-77624358D01*
X114134443Y-77681750D01*
X114136937Y-77751576D01*
X114101285Y-77811665D01*
X114089675Y-77821227D01*
X114052789Y-77848026D01*
X114052782Y-77848032D01*
X113908028Y-77992786D01*
X113787715Y-78158386D01*
X113694781Y-78340776D01*
X113631522Y-78535465D01*
X113599500Y-78737648D01*
X84737276Y-78737648D01*
X84610551Y-78369204D01*
X84609283Y-78365311D01*
X84398795Y-77680485D01*
X84316755Y-77413565D01*
X84315579Y-77409490D01*
X84297363Y-77342086D01*
X84231938Y-77099994D01*
X95594859Y-77099994D01*
X95594859Y-77100005D01*
X95615385Y-77347729D01*
X95615387Y-77347738D01*
X95676412Y-77588717D01*
X95776266Y-77816364D01*
X95876564Y-77969882D01*
X96617037Y-77229409D01*
X96634075Y-77292993D01*
X96699901Y-77407007D01*
X96792993Y-77500099D01*
X96907007Y-77565925D01*
X96970590Y-77582962D01*
X96229942Y-78323609D01*
X96276768Y-78360055D01*
X96276770Y-78360056D01*
X96495385Y-78478364D01*
X96495396Y-78478369D01*
X96730506Y-78559083D01*
X96975707Y-78600000D01*
X97224293Y-78600000D01*
X97469493Y-78559083D01*
X97704603Y-78478369D01*
X97704614Y-78478364D01*
X97923228Y-78360057D01*
X97923231Y-78360055D01*
X97970056Y-78323609D01*
X97229409Y-77582962D01*
X97292993Y-77565925D01*
X97407007Y-77500099D01*
X97500099Y-77407007D01*
X97565925Y-77292993D01*
X97582962Y-77229410D01*
X98323434Y-77969882D01*
X98423731Y-77816369D01*
X98523587Y-77588717D01*
X98584612Y-77347738D01*
X98584614Y-77347729D01*
X98605141Y-77100005D01*
X98605141Y-77099994D01*
X98584614Y-76852270D01*
X98584612Y-76852261D01*
X98523587Y-76611282D01*
X98423731Y-76383630D01*
X98323434Y-76230116D01*
X97582962Y-76970589D01*
X97565925Y-76907007D01*
X97500099Y-76792993D01*
X97407007Y-76699901D01*
X97292993Y-76634075D01*
X97229410Y-76617037D01*
X97970057Y-75876390D01*
X97970056Y-75876389D01*
X97923229Y-75839943D01*
X97830931Y-75789994D01*
X104094357Y-75789994D01*
X104094357Y-75790005D01*
X104114890Y-76037812D01*
X104114892Y-76037824D01*
X104175936Y-76278881D01*
X104275826Y-76506606D01*
X104411833Y-76714782D01*
X104411836Y-76714785D01*
X104580256Y-76897738D01*
X104776491Y-77050474D01*
X104776493Y-77050475D01*
X104956383Y-77147827D01*
X104995190Y-77168828D01*
X105230386Y-77249571D01*
X105475665Y-77290500D01*
X105724335Y-77290500D01*
X105969614Y-77249571D01*
X106204810Y-77168828D01*
X106423509Y-77050474D01*
X106619744Y-76897738D01*
X106788164Y-76714785D01*
X106924173Y-76506607D01*
X107024063Y-76278881D01*
X107085108Y-76037821D01*
X107087696Y-76006594D01*
X107105643Y-75790005D01*
X107105643Y-75789994D01*
X109094357Y-75789994D01*
X109094357Y-75790005D01*
X109114890Y-76037812D01*
X109114892Y-76037824D01*
X109175936Y-76278881D01*
X109275826Y-76506606D01*
X109411833Y-76714782D01*
X109411836Y-76714785D01*
X109580256Y-76897738D01*
X109776491Y-77050474D01*
X109776493Y-77050475D01*
X109956383Y-77147827D01*
X109995190Y-77168828D01*
X110230386Y-77249571D01*
X110475665Y-77290500D01*
X110724335Y-77290500D01*
X110969614Y-77249571D01*
X111204810Y-77168828D01*
X111423509Y-77050474D01*
X111619744Y-76897738D01*
X111788164Y-76714785D01*
X111924173Y-76506607D01*
X112024063Y-76278881D01*
X112085108Y-76037821D01*
X112087696Y-76006594D01*
X112105643Y-75790005D01*
X112105643Y-75789994D01*
X112085109Y-75542187D01*
X112085107Y-75542175D01*
X112024063Y-75301118D01*
X111924173Y-75073393D01*
X111788166Y-74865217D01*
X111714749Y-74785465D01*
X111619744Y-74682262D01*
X111423509Y-74529526D01*
X111423507Y-74529525D01*
X111423506Y-74529524D01*
X111204811Y-74411172D01*
X111204802Y-74411169D01*
X110969616Y-74330429D01*
X110724335Y-74289500D01*
X110475665Y-74289500D01*
X110230383Y-74330429D01*
X109995197Y-74411169D01*
X109995188Y-74411172D01*
X109776493Y-74529524D01*
X109580257Y-74682261D01*
X109411833Y-74865217D01*
X109275826Y-75073393D01*
X109175936Y-75301118D01*
X109114892Y-75542175D01*
X109114890Y-75542187D01*
X109094357Y-75789994D01*
X107105643Y-75789994D01*
X107085109Y-75542187D01*
X107085107Y-75542175D01*
X107024063Y-75301118D01*
X106924173Y-75073393D01*
X106788166Y-74865217D01*
X106714749Y-74785465D01*
X106619744Y-74682262D01*
X106423509Y-74529526D01*
X106423507Y-74529525D01*
X106423506Y-74529524D01*
X106204811Y-74411172D01*
X106204802Y-74411169D01*
X105969616Y-74330429D01*
X105724335Y-74289500D01*
X105475665Y-74289500D01*
X105230383Y-74330429D01*
X104995197Y-74411169D01*
X104995188Y-74411172D01*
X104776493Y-74529524D01*
X104580257Y-74682261D01*
X104411833Y-74865217D01*
X104275826Y-75073393D01*
X104175936Y-75301118D01*
X104114892Y-75542175D01*
X104114890Y-75542187D01*
X104094357Y-75789994D01*
X97830931Y-75789994D01*
X97704614Y-75721635D01*
X97704603Y-75721630D01*
X97469493Y-75640916D01*
X97224293Y-75600000D01*
X96975707Y-75600000D01*
X96730506Y-75640916D01*
X96495396Y-75721630D01*
X96495390Y-75721632D01*
X96276761Y-75839949D01*
X96229942Y-75876388D01*
X96229942Y-75876390D01*
X96970590Y-76617037D01*
X96907007Y-76634075D01*
X96792993Y-76699901D01*
X96699901Y-76792993D01*
X96634075Y-76907007D01*
X96617037Y-76970589D01*
X95876564Y-76230116D01*
X95776267Y-76383632D01*
X95676412Y-76611282D01*
X95615387Y-76852261D01*
X95615385Y-76852270D01*
X95594859Y-77099994D01*
X84231938Y-77099994D01*
X84056115Y-76449402D01*
X84055050Y-76445161D01*
X84045096Y-76402351D01*
X83830073Y-75477613D01*
X83829139Y-75473229D01*
X83640083Y-74499165D01*
X83639285Y-74494587D01*
X83487582Y-73514960D01*
X83486931Y-73510126D01*
X83377238Y-72554018D01*
X83374000Y-72525800D01*
X83373530Y-72520793D01*
X83330157Y-71931537D01*
X83300804Y-71532759D01*
X83300532Y-71527566D01*
X83273710Y-70673080D01*
X83269427Y-70536641D01*
X83269376Y-70531278D01*
X83281318Y-69538410D01*
X83281506Y-69532931D01*
X83338083Y-68536154D01*
X83335685Y-68268184D01*
X83335782Y-68262069D01*
X83346423Y-68000968D01*
X83346824Y-67994852D01*
X83370089Y-67737595D01*
X83370785Y-67731554D01*
X83401483Y-67512500D01*
X83406299Y-67478134D01*
X83407262Y-67472288D01*
X83454664Y-67222695D01*
X83455883Y-67217021D01*
X83514789Y-66971399D01*
X83516251Y-66965880D01*
X83586278Y-66724321D01*
X83587977Y-66718927D01*
X83628437Y-66600000D01*
X118682474Y-66600000D01*
X118702524Y-66790764D01*
X118702525Y-66790767D01*
X118761795Y-66973185D01*
X118761798Y-66973191D01*
X118857704Y-67139306D01*
X118857709Y-67139313D01*
X118986054Y-67281854D01*
X118986056Y-67281856D01*
X119141235Y-67394600D01*
X119141236Y-67394601D01*
X119315726Y-67472288D01*
X119316469Y-67472619D01*
X119504092Y-67512500D01*
X119695908Y-67512500D01*
X119883531Y-67472619D01*
X120058763Y-67394601D01*
X120213945Y-67281855D01*
X120312908Y-67171945D01*
X120342290Y-67139313D01*
X120342295Y-67139306D01*
X120403602Y-67033119D01*
X120438202Y-66973191D01*
X120497476Y-66790764D01*
X120517526Y-66600000D01*
X120497476Y-66409236D01*
X120438202Y-66226809D01*
X120342294Y-66060692D01*
X120342290Y-66060686D01*
X120213945Y-65918145D01*
X120213943Y-65918143D01*
X120058764Y-65805399D01*
X120058763Y-65805398D01*
X119883530Y-65727380D01*
X119695908Y-65687500D01*
X119504092Y-65687500D01*
X119316469Y-65727380D01*
X119316468Y-65727380D01*
X119141236Y-65805398D01*
X119141235Y-65805399D01*
X118986056Y-65918143D01*
X118986054Y-65918145D01*
X118857709Y-66060686D01*
X118857704Y-66060693D01*
X118761798Y-66226808D01*
X118761795Y-66226814D01*
X118702525Y-66409232D01*
X118702524Y-66409236D01*
X118682474Y-66600000D01*
X83628437Y-66600000D01*
X83668767Y-66481454D01*
X83670639Y-66476330D01*
X83761844Y-66242961D01*
X83763891Y-66238040D01*
X83865127Y-66008893D01*
X83867320Y-66004199D01*
X83978227Y-65779328D01*
X83980554Y-65774845D01*
X84028169Y-65687500D01*
X84100769Y-65554322D01*
X84103145Y-65550161D01*
X84232319Y-65334028D01*
X84234817Y-65330028D01*
X84292054Y-65242093D01*
X84371903Y-65119418D01*
X84375738Y-65113865D01*
X84676013Y-64703718D01*
X84681295Y-64697001D01*
X85010625Y-64306899D01*
X85015950Y-64300991D01*
X85209203Y-64100000D01*
X116182474Y-64100000D01*
X116202524Y-64290764D01*
X116202525Y-64290767D01*
X116261795Y-64473185D01*
X116261798Y-64473191D01*
X116357704Y-64639306D01*
X116357709Y-64639313D01*
X116486054Y-64781854D01*
X116486056Y-64781856D01*
X116641235Y-64894600D01*
X116641236Y-64894601D01*
X116721095Y-64930156D01*
X116816469Y-64972619D01*
X117004092Y-65012500D01*
X117195908Y-65012500D01*
X117383531Y-64972619D01*
X117558763Y-64894601D01*
X117713945Y-64781855D01*
X117821703Y-64662177D01*
X117842290Y-64639313D01*
X117842295Y-64639306D01*
X117852041Y-64622425D01*
X117938202Y-64473191D01*
X117997476Y-64290764D01*
X118017526Y-64100000D01*
X117997476Y-63909236D01*
X117938202Y-63726809D01*
X117850995Y-63575762D01*
X117842295Y-63560693D01*
X117842290Y-63560686D01*
X117713945Y-63418145D01*
X117713943Y-63418143D01*
X117558764Y-63305399D01*
X117558763Y-63305398D01*
X117383530Y-63227380D01*
X117195908Y-63187500D01*
X117004092Y-63187500D01*
X116816469Y-63227380D01*
X116816468Y-63227380D01*
X116641236Y-63305398D01*
X116641235Y-63305399D01*
X116486056Y-63418143D01*
X116486054Y-63418145D01*
X116357709Y-63560686D01*
X116357704Y-63560693D01*
X116261798Y-63726808D01*
X116261795Y-63726814D01*
X116217962Y-63861722D01*
X116202524Y-63909236D01*
X116182474Y-64100000D01*
X85209203Y-64100000D01*
X85371956Y-63930731D01*
X85377324Y-63925478D01*
X85519362Y-63794627D01*
X85756938Y-63575762D01*
X85762242Y-63571149D01*
X86162391Y-63242667D01*
X86167658Y-63238577D01*
X86585229Y-62932033D01*
X86590431Y-62928418D01*
X87022249Y-62644539D01*
X87027476Y-62641286D01*
X87470400Y-62380750D01*
X87475632Y-62377841D01*
X87929139Y-62139945D01*
X90085891Y-60978452D01*
X90087837Y-60977429D01*
X90721149Y-60652155D01*
X118200000Y-60652155D01*
X118200000Y-61350000D01*
X119224722Y-61350000D01*
X119180667Y-61426306D01*
X119150000Y-61540756D01*
X119150000Y-61659244D01*
X119180667Y-61773694D01*
X119224722Y-61850000D01*
X118200000Y-61850000D01*
X118200000Y-62547844D01*
X118206401Y-62607372D01*
X118206403Y-62607379D01*
X118256645Y-62742086D01*
X118256649Y-62742093D01*
X118342809Y-62857187D01*
X118342812Y-62857190D01*
X118457906Y-62943350D01*
X118457913Y-62943354D01*
X118592620Y-62993596D01*
X118592627Y-62993598D01*
X118652155Y-62999999D01*
X118652172Y-63000000D01*
X119350000Y-63000000D01*
X119350000Y-61975277D01*
X119426306Y-62019333D01*
X119540756Y-62050000D01*
X119659244Y-62050000D01*
X119773694Y-62019333D01*
X119850000Y-61975277D01*
X119850000Y-63000000D01*
X120547828Y-63000000D01*
X120547839Y-62999999D01*
X120565334Y-62998118D01*
X120634093Y-63010522D01*
X120685232Y-63058131D01*
X120702513Y-63125829D01*
X120701882Y-63134659D01*
X120700000Y-63152164D01*
X120700000Y-63850000D01*
X121724722Y-63850000D01*
X121680667Y-63926306D01*
X121650000Y-64040756D01*
X121650000Y-64159244D01*
X121680667Y-64273694D01*
X121724722Y-64350000D01*
X120700000Y-64350000D01*
X120700000Y-65047844D01*
X120706401Y-65107372D01*
X120706403Y-65107379D01*
X120756645Y-65242086D01*
X120756649Y-65242093D01*
X120842809Y-65357187D01*
X120842812Y-65357190D01*
X120957906Y-65443350D01*
X120957913Y-65443354D01*
X121092620Y-65493596D01*
X121092627Y-65493598D01*
X121152155Y-65499999D01*
X121152172Y-65500000D01*
X121850000Y-65500000D01*
X121850000Y-64475277D01*
X121926306Y-64519333D01*
X122040756Y-64550000D01*
X122159244Y-64550000D01*
X122273694Y-64519333D01*
X122350000Y-64475277D01*
X122350000Y-65500000D01*
X123047828Y-65500000D01*
X123047844Y-65499999D01*
X123107372Y-65493598D01*
X123107379Y-65493596D01*
X123242086Y-65443354D01*
X123242093Y-65443350D01*
X123357187Y-65357190D01*
X123357190Y-65357187D01*
X123443350Y-65242093D01*
X123443354Y-65242086D01*
X123493596Y-65107379D01*
X123493598Y-65107372D01*
X123499999Y-65047844D01*
X123500000Y-65047827D01*
X123500000Y-64350000D01*
X122475278Y-64350000D01*
X122519333Y-64273694D01*
X122550000Y-64159244D01*
X122550000Y-64040756D01*
X122519333Y-63926306D01*
X122475278Y-63850000D01*
X123500000Y-63850000D01*
X123500000Y-63152172D01*
X123499999Y-63152155D01*
X123493598Y-63092627D01*
X123493596Y-63092620D01*
X123443354Y-62957913D01*
X123443350Y-62957906D01*
X123357190Y-62842812D01*
X123357187Y-62842809D01*
X123242093Y-62756649D01*
X123242086Y-62756645D01*
X123107379Y-62706403D01*
X123107372Y-62706401D01*
X123047844Y-62700000D01*
X122350000Y-62700000D01*
X122350000Y-63724722D01*
X122273694Y-63680667D01*
X122159244Y-63650000D01*
X122040756Y-63650000D01*
X121926306Y-63680667D01*
X121850000Y-63724722D01*
X121850000Y-62700000D01*
X121152164Y-62700000D01*
X121134659Y-62701882D01*
X121065900Y-62689475D01*
X121014764Y-62641863D01*
X120997486Y-62574163D01*
X120998118Y-62565334D01*
X120999999Y-62547839D01*
X121000000Y-62547827D01*
X121000000Y-61850000D01*
X119975278Y-61850000D01*
X120019333Y-61773694D01*
X120050000Y-61659244D01*
X120050000Y-61540756D01*
X120019333Y-61426306D01*
X119975278Y-61350000D01*
X121000000Y-61350000D01*
X121000000Y-60652172D01*
X120999999Y-60652155D01*
X120993598Y-60592627D01*
X120993596Y-60592620D01*
X120943354Y-60457913D01*
X120943350Y-60457906D01*
X120857190Y-60342812D01*
X120857187Y-60342809D01*
X120742093Y-60256649D01*
X120742086Y-60256645D01*
X120607379Y-60206403D01*
X120607372Y-60206401D01*
X120547844Y-60200000D01*
X119850000Y-60200000D01*
X119850000Y-61224722D01*
X119773694Y-61180667D01*
X119659244Y-61150000D01*
X119540756Y-61150000D01*
X119426306Y-61180667D01*
X119350000Y-61224722D01*
X119350000Y-60200000D01*
X118652155Y-60200000D01*
X118592627Y-60206401D01*
X118592620Y-60206403D01*
X118457913Y-60256645D01*
X118457906Y-60256649D01*
X118342812Y-60342809D01*
X118342809Y-60342812D01*
X118256649Y-60457906D01*
X118256645Y-60457913D01*
X118206403Y-60592620D01*
X118206401Y-60592627D01*
X118200000Y-60652155D01*
X90721149Y-60652155D01*
X92268058Y-59857651D01*
X92270299Y-59856530D01*
X94475707Y-58783848D01*
X94478393Y-58782583D01*
X96709651Y-57762926D01*
X96712568Y-57761638D01*
X98970726Y-56800760D01*
X98973983Y-56799429D01*
X101259837Y-55903196D01*
X101263307Y-55901898D01*
X103577621Y-55076186D01*
X103581471Y-55074884D01*
X105926206Y-54325179D01*
X105928165Y-54324572D01*
X108034223Y-53692968D01*
X108035446Y-53692609D01*
X110153914Y-53084160D01*
X110156017Y-53083578D01*
X112286358Y-52515078D01*
X112289453Y-52514294D01*
X114432246Y-52002186D01*
X114436211Y-52001309D01*
X116592411Y-51561955D01*
X116595993Y-51561281D01*
X117678108Y-51374240D01*
X117680808Y-51373804D01*
X118766893Y-51211044D01*
X118769782Y-51210647D01*
X119859246Y-51074329D01*
X119862455Y-51073970D01*
X120955352Y-50966145D01*
X120958738Y-50965858D01*
X122055164Y-50888572D01*
X122058770Y-50888372D01*
X123158208Y-50843696D01*
X123162738Y-50843596D01*
X123326899Y-50842937D01*
X123815215Y-50840977D01*
X123817292Y-50840986D01*
G37*
G04 #@! TD.AperFunction*
M02*
