G04 #@! TF.GenerationSoftware,KiCad,Pcbnew,9.0.2*
G04 #@! TF.CreationDate,2025-09-12T10:14:44-06:00*
G04 #@! TF.ProjectId,Makerspace_THT_Workshop,4d616b65-7273-4706-9163-655f5448545f,V2.1*
G04 #@! TF.SameCoordinates,Original*
G04 #@! TF.FileFunction,Copper,L2,Bot*
G04 #@! TF.FilePolarity,Positive*
%FSLAX46Y46*%
G04 Gerber Fmt 4.6, Leading zero omitted, Abs format (unit mm)*
G04 Created by KiCad (PCBNEW 9.0.2) date 2025-09-12 10:14:44*
%MOMM*%
%LPD*%
G01*
G04 APERTURE LIST*
G04 Aperture macros list*
%AMHorizOval*
0 Thick line with rounded ends*
0 $1 width*
0 $2 $3 position (X,Y) of the first rounded end (center of the circle)*
0 $4 $5 position (X,Y) of the second rounded end (center of the circle)*
0 Add line between two ends*
20,1,$1,$2,$3,$4,$5,0*
0 Add two circle primitives to create the rounded ends*
1,1,$1,$2,$3*
1,1,$1,$4,$5*%
%AMRotRect*
0 Rectangle, with rotation*
0 The origin of the aperture is its center*
0 $1 length*
0 $2 width*
0 $3 Rotation angle, in degrees counterclockwise*
0 Add horizontal line*
21,1,$1,$2,0,0,$3*%
G04 Aperture macros list end*
G04 #@! TA.AperFunction,ComponentPad*
%ADD10C,2.800000*%
G04 #@! TD*
G04 #@! TA.AperFunction,ComponentPad*
%ADD11C,2.990600*%
G04 #@! TD*
G04 #@! TA.AperFunction,ComponentPad*
%ADD12R,2.200000X2.200000*%
G04 #@! TD*
G04 #@! TA.AperFunction,ComponentPad*
%ADD13C,2.200000*%
G04 #@! TD*
G04 #@! TA.AperFunction,ComponentPad*
%ADD14R,3.000000X3.000000*%
G04 #@! TD*
G04 #@! TA.AperFunction,ComponentPad*
%ADD15C,3.000000*%
G04 #@! TD*
G04 #@! TA.AperFunction,ComponentPad*
%ADD16RotRect,2.400000X1.600000X225.000000*%
G04 #@! TD*
G04 #@! TA.AperFunction,ComponentPad*
%ADD17HorizOval,1.600000X-0.282843X-0.282843X0.282843X0.282843X0*%
G04 #@! TD*
G04 #@! TA.AperFunction,ComponentPad*
%ADD18RotRect,2.400000X1.600000X45.000000*%
G04 #@! TD*
G04 #@! TA.AperFunction,ComponentPad*
%ADD19HorizOval,1.600000X0.282843X0.282843X-0.282843X-0.282843X0*%
G04 #@! TD*
G04 #@! TA.AperFunction,ComponentPad*
%ADD20HorizOval,2.000000X0.704769X0.256515X-0.704769X-0.256515X0*%
G04 #@! TD*
G04 #@! TA.AperFunction,ComponentPad*
%ADD21RotRect,1.500000X2.500000X110.000000*%
G04 #@! TD*
G04 #@! TA.AperFunction,ComponentPad*
%ADD22HorizOval,1.500000X0.469846X0.171010X-0.469846X-0.171010X0*%
G04 #@! TD*
G04 #@! TA.AperFunction,ComponentPad*
%ADD23C,3.532000*%
G04 #@! TD*
G04 #@! TA.AperFunction,SMDPad,CuDef*
%ADD24C,12.000000*%
G04 #@! TD*
G04 #@! TA.AperFunction,Conductor*
%ADD25C,0.500000*%
G04 #@! TD*
G04 APERTURE END LIST*
D10*
X167906245Y-118806245D03*
X160722040Y-111622040D03*
D11*
X172232233Y-121296699D03*
X174000000Y-126600000D03*
X168696706Y-124832226D03*
D10*
X157593755Y-114993755D03*
X164777960Y-122177960D03*
D12*
X116900000Y-62900000D03*
D13*
X116900000Y-67900000D03*
D10*
X137015795Y-94415795D03*
X144200000Y-101600000D03*
X154500000Y-118000000D03*
X161684205Y-125184205D03*
D14*
X94000000Y-82770785D03*
D15*
X94000000Y-77770785D03*
D10*
X154406245Y-111806245D03*
X147222040Y-104622040D03*
X154100000Y-104532233D03*
X157635534Y-108067767D03*
X151356245Y-114856245D03*
X144172040Y-107672040D03*
X123893755Y-87393755D03*
X131077960Y-94577960D03*
X133893755Y-97393755D03*
X141077960Y-104577960D03*
X140214466Y-91464466D03*
X143750000Y-95000000D03*
X127015795Y-84415795D03*
X134200000Y-91600000D03*
X147196878Y-98267589D03*
X150732412Y-101803123D03*
D16*
X156574012Y-128200000D03*
D17*
X154777961Y-126403948D03*
X152981909Y-124607898D03*
X151185858Y-122811846D03*
X145797705Y-128200000D03*
X147593757Y-129996052D03*
X149389808Y-131792102D03*
X151185858Y-133588154D03*
D18*
X114425988Y-80400000D03*
D19*
X116222039Y-82196051D03*
X118018090Y-83992102D03*
X119814142Y-85788154D03*
X125202295Y-80400000D03*
X123406244Y-78603949D03*
X121610193Y-76807898D03*
X119814142Y-75011846D03*
D20*
X118602284Y-98052739D03*
X115797719Y-90347261D03*
D21*
X117884042Y-96079385D03*
D22*
X117200000Y-94200000D03*
X116515960Y-92320615D03*
D23*
X139736753Y-120636753D03*
X124463247Y-105363247D03*
D24*
X132100000Y-113000000D03*
D25*
X147222040Y-104622040D02*
X147593757Y-104993757D01*
X147593757Y-104993757D02*
X147593757Y-129996052D01*
X130400000Y-73800000D02*
X124500000Y-67900000D01*
X130400000Y-95777960D02*
X130400000Y-73800000D01*
X124500000Y-67900000D02*
X116900000Y-67900000D01*
X136977960Y-105777960D02*
X140600000Y-105777960D01*
X127600000Y-96400000D02*
X136977960Y-105777960D01*
X116222039Y-82196051D02*
X121796051Y-82196051D01*
X127600000Y-88000000D02*
X127600000Y-96400000D01*
X121796051Y-82196051D02*
X127600000Y-88000000D01*
G04 #@! TA.AperFunction,Conductor*
G36*
X120210521Y-53310548D02*
G01*
X120802378Y-53318468D01*
X120803956Y-53318501D01*
X121392786Y-53334682D01*
X121394022Y-53334723D01*
X121979185Y-53357139D01*
X122520447Y-53356901D01*
X122528083Y-53357135D01*
X123057810Y-53389761D01*
X123065030Y-53390418D01*
X123587869Y-53453508D01*
X123594551Y-53454499D01*
X124111133Y-53545675D01*
X124117179Y-53546900D01*
X124628042Y-53663777D01*
X124633453Y-53665146D01*
X125103111Y-53795349D01*
X125139096Y-53805325D01*
X125143928Y-53806771D01*
X125644894Y-53967860D01*
X125649090Y-53969293D01*
X126145873Y-54148877D01*
X126149444Y-54150230D01*
X126642621Y-54345917D01*
X126645545Y-54347121D01*
X127135142Y-54556283D01*
X127138405Y-54557734D01*
X127730677Y-54831697D01*
X128111492Y-55007848D01*
X128114468Y-55009273D01*
X130031235Y-55958683D01*
X130053912Y-55973175D01*
X130092686Y-56004365D01*
X130146280Y-56041087D01*
X130203707Y-56075145D01*
X130264530Y-56106829D01*
X130328312Y-56136427D01*
X130394613Y-56164229D01*
X130533032Y-56215597D01*
X130656969Y-56256022D01*
X130820823Y-56309468D01*
X130938100Y-56348285D01*
X130961260Y-56355951D01*
X130965142Y-56357308D01*
X131097495Y-56406042D01*
X131102272Y-56407914D01*
X131162873Y-56433124D01*
X131167140Y-56434995D01*
X131224821Y-56461584D01*
X131229982Y-56464109D01*
X131283530Y-56491885D01*
X131289661Y-56495289D01*
X131338635Y-56524318D01*
X131345714Y-56528845D01*
X131389732Y-56559148D01*
X131397680Y-56565104D01*
X131426514Y-56588575D01*
X131436405Y-56596626D01*
X131445044Y-56604357D01*
X131478334Y-56637076D01*
X131487267Y-56646847D01*
X131515181Y-56680860D01*
X131523827Y-56692772D01*
X131546582Y-56728394D01*
X131554236Y-56742253D01*
X131572113Y-56780158D01*
X131578109Y-56795410D01*
X131591230Y-56836594D01*
X131595141Y-56852390D01*
X131603308Y-56898021D01*
X131605082Y-56913455D01*
X131607735Y-56964690D01*
X131607648Y-56979018D01*
X131603956Y-57036734D01*
X131602470Y-57049512D01*
X131591503Y-57114304D01*
X131589104Y-57125378D01*
X131568706Y-57202338D01*
X131568706Y-57202340D01*
X131516366Y-57619052D01*
X131516365Y-57619056D01*
X131492223Y-58034375D01*
X131495259Y-58447561D01*
X131524446Y-58857852D01*
X131524446Y-58857853D01*
X131578768Y-59264542D01*
X131578776Y-59264592D01*
X131657197Y-59666904D01*
X131758718Y-60064206D01*
X131758718Y-60064207D01*
X131882300Y-60455693D01*
X131882303Y-60455703D01*
X132026913Y-60840622D01*
X132191558Y-61218314D01*
X132375179Y-61587967D01*
X132375193Y-61587993D01*
X132576797Y-61948934D01*
X132576801Y-61948940D01*
X132795358Y-62300421D01*
X133029842Y-62641704D01*
X133029847Y-62641710D01*
X133279227Y-62972052D01*
X133539264Y-63286830D01*
X133545413Y-63294929D01*
X133601013Y-63374749D01*
X133664193Y-63457509D01*
X133802424Y-63619914D01*
X133952916Y-63779153D01*
X134111376Y-63936405D01*
X134288017Y-64107372D01*
X134434250Y-64248909D01*
X134436126Y-64250764D01*
X134485515Y-64300705D01*
X134590339Y-64406700D01*
X134593640Y-64410170D01*
X134624011Y-64443354D01*
X134737268Y-64567099D01*
X134742052Y-64572646D01*
X134871810Y-64732422D01*
X134876232Y-64738206D01*
X134933235Y-64817486D01*
X134936553Y-64822341D01*
X134989003Y-64903110D01*
X134992503Y-64908832D01*
X135039363Y-64990327D01*
X135042930Y-64996994D01*
X135083786Y-65079280D01*
X135087273Y-65086945D01*
X135121754Y-65170135D01*
X135124972Y-65178798D01*
X135152746Y-65263064D01*
X135155489Y-65272672D01*
X135176237Y-65358277D01*
X135178292Y-65368681D01*
X135191681Y-65455953D01*
X135192868Y-65466932D01*
X135198518Y-65556292D01*
X135198717Y-65567550D01*
X135196172Y-65659432D01*
X135195352Y-65670647D01*
X135184060Y-65765568D01*
X135182279Y-65776414D01*
X135161611Y-65874793D01*
X135159005Y-65885014D01*
X135128263Y-65987226D01*
X135125017Y-65996634D01*
X135081785Y-66107291D01*
X135081782Y-66107299D01*
X134945070Y-66687480D01*
X134945065Y-66687506D01*
X134846206Y-67269383D01*
X134783139Y-67852367D01*
X134783138Y-67852369D01*
X134775598Y-68002351D01*
X134753971Y-68432549D01*
X134753804Y-68435864D01*
X134753803Y-68435876D01*
X134756138Y-69019214D01*
X134756139Y-69019231D01*
X134788077Y-69601880D01*
X134788080Y-69601917D01*
X134847561Y-70183271D01*
X134932520Y-70762723D01*
X135040903Y-71339725D01*
X135170630Y-71913589D01*
X135297867Y-72400428D01*
X135319650Y-72483772D01*
X135485896Y-73049667D01*
X135639081Y-73523389D01*
X135667312Y-73610691D01*
X135861811Y-74166184D01*
X136268555Y-75223737D01*
X136274248Y-75293375D01*
X136273977Y-75294653D01*
X136216085Y-75560309D01*
X136214833Y-75565508D01*
X136136018Y-75864551D01*
X136134759Y-75868993D01*
X136043830Y-76168306D01*
X136042635Y-76172027D01*
X135941206Y-76471608D01*
X135940132Y-76474649D01*
X135829836Y-76774516D01*
X135828926Y-76776914D01*
X135711452Y-77076980D01*
X135710491Y-77079361D01*
X135464055Y-77672070D01*
X135459829Y-77682233D01*
X135459458Y-77683115D01*
X135183564Y-78332484D01*
X134949116Y-78884301D01*
X134945046Y-78893880D01*
X134708466Y-79502047D01*
X134601178Y-79807123D01*
X134503424Y-80113051D01*
X134523981Y-80998298D01*
X134524013Y-81000818D01*
X134526596Y-81892496D01*
X134526597Y-81892895D01*
X134526309Y-82789899D01*
X134538269Y-83687244D01*
X134576951Y-84566781D01*
X134577603Y-84581606D01*
X134593877Y-84790580D01*
X134612262Y-85026662D01*
X134659432Y-85469708D01*
X134721012Y-85910409D01*
X134798877Y-86348245D01*
X134798880Y-86348261D01*
X134798882Y-86348269D01*
X134844548Y-86554906D01*
X134894945Y-86782951D01*
X134894946Y-86782957D01*
X135011072Y-87213961D01*
X135011081Y-87213989D01*
X135057498Y-87337768D01*
X135057503Y-87337781D01*
X135110430Y-87453389D01*
X135110433Y-87453395D01*
X135169573Y-87561055D01*
X135169579Y-87561064D01*
X135234612Y-87660955D01*
X135234616Y-87660960D01*
X135305248Y-87753307D01*
X135347052Y-87800111D01*
X135381191Y-87838332D01*
X135381197Y-87838338D01*
X135381204Y-87838345D01*
X135462114Y-87916215D01*
X135547724Y-87987173D01*
X135547727Y-87987175D01*
X135637719Y-88051418D01*
X135731789Y-88109153D01*
X135731799Y-88109158D01*
X135731802Y-88109160D01*
X135756766Y-88122283D01*
X135829632Y-88160587D01*
X135829641Y-88160591D01*
X135829647Y-88160594D01*
X135903812Y-88193786D01*
X135930944Y-88205929D01*
X135945979Y-88211607D01*
X136035406Y-88245381D01*
X136035413Y-88245383D01*
X136035421Y-88245386D01*
X136121602Y-88272508D01*
X136125227Y-88273649D01*
X136142758Y-88279166D01*
X136252653Y-88307478D01*
X136364800Y-88330529D01*
X136541206Y-88354440D01*
X136594634Y-88361682D01*
X136594652Y-88361683D01*
X136603110Y-88362136D01*
X136829828Y-88374287D01*
X137067950Y-88370009D01*
X137067960Y-88370008D01*
X137067965Y-88370008D01*
X137306557Y-88350512D01*
X137306562Y-88350511D01*
X137306564Y-88350511D01*
X137543239Y-88317457D01*
X137775540Y-88272510D01*
X138001035Y-88217335D01*
X138206244Y-88156849D01*
X138228750Y-88152428D01*
X138344056Y-88140706D01*
X138410804Y-88131048D01*
X138471395Y-88122283D01*
X138471399Y-88122282D01*
X138471414Y-88122280D01*
X138727607Y-88071216D01*
X138985269Y-88005211D01*
X139243798Y-87929069D01*
X139760330Y-87765835D01*
X139761733Y-87765401D01*
X140016741Y-87688452D01*
X140020429Y-87687401D01*
X140271641Y-87620064D01*
X140277555Y-87618635D01*
X140524204Y-87565467D01*
X140532721Y-87563940D01*
X140775516Y-87529115D01*
X140783638Y-87528224D01*
X140900726Y-87519284D01*
X140907084Y-87518964D01*
X141023778Y-87516113D01*
X141030895Y-87516143D01*
X141145896Y-87519959D01*
X141153673Y-87520464D01*
X141266985Y-87531426D01*
X141275356Y-87532527D01*
X141386977Y-87551112D01*
X141395839Y-87552923D01*
X141505868Y-87579639D01*
X141515011Y-87582234D01*
X141623576Y-87617623D01*
X141632809Y-87621044D01*
X141740053Y-87665701D01*
X141749094Y-87669901D01*
X141855204Y-87724497D01*
X141863856Y-87729398D01*
X141968951Y-87794646D01*
X141977010Y-87800101D01*
X142081171Y-87876750D01*
X142088522Y-87882602D01*
X142156050Y-87940693D01*
X142195173Y-87974349D01*
X142195177Y-87974352D01*
X142689313Y-88290342D01*
X143195381Y-88585344D01*
X143536550Y-88765797D01*
X143712560Y-88858893D01*
X144240009Y-89110518D01*
X144776906Y-89339753D01*
X145322425Y-89546134D01*
X145875739Y-89729194D01*
X146015521Y-89768930D01*
X146436021Y-89888467D01*
X147002440Y-90023486D01*
X147002443Y-90023486D01*
X147002449Y-90023488D01*
X147574190Y-90133790D01*
X148150421Y-90218907D01*
X148730314Y-90278373D01*
X148730344Y-90278374D01*
X148730357Y-90278376D01*
X148987234Y-90293076D01*
X149313025Y-90311721D01*
X149313026Y-90311722D01*
X149313044Y-90311723D01*
X149897783Y-90318490D01*
X150464101Y-90298886D01*
X150483705Y-90298208D01*
X150531502Y-90294311D01*
X151069983Y-90250411D01*
X151187659Y-90218294D01*
X151191683Y-90217269D01*
X151304638Y-90190562D01*
X151308950Y-90189624D01*
X151419112Y-90167760D01*
X151423719Y-90166938D01*
X151531015Y-90149890D01*
X151535968Y-90149205D01*
X151640429Y-90136921D01*
X151645662Y-90136418D01*
X151747321Y-90128844D01*
X151752872Y-90128556D01*
X151851731Y-90125642D01*
X151857543Y-90125608D01*
X151953667Y-90127303D01*
X151959744Y-90127560D01*
X152053127Y-90133813D01*
X152059404Y-90134395D01*
X152150109Y-90145159D01*
X152156586Y-90146102D01*
X152244657Y-90161330D01*
X152251255Y-90162658D01*
X152336738Y-90182311D01*
X152343441Y-90184051D01*
X152426415Y-90208101D01*
X152433139Y-90210261D01*
X152513654Y-90238682D01*
X152520353Y-90241267D01*
X152598504Y-90274057D01*
X152605065Y-90277038D01*
X152680941Y-90314210D01*
X152687327Y-90317573D01*
X152760995Y-90359144D01*
X152767102Y-90362826D01*
X152838650Y-90408842D01*
X152844443Y-90412806D01*
X152889489Y-90445545D01*
X152913880Y-90463272D01*
X152919359Y-90467493D01*
X152986740Y-90522459D01*
X152991834Y-90526849D01*
X153057227Y-90586390D01*
X153061902Y-90590878D01*
X153125289Y-90655003D01*
X153129589Y-90659580D01*
X153190990Y-90728341D01*
X153194853Y-90732884D01*
X153254304Y-90806362D01*
X153257777Y-90810865D01*
X153286599Y-90850082D01*
X153315187Y-90888981D01*
X153318339Y-90893476D01*
X153373731Y-90976296D01*
X153376541Y-90980694D01*
X153429912Y-91068253D01*
X153432379Y-91072488D01*
X153483718Y-91164807D01*
X153485901Y-91168915D01*
X153535166Y-91265957D01*
X153537085Y-91269911D01*
X153584243Y-91371642D01*
X153585937Y-91375462D01*
X153630996Y-91481927D01*
X153632475Y-91485582D01*
X153676083Y-91598494D01*
X153676084Y-91598496D01*
X154037831Y-92182606D01*
X154037838Y-92182616D01*
X154037843Y-92182624D01*
X154428084Y-92742614D01*
X154845191Y-93278982D01*
X155112312Y-93588917D01*
X155287542Y-93792234D01*
X155287563Y-93792258D01*
X155753538Y-94282909D01*
X155753547Y-94282918D01*
X156241566Y-94751521D01*
X156742910Y-95192343D01*
X156750000Y-95198577D01*
X157277205Y-95624579D01*
X157821598Y-96030070D01*
X158359094Y-96400097D01*
X158381560Y-96415563D01*
X158955464Y-96781567D01*
X159541699Y-97128603D01*
X160138651Y-97457187D01*
X160138659Y-97457191D01*
X160644099Y-97716268D01*
X160744705Y-97767836D01*
X161358246Y-98061069D01*
X161977659Y-98337402D01*
X162107549Y-98357841D01*
X162114731Y-98359191D01*
X162230580Y-98384534D01*
X162238420Y-98386520D01*
X162343910Y-98416930D01*
X162352324Y-98419685D01*
X162447905Y-98454808D01*
X162456760Y-98458457D01*
X162542958Y-98497954D01*
X162552127Y-98502626D01*
X162578701Y-98517589D01*
X162629476Y-98546178D01*
X162638721Y-98551933D01*
X162707858Y-98599300D01*
X162716881Y-98606108D01*
X162778481Y-98657151D01*
X162787004Y-98664909D01*
X162841689Y-98719543D01*
X162849441Y-98728042D01*
X162897835Y-98786313D01*
X162904620Y-98795281D01*
X162947244Y-98857272D01*
X162952953Y-98866400D01*
X162990213Y-98932162D01*
X162994841Y-98941168D01*
X163027088Y-99010780D01*
X163030702Y-99019422D01*
X163058199Y-99092864D01*
X163060917Y-99100963D01*
X163083904Y-99178179D01*
X163085871Y-99185627D01*
X163104211Y-99264951D01*
X163106060Y-99274718D01*
X163131767Y-99448313D01*
X163132876Y-99458942D01*
X163144057Y-99642570D01*
X163144285Y-99650588D01*
X163143533Y-99844073D01*
X163143377Y-99849822D01*
X163133287Y-100050350D01*
X163132914Y-100055577D01*
X163055459Y-100890243D01*
X163052568Y-100907710D01*
X163026384Y-101016858D01*
X163005489Y-101123950D01*
X163003615Y-101133557D01*
X162989287Y-101228536D01*
X162986171Y-101249190D01*
X162973892Y-101363755D01*
X162966611Y-101477304D01*
X162964166Y-101589848D01*
X162966396Y-101701372D01*
X162973138Y-101811941D01*
X162984227Y-101921541D01*
X162989409Y-101958403D01*
X162999506Y-102030229D01*
X162999508Y-102030239D01*
X162999509Y-102030246D01*
X162999510Y-102030251D01*
X163041962Y-102244834D01*
X163041966Y-102244851D01*
X163099220Y-102455963D01*
X163169952Y-102663681D01*
X163169969Y-102663726D01*
X163219049Y-102784777D01*
X163252891Y-102868246D01*
X163343250Y-103062304D01*
X163346715Y-103069745D01*
X163450107Y-103268313D01*
X163561799Y-103464164D01*
X163632558Y-103579390D01*
X163680461Y-103657398D01*
X163762441Y-103783191D01*
X163804810Y-103848204D01*
X164056507Y-104210389D01*
X164070764Y-104237556D01*
X164120411Y-104369751D01*
X164120423Y-104369780D01*
X164182709Y-104507510D01*
X164248768Y-104630882D01*
X164251862Y-104636660D01*
X164251868Y-104636670D01*
X164251874Y-104636680D01*
X164327553Y-104757617D01*
X164327577Y-104757653D01*
X164409469Y-104870786D01*
X164409488Y-104870812D01*
X164497300Y-104976574D01*
X164497305Y-104976580D01*
X164590702Y-105075339D01*
X164590722Y-105075359D01*
X164667016Y-105146616D01*
X164689351Y-105167477D01*
X164792927Y-105253378D01*
X164901106Y-105333435D01*
X165013566Y-105408039D01*
X165013582Y-105408048D01*
X165013590Y-105408054D01*
X165129976Y-105477574D01*
X165129979Y-105477576D01*
X165129983Y-105477578D01*
X165373392Y-105603026D01*
X165628746Y-105712898D01*
X167790884Y-106405563D01*
X167905038Y-106413359D01*
X167914708Y-106414402D01*
X168015714Y-106429341D01*
X168025963Y-106431301D01*
X168118851Y-106453157D01*
X168129438Y-106456150D01*
X168214847Y-106484452D01*
X168225483Y-106488529D01*
X168304081Y-106522880D01*
X168314453Y-106528002D01*
X168386979Y-106568129D01*
X168396732Y-106574130D01*
X168463842Y-106619837D01*
X168472741Y-106626503D01*
X168535005Y-106677652D01*
X168542876Y-106684701D01*
X168600792Y-106741192D01*
X168607557Y-106748335D01*
X168661539Y-106810071D01*
X168667213Y-106817055D01*
X168717595Y-106883895D01*
X168722260Y-106890526D01*
X168769264Y-106962189D01*
X168773038Y-106968324D01*
X168816966Y-107044617D01*
X168819972Y-107050161D01*
X168829173Y-107068208D01*
X168860493Y-107129646D01*
X168863831Y-107136738D01*
X168939033Y-107310608D01*
X168941934Y-107317949D01*
X169008298Y-107502875D01*
X169009953Y-107507809D01*
X169070549Y-107701924D01*
X169071434Y-107704888D01*
X169186367Y-108108171D01*
X169245833Y-108308619D01*
X169310498Y-108503761D01*
X169310501Y-108503769D01*
X169383324Y-108690460D01*
X169383332Y-108690478D01*
X169459169Y-108848687D01*
X169470038Y-108884280D01*
X169490302Y-109022358D01*
X169490303Y-109022360D01*
X169490304Y-109022365D01*
X169522477Y-109171536D01*
X169522479Y-109171543D01*
X169522481Y-109171552D01*
X169563433Y-109313430D01*
X169587699Y-109379751D01*
X169612798Y-109448350D01*
X169660768Y-109555521D01*
X169670172Y-109576532D01*
X169670175Y-109576538D01*
X169735161Y-109698237D01*
X169735175Y-109698261D01*
X169807397Y-109813770D01*
X169856646Y-109882025D01*
X169886481Y-109923374D01*
X169886485Y-109923378D01*
X169886488Y-109923383D01*
X169972019Y-110027314D01*
X169972028Y-110027325D01*
X170063637Y-110125874D01*
X170063659Y-110125896D01*
X170117152Y-110177263D01*
X170160937Y-110219310D01*
X170263532Y-110307894D01*
X170483063Y-110471577D01*
X170483066Y-110471579D01*
X170483069Y-110471581D01*
X170562102Y-110520960D01*
X170719128Y-110619069D01*
X170968622Y-110752516D01*
X171186986Y-110854669D01*
X171228447Y-110874065D01*
X171495484Y-110985851D01*
X171766651Y-111090032D01*
X171944892Y-111154290D01*
X172830481Y-111473556D01*
X180764781Y-114127687D01*
X183387348Y-114982206D01*
X188720867Y-116720043D01*
X190407756Y-117248704D01*
X192712923Y-117971130D01*
X194887905Y-118627958D01*
X196717430Y-119180461D01*
X196717444Y-119180465D01*
X200736767Y-120339277D01*
X203843531Y-121185549D01*
X204558010Y-121380171D01*
X204617519Y-121416783D01*
X204647787Y-121479756D01*
X204639205Y-121549097D01*
X204609833Y-121590644D01*
X204348659Y-121833360D01*
X204347453Y-121834466D01*
X204133355Y-122028232D01*
X204132413Y-122029076D01*
X203916233Y-122220751D01*
X203915182Y-122221672D01*
X203697020Y-122410758D01*
X203695858Y-122411752D01*
X203475445Y-122598078D01*
X203474170Y-122599142D01*
X203251381Y-122782419D01*
X203249989Y-122783548D01*
X203024485Y-122963656D01*
X203023465Y-122964461D01*
X202270550Y-123552986D01*
X202265333Y-123556849D01*
X201489755Y-124100191D01*
X201484596Y-124103616D01*
X200685952Y-124605621D01*
X200680914Y-124608624D01*
X199860990Y-125071415D01*
X199856124Y-125074021D01*
X199016744Y-125499697D01*
X199012092Y-125501935D01*
X198155086Y-125892592D01*
X198150680Y-125894498D01*
X197277917Y-126252218D01*
X197273782Y-126253828D01*
X196387004Y-126580748D01*
X196383155Y-126582095D01*
X195484342Y-126880262D01*
X195480789Y-126881382D01*
X194571686Y-127152933D01*
X194568433Y-127153856D01*
X193651017Y-127400857D01*
X193648067Y-127401613D01*
X192724660Y-127626059D01*
X192720839Y-127626924D01*
X190860077Y-128017399D01*
X190855973Y-128018188D01*
X188990835Y-128344374D01*
X187424505Y-128663487D01*
X187419883Y-128664338D01*
X185853805Y-128922020D01*
X185849421Y-128922661D01*
X184280370Y-129123559D01*
X184276259Y-129124016D01*
X182703372Y-129272286D01*
X182699564Y-129272586D01*
X181122010Y-129372381D01*
X181118524Y-129372552D01*
X179535517Y-129428025D01*
X179532368Y-129428095D01*
X177943123Y-129443398D01*
X177940321Y-129443394D01*
X177373652Y-129436042D01*
X176342688Y-129422668D01*
X176342675Y-129422668D01*
X176342658Y-129422668D01*
X174645139Y-129454288D01*
X174640549Y-129454289D01*
X172951103Y-129423200D01*
X172947079Y-129423061D01*
X171262199Y-129337278D01*
X171258762Y-129337055D01*
X169577519Y-129204555D01*
X169574677Y-129204298D01*
X167896087Y-129033066D01*
X167893843Y-129032816D01*
X166217279Y-128830879D01*
X166215101Y-128830597D01*
X162861798Y-128366317D01*
X162861792Y-128366317D01*
X162847039Y-128366619D01*
X162761628Y-128368368D01*
X162756116Y-128368358D01*
X162658033Y-128366005D01*
X162651095Y-128365644D01*
X162445773Y-128349179D01*
X162438634Y-128348398D01*
X162228180Y-128319182D01*
X162223296Y-128318404D01*
X162007842Y-128279680D01*
X162004450Y-128279022D01*
X161562000Y-128186704D01*
X161561883Y-128186680D01*
X161339216Y-128140669D01*
X161322713Y-128137618D01*
X161117546Y-128099697D01*
X160897977Y-128067392D01*
X160897961Y-128067390D01*
X160897940Y-128067387D01*
X160840236Y-128062045D01*
X160681378Y-128047340D01*
X160681381Y-128047340D01*
X160468917Y-128043177D01*
X160468895Y-128043177D01*
X160364537Y-128048177D01*
X160364513Y-128048179D01*
X160261535Y-128058507D01*
X160160081Y-128074611D01*
X160060310Y-128096939D01*
X159962294Y-128125957D01*
X159866216Y-128162099D01*
X159772176Y-128205827D01*
X159680319Y-128257585D01*
X159680310Y-128257590D01*
X159590747Y-128317838D01*
X159503613Y-128387022D01*
X159407712Y-128673431D01*
X159407703Y-128673462D01*
X159332285Y-128963918D01*
X159332280Y-128963940D01*
X159275001Y-129257966D01*
X159274999Y-129257978D01*
X159233507Y-129555156D01*
X159205458Y-129855016D01*
X159188508Y-130157085D01*
X159178517Y-130766027D01*
X159188458Y-131988899D01*
X159188446Y-131991926D01*
X159183533Y-132293629D01*
X159183442Y-132296771D01*
X159170958Y-132596483D01*
X159170716Y-132600616D01*
X159148409Y-132897399D01*
X159147916Y-132902527D01*
X159113259Y-133198480D01*
X159113135Y-133199504D01*
X159066542Y-133570628D01*
X159032652Y-133950425D01*
X158987361Y-134727050D01*
X158945819Y-135512109D01*
X158945647Y-135514797D01*
X158916585Y-135903698D01*
X158916272Y-135907219D01*
X158876483Y-136291781D01*
X158875881Y-136296652D01*
X158821592Y-136674551D01*
X158820527Y-136680816D01*
X158747993Y-137050115D01*
X158746232Y-137057787D01*
X158651759Y-137416624D01*
X158649013Y-137425645D01*
X158528485Y-137773557D01*
X158525611Y-137781059D01*
X158455362Y-137948005D01*
X158452968Y-137953338D01*
X158374459Y-138117775D01*
X158371658Y-138123285D01*
X158284910Y-138283867D01*
X158281681Y-138289488D01*
X158186221Y-138446037D01*
X158182556Y-138451694D01*
X158077891Y-138604046D01*
X158073799Y-138609659D01*
X157959430Y-138757642D01*
X157954936Y-138763126D01*
X157830312Y-138906613D01*
X157825456Y-138911888D01*
X157687543Y-139053268D01*
X157650519Y-139112863D01*
X157645686Y-139120067D01*
X157608796Y-139171102D01*
X157603427Y-139178003D01*
X157577666Y-139208805D01*
X157564495Y-139224555D01*
X157558701Y-139231009D01*
X157517769Y-139273521D01*
X157511697Y-139279411D01*
X157468776Y-139318295D01*
X157462593Y-139323539D01*
X157417659Y-139359189D01*
X157411529Y-139363752D01*
X157364617Y-139396474D01*
X157358700Y-139400355D01*
X157309790Y-139430476D01*
X157304213Y-139433714D01*
X157253372Y-139461487D01*
X157248246Y-139464134D01*
X157196529Y-139489336D01*
X157189921Y-139492320D01*
X157078040Y-139538960D01*
X157071226Y-139541568D01*
X156954679Y-139582286D01*
X156950398Y-139583695D01*
X156828890Y-139621251D01*
X156827591Y-139621645D01*
X156578195Y-139695748D01*
X156455118Y-139736686D01*
X156335090Y-139783535D01*
X156335077Y-139783540D01*
X156219415Y-139838832D01*
X156219400Y-139838840D01*
X156163633Y-139870435D01*
X156163609Y-139870450D01*
X156109419Y-139905109D01*
X156109412Y-139905114D01*
X156056943Y-139943171D01*
X156056938Y-139943175D01*
X156006387Y-139984923D01*
X155957895Y-140030700D01*
X155957890Y-140030705D01*
X155911658Y-140080792D01*
X155739433Y-140431673D01*
X155577651Y-140788400D01*
X155277012Y-141515109D01*
X154709874Y-142988570D01*
X154708831Y-142991190D01*
X154409843Y-143718225D01*
X154408262Y-143721899D01*
X154248296Y-144077789D01*
X154246745Y-144081109D01*
X154076595Y-144431577D01*
X154074597Y-144435512D01*
X153892481Y-144778958D01*
X153889974Y-144783457D01*
X153693879Y-145118825D01*
X153690798Y-145123820D01*
X153478682Y-145450110D01*
X153474972Y-145455500D01*
X153315112Y-145675114D01*
X153308333Y-145680331D01*
X153304396Y-145687924D01*
X153281064Y-145701319D01*
X153259744Y-145717730D01*
X153251221Y-145718454D01*
X153243804Y-145722713D01*
X153216934Y-145721368D01*
X153190125Y-145723647D01*
X153180741Y-145719557D01*
X153174021Y-145719221D01*
X153142690Y-145702973D01*
X153093703Y-145667912D01*
X153088018Y-145663591D01*
X153039778Y-145624677D01*
X152945132Y-145548329D01*
X152940287Y-145544210D01*
X152800362Y-145418909D01*
X152796211Y-145415017D01*
X152659295Y-145280579D01*
X152655752Y-145276956D01*
X152521832Y-145134253D01*
X152518814Y-145130917D01*
X152387976Y-144980950D01*
X152385406Y-144977907D01*
X152257604Y-144821554D01*
X152255417Y-144818799D01*
X152228164Y-144783457D01*
X152130664Y-144657020D01*
X152128881Y-144654648D01*
X152007096Y-144488295D01*
X152005564Y-144486153D01*
X151887201Y-144316847D01*
X151885318Y-144314075D01*
X151656547Y-143967248D01*
X151654718Y-143964392D01*
X151437971Y-143615389D01*
X151436838Y-143613527D01*
X151231158Y-143268974D01*
X151231152Y-143268965D01*
X151173727Y-143188632D01*
X151170557Y-143183977D01*
X151117432Y-143102034D01*
X151114834Y-143097848D01*
X151063892Y-143011981D01*
X151061782Y-143008280D01*
X151013212Y-142919605D01*
X151010833Y-142915039D01*
X150917455Y-142726365D01*
X150915376Y-142721946D01*
X150827435Y-142524870D01*
X150826154Y-142521894D01*
X150655724Y-142110990D01*
X150569440Y-141905652D01*
X150569437Y-141905645D01*
X150479235Y-141704606D01*
X150382704Y-141511015D01*
X150331293Y-141417950D01*
X150331283Y-141417933D01*
X150277383Y-141327889D01*
X150220643Y-141241173D01*
X150220642Y-141241172D01*
X150220637Y-141241164D01*
X150160774Y-141158193D01*
X150160768Y-141158185D01*
X150097483Y-141079345D01*
X150097476Y-141079337D01*
X150030434Y-141004973D01*
X149986532Y-140962058D01*
X149959351Y-140935488D01*
X149959321Y-140935461D01*
X149883893Y-140871231D01*
X149883894Y-140871231D01*
X149880977Y-140869096D01*
X149803757Y-140812587D01*
X149718651Y-140759946D01*
X149628258Y-140713675D01*
X149532268Y-140674149D01*
X149532265Y-140674148D01*
X149430375Y-140641744D01*
X149322263Y-140616835D01*
X146208608Y-141569016D01*
X146206536Y-141569630D01*
X145427345Y-141793138D01*
X145424410Y-141793941D01*
X144639728Y-141998321D01*
X144635732Y-141999292D01*
X143842247Y-142178098D01*
X143838595Y-142178863D01*
X143438958Y-142256364D01*
X143436183Y-142256870D01*
X143159441Y-142304032D01*
X143147596Y-142302642D01*
X143136091Y-142305768D01*
X143113537Y-142298645D01*
X143090047Y-142295889D01*
X143080836Y-142288318D01*
X143069465Y-142284727D01*
X143054341Y-142266539D01*
X143036071Y-142251522D01*
X143031293Y-142238823D01*
X143024792Y-142231005D01*
X143015538Y-142196945D01*
X142989713Y-141987176D01*
X142989418Y-141984551D01*
X142981407Y-141905652D01*
X142954995Y-141645534D01*
X142954877Y-141644297D01*
X142893919Y-140962058D01*
X142860767Y-140620968D01*
X142821351Y-140280690D01*
X142772293Y-139941659D01*
X142744960Y-139783540D01*
X142743090Y-139772722D01*
X142727360Y-139692134D01*
X142711093Y-139608791D01*
X142709677Y-139599784D01*
X142694223Y-139470464D01*
X142669142Y-139346499D01*
X142662377Y-139323539D01*
X142635409Y-139232010D01*
X142635405Y-139232001D01*
X142635403Y-139231992D01*
X142593436Y-139126520D01*
X142543669Y-139029662D01*
X142486531Y-138940994D01*
X142422451Y-138860095D01*
X142422448Y-138860092D01*
X142422446Y-138860089D01*
X142351872Y-138786557D01*
X142351865Y-138786550D01*
X142351857Y-138786542D01*
X142275179Y-138719912D01*
X142275178Y-138719911D01*
X142275172Y-138719906D01*
X142192840Y-138659780D01*
X142111641Y-138609659D01*
X142105284Y-138605735D01*
X142105280Y-138605733D01*
X142105261Y-138605722D01*
X142034382Y-138568585D01*
X142012925Y-138557343D01*
X142012921Y-138557341D01*
X142012913Y-138557337D01*
X141916206Y-138514189D01*
X141815525Y-138475838D01*
X141815518Y-138475836D01*
X141604097Y-138411900D01*
X141604084Y-138411896D01*
X139828360Y-138128626D01*
X139809078Y-138123942D01*
X139739891Y-138101135D01*
X139739879Y-138101131D01*
X139739877Y-138101131D01*
X139652554Y-138077503D01*
X139558160Y-138055657D01*
X139458390Y-138035097D01*
X139039409Y-137955779D01*
X139036647Y-137955224D01*
X138937418Y-137934093D01*
X138934235Y-137933371D01*
X138840373Y-137910785D01*
X138835798Y-137909591D01*
X138749670Y-137885358D01*
X138743303Y-137883380D01*
X138666981Y-137857404D01*
X138658225Y-137854050D01*
X138592384Y-137825927D01*
X138583821Y-137821876D01*
X138558299Y-137808586D01*
X138551405Y-137804712D01*
X138550641Y-137804250D01*
X138503461Y-137752716D01*
X138491632Y-137683855D01*
X138518910Y-137619530D01*
X138522277Y-137615593D01*
X138581811Y-137548862D01*
X138719554Y-137373139D01*
X138847877Y-137179990D01*
X138964286Y-136972744D01*
X139066288Y-136754734D01*
X139111107Y-136642734D01*
X139151390Y-136529291D01*
X139186825Y-136414824D01*
X139217100Y-136299747D01*
X139221960Y-136277165D01*
X139241899Y-136184502D01*
X139241899Y-136184496D01*
X139241904Y-136184478D01*
X139260924Y-136069433D01*
X139273850Y-135955027D01*
X139280370Y-135841679D01*
X139280171Y-135729804D01*
X139272943Y-135619818D01*
X139272942Y-135619808D01*
X139272942Y-135619806D01*
X139258375Y-135512144D01*
X139258374Y-135512141D01*
X139258374Y-135512138D01*
X139236153Y-135407181D01*
X139205966Y-135305363D01*
X139205963Y-135305357D01*
X139205958Y-135305340D01*
X139181375Y-135242537D01*
X139167504Y-135207099D01*
X139120454Y-135112808D01*
X139120452Y-135112804D01*
X139120452Y-135112803D01*
X139064511Y-135022913D01*
X139064508Y-135022910D01*
X139064505Y-135022904D01*
X138999345Y-134937805D01*
X138980674Y-134917835D01*
X138924665Y-134857930D01*
X138924662Y-134857927D01*
X138840150Y-134783690D01*
X138840147Y-134783688D01*
X138840145Y-134783686D01*
X138745482Y-134715500D01*
X138745479Y-134715498D01*
X138745476Y-134715496D01*
X138640368Y-134653786D01*
X138524473Y-134598953D01*
X138130364Y-134669278D01*
X137739522Y-134755383D01*
X137351491Y-134855228D01*
X136965792Y-134966784D01*
X136199751Y-135216833D01*
X135437807Y-135489229D01*
X134677284Y-135767336D01*
X134675743Y-135767888D01*
X133913593Y-136035237D01*
X133910922Y-136036140D01*
X133529216Y-136160363D01*
X133526603Y-136161181D01*
X133143136Y-136276680D01*
X133139881Y-136277612D01*
X132754599Y-136382273D01*
X132750689Y-136383268D01*
X132457705Y-136452705D01*
X132424945Y-136450970D01*
X132392149Y-136450411D01*
X132390232Y-136449132D01*
X132387933Y-136449011D01*
X132361314Y-136429843D01*
X132334024Y-136411639D01*
X132332407Y-136409027D01*
X132331234Y-136408182D01*
X132315452Y-136381626D01*
X132305241Y-136358218D01*
X132301802Y-136349436D01*
X132259144Y-136226999D01*
X132256226Y-136217388D01*
X132222055Y-136085744D01*
X132220415Y-136078540D01*
X132218632Y-136069470D01*
X132192723Y-135937638D01*
X132191840Y-135932597D01*
X132177841Y-135841691D01*
X132168963Y-135784038D01*
X132168535Y-135781010D01*
X132161951Y-135729804D01*
X132148625Y-135626150D01*
X132148508Y-135625207D01*
X132147859Y-135619806D01*
X132110083Y-135305515D01*
X132087641Y-135144900D01*
X132060329Y-134985857D01*
X132026093Y-134829812D01*
X131982879Y-134678193D01*
X131928634Y-134532428D01*
X131917892Y-134508777D01*
X131896739Y-134462201D01*
X131896735Y-134462194D01*
X131896732Y-134462187D01*
X131861303Y-134393944D01*
X131822088Y-134327879D01*
X131778832Y-134264169D01*
X131731277Y-134202994D01*
X131679167Y-134144531D01*
X131679165Y-134144530D01*
X131434828Y-134027267D01*
X131434813Y-134027260D01*
X131183829Y-133928282D01*
X131183823Y-133928280D01*
X131183820Y-133928279D01*
X131183815Y-133928277D01*
X131047578Y-133884391D01*
X131047577Y-133884391D01*
X130926944Y-133845531D01*
X130926913Y-133845522D01*
X130926905Y-133845520D01*
X130664839Y-133776937D01*
X130664841Y-133776937D01*
X130664828Y-133776934D01*
X130643674Y-133772452D01*
X149902515Y-133772452D01*
X149902515Y-133969541D01*
X149940962Y-134162825D01*
X149940964Y-134162833D01*
X150016382Y-134344907D01*
X150016387Y-134344917D01*
X150125875Y-134508777D01*
X150125878Y-134508781D01*
X150265230Y-134648133D01*
X150265234Y-134648136D01*
X150429094Y-134757624D01*
X150429098Y-134757626D01*
X150429101Y-134757628D01*
X150611179Y-134833048D01*
X150804470Y-134871496D01*
X150804473Y-134871497D01*
X150804475Y-134871497D01*
X151001557Y-134871497D01*
X151001558Y-134871496D01*
X151194851Y-134833048D01*
X151376929Y-134757628D01*
X151540796Y-134648136D01*
X152245840Y-133943092D01*
X152355332Y-133779225D01*
X152430752Y-133597147D01*
X152469201Y-133403851D01*
X152469201Y-133206771D01*
X152469201Y-133206768D01*
X152469200Y-133206766D01*
X152430752Y-133013475D01*
X152355332Y-132831397D01*
X152355330Y-132831394D01*
X152355328Y-132831390D01*
X152245840Y-132667530D01*
X152245837Y-132667526D01*
X152106485Y-132528174D01*
X152106481Y-132528171D01*
X151942621Y-132418683D01*
X151942611Y-132418678D01*
X151760537Y-132343260D01*
X151760529Y-132343258D01*
X151567244Y-132304811D01*
X151567241Y-132304811D01*
X151370161Y-132304811D01*
X151370158Y-132304811D01*
X151176872Y-132343258D01*
X151176864Y-132343260D01*
X150994790Y-132418678D01*
X150994780Y-132418683D01*
X150830920Y-132528171D01*
X150830916Y-132528174D01*
X150125878Y-133233212D01*
X150125875Y-133233216D01*
X150016387Y-133397076D01*
X150016382Y-133397086D01*
X149940964Y-133579160D01*
X149940962Y-133579168D01*
X149902515Y-133772452D01*
X130643674Y-133772452D01*
X130398374Y-133720478D01*
X130247822Y-133694622D01*
X130128247Y-133674087D01*
X130050912Y-133663217D01*
X129855241Y-133635716D01*
X129580041Y-133603302D01*
X128474117Y-133492366D01*
X128471531Y-133492079D01*
X128199604Y-133459025D01*
X128196661Y-133458631D01*
X127927798Y-133419395D01*
X127923873Y-133418758D01*
X127659069Y-133371398D01*
X127654157Y-133370417D01*
X127551697Y-133347787D01*
X127490481Y-133314107D01*
X127457191Y-133252678D01*
X127462397Y-133183003D01*
X127469344Y-133167765D01*
X127639758Y-132852335D01*
X127641212Y-132849719D01*
X127900272Y-132397093D01*
X127901660Y-132394731D01*
X128154112Y-131976400D01*
X148106465Y-131976400D01*
X148106465Y-132173489D01*
X148144912Y-132366773D01*
X148144914Y-132366781D01*
X148220332Y-132548855D01*
X148220337Y-132548865D01*
X148329825Y-132712725D01*
X148329828Y-132712729D01*
X148469180Y-132852081D01*
X148469184Y-132852084D01*
X148633044Y-132961572D01*
X148633048Y-132961574D01*
X148633051Y-132961576D01*
X148815129Y-133036996D01*
X148994731Y-133072721D01*
X149008420Y-133075444D01*
X149008423Y-133075445D01*
X149008425Y-133075445D01*
X149205507Y-133075445D01*
X149205508Y-133075444D01*
X149398801Y-133036996D01*
X149580879Y-132961576D01*
X149744746Y-132852084D01*
X150449790Y-132147040D01*
X150559282Y-131983173D01*
X150634702Y-131801095D01*
X150673151Y-131607799D01*
X150673151Y-131410719D01*
X150673151Y-131410716D01*
X150673150Y-131410714D01*
X150639381Y-131240946D01*
X150634702Y-131217423D01*
X150559282Y-131035345D01*
X150559280Y-131035342D01*
X150559278Y-131035338D01*
X150449790Y-130871478D01*
X150449787Y-130871474D01*
X150310435Y-130732122D01*
X150310431Y-130732119D01*
X150146571Y-130622631D01*
X150146561Y-130622626D01*
X149964487Y-130547208D01*
X149964479Y-130547206D01*
X149771194Y-130508759D01*
X149771191Y-130508759D01*
X149574111Y-130508759D01*
X149574108Y-130508759D01*
X149380822Y-130547206D01*
X149380814Y-130547208D01*
X149198740Y-130622626D01*
X149198730Y-130622631D01*
X149034870Y-130732119D01*
X149034866Y-130732122D01*
X148329828Y-131437160D01*
X148329825Y-131437164D01*
X148220337Y-131601024D01*
X148220332Y-131601034D01*
X148144914Y-131783108D01*
X148144912Y-131783116D01*
X148106465Y-131976400D01*
X128154112Y-131976400D01*
X128171272Y-131947965D01*
X128172618Y-131945787D01*
X128452106Y-131504652D01*
X128453375Y-131502694D01*
X128741898Y-131067219D01*
X128743114Y-131065420D01*
X129040008Y-130635353D01*
X129041151Y-130633729D01*
X129345658Y-130208965D01*
X129346712Y-130207520D01*
X129658583Y-129787261D01*
X129683230Y-129733231D01*
X129686773Y-129726082D01*
X129712042Y-129679010D01*
X129716137Y-129671955D01*
X129735422Y-129641115D01*
X129743428Y-129628311D01*
X129748098Y-129621376D01*
X129752953Y-129614666D01*
X129777263Y-129581066D01*
X129782459Y-129574379D01*
X129813366Y-129537307D01*
X129819108Y-129530889D01*
X129851580Y-129497033D01*
X129857811Y-129490977D01*
X129891743Y-129460245D01*
X129898439Y-129454599D01*
X129933680Y-129426960D01*
X129940813Y-129421766D01*
X129941397Y-129421372D01*
X129977243Y-129397172D01*
X129984719Y-129392505D01*
X130022244Y-129370904D01*
X130030042Y-129366778D01*
X130068537Y-129348149D01*
X130076614Y-129344592D01*
X130115939Y-129328923D01*
X130124201Y-129325968D01*
X130164292Y-129313228D01*
X130172739Y-129310873D01*
X130213380Y-129301083D01*
X130221995Y-129299330D01*
X130263092Y-129292475D01*
X130271793Y-129291337D01*
X130313290Y-129287408D01*
X130321984Y-129286894D01*
X130363725Y-129285901D01*
X130372412Y-129286000D01*
X130414241Y-129287951D01*
X130422880Y-129288657D01*
X130464737Y-129293568D01*
X130473262Y-129294871D01*
X130514952Y-129302746D01*
X130523367Y-129304642D01*
X130564790Y-129315501D01*
X130573009Y-129317963D01*
X130614068Y-129331838D01*
X130622047Y-129334845D01*
X130662578Y-129351747D01*
X130670310Y-129355289D01*
X130710195Y-129375250D01*
X130717651Y-129379308D01*
X130756710Y-129402332D01*
X130763842Y-129406870D01*
X130802014Y-129433031D01*
X130808772Y-129438007D01*
X130845887Y-129467322D01*
X130852242Y-129472698D01*
X130888176Y-129505224D01*
X130894094Y-129510949D01*
X130928713Y-129546742D01*
X130934172Y-129552769D01*
X130967334Y-129591891D01*
X130972315Y-129598168D01*
X131003852Y-129640658D01*
X131008344Y-129647131D01*
X131040197Y-129696288D01*
X131040200Y-129696293D01*
X131101681Y-129765909D01*
X131101695Y-129765923D01*
X131101696Y-129765925D01*
X131164978Y-129828558D01*
X131229951Y-129884461D01*
X131239842Y-129891807D01*
X131296512Y-129933898D01*
X131296521Y-129933904D01*
X131364592Y-129977159D01*
X131434073Y-130014496D01*
X131504868Y-130046187D01*
X131576884Y-130072504D01*
X131650027Y-130093718D01*
X131724203Y-130110100D01*
X131799318Y-130121921D01*
X131799335Y-130121922D01*
X131799337Y-130121923D01*
X131808956Y-130122876D01*
X131875279Y-130129452D01*
X131875295Y-130129452D01*
X131875298Y-130129453D01*
X131881062Y-130129716D01*
X131951991Y-130132966D01*
X132029360Y-130132733D01*
X132185696Y-130122112D01*
X132343535Y-130099759D01*
X132451521Y-130078028D01*
X132502112Y-130067849D01*
X132502115Y-130067848D01*
X132502126Y-130067846D01*
X132660718Y-130028542D01*
X132818560Y-129984019D01*
X133388713Y-129809009D01*
X133458576Y-129808156D01*
X133465627Y-129810362D01*
X133508272Y-129825120D01*
X133591387Y-129848195D01*
X133652001Y-129861190D01*
X133676353Y-129866412D01*
X133676355Y-129866412D01*
X133676363Y-129866414D01*
X133743159Y-129876780D01*
X133762805Y-129879829D01*
X133762806Y-129879829D01*
X133762812Y-129879830D01*
X133850347Y-129888498D01*
X133938582Y-129892473D01*
X133938583Y-129892472D01*
X133938584Y-129892473D01*
X133948420Y-129892399D01*
X134027130Y-129891808D01*
X134115603Y-129886558D01*
X134203615Y-129876777D01*
X134290779Y-129862520D01*
X134376707Y-129843840D01*
X134461014Y-129820793D01*
X134543311Y-129793432D01*
X134623213Y-129761812D01*
X134700331Y-129725987D01*
X134774280Y-129686012D01*
X134844671Y-129641940D01*
X134911119Y-129593826D01*
X134973236Y-129541725D01*
X135030636Y-129485690D01*
X135082930Y-129425776D01*
X135129733Y-129362038D01*
X135170658Y-129294529D01*
X135205317Y-129223304D01*
X135233324Y-129148417D01*
X135254291Y-129069923D01*
X135267833Y-128987876D01*
X135273560Y-128902330D01*
X135271088Y-128813340D01*
X135260028Y-128720959D01*
X135239995Y-128625243D01*
X135210600Y-128526244D01*
X135131648Y-128384298D01*
X144514362Y-128384298D01*
X144514362Y-128581387D01*
X144552809Y-128774671D01*
X144552811Y-128774679D01*
X144628229Y-128956753D01*
X144628234Y-128956763D01*
X144737722Y-129120623D01*
X144737725Y-129120627D01*
X144877077Y-129259979D01*
X144877081Y-129259982D01*
X145040941Y-129369470D01*
X145040945Y-129369472D01*
X145040948Y-129369474D01*
X145223026Y-129444894D01*
X145391990Y-129478503D01*
X145416317Y-129483342D01*
X145416320Y-129483343D01*
X145416322Y-129483343D01*
X145613404Y-129483343D01*
X145613405Y-129483342D01*
X145806698Y-129444894D01*
X145988776Y-129369474D01*
X146152643Y-129259982D01*
X146660436Y-128752189D01*
X146721759Y-128718704D01*
X146791450Y-128723688D01*
X146847384Y-128765559D01*
X146871801Y-128831024D01*
X146864385Y-128882973D01*
X146621939Y-129536957D01*
X146593354Y-129581534D01*
X146533774Y-129641115D01*
X146424286Y-129804974D01*
X146424281Y-129804984D01*
X146348863Y-129987058D01*
X146348861Y-129987066D01*
X146310414Y-130180350D01*
X146310414Y-130377439D01*
X146348861Y-130570723D01*
X146348863Y-130570731D01*
X146424281Y-130752805D01*
X146424286Y-130752815D01*
X146533774Y-130916675D01*
X146533777Y-130916679D01*
X146673129Y-131056031D01*
X146673133Y-131056034D01*
X146836993Y-131165522D01*
X146836997Y-131165524D01*
X146837000Y-131165526D01*
X147019078Y-131240946D01*
X147212369Y-131279394D01*
X147212372Y-131279395D01*
X147212374Y-131279395D01*
X147409456Y-131279395D01*
X147409457Y-131279394D01*
X147602750Y-131240946D01*
X147784828Y-131165526D01*
X147948695Y-131056034D01*
X148653739Y-130350990D01*
X148763231Y-130187123D01*
X148838651Y-130005045D01*
X148877100Y-129811749D01*
X148877100Y-129614669D01*
X148877100Y-129614666D01*
X148877099Y-129614664D01*
X148872247Y-129590271D01*
X148838651Y-129421373D01*
X148763231Y-129239295D01*
X148763229Y-129239292D01*
X148763227Y-129239288D01*
X148653740Y-129075429D01*
X148610505Y-129032194D01*
X148548325Y-128970014D01*
X148528994Y-128944976D01*
X148515932Y-128922661D01*
X148370070Y-128673462D01*
X148288011Y-128533269D01*
X148258494Y-128482840D01*
X154955371Y-128482840D01*
X154955371Y-128482845D01*
X154970931Y-128561073D01*
X154970931Y-128561074D01*
X154993656Y-128595083D01*
X155001729Y-128607166D01*
X155004061Y-128610655D01*
X155004064Y-128610659D01*
X156163352Y-129769947D01*
X156163355Y-129769949D01*
X156163358Y-129769952D01*
X156189263Y-129787261D01*
X156212938Y-129803080D01*
X156291167Y-129818641D01*
X156291169Y-129818641D01*
X156291171Y-129818641D01*
X156369398Y-129803081D01*
X156369399Y-129803080D01*
X156369401Y-129803080D01*
X156418980Y-129769952D01*
X158143964Y-128044968D01*
X158177092Y-127995389D01*
X158178212Y-127989761D01*
X158192653Y-127917159D01*
X158192653Y-127917154D01*
X158177092Y-127838926D01*
X158177092Y-127838925D01*
X158160470Y-127814050D01*
X158143964Y-127789346D01*
X158143962Y-127789344D01*
X158143959Y-127789340D01*
X156984671Y-126630052D01*
X156984667Y-126630049D01*
X156967137Y-126618336D01*
X156935086Y-126596920D01*
X156935085Y-126596919D01*
X156856857Y-126581359D01*
X156856853Y-126581359D01*
X156778625Y-126596918D01*
X156778621Y-126596920D01*
X156729048Y-126630044D01*
X156729040Y-126630050D01*
X155004062Y-128355028D01*
X155004056Y-128355036D01*
X154970932Y-128404609D01*
X154970930Y-128404613D01*
X154955371Y-128482840D01*
X148258494Y-128482840D01*
X148061241Y-128145845D01*
X148044257Y-128083206D01*
X148044257Y-126588246D01*
X153494618Y-126588246D01*
X153494618Y-126785335D01*
X153533065Y-126978619D01*
X153533067Y-126978627D01*
X153608485Y-127160701D01*
X153608490Y-127160711D01*
X153717978Y-127324571D01*
X153717981Y-127324575D01*
X153857333Y-127463927D01*
X153857337Y-127463930D01*
X154021197Y-127573418D01*
X154021201Y-127573420D01*
X154021204Y-127573422D01*
X154203282Y-127648842D01*
X154358124Y-127679642D01*
X154396573Y-127687290D01*
X154396576Y-127687291D01*
X154396578Y-127687291D01*
X154593660Y-127687291D01*
X154593661Y-127687290D01*
X154786954Y-127648842D01*
X154969032Y-127573422D01*
X155132899Y-127463930D01*
X155837943Y-126758886D01*
X155947435Y-126595019D01*
X156022855Y-126412941D01*
X156061304Y-126219645D01*
X156061304Y-126022565D01*
X156061304Y-126022562D01*
X156061303Y-126022560D01*
X156035830Y-125894498D01*
X156022855Y-125829269D01*
X155947435Y-125647191D01*
X155947433Y-125647188D01*
X155947431Y-125647184D01*
X155837943Y-125483324D01*
X155837940Y-125483320D01*
X155698588Y-125343968D01*
X155698584Y-125343965D01*
X155534724Y-125234477D01*
X155534714Y-125234472D01*
X155374073Y-125167932D01*
X155352640Y-125159054D01*
X155352632Y-125159052D01*
X155159347Y-125120605D01*
X155159344Y-125120605D01*
X154962264Y-125120605D01*
X154962261Y-125120605D01*
X154768975Y-125159052D01*
X154768967Y-125159054D01*
X154586893Y-125234472D01*
X154586883Y-125234477D01*
X154423023Y-125343965D01*
X154423019Y-125343968D01*
X153717981Y-126049006D01*
X153717978Y-126049010D01*
X153608490Y-126212870D01*
X153608485Y-126212880D01*
X153533067Y-126394954D01*
X153533065Y-126394962D01*
X153494618Y-126588246D01*
X148044257Y-126588246D01*
X148044257Y-122992370D01*
X149603015Y-122992370D01*
X149603015Y-123197007D01*
X149635024Y-123399102D01*
X149698259Y-123593717D01*
X149791156Y-123776039D01*
X149791162Y-123776048D01*
X149823538Y-123820610D01*
X149823539Y-123820611D01*
X150785858Y-122858291D01*
X150785858Y-122864507D01*
X150813117Y-122966240D01*
X150865778Y-123057452D01*
X150940252Y-123131926D01*
X151031464Y-123184587D01*
X151133197Y-123211846D01*
X151139411Y-123211846D01*
X150177091Y-124174163D01*
X150221661Y-124206546D01*
X150221664Y-124206547D01*
X150403986Y-124299444D01*
X150598601Y-124362679D01*
X150800697Y-124394689D01*
X151005333Y-124394689D01*
X151207428Y-124362679D01*
X151402043Y-124299444D01*
X151584365Y-124206547D01*
X151584376Y-124206540D01*
X151738919Y-124094257D01*
X151804725Y-124070776D01*
X151872779Y-124086601D01*
X151921474Y-124136706D01*
X151935350Y-124205184D01*
X151914907Y-124263464D01*
X151812441Y-124416815D01*
X151812433Y-124416830D01*
X151737015Y-124598904D01*
X151737013Y-124598912D01*
X151698566Y-124792196D01*
X151698566Y-124989285D01*
X151737013Y-125182569D01*
X151737015Y-125182577D01*
X151812433Y-125364651D01*
X151812438Y-125364661D01*
X151921926Y-125528521D01*
X151921929Y-125528525D01*
X152061281Y-125667877D01*
X152061285Y-125667880D01*
X152225145Y-125777368D01*
X152225149Y-125777370D01*
X152225152Y-125777372D01*
X152407230Y-125852792D01*
X152600521Y-125891240D01*
X152600524Y-125891241D01*
X152600526Y-125891241D01*
X152797608Y-125891241D01*
X152797609Y-125891240D01*
X152990902Y-125852792D01*
X153172980Y-125777372D01*
X153336847Y-125667880D01*
X153946484Y-125058243D01*
X160083705Y-125058243D01*
X160083705Y-125310167D01*
X160092335Y-125364655D01*
X160123115Y-125558990D01*
X160200965Y-125798588D01*
X160254905Y-125904449D01*
X160315086Y-126022562D01*
X160315337Y-126023053D01*
X160463406Y-126226854D01*
X160463410Y-126226859D01*
X160641550Y-126404999D01*
X160641555Y-126405003D01*
X160808571Y-126526346D01*
X160845360Y-126553075D01*
X160973442Y-126618336D01*
X161069821Y-126667444D01*
X161069823Y-126667444D01*
X161069826Y-126667446D01*
X161309420Y-126745295D01*
X161558243Y-126784705D01*
X161558244Y-126784705D01*
X161810166Y-126784705D01*
X161810167Y-126784705D01*
X162058990Y-126745295D01*
X162298584Y-126667446D01*
X162523050Y-126553075D01*
X162726861Y-126404998D01*
X162904998Y-126226861D01*
X163053075Y-126023050D01*
X163167446Y-125798584D01*
X163245295Y-125558990D01*
X163284705Y-125310167D01*
X163284705Y-125058243D01*
X163245295Y-124809420D01*
X163216590Y-124721076D01*
X167000906Y-124721076D01*
X167000906Y-124943375D01*
X167029299Y-125159052D01*
X167029921Y-125163770D01*
X167078204Y-125343966D01*
X167087458Y-125378500D01*
X167172520Y-125583859D01*
X167172528Y-125583876D01*
X167283669Y-125776376D01*
X167283680Y-125776392D01*
X167418998Y-125952742D01*
X167419004Y-125952749D01*
X167576182Y-126109927D01*
X167576189Y-126109933D01*
X167701776Y-126206299D01*
X167752548Y-126245258D01*
X167752555Y-126245262D01*
X167945055Y-126356403D01*
X167945060Y-126356405D01*
X167945063Y-126356407D01*
X167945067Y-126356408D01*
X167945072Y-126356411D01*
X168150431Y-126441473D01*
X168150433Y-126441473D01*
X168150439Y-126441476D01*
X168365162Y-126499011D01*
X168506036Y-126517557D01*
X168585556Y-126528026D01*
X168585557Y-126528026D01*
X168807856Y-126528026D01*
X168887376Y-126517557D01*
X169028250Y-126499011D01*
X169066171Y-126488850D01*
X172304200Y-126488850D01*
X172304200Y-126711149D01*
X172332207Y-126923894D01*
X172333215Y-126931544D01*
X172377945Y-127098480D01*
X172390752Y-127146274D01*
X172475814Y-127351633D01*
X172475822Y-127351650D01*
X172586963Y-127544150D01*
X172586974Y-127544166D01*
X172722292Y-127720516D01*
X172722298Y-127720523D01*
X172879476Y-127877701D01*
X172879483Y-127877707D01*
X172942309Y-127925915D01*
X173055842Y-128013032D01*
X173055849Y-128013036D01*
X173248349Y-128124177D01*
X173248354Y-128124179D01*
X173248357Y-128124181D01*
X173248361Y-128124182D01*
X173248366Y-128124185D01*
X173453725Y-128209247D01*
X173453727Y-128209247D01*
X173453733Y-128209250D01*
X173668456Y-128266785D01*
X173824544Y-128287334D01*
X173888850Y-128295800D01*
X173888851Y-128295800D01*
X174111150Y-128295800D01*
X174160644Y-128289284D01*
X174331544Y-128266785D01*
X174546267Y-128209250D01*
X174751643Y-128124181D01*
X174944158Y-128013032D01*
X175120518Y-127877706D01*
X175277706Y-127720518D01*
X175413032Y-127544158D01*
X175524181Y-127351643D01*
X175609250Y-127146267D01*
X175666785Y-126931544D01*
X175695800Y-126711149D01*
X175695800Y-126488851D01*
X175666785Y-126268456D01*
X175609250Y-126053733D01*
X175567421Y-125952749D01*
X175524185Y-125848366D01*
X175524177Y-125848349D01*
X175413036Y-125655849D01*
X175413032Y-125655842D01*
X175277706Y-125479482D01*
X175277701Y-125479476D01*
X175120523Y-125322298D01*
X175120516Y-125322292D01*
X174944166Y-125186974D01*
X174944164Y-125186972D01*
X174944158Y-125186968D01*
X174944153Y-125186965D01*
X174944150Y-125186963D01*
X174751650Y-125075822D01*
X174751633Y-125075814D01*
X174546274Y-124990752D01*
X174540799Y-124989285D01*
X174331544Y-124933215D01*
X174331543Y-124933214D01*
X174331540Y-124933214D01*
X174111150Y-124904200D01*
X174111149Y-124904200D01*
X173888851Y-124904200D01*
X173888850Y-124904200D01*
X173668459Y-124933214D01*
X173453725Y-124990752D01*
X173248366Y-125075814D01*
X173248349Y-125075822D01*
X173055849Y-125186963D01*
X173055833Y-125186974D01*
X172879483Y-125322292D01*
X172879476Y-125322298D01*
X172722298Y-125479476D01*
X172722292Y-125479483D01*
X172586974Y-125655833D01*
X172586963Y-125655849D01*
X172475822Y-125848349D01*
X172475814Y-125848366D01*
X172390752Y-126053725D01*
X172333214Y-126268459D01*
X172304200Y-126488850D01*
X169066171Y-126488850D01*
X169242973Y-126441476D01*
X169436006Y-126361519D01*
X169448340Y-126356411D01*
X169448343Y-126356409D01*
X169448349Y-126356407D01*
X169640864Y-126245258D01*
X169817224Y-126109932D01*
X169974412Y-125952744D01*
X170109738Y-125776384D01*
X170220887Y-125583869D01*
X170305956Y-125378493D01*
X170363491Y-125163770D01*
X170392506Y-124943375D01*
X170392506Y-124721077D01*
X170363491Y-124500682D01*
X170305956Y-124285959D01*
X170296638Y-124263464D01*
X170220891Y-124080592D01*
X170220883Y-124080575D01*
X170109742Y-123888075D01*
X170109738Y-123888068D01*
X169995392Y-123739049D01*
X169974413Y-123711709D01*
X169974407Y-123711702D01*
X169817229Y-123554524D01*
X169817222Y-123554518D01*
X169640872Y-123419200D01*
X169640870Y-123419198D01*
X169640864Y-123419194D01*
X169640859Y-123419191D01*
X169640856Y-123419189D01*
X169448356Y-123308048D01*
X169448339Y-123308040D01*
X169242980Y-123222978D01*
X169234157Y-123220614D01*
X169028250Y-123165441D01*
X169028249Y-123165440D01*
X169028246Y-123165440D01*
X168807856Y-123136426D01*
X168807855Y-123136426D01*
X168585557Y-123136426D01*
X168585556Y-123136426D01*
X168365165Y-123165440D01*
X168150431Y-123222978D01*
X167945072Y-123308040D01*
X167945055Y-123308048D01*
X167752555Y-123419189D01*
X167752539Y-123419200D01*
X167576189Y-123554518D01*
X167576182Y-123554524D01*
X167419004Y-123711702D01*
X167418998Y-123711709D01*
X167283680Y-123888059D01*
X167283669Y-123888075D01*
X167172528Y-124080575D01*
X167172520Y-124080592D01*
X167087458Y-124285951D01*
X167029920Y-124500685D01*
X167000906Y-124721076D01*
X163216590Y-124721076D01*
X163167446Y-124569826D01*
X163053075Y-124345360D01*
X162985943Y-124252960D01*
X162905003Y-124141555D01*
X162904999Y-124141550D01*
X162726859Y-123963410D01*
X162726854Y-123963406D01*
X162523053Y-123815337D01*
X162523052Y-123815336D01*
X162523050Y-123815335D01*
X162445927Y-123776039D01*
X162298588Y-123700965D01*
X162058990Y-123623115D01*
X161810167Y-123583705D01*
X161558243Y-123583705D01*
X161433831Y-123603410D01*
X161309419Y-123623115D01*
X161069821Y-123700965D01*
X160845356Y-123815337D01*
X160641555Y-123963406D01*
X160641550Y-123963410D01*
X160463410Y-124141550D01*
X160463406Y-124141555D01*
X160315337Y-124345356D01*
X160200965Y-124569821D01*
X160123115Y-124809419D01*
X160123115Y-124809420D01*
X160083705Y-125058243D01*
X153946484Y-125058243D01*
X154041891Y-124962836D01*
X154151383Y-124798969D01*
X154226803Y-124616891D01*
X154265252Y-124423595D01*
X154265252Y-124226515D01*
X154265252Y-124226512D01*
X154265251Y-124226510D01*
X154261009Y-124205184D01*
X154226803Y-124033219D01*
X154151383Y-123851141D01*
X154151381Y-123851138D01*
X154151379Y-123851134D01*
X154041891Y-123687274D01*
X154041888Y-123687270D01*
X153902536Y-123547918D01*
X153902532Y-123547915D01*
X153738672Y-123438427D01*
X153738662Y-123438422D01*
X153556588Y-123363004D01*
X153556580Y-123363002D01*
X153363295Y-123324555D01*
X153363292Y-123324555D01*
X153166212Y-123324555D01*
X153166209Y-123324555D01*
X152972923Y-123363002D01*
X152972915Y-123363004D01*
X152790841Y-123438422D01*
X152790833Y-123438426D01*
X152637475Y-123540896D01*
X152570797Y-123561773D01*
X152503417Y-123543288D01*
X152456728Y-123491309D01*
X152445552Y-123422339D01*
X152468268Y-123364906D01*
X152580556Y-123210357D01*
X152580559Y-123210353D01*
X152673456Y-123028031D01*
X152736691Y-122833416D01*
X152768701Y-122631321D01*
X152768701Y-122426684D01*
X152736691Y-122224591D01*
X152691480Y-122085445D01*
X152691479Y-122085443D01*
X152680612Y-122051998D01*
X163177460Y-122051998D01*
X163177460Y-122303922D01*
X163199278Y-122441677D01*
X163216870Y-122552745D01*
X163294720Y-122792343D01*
X163352606Y-122905949D01*
X163398989Y-122996981D01*
X163409092Y-123016808D01*
X163557161Y-123220609D01*
X163557165Y-123220614D01*
X163735305Y-123398754D01*
X163735310Y-123398758D01*
X163913077Y-123527912D01*
X163939115Y-123546830D01*
X164082144Y-123619707D01*
X164163576Y-123661199D01*
X164163578Y-123661199D01*
X164163581Y-123661201D01*
X164403175Y-123739050D01*
X164651998Y-123778460D01*
X164651999Y-123778460D01*
X164903921Y-123778460D01*
X164903922Y-123778460D01*
X165152745Y-123739050D01*
X165392339Y-123661201D01*
X165616805Y-123546830D01*
X165820616Y-123398753D01*
X165998753Y-123220616D01*
X166146830Y-123016805D01*
X166261201Y-122792339D01*
X166339050Y-122552745D01*
X166378460Y-122303922D01*
X166378460Y-122051998D01*
X166339050Y-121803175D01*
X166261201Y-121563581D01*
X166261199Y-121563578D01*
X166261199Y-121563576D01*
X166153734Y-121352665D01*
X166146830Y-121339115D01*
X166061474Y-121221632D01*
X166035259Y-121185549D01*
X170536433Y-121185549D01*
X170536433Y-121407848D01*
X170562810Y-121608211D01*
X170565448Y-121628243D01*
X170620705Y-121834466D01*
X170622985Y-121842973D01*
X170708047Y-122048332D01*
X170708055Y-122048349D01*
X170819196Y-122240849D01*
X170819207Y-122240865D01*
X170954525Y-122417215D01*
X170954531Y-122417222D01*
X171111709Y-122574400D01*
X171111715Y-122574405D01*
X171288075Y-122709731D01*
X171288082Y-122709735D01*
X171480582Y-122820876D01*
X171480587Y-122820878D01*
X171480590Y-122820880D01*
X171480594Y-122820881D01*
X171480599Y-122820884D01*
X171685958Y-122905946D01*
X171685960Y-122905946D01*
X171685966Y-122905949D01*
X171900689Y-122963484D01*
X172065985Y-122985245D01*
X172121083Y-122992499D01*
X172121084Y-122992499D01*
X172343383Y-122992499D01*
X172387461Y-122986696D01*
X172563777Y-122963484D01*
X172778500Y-122905949D01*
X172983876Y-122820880D01*
X173176391Y-122709731D01*
X173352751Y-122574405D01*
X173509939Y-122417217D01*
X173645265Y-122240857D01*
X173756414Y-122048342D01*
X173841483Y-121842966D01*
X173899018Y-121628243D01*
X173928033Y-121407848D01*
X173928033Y-121185550D01*
X173899018Y-120965155D01*
X173841483Y-120750432D01*
X173820452Y-120699659D01*
X173756418Y-120545065D01*
X173756410Y-120545048D01*
X173645269Y-120352548D01*
X173645265Y-120352541D01*
X173568336Y-120252285D01*
X173509940Y-120176182D01*
X173509934Y-120176175D01*
X173352756Y-120018997D01*
X173352749Y-120018991D01*
X173176399Y-119883673D01*
X173176397Y-119883671D01*
X173176391Y-119883667D01*
X173176386Y-119883664D01*
X173176383Y-119883662D01*
X172983883Y-119772521D01*
X172983866Y-119772513D01*
X172778507Y-119687451D01*
X172678141Y-119660558D01*
X172563777Y-119629914D01*
X172563776Y-119629913D01*
X172563773Y-119629913D01*
X172343383Y-119600899D01*
X172343382Y-119600899D01*
X172121084Y-119600899D01*
X172121083Y-119600899D01*
X171900692Y-119629913D01*
X171685958Y-119687451D01*
X171480599Y-119772513D01*
X171480582Y-119772521D01*
X171288082Y-119883662D01*
X171288066Y-119883673D01*
X171111716Y-120018991D01*
X171111709Y-120018997D01*
X170954531Y-120176175D01*
X170954525Y-120176182D01*
X170819207Y-120352532D01*
X170819196Y-120352548D01*
X170708055Y-120545048D01*
X170708047Y-120545065D01*
X170622985Y-120750424D01*
X170565447Y-120965158D01*
X170536433Y-121185549D01*
X166035259Y-121185549D01*
X165998758Y-121135309D01*
X165820614Y-120957165D01*
X165820609Y-120957161D01*
X165616808Y-120809092D01*
X165616807Y-120809091D01*
X165616805Y-120809090D01*
X165531551Y-120765651D01*
X165392343Y-120694720D01*
X165152745Y-120616870D01*
X165089134Y-120606795D01*
X164903922Y-120577460D01*
X164651998Y-120577460D01*
X164527586Y-120597165D01*
X164403174Y-120616870D01*
X164163576Y-120694720D01*
X163939111Y-120809092D01*
X163735310Y-120957161D01*
X163735305Y-120957165D01*
X163557165Y-121135305D01*
X163557161Y-121135310D01*
X163409092Y-121339111D01*
X163294720Y-121563576D01*
X163216870Y-121803174D01*
X163195810Y-121936143D01*
X163177460Y-122051998D01*
X152680612Y-122051998D01*
X152673456Y-122029973D01*
X152580560Y-121847653D01*
X152548175Y-121803080D01*
X152548175Y-121803079D01*
X151585858Y-122765399D01*
X151585858Y-122759185D01*
X151558599Y-122657452D01*
X151505938Y-122566240D01*
X151431464Y-122491766D01*
X151340252Y-122439105D01*
X151238519Y-122411846D01*
X151232303Y-122411846D01*
X152194623Y-121449527D01*
X152194622Y-121449526D01*
X152150060Y-121417150D01*
X152150051Y-121417144D01*
X151967730Y-121324247D01*
X151773114Y-121261012D01*
X151571019Y-121229003D01*
X151366383Y-121229003D01*
X151164287Y-121261012D01*
X150969672Y-121324247D01*
X150787350Y-121417144D01*
X150787348Y-121417145D01*
X150621809Y-121537418D01*
X150443396Y-121715830D01*
X151139410Y-122411846D01*
X151133197Y-122411846D01*
X151031464Y-122439105D01*
X150940252Y-122491766D01*
X150865778Y-122566240D01*
X150813117Y-122657452D01*
X150785858Y-122759185D01*
X150785858Y-122765398D01*
X150089842Y-122069384D01*
X149911430Y-122247797D01*
X149791157Y-122413336D01*
X149791156Y-122413338D01*
X149698259Y-122595660D01*
X149635024Y-122790275D01*
X149603015Y-122992370D01*
X148044257Y-122992370D01*
X148044257Y-117750000D01*
X152616518Y-117750000D01*
X154184314Y-117750000D01*
X154179920Y-117754394D01*
X154127259Y-117845606D01*
X154100000Y-117947339D01*
X154100000Y-118052661D01*
X154127259Y-118154394D01*
X154179920Y-118245606D01*
X154184314Y-118250000D01*
X152616518Y-118250000D01*
X152632508Y-118371463D01*
X152696973Y-118612049D01*
X152792283Y-118842148D01*
X152792288Y-118842159D01*
X152916813Y-119057841D01*
X152916824Y-119057857D01*
X153068437Y-119255443D01*
X153068443Y-119255450D01*
X153244549Y-119431556D01*
X153244556Y-119431562D01*
X153442142Y-119583175D01*
X153442158Y-119583186D01*
X153657840Y-119707711D01*
X153657851Y-119707716D01*
X153887950Y-119803026D01*
X154128536Y-119867491D01*
X154250000Y-119883481D01*
X154250000Y-118315686D01*
X154254394Y-118320080D01*
X154345606Y-118372741D01*
X154447339Y-118400000D01*
X154552661Y-118400000D01*
X154654394Y-118372741D01*
X154745606Y-118320080D01*
X154750000Y-118315686D01*
X154750000Y-119883480D01*
X154871463Y-119867491D01*
X155112049Y-119803026D01*
X155342148Y-119707716D01*
X155342159Y-119707711D01*
X155557841Y-119583186D01*
X155557857Y-119583175D01*
X155755443Y-119431562D01*
X155755450Y-119431556D01*
X155931556Y-119255450D01*
X155931562Y-119255443D01*
X156083175Y-119057857D01*
X156083186Y-119057841D01*
X156207711Y-118842159D01*
X156207716Y-118842148D01*
X156274763Y-118680283D01*
X166305745Y-118680283D01*
X166305745Y-118932207D01*
X166325644Y-119057841D01*
X166345155Y-119181030D01*
X166423005Y-119420628D01*
X166477448Y-119527477D01*
X166534126Y-119638714D01*
X166537377Y-119645093D01*
X166685446Y-119848894D01*
X166685450Y-119848899D01*
X166863590Y-120027039D01*
X166863595Y-120027043D01*
X166956941Y-120094862D01*
X167067400Y-120175115D01*
X167201894Y-120243643D01*
X167291861Y-120289484D01*
X167291863Y-120289484D01*
X167291866Y-120289486D01*
X167531460Y-120367335D01*
X167780283Y-120406745D01*
X167780284Y-120406745D01*
X168032206Y-120406745D01*
X168032207Y-120406745D01*
X168281030Y-120367335D01*
X168520624Y-120289486D01*
X168745090Y-120175115D01*
X168948901Y-120027038D01*
X169127038Y-119848901D01*
X169275115Y-119645090D01*
X169389486Y-119420624D01*
X169467335Y-119181030D01*
X169506745Y-118932207D01*
X169506745Y-118680283D01*
X169467335Y-118431460D01*
X169389486Y-118191866D01*
X169389484Y-118191863D01*
X169389484Y-118191861D01*
X169347992Y-118110429D01*
X169275115Y-117967400D01*
X169231025Y-117906715D01*
X169127043Y-117763595D01*
X169127039Y-117763590D01*
X168948899Y-117585450D01*
X168948894Y-117585446D01*
X168745093Y-117437377D01*
X168745092Y-117437376D01*
X168745090Y-117437375D01*
X168648088Y-117387950D01*
X168520628Y-117323005D01*
X168281030Y-117245155D01*
X168259816Y-117241795D01*
X168032207Y-117205745D01*
X167780283Y-117205745D01*
X167655871Y-117225450D01*
X167531459Y-117245155D01*
X167291861Y-117323005D01*
X167067396Y-117437377D01*
X166863595Y-117585446D01*
X166863590Y-117585450D01*
X166685450Y-117763590D01*
X166685446Y-117763595D01*
X166537377Y-117967396D01*
X166423005Y-118191861D01*
X166345155Y-118431459D01*
X166307334Y-118670253D01*
X166305745Y-118680283D01*
X156274763Y-118680283D01*
X156296437Y-118627958D01*
X156296437Y-118627956D01*
X156303025Y-118612052D01*
X156367491Y-118371463D01*
X156383482Y-118250000D01*
X154815686Y-118250000D01*
X154820080Y-118245606D01*
X154872741Y-118154394D01*
X154900000Y-118052661D01*
X154900000Y-117947339D01*
X154872741Y-117845606D01*
X154820080Y-117754394D01*
X154815686Y-117750000D01*
X156383481Y-117750000D01*
X156367491Y-117628536D01*
X156303026Y-117387950D01*
X156207716Y-117157851D01*
X156207711Y-117157840D01*
X156083186Y-116942158D01*
X156083175Y-116942142D01*
X155931562Y-116744556D01*
X155931556Y-116744549D01*
X155755450Y-116568443D01*
X155755443Y-116568437D01*
X155557857Y-116416824D01*
X155557841Y-116416813D01*
X155342159Y-116292288D01*
X155342148Y-116292283D01*
X155112049Y-116196973D01*
X154871463Y-116132508D01*
X154750000Y-116116516D01*
X154750000Y-117684314D01*
X154745606Y-117679920D01*
X154654394Y-117627259D01*
X154552661Y-117600000D01*
X154447339Y-117600000D01*
X154345606Y-117627259D01*
X154254394Y-117679920D01*
X154250000Y-117684314D01*
X154250000Y-116116516D01*
X154249999Y-116116516D01*
X154128536Y-116132508D01*
X153887950Y-116196973D01*
X153657851Y-116292283D01*
X153657840Y-116292288D01*
X153442158Y-116416813D01*
X153442142Y-116416824D01*
X153244556Y-116568437D01*
X153244549Y-116568443D01*
X153068443Y-116744549D01*
X153068437Y-116744556D01*
X152916824Y-116942142D01*
X152916813Y-116942158D01*
X152792288Y-117157840D01*
X152792283Y-117157851D01*
X152696973Y-117387950D01*
X152632508Y-117628536D01*
X152616518Y-117750000D01*
X148044257Y-117750000D01*
X148044257Y-114730283D01*
X149755745Y-114730283D01*
X149755745Y-114982207D01*
X149777525Y-115119717D01*
X149795155Y-115231030D01*
X149873005Y-115470628D01*
X149987377Y-115695093D01*
X150135446Y-115898894D01*
X150135450Y-115898899D01*
X150313590Y-116077039D01*
X150313595Y-116077043D01*
X150389937Y-116132508D01*
X150517400Y-116225115D01*
X150649225Y-116292283D01*
X150741861Y-116339484D01*
X150741863Y-116339484D01*
X150741866Y-116339486D01*
X150981460Y-116417335D01*
X151230283Y-116456745D01*
X151230284Y-116456745D01*
X151482206Y-116456745D01*
X151482207Y-116456745D01*
X151731030Y-116417335D01*
X151970624Y-116339486D01*
X152195090Y-116225115D01*
X152398901Y-116077038D01*
X152577038Y-115898901D01*
X152725115Y-115695090D01*
X152839486Y-115470624D01*
X152917335Y-115231030D01*
X152956745Y-114982207D01*
X152956745Y-114867793D01*
X155993255Y-114867793D01*
X155993255Y-115119716D01*
X156032665Y-115368540D01*
X156110515Y-115608138D01*
X156224887Y-115832603D01*
X156372956Y-116036404D01*
X156372960Y-116036409D01*
X156551100Y-116214549D01*
X156551105Y-116214553D01*
X156658092Y-116292283D01*
X156754910Y-116362625D01*
X156897939Y-116435502D01*
X156979371Y-116476994D01*
X156979373Y-116476994D01*
X156979376Y-116476996D01*
X157218970Y-116554845D01*
X157467793Y-116594255D01*
X157467794Y-116594255D01*
X157719716Y-116594255D01*
X157719717Y-116594255D01*
X157968540Y-116554845D01*
X158208134Y-116476996D01*
X158432600Y-116362625D01*
X158636411Y-116214548D01*
X158814548Y-116036411D01*
X158962625Y-115832600D01*
X159076996Y-115608134D01*
X159154845Y-115368540D01*
X159194255Y-115119717D01*
X159194255Y-114867793D01*
X159154845Y-114618970D01*
X159076996Y-114379376D01*
X159076994Y-114379373D01*
X159076994Y-114379371D01*
X159006931Y-114241866D01*
X158962625Y-114154910D01*
X158933506Y-114114831D01*
X158814553Y-113951105D01*
X158814549Y-113951100D01*
X158636409Y-113772960D01*
X158636404Y-113772956D01*
X158432603Y-113624887D01*
X158432602Y-113624886D01*
X158432600Y-113624885D01*
X158362502Y-113589168D01*
X158208138Y-113510515D01*
X157968540Y-113432665D01*
X157920562Y-113425066D01*
X157719717Y-113393255D01*
X157467793Y-113393255D01*
X157382621Y-113406745D01*
X157218969Y-113432665D01*
X156979371Y-113510515D01*
X156754906Y-113624887D01*
X156551105Y-113772956D01*
X156551100Y-113772960D01*
X156372960Y-113951100D01*
X156372956Y-113951105D01*
X156224887Y-114154906D01*
X156110515Y-114379371D01*
X156032665Y-114618969D01*
X155993255Y-114867793D01*
X152956745Y-114867793D01*
X152956745Y-114730283D01*
X152917335Y-114481460D01*
X152839486Y-114241866D01*
X152839484Y-114241863D01*
X152839484Y-114241861D01*
X152777222Y-114119666D01*
X152725115Y-114017400D01*
X152676945Y-113951099D01*
X152577043Y-113813595D01*
X152577039Y-113813590D01*
X152398899Y-113635450D01*
X152398894Y-113635446D01*
X152195093Y-113487377D01*
X152195092Y-113487376D01*
X152195090Y-113487375D01*
X152124992Y-113451658D01*
X151970628Y-113373005D01*
X151731030Y-113295155D01*
X151482207Y-113255745D01*
X151230283Y-113255745D01*
X151173485Y-113264741D01*
X150981459Y-113295155D01*
X150741861Y-113373005D01*
X150517396Y-113487377D01*
X150313595Y-113635446D01*
X150313590Y-113635450D01*
X150135450Y-113813590D01*
X150135446Y-113813595D01*
X149987377Y-114017396D01*
X149873005Y-114241861D01*
X149795155Y-114481459D01*
X149773375Y-114618970D01*
X149755745Y-114730283D01*
X148044257Y-114730283D01*
X148044257Y-111680283D01*
X152805745Y-111680283D01*
X152805745Y-111932207D01*
X152836902Y-112128925D01*
X152845155Y-112181030D01*
X152923005Y-112420628D01*
X152987103Y-112546426D01*
X153024926Y-112620658D01*
X153037377Y-112645093D01*
X153185446Y-112848894D01*
X153185450Y-112848899D01*
X153363590Y-113027039D01*
X153363595Y-113027043D01*
X153483505Y-113114162D01*
X153567400Y-113175115D01*
X153686358Y-113235727D01*
X153791861Y-113289484D01*
X153791863Y-113289484D01*
X153791866Y-113289486D01*
X154031460Y-113367335D01*
X154280283Y-113406745D01*
X154280284Y-113406745D01*
X154532206Y-113406745D01*
X154532207Y-113406745D01*
X154781030Y-113367335D01*
X155020624Y-113289486D01*
X155245090Y-113175115D01*
X155448901Y-113027038D01*
X155627038Y-112848901D01*
X155775115Y-112645090D01*
X155889486Y-112420624D01*
X155967335Y-112181030D01*
X156006745Y-111932207D01*
X156006745Y-111680283D01*
X155967335Y-111431460D01*
X155948028Y-111372040D01*
X158838558Y-111372040D01*
X160406354Y-111372040D01*
X160401960Y-111376434D01*
X160349299Y-111467646D01*
X160322040Y-111569379D01*
X160322040Y-111674701D01*
X160349299Y-111776434D01*
X160401960Y-111867646D01*
X160406354Y-111872040D01*
X158838558Y-111872040D01*
X158854548Y-111993503D01*
X158919013Y-112234089D01*
X159014323Y-112464188D01*
X159014328Y-112464199D01*
X159138853Y-112679881D01*
X159138864Y-112679897D01*
X159290477Y-112877483D01*
X159290483Y-112877490D01*
X159466589Y-113053596D01*
X159466596Y-113053602D01*
X159664182Y-113205215D01*
X159664198Y-113205226D01*
X159879880Y-113329751D01*
X159879891Y-113329756D01*
X160109990Y-113425066D01*
X160350576Y-113489531D01*
X160472040Y-113505521D01*
X160472040Y-111937726D01*
X160476434Y-111942120D01*
X160567646Y-111994781D01*
X160669379Y-112022040D01*
X160774701Y-112022040D01*
X160876434Y-111994781D01*
X160967646Y-111942120D01*
X160972040Y-111937726D01*
X160972040Y-113505520D01*
X161093503Y-113489531D01*
X161334089Y-113425066D01*
X161564188Y-113329756D01*
X161564199Y-113329751D01*
X161779881Y-113205226D01*
X161779897Y-113205215D01*
X161977483Y-113053602D01*
X161977490Y-113053596D01*
X162153596Y-112877490D01*
X162153602Y-112877483D01*
X162305215Y-112679897D01*
X162305226Y-112679881D01*
X162429751Y-112464199D01*
X162429756Y-112464188D01*
X162525066Y-112234089D01*
X162589531Y-111993503D01*
X162605522Y-111872040D01*
X161037726Y-111872040D01*
X161042120Y-111867646D01*
X161094781Y-111776434D01*
X161122040Y-111674701D01*
X161122040Y-111569379D01*
X161094781Y-111467646D01*
X161042120Y-111376434D01*
X161037726Y-111372040D01*
X162605521Y-111372040D01*
X162589531Y-111250576D01*
X162525066Y-111009990D01*
X162429756Y-110779891D01*
X162429751Y-110779880D01*
X162305226Y-110564198D01*
X162305215Y-110564182D01*
X162153602Y-110366596D01*
X162153596Y-110366589D01*
X161977490Y-110190483D01*
X161977483Y-110190477D01*
X161779897Y-110038864D01*
X161779881Y-110038853D01*
X161564199Y-109914328D01*
X161564188Y-109914323D01*
X161334089Y-109819013D01*
X161093503Y-109754548D01*
X160972040Y-109738556D01*
X160972040Y-111306354D01*
X160967646Y-111301960D01*
X160876434Y-111249299D01*
X160774701Y-111222040D01*
X160669379Y-111222040D01*
X160567646Y-111249299D01*
X160476434Y-111301960D01*
X160472040Y-111306354D01*
X160472040Y-109738556D01*
X160472039Y-109738556D01*
X160350576Y-109754548D01*
X160109990Y-109819013D01*
X159879891Y-109914323D01*
X159879880Y-109914328D01*
X159664198Y-110038853D01*
X159664182Y-110038864D01*
X159466596Y-110190477D01*
X159466589Y-110190483D01*
X159290483Y-110366589D01*
X159290477Y-110366596D01*
X159138864Y-110564182D01*
X159138853Y-110564198D01*
X159014328Y-110779880D01*
X159014323Y-110779891D01*
X158919013Y-111009990D01*
X158854548Y-111250576D01*
X158838558Y-111372040D01*
X155948028Y-111372040D01*
X155889486Y-111191866D01*
X155889484Y-111191863D01*
X155889484Y-111191861D01*
X155846773Y-111108036D01*
X155775115Y-110967400D01*
X155733455Y-110910060D01*
X155627043Y-110763595D01*
X155627039Y-110763590D01*
X155448899Y-110585450D01*
X155448894Y-110585446D01*
X155245093Y-110437377D01*
X155245092Y-110437376D01*
X155245090Y-110437375D01*
X155161477Y-110394772D01*
X155020628Y-110323005D01*
X154781030Y-110245155D01*
X154617852Y-110219310D01*
X154532207Y-110205745D01*
X154280283Y-110205745D01*
X154194638Y-110219310D01*
X154031459Y-110245155D01*
X153791861Y-110323005D01*
X153567396Y-110437377D01*
X153363595Y-110585446D01*
X153363590Y-110585450D01*
X153185450Y-110763590D01*
X153185446Y-110763595D01*
X153037377Y-110967396D01*
X152923005Y-111191861D01*
X152845155Y-111431459D01*
X152816835Y-111610261D01*
X152805745Y-111680283D01*
X148044257Y-111680283D01*
X148044257Y-107941805D01*
X156035034Y-107941805D01*
X156035034Y-108193729D01*
X156064001Y-108376619D01*
X156074444Y-108442552D01*
X156152294Y-108682150D01*
X156230947Y-108836514D01*
X156255285Y-108884280D01*
X156266666Y-108906615D01*
X156414735Y-109110416D01*
X156414739Y-109110421D01*
X156592879Y-109288561D01*
X156592884Y-109288565D01*
X156736798Y-109393124D01*
X156796689Y-109436637D01*
X156893240Y-109485832D01*
X157021150Y-109551006D01*
X157021152Y-109551006D01*
X157021155Y-109551008D01*
X157260749Y-109628857D01*
X157509572Y-109668267D01*
X157509573Y-109668267D01*
X157761495Y-109668267D01*
X157761496Y-109668267D01*
X158010319Y-109628857D01*
X158249913Y-109551008D01*
X158474379Y-109436637D01*
X158678190Y-109288560D01*
X158856327Y-109110423D01*
X159004404Y-108906612D01*
X159118775Y-108682146D01*
X159196624Y-108442552D01*
X159236034Y-108193729D01*
X159236034Y-107941805D01*
X159196624Y-107692982D01*
X159118775Y-107453388D01*
X159118773Y-107453385D01*
X159118773Y-107453383D01*
X159077281Y-107371951D01*
X159004404Y-107228922D01*
X158925915Y-107120891D01*
X158856332Y-107025117D01*
X158856328Y-107025112D01*
X158678188Y-106846972D01*
X158678183Y-106846968D01*
X158474382Y-106698899D01*
X158474381Y-106698898D01*
X158474379Y-106698897D01*
X158403201Y-106662630D01*
X158249917Y-106584527D01*
X158010319Y-106506677D01*
X157761496Y-106467267D01*
X157509572Y-106467267D01*
X157401071Y-106484452D01*
X157260748Y-106506677D01*
X157021150Y-106584527D01*
X156796685Y-106698899D01*
X156592884Y-106846968D01*
X156592879Y-106846972D01*
X156414739Y-107025112D01*
X156414735Y-107025117D01*
X156266666Y-107228918D01*
X156152294Y-107453383D01*
X156074444Y-107692981D01*
X156053307Y-107826434D01*
X156035034Y-107941805D01*
X148044257Y-107941805D01*
X148044257Y-107028341D01*
X148050767Y-106988691D01*
X148057641Y-106968324D01*
X148539026Y-105541896D01*
X148556199Y-105508661D01*
X148590907Y-105460889D01*
X148590908Y-105460888D01*
X148590910Y-105460885D01*
X148705281Y-105236419D01*
X148783130Y-104996825D01*
X148822540Y-104748002D01*
X148822540Y-104496078D01*
X148821834Y-104491620D01*
X148810617Y-104420796D01*
X148808316Y-104406271D01*
X152499500Y-104406271D01*
X152499500Y-104658195D01*
X152533226Y-104871133D01*
X152538910Y-104907018D01*
X152616760Y-105146616D01*
X152662520Y-105236423D01*
X152728850Y-105366604D01*
X152731132Y-105371081D01*
X152879201Y-105574882D01*
X152879205Y-105574887D01*
X153057345Y-105753027D01*
X153057350Y-105753031D01*
X153180953Y-105842833D01*
X153261155Y-105901103D01*
X153385241Y-105964328D01*
X153485616Y-106015472D01*
X153485618Y-106015472D01*
X153485621Y-106015474D01*
X153725215Y-106093323D01*
X153974038Y-106132733D01*
X153974039Y-106132733D01*
X154225961Y-106132733D01*
X154225962Y-106132733D01*
X154474785Y-106093323D01*
X154714379Y-106015474D01*
X154938845Y-105901103D01*
X155142656Y-105753026D01*
X155320793Y-105574889D01*
X155468870Y-105371078D01*
X155583241Y-105146612D01*
X155661090Y-104907018D01*
X155700500Y-104658195D01*
X155700500Y-104406271D01*
X155661090Y-104157448D01*
X155583241Y-103917854D01*
X155583239Y-103917851D01*
X155583239Y-103917849D01*
X155514627Y-103783191D01*
X155468870Y-103693388D01*
X155434622Y-103646250D01*
X155320798Y-103489583D01*
X155320794Y-103489578D01*
X155142654Y-103311438D01*
X155142649Y-103311434D01*
X154938848Y-103163365D01*
X154938847Y-103163364D01*
X154938845Y-103163363D01*
X154847813Y-103116980D01*
X154714383Y-103048993D01*
X154474785Y-102971143D01*
X154369081Y-102954401D01*
X154225962Y-102931733D01*
X153974038Y-102931733D01*
X153858630Y-102950012D01*
X153725214Y-102971143D01*
X153485616Y-103048993D01*
X153261151Y-103163365D01*
X153057350Y-103311434D01*
X153057345Y-103311438D01*
X152879205Y-103489578D01*
X152879201Y-103489583D01*
X152731132Y-103693384D01*
X152616760Y-103917849D01*
X152538910Y-104157447D01*
X152537650Y-104165404D01*
X152499500Y-104406271D01*
X148808316Y-104406271D01*
X148783130Y-104247254D01*
X148705279Y-104007656D01*
X148659522Y-103917854D01*
X148590910Y-103783195D01*
X148509903Y-103671698D01*
X148442838Y-103579390D01*
X148442834Y-103579385D01*
X148264694Y-103401245D01*
X148264689Y-103401241D01*
X148060888Y-103253172D01*
X148060887Y-103253171D01*
X148060885Y-103253170D01*
X147974373Y-103209090D01*
X147836423Y-103138800D01*
X147596825Y-103060950D01*
X147521332Y-103048993D01*
X147348002Y-103021540D01*
X147096078Y-103021540D01*
X147001398Y-103036536D01*
X146847254Y-103060950D01*
X146607656Y-103138800D01*
X146383191Y-103253172D01*
X146179390Y-103401241D01*
X146179385Y-103401245D01*
X146001245Y-103579385D01*
X146001241Y-103579390D01*
X145853172Y-103783191D01*
X145738800Y-104007656D01*
X145660950Y-104247254D01*
X145621540Y-104496078D01*
X145621540Y-104748001D01*
X145660950Y-104996825D01*
X145738800Y-105236423D01*
X145817453Y-105390787D01*
X145836443Y-105428057D01*
X145853172Y-105460888D01*
X146001241Y-105664689D01*
X146001245Y-105664694D01*
X146179384Y-105842833D01*
X146224706Y-105875762D01*
X146249312Y-105899456D01*
X146655753Y-106416596D01*
X147115719Y-107001840D01*
X147116750Y-107003151D01*
X147142699Y-107068023D01*
X147143257Y-107079774D01*
X147143257Y-127297988D01*
X147123572Y-127365027D01*
X147070768Y-127410782D01*
X147001610Y-127420726D01*
X146938054Y-127391701D01*
X146916155Y-127366879D01*
X146857687Y-127279376D01*
X146857684Y-127279372D01*
X146718332Y-127140020D01*
X146718328Y-127140017D01*
X146554468Y-127030529D01*
X146554458Y-127030524D01*
X146372384Y-126955106D01*
X146372376Y-126955104D01*
X146179091Y-126916657D01*
X146179088Y-126916657D01*
X145982008Y-126916657D01*
X145982005Y-126916657D01*
X145788719Y-126955104D01*
X145788711Y-126955106D01*
X145606637Y-127030524D01*
X145606627Y-127030529D01*
X145442767Y-127140017D01*
X145442763Y-127140020D01*
X144737725Y-127845058D01*
X144737722Y-127845062D01*
X144628234Y-128008922D01*
X144628229Y-128008932D01*
X144552811Y-128191006D01*
X144552809Y-128191014D01*
X144514362Y-128384298D01*
X135131648Y-128384298D01*
X135025183Y-128192888D01*
X134828237Y-127866855D01*
X134621149Y-127547266D01*
X134527339Y-127410782D01*
X134405313Y-127233247D01*
X134259040Y-127030529D01*
X134182097Y-126923894D01*
X133961685Y-126630052D01*
X133952897Y-126618336D01*
X133636450Y-126212870D01*
X133482136Y-126015146D01*
X132530844Y-124816840D01*
X132528891Y-124814312D01*
X132525209Y-124809419D01*
X132071609Y-124206575D01*
X132069562Y-124203774D01*
X131850834Y-123895440D01*
X131849107Y-123892941D01*
X131637274Y-123578262D01*
X131475897Y-123343427D01*
X131388302Y-123220614D01*
X131310841Y-123112009D01*
X131200731Y-122963656D01*
X131141815Y-122884277D01*
X130968602Y-122660596D01*
X130790936Y-122441267D01*
X130790920Y-122441247D01*
X130608578Y-122226626D01*
X130511898Y-122118419D01*
X130421224Y-122016934D01*
X130421213Y-122016922D01*
X130421202Y-122016910D01*
X130228681Y-121812575D01*
X130030651Y-121613821D01*
X129826884Y-121420994D01*
X129617176Y-121234457D01*
X129401184Y-121054451D01*
X129178771Y-120881387D01*
X129078886Y-120809092D01*
X128949556Y-120715485D01*
X128787450Y-120606795D01*
X128713379Y-120557131D01*
X128713371Y-120557126D01*
X128713365Y-120557122D01*
X128633683Y-120507854D01*
X137770253Y-120507854D01*
X137770253Y-120765651D01*
X137789407Y-120911129D01*
X137803901Y-121021221D01*
X137817237Y-121070990D01*
X137870620Y-121270222D01*
X137963831Y-121495252D01*
X137969269Y-121508380D01*
X138098160Y-121731626D01*
X138098162Y-121731629D01*
X138098163Y-121731630D01*
X138255086Y-121936136D01*
X138255092Y-121936143D01*
X138437362Y-122118413D01*
X138437368Y-122118418D01*
X138641880Y-122275346D01*
X138865126Y-122404237D01*
X138996380Y-122458604D01*
X139103283Y-122502885D01*
X139103284Y-122502885D01*
X139103286Y-122502886D01*
X139352285Y-122569605D01*
X139607862Y-122603253D01*
X139607869Y-122603253D01*
X139865637Y-122603253D01*
X139865644Y-122603253D01*
X140121221Y-122569605D01*
X140370220Y-122502886D01*
X140608380Y-122404237D01*
X140831626Y-122275346D01*
X141036138Y-122118418D01*
X141218418Y-121936138D01*
X141375346Y-121731626D01*
X141504237Y-121508380D01*
X141602886Y-121270220D01*
X141669605Y-121021221D01*
X141703253Y-120765644D01*
X141703253Y-120507862D01*
X141669605Y-120252285D01*
X141602886Y-120003286D01*
X141598893Y-119993647D01*
X141546638Y-119867491D01*
X141504237Y-119765126D01*
X141375346Y-119541880D01*
X141218418Y-119337368D01*
X141218413Y-119337362D01*
X141036143Y-119155092D01*
X141036136Y-119155086D01*
X140831630Y-118998163D01*
X140831629Y-118998162D01*
X140831626Y-118998160D01*
X140608380Y-118869269D01*
X140608373Y-118869266D01*
X140370222Y-118770620D01*
X140245720Y-118737260D01*
X140121221Y-118703901D01*
X140064426Y-118696423D01*
X139865651Y-118670253D01*
X139865644Y-118670253D01*
X139607862Y-118670253D01*
X139607854Y-118670253D01*
X139380682Y-118700162D01*
X139352285Y-118703901D01*
X139290035Y-118720580D01*
X139103283Y-118770620D01*
X138865132Y-118869266D01*
X138865123Y-118869270D01*
X138641875Y-118998163D01*
X138437369Y-119155086D01*
X138437362Y-119155092D01*
X138255092Y-119337362D01*
X138255086Y-119337369D01*
X138098163Y-119541875D01*
X137969270Y-119765123D01*
X137969266Y-119765132D01*
X137870620Y-120003283D01*
X137846082Y-120094862D01*
X137811328Y-120224569D01*
X137803901Y-120252286D01*
X137770253Y-120507854D01*
X128633683Y-120507854D01*
X128474376Y-120409353D01*
X128465714Y-120403478D01*
X128379164Y-120339277D01*
X128046337Y-120092393D01*
X128044217Y-120090784D01*
X127628851Y-119768257D01*
X127626690Y-119766540D01*
X127350283Y-119541875D01*
X127218753Y-119434967D01*
X127216653Y-119433220D01*
X126816445Y-119092687D01*
X126814315Y-119090832D01*
X126422190Y-118741470D01*
X126420077Y-118739544D01*
X126036247Y-118381361D01*
X126034153Y-118379361D01*
X125658948Y-118012469D01*
X125656876Y-118010394D01*
X125290642Y-117634924D01*
X125288592Y-117632772D01*
X124931526Y-117248704D01*
X124929503Y-117246473D01*
X124893442Y-117205745D01*
X124582049Y-116854047D01*
X124580053Y-116851737D01*
X124242357Y-116450868D01*
X124240393Y-116448476D01*
X123912868Y-116039381D01*
X123910938Y-116036907D01*
X123806065Y-115898899D01*
X123593806Y-115619574D01*
X123591918Y-115617021D01*
X123285553Y-115191636D01*
X123283703Y-115188996D01*
X122988345Y-114755563D01*
X122986541Y-114752840D01*
X122701595Y-114310055D01*
X122701592Y-114310051D01*
X122551173Y-114119666D01*
X122547541Y-114114831D01*
X122430684Y-113951105D01*
X122405314Y-113915559D01*
X122402678Y-113911715D01*
X122311330Y-113772960D01*
X122265031Y-113702632D01*
X122263212Y-113699785D01*
X122128943Y-113483157D01*
X122127553Y-113480858D01*
X121595228Y-112578937D01*
X121457172Y-112356864D01*
X121457166Y-112356854D01*
X121314227Y-112140372D01*
X121164925Y-111931542D01*
X121007782Y-111732423D01*
X120841317Y-111545072D01*
X120835501Y-111539161D01*
X120754135Y-111456460D01*
X120671872Y-111378920D01*
X120664049Y-111371546D01*
X120615566Y-111329419D01*
X120570904Y-111290612D01*
X120474504Y-111213907D01*
X120374651Y-111141679D01*
X120374641Y-111141672D01*
X120271185Y-111074203D01*
X119130717Y-111029287D01*
X119126083Y-111029017D01*
X117988481Y-110941473D01*
X117984052Y-110941053D01*
X116848277Y-110812530D01*
X116844050Y-110811977D01*
X115711814Y-110644255D01*
X115707780Y-110643590D01*
X114580435Y-110438404D01*
X114576586Y-110437640D01*
X113455784Y-110196777D01*
X113452110Y-110195929D01*
X112339328Y-109921143D01*
X112335818Y-109920222D01*
X111682859Y-109738556D01*
X111230886Y-109612808D01*
X111230885Y-109612808D01*
X110921300Y-109629090D01*
X110614750Y-109666739D01*
X110614728Y-109666742D01*
X110310805Y-109723343D01*
X110009126Y-109796486D01*
X110009089Y-109796496D01*
X109709365Y-109883752D01*
X109411159Y-109982725D01*
X109114147Y-110090992D01*
X108817966Y-110206137D01*
X107635820Y-110686632D01*
X107633279Y-110687633D01*
X107338574Y-110799920D01*
X107335787Y-110800944D01*
X107040384Y-110905469D01*
X107036650Y-110906724D01*
X106740539Y-111001029D01*
X106735808Y-111002432D01*
X106438138Y-111084342D01*
X106433520Y-111085518D01*
X106337386Y-111108036D01*
X106219779Y-111142440D01*
X105946553Y-111232425D01*
X105656835Y-111328650D01*
X105654000Y-111329554D01*
X105517362Y-111371323D01*
X105513237Y-111372506D01*
X105388929Y-111405849D01*
X105381811Y-111407535D01*
X105274905Y-111429547D01*
X105266095Y-111431033D01*
X105232706Y-111435431D01*
X105227976Y-111436054D01*
X105210979Y-111433405D01*
X105193949Y-111435828D01*
X105177174Y-111428136D01*
X105158941Y-111425295D01*
X105146074Y-111413877D01*
X105130437Y-111406708D01*
X105120483Y-111391169D01*
X105106680Y-111378920D01*
X105102028Y-111362356D01*
X105092751Y-111347873D01*
X105092778Y-111329419D01*
X105087789Y-111311653D01*
X105092829Y-111294898D01*
X105092855Y-111278004D01*
X105107563Y-111245924D01*
X105124123Y-111220240D01*
X105129328Y-111212787D01*
X105169557Y-111159460D01*
X105173662Y-111154310D01*
X105227242Y-111090675D01*
X105230518Y-111086941D01*
X105299063Y-111011901D01*
X105344625Y-110923804D01*
X105347051Y-110919343D01*
X105395418Y-110834635D01*
X105398723Y-110829181D01*
X105509268Y-110656971D01*
X105512950Y-110651557D01*
X105518420Y-110643953D01*
X105636330Y-110480041D01*
X105638937Y-110476549D01*
X105772297Y-110304429D01*
X105774001Y-110302282D01*
X106056702Y-109954006D01*
X106197595Y-109778234D01*
X106333119Y-109600845D01*
X106459695Y-109421174D01*
X106573743Y-109238557D01*
X106624951Y-109145936D01*
X106671684Y-109052329D01*
X106713495Y-108957653D01*
X106749937Y-108861825D01*
X106780562Y-108764762D01*
X106804924Y-108666381D01*
X106822573Y-108566599D01*
X106833063Y-108465333D01*
X106834540Y-108412661D01*
X106835947Y-108362519D01*
X106835946Y-108362509D01*
X106835947Y-108362499D01*
X106830777Y-108258014D01*
X106817106Y-108151796D01*
X106794485Y-108043762D01*
X106715463Y-107958245D01*
X106632502Y-107880815D01*
X106545812Y-107811038D01*
X106455599Y-107748482D01*
X106455591Y-107748477D01*
X106455583Y-107748471D01*
X106362079Y-107692717D01*
X106362077Y-107692715D01*
X106265447Y-107643302D01*
X106265445Y-107643301D01*
X106265439Y-107643298D01*
X106165906Y-107599805D01*
X106165907Y-107599805D01*
X106165904Y-107599804D01*
X106106678Y-107577785D01*
X106106677Y-107577784D01*
X106063700Y-107561806D01*
X106063687Y-107561802D01*
X106063681Y-107561800D01*
X105851990Y-107500520D01*
X105843567Y-107498815D01*
X105632029Y-107455996D01*
X105632012Y-107455993D01*
X105405496Y-107424767D01*
X105405463Y-107424763D01*
X105405452Y-107424762D01*
X105376016Y-107422040D01*
X142288558Y-107422040D01*
X143856354Y-107422040D01*
X143851960Y-107426434D01*
X143799299Y-107517646D01*
X143772040Y-107619379D01*
X143772040Y-107724701D01*
X143799299Y-107826434D01*
X143851960Y-107917646D01*
X143856354Y-107922040D01*
X142288558Y-107922040D01*
X142304548Y-108043503D01*
X142369013Y-108284089D01*
X142464323Y-108514188D01*
X142464328Y-108514199D01*
X142588853Y-108729881D01*
X142588864Y-108729897D01*
X142740477Y-108927483D01*
X142740483Y-108927490D01*
X142916589Y-109103596D01*
X142916596Y-109103602D01*
X143114182Y-109255215D01*
X143114198Y-109255226D01*
X143329880Y-109379751D01*
X143329891Y-109379756D01*
X143559990Y-109475066D01*
X143800576Y-109539531D01*
X143922040Y-109555521D01*
X143922040Y-107987726D01*
X143926434Y-107992120D01*
X144017646Y-108044781D01*
X144119379Y-108072040D01*
X144224701Y-108072040D01*
X144326434Y-108044781D01*
X144417646Y-107992120D01*
X144422040Y-107987726D01*
X144422040Y-109555520D01*
X144543503Y-109539531D01*
X144784089Y-109475066D01*
X145014188Y-109379756D01*
X145014199Y-109379751D01*
X145229881Y-109255226D01*
X145229897Y-109255215D01*
X145427483Y-109103602D01*
X145427490Y-109103596D01*
X145603596Y-108927490D01*
X145603602Y-108927483D01*
X145755215Y-108729897D01*
X145755226Y-108729881D01*
X145879751Y-108514199D01*
X145879756Y-108514188D01*
X145975066Y-108284089D01*
X146039531Y-108043503D01*
X146055522Y-107922040D01*
X144487726Y-107922040D01*
X144492120Y-107917646D01*
X144544781Y-107826434D01*
X144572040Y-107724701D01*
X144572040Y-107619379D01*
X144544781Y-107517646D01*
X144492120Y-107426434D01*
X144487726Y-107422040D01*
X146055521Y-107422040D01*
X146039531Y-107300576D01*
X145975066Y-107059990D01*
X145879756Y-106829891D01*
X145879751Y-106829880D01*
X145755226Y-106614198D01*
X145755215Y-106614182D01*
X145603602Y-106416596D01*
X145603596Y-106416589D01*
X145427490Y-106240483D01*
X145427483Y-106240477D01*
X145229897Y-106088864D01*
X145229881Y-106088853D01*
X145014199Y-105964328D01*
X145014188Y-105964323D01*
X144784089Y-105869013D01*
X144543503Y-105804548D01*
X144422040Y-105788556D01*
X144422040Y-107356354D01*
X144417646Y-107351960D01*
X144326434Y-107299299D01*
X144224701Y-107272040D01*
X144119379Y-107272040D01*
X144017646Y-107299299D01*
X143926434Y-107351960D01*
X143922040Y-107356354D01*
X143922040Y-105788556D01*
X143922039Y-105788556D01*
X143800576Y-105804548D01*
X143559990Y-105869013D01*
X143329891Y-105964323D01*
X143329880Y-105964328D01*
X143114198Y-106088853D01*
X143114182Y-106088864D01*
X142916596Y-106240477D01*
X142916589Y-106240483D01*
X142740483Y-106416589D01*
X142740477Y-106416596D01*
X142588864Y-106614182D01*
X142588853Y-106614198D01*
X142464328Y-106829880D01*
X142464323Y-106829891D01*
X142369013Y-107059990D01*
X142304548Y-107300576D01*
X142288558Y-107422040D01*
X105376016Y-107422040D01*
X105375335Y-107421977D01*
X105173922Y-107403350D01*
X104234347Y-107346833D01*
X104228861Y-107346381D01*
X104003329Y-107322734D01*
X103997192Y-107321935D01*
X103778107Y-107287839D01*
X103769833Y-107286262D01*
X103558127Y-107238403D01*
X103550572Y-107236443D01*
X103512073Y-107225152D01*
X103453283Y-107187397D01*
X103424238Y-107123850D01*
X103434159Y-107054688D01*
X103451315Y-107027259D01*
X103500704Y-106967396D01*
X103504430Y-106963089D01*
X103595276Y-106862883D01*
X103598438Y-106859524D01*
X103698042Y-106757617D01*
X103700683Y-106754996D01*
X103807867Y-106651740D01*
X103809926Y-106649803D01*
X103923243Y-106545756D01*
X103925556Y-106543688D01*
X104167378Y-106332915D01*
X104169505Y-106331104D01*
X104677117Y-105908922D01*
X104923423Y-105701536D01*
X105152174Y-105498885D01*
X105215588Y-105426622D01*
X105219028Y-105422864D01*
X105285058Y-105353633D01*
X105289397Y-105349303D01*
X105306122Y-105333419D01*
X105410437Y-105234348D01*
X122496747Y-105234348D01*
X122496747Y-105492145D01*
X122519464Y-105664689D01*
X122530395Y-105747715D01*
X122548555Y-105815490D01*
X122597114Y-105996716D01*
X122694834Y-106232631D01*
X122695763Y-106234874D01*
X122824654Y-106458120D01*
X122824656Y-106458123D01*
X122824657Y-106458124D01*
X122981580Y-106662630D01*
X122981586Y-106662637D01*
X123163856Y-106844907D01*
X123163863Y-106844913D01*
X123253206Y-106913468D01*
X123368374Y-107001840D01*
X123591620Y-107130731D01*
X123710310Y-107179894D01*
X123829777Y-107229379D01*
X123829778Y-107229379D01*
X123829780Y-107229380D01*
X124078779Y-107296099D01*
X124334356Y-107329747D01*
X124334363Y-107329747D01*
X124592131Y-107329747D01*
X124592138Y-107329747D01*
X124847715Y-107296099D01*
X125096714Y-107229380D01*
X125334874Y-107130731D01*
X125558120Y-107001840D01*
X125762632Y-106844912D01*
X125944912Y-106662632D01*
X126101840Y-106458120D01*
X126230731Y-106234874D01*
X126329380Y-105996714D01*
X126396099Y-105747715D01*
X126429747Y-105492138D01*
X126429747Y-105234356D01*
X126396099Y-104978779D01*
X126329380Y-104729780D01*
X126230731Y-104491620D01*
X126101840Y-104268374D01*
X126016723Y-104157448D01*
X125944913Y-104063863D01*
X125944907Y-104063856D01*
X125762637Y-103881586D01*
X125762630Y-103881580D01*
X125558124Y-103724657D01*
X125558123Y-103724656D01*
X125558120Y-103724654D01*
X125334874Y-103595763D01*
X125334867Y-103595760D01*
X125096716Y-103497114D01*
X124972214Y-103463754D01*
X124847715Y-103430395D01*
X124790920Y-103422917D01*
X124592145Y-103396747D01*
X124592138Y-103396747D01*
X124334356Y-103396747D01*
X124334348Y-103396747D01*
X124107176Y-103426656D01*
X124078779Y-103430395D01*
X124027881Y-103444033D01*
X123829777Y-103497114D01*
X123591626Y-103595760D01*
X123591617Y-103595764D01*
X123368369Y-103724657D01*
X123163863Y-103881580D01*
X123163856Y-103881586D01*
X122981586Y-104063856D01*
X122981580Y-104063863D01*
X122824657Y-104268369D01*
X122695764Y-104491617D01*
X122695760Y-104491626D01*
X122597114Y-104729777D01*
X122530395Y-104978780D01*
X122496747Y-105234348D01*
X105410437Y-105234348D01*
X105437277Y-105208857D01*
X105441578Y-105204961D01*
X105603409Y-105065145D01*
X105606011Y-105062960D01*
X105778532Y-104922153D01*
X105779396Y-104921456D01*
X106138024Y-104634331D01*
X106189053Y-104591677D01*
X106314492Y-104486829D01*
X106483450Y-104335243D01*
X106640763Y-104178416D01*
X106713764Y-104097674D01*
X106782307Y-104015186D01*
X106845877Y-103930807D01*
X106903958Y-103844391D01*
X106956035Y-103755793D01*
X107001591Y-103664868D01*
X107040113Y-103571470D01*
X107071083Y-103475454D01*
X107072930Y-103467491D01*
X107081531Y-103430395D01*
X107093987Y-103376675D01*
X107108308Y-103274987D01*
X107113532Y-103170245D01*
X107109143Y-103062304D01*
X107094626Y-102951018D01*
X107069464Y-102836242D01*
X107020079Y-102784776D01*
X106995184Y-102758832D01*
X106995183Y-102758831D01*
X106995180Y-102758828D01*
X106918080Y-102685653D01*
X106838313Y-102616493D01*
X106756027Y-102551120D01*
X106584491Y-102430837D01*
X106477184Y-102366487D01*
X106404666Y-102322999D01*
X106254373Y-102244850D01*
X106217730Y-102225796D01*
X106217723Y-102225793D01*
X106217710Y-102225786D01*
X106024893Y-102137430D01*
X106024892Y-102137429D01*
X106024882Y-102137425D01*
X105827307Y-102056080D01*
X105759014Y-102030229D01*
X105626182Y-101979948D01*
X104811678Y-101692059D01*
X104808575Y-101690915D01*
X104610928Y-101615068D01*
X104607415Y-101613658D01*
X104414127Y-101532631D01*
X104409491Y-101530575D01*
X104298484Y-101478606D01*
X104246114Y-101432354D01*
X104227065Y-101365132D01*
X104247382Y-101298281D01*
X104300616Y-101253028D01*
X104311712Y-101248712D01*
X104683169Y-101124463D01*
X104684620Y-101123989D01*
X105342773Y-100914360D01*
X105345840Y-100913429D01*
X106010946Y-100721100D01*
X106014162Y-100720218D01*
X106347935Y-100633764D01*
X106350639Y-100633098D01*
X106685884Y-100554450D01*
X106689018Y-100553757D01*
X107025366Y-100484143D01*
X107028834Y-100483479D01*
X107365969Y-100424103D01*
X107369976Y-100423467D01*
X107707608Y-100375502D01*
X107712127Y-100374944D01*
X108050314Y-100339510D01*
X108055195Y-100339097D01*
X108393740Y-100317349D01*
X108399104Y-100317123D01*
X108737836Y-100310202D01*
X108743609Y-100310219D01*
X109082469Y-100319267D01*
X109088631Y-100319588D01*
X109408862Y-100344305D01*
X109450663Y-100355066D01*
X109998170Y-100604136D01*
X109999301Y-100604658D01*
X110566038Y-100870111D01*
X111615469Y-101363755D01*
X111703981Y-101405390D01*
X111849053Y-101471302D01*
X112277322Y-101665882D01*
X112855461Y-101915602D01*
X113408371Y-102137425D01*
X113439747Y-102150013D01*
X114027212Y-102363019D01*
X114035767Y-102366486D01*
X114179565Y-102431102D01*
X114341554Y-102499632D01*
X114341561Y-102499634D01*
X114341564Y-102499636D01*
X114514498Y-102567146D01*
X114545146Y-102577899D01*
X114695398Y-102630616D01*
X114881220Y-102687002D01*
X115068953Y-102733272D01*
X115162593Y-102751665D01*
X115255580Y-102766391D01*
X115255586Y-102766391D01*
X115255588Y-102766392D01*
X115277059Y-102768885D01*
X115347536Y-102777072D01*
X115347544Y-102777072D01*
X115347560Y-102777074D01*
X115438085Y-102783326D01*
X115526808Y-102784777D01*
X115526823Y-102784776D01*
X115526848Y-102784777D01*
X115613450Y-102781043D01*
X115697513Y-102771746D01*
X115778660Y-102756506D01*
X115856514Y-102734945D01*
X115930698Y-102706682D01*
X116000834Y-102671340D01*
X116066546Y-102628537D01*
X116127457Y-102577896D01*
X116183189Y-102519037D01*
X116233366Y-102451580D01*
X116277609Y-102375146D01*
X116315543Y-102289357D01*
X116336335Y-102225796D01*
X116346786Y-102193849D01*
X116346787Y-102193844D01*
X116346791Y-102193833D01*
X116370974Y-102088193D01*
X116380932Y-102019113D01*
X116387716Y-101972063D01*
X116387716Y-101972062D01*
X116387571Y-101971463D01*
X116096630Y-100768052D01*
X115781336Y-99569738D01*
X115446915Y-98375990D01*
X115105497Y-97209747D01*
X115098471Y-97185746D01*
X115048163Y-97018969D01*
X113666796Y-92439531D01*
X113665008Y-92432952D01*
X113581586Y-92089039D01*
X113558325Y-92005084D01*
X113483192Y-91733908D01*
X113457234Y-91651868D01*
X113369666Y-91375105D01*
X113369660Y-91375086D01*
X113240008Y-91016739D01*
X113093256Y-90663044D01*
X113093253Y-90663038D01*
X113093249Y-90663028D01*
X113065122Y-90604179D01*
X113039824Y-90551250D01*
X113889884Y-90551250D01*
X113889884Y-90551255D01*
X113896477Y-90740091D01*
X113896477Y-90740092D01*
X113917858Y-90850087D01*
X113932535Y-90925588D01*
X113950991Y-90976296D01*
X113997161Y-91103149D01*
X113997164Y-91103156D01*
X114079496Y-91251689D01*
X114088774Y-91268426D01*
X114205112Y-91417330D01*
X114343310Y-91546202D01*
X114499968Y-91651869D01*
X114671226Y-91731728D01*
X114852869Y-91783814D01*
X115040423Y-91806842D01*
X115122743Y-91803967D01*
X115190427Y-91821299D01*
X115237997Y-91872474D01*
X115250348Y-91941243D01*
X115227072Y-92001208D01*
X115224234Y-92005078D01*
X115224231Y-92005084D01*
X115145106Y-92174764D01*
X115145103Y-92174774D01*
X115100602Y-92356635D01*
X115092434Y-92543686D01*
X115120918Y-92728745D01*
X115184955Y-92904685D01*
X115184957Y-92904689D01*
X115282080Y-93064745D01*
X115282086Y-93064753D01*
X115408578Y-93202795D01*
X115559568Y-93313505D01*
X115559569Y-93313505D01*
X115559570Y-93313506D01*
X115568826Y-93317822D01*
X115729253Y-93392632D01*
X115729257Y-93392633D01*
X115729261Y-93392635D01*
X115911126Y-93437137D01*
X116023688Y-93442051D01*
X116089804Y-93464641D01*
X116133212Y-93519390D01*
X116140129Y-93588917D01*
X116108360Y-93651146D01*
X116102052Y-93657355D01*
X116018983Y-93733474D01*
X115908273Y-93884464D01*
X115908271Y-93884469D01*
X115829146Y-94054149D01*
X115829143Y-94054159D01*
X115784642Y-94236020D01*
X115776474Y-94423071D01*
X115804958Y-94608130D01*
X115868995Y-94784070D01*
X115868997Y-94784074D01*
X115966120Y-94944130D01*
X115966126Y-94944138D01*
X116092618Y-95082180D01*
X116243608Y-95192890D01*
X116243609Y-95192890D01*
X116243610Y-95192891D01*
X116255804Y-95198577D01*
X116413293Y-95272017D01*
X116413298Y-95272018D01*
X116413301Y-95272020D01*
X116560334Y-95307998D01*
X116620772Y-95343052D01*
X116652665Y-95405218D01*
X116645886Y-95474758D01*
X116602587Y-95529594D01*
X116573270Y-95544966D01*
X116365779Y-95620487D01*
X116365777Y-95620487D01*
X116365777Y-95620488D01*
X116335426Y-95638905D01*
X116314802Y-95651420D01*
X116267637Y-95715746D01*
X116250773Y-95784665D01*
X116248678Y-95793225D01*
X116250212Y-95803191D01*
X116257749Y-95852159D01*
X116784287Y-97298812D01*
X116815221Y-97349789D01*
X116879547Y-97396954D01*
X116879550Y-97396956D01*
X116888894Y-97401313D01*
X116941334Y-97447485D01*
X116960486Y-97514678D01*
X116940271Y-97581559D01*
X116939291Y-97583034D01*
X116849423Y-97716268D01*
X116849423Y-97716269D01*
X116769565Y-97887525D01*
X116769560Y-97887538D01*
X116717477Y-98069170D01*
X116710499Y-98126003D01*
X116695644Y-98246999D01*
X116694449Y-98256728D01*
X116694449Y-98256733D01*
X116701042Y-98445569D01*
X116701042Y-98445570D01*
X116737099Y-98631063D01*
X116737102Y-98631071D01*
X116801726Y-98808627D01*
X116801729Y-98808634D01*
X116882774Y-98954845D01*
X116893339Y-98973904D01*
X117009677Y-99122808D01*
X117147875Y-99251680D01*
X117304533Y-99357347D01*
X117475791Y-99437206D01*
X117657434Y-99489292D01*
X117844988Y-99512320D01*
X118033836Y-99505726D01*
X118219327Y-99469669D01*
X119806431Y-98892011D01*
X119971703Y-98800400D01*
X120120607Y-98684062D01*
X120249479Y-98545864D01*
X120355146Y-98389206D01*
X120435005Y-98217948D01*
X120487090Y-98036305D01*
X120510119Y-97848751D01*
X120503525Y-97659903D01*
X120467468Y-97474412D01*
X120402839Y-97296846D01*
X120399791Y-97291348D01*
X120311230Y-97131576D01*
X120311229Y-97131574D01*
X120194891Y-96982670D01*
X120182391Y-96971014D01*
X120056693Y-96853798D01*
X119981420Y-96803026D01*
X119900035Y-96748131D01*
X119728777Y-96668272D01*
X119728773Y-96668270D01*
X119728771Y-96668270D01*
X119574290Y-96623973D01*
X119515274Y-96586572D01*
X119485847Y-96523202D01*
X119495351Y-96453982D01*
X119496089Y-96452371D01*
X119500445Y-96443028D01*
X119500445Y-96443026D01*
X119500447Y-96443024D01*
X119519406Y-96365546D01*
X119510335Y-96306611D01*
X118983797Y-94859958D01*
X118952863Y-94808981D01*
X118888537Y-94761816D01*
X118811059Y-94742857D01*
X118811057Y-94742857D01*
X118811056Y-94742857D01*
X118752124Y-94751928D01*
X118544629Y-94827450D01*
X118474900Y-94831881D01*
X118413845Y-94797911D01*
X118380847Y-94736324D01*
X118386385Y-94666674D01*
X118402217Y-94637610D01*
X118491727Y-94515534D01*
X118570855Y-94345843D01*
X118615358Y-94163978D01*
X118623525Y-93976924D01*
X118622825Y-93972379D01*
X118611033Y-93895765D01*
X118595042Y-93791870D01*
X118531005Y-93615930D01*
X118507349Y-93576946D01*
X118433879Y-93455869D01*
X118433869Y-93455856D01*
X118307384Y-93317822D01*
X118307382Y-93317820D01*
X118156391Y-93207109D01*
X118156386Y-93207107D01*
X117986703Y-93127981D01*
X117986698Y-93127979D01*
X117876337Y-93100975D01*
X117804833Y-93083478D01*
X117785038Y-93082613D01*
X117692271Y-93078563D01*
X117626155Y-93055972D01*
X117582747Y-93001223D01*
X117575830Y-92931696D01*
X117607600Y-92869467D01*
X117613897Y-92863267D01*
X117696976Y-92787141D01*
X117807687Y-92636149D01*
X117886815Y-92466458D01*
X117931318Y-92284593D01*
X117939485Y-92097539D01*
X117911002Y-91912485D01*
X117846965Y-91736545D01*
X117795582Y-91651868D01*
X117749839Y-91576484D01*
X117749829Y-91576471D01*
X117623344Y-91438437D01*
X117623342Y-91438435D01*
X117472351Y-91327724D01*
X117472346Y-91327722D01*
X117302663Y-91248596D01*
X117302656Y-91248594D01*
X117298005Y-91247456D01*
X117237565Y-91212402D01*
X117205671Y-91150237D01*
X117212449Y-91080697D01*
X117251134Y-91029296D01*
X117267352Y-91016625D01*
X117316042Y-90978584D01*
X117444914Y-90840386D01*
X117550581Y-90683728D01*
X117630440Y-90512470D01*
X117682525Y-90330827D01*
X117705554Y-90143273D01*
X117698960Y-89954425D01*
X117662903Y-89768934D01*
X117598274Y-89591368D01*
X117586610Y-89570326D01*
X117519947Y-89450059D01*
X117506664Y-89426096D01*
X117390326Y-89277192D01*
X117367171Y-89255600D01*
X117252128Y-89148320D01*
X117196026Y-89110479D01*
X117095470Y-89042653D01*
X116924212Y-88962794D01*
X116924207Y-88962792D01*
X116924203Y-88962791D01*
X116742570Y-88910708D01*
X116742571Y-88910708D01*
X116671100Y-88901933D01*
X116555015Y-88887680D01*
X116555011Y-88887680D01*
X116366172Y-88894273D01*
X116366171Y-88894273D01*
X116180678Y-88930330D01*
X116180670Y-88930333D01*
X114593581Y-89507985D01*
X114593568Y-89507990D01*
X114428302Y-89599598D01*
X114428298Y-89599601D01*
X114279395Y-89715938D01*
X114150524Y-89854135D01*
X114044857Y-90010794D01*
X113965000Y-90182047D01*
X113964995Y-90182060D01*
X113912912Y-90363692D01*
X113889884Y-90551250D01*
X113039824Y-90551250D01*
X112971751Y-90408826D01*
X112928425Y-90318177D01*
X112744534Y-89986312D01*
X112645136Y-89826561D01*
X112540605Y-89671626D01*
X112430819Y-89522030D01*
X112315656Y-89378295D01*
X112194993Y-89240942D01*
X112068708Y-89110493D01*
X112068693Y-89110479D01*
X111936699Y-88987489D01*
X111936676Y-88987468D01*
X111798796Y-88872408D01*
X111798759Y-88872379D01*
X111654900Y-88765797D01*
X111654880Y-88765783D01*
X111504917Y-88668194D01*
X111504910Y-88668190D01*
X111476787Y-88652332D01*
X111348665Y-88580086D01*
X111348663Y-88580085D01*
X111348643Y-88580075D01*
X111186083Y-88502028D01*
X111186046Y-88502012D01*
X111017019Y-88434526D01*
X111017017Y-88434525D01*
X110841345Y-88378103D01*
X110841342Y-88378102D01*
X110841335Y-88378100D01*
X110713011Y-88346567D01*
X110658944Y-88333281D01*
X110658940Y-88333280D01*
X110608978Y-88324647D01*
X110469697Y-88300583D01*
X110273485Y-88280533D01*
X110273483Y-88280532D01*
X110273474Y-88280532D01*
X110070174Y-88273649D01*
X106415510Y-88460587D01*
X106413447Y-88460675D01*
X102764381Y-88586439D01*
X102762114Y-88586497D01*
X99108433Y-88645563D01*
X99105982Y-88645578D01*
X95437430Y-88632353D01*
X95097391Y-88652129D01*
X95091446Y-88652332D01*
X94757056Y-88655715D01*
X94751171Y-88655634D01*
X94419664Y-88643244D01*
X94413870Y-88642892D01*
X94085308Y-88615170D01*
X94079632Y-88614559D01*
X93754237Y-88571946D01*
X93748704Y-88571094D01*
X93426621Y-88514025D01*
X93421251Y-88512951D01*
X93102639Y-88441860D01*
X93097448Y-88440584D01*
X92782458Y-88355898D01*
X92777459Y-88354440D01*
X92466334Y-88256613D01*
X92461533Y-88254995D01*
X92154388Y-88144441D01*
X92149790Y-88142682D01*
X91846847Y-88019850D01*
X91842454Y-88017970D01*
X91543855Y-87883280D01*
X91539665Y-87881295D01*
X91245632Y-87735198D01*
X91241641Y-87733124D01*
X90952336Y-87576046D01*
X90948540Y-87573897D01*
X90664202Y-87406307D01*
X90660593Y-87404096D01*
X90382215Y-87226949D01*
X90377147Y-87223546D01*
X89833999Y-86839090D01*
X89827806Y-86834409D01*
X89308347Y-86415565D01*
X89302752Y-86410772D01*
X89001246Y-86136575D01*
X88820778Y-85972452D01*
X118530799Y-85972452D01*
X118530799Y-86169541D01*
X118569246Y-86362825D01*
X118569248Y-86362833D01*
X118644666Y-86544907D01*
X118644671Y-86544917D01*
X118754159Y-86708777D01*
X118754162Y-86708781D01*
X118893514Y-86848133D01*
X118893518Y-86848136D01*
X119057378Y-86957624D01*
X119057382Y-86957626D01*
X119057385Y-86957628D01*
X119239463Y-87033048D01*
X119346229Y-87054285D01*
X119432754Y-87071496D01*
X119432757Y-87071497D01*
X119432759Y-87071497D01*
X119629841Y-87071497D01*
X119629842Y-87071496D01*
X119823135Y-87033048D01*
X120005213Y-86957628D01*
X120169080Y-86848136D01*
X120874124Y-86143092D01*
X120983616Y-85979225D01*
X121059036Y-85797147D01*
X121097485Y-85603851D01*
X121097485Y-85406771D01*
X121097485Y-85406768D01*
X121097484Y-85406766D01*
X121091115Y-85374749D01*
X121059036Y-85213475D01*
X120983616Y-85031397D01*
X120983614Y-85031394D01*
X120983612Y-85031390D01*
X120874124Y-84867530D01*
X120874121Y-84867526D01*
X120734769Y-84728174D01*
X120734765Y-84728171D01*
X120570905Y-84618683D01*
X120570895Y-84618678D01*
X120388821Y-84543260D01*
X120388813Y-84543258D01*
X120195528Y-84504811D01*
X120195525Y-84504811D01*
X119998445Y-84504811D01*
X119998442Y-84504811D01*
X119805156Y-84543258D01*
X119805148Y-84543260D01*
X119623074Y-84618678D01*
X119623064Y-84618683D01*
X119459204Y-84728171D01*
X119459200Y-84728174D01*
X118754162Y-85433212D01*
X118754159Y-85433216D01*
X118644671Y-85597076D01*
X118644666Y-85597086D01*
X118569248Y-85779160D01*
X118569246Y-85779168D01*
X118530799Y-85972452D01*
X88820778Y-85972452D01*
X88807688Y-85960548D01*
X88802626Y-85955676D01*
X88796689Y-85949627D01*
X88333472Y-85477658D01*
X88328868Y-85472703D01*
X88316331Y-85458449D01*
X87887211Y-84970574D01*
X87883021Y-84965548D01*
X87483572Y-84459653D01*
X87470357Y-84442916D01*
X87466491Y-84437749D01*
X87084381Y-83898321D01*
X87080817Y-83893004D01*
X86950462Y-83687236D01*
X86731805Y-83342080D01*
X86726645Y-83333129D01*
X86686377Y-83256030D01*
X86309542Y-82534533D01*
X86307972Y-82531422D01*
X86051643Y-82004983D01*
X85911441Y-81717041D01*
X85909916Y-81713787D01*
X85721278Y-81295970D01*
X85700989Y-81251032D01*
X92299500Y-81251032D01*
X92299500Y-84290537D01*
X92311131Y-84349014D01*
X92311132Y-84349015D01*
X92355447Y-84415337D01*
X92421769Y-84459652D01*
X92421770Y-84459653D01*
X92480247Y-84471284D01*
X92480250Y-84471285D01*
X92480252Y-84471285D01*
X95519750Y-84471285D01*
X95519751Y-84471284D01*
X95541014Y-84467055D01*
X95578229Y-84459653D01*
X95578229Y-84459652D01*
X95578231Y-84459652D01*
X95644552Y-84415337D01*
X95688867Y-84349016D01*
X95688867Y-84349014D01*
X95688868Y-84349014D01*
X95700499Y-84290537D01*
X95700500Y-84290535D01*
X95700500Y-81251034D01*
X95700499Y-81251032D01*
X95688868Y-81192555D01*
X95688867Y-81192554D01*
X95644552Y-81126232D01*
X95578230Y-81081917D01*
X95578229Y-81081916D01*
X95519752Y-81070285D01*
X95519748Y-81070285D01*
X92480252Y-81070285D01*
X92480247Y-81070285D01*
X92421770Y-81081916D01*
X92421769Y-81081917D01*
X92355447Y-81126232D01*
X92311132Y-81192554D01*
X92311131Y-81192555D01*
X92299500Y-81251032D01*
X85700989Y-81251032D01*
X85644644Y-81126232D01*
X85536944Y-80887688D01*
X85535472Y-80884292D01*
X85451686Y-80682843D01*
X112506633Y-80682843D01*
X112527093Y-80825156D01*
X112527094Y-80825161D01*
X112586820Y-80955940D01*
X112624400Y-81002575D01*
X113047129Y-81425304D01*
X114025988Y-80446445D01*
X114025988Y-80452661D01*
X114053247Y-80554394D01*
X114105908Y-80645606D01*
X114180382Y-80720080D01*
X114271594Y-80772741D01*
X114373327Y-80800000D01*
X114379542Y-80800000D01*
X113400683Y-81778857D01*
X113400683Y-81778858D01*
X113823412Y-82201587D01*
X113870047Y-82239167D01*
X114000826Y-82298893D01*
X114000831Y-82298894D01*
X114143145Y-82319354D01*
X114285458Y-82298894D01*
X114285463Y-82298893D01*
X114416242Y-82239167D01*
X114462877Y-82201587D01*
X114953854Y-81710610D01*
X115015177Y-81677125D01*
X115084868Y-81682109D01*
X115140802Y-81723980D01*
X115165219Y-81789445D01*
X115150367Y-81857718D01*
X115144638Y-81867181D01*
X115052567Y-82004975D01*
X115052563Y-82004983D01*
X114977145Y-82187057D01*
X114977143Y-82187065D01*
X114938696Y-82380349D01*
X114938696Y-82577438D01*
X114977143Y-82770722D01*
X114977145Y-82770730D01*
X115052563Y-82952804D01*
X115052568Y-82952814D01*
X115162056Y-83116674D01*
X115162059Y-83116678D01*
X115301411Y-83256030D01*
X115301415Y-83256033D01*
X115465275Y-83365521D01*
X115465279Y-83365523D01*
X115465282Y-83365525D01*
X115647360Y-83440945D01*
X115840651Y-83479393D01*
X115840654Y-83479394D01*
X115840656Y-83479394D01*
X116037738Y-83479394D01*
X116037739Y-83479393D01*
X116231032Y-83440945D01*
X116413110Y-83365525D01*
X116576977Y-83256033D01*
X116636560Y-83196448D01*
X116681132Y-83167866D01*
X117335120Y-82925418D01*
X117404820Y-82920573D01*
X117466076Y-82954180D01*
X117499439Y-83015569D01*
X117494317Y-83085251D01*
X117465902Y-83129368D01*
X116958110Y-83637160D01*
X116958107Y-83637164D01*
X116848619Y-83801024D01*
X116848614Y-83801034D01*
X116773196Y-83983108D01*
X116773194Y-83983116D01*
X116734747Y-84176400D01*
X116734747Y-84373489D01*
X116773194Y-84566773D01*
X116773196Y-84566781D01*
X116848614Y-84748855D01*
X116848619Y-84748865D01*
X116958107Y-84912725D01*
X116958110Y-84912729D01*
X117097462Y-85052081D01*
X117097466Y-85052084D01*
X117261326Y-85161572D01*
X117261330Y-85161574D01*
X117261333Y-85161576D01*
X117443411Y-85236996D01*
X117636702Y-85275444D01*
X117636705Y-85275445D01*
X117636707Y-85275445D01*
X117833789Y-85275445D01*
X117833790Y-85275444D01*
X118027083Y-85236996D01*
X118209161Y-85161576D01*
X118373028Y-85052084D01*
X119078072Y-84347040D01*
X119187564Y-84183173D01*
X119262984Y-84001095D01*
X119301433Y-83807799D01*
X119301433Y-83610719D01*
X119301433Y-83610716D01*
X119301432Y-83610714D01*
X119275311Y-83479394D01*
X119262984Y-83417423D01*
X119187564Y-83235345D01*
X119187562Y-83235342D01*
X119187560Y-83235338D01*
X119078072Y-83071478D01*
X119078069Y-83071474D01*
X118938717Y-82932122D01*
X118938709Y-82932116D01*
X118851213Y-82873653D01*
X118806407Y-82820041D01*
X118797700Y-82750716D01*
X118827854Y-82687689D01*
X118887297Y-82650969D01*
X118920103Y-82646551D01*
X121558086Y-82646551D01*
X121625125Y-82666236D01*
X121645767Y-82682870D01*
X124699278Y-85736381D01*
X124732763Y-85797704D01*
X124727779Y-85867396D01*
X124685907Y-85923329D01*
X124620443Y-85947746D01*
X124555302Y-85934547D01*
X124508138Y-85910516D01*
X124508137Y-85910515D01*
X124508134Y-85910514D01*
X124268540Y-85832665D01*
X124019717Y-85793255D01*
X123767793Y-85793255D01*
X123650775Y-85811789D01*
X123518969Y-85832665D01*
X123279371Y-85910515D01*
X123054906Y-86024887D01*
X122851105Y-86172956D01*
X122851100Y-86172960D01*
X122672960Y-86351100D01*
X122672956Y-86351105D01*
X122524887Y-86554906D01*
X122410515Y-86779371D01*
X122332665Y-87018969D01*
X122306611Y-87183470D01*
X122293255Y-87267793D01*
X122293255Y-87519717D01*
X122327384Y-87735198D01*
X122332665Y-87768540D01*
X122410515Y-88008138D01*
X122479966Y-88144441D01*
X122514038Y-88211312D01*
X122524887Y-88232603D01*
X122672956Y-88436404D01*
X122672960Y-88436409D01*
X122851100Y-88614549D01*
X122851105Y-88614553D01*
X123019245Y-88736713D01*
X123054910Y-88762625D01*
X123189740Y-88831324D01*
X123279371Y-88876994D01*
X123279373Y-88876994D01*
X123279376Y-88876996D01*
X123518970Y-88954845D01*
X123767793Y-88994255D01*
X123767794Y-88994255D01*
X124019716Y-88994255D01*
X124019717Y-88994255D01*
X124268540Y-88954845D01*
X124508134Y-88876996D01*
X124732600Y-88762625D01*
X124936411Y-88614548D01*
X125114548Y-88436411D01*
X125262625Y-88232600D01*
X125376996Y-88008134D01*
X125454845Y-87768540D01*
X125494255Y-87519717D01*
X125494255Y-87267793D01*
X125454845Y-87018970D01*
X125376996Y-86779376D01*
X125376994Y-86779373D01*
X125376994Y-86779371D01*
X125352962Y-86732207D01*
X125340066Y-86663538D01*
X125366342Y-86598798D01*
X125423448Y-86558540D01*
X125493254Y-86555548D01*
X125551128Y-86588231D01*
X127113181Y-88150284D01*
X127146666Y-88211607D01*
X127149500Y-88237965D01*
X127149500Y-96459308D01*
X127170660Y-96538282D01*
X127180200Y-96573885D01*
X127180200Y-96573886D01*
X127191327Y-96593158D01*
X127239511Y-96676614D01*
X136701346Y-106138449D01*
X136804073Y-106197759D01*
X136819711Y-106201949D01*
X136819713Y-106201950D01*
X136819714Y-106201950D01*
X136840621Y-106207552D01*
X136918651Y-106228460D01*
X139374578Y-106228460D01*
X139402524Y-106232631D01*
X139489130Y-106228460D01*
X140659309Y-106228460D01*
X140773886Y-106197759D01*
X140800429Y-106182433D01*
X140868327Y-106165959D01*
X140881829Y-106167346D01*
X140951998Y-106178460D01*
X140951999Y-106178460D01*
X141203921Y-106178460D01*
X141203922Y-106178460D01*
X141452745Y-106139050D01*
X141692339Y-106061201D01*
X141916805Y-105946830D01*
X142120616Y-105798753D01*
X142298753Y-105620616D01*
X142446830Y-105416805D01*
X142561201Y-105192339D01*
X142639050Y-104952745D01*
X142678460Y-104703922D01*
X142678460Y-104451998D01*
X142639050Y-104203175D01*
X142561201Y-103963581D01*
X142561199Y-103963578D01*
X142561199Y-103963576D01*
X142519419Y-103881580D01*
X142446830Y-103739115D01*
X142424888Y-103708915D01*
X142298758Y-103535310D01*
X142298754Y-103535305D01*
X142120614Y-103357165D01*
X142120609Y-103357161D01*
X141916808Y-103209092D01*
X141916807Y-103209091D01*
X141916805Y-103209090D01*
X141827061Y-103163363D01*
X141692343Y-103094720D01*
X141452745Y-103016870D01*
X141379544Y-103005276D01*
X141203922Y-102977460D01*
X140951998Y-102977460D01*
X140827586Y-102997165D01*
X140703174Y-103016870D01*
X140463576Y-103094720D01*
X140239111Y-103209092D01*
X140035310Y-103357161D01*
X140035305Y-103357165D01*
X139857165Y-103535305D01*
X139857161Y-103535310D01*
X139709092Y-103739111D01*
X139594720Y-103963578D01*
X139516869Y-104203177D01*
X139501210Y-104302043D01*
X139498361Y-104315296D01*
X139247019Y-105236112D01*
X139210376Y-105295602D01*
X139147387Y-105325838D01*
X139127395Y-105327460D01*
X137215925Y-105327460D01*
X137148886Y-105307775D01*
X137128244Y-105291141D01*
X133187103Y-101350000D01*
X142316518Y-101350000D01*
X143884314Y-101350000D01*
X143879920Y-101354394D01*
X143827259Y-101445606D01*
X143800000Y-101547339D01*
X143800000Y-101652661D01*
X143827259Y-101754394D01*
X143879920Y-101845606D01*
X143884314Y-101850000D01*
X142316518Y-101850000D01*
X142332508Y-101971463D01*
X142396973Y-102212049D01*
X142492283Y-102442148D01*
X142492288Y-102442159D01*
X142616813Y-102657841D01*
X142616824Y-102657857D01*
X142768437Y-102855443D01*
X142768443Y-102855450D01*
X142944549Y-103031556D01*
X142944556Y-103031562D01*
X143142142Y-103183175D01*
X143142158Y-103183186D01*
X143357840Y-103307711D01*
X143357851Y-103307716D01*
X143587950Y-103403026D01*
X143828536Y-103467491D01*
X143950000Y-103483481D01*
X143950000Y-101915686D01*
X143954394Y-101920080D01*
X144045606Y-101972741D01*
X144147339Y-102000000D01*
X144252661Y-102000000D01*
X144354394Y-101972741D01*
X144445606Y-101920080D01*
X144450000Y-101915686D01*
X144450000Y-103483480D01*
X144571463Y-103467491D01*
X144812049Y-103403026D01*
X145042148Y-103307716D01*
X145042159Y-103307711D01*
X145257841Y-103183186D01*
X145257857Y-103183175D01*
X145455443Y-103031562D01*
X145455450Y-103031556D01*
X145631556Y-102855450D01*
X145631562Y-102855443D01*
X145783175Y-102657857D01*
X145783186Y-102657841D01*
X145907711Y-102442159D01*
X145907716Y-102442148D01*
X146003026Y-102212049D01*
X146067491Y-101971463D01*
X146083482Y-101850000D01*
X144515686Y-101850000D01*
X144520080Y-101845606D01*
X144572741Y-101754394D01*
X144593435Y-101677161D01*
X149131912Y-101677161D01*
X149131912Y-101929085D01*
X149166896Y-102149963D01*
X149171322Y-102177908D01*
X149249172Y-102417506D01*
X149363544Y-102641971D01*
X149511613Y-102845772D01*
X149511617Y-102845777D01*
X149689757Y-103023917D01*
X149689762Y-103023921D01*
X149817848Y-103116980D01*
X149893567Y-103171993D01*
X150031825Y-103242439D01*
X150118028Y-103286362D01*
X150118030Y-103286362D01*
X150118033Y-103286364D01*
X150357627Y-103364213D01*
X150606450Y-103403623D01*
X150606451Y-103403623D01*
X150858373Y-103403623D01*
X150858374Y-103403623D01*
X151107197Y-103364213D01*
X151346791Y-103286364D01*
X151571257Y-103171993D01*
X151775068Y-103023916D01*
X151953205Y-102845779D01*
X152101282Y-102641968D01*
X152215653Y-102417502D01*
X152293502Y-102177908D01*
X152332912Y-101929085D01*
X152332912Y-101677161D01*
X152293502Y-101428338D01*
X152215653Y-101188744D01*
X152215651Y-101188741D01*
X152215651Y-101188739D01*
X152168156Y-101095526D01*
X152101282Y-100964278D01*
X152068266Y-100918835D01*
X151953210Y-100760473D01*
X151953206Y-100760468D01*
X151775066Y-100582328D01*
X151775061Y-100582324D01*
X151571260Y-100434255D01*
X151571259Y-100434254D01*
X151571257Y-100434253D01*
X151455952Y-100375502D01*
X151346795Y-100319883D01*
X151107197Y-100242033D01*
X151045228Y-100232218D01*
X150858374Y-100202623D01*
X150606450Y-100202623D01*
X150508152Y-100218192D01*
X150357626Y-100242033D01*
X150118028Y-100319883D01*
X149893563Y-100434255D01*
X149689762Y-100582324D01*
X149689757Y-100582328D01*
X149511617Y-100760468D01*
X149511613Y-100760473D01*
X149363544Y-100964274D01*
X149249172Y-101188739D01*
X149171322Y-101428337D01*
X149135792Y-101652661D01*
X149131912Y-101677161D01*
X144593435Y-101677161D01*
X144600000Y-101652661D01*
X144600000Y-101547339D01*
X144572741Y-101445606D01*
X144520080Y-101354394D01*
X144515686Y-101350000D01*
X146083481Y-101350000D01*
X146067491Y-101228536D01*
X146003026Y-100987950D01*
X145907716Y-100757851D01*
X145907711Y-100757840D01*
X145783186Y-100542158D01*
X145783175Y-100542142D01*
X145631562Y-100344556D01*
X145631556Y-100344549D01*
X145455450Y-100168443D01*
X145455443Y-100168437D01*
X145257857Y-100016824D01*
X145257841Y-100016813D01*
X145042159Y-99892288D01*
X145042148Y-99892283D01*
X144812049Y-99796973D01*
X144571463Y-99732508D01*
X144450000Y-99716516D01*
X144450000Y-101284314D01*
X144445606Y-101279920D01*
X144354394Y-101227259D01*
X144252661Y-101200000D01*
X144147339Y-101200000D01*
X144045606Y-101227259D01*
X143954394Y-101279920D01*
X143950000Y-101284314D01*
X143950000Y-99716516D01*
X143949999Y-99716516D01*
X143828536Y-99732508D01*
X143587950Y-99796973D01*
X143357851Y-99892283D01*
X143357840Y-99892288D01*
X143142158Y-100016813D01*
X143142142Y-100016824D01*
X142944556Y-100168437D01*
X142944549Y-100168443D01*
X142768443Y-100344549D01*
X142768437Y-100344556D01*
X142616824Y-100542142D01*
X142616813Y-100542158D01*
X142492288Y-100757840D01*
X142492283Y-100757851D01*
X142396973Y-100987950D01*
X142332508Y-101228536D01*
X142316518Y-101350000D01*
X133187103Y-101350000D01*
X129104896Y-97267793D01*
X132293255Y-97267793D01*
X132293255Y-97519717D01*
X132325597Y-97723913D01*
X132332665Y-97768540D01*
X132410515Y-98008138D01*
X132470571Y-98126003D01*
X132517419Y-98217948D01*
X132524887Y-98232603D01*
X132672956Y-98436404D01*
X132672960Y-98436409D01*
X132851100Y-98614549D01*
X132851105Y-98614553D01*
X133007310Y-98728042D01*
X133054910Y-98762625D01*
X133167244Y-98819862D01*
X133279371Y-98876994D01*
X133279373Y-98876994D01*
X133279376Y-98876996D01*
X133518970Y-98954845D01*
X133767793Y-98994255D01*
X133767794Y-98994255D01*
X134019716Y-98994255D01*
X134019717Y-98994255D01*
X134268540Y-98954845D01*
X134508134Y-98876996D01*
X134732600Y-98762625D01*
X134936411Y-98614548D01*
X135114548Y-98436411D01*
X135148845Y-98389206D01*
X135171743Y-98357687D01*
X135262625Y-98232600D01*
X135372178Y-98017589D01*
X145313396Y-98017589D01*
X146881192Y-98017589D01*
X146876798Y-98021983D01*
X146824137Y-98113195D01*
X146796878Y-98214928D01*
X146796878Y-98320250D01*
X146824137Y-98421983D01*
X146876798Y-98513195D01*
X146881192Y-98517589D01*
X145313396Y-98517589D01*
X145329386Y-98639052D01*
X145393851Y-98879638D01*
X145489161Y-99109737D01*
X145489166Y-99109748D01*
X145613691Y-99325430D01*
X145613702Y-99325446D01*
X145765315Y-99523032D01*
X145765321Y-99523039D01*
X145941427Y-99699145D01*
X145941434Y-99699151D01*
X146139020Y-99850764D01*
X146139036Y-99850775D01*
X146354718Y-99975300D01*
X146354729Y-99975305D01*
X146584828Y-100070615D01*
X146825414Y-100135080D01*
X146946878Y-100151070D01*
X146946878Y-98583275D01*
X146951272Y-98587669D01*
X147042484Y-98640330D01*
X147144217Y-98667589D01*
X147249539Y-98667589D01*
X147351272Y-98640330D01*
X147442484Y-98587669D01*
X147446878Y-98583275D01*
X147446878Y-100151069D01*
X147568341Y-100135080D01*
X147808927Y-100070615D01*
X148039026Y-99975305D01*
X148039037Y-99975300D01*
X148254719Y-99850775D01*
X148254735Y-99850764D01*
X148452321Y-99699151D01*
X148452328Y-99699145D01*
X148628434Y-99523039D01*
X148628440Y-99523032D01*
X148780053Y-99325446D01*
X148780064Y-99325430D01*
X148904589Y-99109748D01*
X148904594Y-99109737D01*
X148999904Y-98879638D01*
X149064369Y-98639052D01*
X149080360Y-98517589D01*
X147512564Y-98517589D01*
X147516958Y-98513195D01*
X147569619Y-98421983D01*
X147596878Y-98320250D01*
X147596878Y-98214928D01*
X147569619Y-98113195D01*
X147516958Y-98021983D01*
X147512564Y-98017589D01*
X149080359Y-98017589D01*
X149064369Y-97896125D01*
X148999904Y-97655539D01*
X148904594Y-97425440D01*
X148904589Y-97425429D01*
X148780064Y-97209747D01*
X148780053Y-97209731D01*
X148628440Y-97012145D01*
X148628434Y-97012138D01*
X148452328Y-96836032D01*
X148452321Y-96836026D01*
X148254735Y-96684413D01*
X148254719Y-96684402D01*
X148039037Y-96559877D01*
X148039026Y-96559872D01*
X147808927Y-96464562D01*
X147568341Y-96400097D01*
X147446878Y-96384105D01*
X147446878Y-97951903D01*
X147442484Y-97947509D01*
X147351272Y-97894848D01*
X147249539Y-97867589D01*
X147144217Y-97867589D01*
X147042484Y-97894848D01*
X146951272Y-97947509D01*
X146946878Y-97951903D01*
X146946878Y-96384105D01*
X146946877Y-96384105D01*
X146825414Y-96400097D01*
X146584828Y-96464562D01*
X146354729Y-96559872D01*
X146354718Y-96559877D01*
X146139036Y-96684402D01*
X146139020Y-96684413D01*
X145941434Y-96836026D01*
X145941427Y-96836032D01*
X145765321Y-97012138D01*
X145765315Y-97012145D01*
X145613702Y-97209731D01*
X145613691Y-97209747D01*
X145489166Y-97425429D01*
X145489161Y-97425440D01*
X145393851Y-97655539D01*
X145329386Y-97896125D01*
X145313396Y-98017589D01*
X135372178Y-98017589D01*
X135376996Y-98008134D01*
X135454845Y-97768540D01*
X135494255Y-97519717D01*
X135494255Y-97267793D01*
X135454845Y-97018970D01*
X135376996Y-96779376D01*
X135376994Y-96779373D01*
X135376994Y-96779371D01*
X135297814Y-96623973D01*
X135262625Y-96554910D01*
X135228071Y-96507350D01*
X135114553Y-96351105D01*
X135114549Y-96351100D01*
X134936409Y-96172960D01*
X134936404Y-96172956D01*
X134732603Y-96024887D01*
X134732602Y-96024886D01*
X134732600Y-96024885D01*
X134662502Y-95989168D01*
X134508138Y-95910515D01*
X134268540Y-95832665D01*
X134019717Y-95793255D01*
X133767793Y-95793255D01*
X133643381Y-95812960D01*
X133518969Y-95832665D01*
X133279371Y-95910515D01*
X133054906Y-96024887D01*
X132851105Y-96172956D01*
X132851100Y-96172960D01*
X132672960Y-96351100D01*
X132672956Y-96351105D01*
X132524887Y-96554906D01*
X132410515Y-96779371D01*
X132332665Y-97018969D01*
X132332665Y-97018970D01*
X132293255Y-97267793D01*
X129104896Y-97267793D01*
X128086819Y-96249716D01*
X128053334Y-96188393D01*
X128050500Y-96162035D01*
X128050500Y-87940693D01*
X128050500Y-87940691D01*
X128019799Y-87826114D01*
X127986325Y-87768136D01*
X127986325Y-87768135D01*
X127960491Y-87723389D01*
X127960487Y-87723384D01*
X126373678Y-86136575D01*
X126340193Y-86075252D01*
X126345177Y-86005560D01*
X126387049Y-85949627D01*
X126452513Y-85925210D01*
X126499676Y-85930962D01*
X126525733Y-85939429D01*
X126641009Y-85976885D01*
X126754562Y-85994870D01*
X126889833Y-86016295D01*
X126889834Y-86016295D01*
X127141756Y-86016295D01*
X127141757Y-86016295D01*
X127390580Y-85976885D01*
X127630174Y-85899036D01*
X127854640Y-85784665D01*
X128058451Y-85636588D01*
X128236588Y-85458451D01*
X128384665Y-85254640D01*
X128499036Y-85030174D01*
X128576885Y-84790580D01*
X128616295Y-84541757D01*
X128616295Y-84289833D01*
X128576885Y-84041010D01*
X128499036Y-83801416D01*
X128499034Y-83801413D01*
X128499034Y-83801411D01*
X128457542Y-83719979D01*
X128384665Y-83576950D01*
X128284134Y-83438580D01*
X128236593Y-83373145D01*
X128236589Y-83373140D01*
X128058449Y-83195000D01*
X128058444Y-83194996D01*
X127854643Y-83046927D01*
X127854642Y-83046926D01*
X127854640Y-83046925D01*
X127745613Y-82991373D01*
X127630178Y-82932555D01*
X127390580Y-82854705D01*
X127141757Y-82815295D01*
X126889833Y-82815295D01*
X126843535Y-82822628D01*
X126641009Y-82854705D01*
X126401411Y-82932555D01*
X126176946Y-83046927D01*
X125973145Y-83194996D01*
X125973140Y-83195000D01*
X125795000Y-83373140D01*
X125794996Y-83373145D01*
X125646927Y-83576946D01*
X125532555Y-83801411D01*
X125467674Y-84001095D01*
X125454705Y-84041010D01*
X125415295Y-84289833D01*
X125415295Y-84541757D01*
X125419377Y-84567528D01*
X125454705Y-84790581D01*
X125454705Y-84790584D01*
X125500626Y-84931912D01*
X125502621Y-85001753D01*
X125466541Y-85061586D01*
X125403840Y-85092414D01*
X125334426Y-85084449D01*
X125295014Y-85057911D01*
X122072667Y-81835564D01*
X122072665Y-81835562D01*
X121992789Y-81789445D01*
X121969939Y-81776252D01*
X121957831Y-81773008D01*
X121945724Y-81769764D01*
X121945721Y-81769763D01*
X121881305Y-81752503D01*
X121855360Y-81745551D01*
X121855359Y-81745551D01*
X118134886Y-81745551D01*
X118072247Y-81728567D01*
X117273112Y-81260811D01*
X117248073Y-81241479D01*
X117142663Y-81136069D01*
X117142662Y-81136068D01*
X117142661Y-81136067D01*
X116978802Y-81026580D01*
X116978792Y-81026575D01*
X116796718Y-80951157D01*
X116796710Y-80951155D01*
X116603425Y-80912708D01*
X116603422Y-80912708D01*
X116406342Y-80912708D01*
X116406339Y-80912708D01*
X116213053Y-80951155D01*
X116213045Y-80951157D01*
X116030971Y-81026575D01*
X116030963Y-81026579D01*
X115893169Y-81118650D01*
X115826492Y-81139527D01*
X115759112Y-81121042D01*
X115712422Y-81069063D01*
X115701246Y-81000093D01*
X115729132Y-80936029D01*
X115736598Y-80927866D01*
X116080167Y-80584298D01*
X123918952Y-80584298D01*
X123918952Y-80781387D01*
X123957399Y-80974671D01*
X123957401Y-80974679D01*
X124032819Y-81156753D01*
X124032824Y-81156763D01*
X124142312Y-81320623D01*
X124142315Y-81320627D01*
X124281667Y-81459979D01*
X124281671Y-81459982D01*
X124445531Y-81569470D01*
X124445535Y-81569472D01*
X124445538Y-81569474D01*
X124627616Y-81644894D01*
X124789652Y-81677125D01*
X124820907Y-81683342D01*
X124820910Y-81683343D01*
X124820912Y-81683343D01*
X125017994Y-81683343D01*
X125017995Y-81683342D01*
X125211288Y-81644894D01*
X125393366Y-81569474D01*
X125557233Y-81459982D01*
X126262277Y-80754938D01*
X126371769Y-80591071D01*
X126447189Y-80408993D01*
X126485638Y-80215697D01*
X126485638Y-80018617D01*
X126485638Y-80018614D01*
X126485637Y-80018612D01*
X126459516Y-79887292D01*
X126447189Y-79825321D01*
X126371769Y-79643243D01*
X126371767Y-79643240D01*
X126371765Y-79643236D01*
X126262277Y-79479376D01*
X126262274Y-79479372D01*
X126122922Y-79340020D01*
X126122918Y-79340017D01*
X125959058Y-79230529D01*
X125959048Y-79230524D01*
X125776974Y-79155106D01*
X125776966Y-79155104D01*
X125583681Y-79116657D01*
X125583678Y-79116657D01*
X125386598Y-79116657D01*
X125386595Y-79116657D01*
X125193309Y-79155104D01*
X125193301Y-79155106D01*
X125011227Y-79230524D01*
X125011217Y-79230529D01*
X124847357Y-79340017D01*
X124847353Y-79340020D01*
X124142315Y-80045058D01*
X124142312Y-80045062D01*
X124032824Y-80208922D01*
X124032819Y-80208932D01*
X123957401Y-80391006D01*
X123957399Y-80391014D01*
X123918952Y-80584298D01*
X116080167Y-80584298D01*
X116173935Y-80490530D01*
X116227571Y-80436893D01*
X116227575Y-80436889D01*
X116265155Y-80390254D01*
X116324881Y-80259475D01*
X116324882Y-80259470D01*
X116345342Y-80117157D01*
X116324882Y-79974843D01*
X116324881Y-79974838D01*
X116265155Y-79844059D01*
X116227575Y-79797424D01*
X115804846Y-79374695D01*
X115804845Y-79374695D01*
X114825988Y-80353553D01*
X114825988Y-80347339D01*
X114798729Y-80245606D01*
X114746068Y-80154394D01*
X114671594Y-80079920D01*
X114580382Y-80027259D01*
X114478649Y-80000000D01*
X114472433Y-80000000D01*
X115451292Y-79021141D01*
X115218398Y-78788247D01*
X122122901Y-78788247D01*
X122122901Y-78985336D01*
X122161348Y-79178620D01*
X122161350Y-79178628D01*
X122236768Y-79360702D01*
X122236773Y-79360712D01*
X122346261Y-79524572D01*
X122346264Y-79524576D01*
X122485616Y-79663928D01*
X122485620Y-79663931D01*
X122649480Y-79773419D01*
X122649484Y-79773421D01*
X122649487Y-79773423D01*
X122831565Y-79848843D01*
X123024856Y-79887291D01*
X123024859Y-79887292D01*
X123024861Y-79887292D01*
X123221943Y-79887292D01*
X123221944Y-79887291D01*
X123415237Y-79848843D01*
X123597315Y-79773423D01*
X123761182Y-79663931D01*
X124466226Y-78958887D01*
X124575718Y-78795020D01*
X124651138Y-78612942D01*
X124689587Y-78419646D01*
X124689587Y-78222566D01*
X124689587Y-78222563D01*
X124689586Y-78222561D01*
X124663465Y-78091241D01*
X124651138Y-78029270D01*
X124575718Y-77847192D01*
X124575716Y-77847189D01*
X124575714Y-77847185D01*
X124466226Y-77683325D01*
X124466223Y-77683321D01*
X124326871Y-77543969D01*
X124326867Y-77543966D01*
X124163007Y-77434478D01*
X124162997Y-77434473D01*
X123980923Y-77359055D01*
X123980915Y-77359053D01*
X123787630Y-77320606D01*
X123787627Y-77320606D01*
X123590547Y-77320606D01*
X123590544Y-77320606D01*
X123397258Y-77359053D01*
X123397250Y-77359055D01*
X123215176Y-77434473D01*
X123215166Y-77434478D01*
X123051306Y-77543966D01*
X123051302Y-77543969D01*
X122346264Y-78249007D01*
X122346261Y-78249011D01*
X122236773Y-78412871D01*
X122236768Y-78412881D01*
X122161350Y-78594955D01*
X122161348Y-78594963D01*
X122122901Y-78788247D01*
X115218398Y-78788247D01*
X115028563Y-78598412D01*
X114981928Y-78560832D01*
X114851149Y-78501106D01*
X114851144Y-78501105D01*
X114708831Y-78480645D01*
X114566517Y-78501105D01*
X114566512Y-78501106D01*
X114435733Y-78560832D01*
X114389093Y-78598416D01*
X113683526Y-79303983D01*
X113683526Y-79303984D01*
X114379540Y-80000000D01*
X114373327Y-80000000D01*
X114271594Y-80027259D01*
X114180382Y-80079920D01*
X114105908Y-80154394D01*
X114053247Y-80245606D01*
X114025988Y-80347339D01*
X114025988Y-80353552D01*
X113329972Y-79657538D01*
X113329971Y-79657538D01*
X112624404Y-80363105D01*
X112586820Y-80409745D01*
X112527094Y-80540524D01*
X112527093Y-80540529D01*
X112506633Y-80682843D01*
X85451686Y-80682843D01*
X85187311Y-80047196D01*
X85185904Y-80043658D01*
X85176384Y-80018612D01*
X84863893Y-79196486D01*
X84862554Y-79192785D01*
X84836370Y-79116657D01*
X84567997Y-78336377D01*
X84566729Y-78332484D01*
X84541071Y-78249007D01*
X84353792Y-77639690D01*
X92000000Y-77639690D01*
X92000000Y-77901879D01*
X92034220Y-78161794D01*
X92034222Y-78161805D01*
X92102075Y-78415040D01*
X92202404Y-78657256D01*
X92202409Y-78657267D01*
X92333488Y-78884301D01*
X92333494Y-78884309D01*
X92420080Y-78997150D01*
X93517037Y-77900193D01*
X93534075Y-77963778D01*
X93599901Y-78077792D01*
X93692993Y-78170884D01*
X93807007Y-78236710D01*
X93870590Y-78253747D01*
X92773633Y-79350702D01*
X92773633Y-79350703D01*
X92886475Y-79437290D01*
X92886483Y-79437296D01*
X93113517Y-79568375D01*
X93113528Y-79568380D01*
X93355744Y-79668709D01*
X93608979Y-79736562D01*
X93608990Y-79736564D01*
X93868905Y-79770784D01*
X93868920Y-79770785D01*
X94131080Y-79770785D01*
X94131094Y-79770784D01*
X94391009Y-79736564D01*
X94391020Y-79736562D01*
X94644255Y-79668709D01*
X94886471Y-79568380D01*
X94886482Y-79568375D01*
X95113516Y-79437296D01*
X95113534Y-79437284D01*
X95226365Y-79350704D01*
X95226365Y-79350702D01*
X95215965Y-79340302D01*
X94129409Y-78253747D01*
X94192993Y-78236710D01*
X94307007Y-78170884D01*
X94400099Y-78077792D01*
X94465925Y-77963778D01*
X94482962Y-77900195D01*
X95579917Y-78997150D01*
X95579919Y-78997150D01*
X95666499Y-78884319D01*
X95666511Y-78884301D01*
X95797590Y-78657267D01*
X95797595Y-78657256D01*
X95897924Y-78415040D01*
X95965777Y-78161805D01*
X95965779Y-78161794D01*
X95999999Y-77901879D01*
X96000000Y-77901865D01*
X96000000Y-77639704D01*
X95999999Y-77639690D01*
X95965779Y-77379775D01*
X95965777Y-77379764D01*
X95897924Y-77126529D01*
X95859416Y-77033562D01*
X95859415Y-77033560D01*
X95842282Y-76992196D01*
X120326850Y-76992196D01*
X120326850Y-77189285D01*
X120365297Y-77382569D01*
X120365299Y-77382577D01*
X120440717Y-77564651D01*
X120440722Y-77564661D01*
X120550210Y-77728521D01*
X120550213Y-77728525D01*
X120689565Y-77867877D01*
X120689569Y-77867880D01*
X120853429Y-77977368D01*
X120853433Y-77977370D01*
X120853436Y-77977372D01*
X121035514Y-78052792D01*
X121228805Y-78091240D01*
X121228808Y-78091241D01*
X121228810Y-78091241D01*
X121425892Y-78091241D01*
X121425893Y-78091240D01*
X121619186Y-78052792D01*
X121801264Y-77977372D01*
X121965131Y-77867880D01*
X122670175Y-77162836D01*
X122779667Y-76998969D01*
X122855087Y-76816891D01*
X122893536Y-76623595D01*
X122893536Y-76426515D01*
X122893536Y-76426512D01*
X122893535Y-76426510D01*
X122871985Y-76318173D01*
X122855087Y-76233219D01*
X122779667Y-76051141D01*
X122779665Y-76051138D01*
X122779663Y-76051134D01*
X122670175Y-75887274D01*
X122670172Y-75887270D01*
X122530820Y-75747918D01*
X122530816Y-75747915D01*
X122366956Y-75638427D01*
X122366946Y-75638422D01*
X122184872Y-75563004D01*
X122184864Y-75563002D01*
X121991579Y-75524555D01*
X121991576Y-75524555D01*
X121794496Y-75524555D01*
X121794493Y-75524555D01*
X121601207Y-75563002D01*
X121601199Y-75563004D01*
X121419125Y-75638422D01*
X121419115Y-75638427D01*
X121255255Y-75747915D01*
X121255251Y-75747918D01*
X120550213Y-76452956D01*
X120550210Y-76452960D01*
X120440722Y-76616820D01*
X120440717Y-76616830D01*
X120365299Y-76798904D01*
X120365297Y-76798912D01*
X120326850Y-76992196D01*
X95842282Y-76992196D01*
X95797598Y-76884318D01*
X95797590Y-76884302D01*
X95666511Y-76657268D01*
X95666505Y-76657260D01*
X95579918Y-76544418D01*
X95579917Y-76544418D01*
X94482962Y-77641374D01*
X94465925Y-77577792D01*
X94400099Y-77463778D01*
X94307007Y-77370686D01*
X94192993Y-77304860D01*
X94129407Y-77287822D01*
X95226365Y-76190865D01*
X95113524Y-76104279D01*
X95113516Y-76104273D01*
X94886482Y-75973194D01*
X94886471Y-75973189D01*
X94644255Y-75872860D01*
X94391020Y-75805007D01*
X94391009Y-75805005D01*
X94131094Y-75770785D01*
X93868905Y-75770785D01*
X93608990Y-75805005D01*
X93608979Y-75805007D01*
X93355744Y-75872860D01*
X93113528Y-75973189D01*
X93113517Y-75973194D01*
X92886471Y-76104281D01*
X92773633Y-76190864D01*
X92773633Y-76190865D01*
X93870590Y-77287822D01*
X93807007Y-77304860D01*
X93692993Y-77370686D01*
X93599901Y-77463778D01*
X93534075Y-77577792D01*
X93517037Y-77641375D01*
X92420080Y-76544418D01*
X92420079Y-76544418D01*
X92333496Y-76657256D01*
X92202409Y-76884302D01*
X92202404Y-76884313D01*
X92102075Y-77126529D01*
X92034222Y-77379764D01*
X92034220Y-77379775D01*
X92000000Y-77639690D01*
X84353792Y-77639690D01*
X84300906Y-77467625D01*
X84299728Y-77463544D01*
X84236158Y-77228320D01*
X84063954Y-76591116D01*
X84062889Y-76586875D01*
X84025600Y-76426510D01*
X83858456Y-75707678D01*
X83857522Y-75703294D01*
X83759089Y-75196144D01*
X118530799Y-75196144D01*
X118530799Y-75393233D01*
X118569246Y-75586517D01*
X118569248Y-75586525D01*
X118644666Y-75768599D01*
X118644671Y-75768609D01*
X118754159Y-75932469D01*
X118754162Y-75932473D01*
X118893514Y-76071825D01*
X118893518Y-76071828D01*
X119057378Y-76181316D01*
X119057382Y-76181318D01*
X119057385Y-76181320D01*
X119239463Y-76256740D01*
X119432754Y-76295188D01*
X119432757Y-76295189D01*
X119432759Y-76295189D01*
X119629841Y-76295189D01*
X119629842Y-76295188D01*
X119823135Y-76256740D01*
X120005213Y-76181320D01*
X120169080Y-76071828D01*
X120874124Y-75366784D01*
X120983616Y-75202917D01*
X121059036Y-75020839D01*
X121097485Y-74827543D01*
X121097485Y-74630463D01*
X121097485Y-74630460D01*
X121097484Y-74630458D01*
X121067954Y-74482001D01*
X121059036Y-74437167D01*
X120983616Y-74255089D01*
X120983614Y-74255086D01*
X120983612Y-74255082D01*
X120874124Y-74091222D01*
X120874121Y-74091218D01*
X120734769Y-73951866D01*
X120734765Y-73951863D01*
X120570905Y-73842375D01*
X120570895Y-73842370D01*
X120388821Y-73766952D01*
X120388813Y-73766950D01*
X120195528Y-73728503D01*
X120195525Y-73728503D01*
X119998445Y-73728503D01*
X119998442Y-73728503D01*
X119805156Y-73766950D01*
X119805148Y-73766952D01*
X119623074Y-73842370D01*
X119623064Y-73842375D01*
X119459204Y-73951863D01*
X119459200Y-73951866D01*
X118754162Y-74656904D01*
X118754159Y-74656908D01*
X118644671Y-74820768D01*
X118644666Y-74820778D01*
X118569248Y-75002852D01*
X118569246Y-75002860D01*
X118530799Y-75196144D01*
X83759089Y-75196144D01*
X83685731Y-74818190D01*
X83684933Y-74813612D01*
X83547089Y-73923471D01*
X83546437Y-73918637D01*
X83537687Y-73842370D01*
X83443824Y-73024240D01*
X83443354Y-73019232D01*
X83403941Y-72483775D01*
X83377274Y-72121486D01*
X83377002Y-72116293D01*
X83352625Y-71339725D01*
X83348739Y-71215931D01*
X83348688Y-71210568D01*
X83359538Y-70308455D01*
X83359726Y-70302976D01*
X83411146Y-69397064D01*
X83408969Y-69153731D01*
X83409066Y-69147617D01*
X83418717Y-68910809D01*
X83419118Y-68904693D01*
X83440217Y-68671372D01*
X83440913Y-68665335D01*
X83452646Y-68581613D01*
X83473124Y-68435487D01*
X83474091Y-68429622D01*
X83517073Y-68203307D01*
X83518303Y-68197580D01*
X83571725Y-67974820D01*
X83573189Y-67969291D01*
X83622948Y-67797648D01*
X115599500Y-67797648D01*
X115599500Y-68002351D01*
X115631522Y-68204534D01*
X115694781Y-68399223D01*
X115742282Y-68492447D01*
X115785545Y-68577356D01*
X115787715Y-68581613D01*
X115908028Y-68747213D01*
X116052786Y-68891971D01*
X116196603Y-68996458D01*
X116218390Y-69012287D01*
X116322057Y-69065108D01*
X116400776Y-69105218D01*
X116400778Y-69105218D01*
X116400781Y-69105220D01*
X116505137Y-69139127D01*
X116595465Y-69168477D01*
X116696557Y-69184488D01*
X116797648Y-69200500D01*
X116797649Y-69200500D01*
X117002351Y-69200500D01*
X117002352Y-69200500D01*
X117204534Y-69168477D01*
X117399219Y-69105220D01*
X117581610Y-69012287D01*
X117585995Y-69009100D01*
X117607729Y-68996459D01*
X119009880Y-68361540D01*
X119061030Y-68350500D01*
X124262035Y-68350500D01*
X124329074Y-68370185D01*
X124349716Y-68386819D01*
X129913181Y-73950284D01*
X129946666Y-74011607D01*
X129949500Y-74037965D01*
X129949500Y-92309107D01*
X129947167Y-92333048D01*
X129649535Y-93845589D01*
X129638353Y-93877942D01*
X129594721Y-93963573D01*
X129516870Y-94203174D01*
X129504241Y-94282909D01*
X129477460Y-94451998D01*
X129477460Y-94703922D01*
X129487945Y-94770119D01*
X129516870Y-94952745D01*
X129594720Y-95192343D01*
X129671511Y-95343052D01*
X129703186Y-95405218D01*
X129709092Y-95416808D01*
X129857161Y-95620609D01*
X129857165Y-95620614D01*
X129913181Y-95676630D01*
X129946666Y-95737953D01*
X129949500Y-95764311D01*
X129949500Y-95837269D01*
X129980201Y-95951846D01*
X130039511Y-96054573D01*
X130123387Y-96138449D01*
X130226114Y-96197759D01*
X130340691Y-96228460D01*
X130340694Y-96228460D01*
X130459306Y-96228460D01*
X130459309Y-96228460D01*
X130573886Y-96197759D01*
X130643487Y-96157574D01*
X130711384Y-96141101D01*
X130724876Y-96142487D01*
X130951998Y-96178460D01*
X130951999Y-96178460D01*
X131203921Y-96178460D01*
X131203922Y-96178460D01*
X131452745Y-96139050D01*
X131692339Y-96061201D01*
X131916805Y-95946830D01*
X132120616Y-95798753D01*
X132298753Y-95620616D01*
X132446830Y-95416805D01*
X132561201Y-95192339D01*
X132639050Y-94952745D01*
X132678460Y-94703922D01*
X132678460Y-94451998D01*
X132652775Y-94289833D01*
X135415295Y-94289833D01*
X135415295Y-94541757D01*
X135440980Y-94703922D01*
X135454705Y-94790580D01*
X135532555Y-95030178D01*
X135595847Y-95154394D01*
X135641191Y-95243387D01*
X135646927Y-95254643D01*
X135794996Y-95458444D01*
X135795000Y-95458449D01*
X135973140Y-95636589D01*
X135973145Y-95636593D01*
X136028252Y-95676630D01*
X136176950Y-95784665D01*
X136309415Y-95852159D01*
X136401411Y-95899034D01*
X136401413Y-95899034D01*
X136401416Y-95899036D01*
X136641010Y-95976885D01*
X136889833Y-96016295D01*
X136889834Y-96016295D01*
X137141756Y-96016295D01*
X137141757Y-96016295D01*
X137390580Y-95976885D01*
X137630174Y-95899036D01*
X137854640Y-95784665D01*
X138058451Y-95636588D01*
X138236588Y-95458451D01*
X138384665Y-95254640D01*
X138499036Y-95030174D01*
X138576885Y-94790580D01*
X138583312Y-94750000D01*
X141866518Y-94750000D01*
X143434314Y-94750000D01*
X143429920Y-94754394D01*
X143377259Y-94845606D01*
X143350000Y-94947339D01*
X143350000Y-95052661D01*
X143377259Y-95154394D01*
X143429920Y-95245606D01*
X143434314Y-95250000D01*
X141866518Y-95250000D01*
X141882508Y-95371463D01*
X141946973Y-95612049D01*
X142042283Y-95842148D01*
X142042288Y-95842159D01*
X142166813Y-96057841D01*
X142166824Y-96057857D01*
X142318437Y-96255443D01*
X142318443Y-96255450D01*
X142494549Y-96431556D01*
X142494556Y-96431562D01*
X142692142Y-96583175D01*
X142692158Y-96583186D01*
X142907840Y-96707711D01*
X142907851Y-96707716D01*
X143137950Y-96803026D01*
X143378536Y-96867491D01*
X143500000Y-96883481D01*
X143500000Y-95315686D01*
X143504394Y-95320080D01*
X143595606Y-95372741D01*
X143697339Y-95400000D01*
X143802661Y-95400000D01*
X143904394Y-95372741D01*
X143995606Y-95320080D01*
X144000000Y-95315686D01*
X144000000Y-96883480D01*
X144121463Y-96867491D01*
X144362049Y-96803026D01*
X144592148Y-96707716D01*
X144592159Y-96707711D01*
X144807841Y-96583186D01*
X144807857Y-96583175D01*
X145005443Y-96431562D01*
X145005450Y-96431556D01*
X145181556Y-96255450D01*
X145181562Y-96255443D01*
X145333175Y-96057857D01*
X145333186Y-96057841D01*
X145457711Y-95842159D01*
X145457716Y-95842148D01*
X145553026Y-95612049D01*
X145617491Y-95371463D01*
X145633482Y-95250000D01*
X144065686Y-95250000D01*
X144070080Y-95245606D01*
X144122741Y-95154394D01*
X144150000Y-95052661D01*
X144150000Y-94947339D01*
X144122741Y-94845606D01*
X144070080Y-94754394D01*
X144065686Y-94750000D01*
X145633481Y-94750000D01*
X145617491Y-94628536D01*
X145553026Y-94387950D01*
X145457716Y-94157851D01*
X145457711Y-94157840D01*
X145333186Y-93942158D01*
X145333175Y-93942142D01*
X145181562Y-93744556D01*
X145181556Y-93744549D01*
X145005450Y-93568443D01*
X145005443Y-93568437D01*
X144807857Y-93416824D01*
X144807841Y-93416813D01*
X144592159Y-93292288D01*
X144592148Y-93292283D01*
X144362049Y-93196973D01*
X144121463Y-93132508D01*
X144000000Y-93116516D01*
X144000000Y-94684314D01*
X143995606Y-94679920D01*
X143904394Y-94627259D01*
X143802661Y-94600000D01*
X143697339Y-94600000D01*
X143595606Y-94627259D01*
X143504394Y-94679920D01*
X143500000Y-94684314D01*
X143500000Y-93116516D01*
X143499999Y-93116516D01*
X143378536Y-93132508D01*
X143137950Y-93196973D01*
X142907851Y-93292283D01*
X142907840Y-93292288D01*
X142692158Y-93416813D01*
X142692142Y-93416824D01*
X142494556Y-93568437D01*
X142494549Y-93568443D01*
X142318443Y-93744549D01*
X142318437Y-93744556D01*
X142166824Y-93942142D01*
X142166813Y-93942158D01*
X142042288Y-94157840D01*
X142042283Y-94157851D01*
X141946973Y-94387950D01*
X141882508Y-94628536D01*
X141866518Y-94750000D01*
X138583312Y-94750000D01*
X138616295Y-94541757D01*
X138616295Y-94289833D01*
X138576885Y-94041010D01*
X138499036Y-93801416D01*
X138499034Y-93801413D01*
X138499034Y-93801411D01*
X138457542Y-93719979D01*
X138384665Y-93576950D01*
X138354408Y-93535305D01*
X138236593Y-93373145D01*
X138236589Y-93373140D01*
X138058449Y-93195000D01*
X138058444Y-93194996D01*
X137854643Y-93046927D01*
X137854642Y-93046926D01*
X137854640Y-93046925D01*
X137764945Y-93001223D01*
X137630178Y-92932555D01*
X137390580Y-92854705D01*
X137255662Y-92833336D01*
X137141757Y-92815295D01*
X136889833Y-92815295D01*
X136775928Y-92833336D01*
X136641009Y-92854705D01*
X136401411Y-92932555D01*
X136176946Y-93046927D01*
X135973145Y-93194996D01*
X135973140Y-93195000D01*
X135795000Y-93373140D01*
X135794996Y-93373145D01*
X135646927Y-93576946D01*
X135532555Y-93801411D01*
X135454705Y-94041009D01*
X135429020Y-94203175D01*
X135415295Y-94289833D01*
X132652775Y-94289833D01*
X132639050Y-94203175D01*
X132561201Y-93963581D01*
X132561199Y-93963578D01*
X132561199Y-93963576D01*
X132487268Y-93818480D01*
X132446830Y-93739115D01*
X132357331Y-93615930D01*
X132298758Y-93535310D01*
X132298754Y-93535305D01*
X132120614Y-93357165D01*
X132120609Y-93357161D01*
X131916806Y-93209090D01*
X131883427Y-93192083D01*
X131862272Y-93181303D01*
X131835337Y-93162736D01*
X131833519Y-93161090D01*
X131502730Y-92861556D01*
X130891269Y-92307869D01*
X130854788Y-92248279D01*
X130850500Y-92215953D01*
X130850500Y-91474038D01*
X132599500Y-91474038D01*
X132599500Y-91725962D01*
X132635439Y-91952869D01*
X132638910Y-91974785D01*
X132716760Y-92214383D01*
X132764394Y-92307869D01*
X132828127Y-92432952D01*
X132831132Y-92438848D01*
X132979201Y-92642649D01*
X132979205Y-92642654D01*
X133157345Y-92820794D01*
X133157350Y-92820798D01*
X133332024Y-92947705D01*
X133361155Y-92968870D01*
X133504184Y-93041747D01*
X133585616Y-93083239D01*
X133585618Y-93083239D01*
X133585621Y-93083241D01*
X133825215Y-93161090D01*
X134074038Y-93200500D01*
X134074039Y-93200500D01*
X134325961Y-93200500D01*
X134325962Y-93200500D01*
X134574785Y-93161090D01*
X134814379Y-93083241D01*
X135038845Y-92968870D01*
X135242656Y-92820793D01*
X135420793Y-92642656D01*
X135568870Y-92438845D01*
X135683241Y-92214379D01*
X135761090Y-91974785D01*
X135800500Y-91725962D01*
X135800500Y-91474038D01*
X135779033Y-91338504D01*
X138613966Y-91338504D01*
X138613966Y-91590428D01*
X138647788Y-91803967D01*
X138653376Y-91839251D01*
X138731226Y-92078849D01*
X138845598Y-92303314D01*
X138993667Y-92507115D01*
X138993671Y-92507120D01*
X139171811Y-92685260D01*
X139171816Y-92685264D01*
X139349583Y-92814418D01*
X139375621Y-92833336D01*
X139515659Y-92904689D01*
X139600082Y-92947705D01*
X139600084Y-92947705D01*
X139600087Y-92947707D01*
X139839681Y-93025556D01*
X140088504Y-93064966D01*
X140088505Y-93064966D01*
X140340427Y-93064966D01*
X140340428Y-93064966D01*
X140589251Y-93025556D01*
X140828845Y-92947707D01*
X141053311Y-92833336D01*
X141257122Y-92685259D01*
X141435259Y-92507122D01*
X141583336Y-92303311D01*
X141697707Y-92078845D01*
X141775556Y-91839251D01*
X141814966Y-91590428D01*
X141814966Y-91338504D01*
X141775556Y-91089681D01*
X141697707Y-90850087D01*
X141697705Y-90850084D01*
X141697705Y-90850082D01*
X141635674Y-90728341D01*
X141583336Y-90625621D01*
X141529306Y-90551255D01*
X141435264Y-90421816D01*
X141435260Y-90421811D01*
X141257120Y-90243671D01*
X141257115Y-90243667D01*
X141053314Y-90095598D01*
X141053313Y-90095597D01*
X141053311Y-90095596D01*
X140945542Y-90040685D01*
X140828849Y-89981226D01*
X140589251Y-89903376D01*
X140443600Y-89880307D01*
X140340428Y-89863966D01*
X140088504Y-89863966D01*
X139985332Y-89880307D01*
X139839680Y-89903376D01*
X139600082Y-89981226D01*
X139375617Y-90095598D01*
X139171816Y-90243667D01*
X139171811Y-90243671D01*
X138993671Y-90421811D01*
X138993667Y-90421816D01*
X138845598Y-90625617D01*
X138731226Y-90850082D01*
X138653376Y-91089680D01*
X138617880Y-91313793D01*
X138613966Y-91338504D01*
X135779033Y-91338504D01*
X135761090Y-91225215D01*
X135683241Y-90985621D01*
X135683239Y-90985618D01*
X135683239Y-90985616D01*
X135636291Y-90893476D01*
X135568870Y-90761155D01*
X135512616Y-90683728D01*
X135420798Y-90557350D01*
X135420794Y-90557345D01*
X135242654Y-90379205D01*
X135242649Y-90379201D01*
X135038848Y-90231132D01*
X135038847Y-90231131D01*
X135038845Y-90231130D01*
X134946447Y-90184051D01*
X134814383Y-90116760D01*
X134574785Y-90038910D01*
X134437910Y-90017231D01*
X134325962Y-89999500D01*
X134074038Y-89999500D01*
X133962090Y-90017231D01*
X133825214Y-90038910D01*
X133585616Y-90116760D01*
X133361151Y-90231132D01*
X133157350Y-90379201D01*
X133157345Y-90379205D01*
X132979205Y-90557345D01*
X132979201Y-90557350D01*
X132831132Y-90761151D01*
X132716760Y-90985616D01*
X132638910Y-91225214D01*
X132622674Y-91327722D01*
X132599500Y-91474038D01*
X130850500Y-91474038D01*
X130850500Y-73740692D01*
X130826286Y-73650325D01*
X130826286Y-73650324D01*
X130823544Y-73640091D01*
X130819799Y-73626113D01*
X130760489Y-73523386D01*
X124776614Y-67539511D01*
X124673887Y-67480201D01*
X124673886Y-67480200D01*
X124673885Y-67480200D01*
X124673883Y-67480199D01*
X124646487Y-67472859D01*
X124646486Y-67472858D01*
X124646486Y-67472859D01*
X124602897Y-67461179D01*
X124559309Y-67449500D01*
X124559308Y-67449500D01*
X119061033Y-67449500D01*
X119009883Y-67438459D01*
X118846420Y-67364440D01*
X117607727Y-66803538D01*
X117585992Y-66790897D01*
X117581610Y-66787713D01*
X117485148Y-66738563D01*
X117399223Y-66694781D01*
X117204534Y-66631522D01*
X117029995Y-66603878D01*
X117002352Y-66599500D01*
X116797648Y-66599500D01*
X116773329Y-66603351D01*
X116595465Y-66631522D01*
X116400776Y-66694781D01*
X116218386Y-66787715D01*
X116052786Y-66908028D01*
X115908028Y-67052786D01*
X115787715Y-67218386D01*
X115694781Y-67400776D01*
X115631522Y-67595465D01*
X115599500Y-67797648D01*
X83622948Y-67797648D01*
X83636710Y-67750175D01*
X83638405Y-67744794D01*
X83711688Y-67529389D01*
X83713560Y-67524265D01*
X83796295Y-67312568D01*
X83798342Y-67307648D01*
X83890182Y-67099769D01*
X83892375Y-67095075D01*
X83993004Y-66891043D01*
X83995301Y-66886617D01*
X84104383Y-66686514D01*
X84106810Y-66682267D01*
X84137139Y-66631522D01*
X84223972Y-66486236D01*
X84226459Y-66482250D01*
X84350815Y-66291196D01*
X84354650Y-66285644D01*
X84627229Y-65913326D01*
X84632498Y-65906628D01*
X84931391Y-65552580D01*
X84936731Y-65546654D01*
X85259886Y-65210560D01*
X85265254Y-65205307D01*
X85609870Y-64887833D01*
X85615174Y-64883219D01*
X85978464Y-64584995D01*
X85983731Y-64580905D01*
X86362865Y-64302578D01*
X86368067Y-64298963D01*
X86760154Y-64041203D01*
X86765381Y-64037950D01*
X87167563Y-63801380D01*
X87172795Y-63798471D01*
X87584833Y-63582328D01*
X89545430Y-62526472D01*
X89547376Y-62525449D01*
X91052989Y-61752155D01*
X115300000Y-61752155D01*
X115300000Y-62650000D01*
X116524722Y-62650000D01*
X116480667Y-62726306D01*
X116450000Y-62840756D01*
X116450000Y-62959244D01*
X116480667Y-63073694D01*
X116524722Y-63150000D01*
X115300000Y-63150000D01*
X115300000Y-64047844D01*
X115306401Y-64107372D01*
X115306403Y-64107379D01*
X115356645Y-64242086D01*
X115356649Y-64242093D01*
X115442809Y-64357187D01*
X115442812Y-64357190D01*
X115557906Y-64443350D01*
X115557913Y-64443354D01*
X115692620Y-64493596D01*
X115692627Y-64493598D01*
X115752155Y-64499999D01*
X115752172Y-64500000D01*
X116650000Y-64500000D01*
X116650000Y-63275277D01*
X116726306Y-63319333D01*
X116840756Y-63350000D01*
X116959244Y-63350000D01*
X117073694Y-63319333D01*
X117150000Y-63275277D01*
X117150000Y-64500000D01*
X118047828Y-64500000D01*
X118047844Y-64499999D01*
X118107372Y-64493598D01*
X118107379Y-64493596D01*
X118242086Y-64443354D01*
X118242093Y-64443350D01*
X118357187Y-64357190D01*
X118357190Y-64357187D01*
X118443350Y-64242093D01*
X118443354Y-64242086D01*
X118493596Y-64107379D01*
X118493598Y-64107372D01*
X118499999Y-64047844D01*
X118500000Y-64047827D01*
X118500000Y-63150000D01*
X117275278Y-63150000D01*
X117319333Y-63073694D01*
X117350000Y-62959244D01*
X117350000Y-62840756D01*
X117319333Y-62726306D01*
X117275278Y-62650000D01*
X118500000Y-62650000D01*
X118500000Y-61752172D01*
X118499999Y-61752155D01*
X118493598Y-61692627D01*
X118493596Y-61692620D01*
X118443354Y-61557913D01*
X118443350Y-61557906D01*
X118357190Y-61442812D01*
X118357187Y-61442809D01*
X118242093Y-61356649D01*
X118242086Y-61356645D01*
X118107379Y-61306403D01*
X118107372Y-61306401D01*
X118047844Y-61300000D01*
X117150000Y-61300000D01*
X117150000Y-62524722D01*
X117073694Y-62480667D01*
X116959244Y-62450000D01*
X116840756Y-62450000D01*
X116726306Y-62480667D01*
X116650000Y-62524722D01*
X116650000Y-61300000D01*
X115752155Y-61300000D01*
X115692627Y-61306401D01*
X115692620Y-61306403D01*
X115557913Y-61356645D01*
X115557906Y-61356649D01*
X115442812Y-61442809D01*
X115442809Y-61442812D01*
X115356649Y-61557906D01*
X115356645Y-61557913D01*
X115306403Y-61692620D01*
X115306401Y-61692627D01*
X115300000Y-61752155D01*
X91052989Y-61752155D01*
X91529236Y-61507551D01*
X91531477Y-61506431D01*
X93536145Y-60531385D01*
X93538680Y-60530189D01*
X95567046Y-59603252D01*
X95569901Y-59601993D01*
X97622552Y-58728561D01*
X97625690Y-58727278D01*
X99703493Y-57912617D01*
X99706963Y-57911319D01*
X101810551Y-57160791D01*
X101814401Y-57159489D01*
X103945716Y-56478023D01*
X103947675Y-56477416D01*
X105862127Y-55903274D01*
X105863350Y-55902915D01*
X107789081Y-55349823D01*
X107791184Y-55349241D01*
X109727617Y-54832487D01*
X109730712Y-54831703D01*
X111678389Y-54366225D01*
X111682354Y-54365348D01*
X113642191Y-53966006D01*
X113645773Y-53965332D01*
X114629226Y-53795345D01*
X114631926Y-53794909D01*
X115619013Y-53646985D01*
X115621924Y-53646584D01*
X116612058Y-53522695D01*
X116615267Y-53522336D01*
X117608510Y-53424343D01*
X117611896Y-53424056D01*
X118608324Y-53353818D01*
X118611938Y-53353617D01*
X119611053Y-53313019D01*
X119615589Y-53312919D01*
X119847583Y-53311987D01*
X120208445Y-53310539D01*
X120210521Y-53310548D01*
G37*
G04 #@! TD.AperFunction*
G04 #@! TA.AperFunction,Conductor*
G36*
X147845322Y-128184518D02*
G01*
X147847146Y-128186881D01*
X148389404Y-129113299D01*
X148390626Y-129122170D01*
X148387948Y-129127097D01*
X147599298Y-129990982D01*
X147591189Y-129994782D01*
X147586168Y-129993899D01*
X146804150Y-129668999D01*
X146797825Y-129662660D01*
X146797669Y-129654128D01*
X147340927Y-128188723D01*
X147347016Y-128182158D01*
X147351897Y-128181091D01*
X147837049Y-128181091D01*
X147845322Y-128184518D01*
G37*
G04 #@! TD.AperFunction*
G04 #@! TA.AperFunction,Conductor*
G36*
X147231362Y-104627600D02*
G01*
X148354991Y-105418348D01*
X148359784Y-105425912D01*
X148359343Y-105431657D01*
X147846443Y-106951467D01*
X147840550Y-106958210D01*
X147835357Y-106959426D01*
X147349443Y-106959426D01*
X147341170Y-106955999D01*
X147340244Y-106954956D01*
X147183963Y-106756110D01*
X146393387Y-105750208D01*
X146390970Y-105741588D01*
X146393195Y-105736002D01*
X147215240Y-104630186D01*
X147222924Y-104625593D01*
X147231362Y-104627600D01*
G37*
G04 #@! TD.AperFunction*
G04 #@! TA.AperFunction,Conductor*
G36*
X130653343Y-92369657D02*
G01*
X131744698Y-93357893D01*
X131748531Y-93365987D01*
X131747077Y-93372240D01*
X131083435Y-94569084D01*
X131076426Y-94574657D01*
X131067896Y-94573837D01*
X129846657Y-93952251D01*
X129840838Y-93945444D01*
X129840484Y-93939565D01*
X129952120Y-93372240D01*
X130148142Y-92376070D01*
X130153102Y-92368615D01*
X130159622Y-92366630D01*
X130645490Y-92366630D01*
X130653343Y-92369657D01*
G37*
G04 #@! TD.AperFunction*
G04 #@! TA.AperFunction,Conductor*
G36*
X117520159Y-66989472D02*
G01*
X118971990Y-67646887D01*
X118978113Y-67653421D01*
X118978864Y-67657545D01*
X118978864Y-68142454D01*
X118975437Y-68150727D01*
X118971990Y-68153112D01*
X117520160Y-68810526D01*
X117511210Y-68810817D01*
X117505612Y-68806376D01*
X116903354Y-67906506D01*
X116901601Y-67897726D01*
X116903353Y-67893494D01*
X117505613Y-66993621D01*
X117513060Y-66988654D01*
X117520159Y-66989472D01*
G37*
G04 #@! TD.AperFunction*
G04 #@! TA.AperFunction,Conductor*
G36*
X141067785Y-104575861D02*
G01*
X141075282Y-104580755D01*
X141077180Y-104589190D01*
X140861983Y-105947279D01*
X140857303Y-105954914D01*
X140850990Y-105957134D01*
X139392638Y-106027369D01*
X139384209Y-106024345D01*
X139380389Y-106016246D01*
X139380375Y-106015683D01*
X139380375Y-105529527D01*
X139380788Y-105526446D01*
X139636619Y-104589190D01*
X139707037Y-104331205D01*
X139712521Y-104324128D01*
X139720484Y-104322789D01*
X141067785Y-104575861D01*
G37*
G04 #@! TD.AperFunction*
G04 #@! TA.AperFunction,Conductor*
G36*
X117104791Y-81400403D02*
G01*
X117181549Y-81445331D01*
X118031211Y-81942662D01*
X118036619Y-81949797D01*
X118037000Y-81952758D01*
X118037000Y-82437910D01*
X118033573Y-82446183D01*
X118029367Y-82448880D01*
X116563962Y-82992138D01*
X116555014Y-82991801D01*
X116549091Y-82985658D01*
X116224190Y-82203637D01*
X116224182Y-82194684D01*
X116227105Y-82190513D01*
X117090994Y-81401858D01*
X117099413Y-81398812D01*
X117104791Y-81400403D01*
G37*
G04 #@! TD.AperFunction*
M02*
