M48
; DRILL file {KiCad 8.0.2} date 2024-12-10T10:09:29-0700
; FORMAT={-:-/ absolute / metric / decimal}
; #@! TF.CreationDate,2024-12-10T10:09:29-07:00
; #@! TF.GenerationSoftware,Kicad,Pcbnew,8.0.2
; #@! TF.FileFunction,Plated,1,2,PTH
FMAT,2
METRIC
; #@! TA.AperFunction,Plated,PTH,ViaDrill
T1C0.300
; #@! TA.AperFunction,Plated,PTH,ComponentDrill
T2C0.500
; #@! TA.AperFunction,Plated,PTH,ComponentDrill
T3C0.762
; #@! TA.AperFunction,Plated,PTH,ComponentDrill
T4C0.800
; #@! TA.AperFunction,Plated,PTH,ComponentDrill
T5C0.900
; #@! TA.AperFunction,Plated,PTH,ComponentDrill
T6C1.000
; #@! TA.AperFunction,Plated,PTH,ComponentDrill
T7C1.300
; #@! TA.AperFunction,Plated,PTH,ComponentDrill
T8C1.500
; #@! TA.AperFunction,Plated,PTH,ComponentDrill
T9C1.900
%
G90
G05
T1
X143.5Y-96.25
X143.5Y-98.75
X143.5Y-101.25
X146.0Y-96.25
X146.0Y-98.75
X146.0Y-101.25
X148.5Y-96.25
X148.5Y-98.75
X148.5Y-101.25
T2
X208.1Y-126.6
T3
X117.1Y-64.1
X119.6Y-66.6
T4
X105.6Y-75.79
X105.6Y-83.41
X110.6Y-75.79
X110.6Y-83.41
X115.3Y-76.3
X115.3Y-78.84
X115.3Y-81.38
X115.3Y-83.92
X122.92Y-76.3
X122.92Y-78.84
X122.92Y-81.38
X122.92Y-83.92
X128.35Y-76.35
X128.35Y-83.97
X133.1Y-78.85
X133.1Y-83.85
X136.98Y-108.1
X136.98Y-112.6
X144.6Y-108.1
X144.6Y-112.6
X149.6Y-116.6
X149.6Y-121.6
X153.1Y-115.29
X153.1Y-122.91
X156.78Y-112.78
X156.78Y-115.32
X156.78Y-117.86
X156.78Y-120.4
X157.1Y-124.6
X157.1Y-129.29
X157.1Y-136.91
X162.1Y-124.6
X164.4Y-112.78
X164.4Y-115.32
X164.4Y-117.86
X164.4Y-120.4
X169.29Y-117.85
X169.29Y-121.6
X176.91Y-117.85
X176.91Y-121.6
X196.29Y-126.6
X203.91Y-126.6
T5
X119.6Y-61.6
X122.1Y-64.1
X159.686Y-102.186
X161.1Y-103.6
X162.514Y-105.014
T6
X97.1Y-77.1
X97.1Y-82.1
T7
X180.843Y-124.631
X189.767Y-129.791
X191.145Y-124.984
T8
X158.201Y-100.701
X163.999Y-106.499
T9
X139.5Y-98.6
X152.7Y-98.6
M30
