G04 #@! TF.GenerationSoftware,KiCad,Pcbnew,8.0.2*
G04 #@! TF.CreationDate,2024-12-10T10:09:32-07:00*
G04 #@! TF.ProjectId,Makerspace_THT_Workshop,4d616b65-7273-4706-9163-655f5448545f,V1.0*
G04 #@! TF.SameCoordinates,Original*
G04 #@! TF.FileFunction,Legend,Top*
G04 #@! TF.FilePolarity,Positive*
%FSLAX46Y46*%
G04 Gerber Fmt 4.6, Leading zero omitted, Abs format (unit mm)*
G04 Created by KiCad (PCBNEW 8.0.2) date 2024-12-10 10:09:32*
%MOMM*%
%LPD*%
G01*
G04 APERTURE LIST*
G04 Aperture macros list*
%AMHorizOval*
0 Thick line with rounded ends*
0 $1 width*
0 $2 $3 position (X,Y) of the first rounded end (center of the circle)*
0 $4 $5 position (X,Y) of the second rounded end (center of the circle)*
0 Add line between two ends*
20,1,$1,$2,$3,$4,$5,0*
0 Add two circle primitives to create the rounded ends*
1,1,$1,$2,$3*
1,1,$1,$4,$5*%
%AMRotRect*
0 Rectangle, with rotation*
0 The origin of the aperture is its center*
0 $1 length*
0 $2 width*
0 $3 Rotation angle, in degrees counterclockwise*
0 Add horizontal line*
21,1,$1,$2,0,0,$3*%
G04 Aperture macros list end*
%ADD10C,0.291041*%
%ADD11C,0.150000*%
%ADD12C,0.120000*%
%ADD13R,1.800000X1.800000*%
%ADD14C,1.524000*%
%ADD15C,2.000000*%
%ADD16C,2.340000*%
%ADD17R,0.850000X0.850000*%
%ADD18HorizOval,2.200000X0.459619X0.459619X-0.459619X-0.459619X0*%
%ADD19RotRect,1.500000X2.500000X135.000000*%
%ADD20HorizOval,1.500000X0.353553X0.353553X-0.353553X-0.353553X0*%
%ADD21R,2.000000X2.000000*%
%ADD22R,2.400000X1.600000*%
%ADD23O,2.400000X1.600000*%
%ADD24C,3.000000*%
%ADD25C,9.000000*%
G04 APERTURE END LIST*
D10*
X118603910Y-91342786D02*
X118761300Y-91362053D01*
X118919190Y-91395090D01*
X119077027Y-91442994D01*
X119234257Y-91506865D01*
X119390329Y-91587803D01*
X119544688Y-91686906D01*
X119696782Y-91805275D01*
X119846059Y-91944006D01*
X119991965Y-92104201D01*
X120133947Y-92286958D01*
X120410396Y-92680169D01*
X120679436Y-93079295D01*
X121189541Y-93878027D01*
X121652749Y-94648620D01*
X122057550Y-95356542D01*
X122645887Y-96446243D01*
X122862463Y-96870868D01*
X123508213Y-98112337D01*
X123967514Y-98973523D01*
X124129805Y-99262790D01*
X124181427Y-99346911D01*
X124208534Y-99381099D01*
X124231352Y-99411612D01*
X124270850Y-99485344D01*
X124389868Y-99737522D01*
X124717859Y-100486157D01*
X125172612Y-101563911D01*
X125772882Y-103000931D01*
X124623015Y-105962417D01*
X124614355Y-105970339D01*
X124603441Y-105986793D01*
X124574960Y-106043143D01*
X124492149Y-106234521D01*
X124376321Y-106502065D01*
X124306571Y-106653622D01*
X124229219Y-106811287D01*
X124144485Y-106970751D01*
X124052584Y-107127702D01*
X123953736Y-107277829D01*
X123901774Y-107348986D01*
X123848157Y-107416821D01*
X123792911Y-107480795D01*
X123736065Y-107540368D01*
X123677645Y-107595003D01*
X123617678Y-107644159D01*
X123556192Y-107687299D01*
X123493214Y-107723883D01*
X123428770Y-107753372D01*
X123362889Y-107775229D01*
X122717002Y-107947662D01*
X122445654Y-108011275D01*
X122321273Y-108035477D01*
X122203810Y-108053865D01*
X122092807Y-108065880D01*
X121987804Y-108070964D01*
X121888344Y-108068559D01*
X121793967Y-108058106D01*
X121704215Y-108039047D01*
X121618630Y-108010823D01*
X121536753Y-107972877D01*
X121458125Y-107924650D01*
X121382289Y-107865583D01*
X121308784Y-107795119D01*
X121237154Y-107712699D01*
X121166939Y-107617764D01*
X121097681Y-107509756D01*
X121028921Y-107388118D01*
X120960201Y-107252290D01*
X120891062Y-107101714D01*
X120821045Y-106935832D01*
X120749693Y-106754086D01*
X120601146Y-106340766D01*
X120441754Y-105857289D01*
X120267847Y-105299188D01*
X118720328Y-100325005D01*
X117902350Y-97738434D01*
X116509583Y-92742158D01*
X116386787Y-92177841D01*
X116486619Y-92097478D01*
X116604775Y-92010213D01*
X116762526Y-91903284D01*
X116955450Y-91785484D01*
X117179122Y-91665604D01*
X117301107Y-91607633D01*
X117429121Y-91552440D01*
X117562610Y-91501123D01*
X117701022Y-91454783D01*
X117843804Y-91414517D01*
X117990403Y-91381426D01*
X118140266Y-91356608D01*
X118292840Y-91341163D01*
X118447572Y-91336189D01*
X118603910Y-91342786D01*
X125570964Y-50806680D02*
X125998838Y-50822178D01*
X126278692Y-50840605D01*
X126440938Y-50858300D01*
X126534243Y-50876849D01*
X127211319Y-50978459D01*
X127942252Y-51120861D01*
X128372156Y-51219448D01*
X128832195Y-51338004D01*
X129312752Y-51477809D01*
X129804208Y-51640147D01*
X130296947Y-51826300D01*
X130781350Y-52037551D01*
X131017421Y-52152988D01*
X131247801Y-52275180D01*
X131471289Y-52404288D01*
X131686681Y-52540472D01*
X131892777Y-52683891D01*
X132088374Y-52834707D01*
X132272269Y-52993080D01*
X132443260Y-53159170D01*
X132767951Y-53508912D01*
X133084307Y-53874592D01*
X133390587Y-54250898D01*
X133685051Y-54632516D01*
X133965960Y-55014135D01*
X134231572Y-55390441D01*
X134709945Y-56105865D01*
X135106249Y-56736288D01*
X135406560Y-57239211D01*
X135663516Y-57692549D01*
X135781430Y-57852780D01*
X136096825Y-58317842D01*
X136310601Y-58657357D01*
X136552177Y-59064285D01*
X136814361Y-59535698D01*
X137089965Y-60068662D01*
X137371796Y-60660247D01*
X137652666Y-61307523D01*
X137790494Y-61651129D01*
X137925384Y-62007557D01*
X138056439Y-62376443D01*
X138182760Y-62757420D01*
X138303447Y-63150120D01*
X138417603Y-63554179D01*
X138524328Y-63969229D01*
X138622723Y-64394904D01*
X138711890Y-64830837D01*
X138790930Y-65276663D01*
X138858944Y-65732015D01*
X138915034Y-66196526D01*
X139446537Y-71323932D01*
X139479267Y-72324888D01*
X139497646Y-73429347D01*
X139497340Y-74806028D01*
X139463327Y-76357108D01*
X139428986Y-77167476D01*
X139380584Y-77984761D01*
X139316246Y-78796733D01*
X139234092Y-79591164D01*
X139132244Y-80355826D01*
X139008827Y-81078492D01*
X138946905Y-81425022D01*
X138895591Y-81766749D01*
X138854319Y-82103267D01*
X138822521Y-82434168D01*
X138799630Y-82759048D01*
X138785081Y-83077498D01*
X138778306Y-83389113D01*
X138778738Y-83693487D01*
X138798959Y-84278884D01*
X138841209Y-84830436D01*
X138900955Y-85344893D01*
X138973663Y-85819003D01*
X139110509Y-86662472D01*
X139209616Y-87340705D01*
X139290222Y-87956715D01*
X139297481Y-87982056D01*
X139320449Y-88053927D01*
X139338382Y-88105365D01*
X139360912Y-88166100D01*
X139388262Y-88235354D01*
X139420655Y-88312347D01*
X139458316Y-88396301D01*
X139501466Y-88486438D01*
X139550329Y-88581979D01*
X139605129Y-88682146D01*
X139666089Y-88786159D01*
X139733431Y-88893242D01*
X139807380Y-89002614D01*
X139846902Y-89057916D01*
X139888159Y-89113498D01*
X139975990Y-89225114D01*
X140071097Y-89336685D01*
X140173704Y-89447432D01*
X140284033Y-89556575D01*
X140402309Y-89663338D01*
X140528753Y-89766940D01*
X140663591Y-89866603D01*
X140807044Y-89961549D01*
X140959336Y-90051000D01*
X141038866Y-90093421D01*
X141120690Y-90134175D01*
X141204836Y-90173167D01*
X141291331Y-90210298D01*
X141380203Y-90245471D01*
X141471480Y-90278589D01*
X141565190Y-90309555D01*
X141661361Y-90338270D01*
X141760021Y-90364639D01*
X141861198Y-90388562D01*
X141964919Y-90409944D01*
X142071213Y-90428687D01*
X142180108Y-90444693D01*
X142291631Y-90457866D01*
X142743822Y-90498338D01*
X143200869Y-90528094D01*
X144148942Y-90568282D01*
X145174689Y-90604074D01*
X146316945Y-90661115D01*
X146943901Y-90705618D01*
X147614548Y-90765050D01*
X148333741Y-90842617D01*
X149106334Y-90941524D01*
X149937183Y-91064976D01*
X150831140Y-91216180D01*
X151793062Y-91398341D01*
X152827803Y-91614665D01*
X153866170Y-91862890D01*
X154835886Y-92134930D01*
X155737180Y-92425289D01*
X156570281Y-92728471D01*
X157335419Y-93038980D01*
X158032821Y-93351322D01*
X158662718Y-93659999D01*
X159225337Y-93959517D01*
X160149661Y-94509090D01*
X160807624Y-94956076D01*
X161331797Y-95366424D01*
X162144678Y-96058642D01*
X163053062Y-96878301D01*
X163601323Y-97393213D01*
X164200327Y-97973113D01*
X164841100Y-98614198D01*
X165514663Y-99312669D01*
X166212041Y-100064723D01*
X166924258Y-100866559D01*
X167642337Y-101714377D01*
X168357301Y-102604375D01*
X169060175Y-103532751D01*
X169404273Y-104010144D01*
X169741982Y-104495706D01*
X171003418Y-106319760D01*
X172143844Y-107900618D01*
X172682391Y-108611374D01*
X173207141Y-109275162D01*
X173723579Y-109896592D01*
X174237190Y-110480275D01*
X174753459Y-111030820D01*
X175277871Y-111552839D01*
X175815912Y-112050941D01*
X176373067Y-112529736D01*
X176954820Y-112993835D01*
X177566658Y-113447849D01*
X178214064Y-113896387D01*
X178902525Y-114344060D01*
X179495364Y-114692839D01*
X180105263Y-115004693D01*
X180730442Y-115283486D01*
X181369123Y-115533084D01*
X182019525Y-115757352D01*
X182679870Y-115960157D01*
X183348379Y-116145363D01*
X184023271Y-116316837D01*
X186751093Y-116942718D01*
X188107046Y-117273768D01*
X188776805Y-117457351D01*
X189438714Y-117658125D01*
X201413064Y-121566200D01*
X210198428Y-124254953D01*
X216032174Y-125551115D01*
X215921810Y-125730997D01*
X215778608Y-125941373D01*
X215572064Y-126219173D01*
X215298679Y-126554746D01*
X214954956Y-126938441D01*
X214537398Y-127360608D01*
X214299838Y-127583103D01*
X214042507Y-127811597D01*
X213764969Y-128044883D01*
X213466786Y-128281757D01*
X213147520Y-128521010D01*
X212806736Y-128761438D01*
X212443996Y-129001833D01*
X212058862Y-129240989D01*
X211650897Y-129477701D01*
X211219664Y-129710761D01*
X210764726Y-129938964D01*
X210285646Y-130161103D01*
X209781987Y-130375971D01*
X209253311Y-130582363D01*
X208699181Y-130779073D01*
X208119160Y-130964893D01*
X207512811Y-131138618D01*
X206879696Y-131299041D01*
X199164200Y-133150544D01*
X196621847Y-133775082D01*
X189414829Y-134526733D01*
X180395001Y-134394084D01*
X167484259Y-132846571D01*
X167296346Y-131739816D01*
X167064563Y-130584874D01*
X166915122Y-129923658D01*
X166743660Y-129232001D01*
X166550435Y-128528946D01*
X166335708Y-127833533D01*
X166099737Y-127164806D01*
X165842780Y-126541804D01*
X165565098Y-125983572D01*
X165418566Y-125734694D01*
X165266950Y-125509149D01*
X165110281Y-125309318D01*
X164948593Y-125137579D01*
X164781918Y-124996314D01*
X164610288Y-124887903D01*
X164444165Y-124804184D01*
X164293541Y-124734901D01*
X164157746Y-124679279D01*
X164036109Y-124636546D01*
X163927959Y-124605931D01*
X163832626Y-124586661D01*
X163749440Y-124577964D01*
X163677729Y-124579067D01*
X163616823Y-124589198D01*
X163566051Y-124607585D01*
X163524744Y-124633456D01*
X163492230Y-124666038D01*
X163467838Y-124704559D01*
X163450899Y-124748247D01*
X163440742Y-124796329D01*
X163436695Y-124848033D01*
X163438089Y-124902587D01*
X163444253Y-124959218D01*
X163468209Y-125075623D01*
X163503197Y-125191072D01*
X163543854Y-125299384D01*
X163620713Y-125469886D01*
X163655869Y-125537704D01*
X163841702Y-125857268D01*
X163996570Y-126124821D01*
X164123918Y-126346977D01*
X164524457Y-127058801D01*
X164706164Y-127392743D01*
X164875846Y-127719120D01*
X165033764Y-128043246D01*
X165180181Y-128370431D01*
X165315357Y-128705988D01*
X165439556Y-129055229D01*
X165553039Y-129423466D01*
X165656068Y-129816010D01*
X165748905Y-130238173D01*
X165831813Y-130695269D01*
X165905051Y-131192607D01*
X165968884Y-131735501D01*
X166023573Y-132329263D01*
X166069379Y-132979203D01*
X166136653Y-134253836D01*
X166176465Y-135358518D01*
X166194515Y-136293249D01*
X166196503Y-137058029D01*
X166175088Y-138077735D01*
X166157817Y-138417637D01*
X165759878Y-142750683D01*
X165406158Y-144077142D01*
X165367211Y-144180166D01*
X165260386Y-144437077D01*
X165186216Y-144598791D01*
X165100711Y-144769638D01*
X165005750Y-144939836D01*
X164903212Y-145099607D01*
X164794973Y-145239171D01*
X164739303Y-145298319D01*
X164682913Y-145348747D01*
X164626037Y-145389234D01*
X164568910Y-145418556D01*
X164511767Y-145435491D01*
X164454842Y-145438817D01*
X164398371Y-145427312D01*
X164342588Y-145399752D01*
X164287728Y-145354915D01*
X164234025Y-145291579D01*
X164181716Y-145208521D01*
X164131033Y-145104520D01*
X164082212Y-144978351D01*
X164035488Y-144828793D01*
X163946541Y-144522446D01*
X163862189Y-144248855D01*
X163782590Y-144006228D01*
X163707903Y-143792772D01*
X163638284Y-143606694D01*
X163573891Y-143446203D01*
X163461416Y-143194806D01*
X163371739Y-143024239D01*
X163306122Y-142920162D01*
X163252114Y-142854110D01*
X162960521Y-142499949D01*
X162825191Y-142345647D01*
X162678659Y-142186598D01*
X162527812Y-142033582D01*
X162379535Y-141897378D01*
X162240714Y-141788765D01*
X162177001Y-141748173D01*
X162118235Y-141718522D01*
X162065275Y-141701158D01*
X162018983Y-141697428D01*
X161980220Y-141708681D01*
X161949845Y-141736263D01*
X161928720Y-141781523D01*
X161917706Y-141845806D01*
X161917663Y-141930461D01*
X161929452Y-142036836D01*
X161953934Y-142166277D01*
X161991969Y-142320132D01*
X162044418Y-142499748D01*
X162112142Y-142706473D01*
X162250456Y-143135810D01*
X162364241Y-143540616D01*
X162455648Y-143920456D01*
X162526832Y-144274890D01*
X162579945Y-144603482D01*
X162617142Y-144905795D01*
X162640576Y-145181391D01*
X162652400Y-145429833D01*
X162654768Y-145650684D01*
X162649834Y-145843507D01*
X162626671Y-146143320D01*
X162587467Y-146387367D01*
X161968456Y-147824353D01*
X161084156Y-149802963D01*
X160011952Y-151858967D01*
X159849731Y-151763066D01*
X159674886Y-151656354D01*
X159462378Y-151522170D01*
X159230827Y-151369291D01*
X159113730Y-151288583D01*
X158998854Y-151206493D01*
X158888529Y-151124117D01*
X158785080Y-151042552D01*
X158690836Y-150962896D01*
X158608124Y-150886245D01*
X158414406Y-150690542D01*
X158319399Y-150589947D01*
X158225981Y-150487496D01*
X158134418Y-150383173D01*
X158044978Y-150276957D01*
X157957927Y-150168830D01*
X157873530Y-150058774D01*
X157792055Y-149946769D01*
X157713768Y-149832797D01*
X157638934Y-149716839D01*
X157567821Y-149598876D01*
X157500695Y-149478890D01*
X157437822Y-149356861D01*
X157379469Y-149232771D01*
X157325901Y-149106601D01*
X157271558Y-148953422D01*
X157223203Y-148782560D01*
X157180495Y-148597817D01*
X157143090Y-148402998D01*
X157110647Y-148201905D01*
X157082823Y-147998344D01*
X157039659Y-147599027D01*
X157010858Y-147235477D01*
X156993679Y-146938124D01*
X156983225Y-146663727D01*
X156986291Y-146612603D01*
X156999461Y-146468213D01*
X157011697Y-146365254D01*
X157028694Y-146244029D01*
X157051196Y-146106225D01*
X157079948Y-145953523D01*
X157115695Y-145787609D01*
X157159182Y-145610167D01*
X157211154Y-145422879D01*
X157272355Y-145227431D01*
X157343530Y-145025507D01*
X157425424Y-144818789D01*
X157470624Y-144714160D01*
X157518782Y-144608963D01*
X157569993Y-144503411D01*
X157624349Y-144397712D01*
X157822797Y-144015583D01*
X157974611Y-143709619D01*
X158086011Y-143472051D01*
X158163213Y-143295104D01*
X158212435Y-143171009D01*
X158239896Y-143091991D01*
X158254404Y-143038104D01*
X158234499Y-142963211D01*
X158175992Y-142776788D01*
X158132831Y-142659686D01*
X158080698Y-142536220D01*
X158019822Y-142413564D01*
X157950429Y-142298890D01*
X157912610Y-142246789D01*
X157872746Y-142199373D01*
X157830866Y-142157539D01*
X157786999Y-142122184D01*
X157741173Y-142094204D01*
X157693415Y-142074497D01*
X157643755Y-142063958D01*
X157592221Y-142063485D01*
X157538841Y-142073974D01*
X157483643Y-142096321D01*
X157426656Y-142131423D01*
X157367909Y-142180177D01*
X157307428Y-142243480D01*
X157245243Y-142322228D01*
X157181383Y-142417318D01*
X157115875Y-142529646D01*
X156651621Y-143391315D01*
X156320008Y-144026043D01*
X156054714Y-144552484D01*
X155745222Y-145757338D01*
X155712114Y-146265812D01*
X148936177Y-148542871D01*
X148899245Y-147506529D01*
X148879097Y-146599772D01*
X148876191Y-146162609D01*
X148880956Y-145779443D01*
X148888524Y-145555107D01*
X148898992Y-145330859D01*
X148912198Y-145106727D01*
X148927979Y-144882737D01*
X148966616Y-144435291D01*
X149013605Y-143988737D01*
X149043537Y-143739906D01*
X149079809Y-143470024D01*
X149098360Y-143347457D01*
X149116139Y-143243950D01*
X149132363Y-143167609D01*
X149139646Y-143142160D01*
X149146246Y-143126542D01*
X149153318Y-143104164D01*
X149162397Y-143059643D01*
X149188230Y-142915603D01*
X149227057Y-142717283D01*
X149252379Y-142604913D01*
X149282193Y-142487546D01*
X149316912Y-142368040D01*
X149356952Y-142249253D01*
X149402725Y-142134043D01*
X149454646Y-142025267D01*
X149483042Y-141974185D01*
X149513130Y-141925784D01*
X149544962Y-141880419D01*
X149578590Y-141838450D01*
X149614066Y-141800232D01*
X149651441Y-141766123D01*
X149690768Y-141736481D01*
X149732098Y-141711662D01*
X149792759Y-141683065D01*
X149854098Y-141660538D01*
X149916086Y-141643750D01*
X149978695Y-141632369D01*
X150041894Y-141626065D01*
X150105655Y-141624506D01*
X150169949Y-141627361D01*
X150234747Y-141634300D01*
X150300020Y-141644990D01*
X150365738Y-141659101D01*
X150498395Y-141696262D01*
X150632486Y-141743132D01*
X150767778Y-141797064D01*
X151041036Y-141915517D01*
X151178537Y-141974740D01*
X151316310Y-142030429D01*
X151454121Y-142079935D01*
X151591739Y-142120608D01*
X151660402Y-142136806D01*
X151728930Y-142149801D01*
X151797293Y-142159265D01*
X151865463Y-142164865D01*
X152004167Y-142168801D01*
X152154817Y-142167274D01*
X152480862Y-142150485D01*
X152821420Y-142119803D01*
X153154313Y-142080539D01*
X153457363Y-142037998D01*
X153708391Y-141997488D01*
X153885219Y-141964318D01*
X153965669Y-141943794D01*
X154020975Y-141924752D01*
X154127451Y-141892399D01*
X154270561Y-141846635D01*
X154351311Y-141818694D01*
X154435768Y-141787363D01*
X154522115Y-141752630D01*
X154608535Y-141714483D01*
X154693211Y-141672910D01*
X154774326Y-141627897D01*
X154850062Y-141579434D01*
X154885345Y-141553904D01*
X154918603Y-141527507D01*
X154949607Y-141500241D01*
X154978131Y-141472105D01*
X155003948Y-141443096D01*
X155026830Y-141413214D01*
X155055503Y-141369224D01*
X155081416Y-141322807D01*
X155104520Y-141274259D01*
X155124763Y-141223879D01*
X155142096Y-141171960D01*
X155156468Y-141118801D01*
X155167829Y-141064697D01*
X155176128Y-141009945D01*
X155181316Y-140954842D01*
X155183341Y-140899683D01*
X155182154Y-140844765D01*
X155177704Y-140790385D01*
X155169941Y-140736839D01*
X155158815Y-140684423D01*
X155144275Y-140633434D01*
X155126270Y-140584169D01*
X155110004Y-140546410D01*
X155092683Y-140510429D01*
X155074065Y-140476175D01*
X155053911Y-140443603D01*
X155031979Y-140412664D01*
X155008029Y-140383311D01*
X154995221Y-140369214D01*
X154981819Y-140355495D01*
X154967792Y-140342149D01*
X154953109Y-140329170D01*
X154937742Y-140316551D01*
X154921659Y-140304287D01*
X154904830Y-140292371D01*
X154887226Y-140280798D01*
X154868816Y-140269562D01*
X154849571Y-140258657D01*
X154829460Y-140248076D01*
X154808452Y-140237814D01*
X154763630Y-140218223D01*
X154714862Y-140199836D01*
X154661908Y-140182605D01*
X154604528Y-140166482D01*
X154554042Y-140155729D01*
X154498754Y-140148136D01*
X154439364Y-140143211D01*
X154376570Y-140140461D01*
X154243566Y-140139516D01*
X154105331Y-140141362D01*
X153967458Y-140142058D01*
X153900403Y-140140744D01*
X153835536Y-140137665D01*
X153773553Y-140132328D01*
X153715155Y-140124242D01*
X153661040Y-140112913D01*
X153611907Y-140097850D01*
X153460319Y-140033538D01*
X153309523Y-139953305D01*
X153159782Y-139858329D01*
X153011361Y-139749789D01*
X152864522Y-139628862D01*
X152719530Y-139496725D01*
X152436139Y-139203538D01*
X152163298Y-138879651D01*
X151903116Y-138534487D01*
X151657702Y-138177471D01*
X151429166Y-137818026D01*
X151219617Y-137465576D01*
X151031165Y-137129545D01*
X150725986Y-136544432D01*
X150461593Y-135985875D01*
X150022176Y-135346670D01*
X149557893Y-134644359D01*
X149006103Y-133772858D01*
X148715099Y-133293806D01*
X148423466Y-132796630D01*
X148138285Y-132289388D01*
X147866639Y-131780138D01*
X147615610Y-131276938D01*
X147392281Y-130787845D01*
X147203733Y-130320916D01*
X147124716Y-130098282D01*
X147057050Y-129884211D01*
X146827381Y-129147798D01*
X146583547Y-128428209D01*
X146086086Y-127020501D01*
X145848811Y-126322879D01*
X145630076Y-125623076D01*
X145438056Y-124916342D01*
X145280929Y-124197925D01*
X145166869Y-123463073D01*
X145128545Y-123087999D01*
X145104055Y-122707035D01*
X145094419Y-122319587D01*
X145100661Y-121925060D01*
X145123802Y-121522862D01*
X145164865Y-121112397D01*
X145224871Y-120693072D01*
X145304842Y-120264294D01*
X145405801Y-119825467D01*
X145528769Y-119375999D01*
X145674769Y-118915295D01*
X145844823Y-118442762D01*
X146039952Y-117957805D01*
X146261179Y-117459831D01*
X146342295Y-117302590D01*
X146438751Y-117145370D01*
X146549374Y-116988495D01*
X146672989Y-116832293D01*
X146808421Y-116677090D01*
X146954494Y-116523211D01*
X147273865Y-116220730D01*
X147621704Y-115927458D01*
X147988610Y-115646005D01*
X148365185Y-115378978D01*
X148742027Y-115128986D01*
X149109738Y-114898637D01*
X149458917Y-114690538D01*
X150064083Y-114351527D01*
X150638453Y-114055279D01*
X153965292Y-112704684D01*
X153976880Y-112703687D01*
X153994808Y-112696519D01*
X154046555Y-112665345D01*
X154114275Y-112614513D01*
X154191710Y-112547375D01*
X154272603Y-112467283D01*
X154350695Y-112377587D01*
X154386735Y-112330186D01*
X154419728Y-112281640D01*
X154448892Y-112232369D01*
X154473445Y-112182792D01*
X154492605Y-112133328D01*
X154505589Y-112084395D01*
X154511614Y-112036414D01*
X154509900Y-111989801D01*
X154499663Y-111944977D01*
X154480121Y-111902361D01*
X154450493Y-111862370D01*
X154409995Y-111825425D01*
X154357846Y-111791945D01*
X154293263Y-111762347D01*
X154215464Y-111737051D01*
X154123667Y-111716476D01*
X154017090Y-111701042D01*
X153894951Y-111691166D01*
X153756466Y-111687267D01*
X153600855Y-111689766D01*
X153331617Y-111706571D01*
X153058912Y-111736905D01*
X152785134Y-111779047D01*
X152512679Y-111831277D01*
X152243943Y-111891872D01*
X151981321Y-111959112D01*
X151484003Y-112106640D01*
X151039888Y-112260092D01*
X150668143Y-112405698D01*
X150387931Y-112529688D01*
X150218417Y-112618294D01*
X149498889Y-112969940D01*
X148861012Y-113285921D01*
X148126501Y-113673923D01*
X147743814Y-113889913D01*
X147361937Y-114117885D01*
X146989193Y-114355830D01*
X146633903Y-114601742D01*
X146304391Y-114853613D01*
X146008979Y-115109434D01*
X145876662Y-115238199D01*
X145755991Y-115367198D01*
X145648006Y-115496182D01*
X145553748Y-115624897D01*
X145385116Y-115878485D01*
X145227062Y-116125810D01*
X145079057Y-116367721D01*
X144940574Y-116605064D01*
X144811084Y-116838687D01*
X144690061Y-117069437D01*
X144576976Y-117298160D01*
X144471302Y-117525704D01*
X144372511Y-117752917D01*
X144280075Y-117980645D01*
X144193467Y-118209736D01*
X144112158Y-118441036D01*
X144035622Y-118675392D01*
X143963329Y-118913653D01*
X143829366Y-119405275D01*
X143783959Y-119597892D01*
X143744993Y-119791734D01*
X143711992Y-119986681D01*
X143684477Y-120182610D01*
X143661970Y-120379403D01*
X143643995Y-120576939D01*
X143619724Y-120973756D01*
X143607841Y-121372097D01*
X143604523Y-121771000D01*
X143608287Y-122566633D01*
X143611393Y-122852305D01*
X143618660Y-123138178D01*
X143630723Y-123424003D01*
X143648214Y-123709531D01*
X143671768Y-123994513D01*
X143702019Y-124278699D01*
X143739601Y-124561842D01*
X143785147Y-124843692D01*
X143861657Y-125211057D01*
X143965500Y-125626393D01*
X144085108Y-126059818D01*
X144208911Y-126481447D01*
X144422828Y-127169792D01*
X144514701Y-127452365D01*
X145620072Y-130260020D01*
X144711595Y-130015111D01*
X143729109Y-129736566D01*
X142530558Y-129378485D01*
X141218016Y-128959264D01*
X139893557Y-128497296D01*
X139258757Y-128256031D01*
X138659255Y-128010976D01*
X138107811Y-127764432D01*
X137617185Y-127518698D01*
X137150888Y-127259556D01*
X136668205Y-126975123D01*
X135679328Y-126353567D01*
X134701851Y-125700403D01*
X133787069Y-125062006D01*
X132350777Y-124015008D01*
X131780820Y-123583566D01*
X131405339Y-123244701D01*
X130517934Y-122431219D01*
X129994308Y-121941704D01*
X129477158Y-121447785D01*
X129011305Y-120987545D01*
X128811620Y-120781956D01*
X128641567Y-120599067D01*
X128323858Y-120232178D01*
X127994233Y-119827724D01*
X127667717Y-119410315D01*
X127359335Y-119004564D01*
X126607684Y-117990378D01*
X126510404Y-117855405D01*
X126322706Y-117582087D01*
X125803526Y-116813164D01*
X125082269Y-115735425D01*
X125222085Y-115713570D01*
X125373439Y-115687194D01*
X125558279Y-115651354D01*
X125760993Y-115606679D01*
X125864174Y-115581225D01*
X125965971Y-115553796D01*
X126064431Y-115524472D01*
X126157604Y-115493332D01*
X126243537Y-115460454D01*
X126320281Y-115425915D01*
X126443947Y-115361514D01*
X126564762Y-115292299D01*
X126682921Y-115218655D01*
X126798622Y-115140966D01*
X126912060Y-115059616D01*
X127023432Y-114974991D01*
X127132935Y-114887474D01*
X127240765Y-114797451D01*
X127452193Y-114611422D01*
X127659288Y-114419979D01*
X128066767Y-114033157D01*
X128421836Y-113688451D01*
X128802302Y-113302223D01*
X129612769Y-112440396D01*
X130444844Y-111518057D01*
X131245204Y-110605589D01*
X132537492Y-109091796D01*
X133063051Y-108462074D01*
X135119047Y-105853401D01*
X135169387Y-105663346D01*
X135259284Y-105257209D01*
X135303483Y-105010793D01*
X135338872Y-104755576D01*
X135359216Y-104506631D01*
X135358283Y-104279031D01*
X135347889Y-104177945D01*
X135329839Y-104087849D01*
X135303352Y-104010625D01*
X135267650Y-103948159D01*
X135221954Y-103902333D01*
X135165484Y-103875033D01*
X135097461Y-103868142D01*
X135017106Y-103883545D01*
X134923640Y-103923126D01*
X134816284Y-103988768D01*
X134694258Y-104082357D01*
X134556784Y-104205775D01*
X134403081Y-104360908D01*
X134232372Y-104549639D01*
X134043877Y-104773853D01*
X133836816Y-105035434D01*
X132434499Y-106868299D01*
X131464675Y-108157510D01*
X130719668Y-109169514D01*
X128884751Y-111446573D01*
X128809009Y-111518653D01*
X128699213Y-111649328D01*
X128371724Y-112046631D01*
X128151161Y-112293346D01*
X127890807Y-112558827D01*
X127589226Y-112833117D01*
X127422528Y-112970454D01*
X127244985Y-113106259D01*
X127056418Y-113239289D01*
X126856647Y-113368298D01*
X126645495Y-113492041D01*
X126422780Y-113609275D01*
X126188324Y-113718754D01*
X125941947Y-113819233D01*
X125683471Y-113909469D01*
X125412715Y-113988217D01*
X125129501Y-114054232D01*
X124833648Y-114106269D01*
X124524979Y-114143083D01*
X124203313Y-114163431D01*
X123868471Y-114166068D01*
X123520274Y-114149748D01*
X123158542Y-114113228D01*
X122783097Y-114055263D01*
X114139085Y-112485627D01*
X114085124Y-112478558D01*
X113932364Y-112465731D01*
X113823211Y-112461089D01*
X113694489Y-112459722D01*
X113547908Y-112463202D01*
X113385179Y-112473102D01*
X113208013Y-112490993D01*
X113018120Y-112518446D01*
X112918935Y-112536250D01*
X112817210Y-112557034D01*
X112713158Y-112580994D01*
X112606994Y-112608328D01*
X112498930Y-112639230D01*
X112389181Y-112673899D01*
X112277961Y-112712530D01*
X112165483Y-112755320D01*
X112051962Y-112802465D01*
X111937610Y-112854162D01*
X111822642Y-112910607D01*
X111707272Y-112971997D01*
X111544103Y-113054723D01*
X111387660Y-113119173D01*
X111237961Y-113166262D01*
X111095026Y-113196904D01*
X110958875Y-113212013D01*
X110829527Y-113212502D01*
X110707001Y-113199287D01*
X110591318Y-113173280D01*
X110482496Y-113135397D01*
X110380555Y-113086551D01*
X110285514Y-113027656D01*
X110197394Y-112959626D01*
X110116213Y-112883376D01*
X110041991Y-112799820D01*
X109974747Y-112709871D01*
X109914501Y-112614444D01*
X109861273Y-112514452D01*
X109815081Y-112410810D01*
X109775946Y-112304432D01*
X109743887Y-112196232D01*
X109718923Y-112087124D01*
X109701074Y-111978023D01*
X109690359Y-111869841D01*
X109686798Y-111763494D01*
X109690411Y-111659895D01*
X109701216Y-111559958D01*
X109719233Y-111464598D01*
X109744482Y-111374729D01*
X109776983Y-111291264D01*
X109816754Y-111215118D01*
X109863815Y-111147205D01*
X109918186Y-111088438D01*
X109971311Y-111035596D01*
X110014963Y-110984827D01*
X110049653Y-110936105D01*
X110075892Y-110889403D01*
X110094188Y-110844696D01*
X110105055Y-110801958D01*
X110109001Y-110761162D01*
X110106539Y-110722285D01*
X110098177Y-110685298D01*
X110084428Y-110650176D01*
X110065802Y-110616894D01*
X110042808Y-110585426D01*
X110015959Y-110555744D01*
X109985764Y-110527825D01*
X109952735Y-110501641D01*
X109917381Y-110477168D01*
X109841744Y-110433246D01*
X109762938Y-110395853D01*
X109685047Y-110364782D01*
X109612159Y-110339824D01*
X109497726Y-110307423D01*
X109452319Y-110296991D01*
X109403682Y-110295186D01*
X109358038Y-110290248D01*
X109315291Y-110282276D01*
X109275344Y-110271368D01*
X109238102Y-110257623D01*
X109203468Y-110241139D01*
X109171347Y-110222013D01*
X109141642Y-110200345D01*
X109114257Y-110176233D01*
X109089096Y-110149774D01*
X109066064Y-110121069D01*
X109045063Y-110090213D01*
X109025998Y-110057307D01*
X109008773Y-110022448D01*
X108993292Y-109985735D01*
X108979458Y-109947265D01*
X108967176Y-109907138D01*
X108956349Y-109865452D01*
X108946882Y-109822304D01*
X108938678Y-109777793D01*
X108931641Y-109732018D01*
X108925676Y-109685077D01*
X108916574Y-109588090D01*
X108910603Y-109487617D01*
X108906996Y-109384447D01*
X108903796Y-109173156D01*
X108891538Y-108824970D01*
X108891249Y-108741441D01*
X108894735Y-108660666D01*
X108903327Y-108583318D01*
X108909953Y-108546140D01*
X108918356Y-108510072D01*
X108928702Y-108475197D01*
X108941157Y-108441600D01*
X108955887Y-108409365D01*
X108973059Y-108378575D01*
X108992840Y-108349317D01*
X109015396Y-108321672D01*
X109040893Y-108295727D01*
X109069499Y-108271564D01*
X109101379Y-108249268D01*
X109136700Y-108228924D01*
X109175629Y-108210615D01*
X109218332Y-108194426D01*
X109264975Y-108180440D01*
X109315725Y-108168743D01*
X109370749Y-108159417D01*
X109430213Y-108152548D01*
X109700209Y-108132429D01*
X109962174Y-108121117D01*
X110214812Y-108117578D01*
X110456828Y-108120774D01*
X110686927Y-108129669D01*
X110903813Y-108143227D01*
X111292766Y-108180188D01*
X111613324Y-108223366D01*
X111855124Y-108264471D01*
X112061000Y-108307303D01*
X116239308Y-109081059D01*
X119577527Y-109280025D01*
X122539920Y-109280025D01*
X123888476Y-109235797D01*
X123921810Y-109245901D01*
X123962506Y-109252410D01*
X123988577Y-109254244D01*
X124018357Y-109254450D01*
X124051764Y-109252520D01*
X124088717Y-109247941D01*
X124129135Y-109240206D01*
X124172936Y-109228803D01*
X124220042Y-109213222D01*
X124270369Y-109192954D01*
X124323838Y-109167488D01*
X124380366Y-109136314D01*
X124439875Y-109098923D01*
X124502281Y-109054804D01*
X124567505Y-109003447D01*
X124635465Y-108944342D01*
X124706081Y-108876979D01*
X124779272Y-108800848D01*
X124854955Y-108715440D01*
X124933052Y-108620243D01*
X125013480Y-108514748D01*
X125096159Y-108398445D01*
X125181008Y-108270823D01*
X125267945Y-108131373D01*
X125356890Y-107979585D01*
X125447762Y-107814949D01*
X125540480Y-107636954D01*
X125634963Y-107445091D01*
X126298877Y-106041963D01*
X126767971Y-105024329D01*
X127138273Y-104195294D01*
X127845713Y-102824641D01*
X127822181Y-102727619D01*
X127752794Y-102483702D01*
X127701471Y-102328761D01*
X127639364Y-102163619D01*
X127566700Y-101997117D01*
X127483706Y-101838095D01*
X127438405Y-101764152D01*
X127390607Y-101695395D01*
X127340340Y-101632928D01*
X127287632Y-101577857D01*
X127232511Y-101531287D01*
X127175006Y-101494323D01*
X127115145Y-101468070D01*
X127052956Y-101453633D01*
X126988468Y-101452117D01*
X126921709Y-101464628D01*
X126852708Y-101492270D01*
X126781492Y-101536148D01*
X126708090Y-101597369D01*
X126632531Y-101677035D01*
X126554842Y-101776254D01*
X126475052Y-101896130D01*
X126312113Y-102171332D01*
X126147716Y-102470791D01*
X125821157Y-103119288D01*
X125508588Y-103795248D01*
X125223221Y-104452297D01*
X124786945Y-105524163D01*
X124618030Y-105963894D01*
X124609370Y-105971816D01*
X124598456Y-105988270D01*
X124569975Y-106044620D01*
X124487164Y-106235998D01*
X124371336Y-106503542D01*
X124301586Y-106655099D01*
X124224234Y-106812764D01*
X124139500Y-106972228D01*
X124047599Y-107129179D01*
X123948751Y-107279306D01*
X123896789Y-107350463D01*
X123843171Y-107418298D01*
X123787926Y-107482272D01*
X123731080Y-107541845D01*
X123672660Y-107596480D01*
X123612693Y-107645636D01*
X123551207Y-107688776D01*
X123488228Y-107725360D01*
X123423785Y-107754849D01*
X123357904Y-107776706D01*
X122712017Y-107949139D01*
X122440669Y-108012752D01*
X122316288Y-108036954D01*
X122198825Y-108055342D01*
X122087822Y-108067357D01*
X121982819Y-108072441D01*
X121883359Y-108070036D01*
X121788982Y-108059583D01*
X121699230Y-108040524D01*
X121613645Y-108012300D01*
X121531768Y-107974354D01*
X121453140Y-107926127D01*
X121377304Y-107867060D01*
X121303799Y-107796596D01*
X121232169Y-107714176D01*
X121161954Y-107619241D01*
X121092696Y-107511233D01*
X121023936Y-107389595D01*
X120955216Y-107253767D01*
X120886077Y-107103191D01*
X120816060Y-106937309D01*
X120744708Y-106755563D01*
X120596161Y-106342244D01*
X120436769Y-105858767D01*
X120262862Y-105300665D01*
X118715343Y-100326483D01*
X117897365Y-97739911D01*
X116504598Y-92743635D01*
X116473219Y-92596910D01*
X116376736Y-92209899D01*
X116302982Y-91951209D01*
X116211635Y-91662353D01*
X116102254Y-91353301D01*
X115974400Y-91034020D01*
X115827634Y-90714481D01*
X115661516Y-90404651D01*
X115571063Y-90256492D01*
X115475608Y-90114499D01*
X115375094Y-89979917D01*
X115269468Y-89853994D01*
X115158675Y-89737974D01*
X115042659Y-89633104D01*
X114921366Y-89540630D01*
X114794740Y-89461798D01*
X114662728Y-89397855D01*
X114525273Y-89350045D01*
X114382321Y-89319616D01*
X114233817Y-89307814D01*
X113490918Y-89312311D01*
X112536434Y-89337919D01*
X110375690Y-89425703D01*
X107727946Y-89560171D01*
X105249789Y-89686109D01*
X103080923Y-89776461D01*
X102034952Y-89808922D01*
X101117825Y-89825453D01*
X98494759Y-89869754D01*
X97839688Y-89862680D01*
X97186317Y-89836157D01*
X96860491Y-89813698D01*
X96535356Y-89784092D01*
X96211002Y-89746577D01*
X95887517Y-89700390D01*
X95416038Y-89621496D01*
X94944664Y-89531248D01*
X94475406Y-89427259D01*
X94010280Y-89307140D01*
X93779895Y-89240286D01*
X93551299Y-89168503D01*
X93324742Y-89091493D01*
X93100476Y-89008958D01*
X92878754Y-88920600D01*
X92659826Y-88826118D01*
X92443945Y-88725216D01*
X92231363Y-88617595D01*
X92021031Y-88502018D01*
X91814824Y-88379466D01*
X91612539Y-88250411D01*
X91413976Y-88115326D01*
X91218933Y-87974684D01*
X91027209Y-87828958D01*
X90838601Y-87678620D01*
X90652909Y-87524145D01*
X90289466Y-87204671D01*
X89935268Y-86874320D01*
X89588703Y-86536876D01*
X89248161Y-86196121D01*
X88968571Y-85904995D01*
X88697688Y-85605390D01*
X88435175Y-85298048D01*
X88180695Y-84983710D01*
X87933912Y-84663117D01*
X87694490Y-84337010D01*
X87462091Y-84006131D01*
X87236380Y-83671220D01*
X87006121Y-83311426D01*
X86785708Y-82945416D01*
X86574115Y-82573996D01*
X86370318Y-82197972D01*
X86173292Y-81818150D01*
X85982013Y-81435336D01*
X85612593Y-80663953D01*
X85246114Y-79873940D01*
X85064771Y-79469218D01*
X84890361Y-79063456D01*
X84727138Y-78660736D01*
X84579353Y-78265134D01*
X84451260Y-77880732D01*
X84395926Y-77694005D01*
X84347109Y-77511608D01*
X84052548Y-76303463D01*
X83778292Y-75065253D01*
X83541269Y-73816384D01*
X83442010Y-73194018D01*
X83358408Y-72576265D01*
X83292578Y-71965552D01*
X83246638Y-71364303D01*
X83222702Y-70774946D01*
X83222887Y-70199907D01*
X83249310Y-69641610D01*
X83304086Y-69102483D01*
X83389331Y-68584951D01*
X83507162Y-68091440D01*
X83788273Y-67143631D01*
X83942992Y-66680623D01*
X84112108Y-66225508D01*
X84299335Y-65778761D01*
X84508391Y-65340854D01*
X84742990Y-64912260D01*
X85006848Y-64493452D01*
X85303680Y-64084902D01*
X85637202Y-63687085D01*
X86011130Y-63300471D01*
X86214407Y-63111514D01*
X86429179Y-62925535D01*
X86655910Y-62742594D01*
X86895065Y-62562750D01*
X87147107Y-62386061D01*
X87412503Y-62212587D01*
X87691715Y-62042388D01*
X87985208Y-61875521D01*
X88293448Y-61712047D01*
X88616898Y-61552024D01*
X91978317Y-59931302D01*
X94210429Y-58868163D01*
X96825784Y-57648153D01*
X98238102Y-57025517D01*
X99641985Y-56454460D01*
X101004155Y-55936965D01*
X102291337Y-55475011D01*
X106024638Y-54222226D01*
X107454446Y-53791119D01*
X109461306Y-53276475D01*
X111857265Y-52720794D01*
X114454368Y-52166578D01*
X117064660Y-51656326D01*
X119500188Y-51232540D01*
X121572997Y-50937721D01*
X122414646Y-50851955D01*
X123095132Y-50814368D01*
X124149521Y-50799114D01*
X124964662Y-50797772D01*
X125570964Y-50806680D01*
X138210494Y-129138211D02*
X139771651Y-129646017D01*
X141572421Y-130257876D01*
X143390779Y-130916632D01*
X144237169Y-131245735D01*
X145004695Y-131565129D01*
X145665603Y-131867669D01*
X146192142Y-132146211D01*
X146556555Y-132393611D01*
X146669293Y-132503400D01*
X146731092Y-132602723D01*
X146840668Y-132842383D01*
X147021507Y-133176112D01*
X147553736Y-134065322D01*
X148241312Y-135149447D01*
X148997770Y-136307582D01*
X150371461Y-138362255D01*
X150983076Y-139262091D01*
X149669961Y-139762307D01*
X149669961Y-139762358D01*
X149578119Y-139730607D01*
X149458921Y-139681575D01*
X149286964Y-139602133D01*
X149059317Y-139486054D01*
X148773049Y-139327108D01*
X148425230Y-139119066D01*
X148227322Y-138994688D01*
X148012928Y-138855700D01*
X147901584Y-138787650D01*
X147790457Y-138729704D01*
X147679765Y-138681341D01*
X147569726Y-138642040D01*
X147460557Y-138611280D01*
X147352476Y-138588541D01*
X147245700Y-138573301D01*
X147140447Y-138565040D01*
X147036935Y-138563236D01*
X146935380Y-138567369D01*
X146836001Y-138576917D01*
X146739014Y-138591360D01*
X146644638Y-138610176D01*
X146553090Y-138632846D01*
X146464588Y-138658847D01*
X146379349Y-138687659D01*
X146297590Y-138718760D01*
X146219530Y-138751631D01*
X146145385Y-138785750D01*
X146075374Y-138820595D01*
X145948621Y-138890384D01*
X145841012Y-138956829D01*
X145754286Y-139015764D01*
X145690185Y-139063020D01*
X145636815Y-139105826D01*
X144104845Y-140137545D01*
X132130495Y-138230404D01*
X134662932Y-134447375D01*
X134866152Y-134575852D01*
X135421100Y-134912432D01*
X135804825Y-135135863D01*
X136245705Y-135383842D01*
X136733484Y-135647209D01*
X137257900Y-135916806D01*
X137392595Y-135980161D01*
X137526855Y-136035656D01*
X137660428Y-136083675D01*
X137793062Y-136124600D01*
X137924505Y-136158817D01*
X138054506Y-136186707D01*
X138182813Y-136208655D01*
X138309173Y-136225045D01*
X138433334Y-136236259D01*
X138555046Y-136242682D01*
X138674055Y-136244697D01*
X138790111Y-136242687D01*
X138902961Y-136237037D01*
X139012353Y-136228129D01*
X139118035Y-136216348D01*
X139219756Y-136202076D01*
X139410306Y-136167596D01*
X139581988Y-136127758D01*
X139732785Y-136085630D01*
X139860684Y-136044281D01*
X139963668Y-136006779D01*
X140039723Y-135976193D01*
X140102986Y-135948042D01*
X141822541Y-135135161D01*
X136695136Y-128663379D01*
X138210494Y-129138211D01*
X108405822Y-102656365D02*
X108509552Y-102669621D01*
X108606786Y-102692777D01*
X108696766Y-102726514D01*
X108778735Y-102771518D01*
X108851936Y-102828471D01*
X108915612Y-102898057D01*
X108915604Y-102898057D01*
X108931433Y-102921624D01*
X108942901Y-102945367D01*
X108950256Y-102969286D01*
X108953745Y-102993383D01*
X108953615Y-103017658D01*
X108950113Y-103042112D01*
X108943488Y-103066747D01*
X108933985Y-103091562D01*
X108921852Y-103116559D01*
X108907337Y-103141739D01*
X108890687Y-103167102D01*
X108872150Y-103192650D01*
X108830400Y-103244302D01*
X108784068Y-103296702D01*
X108685566Y-103403771D01*
X108637353Y-103458455D01*
X108592472Y-103513914D01*
X108571898Y-103541936D01*
X108552898Y-103570154D01*
X108535721Y-103598570D01*
X108520612Y-103627183D01*
X108507820Y-103655996D01*
X108497592Y-103685008D01*
X108490175Y-103714221D01*
X108485816Y-103743635D01*
X108484755Y-103770785D01*
X108486452Y-103798244D01*
X108490686Y-103825971D01*
X108497237Y-103853931D01*
X108505886Y-103882084D01*
X108516414Y-103910392D01*
X108528599Y-103938818D01*
X108542223Y-103967322D01*
X108572906Y-104024416D01*
X108606706Y-104081368D01*
X108676622Y-104193626D01*
X108709221Y-104248322D01*
X108737904Y-104301655D01*
X108750227Y-104327716D01*
X108760912Y-104353321D01*
X108769739Y-104378433D01*
X108776487Y-104403014D01*
X108780938Y-104427025D01*
X108782871Y-104450429D01*
X108782067Y-104473187D01*
X108778306Y-104495260D01*
X108771368Y-104516612D01*
X108761033Y-104537204D01*
X108747082Y-104556997D01*
X108729294Y-104575953D01*
X108656949Y-104633187D01*
X108577270Y-104677126D01*
X108490889Y-104708523D01*
X108398439Y-104728130D01*
X108300549Y-104736701D01*
X108197852Y-104734987D01*
X108090979Y-104723743D01*
X107980563Y-104703719D01*
X107867233Y-104675670D01*
X107751623Y-104640348D01*
X107516084Y-104550895D01*
X107279000Y-104441382D01*
X107045421Y-104317830D01*
X106820402Y-104186263D01*
X106608993Y-104052700D01*
X106247217Y-103803677D01*
X105909294Y-103546650D01*
X106291040Y-103331112D01*
X106480531Y-103232658D01*
X106695528Y-103127314D01*
X106929973Y-103020549D01*
X107177810Y-102917832D01*
X107432978Y-102824630D01*
X107689421Y-102746414D01*
X107816228Y-102714635D01*
X107941082Y-102688652D01*
X108063225Y-102669150D01*
X108181901Y-102656813D01*
X108296352Y-102652323D01*
X108405822Y-102656365D01*
X131284767Y-111082127D02*
X131652832Y-111590669D01*
X131920106Y-111941530D01*
X132239179Y-112343924D01*
X132607280Y-112788205D01*
X133021638Y-113264728D01*
X133479482Y-113763845D01*
X133978040Y-114275913D01*
X134514541Y-114791284D01*
X135086215Y-115300313D01*
X135384375Y-115549435D01*
X135690289Y-115793354D01*
X136003611Y-116030865D01*
X136323994Y-116260762D01*
X136651092Y-116481839D01*
X136984558Y-116692891D01*
X137324045Y-116892711D01*
X137669209Y-117080095D01*
X138994035Y-117758673D01*
X140178063Y-118348033D01*
X142079532Y-119257544D01*
X143706771Y-119988878D01*
X143672754Y-121680585D01*
X143669432Y-122140317D01*
X143676267Y-122574160D01*
X143697303Y-122961807D01*
X143714409Y-123131962D01*
X143736581Y-123282953D01*
X144196725Y-125684688D01*
X144538896Y-127419584D01*
X145644267Y-130227240D01*
X144735790Y-129982330D01*
X143753304Y-129703785D01*
X142554753Y-129345705D01*
X141242211Y-128926484D01*
X139917752Y-128464516D01*
X139282952Y-128223250D01*
X138683450Y-127978196D01*
X138132006Y-127731652D01*
X137641380Y-127485917D01*
X137175083Y-127226776D01*
X136692400Y-126942342D01*
X135703523Y-126320786D01*
X134726046Y-125667622D01*
X133811264Y-125029225D01*
X132374972Y-123982228D01*
X131805015Y-123550786D01*
X131429534Y-123211921D01*
X130542129Y-122398438D01*
X130018503Y-121908924D01*
X129501354Y-121415005D01*
X129035500Y-120954765D01*
X128835815Y-120749175D01*
X128665762Y-120566287D01*
X128348054Y-120199398D01*
X128018428Y-119794943D01*
X127691912Y-119377534D01*
X127383531Y-118971783D01*
X126631880Y-117957597D01*
X126534599Y-117822625D01*
X126346901Y-117549306D01*
X125827721Y-116780383D01*
X125106464Y-115702644D01*
X125246280Y-115680790D01*
X125397634Y-115654413D01*
X125582474Y-115618574D01*
X125785188Y-115573899D01*
X125888369Y-115548444D01*
X125990166Y-115521016D01*
X126088626Y-115491692D01*
X126181799Y-115460552D01*
X126267732Y-115427673D01*
X126344476Y-115393135D01*
X126468142Y-115328734D01*
X126588957Y-115259519D01*
X126707116Y-115185874D01*
X126822817Y-115108185D01*
X126936255Y-115026836D01*
X127047627Y-114942211D01*
X127157130Y-114854694D01*
X127264961Y-114764671D01*
X127476389Y-114578641D01*
X127683484Y-114387199D01*
X128090962Y-114000377D01*
X131157152Y-110895465D01*
X131284767Y-111082127D01*
X111200901Y-102836367D02*
X111581826Y-102847160D01*
X111714682Y-102854417D01*
X112081065Y-103079619D01*
X112502771Y-103324300D01*
X112762673Y-103468921D01*
X113051245Y-103624305D01*
X113365464Y-103787382D01*
X113702306Y-103955085D01*
X114058751Y-104124345D01*
X114431773Y-104292093D01*
X114818352Y-104455262D01*
X115215464Y-104610782D01*
X115620087Y-104755586D01*
X116029198Y-104886604D01*
X116764345Y-105110705D01*
X117340849Y-105293040D01*
X117777394Y-105437272D01*
X118092666Y-105547064D01*
X118434135Y-105677985D01*
X118514739Y-105715112D01*
X118773405Y-106064886D01*
X119015126Y-106420766D01*
X119140279Y-106620231D01*
X119259228Y-106825009D01*
X119365170Y-107028321D01*
X119451304Y-107223389D01*
X119484818Y-107315714D01*
X119510830Y-107403436D01*
X119528489Y-107485708D01*
X119536946Y-107561682D01*
X119535350Y-107630513D01*
X119522851Y-107691351D01*
X119498600Y-107743351D01*
X119461746Y-107785664D01*
X119411438Y-107817443D01*
X119346828Y-107837842D01*
X119267064Y-107846013D01*
X119171296Y-107841108D01*
X119171296Y-107841092D01*
X112168011Y-106981314D01*
X111750824Y-106963483D01*
X110788460Y-106932462D01*
X110238399Y-106922540D01*
X109714717Y-106921961D01*
X109271639Y-106934939D01*
X109097272Y-106947828D01*
X108963390Y-106965687D01*
X108917404Y-106970429D01*
X108890075Y-106964589D01*
X108880276Y-106948850D01*
X108886878Y-106923897D01*
X108908753Y-106890413D01*
X108944774Y-106849084D01*
X109054742Y-106745624D01*
X109207761Y-106618989D01*
X109394807Y-106474653D01*
X109834894Y-106154768D01*
X110302826Y-105829752D01*
X110726425Y-105543389D01*
X111151917Y-105261758D01*
X109723290Y-104850114D01*
X109697249Y-104749792D01*
X109670719Y-104640378D01*
X109640535Y-104505674D01*
X109610711Y-104356338D01*
X109597190Y-104279513D01*
X109585263Y-104203028D01*
X109575435Y-104128215D01*
X109568205Y-104056405D01*
X109564076Y-103988931D01*
X109563551Y-103927125D01*
X109567683Y-103855759D01*
X109576300Y-103778050D01*
X109588746Y-103695508D01*
X109604366Y-103609645D01*
X109642503Y-103433996D01*
X109685468Y-103263185D01*
X109728015Y-103109297D01*
X109764900Y-102984416D01*
X109800701Y-102870010D01*
X109800701Y-102870044D01*
X110222275Y-102849571D01*
X110598372Y-102838506D01*
X110925683Y-102834791D01*
X111200901Y-102836367D01*
X107600000Y-108600000D02*
X107686829Y-108613473D01*
X107768453Y-108639438D01*
X107844315Y-108678710D01*
X107879909Y-108703592D01*
X107913853Y-108732106D01*
X107913853Y-108732123D01*
X107930674Y-108749803D01*
X107943530Y-108768180D01*
X107952649Y-108787223D01*
X107958260Y-108806903D01*
X107960592Y-108827191D01*
X107959875Y-108848057D01*
X107956337Y-108869473D01*
X107950207Y-108891410D01*
X107941715Y-108913837D01*
X107931088Y-108936726D01*
X107918557Y-108960047D01*
X107904350Y-108983772D01*
X107871824Y-109032315D01*
X107835342Y-109082121D01*
X107757837Y-109184584D01*
X107720479Y-109236774D01*
X107686492Y-109289291D01*
X107671335Y-109315599D01*
X107657708Y-109341902D01*
X107645839Y-109368169D01*
X107635959Y-109394372D01*
X107628295Y-109420482D01*
X107623077Y-109446468D01*
X107620533Y-109472303D01*
X107620893Y-109497957D01*
X107624601Y-109526014D01*
X107631386Y-109553706D01*
X107641008Y-109581047D01*
X107653225Y-109608052D01*
X107667793Y-109634735D01*
X107684472Y-109661112D01*
X107703018Y-109687197D01*
X107723190Y-109713004D01*
X107767444Y-109763847D01*
X107815296Y-109813759D01*
X107914047Y-109911260D01*
X107961072Y-109959087D01*
X108003948Y-110006454D01*
X108023225Y-110030003D01*
X108040739Y-110053481D01*
X108056246Y-110076904D01*
X108069506Y-110100286D01*
X108080276Y-110123641D01*
X108088314Y-110146986D01*
X108093378Y-110170334D01*
X108095225Y-110193700D01*
X108093615Y-110217099D01*
X108088303Y-110240546D01*
X108079050Y-110264055D01*
X108065611Y-110287642D01*
X108013220Y-110354190D01*
X107951440Y-110410523D01*
X107880996Y-110457171D01*
X107802613Y-110494667D01*
X107717016Y-110523541D01*
X107624929Y-110544325D01*
X107527077Y-110557551D01*
X107424185Y-110563749D01*
X107316978Y-110563452D01*
X107206181Y-110557190D01*
X106976714Y-110528898D01*
X106741582Y-110483125D01*
X106506584Y-110424122D01*
X106277518Y-110356140D01*
X106060183Y-110283429D01*
X105683895Y-110140828D01*
X105327201Y-109985937D01*
X105409388Y-109905493D01*
X105632080Y-109698933D01*
X105784927Y-109564660D01*
X105959474Y-109418418D01*
X106151245Y-109266727D01*
X106355766Y-109116107D01*
X106568560Y-108973079D01*
X106676661Y-108906448D01*
X106785153Y-108844161D01*
X106893475Y-108787031D01*
X107001069Y-108735874D01*
X107107374Y-108691505D01*
X107211832Y-108654739D01*
X107313883Y-108626390D01*
X107412968Y-108607274D01*
X107508526Y-108598206D01*
X107600000Y-108600000D01*
X138492854Y-141028526D02*
X139540219Y-141254215D01*
X139904158Y-141328589D01*
X140071716Y-141356801D01*
X140074736Y-141359491D01*
X140061075Y-141367334D01*
X139988057Y-141397103D01*
X139689699Y-141503354D01*
X138727334Y-141825773D01*
X137289162Y-142294745D01*
X137007784Y-140700251D01*
X138492854Y-141028526D01*
X108816644Y-112463923D02*
X108822595Y-112473243D01*
X108827437Y-112487140D01*
X108831301Y-112505375D01*
X108836622Y-112553900D01*
X108839607Y-112616902D01*
X108842766Y-112778677D01*
X108845039Y-112873620D01*
X108849173Y-112975379D01*
X108856219Y-113082038D01*
X108867226Y-113191684D01*
X108883243Y-113302399D01*
X108893458Y-113357560D01*
X108905319Y-113412270D01*
X108918958Y-113466290D01*
X108934505Y-113519380D01*
X108952092Y-113571302D01*
X108971849Y-113621815D01*
X108980625Y-113639942D01*
X108991178Y-113657031D01*
X109003365Y-113673151D01*
X109017043Y-113688373D01*
X109032070Y-113702764D01*
X109048304Y-113716395D01*
X109065602Y-113729336D01*
X109083820Y-113741654D01*
X109122451Y-113764704D01*
X109163056Y-113786099D01*
X109245625Y-113826148D01*
X109285309Y-113845910D01*
X109322404Y-113866238D01*
X109355771Y-113887687D01*
X109370700Y-113899005D01*
X109384269Y-113910811D01*
X109396335Y-113923175D01*
X109406756Y-113936165D01*
X109415390Y-113949852D01*
X109422094Y-113964305D01*
X109426725Y-113979593D01*
X109429141Y-113995785D01*
X109429198Y-114012951D01*
X109426756Y-114031160D01*
X109405691Y-114105307D01*
X109373516Y-114174901D01*
X109331004Y-114240087D01*
X109278926Y-114301008D01*
X109218056Y-114357808D01*
X109149166Y-114410633D01*
X109073029Y-114459625D01*
X108990416Y-114504930D01*
X108902100Y-114546691D01*
X108808854Y-114585052D01*
X108610660Y-114652155D01*
X108402013Y-114707391D01*
X108189094Y-114751914D01*
X107978081Y-114786879D01*
X107775155Y-114813438D01*
X107418278Y-114845955D01*
X107073453Y-114860893D01*
X108765666Y-112494356D01*
X108779129Y-112477200D01*
X108790827Y-112465818D01*
X108800891Y-112459971D01*
X108809453Y-112459419D01*
X108816644Y-112463923D01*
X192519305Y-134172543D02*
X191316409Y-134304620D01*
X190796043Y-134356144D01*
X190262828Y-134404142D01*
X189754266Y-134443150D01*
X189307861Y-134467701D01*
X188180660Y-134503461D01*
X187052797Y-134524069D01*
X185924561Y-134529624D01*
X184796247Y-134520225D01*
X183668145Y-134495970D01*
X182540547Y-134456957D01*
X181413745Y-134403285D01*
X180288032Y-134335052D01*
X178491625Y-134185246D01*
X176446265Y-133970836D01*
X172210916Y-133452481D01*
X167377291Y-132787539D01*
X166118734Y-126814195D01*
X192519305Y-134172543D01*
X147121168Y-140174002D02*
X147185401Y-140178016D01*
X147250825Y-140186198D01*
X147317314Y-140198874D01*
X147384742Y-140216369D01*
X147452984Y-140239012D01*
X147521911Y-140267126D01*
X147591401Y-140301040D01*
X147661325Y-140341079D01*
X147731558Y-140387570D01*
X147863990Y-140483586D01*
X147980576Y-140572411D01*
X148082324Y-140654184D01*
X148170240Y-140729041D01*
X148245334Y-140797120D01*
X148308612Y-140858559D01*
X148361081Y-140913494D01*
X148403750Y-140962063D01*
X148437625Y-141004404D01*
X148463715Y-141040653D01*
X148483027Y-141070948D01*
X148496568Y-141095428D01*
X148510369Y-141127486D01*
X148513178Y-141137929D01*
X147074992Y-144326948D01*
X143635890Y-143607859D01*
X146262119Y-140481396D01*
X146294483Y-140455566D01*
X146333426Y-140427194D01*
X146386200Y-140391998D01*
X146451797Y-140352588D01*
X146529211Y-140311575D01*
X146572033Y-140291284D01*
X146617432Y-140271570D01*
X146665281Y-140252760D01*
X146715454Y-140235182D01*
X146767826Y-140219160D01*
X146822270Y-140205022D01*
X146878660Y-140193094D01*
X146936871Y-140183701D01*
X146996777Y-140177171D01*
X147058251Y-140173829D01*
X147121168Y-140174002D01*
D11*
X124737704Y-63759524D02*
X125537704Y-63759524D01*
X125537704Y-63759524D02*
X125537704Y-63950000D01*
X125537704Y-63950000D02*
X125499609Y-64064286D01*
X125499609Y-64064286D02*
X125423419Y-64140476D01*
X125423419Y-64140476D02*
X125347228Y-64178571D01*
X125347228Y-64178571D02*
X125194847Y-64216667D01*
X125194847Y-64216667D02*
X125080561Y-64216667D01*
X125080561Y-64216667D02*
X124928180Y-64178571D01*
X124928180Y-64178571D02*
X124851990Y-64140476D01*
X124851990Y-64140476D02*
X124775800Y-64064286D01*
X124775800Y-64064286D02*
X124737704Y-63950000D01*
X124737704Y-63950000D02*
X124737704Y-63759524D01*
X125461514Y-64521428D02*
X125499609Y-64559524D01*
X125499609Y-64559524D02*
X125537704Y-64635714D01*
X125537704Y-64635714D02*
X125537704Y-64826190D01*
X125537704Y-64826190D02*
X125499609Y-64902381D01*
X125499609Y-64902381D02*
X125461514Y-64940476D01*
X125461514Y-64940476D02*
X125385323Y-64978571D01*
X125385323Y-64978571D02*
X125309133Y-64978571D01*
X125309133Y-64978571D02*
X125194847Y-64940476D01*
X125194847Y-64940476D02*
X124737704Y-64483333D01*
X124737704Y-64483333D02*
X124737704Y-64978571D01*
X199933333Y-129424819D02*
X199600000Y-128948628D01*
X199361905Y-129424819D02*
X199361905Y-128424819D01*
X199361905Y-128424819D02*
X199742857Y-128424819D01*
X199742857Y-128424819D02*
X199838095Y-128472438D01*
X199838095Y-128472438D02*
X199885714Y-128520057D01*
X199885714Y-128520057D02*
X199933333Y-128615295D01*
X199933333Y-128615295D02*
X199933333Y-128758152D01*
X199933333Y-128758152D02*
X199885714Y-128853390D01*
X199885714Y-128853390D02*
X199838095Y-128901009D01*
X199838095Y-128901009D02*
X199742857Y-128948628D01*
X199742857Y-128948628D02*
X199361905Y-128948628D01*
X200885714Y-129424819D02*
X200314286Y-129424819D01*
X200600000Y-129424819D02*
X200600000Y-128424819D01*
X200600000Y-128424819D02*
X200504762Y-128567676D01*
X200504762Y-128567676D02*
X200409524Y-128662914D01*
X200409524Y-128662914D02*
X200314286Y-128710533D01*
X191931369Y-132787959D02*
X191742204Y-132238336D01*
X191382076Y-132630452D02*
X191657714Y-131669190D01*
X191657714Y-131669190D02*
X192023909Y-131774195D01*
X192023909Y-131774195D02*
X192102332Y-131846220D01*
X192102332Y-131846220D02*
X192134981Y-131905120D01*
X192134981Y-131905120D02*
X192154504Y-132009795D01*
X192154504Y-132009795D02*
X192115127Y-132147118D01*
X192115127Y-132147118D02*
X192043101Y-132225541D01*
X192043101Y-132225541D02*
X191984201Y-132258190D01*
X191984201Y-132258190D02*
X191879527Y-132277713D01*
X191879527Y-132277713D02*
X191513332Y-132172708D01*
X192481652Y-131905451D02*
X192526435Y-132958591D01*
X192526435Y-132958591D02*
X193122493Y-132089209D01*
X193670795Y-133286731D02*
X193121502Y-133129224D01*
X193396149Y-133207978D02*
X193671786Y-132246716D01*
X193671786Y-132246716D02*
X193540860Y-132357788D01*
X193540860Y-132357788D02*
X193423061Y-132423085D01*
X193423061Y-132423085D02*
X193318386Y-132442609D01*
X207183333Y-128769104D02*
X207659523Y-128769104D01*
X207088095Y-129054819D02*
X207421428Y-128054819D01*
X207421428Y-128054819D02*
X207754761Y-129054819D01*
X208088095Y-128531009D02*
X208421428Y-128531009D01*
X208564285Y-129054819D02*
X208088095Y-129054819D01*
X208088095Y-129054819D02*
X208088095Y-128054819D01*
X208088095Y-128054819D02*
X208564285Y-128054819D01*
X209516666Y-129054819D02*
X208945238Y-129054819D01*
X209230952Y-129054819D02*
X209230952Y-128054819D01*
X209230952Y-128054819D02*
X209135714Y-128197676D01*
X209135714Y-128197676D02*
X209040476Y-128292914D01*
X209040476Y-128292914D02*
X208945238Y-128340533D01*
X157369257Y-105445125D02*
X157436600Y-105579812D01*
X157436600Y-105579812D02*
X157604959Y-105748170D01*
X157604959Y-105748170D02*
X157705974Y-105781842D01*
X157705974Y-105781842D02*
X157773318Y-105781842D01*
X157773318Y-105781842D02*
X157874333Y-105748170D01*
X157874333Y-105748170D02*
X157941677Y-105680827D01*
X157941677Y-105680827D02*
X157975348Y-105579812D01*
X157975348Y-105579812D02*
X157975348Y-105512468D01*
X157975348Y-105512468D02*
X157941677Y-105411453D01*
X157941677Y-105411453D02*
X157840661Y-105243094D01*
X157840661Y-105243094D02*
X157806990Y-105142079D01*
X157806990Y-105142079D02*
X157806990Y-105074735D01*
X157806990Y-105074735D02*
X157840661Y-104973720D01*
X157840661Y-104973720D02*
X157908005Y-104906377D01*
X157908005Y-104906377D02*
X158009020Y-104872705D01*
X158009020Y-104872705D02*
X158076364Y-104872705D01*
X158076364Y-104872705D02*
X158177379Y-104906377D01*
X158177379Y-104906377D02*
X158345738Y-105074735D01*
X158345738Y-105074735D02*
X158413081Y-105209422D01*
X158682455Y-105411453D02*
X158143707Y-106286919D01*
X158143707Y-106286919D02*
X158783471Y-105916529D01*
X158783471Y-105916529D02*
X158413081Y-106556293D01*
X158413081Y-106556293D02*
X159288547Y-106017545D01*
X159221203Y-107364414D02*
X158817142Y-106960353D01*
X159019173Y-107162384D02*
X159726279Y-106455277D01*
X159726279Y-106455277D02*
X159557921Y-106488949D01*
X159557921Y-106488949D02*
X159423234Y-106488949D01*
X159423234Y-106488949D02*
X159322218Y-106455277D01*
X179033333Y-122054819D02*
X178700000Y-121578628D01*
X178461905Y-122054819D02*
X178461905Y-121054819D01*
X178461905Y-121054819D02*
X178842857Y-121054819D01*
X178842857Y-121054819D02*
X178938095Y-121102438D01*
X178938095Y-121102438D02*
X178985714Y-121150057D01*
X178985714Y-121150057D02*
X179033333Y-121245295D01*
X179033333Y-121245295D02*
X179033333Y-121388152D01*
X179033333Y-121388152D02*
X178985714Y-121483390D01*
X178985714Y-121483390D02*
X178938095Y-121531009D01*
X178938095Y-121531009D02*
X178842857Y-121578628D01*
X178842857Y-121578628D02*
X178461905Y-121578628D01*
X179366667Y-121054819D02*
X179985714Y-121054819D01*
X179985714Y-121054819D02*
X179652381Y-121435771D01*
X179652381Y-121435771D02*
X179795238Y-121435771D01*
X179795238Y-121435771D02*
X179890476Y-121483390D01*
X179890476Y-121483390D02*
X179938095Y-121531009D01*
X179938095Y-121531009D02*
X179985714Y-121626247D01*
X179985714Y-121626247D02*
X179985714Y-121864342D01*
X179985714Y-121864342D02*
X179938095Y-121959580D01*
X179938095Y-121959580D02*
X179890476Y-122007200D01*
X179890476Y-122007200D02*
X179795238Y-122054819D01*
X179795238Y-122054819D02*
X179509524Y-122054819D01*
X179509524Y-122054819D02*
X179414286Y-122007200D01*
X179414286Y-122007200D02*
X179366667Y-121959580D01*
X140623333Y-110924819D02*
X140290000Y-110448628D01*
X140051905Y-110924819D02*
X140051905Y-109924819D01*
X140051905Y-109924819D02*
X140432857Y-109924819D01*
X140432857Y-109924819D02*
X140528095Y-109972438D01*
X140528095Y-109972438D02*
X140575714Y-110020057D01*
X140575714Y-110020057D02*
X140623333Y-110115295D01*
X140623333Y-110115295D02*
X140623333Y-110258152D01*
X140623333Y-110258152D02*
X140575714Y-110353390D01*
X140575714Y-110353390D02*
X140528095Y-110401009D01*
X140528095Y-110401009D02*
X140432857Y-110448628D01*
X140432857Y-110448628D02*
X140051905Y-110448628D01*
X141480476Y-109924819D02*
X141290000Y-109924819D01*
X141290000Y-109924819D02*
X141194762Y-109972438D01*
X141194762Y-109972438D02*
X141147143Y-110020057D01*
X141147143Y-110020057D02*
X141051905Y-110162914D01*
X141051905Y-110162914D02*
X141004286Y-110353390D01*
X141004286Y-110353390D02*
X141004286Y-110734342D01*
X141004286Y-110734342D02*
X141051905Y-110829580D01*
X141051905Y-110829580D02*
X141099524Y-110877200D01*
X141099524Y-110877200D02*
X141194762Y-110924819D01*
X141194762Y-110924819D02*
X141385238Y-110924819D01*
X141385238Y-110924819D02*
X141480476Y-110877200D01*
X141480476Y-110877200D02*
X141528095Y-110829580D01*
X141528095Y-110829580D02*
X141575714Y-110734342D01*
X141575714Y-110734342D02*
X141575714Y-110496247D01*
X141575714Y-110496247D02*
X141528095Y-110401009D01*
X141528095Y-110401009D02*
X141480476Y-110353390D01*
X141480476Y-110353390D02*
X141385238Y-110305771D01*
X141385238Y-110305771D02*
X141194762Y-110305771D01*
X141194762Y-110305771D02*
X141099524Y-110353390D01*
X141099524Y-110353390D02*
X141051905Y-110401009D01*
X141051905Y-110401009D02*
X141004286Y-110496247D01*
X179033333Y-118254819D02*
X178700000Y-117778628D01*
X178461905Y-118254819D02*
X178461905Y-117254819D01*
X178461905Y-117254819D02*
X178842857Y-117254819D01*
X178842857Y-117254819D02*
X178938095Y-117302438D01*
X178938095Y-117302438D02*
X178985714Y-117350057D01*
X178985714Y-117350057D02*
X179033333Y-117445295D01*
X179033333Y-117445295D02*
X179033333Y-117588152D01*
X179033333Y-117588152D02*
X178985714Y-117683390D01*
X178985714Y-117683390D02*
X178938095Y-117731009D01*
X178938095Y-117731009D02*
X178842857Y-117778628D01*
X178842857Y-117778628D02*
X178461905Y-117778628D01*
X179414286Y-117350057D02*
X179461905Y-117302438D01*
X179461905Y-117302438D02*
X179557143Y-117254819D01*
X179557143Y-117254819D02*
X179795238Y-117254819D01*
X179795238Y-117254819D02*
X179890476Y-117302438D01*
X179890476Y-117302438D02*
X179938095Y-117350057D01*
X179938095Y-117350057D02*
X179985714Y-117445295D01*
X179985714Y-117445295D02*
X179985714Y-117540533D01*
X179985714Y-117540533D02*
X179938095Y-117683390D01*
X179938095Y-117683390D02*
X179366667Y-118254819D01*
X179366667Y-118254819D02*
X179985714Y-118254819D01*
X96219047Y-87160225D02*
X96361904Y-87207844D01*
X96361904Y-87207844D02*
X96409523Y-87255463D01*
X96409523Y-87255463D02*
X96457142Y-87350701D01*
X96457142Y-87350701D02*
X96457142Y-87493558D01*
X96457142Y-87493558D02*
X96409523Y-87588796D01*
X96409523Y-87588796D02*
X96361904Y-87636416D01*
X96361904Y-87636416D02*
X96266666Y-87684035D01*
X96266666Y-87684035D02*
X95885714Y-87684035D01*
X95885714Y-87684035D02*
X95885714Y-86684035D01*
X95885714Y-86684035D02*
X96219047Y-86684035D01*
X96219047Y-86684035D02*
X96314285Y-86731654D01*
X96314285Y-86731654D02*
X96361904Y-86779273D01*
X96361904Y-86779273D02*
X96409523Y-86874511D01*
X96409523Y-86874511D02*
X96409523Y-86969749D01*
X96409523Y-86969749D02*
X96361904Y-87064987D01*
X96361904Y-87064987D02*
X96314285Y-87112606D01*
X96314285Y-87112606D02*
X96219047Y-87160225D01*
X96219047Y-87160225D02*
X95885714Y-87160225D01*
X96790476Y-86684035D02*
X97457142Y-86684035D01*
X97457142Y-86684035D02*
X96790476Y-87684035D01*
X96790476Y-87684035D02*
X97457142Y-87684035D01*
X98361904Y-87684035D02*
X97790476Y-87684035D01*
X98076190Y-87684035D02*
X98076190Y-86684035D01*
X98076190Y-86684035D02*
X97980952Y-86826892D01*
X97980952Y-86826892D02*
X97885714Y-86922130D01*
X97885714Y-86922130D02*
X97790476Y-86969749D01*
X152933333Y-125304819D02*
X152600000Y-124828628D01*
X152361905Y-125304819D02*
X152361905Y-124304819D01*
X152361905Y-124304819D02*
X152742857Y-124304819D01*
X152742857Y-124304819D02*
X152838095Y-124352438D01*
X152838095Y-124352438D02*
X152885714Y-124400057D01*
X152885714Y-124400057D02*
X152933333Y-124495295D01*
X152933333Y-124495295D02*
X152933333Y-124638152D01*
X152933333Y-124638152D02*
X152885714Y-124733390D01*
X152885714Y-124733390D02*
X152838095Y-124781009D01*
X152838095Y-124781009D02*
X152742857Y-124828628D01*
X152742857Y-124828628D02*
X152361905Y-124828628D01*
X153838095Y-124304819D02*
X153361905Y-124304819D01*
X153361905Y-124304819D02*
X153314286Y-124781009D01*
X153314286Y-124781009D02*
X153361905Y-124733390D01*
X153361905Y-124733390D02*
X153457143Y-124685771D01*
X153457143Y-124685771D02*
X153695238Y-124685771D01*
X153695238Y-124685771D02*
X153790476Y-124733390D01*
X153790476Y-124733390D02*
X153838095Y-124781009D01*
X153838095Y-124781009D02*
X153885714Y-124876247D01*
X153885714Y-124876247D02*
X153885714Y-125114342D01*
X153885714Y-125114342D02*
X153838095Y-125209580D01*
X153838095Y-125209580D02*
X153790476Y-125257200D01*
X153790476Y-125257200D02*
X153695238Y-125304819D01*
X153695238Y-125304819D02*
X153457143Y-125304819D01*
X153457143Y-125304819D02*
X153361905Y-125257200D01*
X153361905Y-125257200D02*
X153314286Y-125209580D01*
X159683333Y-127709580D02*
X159635714Y-127757200D01*
X159635714Y-127757200D02*
X159492857Y-127804819D01*
X159492857Y-127804819D02*
X159397619Y-127804819D01*
X159397619Y-127804819D02*
X159254762Y-127757200D01*
X159254762Y-127757200D02*
X159159524Y-127661961D01*
X159159524Y-127661961D02*
X159111905Y-127566723D01*
X159111905Y-127566723D02*
X159064286Y-127376247D01*
X159064286Y-127376247D02*
X159064286Y-127233390D01*
X159064286Y-127233390D02*
X159111905Y-127042914D01*
X159111905Y-127042914D02*
X159159524Y-126947676D01*
X159159524Y-126947676D02*
X159254762Y-126852438D01*
X159254762Y-126852438D02*
X159397619Y-126804819D01*
X159397619Y-126804819D02*
X159492857Y-126804819D01*
X159492857Y-126804819D02*
X159635714Y-126852438D01*
X159635714Y-126852438D02*
X159683333Y-126900057D01*
X160635714Y-127804819D02*
X160064286Y-127804819D01*
X160350000Y-127804819D02*
X160350000Y-126804819D01*
X160350000Y-126804819D02*
X160254762Y-126947676D01*
X160254762Y-126947676D02*
X160159524Y-127042914D01*
X160159524Y-127042914D02*
X160064286Y-127090533D01*
X156933333Y-139304819D02*
X156600000Y-138828628D01*
X156361905Y-139304819D02*
X156361905Y-138304819D01*
X156361905Y-138304819D02*
X156742857Y-138304819D01*
X156742857Y-138304819D02*
X156838095Y-138352438D01*
X156838095Y-138352438D02*
X156885714Y-138400057D01*
X156885714Y-138400057D02*
X156933333Y-138495295D01*
X156933333Y-138495295D02*
X156933333Y-138638152D01*
X156933333Y-138638152D02*
X156885714Y-138733390D01*
X156885714Y-138733390D02*
X156838095Y-138781009D01*
X156838095Y-138781009D02*
X156742857Y-138828628D01*
X156742857Y-138828628D02*
X156361905Y-138828628D01*
X157790476Y-138638152D02*
X157790476Y-139304819D01*
X157552381Y-138257200D02*
X157314286Y-138971485D01*
X157314286Y-138971485D02*
X157933333Y-138971485D01*
X105433333Y-86054819D02*
X105100000Y-85578628D01*
X104861905Y-86054819D02*
X104861905Y-85054819D01*
X104861905Y-85054819D02*
X105242857Y-85054819D01*
X105242857Y-85054819D02*
X105338095Y-85102438D01*
X105338095Y-85102438D02*
X105385714Y-85150057D01*
X105385714Y-85150057D02*
X105433333Y-85245295D01*
X105433333Y-85245295D02*
X105433333Y-85388152D01*
X105433333Y-85388152D02*
X105385714Y-85483390D01*
X105385714Y-85483390D02*
X105338095Y-85531009D01*
X105338095Y-85531009D02*
X105242857Y-85578628D01*
X105242857Y-85578628D02*
X104861905Y-85578628D01*
X105909524Y-86054819D02*
X106100000Y-86054819D01*
X106100000Y-86054819D02*
X106195238Y-86007200D01*
X106195238Y-86007200D02*
X106242857Y-85959580D01*
X106242857Y-85959580D02*
X106338095Y-85816723D01*
X106338095Y-85816723D02*
X106385714Y-85626247D01*
X106385714Y-85626247D02*
X106385714Y-85245295D01*
X106385714Y-85245295D02*
X106338095Y-85150057D01*
X106338095Y-85150057D02*
X106290476Y-85102438D01*
X106290476Y-85102438D02*
X106195238Y-85054819D01*
X106195238Y-85054819D02*
X106004762Y-85054819D01*
X106004762Y-85054819D02*
X105909524Y-85102438D01*
X105909524Y-85102438D02*
X105861905Y-85150057D01*
X105861905Y-85150057D02*
X105814286Y-85245295D01*
X105814286Y-85245295D02*
X105814286Y-85483390D01*
X105814286Y-85483390D02*
X105861905Y-85578628D01*
X105861905Y-85578628D02*
X105909524Y-85626247D01*
X105909524Y-85626247D02*
X106004762Y-85673866D01*
X106004762Y-85673866D02*
X106195238Y-85673866D01*
X106195238Y-85673866D02*
X106290476Y-85626247D01*
X106290476Y-85626247D02*
X106338095Y-85578628D01*
X106338095Y-85578628D02*
X106385714Y-85483390D01*
X140623333Y-115424819D02*
X140290000Y-114948628D01*
X140051905Y-115424819D02*
X140051905Y-114424819D01*
X140051905Y-114424819D02*
X140432857Y-114424819D01*
X140432857Y-114424819D02*
X140528095Y-114472438D01*
X140528095Y-114472438D02*
X140575714Y-114520057D01*
X140575714Y-114520057D02*
X140623333Y-114615295D01*
X140623333Y-114615295D02*
X140623333Y-114758152D01*
X140623333Y-114758152D02*
X140575714Y-114853390D01*
X140575714Y-114853390D02*
X140528095Y-114901009D01*
X140528095Y-114901009D02*
X140432857Y-114948628D01*
X140432857Y-114948628D02*
X140051905Y-114948628D01*
X140956667Y-114424819D02*
X141623333Y-114424819D01*
X141623333Y-114424819D02*
X141194762Y-115424819D01*
X132933333Y-86209580D02*
X132885714Y-86257200D01*
X132885714Y-86257200D02*
X132742857Y-86304819D01*
X132742857Y-86304819D02*
X132647619Y-86304819D01*
X132647619Y-86304819D02*
X132504762Y-86257200D01*
X132504762Y-86257200D02*
X132409524Y-86161961D01*
X132409524Y-86161961D02*
X132361905Y-86066723D01*
X132361905Y-86066723D02*
X132314286Y-85876247D01*
X132314286Y-85876247D02*
X132314286Y-85733390D01*
X132314286Y-85733390D02*
X132361905Y-85542914D01*
X132361905Y-85542914D02*
X132409524Y-85447676D01*
X132409524Y-85447676D02*
X132504762Y-85352438D01*
X132504762Y-85352438D02*
X132647619Y-85304819D01*
X132647619Y-85304819D02*
X132742857Y-85304819D01*
X132742857Y-85304819D02*
X132885714Y-85352438D01*
X132885714Y-85352438D02*
X132933333Y-85400057D01*
X133266667Y-85304819D02*
X133885714Y-85304819D01*
X133885714Y-85304819D02*
X133552381Y-85685771D01*
X133552381Y-85685771D02*
X133695238Y-85685771D01*
X133695238Y-85685771D02*
X133790476Y-85733390D01*
X133790476Y-85733390D02*
X133838095Y-85781009D01*
X133838095Y-85781009D02*
X133885714Y-85876247D01*
X133885714Y-85876247D02*
X133885714Y-86114342D01*
X133885714Y-86114342D02*
X133838095Y-86209580D01*
X133838095Y-86209580D02*
X133790476Y-86257200D01*
X133790476Y-86257200D02*
X133695238Y-86304819D01*
X133695238Y-86304819D02*
X133409524Y-86304819D01*
X133409524Y-86304819D02*
X133314286Y-86257200D01*
X133314286Y-86257200D02*
X133266667Y-86209580D01*
X128183333Y-86364819D02*
X127850000Y-85888628D01*
X127611905Y-86364819D02*
X127611905Y-85364819D01*
X127611905Y-85364819D02*
X127992857Y-85364819D01*
X127992857Y-85364819D02*
X128088095Y-85412438D01*
X128088095Y-85412438D02*
X128135714Y-85460057D01*
X128135714Y-85460057D02*
X128183333Y-85555295D01*
X128183333Y-85555295D02*
X128183333Y-85698152D01*
X128183333Y-85698152D02*
X128135714Y-85793390D01*
X128135714Y-85793390D02*
X128088095Y-85841009D01*
X128088095Y-85841009D02*
X127992857Y-85888628D01*
X127992857Y-85888628D02*
X127611905Y-85888628D01*
X128754762Y-85793390D02*
X128659524Y-85745771D01*
X128659524Y-85745771D02*
X128611905Y-85698152D01*
X128611905Y-85698152D02*
X128564286Y-85602914D01*
X128564286Y-85602914D02*
X128564286Y-85555295D01*
X128564286Y-85555295D02*
X128611905Y-85460057D01*
X128611905Y-85460057D02*
X128659524Y-85412438D01*
X128659524Y-85412438D02*
X128754762Y-85364819D01*
X128754762Y-85364819D02*
X128945238Y-85364819D01*
X128945238Y-85364819D02*
X129040476Y-85412438D01*
X129040476Y-85412438D02*
X129088095Y-85460057D01*
X129088095Y-85460057D02*
X129135714Y-85555295D01*
X129135714Y-85555295D02*
X129135714Y-85602914D01*
X129135714Y-85602914D02*
X129088095Y-85698152D01*
X129088095Y-85698152D02*
X129040476Y-85745771D01*
X129040476Y-85745771D02*
X128945238Y-85793390D01*
X128945238Y-85793390D02*
X128754762Y-85793390D01*
X128754762Y-85793390D02*
X128659524Y-85841009D01*
X128659524Y-85841009D02*
X128611905Y-85888628D01*
X128611905Y-85888628D02*
X128564286Y-85983866D01*
X128564286Y-85983866D02*
X128564286Y-86174342D01*
X128564286Y-86174342D02*
X128611905Y-86269580D01*
X128611905Y-86269580D02*
X128659524Y-86317200D01*
X128659524Y-86317200D02*
X128754762Y-86364819D01*
X128754762Y-86364819D02*
X128945238Y-86364819D01*
X128945238Y-86364819D02*
X129040476Y-86317200D01*
X129040476Y-86317200D02*
X129088095Y-86269580D01*
X129088095Y-86269580D02*
X129135714Y-86174342D01*
X129135714Y-86174342D02*
X129135714Y-85983866D01*
X129135714Y-85983866D02*
X129088095Y-85888628D01*
X129088095Y-85888628D02*
X129040476Y-85841009D01*
X129040476Y-85841009D02*
X128945238Y-85793390D01*
X149183333Y-123959580D02*
X149135714Y-124007200D01*
X149135714Y-124007200D02*
X148992857Y-124054819D01*
X148992857Y-124054819D02*
X148897619Y-124054819D01*
X148897619Y-124054819D02*
X148754762Y-124007200D01*
X148754762Y-124007200D02*
X148659524Y-123911961D01*
X148659524Y-123911961D02*
X148611905Y-123816723D01*
X148611905Y-123816723D02*
X148564286Y-123626247D01*
X148564286Y-123626247D02*
X148564286Y-123483390D01*
X148564286Y-123483390D02*
X148611905Y-123292914D01*
X148611905Y-123292914D02*
X148659524Y-123197676D01*
X148659524Y-123197676D02*
X148754762Y-123102438D01*
X148754762Y-123102438D02*
X148897619Y-123054819D01*
X148897619Y-123054819D02*
X148992857Y-123054819D01*
X148992857Y-123054819D02*
X149135714Y-123102438D01*
X149135714Y-123102438D02*
X149183333Y-123150057D01*
X149564286Y-123150057D02*
X149611905Y-123102438D01*
X149611905Y-123102438D02*
X149707143Y-123054819D01*
X149707143Y-123054819D02*
X149945238Y-123054819D01*
X149945238Y-123054819D02*
X150040476Y-123102438D01*
X150040476Y-123102438D02*
X150088095Y-123150057D01*
X150088095Y-123150057D02*
X150135714Y-123245295D01*
X150135714Y-123245295D02*
X150135714Y-123340533D01*
X150135714Y-123340533D02*
X150088095Y-123483390D01*
X150088095Y-123483390D02*
X149516667Y-124054819D01*
X149516667Y-124054819D02*
X150135714Y-124054819D01*
X109957142Y-86054819D02*
X109623809Y-85578628D01*
X109385714Y-86054819D02*
X109385714Y-85054819D01*
X109385714Y-85054819D02*
X109766666Y-85054819D01*
X109766666Y-85054819D02*
X109861904Y-85102438D01*
X109861904Y-85102438D02*
X109909523Y-85150057D01*
X109909523Y-85150057D02*
X109957142Y-85245295D01*
X109957142Y-85245295D02*
X109957142Y-85388152D01*
X109957142Y-85388152D02*
X109909523Y-85483390D01*
X109909523Y-85483390D02*
X109861904Y-85531009D01*
X109861904Y-85531009D02*
X109766666Y-85578628D01*
X109766666Y-85578628D02*
X109385714Y-85578628D01*
X110909523Y-86054819D02*
X110338095Y-86054819D01*
X110623809Y-86054819D02*
X110623809Y-85054819D01*
X110623809Y-85054819D02*
X110528571Y-85197676D01*
X110528571Y-85197676D02*
X110433333Y-85292914D01*
X110433333Y-85292914D02*
X110338095Y-85340533D01*
X111528571Y-85054819D02*
X111623809Y-85054819D01*
X111623809Y-85054819D02*
X111719047Y-85102438D01*
X111719047Y-85102438D02*
X111766666Y-85150057D01*
X111766666Y-85150057D02*
X111814285Y-85245295D01*
X111814285Y-85245295D02*
X111861904Y-85435771D01*
X111861904Y-85435771D02*
X111861904Y-85673866D01*
X111861904Y-85673866D02*
X111814285Y-85864342D01*
X111814285Y-85864342D02*
X111766666Y-85959580D01*
X111766666Y-85959580D02*
X111719047Y-86007200D01*
X111719047Y-86007200D02*
X111623809Y-86054819D01*
X111623809Y-86054819D02*
X111528571Y-86054819D01*
X111528571Y-86054819D02*
X111433333Y-86007200D01*
X111433333Y-86007200D02*
X111385714Y-85959580D01*
X111385714Y-85959580D02*
X111338095Y-85864342D01*
X111338095Y-85864342D02*
X111290476Y-85673866D01*
X111290476Y-85673866D02*
X111290476Y-85435771D01*
X111290476Y-85435771D02*
X111338095Y-85245295D01*
X111338095Y-85245295D02*
X111385714Y-85150057D01*
X111385714Y-85150057D02*
X111433333Y-85102438D01*
X111433333Y-85102438D02*
X111528571Y-85054819D01*
X158588095Y-109804819D02*
X158588095Y-110614342D01*
X158588095Y-110614342D02*
X158635714Y-110709580D01*
X158635714Y-110709580D02*
X158683333Y-110757200D01*
X158683333Y-110757200D02*
X158778571Y-110804819D01*
X158778571Y-110804819D02*
X158969047Y-110804819D01*
X158969047Y-110804819D02*
X159064285Y-110757200D01*
X159064285Y-110757200D02*
X159111904Y-110709580D01*
X159111904Y-110709580D02*
X159159523Y-110614342D01*
X159159523Y-110614342D02*
X159159523Y-109804819D01*
X160159523Y-110804819D02*
X159588095Y-110804819D01*
X159873809Y-110804819D02*
X159873809Y-109804819D01*
X159873809Y-109804819D02*
X159778571Y-109947676D01*
X159778571Y-109947676D02*
X159683333Y-110042914D01*
X159683333Y-110042914D02*
X159588095Y-110090533D01*
X148064285Y-106781009D02*
X148207142Y-106828628D01*
X148207142Y-106828628D02*
X148254761Y-106876247D01*
X148254761Y-106876247D02*
X148302380Y-106971485D01*
X148302380Y-106971485D02*
X148302380Y-107114342D01*
X148302380Y-107114342D02*
X148254761Y-107209580D01*
X148254761Y-107209580D02*
X148207142Y-107257200D01*
X148207142Y-107257200D02*
X148111904Y-107304819D01*
X148111904Y-107304819D02*
X147730952Y-107304819D01*
X147730952Y-107304819D02*
X147730952Y-106304819D01*
X147730952Y-106304819D02*
X148064285Y-106304819D01*
X148064285Y-106304819D02*
X148159523Y-106352438D01*
X148159523Y-106352438D02*
X148207142Y-106400057D01*
X148207142Y-106400057D02*
X148254761Y-106495295D01*
X148254761Y-106495295D02*
X148254761Y-106590533D01*
X148254761Y-106590533D02*
X148207142Y-106685771D01*
X148207142Y-106685771D02*
X148159523Y-106733390D01*
X148159523Y-106733390D02*
X148064285Y-106781009D01*
X148064285Y-106781009D02*
X147730952Y-106781009D01*
X148588095Y-106304819D02*
X149159523Y-106304819D01*
X148873809Y-107304819D02*
X148873809Y-106304819D01*
X150016666Y-107304819D02*
X149445238Y-107304819D01*
X149730952Y-107304819D02*
X149730952Y-106304819D01*
X149730952Y-106304819D02*
X149635714Y-106447676D01*
X149635714Y-106447676D02*
X149540476Y-106542914D01*
X149540476Y-106542914D02*
X149445238Y-106590533D01*
X119838095Y-85804819D02*
X119838095Y-86614342D01*
X119838095Y-86614342D02*
X119885714Y-86709580D01*
X119885714Y-86709580D02*
X119933333Y-86757200D01*
X119933333Y-86757200D02*
X120028571Y-86804819D01*
X120028571Y-86804819D02*
X120219047Y-86804819D01*
X120219047Y-86804819D02*
X120314285Y-86757200D01*
X120314285Y-86757200D02*
X120361904Y-86709580D01*
X120361904Y-86709580D02*
X120409523Y-86614342D01*
X120409523Y-86614342D02*
X120409523Y-85804819D01*
X120838095Y-85900057D02*
X120885714Y-85852438D01*
X120885714Y-85852438D02*
X120980952Y-85804819D01*
X120980952Y-85804819D02*
X121219047Y-85804819D01*
X121219047Y-85804819D02*
X121314285Y-85852438D01*
X121314285Y-85852438D02*
X121361904Y-85900057D01*
X121361904Y-85900057D02*
X121409523Y-85995295D01*
X121409523Y-85995295D02*
X121409523Y-86090533D01*
X121409523Y-86090533D02*
X121361904Y-86233390D01*
X121361904Y-86233390D02*
X120790476Y-86804819D01*
X120790476Y-86804819D02*
X121409523Y-86804819D01*
X119600000Y-59350000D02*
X119600000Y-57850000D01*
X119600000Y-60100000D02*
X117100000Y-60100000D01*
X119600000Y-60100000D02*
X122100000Y-60100000D01*
X119600000Y-69600000D02*
X119600000Y-71100000D01*
X119600000Y-70350000D02*
X120350000Y-70350000D01*
X120350000Y-70350000D02*
X118850000Y-70350000D01*
X122100000Y-60100000D02*
G75*
G02*
X117100000Y-60100000I-2500000J-4000000D01*
G01*
X123600000Y-64100000D02*
G75*
G02*
X115600000Y-64100000I-4000000J0D01*
G01*
X115600000Y-64100000D02*
G75*
G02*
X123600000Y-64100000I4000000J0D01*
G01*
D12*
X196830000Y-125230000D02*
X196830000Y-125560000D01*
X196830000Y-127970000D02*
X196830000Y-127640000D01*
X203370000Y-125230000D02*
X196830000Y-125230000D01*
X203370000Y-125560000D02*
X203370000Y-125230000D01*
X203370000Y-127640000D02*
X203370000Y-127970000D01*
X203370000Y-127970000D02*
X196830000Y-127970000D01*
X179343927Y-129424561D02*
X180335119Y-125967864D01*
X181120685Y-123228268D02*
X182111602Y-119772532D01*
X189187247Y-132247088D02*
X179343927Y-129424561D01*
X189187247Y-132247088D02*
X189489070Y-131194506D01*
X190275187Y-128452988D02*
X190867532Y-126387236D01*
X191653099Y-123647641D02*
X191954922Y-122595059D01*
X191954922Y-122595059D02*
X182111602Y-119772532D01*
X207405000Y-125915000D02*
X208100000Y-125915000D01*
X207405000Y-126600000D02*
X207405000Y-125915000D01*
X207405000Y-127285000D02*
X207405000Y-127160000D01*
X207405000Y-127285000D02*
X207491724Y-127285000D01*
X207405000Y-127285000D02*
X208795000Y-127285000D01*
X208708276Y-127285000D02*
X208795000Y-127285000D01*
X208795000Y-127285000D02*
X208795000Y-127160000D01*
X161312132Y-100559441D02*
X159685787Y-98933096D01*
X162514214Y-108266905D02*
X156433096Y-102185787D01*
X165766905Y-105014214D02*
X164211270Y-103458579D01*
X169830000Y-120230000D02*
X176370000Y-120230000D01*
X169830000Y-120560000D02*
X169830000Y-120230000D01*
X169830000Y-122640000D02*
X169830000Y-122970000D01*
X169830000Y-122970000D02*
X176370000Y-122970000D01*
X176370000Y-120230000D02*
X176370000Y-120560000D01*
X176370000Y-122970000D02*
X176370000Y-122640000D01*
X137520000Y-106730000D02*
X137520000Y-107060000D01*
X137520000Y-109470000D02*
X137520000Y-109140000D01*
X144060000Y-106730000D02*
X137520000Y-106730000D01*
X144060000Y-107060000D02*
X144060000Y-106730000D01*
X144060000Y-109140000D02*
X144060000Y-109470000D01*
X144060000Y-109470000D02*
X137520000Y-109470000D01*
X169830000Y-116480000D02*
X169830000Y-116810000D01*
X169830000Y-119220000D02*
X169830000Y-118890000D01*
X176370000Y-116480000D02*
X169830000Y-116480000D01*
X176370000Y-116810000D02*
X176370000Y-116480000D01*
X176370000Y-118890000D02*
X176370000Y-119220000D01*
X176370000Y-119220000D02*
X169830000Y-119220000D01*
X98599999Y-86000000D02*
G75*
G02*
X95600000Y-86000000I-1499999J6400000D01*
G01*
X103330000Y-79600000D02*
G75*
G02*
X90870000Y-79600000I-6230000J0D01*
G01*
X90870000Y-79600000D02*
G75*
G02*
X103330000Y-79600000I6230000J0D01*
G01*
X151730000Y-115830000D02*
X152060000Y-115830000D01*
X151730000Y-122370000D02*
X151730000Y-115830000D01*
X152060000Y-122370000D02*
X151730000Y-122370000D01*
X154140000Y-122370000D02*
X154470000Y-122370000D01*
X154470000Y-115830000D02*
X154140000Y-115830000D01*
X154470000Y-122370000D02*
X154470000Y-115830000D01*
X156930000Y-123545000D02*
X156930000Y-122879000D01*
X156930000Y-126321000D02*
X156930000Y-125655000D01*
X162270000Y-122879000D02*
X156930000Y-122879000D01*
X162270000Y-123545000D02*
X162270000Y-122879000D01*
X162270000Y-126321000D02*
X156930000Y-126321000D01*
X162270000Y-126321000D02*
X162270000Y-125655000D01*
X155730000Y-129830000D02*
X155730000Y-136370000D01*
X155730000Y-136370000D02*
X156060000Y-136370000D01*
X156060000Y-129830000D02*
X155730000Y-129830000D01*
X158140000Y-129830000D02*
X158470000Y-129830000D01*
X158470000Y-129830000D02*
X158470000Y-136370000D01*
X158470000Y-136370000D02*
X158140000Y-136370000D01*
X104230000Y-76330000D02*
X104560000Y-76330000D01*
X104230000Y-82870000D02*
X104230000Y-76330000D01*
X104560000Y-82870000D02*
X104230000Y-82870000D01*
X106640000Y-82870000D02*
X106970000Y-82870000D01*
X106970000Y-76330000D02*
X106640000Y-76330000D01*
X106970000Y-82870000D02*
X106970000Y-76330000D01*
X137520000Y-111230000D02*
X137520000Y-111560000D01*
X137520000Y-113970000D02*
X137520000Y-113640000D01*
X144060000Y-111230000D02*
X137520000Y-111230000D01*
X144060000Y-111560000D02*
X144060000Y-111230000D01*
X144060000Y-113640000D02*
X144060000Y-113970000D01*
X144060000Y-113970000D02*
X137520000Y-113970000D01*
X132030000Y-79080000D02*
X132045000Y-79080000D01*
X132030000Y-83620000D02*
X132030000Y-79080000D01*
X132030000Y-83620000D02*
X132045000Y-83620000D01*
X134155000Y-79080000D02*
X134170000Y-79080000D01*
X134155000Y-83620000D02*
X134170000Y-83620000D01*
X134170000Y-83620000D02*
X134170000Y-79080000D01*
X126980000Y-76890000D02*
X126980000Y-83430000D01*
X126980000Y-83430000D02*
X127310000Y-83430000D01*
X127310000Y-76890000D02*
X126980000Y-76890000D01*
X129390000Y-76890000D02*
X129720000Y-76890000D01*
X129720000Y-76890000D02*
X129720000Y-83430000D01*
X129720000Y-83430000D02*
X129390000Y-83430000D01*
X148530000Y-116830000D02*
X148545000Y-116830000D01*
X148530000Y-121370000D02*
X148530000Y-116830000D01*
X148530000Y-121370000D02*
X148545000Y-121370000D01*
X150655000Y-116830000D02*
X150670000Y-116830000D01*
X150655000Y-121370000D02*
X150670000Y-121370000D01*
X150670000Y-121370000D02*
X150670000Y-116830000D01*
X109230000Y-76330000D02*
X109560000Y-76330000D01*
X109230000Y-82870000D02*
X109230000Y-76330000D01*
X109560000Y-82870000D02*
X109230000Y-82870000D01*
X111640000Y-82870000D02*
X111970000Y-82870000D01*
X111970000Y-76330000D02*
X111640000Y-76330000D01*
X111970000Y-82870000D02*
X111970000Y-76330000D01*
X155340000Y-111390000D02*
X155340000Y-121790000D01*
X155340000Y-121790000D02*
X165840000Y-121790000D01*
X158340000Y-111450000D02*
X158340000Y-121730000D01*
X158340000Y-121730000D02*
X159590000Y-121730000D01*
X161590000Y-121730000D02*
X162840000Y-121730000D01*
X162840000Y-111450000D02*
X158340000Y-111450000D01*
X162840000Y-121730000D02*
X162840000Y-111450000D01*
X165840000Y-111390000D02*
X155340000Y-111390000D01*
X165840000Y-121790000D02*
X165840000Y-111390000D01*
X159590000Y-121730000D02*
G75*
G02*
X161590000Y-121730000I1000000J0D01*
G01*
X139350000Y-96800000D02*
X139350000Y-94500000D01*
X139350000Y-102050000D02*
X139350000Y-100400000D01*
X141950000Y-104650000D02*
X139350000Y-102050000D01*
X141950000Y-105450000D02*
X141950000Y-104650000D01*
X150250000Y-104650000D02*
X150250000Y-105450000D01*
X150250000Y-105450000D02*
X141950000Y-105450000D01*
X152850000Y-96800000D02*
X152850000Y-94500000D01*
X152850000Y-100400000D02*
X152850000Y-102050000D01*
X152850000Y-102050000D02*
X150250000Y-104650000D01*
X139350000Y-94500000D02*
G75*
G02*
X140800000Y-92999992I1499960J880D01*
G01*
X140800000Y-93000000D02*
G75*
G02*
X141600000Y-93400000I-6100J-1012200D01*
G01*
X150600000Y-93400000D02*
G75*
G02*
X151514615Y-93015840I790000J-600001D01*
G01*
X151400000Y-93000000D02*
G75*
G02*
X152849999Y-94500000I-49974J-1499141D01*
G01*
X113860000Y-74910000D02*
X113860000Y-85310000D01*
X113860000Y-85310000D02*
X124360000Y-85310000D01*
X116860000Y-74970000D02*
X116860000Y-85250000D01*
X116860000Y-85250000D02*
X121360000Y-85250000D01*
X118110000Y-74970000D02*
X116860000Y-74970000D01*
X121360000Y-74970000D02*
X120110000Y-74970000D01*
X121360000Y-85250000D02*
X121360000Y-74970000D01*
X124360000Y-74910000D02*
X113860000Y-74910000D01*
X124360000Y-85310000D02*
X124360000Y-74910000D01*
X120110000Y-74970000D02*
G75*
G02*
X118110000Y-74970000I-1000000J0D01*
G01*
%LPC*%
D10*
X173693520Y-108283418D02*
X177183892Y-109510260D01*
X178412866Y-112453653D01*
X178464365Y-112596339D01*
X178472105Y-112638462D01*
X178468624Y-112662457D01*
X178454510Y-112669335D01*
X178430350Y-112660111D01*
X178354251Y-112597408D01*
X178245034Y-112482452D01*
X178107408Y-112323350D01*
X177765758Y-111905128D01*
X177366962Y-111407584D01*
X176948683Y-110895564D01*
X176744006Y-110654388D01*
X176548582Y-110433910D01*
X176367118Y-110242235D01*
X176204322Y-110087468D01*
X176043744Y-109954162D01*
X175856125Y-109811254D01*
X175423362Y-109507209D01*
X174953223Y-109196492D01*
X174492897Y-108900263D01*
X174089574Y-108639681D01*
X173790443Y-108435907D01*
X173694697Y-108361935D01*
X173642696Y-108310099D01*
X173634942Y-108293309D01*
X173640337Y-108283045D01*
X173659617Y-108279638D01*
X173693520Y-108283418D01*
G36*
X173693520Y-108283418D02*
G01*
X177183892Y-109510260D01*
X178412866Y-112453653D01*
X178464365Y-112596339D01*
X178472105Y-112638462D01*
X178468624Y-112662457D01*
X178454510Y-112669335D01*
X178430350Y-112660111D01*
X178354251Y-112597408D01*
X178245034Y-112482452D01*
X178107408Y-112323350D01*
X177765758Y-111905128D01*
X177366962Y-111407584D01*
X176948683Y-110895564D01*
X176744006Y-110654388D01*
X176548582Y-110433910D01*
X176367118Y-110242235D01*
X176204322Y-110087468D01*
X176043744Y-109954162D01*
X175856125Y-109811254D01*
X175423362Y-109507209D01*
X174953223Y-109196492D01*
X174492897Y-108900263D01*
X174089574Y-108639681D01*
X173790443Y-108435907D01*
X173694697Y-108361935D01*
X173642696Y-108310099D01*
X173634942Y-108293309D01*
X173640337Y-108283045D01*
X173659617Y-108279638D01*
X173693520Y-108283418D01*
G37*
X171013362Y-100885005D02*
X171210212Y-103678645D01*
X171213824Y-103765764D01*
X171210937Y-103830424D01*
X171201851Y-103873764D01*
X171186868Y-103896922D01*
X171166288Y-103901036D01*
X171140411Y-103887246D01*
X171109539Y-103856691D01*
X171073971Y-103810509D01*
X170989952Y-103675818D01*
X170890761Y-103492283D01*
X170656478Y-103015122D01*
X170111651Y-101875503D01*
X169973587Y-101605134D01*
X169839588Y-101358799D01*
X169712062Y-101145607D01*
X169593412Y-100974669D01*
X169484027Y-100834098D01*
X169386092Y-100716330D01*
X169296325Y-100616720D01*
X169211448Y-100530622D01*
X169128181Y-100453392D01*
X169043242Y-100380385D01*
X168855232Y-100228460D01*
X168745601Y-100140253D01*
X168621178Y-100037689D01*
X168478685Y-99916124D01*
X168314841Y-99770912D01*
X168126366Y-99597410D01*
X167909980Y-99390971D01*
X167662402Y-99146952D01*
X167380354Y-98860707D01*
X171013362Y-100885005D01*
G36*
X171013362Y-100885005D02*
G01*
X171210212Y-103678645D01*
X171213824Y-103765764D01*
X171210937Y-103830424D01*
X171201851Y-103873764D01*
X171186868Y-103896922D01*
X171166288Y-103901036D01*
X171140411Y-103887246D01*
X171109539Y-103856691D01*
X171073971Y-103810509D01*
X170989952Y-103675818D01*
X170890761Y-103492283D01*
X170656478Y-103015122D01*
X170111651Y-101875503D01*
X169973587Y-101605134D01*
X169839588Y-101358799D01*
X169712062Y-101145607D01*
X169593412Y-100974669D01*
X169484027Y-100834098D01*
X169386092Y-100716330D01*
X169296325Y-100616720D01*
X169211448Y-100530622D01*
X169128181Y-100453392D01*
X169043242Y-100380385D01*
X168855232Y-100228460D01*
X168745601Y-100140253D01*
X168621178Y-100037689D01*
X168478685Y-99916124D01*
X168314841Y-99770912D01*
X168126366Y-99597410D01*
X167909980Y-99390971D01*
X167662402Y-99146952D01*
X167380354Y-98860707D01*
X171013362Y-100885005D01*
G37*
X140422151Y-71894640D02*
X140491945Y-72059906D01*
X141701717Y-75238620D01*
X141598243Y-75616234D01*
X141472444Y-76036586D01*
X141300422Y-76565374D01*
X141197815Y-76859669D01*
X141084538Y-77168156D01*
X140960887Y-77486530D01*
X140827156Y-77810486D01*
X140683642Y-78135718D01*
X140530639Y-78457920D01*
X140368443Y-78772788D01*
X140197349Y-79076014D01*
X140143768Y-79160851D01*
X140098779Y-79220443D01*
X140061957Y-79256051D01*
X140032874Y-79268932D01*
X140011106Y-79260344D01*
X139996224Y-79231545D01*
X139987805Y-79183794D01*
X139985420Y-79118348D01*
X139997051Y-78939406D01*
X140027708Y-78704785D01*
X140132457Y-78108764D01*
X140420224Y-76691439D01*
X140548683Y-76031178D01*
X140597121Y-75748377D01*
X140630486Y-75510548D01*
X140630477Y-75510548D01*
X140646200Y-75269013D01*
X140644961Y-74983586D01*
X140629698Y-74664411D01*
X140603350Y-74321633D01*
X140529148Y-73605847D01*
X140445860Y-72917385D01*
X140376991Y-72337403D01*
X140346045Y-71947058D01*
X140352139Y-71848361D01*
X140361863Y-71827569D01*
X140376529Y-71827506D01*
X140422151Y-71894640D01*
G36*
X140422151Y-71894640D02*
G01*
X140491945Y-72059906D01*
X141701717Y-75238620D01*
X141598243Y-75616234D01*
X141472444Y-76036586D01*
X141300422Y-76565374D01*
X141197815Y-76859669D01*
X141084538Y-77168156D01*
X140960887Y-77486530D01*
X140827156Y-77810486D01*
X140683642Y-78135718D01*
X140530639Y-78457920D01*
X140368443Y-78772788D01*
X140197349Y-79076014D01*
X140143768Y-79160851D01*
X140098779Y-79220443D01*
X140061957Y-79256051D01*
X140032874Y-79268932D01*
X140011106Y-79260344D01*
X139996224Y-79231545D01*
X139987805Y-79183794D01*
X139985420Y-79118348D01*
X139997051Y-78939406D01*
X140027708Y-78704785D01*
X140132457Y-78108764D01*
X140420224Y-76691439D01*
X140548683Y-76031178D01*
X140597121Y-75748377D01*
X140630486Y-75510548D01*
X140630477Y-75510548D01*
X140646200Y-75269013D01*
X140644961Y-74983586D01*
X140629698Y-74664411D01*
X140603350Y-74321633D01*
X140529148Y-73605847D01*
X140445860Y-72917385D01*
X140376991Y-72337403D01*
X140346045Y-71947058D01*
X140352139Y-71848361D01*
X140361863Y-71827569D01*
X140376529Y-71827506D01*
X140422151Y-71894640D01*
G37*
X138430729Y-61311273D02*
X140562894Y-64177112D01*
X139859222Y-67020083D01*
X139847046Y-67060291D01*
X139834352Y-67085161D01*
X139821167Y-67095402D01*
X139807514Y-67091726D01*
X139793418Y-67074844D01*
X139778905Y-67045465D01*
X139748723Y-66952061D01*
X139717166Y-66817201D01*
X139684433Y-66646569D01*
X139616230Y-66220735D01*
X139474422Y-65189968D01*
X139403987Y-64676001D01*
X139335977Y-64223623D01*
X139298421Y-64037436D01*
X139243331Y-63822985D01*
X139093409Y-63333989D01*
X138911917Y-62806041D01*
X138724565Y-62288550D01*
X138435115Y-61482560D01*
X138399260Y-61364795D01*
X138384435Y-61292875D01*
X138385912Y-61276037D01*
X138393853Y-61272976D01*
X138430729Y-61311273D01*
G36*
X138430729Y-61311273D02*
G01*
X140562894Y-64177112D01*
X139859222Y-67020083D01*
X139847046Y-67060291D01*
X139834352Y-67085161D01*
X139821167Y-67095402D01*
X139807514Y-67091726D01*
X139793418Y-67074844D01*
X139778905Y-67045465D01*
X139748723Y-66952061D01*
X139717166Y-66817201D01*
X139684433Y-66646569D01*
X139616230Y-66220735D01*
X139474422Y-65189968D01*
X139403987Y-64676001D01*
X139335977Y-64223623D01*
X139298421Y-64037436D01*
X139243331Y-63822985D01*
X139093409Y-63333989D01*
X138911917Y-62806041D01*
X138724565Y-62288550D01*
X138435115Y-61482560D01*
X138399260Y-61364795D01*
X138384435Y-61292875D01*
X138385912Y-61276037D01*
X138393853Y-61272976D01*
X138430729Y-61311273D01*
G37*
X159577665Y-91143452D02*
X161637261Y-93942648D01*
X161733372Y-94075532D01*
X161782910Y-94151103D01*
X161790940Y-94169070D01*
X161790898Y-94173392D01*
X161788199Y-94174718D01*
X161774977Y-94168717D01*
X161751565Y-94151736D01*
X161232307Y-93700993D01*
X161020939Y-93525393D01*
X160781600Y-93335343D01*
X160516616Y-93136201D01*
X160228312Y-92933325D01*
X159919013Y-92732073D01*
X159757217Y-92633730D01*
X159591045Y-92537802D01*
X159420787Y-92444959D01*
X159246733Y-92355871D01*
X159069175Y-92271208D01*
X158888403Y-92191638D01*
X158565546Y-92084395D01*
X158025043Y-91929852D01*
X156656627Y-91553869D01*
X156011482Y-91369927D01*
X155514223Y-91213684D01*
X155349607Y-91151809D01*
X155256232Y-91103890D01*
X155239830Y-91085896D01*
X155245521Y-91072270D01*
X155274733Y-91063305D01*
X155328895Y-91059294D01*
X159577665Y-91143452D01*
G36*
X159577665Y-91143452D02*
G01*
X161637261Y-93942648D01*
X161733372Y-94075532D01*
X161782910Y-94151103D01*
X161790940Y-94169070D01*
X161790898Y-94173392D01*
X161788199Y-94174718D01*
X161774977Y-94168717D01*
X161751565Y-94151736D01*
X161232307Y-93700993D01*
X161020939Y-93525393D01*
X160781600Y-93335343D01*
X160516616Y-93136201D01*
X160228312Y-92933325D01*
X159919013Y-92732073D01*
X159757217Y-92633730D01*
X159591045Y-92537802D01*
X159420787Y-92444959D01*
X159246733Y-92355871D01*
X159069175Y-92271208D01*
X158888403Y-92191638D01*
X158565546Y-92084395D01*
X158025043Y-91929852D01*
X156656627Y-91553869D01*
X156011482Y-91369927D01*
X155514223Y-91213684D01*
X155349607Y-91151809D01*
X155256232Y-91103890D01*
X155239830Y-91085896D01*
X155245521Y-91072270D01*
X155274733Y-91063305D01*
X155328895Y-91059294D01*
X159577665Y-91143452D01*
G37*
X149902101Y-89975323D02*
X148926114Y-89748650D01*
X148430434Y-89644746D01*
X148157025Y-89591635D01*
X147869523Y-89539188D01*
X147570143Y-89488484D01*
X147261101Y-89440599D01*
X146944611Y-89396610D01*
X146622889Y-89357597D01*
X145839090Y-89280122D01*
X145086375Y-89221727D01*
X143795338Y-89147850D01*
X142992064Y-89107323D01*
X142849053Y-89090614D01*
X142845367Y-89086202D01*
X142855454Y-89081583D01*
X142918840Y-89071502D01*
X146819110Y-88123823D01*
X149902101Y-89975323D01*
G36*
X149902101Y-89975323D02*
G01*
X148926114Y-89748650D01*
X148430434Y-89644746D01*
X148157025Y-89591635D01*
X147869523Y-89539188D01*
X147570143Y-89488484D01*
X147261101Y-89440599D01*
X146944611Y-89396610D01*
X146622889Y-89357597D01*
X145839090Y-89280122D01*
X145086375Y-89221727D01*
X143795338Y-89147850D01*
X142992064Y-89107323D01*
X142849053Y-89090614D01*
X142845367Y-89086202D01*
X142855454Y-89081583D01*
X142918840Y-89071502D01*
X146819110Y-88123823D01*
X149902101Y-89975323D01*
G37*
X133577397Y-52640880D02*
X133641748Y-52662678D01*
X133831168Y-52752318D01*
X136570342Y-54351460D01*
X136701002Y-57272513D01*
X136701759Y-57332891D01*
X136697937Y-57375071D01*
X136689764Y-57400019D01*
X136677467Y-57408703D01*
X136661275Y-57402089D01*
X136641416Y-57381142D01*
X136591605Y-57300121D01*
X136529860Y-57173370D01*
X136458003Y-57008624D01*
X136291245Y-56596075D01*
X135916611Y-55655253D01*
X135825022Y-55441045D01*
X135737907Y-55250701D01*
X135657090Y-55091953D01*
X135584393Y-54972535D01*
X135473374Y-54829412D01*
X135322873Y-54656998D01*
X134937433Y-54249901D01*
X134066843Y-53365866D01*
X133717718Y-52991349D01*
X133594454Y-52843369D01*
X133516723Y-52730111D01*
X133497589Y-52688503D01*
X133493027Y-52657976D01*
X133504099Y-52639329D01*
X133531868Y-52633364D01*
X133577397Y-52640880D01*
G36*
X133577397Y-52640880D02*
G01*
X133641748Y-52662678D01*
X133831168Y-52752318D01*
X136570342Y-54351460D01*
X136701002Y-57272513D01*
X136701759Y-57332891D01*
X136697937Y-57375071D01*
X136689764Y-57400019D01*
X136677467Y-57408703D01*
X136661275Y-57402089D01*
X136641416Y-57381142D01*
X136591605Y-57300121D01*
X136529860Y-57173370D01*
X136458003Y-57008624D01*
X136291245Y-56596075D01*
X135916611Y-55655253D01*
X135825022Y-55441045D01*
X135737907Y-55250701D01*
X135657090Y-55091953D01*
X135584393Y-54972535D01*
X135473374Y-54829412D01*
X135322873Y-54656998D01*
X134937433Y-54249901D01*
X134066843Y-53365866D01*
X133717718Y-52991349D01*
X133594454Y-52843369D01*
X133516723Y-52730111D01*
X133497589Y-52688503D01*
X133493027Y-52657976D01*
X133504099Y-52639329D01*
X133531868Y-52633364D01*
X133577397Y-52640880D01*
G37*
D13*
X119600000Y-61600000D03*
D14*
X119600000Y-66600000D03*
D15*
X203910000Y-126600000D03*
X196290000Y-126600000D03*
D16*
X191144964Y-124984362D03*
X180843254Y-124631143D03*
X189766777Y-129790670D03*
D17*
X208100000Y-126600000D03*
D18*
X163999138Y-106499138D03*
X158200863Y-100700863D03*
D19*
X162514214Y-105014214D03*
D20*
X161100000Y-103600000D03*
X159685787Y-102185787D03*
D15*
X169290000Y-121600000D03*
X176910000Y-121600000D03*
X144600000Y-108100000D03*
X136980000Y-108100000D03*
X176910000Y-117850000D03*
X169290000Y-117850000D03*
D21*
X97100000Y-82100000D03*
D15*
X97100000Y-77100000D03*
X153100000Y-122910000D03*
X153100000Y-115290000D03*
X162100000Y-124600000D03*
X157100000Y-124600000D03*
X157100000Y-129290000D03*
X157100000Y-136910000D03*
X105600000Y-83410000D03*
X105600000Y-75790000D03*
X144600000Y-112600000D03*
X136980000Y-112600000D03*
X133100000Y-83850000D03*
X133100000Y-78850000D03*
X128350000Y-76350000D03*
X128350000Y-83970000D03*
X149600000Y-121600000D03*
X149600000Y-116600000D03*
X110600000Y-83410000D03*
X110600000Y-75790000D03*
D22*
X164400000Y-120400000D03*
D23*
X164400000Y-117860000D03*
X164400000Y-115320000D03*
X164400000Y-112780000D03*
X156780000Y-112780000D03*
X156780000Y-115320000D03*
X156780000Y-117860000D03*
X156780000Y-120400000D03*
D24*
X152700000Y-98600000D03*
X139500000Y-98600000D03*
D25*
X146100000Y-98600000D03*
D22*
X115300000Y-76300000D03*
D23*
X115300000Y-78840000D03*
X115300000Y-81380000D03*
X115300000Y-83920000D03*
X122920000Y-83920000D03*
X122920000Y-81380000D03*
X122920000Y-78840000D03*
X122920000Y-76300000D03*
D13*
X122100000Y-64100000D03*
D14*
X117100000Y-64100000D03*
%LPD*%
M02*
