M48
; DRILL file {KiCad 9.0.2} date 2025-09-12T10:14:42-0600
; FORMAT={-:-/ absolute / metric / decimal}
; #@! TF.CreationDate,2025-09-12T10:14:42-06:00
; #@! TF.GenerationSoftware,Kicad,Pcbnew,9.0.2
; #@! TF.FileFunction,Plated,1,2,PTH
FMAT,2
METRIC
; #@! TA.AperFunction,Plated,PTH,ComponentDrill
T1C0.762
; #@! TA.AperFunction,Plated,PTH,ComponentDrill
T2C0.800
; #@! TA.AperFunction,Plated,PTH,ComponentDrill
T3C0.900
; #@! TA.AperFunction,Plated,PTH,ComponentDrill
T4C0.991
; #@! TA.AperFunction,Plated,PTH,ComponentDrill
T5C1.000
; #@! TA.AperFunction,Plated,PTH,ComponentDrill
T6C1.500
; #@! TA.AperFunction,Plated,PTH,ComponentDrill
T7C2.032
%
G90
G05
T1
X116.9Y-67.9
T2
X114.426Y-80.4
X116.222Y-82.196
X118.018Y-83.992
X119.814Y-75.012
X119.814Y-85.788
X121.61Y-76.808
X123.406Y-78.604
X123.894Y-87.394
X125.202Y-80.4
X127.016Y-84.416
X131.078Y-94.578
X133.894Y-97.394
X134.2Y-91.6
X137.016Y-94.416
X140.214Y-91.464
X141.078Y-104.578
X143.75Y-95.0
X144.172Y-107.672
X144.2Y-101.6
X145.798Y-128.2
X147.197Y-98.268
X147.222Y-104.622
X147.594Y-129.996
X149.39Y-131.792
X150.732Y-101.803
X151.186Y-122.812
X151.186Y-133.588
X151.356Y-114.856
X152.982Y-124.608
X154.1Y-104.532
X154.406Y-111.806
X154.5Y-118.0
X154.778Y-126.404
X156.574Y-128.2
X157.594Y-114.994
X157.636Y-108.068
X160.722Y-111.622
X161.684Y-125.184
X164.778Y-122.178
X167.906Y-118.806
T3
X116.516Y-92.321
X116.9Y-62.9
X117.2Y-94.2
X117.884Y-96.079
T4
X168.697Y-124.832
X172.232Y-121.297
X174.0Y-126.6
T5
X94.0Y-77.771
X94.0Y-82.771
T6
X115.798Y-90.347
X118.602Y-98.053
T7
X124.463Y-105.363
X139.737Y-120.637
M30
